<?xml version="1.0" encoding="UTF-8" standalone="no"?>
<!-- Created with Inkscape (http://www.inkscape.org/) -->

<svg
   width="128"
   height="128"
   viewBox="0 0 33.866667 33.866666"
   version="1.1"
   id="svg1"
   inkscape:version="1.3 (0e150ed6c4, 2023-07-21)"
   sodipodi:docname="baobab.svg"
   xmlns:inkscape="http://www.inkscape.org/namespaces/inkscape"
   xmlns:sodipodi="http://sodipodi.sourceforge.net/DTD/sodipodi-0.dtd"
   xmlns:xlink="http://www.w3.org/1999/xlink"
   xmlns="http://www.w3.org/2000/svg"
   xmlns:svg="http://www.w3.org/2000/svg">
  <sodipodi:namedview
     id="namedview1"
     pagecolor="#ffffff"
     bordercolor="#000000"
     borderopacity="0.25"
     inkscape:showpageshadow="2"
     inkscape:pageopacity="0.0"
     inkscape:pagecheckerboard="0"
     inkscape:deskcolor="#d1d1d1"
     inkscape:document-units="mm"
     inkscape:zoom="6.4447137"
     inkscape:cx="69.048839"
     inkscape:cy="88.67733"
     inkscape:window-width="1920"
     inkscape:window-height="1043"
     inkscape:window-x="0"
     inkscape:window-y="0"
     inkscape:window-maximized="1"
     inkscape:current-layer="layer1" />
  <defs
     id="defs1">
    <linearGradient
       id="linearGradient1"
       inkscape:collect="always">
      <stop
         style="stop-color:#cccccc;stop-opacity:1"
         offset="0"
         id="stop1" />
      <stop
         style="stop-color:#dbdbdb;stop-opacity:1;"
         offset="0.34999999"
         id="stop5" />
      <stop
         style="stop-color:#ececec;stop-opacity:1"
         offset="0.5"
         id="stop3" />
      <stop
         style="stop-color:#dcdcdc;stop-opacity:1;"
         offset="0.64999998"
         id="stop4" />
      <stop
         style="stop-color:#cccccc;stop-opacity:1"
         offset="1"
         id="stop2" />
    </linearGradient>
    <linearGradient
       inkscape:collect="always"
       xlink:href="#linearGradient1"
       id="linearGradient2"
       x1="6.4481087"
       y1="18.768076"
       x2="29.137573"
       y2="18.768076"
       gradientUnits="userSpaceOnUse"
       gradientTransform="translate(-18.482436,7.0843963)" />
    <filter
       inkscape:collect="always"
       style="color-interpolation-filters:sRGB"
       id="filter12"
       x="-0.51363674"
       y="-0.96520435"
       width="2.0272735"
       height="2.9304087">
      <feGaussianBlur
         inkscape:collect="always"
         stdDeviation="2.4222158"
         id="feGaussianBlur12" />
    </filter>
    <filter
       inkscape:collect="always"
       style="color-interpolation-filters:sRGB"
       id="filter13"
       x="-0.5905175"
       y="-0.59049562"
       width="2.181035"
       height="2.1809912">
      <feGaussianBlur
         inkscape:collect="always"
         stdDeviation="2.4222158"
         id="feGaussianBlur13" />
    </filter>
    <filter
       inkscape:collect="always"
       style="color-interpolation-filters:sRGB"
       id="filter14"
       x="-0.96520435"
       y="-0.51363676"
       width="2.9304087"
       height="2.0272735">
      <feGaussianBlur
         inkscape:collect="always"
         stdDeviation="2.4222158"
         id="feGaussianBlur14" />
    </filter>
    <filter
       inkscape:collect="always"
       style="color-interpolation-filters:sRGB"
       id="filter15"
       x="-0.59049564"
       y="-0.59051751"
       width="2.1809913"
       height="2.181035">
      <feGaussianBlur
         inkscape:collect="always"
         stdDeviation="2.4222158"
         id="feGaussianBlur15" />
    </filter>
    <filter
       inkscape:collect="always"
       style="color-interpolation-filters:sRGB"
       id="filter16"
       x="-0.51363673"
       y="-0.96520451"
       width="2.0272735"
       height="2.930409">
      <feGaussianBlur
         inkscape:collect="always"
         stdDeviation="2.4222158"
         id="feGaussianBlur16" />
    </filter>
    <filter
       inkscape:collect="always"
       style="color-interpolation-filters:sRGB"
       id="filter17"
       x="-0.59051752"
       y="-0.59049561"
       width="2.181035"
       height="2.1809912">
      <feGaussianBlur
         inkscape:collect="always"
         stdDeviation="2.4222158"
         id="feGaussianBlur17" />
    </filter>
    <filter
       inkscape:collect="always"
       style="color-interpolation-filters:sRGB"
       id="filter18"
       x="-0.71708642"
       y="-0.71714072"
       width="2.4341728"
       height="2.4342814">
      <feGaussianBlur
         inkscape:collect="always"
         stdDeviation="3.3819842"
         id="feGaussianBlur18" />
    </filter>
    <filter
       inkscape:collect="always"
       style="color-interpolation-filters:sRGB"
       id="filter19"
       x="-0.59049561"
       y="-0.5905175"
       width="2.1809912"
       height="2.181035">
      <feGaussianBlur
         inkscape:collect="always"
         stdDeviation="2.4222158"
         id="feGaussianBlur19" />
    </filter>
    <filter
       id="mask-powermask-path-effect34_inverse"
       inkscape:label="filtermask-powermask-path-effect34"
       style="color-interpolation-filters:sRGB"
       height="100"
       width="100"
       x="-50"
       y="-50">
      <feColorMatrix
         id="mask-powermask-path-effect34_primitive1"
         values="1"
         type="saturate"
         result="fbSourceGraphic" />
      <feColorMatrix
         id="mask-powermask-path-effect34_primitive2"
         values="-1 0 0 0 1 0 -1 0 0 1 0 0 -1 0 1 0 0 0 1 0 "
         in="fbSourceGraphic" />
    </filter>
    <clipPath
       clipPathUnits="userSpaceOnUse"
       id="clipPath34">
      <path
         id="path34"
         style="opacity:1;fill:url(#linearGradient34);fill-opacity:1;stroke-width:0.264583"
         d="m -9.4748733,7.4522579 a 11.344732,11.344732 0 0 0 -7.2124797,3.2938561 11.344732,11.344732 0 0 0 0,16.043983 11.344732,11.344732 0 0 0 16.04398135,0 11.344732,11.344732 0 0 0 0,-16.043983 11.344732,11.344732 0 0 0 -8.83150165,-3.2938561 z m 0.8092519,9.7270551 a 1.5866332,1.5866332 0 0 1 1.5869841,1.586467 1.5866332,1.5866332 0 0 1 -1.586983,1.586983 1.5866332,1.5866332 0 0 1 -1.5864667,-1.586983 1.5866332,1.5866332 0 0 1 1.5864656,-1.586467 z" />
    </clipPath>
    <linearGradient
       inkscape:collect="always"
       xlink:href="#linearGradient1"
       id="linearGradient34"
       gradientUnits="userSpaceOnUse"
       gradientTransform="rotate(-45,4.5636759,50.706106)"
       x1="6.4481087"
       y1="18.768076"
       x2="29.137573"
       y2="18.768076" />
  </defs>
  <g
     inkscape:label="Layer 1"
     inkscape:groupmode="layer"
     id="layer1">
    <path
       id="path1"
       style="opacity:1;fill:url(#linearGradient2);fill-opacity:1;stroke-width:0.264583"
       d="M 6.739577 17.278662 A 11.344732 11.344732 0 0 0 -0.68952406 14.507776 A 11.344732 11.344732 0 0 0 -12.034332 25.852585 A 11.344732 11.344732 0 0 0 -0.68952406 37.197393 A 11.344732 11.344732 0 0 0 10.655284 25.852585 A 11.344732 11.344732 0 0 0 6.739577 17.278662 z M 0.43373877 24.728956 A 1.5866332 1.5866332 0 0 1 0.43410418 26.972924 A 1.5866332 1.5866332 0 0 1 -1.810229 26.972924 A 1.5866332 1.5866332 0 0 1 -1.8098636 24.728956 A 1.5866332 1.5866332 0 0 1 0.43373877 24.728956 z "
       transform="rotate(-45)" />
    <g
       id="g23"
       clip-path="url(#clipPath34)"
       style="opacity:0.55"
       transform="translate(26.458334)">
      <g
         id="g19"
         transform="translate(-26.458334)">
        <path
           id="path8"
           style="opacity:1;fill:#00d455;fill-opacity:1;stroke-width:0.20739;filter:url(#filter16)"
           d="M 17.792971,18.766037 6.8820077,15.754852 a 11.344732,11.344732 0 0 0 -2e-7,6.022887 z"
           inkscape:transform-center-x="5.6589776" />
        <path
           id="path9"
           style="opacity:1;fill:#00d455;fill-opacity:1;stroke-width:0.20739;filter:url(#filter12)"
           d="m 17.792971,18.766554 10.910963,3.011186 a 11.344732,11.344732 0 0 0 0,-6.022888 z"
           inkscape:transform-center-x="-5.658978" />
      </g>
      <g
         id="g22"
         transform="translate(-26.458334)">
        <path
           id="path6"
           style="opacity:1;fill:#f9f9f9;fill-opacity:1;stroke-width:0.20739;filter:url(#filter19)"
           inkscape:transform-center-y="4.9224055"
           d="m 17.792788,18.766478 5.585986,9.844446 a 11.344732,11.344732 45 0 0 4.258825,-4.258825 z"
           inkscape:transform-center-x="-4.9222228" />
        <path
           id="path10"
           style="opacity:1;fill:#f9f9f9;fill-opacity:1;stroke-width:0.20739;filter:url(#filter15)"
           inkscape:transform-center-y="-4.9224055"
           d="M 17.793153,18.766113 12.207167,8.9216671 A 11.344732,11.344732 0 0 0 7.9483425,13.180492 Z"
           inkscape:transform-center-x="4.922223" />
      </g>
      <g
         id="g20"
         transform="translate(-26.458334)">
        <path
           id="rect5"
           style="opacity:1;fill:#2a7fff;fill-opacity:1;stroke-width:0.289566;filter:url(#filter18)"
           inkscape:transform-center-y="5.6589778"
           d="m 43.170138,-23.70209 8.57e-4,11.318114 a 8.3219118,30.149693 45 0 0 11.318228,-11.318228 z"
           transform="matrix(0.26607028,0.96395363,-0.26607028,0.96395363,0,0)" />
        <path
           id="path11"
           style="opacity:1;fill:#2a7fff;fill-opacity:1;stroke-width:0.20739;filter:url(#filter14)"
           inkscape:transform-center-y="-5.658978"
           d="M 17.793229,18.766295 20.804415,7.8553323 a 11.344732,11.344732 0 0 0 -6.022888,3e-7 z" />
      </g>
      <g
         id="g21"
         transform="translate(-26.458334)">
        <path
           id="path7"
           style="opacity:1;fill:#ff5599;fill-opacity:1;stroke-width:0.20739;filter:url(#filter17)"
           inkscape:transform-center-y="4.922223"
           d="m 17.792788,18.766113 -9.8444457,5.585986 a 11.344732,11.344732 0 0 0 4.2588247,4.258825 z"
           inkscape:transform-center-x="4.9224056" />
        <path
           id="path12"
           style="opacity:1;fill:#ff5599;fill-opacity:1;stroke-width:0.20739;filter:url(#filter13)"
           inkscape:transform-center-y="-4.922223"
           d="M 17.793154,18.766478 27.6376,13.180492 A 11.344732,11.344732 0 0 0 23.378774,8.9216672 Z"
           inkscape:transform-center-x="-4.922406" />
      </g>
    </g>
    <path
       id="circle28"
       style="opacity:1;fill:#999999;fill-opacity:1;stroke-width:0.614443"
       d="M 17.792712 13.930933 A 4.8352189 4.8352189 0 0 0 12.957865 18.76578 A 4.8352189 4.8352189 0 0 0 17.792712 23.601143 A 4.8352189 4.8352189 0 0 0 22.628076 18.76578 A 4.8352189 4.8352189 0 0 0 17.792712 13.930933 z M 17.792712 17.179313 A 1.5866332 1.5866332 0 0 1 19.379696 18.76578 A 1.5866332 1.5866332 0 0 1 17.792712 20.352763 A 1.5866332 1.5866332 0 0 1 16.206246 18.76578 A 1.5866332 1.5866332 0 0 1 17.792712 17.179313 z " />
    <path
       id="circle27"
       style="opacity:1;fill:#f2f2f2;fill-opacity:1;stroke-width:0.539791"
       d="M 17.792712 14.518494 A 4.2477622 4.2477622 0 0 0 13.545426 18.76578 A 4.2477622 4.2477622 0 0 0 17.792712 23.013582 A 4.2477622 4.2477622 0 0 0 22.040515 18.76578 A 4.2477622 4.2477622 0 0 0 17.792712 14.518494 z M 17.792712 17.179313 A 1.5866332 1.5866332 0 0 1 19.379696 18.76578 A 1.5866332 1.5866332 0 0 1 17.792712 20.352763 A 1.5866332 1.5866332 0 0 1 16.206246 18.76578 A 1.5866332 1.5866332 0 0 1 17.792712 17.179313 z " />
    <path
       id="circle26"
       style="opacity:1;fill:#cccccc;fill-opacity:1;stroke-width:0.438126"
       d="M 17.792712 15.318445 A 3.4477298 3.4477298 0 0 0 14.345378 18.76578 A 3.4477298 3.4477298 0 0 0 17.792712 22.213631 A 3.4477298 3.4477298 0 0 0 21.240564 18.76578 A 3.4477298 3.4477298 0 0 0 17.792712 15.318445 z M 17.792712 17.179313 A 1.5866332 1.5866332 0 0 1 19.379696 18.76578 A 1.5866332 1.5866332 0 0 1 17.792712 20.352763 A 1.5866332 1.5866332 0 0 1 16.206246 18.76578 A 1.5866332 1.5866332 0 0 1 17.792712 17.179313 z " />
    <path
       id="circle25"
       style="opacity:1;fill:#e6e6e6;fill-opacity:1;stroke-width:0.405136"
       d="M 17.792712 15.577861 A 3.1881232 3.1881232 0 0 0 14.604793 18.76578 A 3.1881232 3.1881232 0 0 0 17.792712 21.954215 A 3.1881232 3.1881232 0 0 0 20.981148 18.76578 A 3.1881232 3.1881232 0 0 0 17.792712 15.577861 z M 17.792712 17.179313 A 1.5866332 1.5866332 0 0 1 19.379696 18.76578 A 1.5866332 1.5866332 0 0 1 17.792712 20.352763 A 1.5866332 1.5866332 0 0 1 16.206246 18.76578 A 1.5866332 1.5866332 0 0 1 17.792712 17.179313 z " />
    <path
       id="circle24"
       style="opacity:1;fill:#cccccc;fill-opacity:1;stroke-width:0.36049"
       d="M 17.792712 15.92926 A 2.8367884 2.8367884 0 0 0 14.956193 18.76578 A 2.8367884 2.8367884 0 0 0 17.792712 21.602816 A 2.8367884 2.8367884 0 0 0 20.629749 18.76578 A 2.8367884 2.8367884 0 0 0 17.792712 15.92926 z M 17.792712 17.179313 A 1.5866332 1.5866332 0 0 1 19.379696 18.76578 A 1.5866332 1.5866332 0 0 1 17.792712 20.352763 A 1.5866332 1.5866332 0 0 1 16.206246 18.76578 A 1.5866332 1.5866332 0 0 1 17.792712 17.179313 z " />
    <path
       id="path35"
       style="opacity:1;fill:#b3b3b3;fill-opacity:1;stroke-width:2.28755"
       d="M 17.792712 7.4197021 A 11.346649 11.346649 0 0 0 6.4461182 18.766296 A 11.346649 11.346649 0 0 0 17.792712 30.112891 A 11.346649 11.346649 0 0 0 29.139307 18.766296 A 11.346649 11.346649 0 0 0 17.792712 7.4197021 z M 17.792712 7.5876506 A 11.178657 11.178657 0 0 1 28.971358 18.766296 A 11.178657 11.178657 0 0 1 17.792712 29.944942 A 11.178657 11.178657 0 0 1 6.6140666 18.766296 A 11.178657 11.178657 0 0 1 17.792712 7.5876506 z " />
  </g>
</svg>
