<?xml version="1.0" encoding="UTF-8" standalone="no"?>
<!-- Created with Inkscape (http://www.inkscape.org/) -->

<svg
   width="128"
   height="128"
   viewBox="0 0 128 128"
   version="1.1"
   id="svg5"
   inkscape:version="1.2.2 (b0a8486541, 2022-12-01)"
   sodipodi:docname="com.helix_editor.Helix.svg"
   xml:space="preserve"
   xmlns:inkscape="http://www.inkscape.org/namespaces/inkscape"
   xmlns:sodipodi="http://sodipodi.sourceforge.net/DTD/sodipodi-0.dtd"
   xmlns:xlink="http://www.w3.org/1999/xlink"
   xmlns="http://www.w3.org/2000/svg"
   xmlns:svg="http://www.w3.org/2000/svg"><sodipodi:namedview
     id="namedview7"
     pagecolor="#ffffff"
     bordercolor="#666666"
     borderopacity="1"
     inkscape:pageshadow="2"
     inkscape:pageopacity="0.0"
     inkscape:pagecheckerboard="true"
     inkscape:document-units="px"
     showgrid="false"
     inkscape:showpageshadow="false"
     showborder="true"
     inkscape:snap-page="true"
     inkscape:zoom="2.3071216"
     inkscape:cx="14.736978"
     inkscape:cy="60.248234"
     inkscape:window-width="1366"
     inkscape:window-height="731"
     inkscape:window-x="0"
     inkscape:window-y="0"
     inkscape:window-maximized="1"
     inkscape:current-layer="layer2"
     inkscape:deskcolor="#d1d1d1" /><defs
     id="defs2"><linearGradient
   inkscape:collect="always"
   id="linearGradient404"><stop
     style="stop-color:#954a86;stop-opacity:1"
     offset="0"
     id="stop400" /><stop
     style="stop-color:#f8cdee;stop-opacity:1;"
     offset="1"
     id="stop402" /></linearGradient><linearGradient
   y2="236"
   x2="96"
   y1="236"
   x1="32"
   gradientTransform="translate(604.81684,170.58641)"
   gradientUnits="userSpaceOnUse"
   id="linearGradient1099"
   xlink:href="#linearGradient1036" /><linearGradient
   id="linearGradient1036"><stop
     id="stop1032"
     offset="0"
     style="stop-color:#d5d3cf;stop-opacity:1;" /><stop
     id="stop1034"
     offset="1"
     style="stop-color:#f6f5f4;stop-opacity:1" /></linearGradient><radialGradient
   r="32"
   fy="-76"
   fx="-244"
   cy="-76"
   cx="-244"
   gradientTransform="matrix(0.88333331,0,0,0.88333331,-460.35018,463.11973)"
   gradientUnits="userSpaceOnUse"
   id="radialGradient1103"
   xlink:href="#linearGradient1069" /><linearGradient
   id="linearGradient1069"><stop
     id="stop1065"
     offset="0"
     style="stop-color:#d5d3cf;stop-opacity:1" /><stop
     id="stop1067-1"
     offset="1"
     style="stop-color:#949390;stop-opacity:1" /></linearGradient><linearGradient
   gradientUnits="userSpaceOnUse"
   y2="232"
   x2="64"
   y1="262.5"
   x1="64"
   id="linearGradient1027"
   xlink:href="#linearGradient1025"
   gradientTransform="translate(-470.5864,432.81685)" /><linearGradient
   id="linearGradient1025"><stop
     id="stop1021"
     offset="0"
     style="stop-color:#9a9996;stop-opacity:1" /><stop
     id="stop1023"
     offset="1"
     style="stop-color:#77767b;stop-opacity:1" /></linearGradient><inkscape:path-effect
   effect="spiro"
   id="path-effect35304-9"
   is_visible="true" /><clipPath
   clipPathUnits="userSpaceOnUse"
   id="clipPath1609-7"><path
     sodipodi:nodetypes="cccccc"
     inkscape:connector-curvature="0"
     id="path1611-5"
     d="m 252,116 28,-28 v -8 h -36 v 36 z"
     style="fill:#e74747;stroke:none;stroke-width:0.25px;stroke-linecap:butt;stroke-linejoin:miter;stroke-opacity:1" /></clipPath><linearGradient
   inkscape:collect="always"
   id="linearGradient8241"><stop
     style="stop-color:#36142f;stop-opacity:1;"
     offset="0"
     id="stop8237" /><stop
     style="stop-color:#5b2050;stop-opacity:1;"
     offset="0.05"
     id="stop9349" /><stop
     style="stop-color:#36142f;stop-opacity:1;"
     offset="0.1"
     id="stop21746" /><stop
     style="stop-color:#36142f;stop-opacity:1;"
     offset="0.89999998"
     id="stop21940" /><stop
     style="stop-color:#5b2050;stop-opacity:1;"
     offset="0.94999999"
     id="stop9351" /><stop
     style="stop-color:#36142f;stop-opacity:1;"
     offset="1"
     id="stop8239" /></linearGradient><radialGradient
   r="32"
   fy="-76"
   fx="-244"
   cy="-76"
   cx="-244"
   gradientTransform="matrix(0.88333331,0,0,0.88333331,-460.35018,463.11973)"
   gradientUnits="userSpaceOnUse"
   id="radialGradient1103-5"
   xlink:href="#linearGradient1069" /><inkscape:path-effect
   effect="spiro"
   id="path-effect35304-9-2"
   is_visible="true" /><clipPath
   clipPathUnits="userSpaceOnUse"
   id="clipPath1609-7-7"><path
     sodipodi:nodetypes="cccccc"
     inkscape:connector-curvature="0"
     id="path1611-5-0"
     d="m 252,116 28,-28 v -8 h -36 v 36 z"
     style="fill:#e74747;stroke:none;stroke-width:0.25px;stroke-linecap:butt;stroke-linejoin:miter;stroke-opacity:1" /></clipPath><clipPath
   clipPathUnits="userSpaceOnUse"
   id="clipPath744"><rect
     style="fill:#1e88e5;fill-opacity:1;stroke-width:0.264583"
     id="rect746"
     width="541.86664"
     height="541.86664"
     x="0"
     y="1.5987212e-14"
     rx="79.375"
     ry="79.375" /></clipPath><clipPath
   clipPathUnits="userSpaceOnUse"
   id="clipPath62"><rect
     style="fill:#1e88e5;fill-opacity:1;stroke-width:0.264583"
     id="rect64"
     width="541.86664"
     height="541.86664"
     x="2.2507105e-05"
     y="-0.42205024"
     rx="79.375"
     ry="79.375" /></clipPath><linearGradient
   inkscape:collect="always"
   xlink:href="#linearGradient8241"
   id="linearGradient8243"
   x1="11.5"
   y1="120.5"
   x2="116.5"
   y2="120.5"
   gradientUnits="userSpaceOnUse" /><radialGradient
   r="32"
   fy="-76"
   fx="-244"
   cy="-76"
   cx="-244"
   gradientTransform="matrix(0.88333331,0,0,0.88333331,-460.35018,463.11973)"
   gradientUnits="userSpaceOnUse"
   id="radialGradient1103-6"
   xlink:href="#linearGradient1069" /><inkscape:path-effect
   effect="spiro"
   id="path-effect35304-9-20"
   is_visible="true" /><clipPath
   clipPathUnits="userSpaceOnUse"
   id="clipPath1609-7-2"><path
     sodipodi:nodetypes="cccccc"
     inkscape:connector-curvature="0"
     id="path1611-5-3"
     d="m 252,116 28,-28 v -8 h -36 v 36 z"
     style="fill:#e74747;stroke:none;stroke-width:0.25px;stroke-linecap:butt;stroke-linejoin:miter;stroke-opacity:1" /></clipPath><radialGradient
   r="32"
   fy="-76"
   fx="-244"
   cy="-76"
   cx="-244"
   gradientTransform="matrix(0.88333331,0,0,0.88333331,-460.35018,463.11973)"
   gradientUnits="userSpaceOnUse"
   id="radialGradient1103-56"
   xlink:href="#linearGradient1069" /><inkscape:path-effect
   effect="spiro"
   id="path-effect35304-9-7"
   is_visible="true" /><clipPath
   clipPathUnits="userSpaceOnUse"
   id="clipPath1609-7-0"><path
     sodipodi:nodetypes="cccccc"
     inkscape:connector-curvature="0"
     id="path1611-5-9"
     d="m 252,116 28,-28 v -8 h -36 v 36 z"
     style="fill:#e74747;stroke:none;stroke-width:0.25px;stroke-linecap:butt;stroke-linejoin:miter;stroke-opacity:1" /></clipPath><clipPath
   clipPathUnits="userSpaceOnUse"
   id="clipPath37"><rect
     style="fill:#1a1a1a;fill-opacity:1;stroke-width:0.264583"
     id="rect39"
     width="541.86664"
     height="541.86664"
     x="-2.6626146e-06"
     y="3.2408705"
     rx="79.375"
     ry="79.375" /></clipPath><clipPath
   clipPathUnits="userSpaceOnUse"
   id="clipPath22042"><rect
     style="fill:#333333;fill-opacity:1;stroke-width:0.0133797"
     id="rect22044"
     width="27.31955"
     height="27.483929"
     x="166.96844"
     y="105.40438"
     rx="4.0018873"
     ry="4.0259666" /></clipPath><clipPath
   clipPathUnits="userSpaceOnUse"
   id="clipPath1039"><rect
     style="fill:#b3b3b3;fill-opacity:1;stroke-width:0.264583"
     id="rect1041"
     width="541.8667"
     height="541.86682"
     x="2.5931527e-05"
     y="-0.00010962487"
     rx="79.375008"
     ry="79.375031" /></clipPath><clipPath
   clipPathUnits="userSpaceOnUse"
   id="clipPath154"><rect
     style="fill:#b3b3b3;fill-opacity:1;stroke-width:0.264583"
     id="rect156"
     width="541.8667"
     height="541.86682"
     x="-2.9218751e-05"
     y="-0.00016368683"
     rx="79.375008"
     ry="79.375031" /></clipPath><linearGradient
   inkscape:collect="always"
   xlink:href="#linearGradient404"
   id="linearGradient406"
   x1="64"
   y1="112.5"
   x2="64"
   y2="7.5"
   gradientUnits="userSpaceOnUse" />                                                                                                                                                                                 <filter
   style="color-interpolation-filters:sRGB;"
   inkscape:label="Drop Shadow"
   id="filter14063"
   x="-0.074777124"
   y="-0.087896696"
   width="1.1495542"
   height="1.3103835"><feFlood
     flood-opacity="0.403922"
     flood-color="rgb(0,0,0)"
     result="flood"
     id="feFlood14053" /><feComposite
     in="flood"
     in2="SourceGraphic"
     operator="in"
     result="composite1"
     id="feComposite14055" /><feGaussianBlur
     in="composite1"
     stdDeviation="1.5"
     result="blur"
     id="feGaussianBlur14057" /><feOffset
     dx="2.77556e-17"
     dy="5.51243"
     result="offset"
     id="feOffset14059" /><feComposite
     in="SourceGraphic"
     in2="offset"
     operator="over"
     result="composite2"
     id="feComposite14061" /></filter></defs><g
     inkscape:groupmode="layer"
     id="layer2"
     inkscape:label="Layer 1"><rect
       style="fill:url(#linearGradient8243);fill-opacity:1"
       id="rect440"
       width="105"
       height="105"
       x="11.5"
       y="15.5"
       rx="13"
       ry="13" /><rect
       style="fill:url(#linearGradient406);fill-opacity:1"
       id="rect358"
       width="105"
       height="105"
       x="11.5"
       y="7.5"
       rx="13"
       ry="13" /><rect
       style="fill:#873275;fill-opacity:1;stroke-width:0.959575"
       id="rect338"
       width="100.75533"
       height="100.75533"
       x="13.622333"
       y="9.6223326"
       rx="12"
       ry="12" /><path
       d="M 39.928308,97.813184 86.078035,71.168386 c 1.233494,-0.712145 1.993339,-2.029322 1.993339,-3.453614 0,-2.476192 0,-6.389228 0,-8.86542 0,-0.712146 -0.189961,-1.397513 -0.5339,-1.994176 0,0 -36.636597,21.151819 -45.632563,26.346048 -1.223452,0.706288 -1.976603,2.011749 -1.976603,3.424325 0,3.841905 0,11.187635 0,11.187635 z"
       style="clip-rule:evenodd;fill:#6e69c5;fill-opacity:1;fill-rule:evenodd;stroke-width:0.0836834;stroke-linejoin:round;stroke-miterlimit:2;filter:url(#filter14063)"
       id="path287"
       transform="matrix(1.1648237,0,0,1.1648237,-10.548716,-10.343725)" /><path
       d="m 86.094772,36.797936 c 1.223451,-0.706288 1.976602,-2.010912 1.976602,-3.423488 0,-3.842742 0,-11.187635 0,-11.187635 l -46.14889,26.643961 c -1.23433,0.712982 -1.994176,2.029323 -1.994176,3.453614 0,2.476192 0,6.390065 0,8.865421 0,0.712982 0.189962,1.398349 0.533901,1.994175 0,0 36.636596,-21.151818 45.632563,-26.346048 z"
       style="clip-rule:evenodd;fill:#68b5cb;fill-opacity:1;fill-rule:evenodd;stroke-width:0.0836834;stroke-linejoin:round;stroke-miterlimit:2;filter:url(#filter14063)"
       id="path291"
       transform="matrix(1.1648237,0,0,1.1648237,-10.548716,-10.343725)" /><path
       d="m 44.368718,52.545804 c -0.434568,-0.250213 -0.810892,-0.614236 -1.079349,-1.079516 -0.807293,-1.397513 -0.337746,-3.205074 1.045625,-4.027682 h -5.02e-4 l -2.412175,1.392492 c -1.233995,0.712145 -1.994092,2.028485 -1.994092,3.453614 0,2.476192 0,6.389228 0,8.86542 0,1.425129 0.760097,2.741469 1.994092,3.453615 l 41.709234,24.078227 0.02008,0.01172 c 0.425949,0.249628 0.794993,0.609717 1.058596,1.067466 0.807544,1.398182 0.338081,3.205074 -1.045206,4.028268 h 8.37e-4 l 2.411755,-1.392659 c 1.234331,-0.712397 1.994176,-2.028988 1.994176,-3.453866 0,-2.476025 0,-6.389061 0,-8.865253 0,-1.425128 -0.759845,-2.741468 -1.994176,-3.453614 l -2.479539,-1.431823 0.03347,0.02176 z"
       style="clip-rule:evenodd;fill:#a4edf8;fill-opacity:1;fill-rule:evenodd;stroke-width:0.0836834;stroke-linejoin:round;stroke-miterlimit:2;filter:url(#filter14063)"
       id="path295"
       transform="matrix(1.1648237,0,0,1.1648237,-10.548716,-10.343725)" /><path
       d="m 44.368718,31.316997 c -0.434568,-0.250214 -0.810892,-0.614237 -1.079349,-1.078679 -0.807293,-1.39835 -0.337746,-3.205075 1.045625,-4.02852 h -5.02e-4 l -2.412175,1.392492 c -1.233995,0.712146 -1.994092,2.029323 -1.994092,3.453614 0,2.476193 0,6.389229 0,8.865421 0,1.425128 0.760097,2.741468 1.994092,3.453614 l 41.709234,24.078228 0.02008,0.01172 c 0.425949,0.250213 0.794993,0.610052 1.058596,1.0678 0.807544,1.39835 0.338081,3.205074 -1.045206,4.028519 h 8.37e-4 l 2.411755,-1.393329 c 1.234331,-0.712145 1.994176,-2.028485 1.994176,-3.453614 0,-2.476192 0,-6.389228 0,-8.86542 0,-1.424292 -0.759845,-2.741469 -1.994176,-3.453615 l -2.479539,-1.430986 0.03347,0.02092 z"
       style="clip-rule:evenodd;fill:#d4baff;fill-opacity:1;fill-rule:evenodd;stroke-width:0.0836834;stroke-linejoin:round;stroke-miterlimit:2;filter:url(#filter14063)"
       id="path299"
       transform="matrix(1.1648237,0,0,1.1648237,-10.548716,-10.343725)" /></g></svg>
