<?xml version="1.0" encoding="UTF-8" standalone="no"?>
<!-- Created with Inkscape (http://www.inkscape.org/) -->

<svg
   width="128"
   height="128"
   viewBox="0 0 128 128"
   version="1.1"
   id="svg5"
   inkscape:version="1.2.2 (b0a8486541, 2022-12-01)"
   sodipodi:docname="com.vscodium.codium.svg"
   xml:space="preserve"
   xmlns:inkscape="http://www.inkscape.org/namespaces/inkscape"
   xmlns:sodipodi="http://sodipodi.sourceforge.net/DTD/sodipodi-0.dtd"
   xmlns:xlink="http://www.w3.org/1999/xlink"
   xmlns="http://www.w3.org/2000/svg"
   xmlns:svg="http://www.w3.org/2000/svg"><sodipodi:namedview
     id="namedview7"
     pagecolor="#ffffff"
     bordercolor="#666666"
     borderopacity="1"
     inkscape:pageshadow="2"
     inkscape:pageopacity="0.0"
     inkscape:pagecheckerboard="true"
     inkscape:document-units="px"
     showgrid="false"
     inkscape:showpageshadow="false"
     showborder="true"
     inkscape:snap-page="true"
     inkscape:zoom="3.2627627"
     inkscape:cx="148.34055"
     inkscape:cy="84.89738"
     inkscape:window-width="1366"
     inkscape:window-height="731"
     inkscape:window-x="0"
     inkscape:window-y="0"
     inkscape:window-maximized="1"
     inkscape:current-layer="layer2"
     inkscape:deskcolor="#d1d1d1" /><defs
     id="defs2"><linearGradient
       inkscape:collect="always"
       id="linearGradient404"><stop
         style="stop-color:#f4f4f4;stop-opacity:1;"
         offset="0"
         id="stop400" /><stop
         style="stop-color:#ffffff;stop-opacity:1"
         offset="1"
         id="stop402" /></linearGradient><linearGradient
       y2="236"
       x2="96"
       y1="236"
       x1="32"
       gradientTransform="translate(604.81684,170.58641)"
       gradientUnits="userSpaceOnUse"
       id="linearGradient1099"
       xlink:href="#linearGradient1036" /><linearGradient
       id="linearGradient1036"><stop
         id="stop1032"
         offset="0"
         style="stop-color:#d5d3cf;stop-opacity:1;" /><stop
         id="stop1034"
         offset="1"
         style="stop-color:#f6f5f4;stop-opacity:1" /></linearGradient><radialGradient
       r="32"
       fy="-76"
       fx="-244"
       cy="-76"
       cx="-244"
       gradientTransform="matrix(0.88333331,0,0,0.88333331,-460.35018,463.11973)"
       gradientUnits="userSpaceOnUse"
       id="radialGradient1103"
       xlink:href="#linearGradient1069" /><linearGradient
       id="linearGradient1069"><stop
         id="stop1065"
         offset="0"
         style="stop-color:#d5d3cf;stop-opacity:1" /><stop
         id="stop1067-1"
         offset="1"
         style="stop-color:#949390;stop-opacity:1" /></linearGradient><linearGradient
       gradientUnits="userSpaceOnUse"
       y2="232"
       x2="64"
       y1="262.5"
       x1="64"
       id="linearGradient1027"
       xlink:href="#linearGradient1025"
       gradientTransform="translate(-470.5864,432.81685)" /><linearGradient
       id="linearGradient1025"><stop
         id="stop1021"
         offset="0"
         style="stop-color:#9a9996;stop-opacity:1" /><stop
         id="stop1023"
         offset="1"
         style="stop-color:#77767b;stop-opacity:1" /></linearGradient><inkscape:path-effect
       effect="spiro"
       id="path-effect35304-9"
       is_visible="true" /><clipPath
       clipPathUnits="userSpaceOnUse"
       id="clipPath1609-7"><path
         sodipodi:nodetypes="cccccc"
         inkscape:connector-curvature="0"
         id="path1611-5"
         d="m 252,116 28,-28 v -8 h -36 v 36 z"
         style="fill:#e74747;stroke:none;stroke-width:0.25px;stroke-linecap:butt;stroke-linejoin:miter;stroke-opacity:1" /></clipPath><linearGradient
       inkscape:collect="always"
       id="linearGradient8241"><stop
         style="stop-color:#999999;stop-opacity:1"
         offset="0"
         id="stop8237" /><stop
         style="stop-color:#b3b3b3;stop-opacity:1"
         offset="0.05"
         id="stop9349" /><stop
         style="stop-color:#999999;stop-opacity:1"
         offset="0.1"
         id="stop21746" /><stop
         style="stop-color:#999999;stop-opacity:1"
         offset="0.89999998"
         id="stop21940" /><stop
         style="stop-color:#b3b3b3;stop-opacity:1"
         offset="0.94999999"
         id="stop9351" /><stop
         style="stop-color:#999999;stop-opacity:1"
         offset="1"
         id="stop8239" /></linearGradient><radialGradient
       r="32"
       fy="-76"
       fx="-244"
       cy="-76"
       cx="-244"
       gradientTransform="matrix(0.88333331,0,0,0.88333331,-460.35018,463.11973)"
       gradientUnits="userSpaceOnUse"
       id="radialGradient1103-5"
       xlink:href="#linearGradient1069" /><inkscape:path-effect
       effect="spiro"
       id="path-effect35304-9-2"
       is_visible="true" /><clipPath
       clipPathUnits="userSpaceOnUse"
       id="clipPath1609-7-7"><path
         sodipodi:nodetypes="cccccc"
         inkscape:connector-curvature="0"
         id="path1611-5-0"
         d="m 252,116 28,-28 v -8 h -36 v 36 z"
         style="fill:#e74747;stroke:none;stroke-width:0.25px;stroke-linecap:butt;stroke-linejoin:miter;stroke-opacity:1" /></clipPath><clipPath
       clipPathUnits="userSpaceOnUse"
       id="clipPath744"><rect
         style="fill:#1e88e5;fill-opacity:1;stroke-width:0.264583"
         id="rect746"
         width="541.86664"
         height="541.86664"
         x="0"
         y="1.5987212e-14"
         rx="79.375"
         ry="79.375" /></clipPath><clipPath
       clipPathUnits="userSpaceOnUse"
       id="clipPath62"><rect
         style="fill:#1e88e5;fill-opacity:1;stroke-width:0.264583"
         id="rect64"
         width="541.86664"
         height="541.86664"
         x="2.2507105e-05"
         y="-0.42205024"
         rx="79.375"
         ry="79.375" /></clipPath><linearGradient
       inkscape:collect="always"
       xlink:href="#linearGradient8241"
       id="linearGradient8243"
       x1="11.5"
       y1="120.5"
       x2="116.5"
       y2="120.5"
       gradientUnits="userSpaceOnUse" /><radialGradient
       r="32"
       fy="-76"
       fx="-244"
       cy="-76"
       cx="-244"
       gradientTransform="matrix(0.88333331,0,0,0.88333331,-460.35018,463.11973)"
       gradientUnits="userSpaceOnUse"
       id="radialGradient1103-6"
       xlink:href="#linearGradient1069" /><inkscape:path-effect
       effect="spiro"
       id="path-effect35304-9-20"
       is_visible="true" /><clipPath
       clipPathUnits="userSpaceOnUse"
       id="clipPath1609-7-2"><path
         sodipodi:nodetypes="cccccc"
         inkscape:connector-curvature="0"
         id="path1611-5-3"
         d="m 252,116 28,-28 v -8 h -36 v 36 z"
         style="fill:#e74747;stroke:none;stroke-width:0.25px;stroke-linecap:butt;stroke-linejoin:miter;stroke-opacity:1" /></clipPath><radialGradient
       r="32"
       fy="-76"
       fx="-244"
       cy="-76"
       cx="-244"
       gradientTransform="matrix(0.88333331,0,0,0.88333331,-460.35018,463.11973)"
       gradientUnits="userSpaceOnUse"
       id="radialGradient1103-56"
       xlink:href="#linearGradient1069" /><inkscape:path-effect
       effect="spiro"
       id="path-effect35304-9-7"
       is_visible="true" /><clipPath
       clipPathUnits="userSpaceOnUse"
       id="clipPath1609-7-0"><path
         sodipodi:nodetypes="cccccc"
         inkscape:connector-curvature="0"
         id="path1611-5-9"
         d="m 252,116 28,-28 v -8 h -36 v 36 z"
         style="fill:#e74747;stroke:none;stroke-width:0.25px;stroke-linecap:butt;stroke-linejoin:miter;stroke-opacity:1" /></clipPath><clipPath
       clipPathUnits="userSpaceOnUse"
       id="clipPath37"><rect
         style="fill:#1a1a1a;fill-opacity:1;stroke-width:0.264583"
         id="rect39"
         width="541.86664"
         height="541.86664"
         x="-2.6626146e-06"
         y="3.2408705"
         rx="79.375"
         ry="79.375" /></clipPath><clipPath
       clipPathUnits="userSpaceOnUse"
       id="clipPath22042"><rect
         style="fill:#333333;fill-opacity:1;stroke-width:0.0133797"
         id="rect22044"
         width="27.31955"
         height="27.483929"
         x="166.96844"
         y="105.40438"
         rx="4.0018873"
         ry="4.0259666" /></clipPath><clipPath
       clipPathUnits="userSpaceOnUse"
       id="clipPath1039"><rect
         style="fill:#b3b3b3;fill-opacity:1;stroke-width:0.264583"
         id="rect1041"
         width="541.8667"
         height="541.86682"
         x="2.5931527e-05"
         y="-0.00010962487"
         rx="79.375008"
         ry="79.375031" /></clipPath><clipPath
       clipPathUnits="userSpaceOnUse"
       id="clipPath154"><rect
         style="fill:#b3b3b3;fill-opacity:1;stroke-width:0.264583"
         id="rect156"
         width="541.8667"
         height="541.86682"
         x="-2.9218751e-05"
         y="-0.00016368683"
         rx="79.375008"
         ry="79.375031" /></clipPath><linearGradient
       inkscape:collect="always"
       xlink:href="#linearGradient404"
       id="linearGradient406"
       x1="64"
       y1="112.5"
       x2="64"
       y2="7.5"
       gradientUnits="userSpaceOnUse" /><linearGradient
       id="Gradient_1"
       gradientUnits="userSpaceOnUse"
       x1="199.997"
       y1="214.302"
       x2="296.665"
       y2="307.573"
       gradientTransform="matrix(0.81716125,0,0,0.81716125,-140.28785,-154.93203)"><stop
         offset="0"
         stop-color="#62A0EA"
         id="stop341" /><stop
         offset="1"
         stop-color="#1A5FB4"
         id="stop343" /></linearGradient><filter
       style="color-interpolation-filters:sRGB;"
       inkscape:label="Drop Shadow"
       id="filter1274"
       x="-0.073424933"
       y="-0.07535366"
       width="1.1468499"
       height="1.1835436"><feFlood
         flood-opacity="0.545098"
         flood-color="rgb(0,0,0)"
         result="flood"
         id="feFlood1264" /><feComposite
         in="SourceGraphic"
         in2="flood"
         operator="in"
         result="composite1"
         id="feComposite1266" /><feGaussianBlur
         in="composite1"
         stdDeviation="2.5"
         result="blur"
         id="feGaussianBlur1268" /><feOffset
         dx="0"
         dy="2.61457"
         result="offset"
         id="feOffset1270" /><feComposite
         in="SourceGraphic"
         in2="offset"
         operator="over"
         result="composite2"
         id="feComposite1272" /></filter></defs><g
     inkscape:groupmode="layer"
     id="layer2"
     inkscape:label="Layer 1"><rect
       style="fill:url(#linearGradient8243);fill-opacity:1"
       id="rect440"
       width="105"
       height="105"
       x="11.5"
       y="15.5"
       rx="13"
       ry="13" /><rect
       style="fill:url(#linearGradient406);fill-opacity:1"
       id="rect358"
       width="105"
       height="105"
       x="11.5"
       y="7.5"
       rx="13"
       ry="13" /><rect
       style="fill:#e6e6e6;fill-opacity:1;stroke-width:0.959575"
       id="rect338"
       width="100.75533"
       height="100.75533"
       x="13.622333"
       y="9.6223326"
       rx="12"
       ry="12" /><path
       d="m 62.580591,20.98154 c -2.332177,1.496223 -3.004702,4.595714 -1.501941,6.919721 8.260682,12.792658 10.210428,22.441698 9.364667,30.897683 -3.419003,16.192866 -10.851084,19.477855 -17.345881,19.477855 -6.341173,0 -4.643112,-10.435966 0.123391,-13.490514 2.845356,-1.77651 6.489894,-2.931158 9.287037,-2.931158 2.771811,0 5.019005,-2.239839 5.019005,-5.003477 0,-2.764459 -2.247194,-5.004297 -5.019005,-5.004297 -3.26701,0 -6.471917,0.686417 -9.463544,1.854956 0.611236,-2.883761 0.836774,-6.000414 0.04658,-9.313186 -1.19959,-5.030445 -4.652914,-9.835353 -10.649243,-14.493172 -1.050052,-0.817161 -2.382026,-1.184067 -3.703376,-1.020634 -1.321348,0.163432 -2.523393,0.84331 -3.341371,1.890911 -1.701329,2.18182 -1.307458,5.326257 0.8809,7.023501 4.88499,3.794079 6.498066,6.602664 7.049649,8.914412 0.551584,2.311748 0.107871,4.791833 -1.000205,8.199395 -1.416139,4.592447 -3.060269,8.692145 -3.781004,12.623507 -0.354649,1.935037 -0.384883,4.040862 -0.476405,5.723396 -3.517879,-3.428807 -4.894796,-7.955881 -4.894796,-14.570801 -8.18e-4,-2.76364 -2.248011,-5.004295 -5.019004,-5.003477 -2.76936,0.0025 -5.013285,2.241471 -5.014101,5.003477 0,9.034534 2.641882,17.631071 9.722583,23.365908 6.409812,6.106645 22.709729,3.849646 22.709729,13.653127 0,2.766909 4.04985,4.113594 6.820844,4.113594 2.842087,0 6.418801,-1.899905 6.418801,-4.113594 0,-11.123196 11.722178,-17.88357 31.019439,-17.854153 2.7718,0.0042 5.02064,-2.234119 5.02471,-4.997757 0.004,-2.764457 -2.23738,-5.009198 -5.009184,-5.014101 -1.319717,-0.0016 -2.605924,0.04331 -3.874158,0.118487 2.157307,-5.073754 3.114202,-10.659867 2.916448,-16.693786 -0.09154,-2.762823 -2.410625,-4.9283 -5.179986,-4.838412 -2.772629,0.0899 -4.944643,2.404906 -4.853938,5.169361 0.261491,7.900316 -0.03432,14.954868 -5.920333,18.67377 -1.673546,1.056589 -3.619208,1.973444 -5.464357,1.973444 1.432484,-3.896226 2.514405,-8.008998 2.957306,-12.442097 0.282738,-2.829011 0.312972,-6.189996 -0.0098,-8.800826 -0.50092,-4.044948 -1.105619,-8.632492 0.429828,-12.088267 1.379366,-2.9761 4.469871,-4.222271 9.007567,-4.222271 2.76936,-0.0025 5.013287,-2.242291 5.014104,-5.003479 0.0016,-2.764456 -2.24311,-5.006746 -5.014104,-5.009199 -6.743214,0 -11.854558,3.548932 -14.752211,7.836577 -1.515017,-3.235958 -3.360168,-6.570793 -5.589384,-10.022482 -0.719917,-1.115425 -1.854138,-1.899083 -3.154241,-2.181003 -0.643923,-0.139735 -1.309093,-0.151993 -1.95792,-0.03596 -0.648824,0.116855 -1.268233,0.359552 -1.823086,0.715017 z"
       fill="url(#Gradient_1)"
       id="path6008"
       style="fill:url(#Gradient_1);stroke-width:0.817161;filter:url(#filter1274)" /></g></svg>
