<?xml version="1.0" encoding="UTF-8" standalone="no"?>
<!-- Created with Inkscape (http://www.inkscape.org/) -->

<svg
   width="128"
   height="128"
   viewBox="0 0 128 128"
   version="1.1"
   id="svg5"
   inkscape:version="1.2.2 (b0a8486541, 2022-12-01)"
   sodipodi:docname="com.slack.Slack.svg"
   inkscape:export-filename="/home/retro/.icons/skeuowaita/scalable/apps/skeuowaita.png"
   inkscape:export-xdpi="1536"
   inkscape:export-ydpi="1536"
   xml:space="preserve"
   xmlns:inkscape="http://www.inkscape.org/namespaces/inkscape"
   xmlns:sodipodi="http://sodipodi.sourceforge.net/DTD/sodipodi-0.dtd"
   xmlns:xlink="http://www.w3.org/1999/xlink"
   xmlns="http://www.w3.org/2000/svg"
   xmlns:svg="http://www.w3.org/2000/svg"><sodipodi:namedview
     id="namedview7"
     pagecolor="#ffffff"
     bordercolor="#666666"
     borderopacity="1"
     inkscape:pageshadow="2"
     inkscape:pageopacity="0.0"
     inkscape:pagecheckerboard="true"
     inkscape:document-units="px"
     showgrid="false"
     inkscape:showpageshadow="false"
     showborder="true"
     inkscape:snap-page="true"
     inkscape:zoom="4.0820393"
     inkscape:cx="53.649654"
     inkscape:cy="101.17492"
     inkscape:window-width="1366"
     inkscape:window-height="731"
     inkscape:window-x="0"
     inkscape:window-y="0"
     inkscape:window-maximized="1"
     inkscape:current-layer="layer2"
     inkscape:snap-bbox="true"
     inkscape:snap-bbox-midpoints="true"
     inkscape:snap-bbox-edge-midpoints="true"
     inkscape:bbox-nodes="true"
     inkscape:bbox-paths="true"
     inkscape:snap-intersection-paths="true"
     inkscape:object-paths="true"
     inkscape:snap-smooth-nodes="true"
     inkscape:snap-midpoints="true"
     inkscape:deskcolor="#d1d1d1" /><defs
     id="defs2"><linearGradient
       inkscape:collect="always"
       id="linearGradient1522"><stop
         style="stop-color:#a5a5a5;stop-opacity:1;"
         offset="0"
         id="stop1518" /><stop
         style="stop-color:#a5a5a5;stop-opacity:1;"
         offset="0.40000001"
         id="stop1617" /><stop
         style="stop-color:#c2c2c2;stop-opacity:1;"
         offset="0.5"
         id="stop1613" /><stop
         style="stop-color:#a5a5a5;stop-opacity:1;"
         offset="0.60000002"
         id="stop1615" /><stop
         style="stop-color:#a5a5a5;stop-opacity:1;"
         offset="1"
         id="stop1520" /></linearGradient><linearGradient
       y2="236"
       x2="96"
       y1="236"
       x1="32"
       gradientTransform="translate(604.81684,170.58641)"
       gradientUnits="userSpaceOnUse"
       id="linearGradient1099"
       xlink:href="#linearGradient1036" /><linearGradient
       id="linearGradient1036"><stop
         id="stop1032"
         offset="0"
         style="stop-color:#d5d3cf;stop-opacity:1;" /><stop
         id="stop1034"
         offset="1"
         style="stop-color:#f6f5f4;stop-opacity:1" /></linearGradient><radialGradient
       r="32"
       fy="-76"
       fx="-244"
       cy="-76"
       cx="-244"
       gradientTransform="matrix(0.88333331,0,0,0.88333331,-460.35018,463.11973)"
       gradientUnits="userSpaceOnUse"
       id="radialGradient1103"
       xlink:href="#linearGradient1069" /><linearGradient
       id="linearGradient1069"><stop
         id="stop1065"
         offset="0"
         style="stop-color:#d5d3cf;stop-opacity:1" /><stop
         id="stop1067-1"
         offset="1"
         style="stop-color:#949390;stop-opacity:1" /></linearGradient><linearGradient
       gradientUnits="userSpaceOnUse"
       y2="232"
       x2="64"
       y1="262.5"
       x1="64"
       id="linearGradient1027"
       xlink:href="#linearGradient1025"
       gradientTransform="translate(-470.5864,432.81685)" /><linearGradient
       id="linearGradient1025"><stop
         id="stop1021"
         offset="0"
         style="stop-color:#9a9996;stop-opacity:1" /><stop
         id="stop1023"
         offset="1"
         style="stop-color:#77767b;stop-opacity:1" /></linearGradient><inkscape:path-effect
       effect="spiro"
       id="path-effect35304-9"
       is_visible="true" /><clipPath
       clipPathUnits="userSpaceOnUse"
       id="clipPath1609-7"><path
         sodipodi:nodetypes="cccccc"
         inkscape:connector-curvature="0"
         id="path1611-5"
         d="m 252,116 28,-28 v -8 h -36 v 36 z"
         style="fill:#e74747;stroke:none;stroke-width:0.25px;stroke-linecap:butt;stroke-linejoin:miter;stroke-opacity:1" /></clipPath><radialGradient
       r="32"
       fy="-76"
       fx="-244"
       cy="-76"
       cx="-244"
       gradientTransform="matrix(0.88333331,0,0,0.88333331,-460.35018,463.11973)"
       gradientUnits="userSpaceOnUse"
       id="radialGradient1103-5"
       xlink:href="#linearGradient1069" /><inkscape:path-effect
       effect="spiro"
       id="path-effect35304-9-2"
       is_visible="true" /><clipPath
       clipPathUnits="userSpaceOnUse"
       id="clipPath1609-7-7"><path
         sodipodi:nodetypes="cccccc"
         inkscape:connector-curvature="0"
         id="path1611-5-0"
         d="m 252,116 28,-28 v -8 h -36 v 36 z"
         style="fill:#e74747;stroke:none;stroke-width:0.25px;stroke-linecap:butt;stroke-linejoin:miter;stroke-opacity:1" /></clipPath><clipPath
       clipPathUnits="userSpaceOnUse"
       id="clipPath744"><rect
         style="fill:#1e88e5;fill-opacity:1;stroke-width:0.264583"
         id="rect746"
         width="541.86664"
         height="541.86664"
         x="0"
         y="1.5987212e-14"
         rx="79.375"
         ry="79.375" /></clipPath><clipPath
       clipPathUnits="userSpaceOnUse"
       id="clipPath62"><rect
         style="fill:#1e88e5;fill-opacity:1;stroke-width:0.264583"
         id="rect64"
         width="541.86664"
         height="541.86664"
         x="2.2507105e-05"
         y="-0.42205024"
         rx="79.375"
         ry="79.375" /></clipPath><radialGradient
       r="32"
       fy="-76"
       fx="-244"
       cy="-76"
       cx="-244"
       gradientTransform="matrix(0.88333331,0,0,0.88333331,-460.35018,463.11973)"
       gradientUnits="userSpaceOnUse"
       id="radialGradient1103-6"
       xlink:href="#linearGradient1069" /><inkscape:path-effect
       effect="spiro"
       id="path-effect35304-9-20"
       is_visible="true" /><clipPath
       clipPathUnits="userSpaceOnUse"
       id="clipPath1609-7-2"><path
         sodipodi:nodetypes="cccccc"
         inkscape:connector-curvature="0"
         id="path1611-5-3"
         d="m 252,116 28,-28 v -8 h -36 v 36 z"
         style="fill:#e74747;stroke:none;stroke-width:0.25px;stroke-linecap:butt;stroke-linejoin:miter;stroke-opacity:1" /></clipPath><clipPath
       clipPathUnits="userSpaceOnUse"
       id="clipPath961"><rect
         style="fill:#00c853;stroke:none;stroke-width:0.529037"
         id="rect963"
         width="541.86664"
         height="541.86664"
         x="1.4210855e-14"
         y="2.717972e-05"
         rx="79.375"
         ry="79.375" /></clipPath><radialGradient
       r="32"
       fy="-76"
       fx="-244"
       cy="-76"
       cx="-244"
       gradientTransform="matrix(0.88333331,0,0,0.88333331,-460.35018,463.11973)"
       gradientUnits="userSpaceOnUse"
       id="radialGradient1103-56"
       xlink:href="#linearGradient1069" /><inkscape:path-effect
       effect="spiro"
       id="path-effect35304-9-7"
       is_visible="true" /><clipPath
       clipPathUnits="userSpaceOnUse"
       id="clipPath1440"><circle
         style="display:inline;opacity:1;vector-effect:none;fill:none;fill-opacity:1;stroke:#000000;stroke-width:2;stroke-linecap:butt;stroke-linejoin:miter;stroke-miterlimit:4;stroke-dasharray:none;stroke-dashoffset:0;stroke-opacity:1;marker:none;marker-start:none;marker-mid:none;marker-end:none;paint-order:normal;enable-background:new"
         id="circle1442"
         cx="-134.35028"
         cy="193.74727"
         r="24"
         transform="rotate(-45)" /></clipPath><clipPath
       clipPathUnits="userSpaceOnUse"
       id="clipPath1430"><circle
         style="display:inline;opacity:1;vector-effect:none;fill:none;fill-opacity:1;stroke:#000000;stroke-width:2;stroke-linecap:butt;stroke-linejoin:miter;stroke-miterlimit:4;stroke-dasharray:none;stroke-dashoffset:0;stroke-opacity:1;marker:none;marker-start:none;marker-mid:none;marker-end:none;paint-order:normal;enable-background:new"
         id="circle1432"
         cx="12"
         cy="232"
         r="24" /></clipPath><clipPath
       clipPathUnits="userSpaceOnUse"
       id="clipPath1440-9"><circle
         style="display:inline;opacity:1;vector-effect:none;fill:none;fill-opacity:1;stroke:#000000;stroke-width:2;stroke-linecap:butt;stroke-linejoin:miter;stroke-miterlimit:4;stroke-dasharray:none;stroke-dashoffset:0;stroke-opacity:1;marker:none;marker-start:none;marker-mid:none;marker-end:none;paint-order:normal;enable-background:new"
         id="circle1442-5"
         cx="-134.35028"
         cy="193.74727"
         r="24"
         transform="rotate(-45)" /></clipPath><clipPath
       clipPathUnits="userSpaceOnUse"
       id="clipPath1430-1"><circle
         style="display:inline;opacity:1;vector-effect:none;fill:none;fill-opacity:1;stroke:#000000;stroke-width:2;stroke-linecap:butt;stroke-linejoin:miter;stroke-miterlimit:4;stroke-dasharray:none;stroke-dashoffset:0;stroke-opacity:1;marker:none;marker-start:none;marker-mid:none;marker-end:none;paint-order:normal;enable-background:new"
         id="circle1432-8"
         cx="12"
         cy="232"
         r="24" /></clipPath><clipPath
       clipPathUnits="userSpaceOnUse"
       id="clipPath2024"><rect
         style="opacity:1;vector-effect:none;fill:#63452c;fill-opacity:1;stroke:none;stroke-width:4;stroke-linecap:round;stroke-linejoin:round;stroke-miterlimit:4;stroke-dasharray:none;stroke-dashoffset:0;stroke-opacity:1"
         id="rect2026"
         width="74"
         height="98"
         x="6"
         y="196" /></clipPath><linearGradient
       id="linearGradient914"
       inkscape:collect="always"><stop
         id="stop910"
         offset="0"
         style="stop-color:#f6f5f4;stop-opacity:0.43700787" /><stop
         id="stop912"
         offset="1"
         style="stop-color:#deddda;stop-opacity:0;" /></linearGradient><radialGradient
       gradientTransform="matrix(2.6086955,0,0,1.8410361,-102.95652,-748.94671)"
       gradientUnits="userSpaceOnUse"
       r="46"
       fy="296"
       fx="64.000008"
       cy="296"
       cx="64.000008"
       id="radialGradient916"
       xlink:href="#linearGradient914"
       inkscape:collect="always" /><clipPath
       clipPathUnits="userSpaceOnUse"
       id="clipPath11543"><rect
         style="fill:#f0c04e;fill-opacity:1;stroke:none;stroke-width:0.529037"
         id="rect11545"
         width="541.86664"
         height="541.86664"
         x="1.4746095e-06"
         y="6.4330168e-05"
         rx="79.375"
         ry="79.375" /></clipPath><style
       id="style374">.cls-1{fill:url(#linear-gradient);}.cls-2{opacity:0.35;fill:url(#radial-gradient);}.cls-2,.cls-4{isolation:isolate;}.cls-3{fill:url(#linear-gradient-2);}.cls-4{opacity:0.41;fill:url(#radial-gradient-2);}.cls-5{fill:url(#radial-gradient-3);}.cls-6{fill:url(#radial-gradient-4);}</style><linearGradient
       id="linear-gradient"
       x1="63.33"
       y1="84.03"
       x2="241.67"
       y2="84.03"
       gradientTransform="matrix(1,0,0,-1,0,266)"
       gradientUnits="userSpaceOnUse"><stop
         offset="0"
         stop-color="#0c59a4"
         id="stop376" /><stop
         offset="1"
         stop-color="#114a8b"
         id="stop378" /></linearGradient><radialGradient
       id="radial-gradient"
       cx="161.83"
       cy="68.91"
       r="95.38"
       gradientTransform="matrix(1,0,0,-0.95,0,248.84)"
       gradientUnits="userSpaceOnUse"><stop
         offset="0.72"
         stop-opacity="0"
         id="stop381" /><stop
         offset="0.95"
         stop-opacity="0.53"
         id="stop383" /><stop
         offset="1"
         id="stop385" /></radialGradient><linearGradient
       id="linear-gradient-2"
       x1="157.35"
       y1="161.39"
       x2="45.96"
       y2="40.06"
       gradientTransform="matrix(1,0,0,-1,0,266)"
       gradientUnits="userSpaceOnUse"><stop
         offset="0"
         stop-color="#1b9de2"
         id="stop388" /><stop
         offset="0.16"
         stop-color="#1595df"
         id="stop390" /><stop
         offset="0.67"
         stop-color="#0680d7"
         id="stop392" /><stop
         offset="1"
         stop-color="#0078d4"
         id="stop394" /></linearGradient><radialGradient
       id="radial-gradient-2"
       cx="-340.29"
       cy="62.99"
       r="143.24"
       gradientTransform="matrix(0.15,-0.99,-0.8,-0.12,176.64,-125.4)"
       gradientUnits="userSpaceOnUse"><stop
         offset="0.76"
         stop-opacity="0"
         id="stop397" /><stop
         offset="0.95"
         stop-opacity="0.5"
         id="stop399" /><stop
         offset="1"
         id="stop401" /></radialGradient><radialGradient
       id="radial-gradient-3"
       cx="113.37"
       cy="570.21"
       r="202.43"
       gradientTransform="matrix(-0.04,1,2.13,0.08,-1179.54,-106.69)"
       gradientUnits="userSpaceOnUse"><stop
         offset="0"
         stop-color="#35c1f1"
         id="stop404" /><stop
         offset="0.11"
         stop-color="#34c1ed"
         id="stop406" /><stop
         offset="0.23"
         stop-color="#2fc2df"
         id="stop408" /><stop
         offset="0.31"
         stop-color="#2bc3d2"
         id="stop410" /><stop
         offset="0.67"
         stop-color="#36c752"
         id="stop412" /></radialGradient><radialGradient
       id="radial-gradient-4"
       cx="376.52"
       cy="567.97"
       r="97.34"
       gradientTransform="matrix(0.28,0.96,0.78,-0.23,-303.76,-148.5)"
       gradientUnits="userSpaceOnUse"><stop
         offset="0"
         stop-color="#66eb6e"
         id="stop415" /><stop
         offset="1"
         stop-color="#66eb6e"
         stop-opacity="0"
         id="stop417" /></radialGradient><clipPath
       clipPathUnits="userSpaceOnUse"
       id="clipPath1260"><rect
         style="fill:#bbdefb;fill-opacity:1;stroke:none;stroke-width:0.529037"
         id="rect1262"
         width="541.86664"
         height="541.86664"
         x="2.9492187e-06"
         y="3.9968629e-05"
         rx="79.375"
         ry="79.375" /></clipPath><clipPath
       clipPathUnits="userSpaceOnUse"
       id="clipPath16285"><rect
         style="fill:#bbdefb;fill-opacity:1;stroke:none;stroke-width:0.529037"
         id="rect16287"
         width="541.86664"
         height="541.86664"
         x="0"
         y="6.4807005e-05"
         rx="79.375"
         ry="79.375" /></clipPath><clipPath
       clipPathUnits="userSpaceOnUse"
       id="clipPath990"><rect
         style="fill:#bbdefb;fill-opacity:1;stroke:none;stroke-width:0.529037"
         id="rect992"
         width="487.67996"
         height="487.67996"
         x="27.093349"
         y="27.093338"
         rx="71.4375"
         ry="71.4375" /></clipPath><linearGradient
       inkscape:collect="always"
       xlink:href="#linearGradient1522"
       id="linearGradient1524"
       x1="9"
       y1="64"
       x2="119"
       y2="64"
       gradientUnits="userSpaceOnUse" /></defs><g
     inkscape:groupmode="layer"
     id="layer2"
     inkscape:label="Layer 1"><path
       id="circle372"
       style="fill:url(#linearGradient1524);fill-opacity:1;stroke-width:1"
       d="M 64,5 A 55,55 0 0 0 9,60 v 8 a 55,55 0 0 0 55,55 55,55 0 0 0 55,-55 V 60 A 55,55 0 0 0 64,5 Z" /><circle
       style="fill:#f2f2f2;fill-opacity:1;stroke-width:1"
       id="path953"
       cx="64"
       cy="60"
       r="55"
       inkscape:export-filename="/home/retro/.icons/skeuowaita/scalable/apps/skeuwaita.png"
       inkscape:export-xdpi="1536"
       inkscape:export-ydpi="1536" /><g
       id="g465"
       transform="translate(0,2)"><path
         id="path2951"
         style="fill:#bdbdbd;fill-opacity:1;stroke-width:0.647609"
         d="m 53.28125,21.324559 c -4.727542,0 -8.546875,3.821286 -8.546875,8.548828 0,0.338973 0.02429,0.671425 0.0625,1 -0.03821,0.328576 -0.0625,0.661028 -0.0625,1 0,4.727544 3.819333,8.548828 8.546875,8.548828 h 8.548828 v -2 -6.548828 -2 c 0,-4.727542 -3.821285,-8.548828 -8.548828,-8.548828 z M 31.845703,42.760106 c -4.727542,0 -8.548828,3.821286 -8.548828,8.548828 0,0.338972 0.02624,0.671425 0.06445,1 -0.03821,0.328576 -0.06445,0.661028 -0.06445,1 0,4.727543 3.821286,8.548828 8.548828,8.548828 H 53.28125 c 4.727543,0 8.548828,-3.821285 8.548828,-8.548828 0,-0.338957 -0.02429,-0.671438 -0.0625,-1 0.03821,-0.328562 0.0625,-0.661042 0.0625,-1 0,-4.727542 -3.821285,-8.548828 -8.548828,-8.548828 z" /><path
         id="path1910"
         style="fill:#bdbdbd;fill-opacity:1;stroke-width:0.647609"
         d="m 74.71875,64.195653 c -4.727543,0 -8.548828,3.821285 -8.548828,8.548828 0,0.338958 0.02429,0.671438 0.0625,1 -0.03821,0.328562 -0.0625,0.661042 -0.0625,1 0,4.727542 3.821285,8.548828 8.548828,8.548828 h 21.435547 c 4.727543,0 8.548823,-3.821286 8.548823,-8.548828 0,-0.338972 -0.0262,-0.671424 -0.0644,-1 0.0382,-0.328576 0.0644,-0.661028 0.0644,-1 0,-4.727543 -3.82128,-8.548828 -8.548823,-8.548828 z m -8.548828,21.371094 v 2 6.548828 1.999996 c 0,4.727539 3.821285,8.548829 8.548828,8.548829 4.727542,0 8.546875,-3.82129 8.546875,-8.548829 0,-0.338968 -0.02429,-0.671421 -0.0625,-0.999996 0.03821,-0.328576 0.0625,-0.661028 0.0625,-1 0,-4.727543 -3.819333,-8.548828 -8.546875,-8.548828 z" /><path
         id="path2809"
         style="fill:#bdbdbd;fill-opacity:1;stroke-width:0.647609"
         d="m 31.796732,64.206691 c -4.727542,0 -8.546875,3.821285 -8.546875,8.548828 0,0.338972 0.02429,0.671424 0.0625,1 -0.03821,0.328576 -0.0625,0.661028 -0.0625,1 0,4.727542 3.819333,8.548828 8.546875,8.548828 4.727543,0 8.548828,-3.821286 8.548828,-8.548828 v -2 -6.548828 -2 z m 21.371094,0 c -4.727542,0 -8.546875,3.821285 -8.546875,8.548828 v 2 19.371094 1.999998 c 0,4.727539 3.819333,8.548829 8.546875,8.548829 4.727543,0 8.548828,-3.82129 8.548828,-8.548829 v -1.999998 -19.371094 -2 c 0,-4.727543 -3.821285,-8.548828 -8.548828,-8.548828 z" /><path
         id="path2811"
         style="fill:#bdbdbd;fill-opacity:1;stroke-width:0.647609"
         d="m 74.71875,21.324559 c -4.727543,0 -8.548828,3.821286 -8.548828,8.548828 v 2 19.435547 2 c 0,4.727543 3.821285,8.548828 8.548828,8.548828 4.727542,0 8.546875,-3.821285 8.546875,-8.548828 v -2 -19.435547 -2 c 0,-4.727542 -3.819333,-8.548828 -8.546875,-8.548828 z m 21.371094,21.435547 c -4.727544,0 -8.548828,3.821286 -8.548828,8.548828 v 2 6.548828 2 h 8.548828 c 4.727536,0 8.546876,-3.821285 8.546876,-8.548828 0,-0.338972 -0.0243,-0.671424 -0.0625,-1 0.0382,-0.328575 0.0625,-0.661028 0.0625,-1 0,-4.727542 -3.81934,-8.548828 -8.546876,-8.548828 z" /></g><g
       id="g503"
       transform="translate(0.0234965,2.0000005)"><text
         xml:space="preserve"
         style="font-style:normal;font-variant:normal;font-weight:normal;font-stretch:normal;font-size:40px;line-height:1.25;font-family:'DejaVu Math TeX Gyre';-inkscape-font-specification:'DejaVu Math TeX Gyre';fill:#000000;fill-opacity:1;stroke:none"
         x="57.303368"
         y="66.239342"
         id="text3441"><tspan
           sodipodi:role="line"
           id="tspan3439"
           x="57.303368"
           y="66.239342" /></text><text
         xml:space="preserve"
         style="font-size:40px;line-height:1.25;font-family:Caladea;-inkscape-font-specification:Caladea"
         x="43.168587"
         y="66.806938"
         id="text13903"><tspan
           sodipodi:role="line"
           id="tspan13901"
           x="43.168587"
           y="66.806938" /></text><path
         id="path399"
         style="fill:#93143b;fill-opacity:1;stroke-width:0.647609"
         d="m 31.796732,60.206691 c -4.727542,0 -8.546875,3.821285 -8.546875,8.548828 0,0.338972 0.02429,0.671424 0.0625,1 -0.03821,0.328576 -0.0625,0.661028 -0.0625,1 0,4.727542 3.819333,8.548828 8.546875,8.548828 4.727543,0 8.548828,-3.821286 8.548828,-8.548828 v -2 -6.548828 -2 z m 21.371094,0 c -4.727542,0 -8.546875,3.821285 -8.546875,8.548828 v 2 19.371094 2 c 0,4.727538 3.819333,8.548827 8.546875,8.548827 4.727543,0 8.548828,-3.821289 8.548828,-8.548827 v -2 -19.371094 -2 c 0,-4.727543 -3.821285,-8.548828 -8.548828,-8.548828 z" /><path
         id="path401"
         style="fill:#1d6b82;fill-opacity:1;stroke-width:0.647609"
         d="m 53.28125,17.324559 c -4.727542,0 -8.546875,3.821286 -8.546875,8.548828 0,0.338973 0.02429,0.671425 0.0625,1 -0.03821,0.328576 -0.0625,0.661028 -0.0625,1 0,4.727544 3.819333,8.548828 8.546875,8.548828 h 8.548828 v -2 -6.548828 -2 c 0,-4.727542 -3.821285,-8.548828 -8.548828,-8.548828 z M 31.845703,38.760106 c -4.727542,0 -8.548828,3.821286 -8.548828,8.548828 0,0.338972 0.02624,0.671425 0.06445,1 -0.03821,0.328576 -0.06445,0.661028 -0.06445,1 0,4.727543 3.821286,8.548828 8.548828,8.548828 H 53.28125 c 4.727543,0 8.548828,-3.821285 8.548828,-8.548828 0,-0.338957 -0.02429,-0.671438 -0.0625,-1 0.03821,-0.328562 0.0625,-0.661042 0.0625,-1 0,-4.727542 -3.821285,-8.548828 -8.548828,-8.548828 z" /><path
         id="path403"
         style="fill:#1b6b49;fill-opacity:1;stroke-width:0.647609"
         d="m 74.71875,17.324559 c -4.727543,0 -8.548828,3.821286 -8.548828,8.548828 v 2 19.435547 2 c 0,4.727543 3.821285,8.548828 8.548828,8.548828 4.727542,0 8.546875,-3.821285 8.546875,-8.548828 v -2 -19.435547 -2 c 0,-4.727542 -3.819333,-8.548828 -8.546875,-8.548828 z m 21.371094,21.435547 c -4.727544,0 -8.548828,3.821286 -8.548828,8.548828 v 2 6.548828 2 h 8.548828 c 4.727536,0 8.546876,-3.821285 8.546876,-8.548828 0,-0.338972 -0.0243,-0.671424 -0.0625,-1 0.0382,-0.328575 0.0625,-0.661028 0.0625,-1 0,-4.727542 -3.81934,-8.548828 -8.546876,-8.548828 z" /><path
         id="path405"
         style="fill:#ae8322;fill-opacity:1;stroke-width:0.647609"
         d="m 74.71875,60.195653 c -4.727543,0 -8.548828,3.821285 -8.548828,8.548828 0,0.338958 0.02429,0.671438 0.0625,1 -0.03821,0.328562 -0.0625,0.661042 -0.0625,1 0,4.727542 3.821285,8.548828 8.548828,8.548828 h 21.435547 c 4.727543,0 8.548823,-3.821286 8.548823,-8.548828 0,-0.338972 -0.0262,-0.671424 -0.0644,-1 0.0382,-0.328576 0.0644,-0.661028 0.0644,-1 0,-4.727543 -3.82128,-8.548828 -8.548823,-8.548828 z m -8.548828,21.371094 v 2 6.548828 2 c 0,4.727536 3.821285,8.548825 8.548828,8.548825 4.727542,0 8.546875,-3.821289 8.546875,-8.548825 0,-0.338972 -0.02429,-0.671425 -0.0625,-1 0.03821,-0.328576 0.0625,-0.661028 0.0625,-1 0,-4.727543 -3.819333,-8.548828 -8.546875,-8.548828 z" /><g
         id="g397"
         transform="matrix(0.64760922,0,0,0.64760922,22.844434,14.936056)"><path
           d="M 27.2,80 C 27.2,87.3 21.3,93.2 14,93.2 6.7,93.2 0.8,87.3 0.8,80 0.8,72.7 6.7,66.8 14,66.8 h 13.2 z m 6.6,0 c 0,-7.3 5.9,-13.2 13.2,-13.2 7.3,0 13.2,5.9 13.2,13.2 v 33 c 0,7.3 -5.9,13.2 -13.2,13.2 -7.3,0 -13.2,-5.9 -13.2,-13.2 z"
           fill="#e01e5a"
           id="path379" /><path
           d="M 47,27 C 39.7,27 33.8,21.1 33.8,13.8 33.8,6.5 39.7,0.6 47,0.6 c 7.3,0 13.2,5.9 13.2,13.2 V 27 Z m 0,6.7 c 7.3,0 13.2,5.9 13.2,13.2 0,7.3 -5.9,13.2 -13.2,13.2 H 13.9 C 6.6,60.1 0.7,54.2 0.7,46.9 0.7,39.6 6.6,33.7 13.9,33.7 Z"
           fill="#36c5f0"
           id="path381" /><path
           d="m 99.9,46.9 c 0,-7.3 5.9,-13.2 13.2,-13.2 7.3,0 13.2,5.9 13.2,13.2 0,7.3 -5.9,13.2 -13.2,13.2 H 99.9 Z m -6.6,0 c 0,7.3 -5.9,13.2 -13.2,13.2 -7.3,0 -13.2,-5.9 -13.2,-13.2 V 13.8 c 0,-7.3 5.9,-13.2 13.2,-13.2 7.3,0 13.2,5.9 13.2,13.2 z"
           fill="#2eb67d"
           id="path383" /><path
           d="m 80.1,99.8 c 7.3,0 13.2,5.9 13.2,13.2 0,7.3 -5.9,13.2 -13.2,13.2 -7.3,0 -13.2,-5.9 -13.2,-13.2 V 99.8 Z m 0,-6.6 c -7.3,0 -13.2,-5.9 -13.2,-13.2 0,-7.3 5.9,-13.2 13.2,-13.2 h 33.1 c 7.3,0 13.2,5.9 13.2,13.2 0,7.3 -5.9,13.2 -13.2,13.2 z"
           fill="#ecb22e"
           id="path385" /></g><path
         id="path1862"
         style="fill:#ffffff;fill-opacity:0.50405;stroke-width:0.647609"
         d="m 31.910156,58.195653 c -4.727537,0 -8.546875,3.82129 -8.546875,8.548828 0,0.164237 0.0074,0.326805 0.01758,0.488281 0.26366,-4.488687 3.973465,-8.037109 8.529297,-8.037109 h 8.548828 v -1 z m 21.371094,0 c -4.727537,0 -8.546875,3.82129 -8.546875,8.548828 v 1 c 0,-4.727538 3.819338,-8.548828 8.546875,-8.548828 4.727538,0 8.548828,3.82129 8.548828,8.548828 v -1 c 0,-4.727538 -3.82129,-8.548828 -8.548828,-8.548828 z" /><path
         id="path1864"
         style="fill:#ffffff;fill-opacity:0.50405;stroke-width:0.647609"
         d="m 53.281228,15.324559 c -4.727536,0 -8.54687,3.821291 -8.54687,8.548828 0,0.338973 0.02429,0.671426 0.06251,1 7.74e-4,-0.0067 0.0031,-0.01288 0.0039,-0.01953 0.03496,-4.697391 3.837204,-8.484375 8.54296,-8.484375 4.387915,0 7.990695,3.293776 8.486323,7.546875 v -0.04297 c 0,-4.727537 -3.821287,-8.548828 -8.54882,-8.548828 z M 31.845695,36.760106 c -4.727532,0 -8.54882,3.821291 -8.54882,8.548828 0,0.337649 0.02648,0.668771 0.06445,0.996094 0.02651,-4.704727 3.835812,-8.5 8.546867,-8.5 h 21.435532 c 4.385158,0 7.985149,3.289843 8.48437,7.539062 5.9e-5,-0.01182 0.0019,-0.02332 0.0019,-0.03516 0,-4.727537 -3.821286,-8.548828 -8.54882,-8.548828 z" /><path
         id="path1866"
         style="fill:#ffffff;fill-opacity:0.50405;stroke-width:0.647609"
         d="m 74.71875,15.324559 c -4.727538,0 -8.548828,3.821291 -8.548828,8.548828 v 0.914063 c 0,-4.727538 3.82129,-8.548828 8.548828,-8.548828 4.727537,0 8.546875,3.82129 8.546875,8.548828 v -0.914063 c 0,-4.727537 -3.819338,-8.548828 -8.546875,-8.548828 z m 21.371094,21.435547 c -4.72754,0 -8.548828,3.821291 -8.548828,8.548828 v 0.914063 c 0,-4.727538 3.821288,-8.548828 8.548828,-8.548828 4.597606,-10e-7 8.325326,3.617033 8.527346,8.164062 0.0119,-0.174932 0.0195,-0.351147 0.0195,-0.529297 0,-4.727537 -3.81934,-8.548828 -8.546876,-8.548828 z" /><path
         id="path1868"
         style="fill:#ffffff;fill-opacity:0.50405;stroke-width:0.647609"
         d="m 74.71875,58.195653 c -4.727538,0 -8.548828,3.82129 -8.548828,8.548828 0,0.162262 0.0076,0.322848 0.01758,0.482422 0.172384,-4.574587 3.913868,-8.222656 8.53125,-8.222656 h 21.435547 c 4.617381,0 8.358861,3.648069 8.531251,8.222656 0.0105,-0.15957 0.0176,-0.320154 0.0176,-0.482422 0,-4.727538 -3.82128,-8.548828 -8.548821,-8.548828 z m -8.548828,21.371094 v 0.808593 h 8.548828 c 4.617381,0 8.356999,3.64807 8.529297,8.222657 0.01,-0.159571 0.01758,-0.320154 0.01758,-0.482422 0,-4.727539 -3.819338,-8.548828 -8.546875,-8.548828 z" /></g></g></svg>
