<?xml version="1.0" encoding="UTF-8" standalone="no"?>
<!-- Created with Inkscape (http://www.inkscape.org/) -->

<svg
   width="128"
   height="128"
   viewBox="0 0 128 128"
   version="1.1"
   id="svg5"
   inkscape:version="1.2.2 (b0a8486541, 2022-12-01)"
   sodipodi:docname="com.brave.Browser.svg"
   inkscape:export-filename="/home/retro/.icons/skeuowaita/scalable/apps/skeuowaita.png"
   inkscape:export-xdpi="1536"
   inkscape:export-ydpi="1536"
   xml:space="preserve"
   xmlns:inkscape="http://www.inkscape.org/namespaces/inkscape"
   xmlns:sodipodi="http://sodipodi.sourceforge.net/DTD/sodipodi-0.dtd"
   xmlns:xlink="http://www.w3.org/1999/xlink"
   xmlns="http://www.w3.org/2000/svg"
   xmlns:svg="http://www.w3.org/2000/svg"><sodipodi:namedview
     id="namedview7"
     pagecolor="#ffffff"
     bordercolor="#666666"
     borderopacity="1"
     inkscape:pageshadow="2"
     inkscape:pageopacity="0.0"
     inkscape:pagecheckerboard="true"
     inkscape:document-units="px"
     showgrid="false"
     inkscape:showpageshadow="false"
     showborder="true"
     inkscape:snap-page="true"
     inkscape:zoom="4"
     inkscape:cx="42.5"
     inkscape:cy="107.75"
     inkscape:window-width="1366"
     inkscape:window-height="731"
     inkscape:window-x="0"
     inkscape:window-y="0"
     inkscape:window-maximized="1"
     inkscape:current-layer="layer2"
     inkscape:snap-bbox="true"
     inkscape:snap-bbox-midpoints="true"
     inkscape:snap-bbox-edge-midpoints="true"
     inkscape:bbox-nodes="true"
     inkscape:bbox-paths="true"
     inkscape:snap-intersection-paths="true"
     inkscape:object-paths="true"
     inkscape:snap-smooth-nodes="true"
     inkscape:snap-midpoints="true"
     inkscape:deskcolor="#d1d1d1" /><defs
     id="defs2"><linearGradient
       x1="11.296889"
       y1="46.234235"
       x2="100.51935"
       y2="46.234235"
       id="linearGradient1912"
       gradientTransform="scale(1.980754,0.50485825)"
       gradientUnits="userSpaceOnUse"><stop
         stop-color="#FF452A"
         offset="0%"
         id="stop1908" /><stop
         stop-color="#FF2000"
         offset="1"
         id="stop1910"
         style="stop-color:#ffffff;stop-opacity:1;" /></linearGradient><linearGradient
       x1="0.00011788858"
       y1="119.55213"
       x2="235.77728"
       y2="119.55213"
       id="linearGradient1229"
       gradientTransform="matrix(0.40821693,0,0,0.47926611,15.875837,7.499952)"
       gradientUnits="userSpaceOnUse"><stop
         stop-color="#FF5500"
         offset="0"
         id="stop1221"
         style="stop-color:#9b3400;stop-opacity:1;" /><stop
         stop-color="#FF5500"
         offset="0.40987724"
         id="stop1223"
         style="stop-color:#9a3300;stop-opacity:1;" /><stop
         stop-color="#FF2000"
         offset="0.58198124"
         id="stop1225"
         style="stop-color:#a51500;stop-opacity:1;" /><stop
         stop-color="#FF2000"
         offset="1"
         id="stop1227"
         style="stop-color:#9f1400;stop-opacity:1;" /></linearGradient><linearGradient
       y2="236"
       x2="96"
       y1="236"
       x1="32"
       gradientTransform="translate(604.81684,170.58641)"
       gradientUnits="userSpaceOnUse"
       id="linearGradient1099"
       xlink:href="#linearGradient1036" /><linearGradient
       id="linearGradient1036"><stop
         id="stop1032"
         offset="0"
         style="stop-color:#d5d3cf;stop-opacity:1;" /><stop
         id="stop1034"
         offset="1"
         style="stop-color:#f6f5f4;stop-opacity:1" /></linearGradient><radialGradient
       r="32"
       fy="-76"
       fx="-244"
       cy="-76"
       cx="-244"
       gradientTransform="matrix(0.88333331,0,0,0.88333331,-460.35018,463.11973)"
       gradientUnits="userSpaceOnUse"
       id="radialGradient1103"
       xlink:href="#linearGradient1069" /><linearGradient
       id="linearGradient1069"><stop
         id="stop1065"
         offset="0"
         style="stop-color:#d5d3cf;stop-opacity:1" /><stop
         id="stop1067-1"
         offset="1"
         style="stop-color:#949390;stop-opacity:1" /></linearGradient><linearGradient
       gradientUnits="userSpaceOnUse"
       y2="232"
       x2="64"
       y1="262.5"
       x1="64"
       id="linearGradient1027"
       xlink:href="#linearGradient1025"
       gradientTransform="translate(-470.5864,432.81685)" /><linearGradient
       id="linearGradient1025"><stop
         id="stop1021"
         offset="0"
         style="stop-color:#9a9996;stop-opacity:1" /><stop
         id="stop1023"
         offset="1"
         style="stop-color:#77767b;stop-opacity:1" /></linearGradient><inkscape:path-effect
       effect="spiro"
       id="path-effect35304-9"
       is_visible="true" /><clipPath
       clipPathUnits="userSpaceOnUse"
       id="clipPath1609-7"><path
         sodipodi:nodetypes="cccccc"
         inkscape:connector-curvature="0"
         id="path1611-5"
         d="m 252,116 28,-28 v -8 h -36 v 36 z"
         style="fill:#e74747;stroke:none;stroke-width:0.25px;stroke-linecap:butt;stroke-linejoin:miter;stroke-opacity:1" /></clipPath><radialGradient
       r="32"
       fy="-76"
       fx="-244"
       cy="-76"
       cx="-244"
       gradientTransform="matrix(0.88333331,0,0,0.88333331,-460.35018,463.11973)"
       gradientUnits="userSpaceOnUse"
       id="radialGradient1103-5"
       xlink:href="#linearGradient1069" /><inkscape:path-effect
       effect="spiro"
       id="path-effect35304-9-2"
       is_visible="true" /><clipPath
       clipPathUnits="userSpaceOnUse"
       id="clipPath1609-7-7"><path
         sodipodi:nodetypes="cccccc"
         inkscape:connector-curvature="0"
         id="path1611-5-0"
         d="m 252,116 28,-28 v -8 h -36 v 36 z"
         style="fill:#e74747;stroke:none;stroke-width:0.25px;stroke-linecap:butt;stroke-linejoin:miter;stroke-opacity:1" /></clipPath><clipPath
       clipPathUnits="userSpaceOnUse"
       id="clipPath744"><rect
         style="fill:#1e88e5;fill-opacity:1;stroke-width:0.264583"
         id="rect746"
         width="541.86664"
         height="541.86664"
         x="0"
         y="1.5987212e-14"
         rx="79.375"
         ry="79.375" /></clipPath><clipPath
       clipPathUnits="userSpaceOnUse"
       id="clipPath62"><rect
         style="fill:#1e88e5;fill-opacity:1;stroke-width:0.264583"
         id="rect64"
         width="541.86664"
         height="541.86664"
         x="2.2507105e-05"
         y="-0.42205024"
         rx="79.375"
         ry="79.375" /></clipPath><radialGradient
       r="32"
       fy="-76"
       fx="-244"
       cy="-76"
       cx="-244"
       gradientTransform="matrix(0.88333331,0,0,0.88333331,-460.35018,463.11973)"
       gradientUnits="userSpaceOnUse"
       id="radialGradient1103-6"
       xlink:href="#linearGradient1069" /><inkscape:path-effect
       effect="spiro"
       id="path-effect35304-9-20"
       is_visible="true" /><clipPath
       clipPathUnits="userSpaceOnUse"
       id="clipPath1609-7-2"><path
         sodipodi:nodetypes="cccccc"
         inkscape:connector-curvature="0"
         id="path1611-5-3"
         d="m 252,116 28,-28 v -8 h -36 v 36 z"
         style="fill:#e74747;stroke:none;stroke-width:0.25px;stroke-linecap:butt;stroke-linejoin:miter;stroke-opacity:1" /></clipPath><clipPath
       clipPathUnits="userSpaceOnUse"
       id="clipPath961"><rect
         style="fill:#00c853;stroke:none;stroke-width:0.529037"
         id="rect963"
         width="541.86664"
         height="541.86664"
         x="1.4210855e-14"
         y="2.717972e-05"
         rx="79.375"
         ry="79.375" /></clipPath><radialGradient
       r="32"
       fy="-76"
       fx="-244"
       cy="-76"
       cx="-244"
       gradientTransform="matrix(0.88333331,0,0,0.88333331,-460.35018,463.11973)"
       gradientUnits="userSpaceOnUse"
       id="radialGradient1103-56"
       xlink:href="#linearGradient1069" /><inkscape:path-effect
       effect="spiro"
       id="path-effect35304-9-7"
       is_visible="true" /><clipPath
       clipPathUnits="userSpaceOnUse"
       id="clipPath1440"><circle
         style="display:inline;opacity:1;vector-effect:none;fill:none;fill-opacity:1;stroke:#000000;stroke-width:2;stroke-linecap:butt;stroke-linejoin:miter;stroke-miterlimit:4;stroke-dasharray:none;stroke-dashoffset:0;stroke-opacity:1;marker:none;marker-start:none;marker-mid:none;marker-end:none;paint-order:normal;enable-background:new"
         id="circle1442"
         cx="-134.35028"
         cy="193.74727"
         r="24"
         transform="rotate(-45)" /></clipPath><clipPath
       clipPathUnits="userSpaceOnUse"
       id="clipPath1430"><circle
         style="display:inline;opacity:1;vector-effect:none;fill:none;fill-opacity:1;stroke:#000000;stroke-width:2;stroke-linecap:butt;stroke-linejoin:miter;stroke-miterlimit:4;stroke-dasharray:none;stroke-dashoffset:0;stroke-opacity:1;marker:none;marker-start:none;marker-mid:none;marker-end:none;paint-order:normal;enable-background:new"
         id="circle1432"
         cx="12"
         cy="232"
         r="24" /></clipPath><clipPath
       clipPathUnits="userSpaceOnUse"
       id="clipPath1440-9"><circle
         style="display:inline;opacity:1;vector-effect:none;fill:none;fill-opacity:1;stroke:#000000;stroke-width:2;stroke-linecap:butt;stroke-linejoin:miter;stroke-miterlimit:4;stroke-dasharray:none;stroke-dashoffset:0;stroke-opacity:1;marker:none;marker-start:none;marker-mid:none;marker-end:none;paint-order:normal;enable-background:new"
         id="circle1442-5"
         cx="-134.35028"
         cy="193.74727"
         r="24"
         transform="rotate(-45)" /></clipPath><clipPath
       clipPathUnits="userSpaceOnUse"
       id="clipPath1430-1"><circle
         style="display:inline;opacity:1;vector-effect:none;fill:none;fill-opacity:1;stroke:#000000;stroke-width:2;stroke-linecap:butt;stroke-linejoin:miter;stroke-miterlimit:4;stroke-dasharray:none;stroke-dashoffset:0;stroke-opacity:1;marker:none;marker-start:none;marker-mid:none;marker-end:none;paint-order:normal;enable-background:new"
         id="circle1432-8"
         cx="12"
         cy="232"
         r="24" /></clipPath><clipPath
       clipPathUnits="userSpaceOnUse"
       id="clipPath2024"><rect
         style="opacity:1;vector-effect:none;fill:#63452c;fill-opacity:1;stroke:none;stroke-width:4;stroke-linecap:round;stroke-linejoin:round;stroke-miterlimit:4;stroke-dasharray:none;stroke-dashoffset:0;stroke-opacity:1"
         id="rect2026"
         width="74"
         height="98"
         x="6"
         y="196" /></clipPath><linearGradient
       id="linearGradient914"
       inkscape:collect="always"><stop
         id="stop910"
         offset="0"
         style="stop-color:#f6f5f4;stop-opacity:0.43700787" /><stop
         id="stop912"
         offset="1"
         style="stop-color:#deddda;stop-opacity:0;" /></linearGradient><radialGradient
       gradientTransform="matrix(2.6086955,0,0,1.8410361,-102.95652,-748.94671)"
       gradientUnits="userSpaceOnUse"
       r="46"
       fy="296"
       fx="64.000008"
       cy="296"
       cx="64.000008"
       id="radialGradient916"
       xlink:href="#linearGradient914"
       inkscape:collect="always" /><clipPath
       clipPathUnits="userSpaceOnUse"
       id="clipPath11543"><rect
         style="fill:#f0c04e;fill-opacity:1;stroke:none;stroke-width:0.529037"
         id="rect11545"
         width="541.86664"
         height="541.86664"
         x="1.4746095e-06"
         y="6.4330168e-05"
         rx="79.375"
         ry="79.375" /></clipPath><style
       id="style374">.cls-1{fill:url(#linear-gradient);}.cls-2{opacity:0.35;fill:url(#radial-gradient);}.cls-2,.cls-4{isolation:isolate;}.cls-3{fill:url(#linear-gradient-2);}.cls-4{opacity:0.41;fill:url(#radial-gradient-2);}.cls-5{fill:url(#radial-gradient-3);}.cls-6{fill:url(#radial-gradient-4);}</style><linearGradient
       id="linear-gradient"
       x1="63.33"
       y1="84.03"
       x2="241.67"
       y2="84.03"
       gradientTransform="matrix(1,0,0,-1,0,266)"
       gradientUnits="userSpaceOnUse"><stop
         offset="0"
         stop-color="#0c59a4"
         id="stop376" /><stop
         offset="1"
         stop-color="#114a8b"
         id="stop378" /></linearGradient><radialGradient
       id="radial-gradient"
       cx="161.83"
       cy="68.91"
       r="95.38"
       gradientTransform="matrix(1,0,0,-0.95,0,248.84)"
       gradientUnits="userSpaceOnUse"><stop
         offset="0.72"
         stop-opacity="0"
         id="stop381" /><stop
         offset="0.95"
         stop-opacity="0.53"
         id="stop383" /><stop
         offset="1"
         id="stop385" /></radialGradient><linearGradient
       id="linear-gradient-2"
       x1="157.35"
       y1="161.39"
       x2="45.96"
       y2="40.06"
       gradientTransform="matrix(1,0,0,-1,0,266)"
       gradientUnits="userSpaceOnUse"><stop
         offset="0"
         stop-color="#1b9de2"
         id="stop388" /><stop
         offset="0.16"
         stop-color="#1595df"
         id="stop390" /><stop
         offset="0.67"
         stop-color="#0680d7"
         id="stop392" /><stop
         offset="1"
         stop-color="#0078d4"
         id="stop394" /></linearGradient><radialGradient
       id="radial-gradient-2"
       cx="-340.29"
       cy="62.99"
       r="143.24"
       gradientTransform="matrix(0.15,-0.99,-0.8,-0.12,176.64,-125.4)"
       gradientUnits="userSpaceOnUse"><stop
         offset="0.76"
         stop-opacity="0"
         id="stop397" /><stop
         offset="0.95"
         stop-opacity="0.5"
         id="stop399" /><stop
         offset="1"
         id="stop401" /></radialGradient><radialGradient
       id="radial-gradient-3"
       cx="113.37"
       cy="570.21"
       r="202.43"
       gradientTransform="matrix(-0.04,1,2.13,0.08,-1179.54,-106.69)"
       gradientUnits="userSpaceOnUse"><stop
         offset="0"
         stop-color="#35c1f1"
         id="stop404" /><stop
         offset="0.11"
         stop-color="#34c1ed"
         id="stop406" /><stop
         offset="0.23"
         stop-color="#2fc2df"
         id="stop408" /><stop
         offset="0.31"
         stop-color="#2bc3d2"
         id="stop410" /><stop
         offset="0.67"
         stop-color="#36c752"
         id="stop412" /></radialGradient><radialGradient
       id="radial-gradient-4"
       cx="376.52"
       cy="567.97"
       r="97.34"
       gradientTransform="matrix(0.28,0.96,0.78,-0.23,-303.76,-148.5)"
       gradientUnits="userSpaceOnUse"><stop
         offset="0"
         stop-color="#66eb6e"
         id="stop415" /><stop
         offset="1"
         stop-color="#66eb6e"
         stop-opacity="0"
         id="stop417" /></radialGradient><clipPath
       clipPathUnits="userSpaceOnUse"
       id="clipPath1260"><rect
         style="fill:#bbdefb;fill-opacity:1;stroke:none;stroke-width:0.529037"
         id="rect1262"
         width="541.86664"
         height="541.86664"
         x="2.9492187e-06"
         y="3.9968629e-05"
         rx="79.375"
         ry="79.375" /></clipPath><clipPath
       clipPathUnits="userSpaceOnUse"
       id="clipPath16285"><rect
         style="fill:#bbdefb;fill-opacity:1;stroke:none;stroke-width:0.529037"
         id="rect16287"
         width="541.86664"
         height="541.86664"
         x="0"
         y="6.4807005e-05"
         rx="79.375"
         ry="79.375" /></clipPath><clipPath
       clipPathUnits="userSpaceOnUse"
       id="clipPath990"><rect
         style="fill:#bbdefb;fill-opacity:1;stroke:none;stroke-width:0.529037"
         id="rect992"
         width="487.67996"
         height="487.67996"
         x="27.093349"
         y="27.093338"
         rx="71.4375"
         ry="71.4375" /></clipPath><linearGradient
       id="linearGradient4292"><stop
         id="stop4294"
         offset="0"
         style="stop-color:#411f5d;stop-opacity:1" /><stop
         id="stop4296"
         offset="1"
         style="stop-color:#5b2a85;stop-opacity:1" /></linearGradient><linearGradient
       id="linearGradient4284"><stop
         offset="0"
         style="stop-color:#8381c5;stop-opacity:1"
         id="stop4286" /><stop
         id="stop4290"
         style="stop-color:#7e55b3;stop-opacity:0.99607843"
         offset="0.56639391" /><stop
         offset="1"
         style="stop-color:#a52ecb;stop-opacity:0.99215686"
         id="stop4288" /></linearGradient><linearGradient
       id="linearGradient4898"><stop
         id="stop4278"
         style="stop-color:#bab8db;stop-opacity:1"
         offset="0" /><stop
         id="stop4280"
         style="stop-color:#5955a9;stop-opacity:0.99159664"
         offset="1" /></linearGradient><linearGradient
       id="linearGradient3294"><stop
         offset="0"
         style="stop-color:#6376e6;stop-opacity:1"
         id="stop3296" /><stop
         offset="0.50094414"
         style="stop-color:#222989;stop-opacity:1"
         id="stop3302" /><stop
         offset="1"
         style="stop-color:#00003d;stop-opacity:1"
         id="stop3298" /></linearGradient><linearGradient
       id="linearGradient3284"><stop
         offset="0"
         style="stop-color:#000000;stop-opacity:1"
         id="stop3286" /><stop
         offset="0.84845906"
         style="stop-color:#000000;stop-opacity:0.49803922"
         id="stop3292" /><stop
         offset="1"
         style="stop-color:#000000;stop-opacity:0"
         id="stop3288" /></linearGradient><linearGradient
       id="linearGradient3274"><stop
         offset="0"
         style="stop-color:#000000;stop-opacity:1"
         id="stop3276" /><stop
         offset="1"
         style="stop-color:#000000;stop-opacity:0"
         id="stop3278" /></linearGradient><linearGradient
       id="linearGradient3242"><stop
         offset="0"
         style="stop-color:#282828;stop-opacity:1"
         id="stop3244" /><stop
         offset="0.39253417"
         style="stop-color:#808080;stop-opacity:1"
         id="stop3252" /><stop
         offset="1"
         style="stop-color:#d9d9d9;stop-opacity:1"
         id="stop3246" /></linearGradient><linearGradient
       id="linearGradient3202"><stop
         offset="0"
         style="stop-color:#2b2b2b;stop-opacity:1"
         id="stop3204" /><stop
         offset="0.5"
         style="stop-color:#828383;stop-opacity:1"
         id="stop3250" /><stop
         offset="1"
         style="stop-color:#dadbdb;stop-opacity:1"
         id="stop3206" /></linearGradient><linearGradient
       id="linearGradient4966"><stop
         offset="0"
         style="stop-color:#b6b3d8;stop-opacity:1"
         id="stop4968" /><stop
         offset="1"
         style="stop-color:#b6b3d8;stop-opacity:0"
         id="stop4970" /></linearGradient><linearGradient
       id="linearGradient4876"><stop
         offset="0"
         style="stop-color:#d3d2e8;stop-opacity:1"
         id="stop4878" /><stop
         offset="1"
         style="stop-color:#5955a9;stop-opacity:0.99159664"
         id="stop4880" /></linearGradient><radialGradient
       gradientTransform="matrix(0.6817439,0,0,0.5905355,-3.8523706,-28.935273)"
       gradientUnits="userSpaceOnUse"
       xlink:href="#linearGradient4898"
       id="radialGradient4892"
       fy="-108.96888"
       fx="20.951529"
       r="266.76535"
       cy="-108.96888"
       cx="20.951529" /><radialGradient
       gradientTransform="matrix(1,0,0,0.1854103,0,383.88493)"
       gradientUnits="userSpaceOnUse"
       xlink:href="#linearGradient3274"
       id="radialGradient4944"
       fy="471.26172"
       fx="233.8876"
       r="170.49393"
       cy="471.26172"
       cx="233.8876" /><radialGradient
       gradientTransform="matrix(1,0,0,0.9121621,0,32.654948)"
       gradientUnits="userSpaceOnUse"
       xlink:href="#linearGradient4966"
       id="radialGradient4972"
       fy="371.76376"
       fx="299.70135"
       r="76.696358"
       cy="371.76376"
       cx="299.70135" /><radialGradient
       gradientTransform="matrix(0.414705,0.3300575,-0.5059004,0.6356454,346.95314,49.479585)"
       gradientUnits="userSpaceOnUse"
       xlink:href="#linearGradient3202"
       id="radialGradient3210"
       fy="390.45248"
       fx="289.44067"
       r="17.67668"
       cy="390.45248"
       cx="289.44067" /><radialGradient
       gradientTransform="matrix(0.414705,0.3300575,-0.5059004,0.6356454,448.41009,-65.398074)"
       gradientUnits="userSpaceOnUse"
       xlink:href="#linearGradient3202"
       id="radialGradient3238"
       fy="382.14804"
       fx="283.50717"
       r="17.67668"
       cy="382.14804"
       cx="283.50717" /><radialGradient
       gradientTransform="matrix(-6.5565014e-2,-5.9721765e-2,1.6871024,-1.8521705,171.90774,540.51473)"
       gradientUnits="userSpaceOnUse"
       xlink:href="#linearGradient3242"
       id="radialGradient3248"
       fy="181.18982"
       fx="418.45551"
       r="63.068935"
       cy="181.18982"
       cx="418.45551" /><radialGradient
       gradientTransform="matrix(0.4055116,-3.3440123e-2,0.1034174,4.3988695,177.23251,-1191.6649)"
       gradientUnits="userSpaceOnUse"
       xlink:href="#linearGradient3274"
       id="radialGradient3268"
       fy="357.33591"
       fx="354.51709"
       r="33.712105"
       cy="357.33591"
       cx="354.51709" /><radialGradient
       gradientTransform="matrix(-0.1339874,-0.1146812,0.3079048,-0.3597394,444.23592,395.03849)"
       gradientUnits="userSpaceOnUse"
       xlink:href="#linearGradient3274"
       id="radialGradient3280"
       fy="223.55537"
       fx="510.58469"
       r="132.28336"
       cy="223.55537"
       cx="510.58469" /><radialGradient
       gradientTransform="matrix(-1.2497569,1.3798305,-9.6289463e-2,-7.2974479e-2,674.3826,-70.590682)"
       gradientUnits="userSpaceOnUse"
       xlink:href="#linearGradient3284"
       id="radialGradient3290"
       fy="-158.17821"
       fx="284.4671"
       r="110.2972"
       cy="-158.17821"
       cx="284.4671" /><radialGradient
       gradientTransform="matrix(-0.1008165,-8.0872321e-2,1.0745309,-1.3395252,13.843287,784.79288)"
       gradientUnits="userSpaceOnUse"
       xlink:href="#linearGradient3294"
       id="radialGradient3300"
       fy="356.62274"
       fx="425.51019"
       r="143.34167"
       cy="356.62274"
       cx="425.51019" /><filter
       height="1.1062305"
       y="-0.053115233"
       width="1.1073157"
       x="-0.053657864"
       id="filter4350"
       style="color-interpolation-filters:sRGB"><feGaussianBlur
         id="feGaussianBlur4352"
         stdDeviation="8.7848425" /></filter><linearGradient
       y2="300.73987"
       x2="236.61363"
       y1="-161.8512"
       x1="-122.20192"
       spreadMethod="pad"
       gradientTransform="matrix(0.17595114,0,0,0.16675393,-57.890895,62.668437)"
       gradientUnits="userSpaceOnUse"
       id="linearGradient4245"
       xlink:href="#linearGradient4284" /><linearGradient
       y2="66.018341"
       x2="173.94518"
       y1="396.6066"
       x1="447.80933"
       gradientTransform="matrix(0.19870189,0,0,0.19870189,-106.81348,12.782767)"
       gradientUnits="userSpaceOnUse"
       id="linearGradient4247"
       xlink:href="#linearGradient4292" /><linearGradient
       x1="0.00011788858"
       y1="119.55213"
       x2="235.77728"
       y2="119.55213"
       id="linearGradient-1"
       gradientTransform="matrix(0.41833802,0,0,0.49114875,14.682675,1.9999501)"
       gradientUnits="userSpaceOnUse"><stop
         stop-color="#FF5500"
         offset="0%"
         id="stop444" /><stop
         stop-color="#FF5500"
         offset="40.9877232%"
         id="stop446" /><stop
         stop-color="#FF2000"
         offset="58.1981215%"
         id="stop448" /><stop
         stop-color="#FF2000"
         offset="100%"
         id="stop450" /></linearGradient><linearGradient
       x1="11.296889"
       y1="46.234235"
       x2="100.51935"
       y2="46.234235"
       id="linearGradient-2"
       gradientTransform="scale(1.980754,0.50485825)"
       gradientUnits="userSpaceOnUse"><stop
         stop-color="#FF452A"
         offset="0%"
         id="stop453" /><stop
         stop-color="#FF2000"
         offset="100%"
         id="stop455" /></linearGradient><path
       d="M170.272109,25.3359387 L147.968109,0.00010893617 L108.800109,0.00010893617 L69.6321088,0.00010893617 L47.3281088,25.3359387 C47.3281088,25.3359387 27.7441088,19.8891302 18.4961088,29.1487047 C18.4961088,29.1487047 44.6081088,26.7886026 53.5841088,41.4040238 C53.5841088,41.4040238 77.7921088,46.0338111 81.0561088,46.0338111 C84.3201088,46.0338111 91.3921088,43.3104068 97.9201088,41.1316834 C104.448109,38.95296 108.800109,38.9371643 108.800109,38.9371643 C108.800109,38.9371643 113.152109,38.95296 119.680109,41.1316834 C126.208109,43.3104068 133.280109,46.0338111 136.544109,46.0338111 C139.808109,46.0338111 164.016109,41.4040238 164.016109,41.4040238 C172.992109,26.7886026 199.104109,29.1487047 199.104109,29.1487047 C189.856109,19.8891302 170.272109,25.3359387 170.272109,25.3359387"
       id="path-3" /><mask
       id="mask-4"
       fill="#ffffff"><use
         xlink:href="#path-3"
         id="use463" /></mask><filter
       style="color-interpolation-filters:sRGB;"
       inkscape:label="Drop Shadow"
       id="filter2647"
       x="-0.080835619"
       y="-0.082486494"
       width="1.1616712"
       height="1.2405856"><feFlood
         flood-opacity="0.4"
         flood-color="rgb(0,0,0)"
         result="flood"
         id="feFlood2637" /><feComposite
         in="flood"
         in2="SourceGraphic"
         operator="in"
         result="composite1"
         id="feComposite2639" /><feGaussianBlur
         in="composite1"
         stdDeviation="2.5"
         result="blur"
         id="feGaussianBlur2641" /><feOffset
         dx="0"
         dy="5.5"
         result="offset"
         id="feOffset2643" /><feComposite
         in="SourceGraphic"
         in2="offset"
         operator="over"
         result="composite2"
         id="feComposite2645" /></filter><filter
       style="color-interpolation-filters:sRGB;"
       inkscape:label="Drop Shadow"
       id="filter5015"
       x="-0.032334248"
       y="-0.032994598"
       width="1.0646685"
       height="1.1416018"><feFlood
         flood-opacity="0.254902"
         flood-color="rgb(0,0,0)"
         result="flood"
         id="feFlood5005" /><feComposite
         in="flood"
         in2="SourceGraphic"
         operator="in"
         result="composite1"
         id="feComposite5007" /><feGaussianBlur
         in="composite1"
         stdDeviation="1"
         result="blur"
         id="feGaussianBlur5009" /><feOffset
         dx="0"
         dy="5.5"
         result="offset"
         id="feOffset5011" /><feComposite
         in="SourceGraphic"
         in2="offset"
         operator="over"
         result="composite2"
         id="feComposite5013" /></filter></defs><g
     inkscape:groupmode="layer"
     id="layer2"
     inkscape:label="Layer 1"><rect
       style="display:none;fill:none;stroke-width:0.20135"
       id="rect4772"
       y="12.314822"
       x="-107.39003"
       height="103.09106"
       width="103.09106" /><g
       style="display:none"
       id="g4788"
       transform="matrix(0.20134972,0,0,0.20134972,-107.42446,12.274351)"><g
         style="display:inline"
         id="g4790" /></g><g
       style="display:none"
       id="g4806"
       transform="matrix(0.20134972,0,0,0.20134972,-107.42446,12.274351)"><g
         style="display:inline"
         id="g4808"><path
           style="display:none;fill:#050505"
           id="path4810"
           d="m 349.098,256.651 c -0.265,-0.254 37.637,27.605 39.421,25.012 6.362,-9.252 82.046,-93.137 84.784,-116.236 0.242,-2.003 -0.516,-4.096 -0.516,-4.096 0,0 -1.19,-0.144 -6.325,-4.314 -2.692,-2.192 -5.483,-4.581 -5.483,-4.581 -16.054,0.998 -57.885,41.559 -111.062,103.568" /></g></g><text
       xml:space="preserve"
       style="font-style:normal;font-variant:normal;font-weight:normal;font-stretch:normal;font-size:40px;line-height:1.25;font-family:'DejaVu Math TeX Gyre';-inkscape-font-specification:'DejaVu Math TeX Gyre';fill:#000000;fill-opacity:1;stroke:none"
       x="57.303368"
       y="69.244858"
       id="text3441"><tspan
         sodipodi:role="line"
         id="tspan3439"
         x="57.303368"
         y="69.244858" /></text><text
       xml:space="preserve"
       style="font-size:40px;line-height:1.25;font-family:Caladea;-inkscape-font-specification:Caladea"
       x="43.168587"
       y="69.812454"
       id="text13903"><tspan
         sodipodi:role="line"
         id="tspan13901"
         x="43.168587"
         y="69.812454" /></text><path
       id="path516"
       style="fill:#b92808;fill-opacity:1;fill-rule:evenodd;stroke:none;stroke-width:0.460715"
       d="M 45.955212,9.2999609 35.67965,20.973128 c 0,0 -9.023698,-2.510362 -13.284382,1.755654 l -7.769228,-0.30312 v 8.332746 l 2.75656,6.776461 -0.45773,1.306059 -3.051544,0.398735 v 8.332747 c 0,0 10.321479,39.136572 11.530762,43.915768 2.380971,9.410332 4.009046,13.049042 10.776015,17.816942 6.766971,4.7679 19.048583,13.04888 21.053611,14.3036 2.005028,1.25471 4.510631,3.39128 6.766287,3.39128 2.255656,0 4.761259,-2.13657 6.766287,-3.39128 2.005028,-1.25472 14.28664,-9.5357 21.053611,-14.3036 6.766969,-4.7679 8.395041,-8.40661 10.776011,-17.816942 1.20903,-4.779196 11.53076,-43.915768 11.53076,-43.915768 l -0.0569,-0.162749 v -8.169998 h -2.85625 l -0.59607,-1.704794 2.75655,-6.776461 v -8.332746 h -4.25587 v 3.901906 c -1.12017,-1.156595 -2.14805,-2.23178 -3.51335,-3.598786 C 101.3441,18.462766 92.320413,20.973128 92.320413,20.973128 L 82.04479,9.2999609 H 64.000001 Z" /><path
       d="m 110.61696,29.234791 2.7569,-6.775446 c 0,0 -3.50879,-3.764137 -7.76948,-8.030159 -4.26069,-4.266021 -13.283328,-1.756597 -13.283328,-1.756597 L 82.045273,1.0000014 H 64.000001 45.95473 L 35.67895,12.672589 c 0,0 -9.022636,-2.509424 -13.283324,1.756597 -4.260689,4.266022 -7.769492,8.030159 -7.769492,8.030159 l 2.756917,6.775446 -3.508803,10.037697 c 0,0 10.319639,39.135727 11.528923,43.914928 2.380974,9.410341 4.01006,13.049005 10.777037,17.816914 6.766977,4.7679 19.047786,13.04901 21.052815,14.30372 2.005032,1.25471 4.51132,3.39199 6.766978,3.39199 2.255658,0 4.761946,-2.13728 6.766978,-3.39199 2.005029,-1.25471 14.285838,-9.53582 21.052815,-14.30372 6.766977,-4.767909 8.396066,-8.406573 10.777036,-17.816914 1.20903,-4.779201 11.52892,-43.914928 11.52892,-43.914928 z"
       id="Head"
       fill="url(#linearGradient-1)"
       style="fill:#ff532a;fill-opacity:1;fill-rule:evenodd;stroke:none;stroke-width:0.460715" /><path
       d="m 88.422988,25.813665 c 0,0 12.689362,15.35876 12.689362,18.641319 0,3.282558 -1.596271,4.148913 -3.20121,5.855361 -1.604939,1.706448 -8.61446,9.159121 -9.51462,10.116062 -0.900164,0.957183 -2.774116,2.408253 -1.671831,5.020088 1.102281,2.61183 2.728394,5.935344 0.920131,9.306323 -1.808503,3.370975 -4.906493,5.620946 -6.891612,5.248961 -1.98512,-0.372223 -6.647144,-2.811554 -8.361565,-3.925817 -1.714422,-1.114264 -7.148116,-5.601192 -7.148116,-7.317997 0,-1.716572 5.616805,-4.798921 6.654361,-5.499282 1.038039,-0.700117 5.771046,-3.41073 5.868015,-4.47464 0.09673,-1.064149 0.05991,-1.376142 -1.33689,-4.005081 -1.396803,-2.629178 -3.912248,-6.137481 -3.493568,-8.471772 0.41868,-2.33405 4.475543,-3.547813 7.370691,-4.642562 2.894665,-1.094507 8.468641,-3.161856 9.164755,-3.483246 0.696597,-0.321631 0.516613,-0.627842 -1.592908,-0.828048 -2.109039,-0.200206 -8.09472,-0.99573 -10.793279,-0.242608 -2.69856,0.753121 -7.30885,1.898945 -7.68229,2.506549 -0.373444,0.607605 -0.702855,0.628083 -0.319304,2.724103 0.383308,2.096018 2.357843,12.153537 2.549375,13.939972 0.191775,1.786435 0.566661,2.967431 -1.3571,3.407838 C 68.351384,60.129594 65.11287,60.894276 64,60.894276 c -1.11287,0 -4.351623,-0.764682 -6.275385,-1.205088 -1.924002,-0.440407 -1.549115,-1.621403 -1.35734,-3.407838 0.191774,-1.786435 2.166066,-11.843954 2.549615,-13.939972 0.383309,-2.09602 0.0539,-2.116498 -0.319303,-2.724103 -0.373443,-0.607604 -4.983974,-1.753428 -7.682534,-2.506549 -2.69856,-0.753122 -8.683996,0.0424 -10.793276,0.242608 -2.10928,0.200206 -2.289264,0.506417 -1.592909,0.828048 0.696356,0.32139 6.270332,2.388739 9.164997,3.483246 2.894907,1.094749 6.95201,2.308512 7.37069,4.642562 0.41868,2.334291 -2.097008,5.842594 -3.49357,8.471772 -1.396803,2.628939 -1.433858,2.940932 -1.336888,4.005081 0.09673,1.06391 4.829977,3.774523 5.867773,4.47464 1.037797,0.700361 6.654361,3.78271 6.654361,5.499282 0,1.716805 -5.433452,6.203733 -7.147874,7.317997 -1.714421,1.114263 -6.376445,3.553594 -8.361565,3.925817 -1.985119,0.371985 -5.083109,-1.877986 -6.891613,-5.248961 -1.808264,-3.370979 -0.18215,-6.694493 0.919892,-9.306323 1.102283,-2.611835 -0.77143,-4.062905 -1.671832,-5.020088 -0.899921,-0.956941 -7.909679,-8.409614 -9.514618,-10.116062 -1.60494,-1.706448 -3.200976,-2.572803 -3.200976,-5.855361 0,-3.282559 12.689367,-18.641319 12.689367,-18.641319 0,0 10.707615,2.047835 12.151339,2.047835 1.443723,0 4.57179,-1.204609 7.459237,-2.168296 C 62.075036,24.729517 64,24.722531 64,24.722531 c 0,0 1.924965,0.007 4.812412,0.970673 2.887447,0.963687 6.015514,2.168296 7.459238,2.168296 1.443723,0 12.151338,-2.047835 12.151338,-2.047835 z m -9.512744,58.750302 c 0.785388,0.492445 0.306314,1.420719 -0.409055,1.927137 -0.715603,0.506418 -10.331044,7.961498 -11.26417,8.785451 -0.933364,0.824191 -2.304663,2.185157 -3.237067,2.185157 -0.932405,0 -2.303942,-1.360966 -3.237068,-2.185157 -0.933368,-0.823953 -10.548566,-8.279033 -11.264172,-8.785451 -0.715605,-0.506418 -1.19444,-1.434692 -0.409055,-1.927137 0.785626,-0.492201 3.243084,-1.734635 6.63415,-3.491674 3.390585,-1.756804 7.616605,-3.250518 8.276145,-3.250518 0.659539,0 4.885318,1.493714 8.276383,3.250518 3.390826,1.757039 5.848283,2.999473 6.633909,3.491674 z"
       id="Face"
       fill="#ffffff"
       style="fill-rule:evenodd;stroke:none;stroke-width:0.442317;filter:url(#filter5015);fill:#f5e9e9;fill-opacity:1"
       transform="matrix(1.0415932,0,0,1.0415932,-2.6619669,-6.8119482)" /><path
       id="use1895"
       style="fill:#ffffff;fill-opacity:0.398444;fill-rule:evenodd;stroke:none;stroke-width:0.460715"
       d="M 45.955212,1.0000011 35.67965,12.673169 c 0,0 -9.023698,-2.510362 -13.284382,1.755654 0,0 1.63376,-0.138912 3.887665,0.0081 4.332028,-1.087434 9.396717,0.319394 9.396717,0.319394 L 45.955212,3.0831876 H 64.000001 82.04479 L 92.320352,14.756356 c 0,0 5.064685,-1.406829 9.396718,-0.319394 2.2539,-0.147051 3.88766,-0.0081 3.88766,-0.0081 -4.26069,-4.266029 -13.284378,-1.755667 -13.284378,-1.755667 L 82.04479,1.0000011 H 64.000001 Z" /></g></svg>
