<?xml version="1.0" encoding="UTF-8" standalone="no"?>
<!-- Created with Inkscape (http://www.inkscape.org/) -->

<svg
   width="128"
   height="128"
   viewBox="0 0 128 128"
   version="1.1"
   id="svg5"
   inkscape:version="1.2.2 (b0a8486541, 2022-12-01)"
   sodipodi:docname="com.jetbrains.toolbox.svg"
   xml:space="preserve"
   xmlns:inkscape="http://www.inkscape.org/namespaces/inkscape"
   xmlns:sodipodi="http://sodipodi.sourceforge.net/DTD/sodipodi-0.dtd"
   xmlns:xlink="http://www.w3.org/1999/xlink"
   xmlns="http://www.w3.org/2000/svg"
   xmlns:svg="http://www.w3.org/2000/svg"><sodipodi:namedview
     id="namedview7"
     pagecolor="#ffffff"
     bordercolor="#666666"
     borderopacity="1"
     inkscape:pageshadow="2"
     inkscape:pageopacity="0.0"
     inkscape:pagecheckerboard="true"
     inkscape:document-units="px"
     showgrid="false"
     inkscape:showpageshadow="false"
     showborder="true"
     inkscape:snap-page="true"
     inkscape:snap-bbox="true"
     inkscape:snap-bbox-midpoints="true"
     inkscape:zoom="1.8152838"
     inkscape:cx="95.301903"
     inkscape:cy="67.758"
     inkscape:window-width="1366"
     inkscape:window-height="731"
     inkscape:window-x="0"
     inkscape:window-y="0"
     inkscape:window-maximized="1"
     inkscape:current-layer="layer2"
     inkscape:snap-bbox-edge-midpoints="false"
     inkscape:bbox-nodes="false"
     inkscape:snap-center="true"
     inkscape:object-paths="true"
     inkscape:object-nodes="true"
     inkscape:snap-nodes="true"
     inkscape:snap-object-midpoints="true"
     inkscape:snap-intersection-paths="true"
     inkscape:snap-smooth-nodes="true"
     inkscape:snap-midpoints="true"
     inkscape:snap-others="false"
     inkscape:deskcolor="#d1d1d1" /><defs
     id="defs2"><linearGradient
       inkscape:collect="always"
       id="linearGradient5167"><stop
         style="stop-color:#bd1fda;stop-opacity:1"
         offset="0"
         id="stop5163" /><stop
         style="stop-color:#fb285d;stop-opacity:1"
         offset="1"
         id="stop5165" /></linearGradient><linearGradient
       inkscape:collect="always"
       id="linearGradient1300"><stop
         style="stop-color:#fc801d;stop-opacity:1"
         offset="0"
         id="stop1296" /><stop
         style="stop-color:#f12671;stop-opacity:1"
         offset="1"
         id="stop1298" /></linearGradient><inkscape:path-effect
       effect="fillet_chamfer"
       id="path-effect997"
       is_visible="true"
       lpeversion="1"
       satellites_param="F,0,0,1,0,4,0,1 @ F,0,0,1,0,4,0,1 @ F,0,0,1,0,4,0,1 @ F,0,0,1,0,4,0,1 @ F,0,0,1,0,4,0,1 @ F,0,0,1,0,4,0,1"
       unit="px"
       method="auto"
       mode="F"
       radius="4"
       chamfer_steps="1"
       flexible="false"
       use_knot_distance="true"
       apply_no_radius="true"
       apply_with_radius="true"
       only_selected="false"
       hide_knots="false"
       nodesatellites_param="F,0,0,1,0,4,0,1 @ F,0,0,1,0,4,0,1 @ F,0,0,1,0,4,0,1 @ F,0,0,1,0,4,0,1 @ F,0,0,1,0,4,0,1 @ F,0,0,1,0,4,0,1" /><inkscape:path-effect
       effect="fillet_chamfer"
       id="path-effect991"
       is_visible="true"
       lpeversion="1"
       satellites_param="F,0,0,1,0,4,0,1 @ F,0,0,1,0,4,0,1 @ F,0,0,1,0,4,0,1 @ F,0,0,1,0,4,0,1 @ F,0,0,1,0,4,0,1 @ F,0,0,1,0,4,0,1"
       unit="px"
       method="auto"
       mode="F"
       radius="4"
       chamfer_steps="1"
       flexible="false"
       use_knot_distance="true"
       apply_no_radius="true"
       apply_with_radius="true"
       only_selected="false"
       hide_knots="false"
       nodesatellites_param="F,0,0,1,0,4,0,1 @ F,0,0,1,0,4,0,1 @ F,0,0,1,0,4,0,1 @ F,0,0,1,0,4,0,1 @ F,0,0,1,0,4,0,1 @ F,0,0,1,0,4,0,1" /><inkscape:path-effect
       effect="fillet_chamfer"
       id="path-effect60143"
       is_visible="true"
       lpeversion="1"
       satellites_param="F,0,0,1,0,4,0,1 @ F,0,0,1,0,4,0,1 @ F,0,0,1,0,4,0,1 @ F,0,0,1,0,4,0,1 @ F,0,0,1,0,4,0,1 @ F,0,0,1,0,4,0,1"
       unit="px"
       method="auto"
       mode="F"
       radius="4"
       chamfer_steps="1"
       flexible="false"
       use_knot_distance="true"
       apply_no_radius="true"
       apply_with_radius="true"
       only_selected="false"
       hide_knots="false"
       nodesatellites_param="F,0,0,1,0,4,0,1 @ F,0,0,1,0,4,0,1 @ F,0,0,1,0,4,0,1 @ F,0,0,1,0,4,0,1 @ F,0,0,1,0,4,0,1 @ F,0,0,1,0,4,0,1" /><inkscape:path-effect
       effect="fillet_chamfer"
       id="path-effect60137"
       is_visible="true"
       lpeversion="1"
       satellites_param="F,0,0,1,0,4,0,1 @ F,0,0,1,0,4,0,1 @ F,0,0,1,0,4,0,1 @ F,0,0,1,0,4,0,1 @ F,0,0,1,0,4,0,1 @ F,0,0,1,0,4,0,1"
       unit="px"
       method="auto"
       mode="F"
       radius="4"
       chamfer_steps="1"
       flexible="false"
       use_knot_distance="true"
       apply_no_radius="true"
       apply_with_radius="true"
       only_selected="false"
       hide_knots="false"
       nodesatellites_param="F,0,0,1,0,4,0,1 @ F,0,0,1,0,4,0,1 @ F,0,0,1,0,4,0,1 @ F,0,0,1,0,4,0,1 @ F,0,0,1,0,4,0,1 @ F,0,0,1,0,4,0,1" /><inkscape:path-effect
       effect="fillet_chamfer"
       id="path-effect60129"
       is_visible="true"
       lpeversion="1"
       satellites_param="F,0,0,1,0,4,0,1 @ F,0,0,1,0,4,0,1 @ F,0,0,1,0,4,0,1 @ F,0,0,1,0,4,0,1 @ F,0,0,1,0,4,0,1 @ F,0,0,1,0,4,0,1"
       unit="px"
       method="auto"
       mode="F"
       radius="4"
       chamfer_steps="1"
       flexible="false"
       use_knot_distance="true"
       apply_no_radius="true"
       apply_with_radius="true"
       only_selected="false"
       hide_knots="false"
       nodesatellites_param="F,0,0,1,0,4,0,1 @ F,0,0,1,0,4,0,1 @ F,0,0,1,0,4,0,1 @ F,0,0,1,0,4,0,1 @ F,0,0,1,0,4,0,1 @ F,0,0,1,0,4,0,1" /><inkscape:path-effect
       effect="fillet_chamfer"
       id="path-effect59564"
       is_visible="true"
       lpeversion="1"
       satellites_param="F,0,0,1,0,4,0,1 @ F,0,0,1,0,4,0,1 @ F,0,0,1,0,4,0,1 @ F,0,0,1,0,4,0,1 @ F,0,0,1,0,4,0,1 @ F,0,0,1,0,4,0,1"
       unit="px"
       method="auto"
       mode="F"
       radius="4"
       chamfer_steps="1"
       flexible="false"
       use_knot_distance="true"
       apply_no_radius="true"
       apply_with_radius="true"
       only_selected="false"
       hide_knots="false"
       nodesatellites_param="F,0,0,1,0,4,0,1 @ F,0,0,1,0,4,0,1 @ F,0,0,1,0,4,0,1 @ F,0,0,1,0,4,0,1 @ F,0,0,1,0,4,0,1 @ F,0,0,1,0,4,0,1" /><inkscape:path-effect
       effect="fillet_chamfer"
       id="path-effect59556"
       is_visible="true"
       lpeversion="1"
       satellites_param="F,0,0,1,0,4,0,1 @ F,0,0,1,0,4,0,1 @ F,0,0,1,0,4,0,1 @ F,0,0,1,0,4,0,1 @ F,0,0,1,0,4,0,1 @ F,0,0,1,0,4,0,1"
       unit="px"
       method="auto"
       mode="F"
       radius="4"
       chamfer_steps="1"
       flexible="false"
       use_knot_distance="true"
       apply_no_radius="true"
       apply_with_radius="true"
       only_selected="false"
       hide_knots="false"
       nodesatellites_param="F,0,0,1,0,4,0,1 @ F,0,0,1,0,4,0,1 @ F,0,0,1,0,4,0,1 @ F,0,0,1,0,4,0,1 @ F,0,0,1,0,4,0,1 @ F,0,0,1,0,4,0,1" /><inkscape:path-effect
       effect="fillet_chamfer"
       id="path-effect59548"
       is_visible="true"
       lpeversion="1"
       satellites_param="F,0,0,1,0,4,0,1 @ F,0,0,1,0,4,0,1 @ F,0,0,1,0,4,0,1 @ F,0,0,1,0,4,0,1 @ F,0,0,1,0,4,0,1 @ F,0,0,1,0,4,0,1"
       unit="px"
       method="auto"
       mode="F"
       radius="4"
       chamfer_steps="1"
       flexible="false"
       use_knot_distance="true"
       apply_no_radius="true"
       apply_with_radius="true"
       only_selected="false"
       hide_knots="false"
       nodesatellites_param="F,0,0,1,0,4,0,1 @ F,0,0,1,0,4,0,1 @ F,0,0,1,0,4,0,1 @ F,0,0,1,0,4,0,1 @ F,0,0,1,0,4,0,1 @ F,0,0,1,0,4,0,1" /><inkscape:path-effect
       effect="fillet_chamfer"
       id="path-effect59538"
       is_visible="true"
       lpeversion="1"
       satellites_param="F,0,0,1,0,4,0,1 @ F,0,0,1,0,4,0,1 @ F,0,0,1,0,4,0,1 @ F,0,0,1,0,4,0,1 @ F,0,0,1,0,4,0,1 @ F,0,0,1,0,4,0,1"
       unit="px"
       method="auto"
       mode="F"
       radius="4"
       chamfer_steps="1"
       flexible="false"
       use_knot_distance="true"
       apply_no_radius="true"
       apply_with_radius="true"
       only_selected="false"
       hide_knots="false"
       nodesatellites_param="F,0,0,1,0,4,0,1 @ F,0,0,1,0,4,0,1 @ F,0,0,1,0,4,0,1 @ F,0,0,1,0,4,0,1 @ F,0,0,1,0,4,0,1 @ F,0,0,1,0,4,0,1" /><inkscape:path-effect
       effect="fillet_chamfer"
       id="path-effect59530"
       is_visible="true"
       lpeversion="1"
       satellites_param="F,0,0,1,0,4,0,1 @ F,0,0,1,0,4,0,1 @ F,0,0,1,0,4,0,1 @ F,0,0,1,0,4,0,1 @ F,0,0,1,0,4,0,1 @ F,0,0,1,0,4,0,1"
       unit="px"
       method="auto"
       mode="F"
       radius="4"
       chamfer_steps="1"
       flexible="false"
       use_knot_distance="true"
       apply_no_radius="true"
       apply_with_radius="true"
       only_selected="false"
       hide_knots="false"
       nodesatellites_param="F,0,0,1,0,4,0,1 @ F,0,0,1,0,4,0,1 @ F,0,0,1,0,4,0,1 @ F,0,0,1,0,4,0,1 @ F,0,0,1,0,4,0,1 @ F,0,0,1,0,4,0,1" /><inkscape:path-effect
       effect="fillet_chamfer"
       id="path-effect59362"
       is_visible="true"
       lpeversion="1"
       satellites_param="F,0,0,1,0,4,0,1 @ F,0,0,1,0,4,0,1 @ F,0,0,1,0,4,0,1 @ F,0,0,1,0,4,0,1 @ F,0,0,1,0,4,0,1 @ F,0,0,1,0,4,0,1"
       unit="px"
       method="auto"
       mode="F"
       radius="4"
       chamfer_steps="1"
       flexible="false"
       use_knot_distance="true"
       apply_no_radius="true"
       apply_with_radius="true"
       only_selected="false"
       hide_knots="false"
       nodesatellites_param="F,0,0,1,0,4,0,1 @ F,0,0,1,0,4,0,1 @ F,0,0,1,0,4,0,1 @ F,0,0,1,0,4,0,1 @ F,0,0,1,0,4,0,1 @ F,0,0,1,0,4,0,1" /><inkscape:path-effect
       effect="fillet_chamfer"
       id="path-effect58546"
       is_visible="true"
       lpeversion="1"
       satellites_param="F,0,0,1,0,4,0,1 @ F,0,0,1,0,4,0,1 @ F,0,0,1,0,4,0,1 @ F,0,0,1,0,4,0,1 @ F,0,0,1,0,4,0,1 @ F,0,0,1,0,4,0,1"
       unit="px"
       method="auto"
       mode="F"
       radius="4"
       chamfer_steps="1"
       flexible="false"
       use_knot_distance="true"
       apply_no_radius="true"
       apply_with_radius="true"
       only_selected="false"
       hide_knots="false"
       nodesatellites_param="F,0,0,1,0,4,0,1 @ F,0,0,1,0,4,0,1 @ F,0,0,1,0,4,0,1 @ F,0,0,1,0,4,0,1 @ F,0,0,1,0,4,0,1 @ F,0,0,1,0,4,0,1" /><inkscape:path-effect
       effect="fillet_chamfer"
       id="path-effect57659"
       is_visible="true"
       lpeversion="1"
       satellites_param="F,0,0,1,0,0,0,1 @ F,0,0,1,0,8,0,1 @ F,0,0,1,0,8,0,1 @ F,0,0,1,0,8,0,1"
       unit="px"
       method="auto"
       mode="F"
       radius="8"
       chamfer_steps="1"
       flexible="false"
       use_knot_distance="true"
       apply_no_radius="true"
       apply_with_radius="true"
       only_selected="false"
       hide_knots="false"
       nodesatellites_param="F,0,0,1,0,0,0,1 @ F,0,0,1,0,8,0,1 @ F,0,0,1,0,8,0,1 @ F,0,0,1,0,8,0,1" /><inkscape:path-effect
       effect="fillet_chamfer"
       id="path-effect57657"
       is_visible="true"
       lpeversion="1"
       satellites_param="F,0,0,1,0,0,0,1 @ F,0,0,1,0,0,0,1 @ F,0,0,1,0,0,0,1 @ F,0,0,1,0,0,0,1"
       unit="px"
       method="auto"
       mode="F"
       radius="0"
       chamfer_steps="1"
       flexible="false"
       use_knot_distance="true"
       apply_no_radius="true"
       apply_with_radius="true"
       only_selected="false"
       hide_knots="false"
       nodesatellites_param="F,0,0,1,0,0,0,1 @ F,0,0,1,0,0,0,1 @ F,0,0,1,0,0,0,1 @ F,0,0,1,0,0,0,1" /><inkscape:path-effect
       effect="fillet_chamfer"
       id="path-effect57655"
       is_visible="true"
       lpeversion="1"
       satellites_param="F,0,0,1,0,8,0,1 @ F,0,0,1,0,8,0,1 @ F,0,0,1,0,8,0,1 @ F,0,0,1,0,8,0,1"
       unit="px"
       method="auto"
       mode="F"
       radius="8"
       chamfer_steps="1"
       flexible="false"
       use_knot_distance="true"
       apply_no_radius="true"
       apply_with_radius="true"
       only_selected="false"
       hide_knots="false"
       nodesatellites_param="F,0,0,1,0,8,0,1 @ F,0,0,1,0,8,0,1 @ F,0,0,1,0,8,0,1 @ F,0,0,1,0,8,0,1" /><inkscape:path-effect
       effect="fillet_chamfer"
       id="path-effect57653"
       is_visible="true"
       lpeversion="1"
       satellites_param="F,0,0,1,0,8,0,1 @ F,0,0,1,0,8,0,1 @ F,0,0,1,0,8,0,1 @ F,0,0,1,0,8,0,1 @ F,0,0,1,0,8,0,1"
       unit="px"
       method="auto"
       mode="F"
       radius="8"
       chamfer_steps="1"
       flexible="false"
       use_knot_distance="true"
       apply_no_radius="true"
       apply_with_radius="true"
       only_selected="false"
       hide_knots="false"
       nodesatellites_param="F,0,0,1,0,8,0,1 @ F,0,0,1,0,8,0,1 @ F,0,0,1,0,8,0,1 @ F,0,0,1,0,8,0,1 @ F,0,0,1,0,8,0,1" /><inkscape:path-effect
       effect="fillet_chamfer"
       id="path-effect57651"
       is_visible="true"
       lpeversion="1"
       satellites_param="F,0,0,1,0,8,0,1 @ F,0,0,1,0,8,0,1 @ F,0,0,1,0,8,0,1 @ F,0,0,1,0,8,0,1 @ F,0,0,1,0,8,0,1"
       unit="px"
       method="auto"
       mode="F"
       radius="8"
       chamfer_steps="1"
       flexible="false"
       use_knot_distance="true"
       apply_no_radius="true"
       apply_with_radius="true"
       only_selected="false"
       hide_knots="false"
       nodesatellites_param="F,0,0,1,0,8,0,1 @ F,0,0,1,0,8,0,1 @ F,0,0,1,0,8,0,1 @ F,0,0,1,0,8,0,1 @ F,0,0,1,0,8,0,1" /><inkscape:path-effect
       effect="fillet_chamfer"
       id="path-effect57649"
       is_visible="true"
       lpeversion="1"
       satellites_param="F,0,0,1,0,8,0,1 @ F,0,0,1,0,8,0,1 @ F,0,0,1,0,8,0,1 @ F,0,0,1,0,8,0,1"
       unit="px"
       method="auto"
       mode="F"
       radius="8"
       chamfer_steps="1"
       flexible="false"
       use_knot_distance="true"
       apply_no_radius="true"
       apply_with_radius="true"
       only_selected="false"
       hide_knots="false"
       nodesatellites_param="F,0,0,1,0,8,0,1 @ F,0,0,1,0,8,0,1 @ F,0,0,1,0,8,0,1 @ F,0,0,1,0,8,0,1" /><inkscape:path-effect
       effect="fillet_chamfer"
       id="path-effect57647"
       is_visible="true"
       lpeversion="1"
       satellites_param="F,0,0,1,0,8,0,1 @ F,0,0,1,0,8,0,1 @ F,0,0,1,0,8,0,1 @ F,0,0,1,0,8,0,1 @ F,0,0,1,0,8,0,1"
       unit="px"
       method="auto"
       mode="F"
       radius="8"
       chamfer_steps="1"
       flexible="false"
       use_knot_distance="true"
       apply_no_radius="true"
       apply_with_radius="true"
       only_selected="false"
       hide_knots="false"
       nodesatellites_param="F,0,0,1,0,8,0,1 @ F,0,0,1,0,8,0,1 @ F,0,0,1,0,8,0,1 @ F,0,0,1,0,8,0,1 @ F,0,0,1,0,8,0,1" /><inkscape:path-effect
       effect="fillet_chamfer"
       id="path-effect55649"
       is_visible="true"
       lpeversion="1"
       satellites_param="F,0,0,1,0,12,0,1 @ F,0,0,1,0,12,0,1 @ F,0,0,1,0,12,0,1"
       unit="px"
       method="auto"
       mode="F"
       radius="12"
       chamfer_steps="1"
       flexible="false"
       use_knot_distance="true"
       apply_no_radius="true"
       apply_with_radius="true"
       only_selected="false"
       hide_knots="false"
       nodesatellites_param="F,0,0,1,0,12,0,1 @ F,0,0,1,0,12,0,1 @ F,0,0,1,0,12,0,1" /><inkscape:path-effect
       effect="fillet_chamfer"
       id="path-effect55643"
       is_visible="true"
       lpeversion="1"
       satellites_param="F,0,0,1,0,12,0,1 @ F,0,0,1,0,12,0,1 @ F,0,0,1,0,12,0,1"
       unit="px"
       method="auto"
       mode="F"
       radius="12"
       chamfer_steps="1"
       flexible="false"
       use_knot_distance="true"
       apply_no_radius="true"
       apply_with_radius="true"
       only_selected="false"
       hide_knots="false"
       nodesatellites_param="F,0,0,1,0,12,0,1 @ F,0,0,1,0,12,0,1 @ F,0,0,1,0,12,0,1" /><inkscape:path-effect
       effect="fillet_chamfer"
       id="path-effect55637"
       is_visible="true"
       lpeversion="1"
       satellites_param="F,0,0,1,0,12,0,1 @ F,0,0,1,0,12,0,1 @ F,0,0,1,0,12,0,1"
       unit="px"
       method="auto"
       mode="F"
       radius="12"
       chamfer_steps="1"
       flexible="false"
       use_knot_distance="true"
       apply_no_radius="true"
       apply_with_radius="true"
       only_selected="false"
       hide_knots="false"
       nodesatellites_param="F,0,0,1,0,12,0,1 @ F,0,0,1,0,12,0,1 @ F,0,0,1,0,12,0,1" /><inkscape:path-effect
       effect="fillet_chamfer"
       id="path-effect55631"
       is_visible="true"
       lpeversion="1"
       satellites_param="F,0,0,1,0,12,0,1 @ F,0,0,1,0,12,0,1 @ F,0,0,1,0,12,0,1"
       unit="px"
       method="auto"
       mode="F"
       radius="12"
       chamfer_steps="1"
       flexible="false"
       use_knot_distance="true"
       apply_no_radius="true"
       apply_with_radius="true"
       only_selected="false"
       hide_knots="false"
       nodesatellites_param="F,0,0,1,0,12,0,1 @ F,0,0,1,0,12,0,1 @ F,0,0,1,0,12,0,1" /><inkscape:path-effect
       effect="fillet_chamfer"
       id="path-effect55625"
       is_visible="true"
       lpeversion="1"
       satellites_param="F,0,0,1,0,12,0,1 @ F,0,0,1,0,12,0,1 @ F,0,0,1,0,12,0,1"
       unit="px"
       method="auto"
       mode="F"
       radius="12"
       chamfer_steps="1"
       flexible="false"
       use_knot_distance="true"
       apply_no_radius="true"
       apply_with_radius="true"
       only_selected="false"
       hide_knots="false"
       nodesatellites_param="F,0,0,1,0,12,0,1 @ F,0,0,1,0,12,0,1 @ F,0,0,1,0,12,0,1" /><inkscape:path-effect
       effect="fillet_chamfer"
       id="path-effect55520"
       is_visible="true"
       lpeversion="1"
       satellites_param="F,0,0,1,0,12,0,1 @ F,0,0,1,0,12,0,1 @ F,0,0,1,0,12,0,1"
       unit="px"
       method="auto"
       mode="F"
       radius="12"
       chamfer_steps="1"
       flexible="false"
       use_knot_distance="true"
       apply_no_radius="true"
       apply_with_radius="true"
       only_selected="false"
       hide_knots="false"
       nodesatellites_param="F,0,0,1,0,12,0,1 @ F,0,0,1,0,12,0,1 @ F,0,0,1,0,12,0,1" /><inkscape:path-effect
       effect="fillet_chamfer"
       id="path-effect7037"
       is_visible="true"
       lpeversion="1"
       satellites_param="F,0,0,1,0,4,0,1 @ F,0,0,1,0,4,0,1 @ F,0,0,1,0,4,0,1 @ F,0,0,1,0,4,0,1 @ F,0,0,1,0,4,0,1 @ F,0,0,1,0,4,0,1"
       unit="px"
       method="auto"
       mode="F"
       radius="4"
       chamfer_steps="1"
       flexible="false"
       use_knot_distance="true"
       apply_no_radius="true"
       apply_with_radius="true"
       only_selected="false"
       hide_knots="false"
       nodesatellites_param="F,0,0,1,0,4,0,1 @ F,0,0,1,0,4,0,1 @ F,0,0,1,0,4,0,1 @ F,0,0,1,0,4,0,1 @ F,0,0,1,0,4,0,1 @ F,0,0,1,0,4,0,1" /><inkscape:path-effect
       effect="fillet_chamfer"
       id="path-effect7031"
       is_visible="true"
       lpeversion="1"
       satellites_param="F,0,0,1,0,4,0,1 @ F,0,0,1,0,4,0,1 @ F,0,0,1,0,4,0,1 @ F,0,0,1,0,4,0,1 @ F,0,0,1,0,4,0,1 @ F,0,0,1,0,4,0,1"
       unit="px"
       method="auto"
       mode="F"
       radius="4"
       chamfer_steps="1"
       flexible="false"
       use_knot_distance="true"
       apply_no_radius="true"
       apply_with_radius="true"
       only_selected="false"
       hide_knots="false"
       nodesatellites_param="F,0,0,1,0,4,0,1 @ F,0,0,1,0,4,0,1 @ F,0,0,1,0,4,0,1 @ F,0,0,1,0,4,0,1 @ F,0,0,1,0,4,0,1 @ F,0,0,1,0,4,0,1" /><inkscape:path-effect
       effect="fillet_chamfer"
       id="path-effect6000"
       is_visible="true"
       lpeversion="1"
       satellites_param="F,0,0,1,0,4,0,1 @ F,0,0,1,0,4,0,1 @ F,0,0,1,0,4,0,1 @ F,0,0,1,0,4,0,1 @ F,0,0,1,0,4,0,1 @ F,0,0,1,0,4,0,1"
       unit="px"
       method="auto"
       mode="F"
       radius="4"
       chamfer_steps="1"
       flexible="false"
       use_knot_distance="true"
       apply_no_radius="true"
       apply_with_radius="true"
       only_selected="false"
       hide_knots="false"
       nodesatellites_param="F,0,0,1,0,4,0,1 @ F,0,0,1,0,4,0,1 @ F,0,0,1,0,4,0,1 @ F,0,0,1,0,4,0,1 @ F,0,0,1,0,4,0,1 @ F,0,0,1,0,4,0,1" /><inkscape:path-effect
       effect="fillet_chamfer"
       id="path-effect5108"
       is_visible="true"
       lpeversion="1"
       satellites_param="F,0,0,1,0,4,0,1 @ F,0,0,1,0,4,0,1 @ F,0,0,1,0,4,0,1 @ F,0,0,1,0,4,0,1 @ F,0,0,1,0,4,0,1 @ F,0,0,1,0,4,0,1"
       unit="px"
       method="auto"
       mode="F"
       radius="4"
       chamfer_steps="1"
       flexible="false"
       use_knot_distance="true"
       apply_no_radius="true"
       apply_with_radius="true"
       only_selected="false"
       hide_knots="false"
       nodesatellites_param="F,0,0,1,0,4,0,1 @ F,0,0,1,0,4,0,1 @ F,0,0,1,0,4,0,1 @ F,0,0,1,0,4,0,1 @ F,0,0,1,0,4,0,1 @ F,0,0,1,0,4,0,1" /><inkscape:path-effect
       effect="fillet_chamfer"
       id="path-effect5099"
       is_visible="true"
       lpeversion="1"
       satellites_param="F,0,0,1,0,4,0,1 @ F,0,0,1,0,4,0,1 @ F,0,0,1,0,4,0,1 @ F,0,0,1,0,4,0,1 @ F,0,0,1,0,4,0,1 @ F,0,0,1,0,4,0,1"
       unit="px"
       method="auto"
       mode="F"
       radius="4"
       chamfer_steps="1"
       flexible="false"
       use_knot_distance="true"
       apply_no_radius="true"
       apply_with_radius="true"
       only_selected="false"
       hide_knots="false"
       nodesatellites_param="F,0,0,1,0,4,0,1 @ F,0,0,1,0,4,0,1 @ F,0,0,1,0,4,0,1 @ F,0,0,1,0,4,0,1 @ F,0,0,1,0,4,0,1 @ F,0,0,1,0,4,0,1" /><inkscape:path-effect
       effect="fillet_chamfer"
       id="path-effect5093"
       is_visible="true"
       lpeversion="1"
       satellites_param="F,0,0,1,0,4,0,1 @ F,0,0,1,0,4,0,1 @ F,0,0,1,0,4,0,1 @ F,0,0,1,0,4,0,1 @ F,0,0,1,0,4,0,1 @ F,0,0,1,0,4,0,1"
       unit="px"
       method="auto"
       mode="F"
       radius="4"
       chamfer_steps="1"
       flexible="false"
       use_knot_distance="true"
       apply_no_radius="true"
       apply_with_radius="true"
       only_selected="false"
       hide_knots="false"
       nodesatellites_param="F,0,0,1,0,4,0,1 @ F,0,0,1,0,4,0,1 @ F,0,0,1,0,4,0,1 @ F,0,0,1,0,4,0,1 @ F,0,0,1,0,4,0,1 @ F,0,0,1,0,4,0,1" /><inkscape:path-effect
       effect="fillet_chamfer"
       id="path-effect4663"
       is_visible="true"
       lpeversion="1"
       satellites_param="F,0,0,1,0,4,0,1 @ F,0,0,1,0,4,0,1 @ F,0,0,1,0,4,0,1 @ F,0,0,1,0,4,0,1 @ F,0,0,1,0,4,0,1 @ F,0,0,1,0,4,0,1"
       unit="px"
       method="auto"
       mode="F"
       radius="4"
       chamfer_steps="1"
       flexible="false"
       use_knot_distance="true"
       apply_no_radius="true"
       apply_with_radius="true"
       only_selected="false"
       hide_knots="false"
       nodesatellites_param="F,0,0,1,0,4,0,1 @ F,0,0,1,0,4,0,1 @ F,0,0,1,0,4,0,1 @ F,0,0,1,0,4,0,1 @ F,0,0,1,0,4,0,1 @ F,0,0,1,0,4,0,1" /><inkscape:path-effect
       effect="fillet_chamfer"
       id="path-effect4657"
       is_visible="true"
       lpeversion="1"
       satellites_param="F,0,0,1,0,4,0,1 @ F,0,0,1,0,4,0,1 @ F,0,0,1,0,4,0,1 @ F,0,0,1,0,4,0,1 @ F,0,0,1,0,4,0,1 @ F,0,0,1,0,4,0,1"
       unit="px"
       method="auto"
       mode="F"
       radius="4"
       chamfer_steps="1"
       flexible="false"
       use_knot_distance="true"
       apply_no_radius="true"
       apply_with_radius="true"
       only_selected="false"
       hide_knots="false"
       nodesatellites_param="F,0,0,1,0,4,0,1 @ F,0,0,1,0,4,0,1 @ F,0,0,1,0,4,0,1 @ F,0,0,1,0,4,0,1 @ F,0,0,1,0,4,0,1 @ F,0,0,1,0,4,0,1" /><inkscape:path-effect
       effect="fillet_chamfer"
       id="path-effect4651"
       is_visible="true"
       lpeversion="1"
       satellites_param="F,0,0,1,0,4,0,1 @ F,0,0,1,0,4,0,1 @ F,0,0,1,0,4,0,1 @ F,0,0,1,0,4,0,1 @ F,0,0,1,0,4,0,1 @ F,0,0,1,0,4,0,1"
       unit="px"
       method="auto"
       mode="F"
       radius="4"
       chamfer_steps="1"
       flexible="false"
       use_knot_distance="true"
       apply_no_radius="true"
       apply_with_radius="true"
       only_selected="false"
       hide_knots="false"
       nodesatellites_param="F,0,0,1,0,4,0,1 @ F,0,0,1,0,4,0,1 @ F,0,0,1,0,4,0,1 @ F,0,0,1,0,4,0,1 @ F,0,0,1,0,4,0,1 @ F,0,0,1,0,4,0,1" /><inkscape:path-effect
       effect="fillet_chamfer"
       id="path-effect4645"
       is_visible="true"
       lpeversion="1"
       satellites_param="F,0,0,1,0,4,0,1 @ F,0,0,1,0,4,0,1 @ F,0,0,1,0,4,0,1 @ F,0,0,1,0,4,0,1 @ F,0,0,1,0,4,0,1 @ F,0,0,1,0,4,0,1"
       unit="px"
       method="auto"
       mode="F"
       radius="4"
       chamfer_steps="1"
       flexible="false"
       use_knot_distance="true"
       apply_no_radius="true"
       apply_with_radius="true"
       only_selected="false"
       hide_knots="false"
       nodesatellites_param="F,0,0,1,0,4,0,1 @ F,0,0,1,0,4,0,1 @ F,0,0,1,0,4,0,1 @ F,0,0,1,0,4,0,1 @ F,0,0,1,0,4,0,1 @ F,0,0,1,0,4,0,1" /><inkscape:path-effect
       effect="fillet_chamfer"
       id="path-effect4639"
       is_visible="true"
       lpeversion="1"
       satellites_param="F,0,0,1,0,4,0,1 @ F,0,0,1,0,4,0,1 @ F,0,0,1,0,4,0,1 @ F,0,0,1,0,4,0,1 @ F,0,0,1,0,4,0,1 @ F,0,0,1,0,4,0,1"
       unit="px"
       method="auto"
       mode="F"
       radius="4"
       chamfer_steps="1"
       flexible="false"
       use_knot_distance="true"
       apply_no_radius="true"
       apply_with_radius="true"
       only_selected="false"
       hide_knots="false"
       nodesatellites_param="F,0,0,1,0,4,0,1 @ F,0,0,1,0,4,0,1 @ F,0,0,1,0,4,0,1 @ F,0,0,1,0,4,0,1 @ F,0,0,1,0,4,0,1 @ F,0,0,1,0,4,0,1" /><inkscape:path-effect
       effect="fillet_chamfer"
       id="path-effect4473"
       is_visible="true"
       lpeversion="1"
       satellites_param="F,0,0,1,0,4,0,1 @ F,0,0,1,0,4,0,1 @ F,0,0,1,0,4,0,1 @ F,0,0,1,0,4,0,1 @ F,0,0,1,0,4,0,1 @ F,0,0,1,0,4,0,1"
       unit="px"
       method="auto"
       mode="F"
       radius="4"
       chamfer_steps="1"
       flexible="false"
       use_knot_distance="true"
       apply_no_radius="true"
       apply_with_radius="true"
       only_selected="false"
       hide_knots="false"
       nodesatellites_param="F,0,0,1,0,4,0,1 @ F,0,0,1,0,4,0,1 @ F,0,0,1,0,4,0,1 @ F,0,0,1,0,4,0,1 @ F,0,0,1,0,4,0,1 @ F,0,0,1,0,4,0,1" /><inkscape:path-effect
       effect="fillet_chamfer"
       id="path-effect4467"
       is_visible="true"
       lpeversion="1"
       satellites_param="F,0,0,1,0,4,0,1 @ F,0,0,1,0,4,0,1 @ F,0,0,1,0,4,0,1 @ F,0,0,1,0,4,0,1 @ F,0,0,1,0,4,0,1 @ F,0,0,1,0,4,0,1"
       unit="px"
       method="auto"
       mode="F"
       radius="4"
       chamfer_steps="1"
       flexible="false"
       use_knot_distance="true"
       apply_no_radius="true"
       apply_with_radius="true"
       only_selected="false"
       hide_knots="false"
       nodesatellites_param="F,0,0,1,0,4,0,1 @ F,0,0,1,0,4,0,1 @ F,0,0,1,0,4,0,1 @ F,0,0,1,0,4,0,1 @ F,0,0,1,0,4,0,1 @ F,0,0,1,0,4,0,1" /><inkscape:path-effect
       effect="fillet_chamfer"
       id="path-effect4301"
       is_visible="true"
       lpeversion="1"
       satellites_param="F,0,0,1,0,8,0,1 @ F,0,0,1,0,8,0,1 @ F,0,0,1,0,8,0,1 @ F,0,0,1,0,8,0,1 @ F,0,0,1,0,8,0,1 @ F,0,0,1,0,8,0,1"
       unit="px"
       method="auto"
       mode="F"
       radius="8"
       chamfer_steps="1"
       flexible="false"
       use_knot_distance="true"
       apply_no_radius="true"
       apply_with_radius="true"
       only_selected="false"
       hide_knots="false"
       nodesatellites_param="F,0,0,1,0,8,0,1 @ F,0,0,1,0,8,0,1 @ F,0,0,1,0,8,0,1 @ F,0,0,1,0,8,0,1 @ F,0,0,1,0,8,0,1 @ F,0,0,1,0,8,0,1" /><inkscape:path-effect
       effect="fillet_chamfer"
       id="path-effect4259"
       is_visible="true"
       lpeversion="1"
       satellites_param="F,0,0,1,0,4,0,1 @ F,0,0,1,0,4,0,1 @ F,0,0,1,0,4,0,1 @ F,0,0,1,0,4,0,1 @ F,0,0,1,0,4,0,1 @ F,0,0,1,0,4,0,1"
       unit="px"
       method="auto"
       mode="F"
       radius="4"
       chamfer_steps="1"
       flexible="false"
       use_knot_distance="true"
       apply_no_radius="true"
       apply_with_radius="true"
       only_selected="false"
       hide_knots="false"
       nodesatellites_param="F,0,0,1,0,4,0,1 @ F,0,0,1,0,4,0,1 @ F,0,0,1,0,4,0,1 @ F,0,0,1,0,4,0,1 @ F,0,0,1,0,4,0,1 @ F,0,0,1,0,4,0,1" /><inkscape:path-effect
       effect="fillet_chamfer"
       id="path-effect1190"
       is_visible="true"
       lpeversion="1"
       satellites_param="F,0,0,1,0,0,0,1 @ F,0,0,1,0,0,0,1 @ F,0,0,1,0,0,0,1 @ F,0,0,1,0,0,0,1 @ F,0,0,1,0,0,0,1 @ F,0,0,1,0,0,0,1"
       unit="px"
       method="auto"
       mode="F"
       radius="0"
       chamfer_steps="1"
       flexible="false"
       use_knot_distance="true"
       apply_no_radius="true"
       apply_with_radius="true"
       only_selected="false"
       hide_knots="false"
       nodesatellites_param="F,0,0,1,0,0,0,1 @ F,0,0,1,0,0,0,1 @ F,0,0,1,0,0,0,1 @ F,0,0,1,0,0,0,1 @ F,0,0,1,0,0,0,1 @ F,0,0,1,0,0,0,1" /><linearGradient
       y2="236"
       x2="96"
       y1="236"
       x1="32"
       gradientTransform="translate(604.81684,170.58641)"
       gradientUnits="userSpaceOnUse"
       id="linearGradient1099"
       xlink:href="#linearGradient1036" /><linearGradient
       id="linearGradient1036"><stop
         id="stop1032"
         offset="0"
         style="stop-color:#d5d3cf;stop-opacity:1;" /><stop
         id="stop1034"
         offset="1"
         style="stop-color:#f6f5f4;stop-opacity:1" /></linearGradient><radialGradient
       r="32"
       fy="-76"
       fx="-244"
       cy="-76"
       cx="-244"
       gradientTransform="matrix(0.88333331,0,0,0.88333331,-460.35018,463.11973)"
       gradientUnits="userSpaceOnUse"
       id="radialGradient1103"
       xlink:href="#linearGradient1069" /><linearGradient
       id="linearGradient1069"><stop
         id="stop1065"
         offset="0"
         style="stop-color:#d5d3cf;stop-opacity:1" /><stop
         id="stop1067-1"
         offset="1"
         style="stop-color:#949390;stop-opacity:1" /></linearGradient><linearGradient
       gradientUnits="userSpaceOnUse"
       y2="232"
       x2="64"
       y1="262.5"
       x1="64"
       id="linearGradient1027"
       xlink:href="#linearGradient1025"
       gradientTransform="translate(-470.5864,432.81685)" /><linearGradient
       id="linearGradient1025"><stop
         id="stop1021"
         offset="0"
         style="stop-color:#9a9996;stop-opacity:1" /><stop
         id="stop1023"
         offset="1"
         style="stop-color:#77767b;stop-opacity:1" /></linearGradient><inkscape:path-effect
       effect="spiro"
       id="path-effect35304-9"
       is_visible="true" /><clipPath
       clipPathUnits="userSpaceOnUse"
       id="clipPath1609-7"><path
         sodipodi:nodetypes="cccccc"
         inkscape:connector-curvature="0"
         id="path1611-5"
         d="m 252,116 28,-28 v -8 h -36 v 36 z"
         style="fill:#e74747;stroke:none;stroke-width:0.25px;stroke-linecap:butt;stroke-linejoin:miter;stroke-opacity:1" /></clipPath><linearGradient
       id="a"
       gradientUnits="userSpaceOnUse"
       x1="0.47"
       x2="90.25"
       y1="75.129997"
       y2="28.5"
       gradientTransform="translate(146.67139,7.5980295)"><stop
         offset=".04"
         stop-color="#fc801d"
         id="stop489" /><stop
         offset=".38"
         stop-color="#fe2857"
         id="stop491" /><stop
         offset=".99"
         stop-color="#af1df5"
         id="stop493" /></linearGradient><linearGradient
       inkscape:collect="always"
       xlink:href="#linearGradient1300"
       id="linearGradient1302"
       x1="13.456302"
       y1="93.760956"
       x2="64.982658"
       y2="64.012199"
       gradientUnits="userSpaceOnUse" /><linearGradient
       inkscape:collect="always"
       xlink:href="#linearGradient5167"
       id="linearGradient5169"
       x1="91.850159"
       y1="19.744167"
       x2="38.453335"
       y2="50.572838"
       gradientUnits="userSpaceOnUse" /></defs><g
     inkscape:groupmode="layer"
     id="layer2"
     inkscape:label="Layer 1"><g
       id="g19669"><g
         id="g18968"><path
           id="path59534"
           style="fill:#333333;stroke-width:1.34"
           d="M 30.133454 45.154551 A 6.9282035 6.9282035 45 0 0 29.893973 45.730608 A 6.9282032 6.9282032 0 0 0 29.518577 46.63725 A 6.9282035 6.9282035 45 0 0 29.259447 48.201708 L 29.204832 72.692165 L 29.204889 78.423561 L 29.203698 81.452635 L 29.203827 81.460341 A 6.9282035 6.9282035 45 0 0 29.208005 81.479543 A 6.9282035 6.9282035 45 0 0 29.580145 83.587045 A 6.9282032 6.9282032 45 0 0 29.824934 84.175588 A 6.9282035 6.9282035 45 0 0 30.622659 85.556531 A 6.9282032 6.9282032 45 0 0 31.014864 86.066867 A 6.9282035 6.9282035 45 0 0 32.667431 87.452928 A 6.9282035 6.9282035 45 0 0 32.668575 87.453589 L 53.514403 99.488933 L 58.478022 102.35468 L 61.102925 103.87017 A 6.9282035 6.9282035 45 0 0 63.131862 104.60962 A 6.9282032 6.9282032 45 0 0 63.77354 104.69315 A 6.9282035 6.9282035 45 0 0 65.363578 104.69383 A 6.9282032 6.9282032 45 0 0 65.999938 104.60944 A 6.9282035 6.9282035 45 0 0 68.031198 103.8697 L 87.33396 92.725187 L 92.290784 89.86328 A 9.9264284 9.9264284 0 0 0 92.295056 89.861167 L 94.844072 88.388555 L 96.46484 87.453027 L 96.465501 87.451883 A 6.9282035 6.9282035 45 0 0 98.126841 86.05746 A 6.9282032 6.9282032 0 0 0 98.503338 85.566614 A 6.9282035 6.9282035 45 0 0 99.314947 84.160866 A 6.9282032 6.9282032 0 0 0 99.551784 83.589387 A 6.9282035 6.9282035 45 0 0 99.928719 81.453413 L 99.928861 60.948801 L 99.929771 55.221017 L 99.929817 48.619674 A 6.9282035 6.9282035 45 0 0 99.515657 46.265068 A 6.9282032 6.9282032 45 0 0 99.50382 46.235339 A 6.9282035 6.9282035 45 0 0 98.317246 44.179627 A 6.9282032 6.9282032 45 0 0 98.299638 44.157251 A 6.9282035 6.9282035 45 0 0 96.466084 42.619381 L 78.707637 32.366536 L 73.745163 29.50145 L 68.031735 26.202801 A 6.9282035 6.9282035 45 0 0 68.03059 26.20214 A 6.9282035 6.9282035 45 0 0 67.638024 25.993808 A 6.9282032 6.9282032 45 0 0 67.52971 25.943483 A 6.9282035 6.9282035 45 0 0 67.237303 25.81282 A 6.9282032 6.9282032 45 0 0 67.088698 25.752971 A 6.9282035 6.9282035 45 0 0 66.816978 25.652568 A 6.9282032 6.9282032 45 0 0 66.673082 25.603068 A 6.9282035 6.9282035 45 0 0 66.26732 25.486329 A 6.9282032 6.9282032 45 0 0 66.26208 25.48483 A 6.9282032 6.9282032 45 0 0 66.166263 25.463089 A 6.9282035 6.9282035 45 0 0 65.833587 25.391599 A 6.9282032 6.9282032 45 0 0 65.674667 25.365478 A 6.9282035 6.9282035 45 0 0 65.375141 25.323811 A 6.9282032 6.9282032 45 0 0 65.240438 25.308619 A 6.9282035 6.9282035 45 0 0 64.941478 25.287122 A 6.9282032 6.9282032 45 0 0 64.769693 25.277995 A 6.9282035 6.9282035 45 0 0 64.757892 25.277287 A 6.9282035 6.9282035 45 0 0 64.359314 25.277643 A 6.9282032 6.9282032 45 0 0 64.214342 25.285523 A 6.9282035 6.9282035 45 0 0 63.934879 25.304282 A 6.9282032 6.9282032 45 0 0 63.735737 25.326677 A 6.9282035 6.9282035 45 0 0 63.480136 25.362264 A 6.9282032 6.9282032 45 0 0 63.306049 25.391493 A 6.9282035 6.9282035 45 0 0 63.059558 25.443025 A 6.9282032 6.9282032 45 0 0 62.866222 25.487088 A 6.9282032 6.9282032 45 0 0 62.816808 25.501296 A 6.9282035 6.9282035 45 0 0 62.465494 25.602204 A 6.9282032 6.9282032 45 0 0 62.363361 25.636344 A 6.9282035 6.9282035 45 0 0 62.047405 25.750034 A 6.9282032 6.9282032 45 0 0 61.899245 25.811022 A 6.9282035 6.9282035 45 0 0 61.639523 25.925126 A 6.9282032 6.9282032 45 0 0 61.494444 25.993997 A 6.9282035 6.9282035 45 0 0 61.191067 26.154634 A 6.9282032 6.9282032 45 0 0 61.116456 26.19398 L 61.102317 26.202606 L 41.799555 37.347122 L 41.760927 37.369084 L 41.678078 37.41741 L 36.852101 40.240386 L 32.301141 42.901616 A 6.9282032 6.9282032 0 0 0 32.296869 42.903728 A 6.9282035 6.9282035 45 0 0 32.285681 42.912532 A 6.9282035 6.9282035 45 0 0 31.098529 43.895406 A 6.9282032 6.9282032 0 0 0 30.368137 44.845884 A 6.9282035 6.9282035 45 0 0 30.133454 45.154551 z M 30.06314 74.385877 A 9.9264277 9.9264277 0 0 0 29.422299 76.360328 A 9.9264277 9.9264277 0 0 1 29.421815 76.358522 A 9.9264277 9.9264277 0 0 1 30.06314 74.385877 z M 84.385503 90.709997 A 9.9264284 9.9264284 0 0 0 85.609446 91.038111 A 9.9264284 9.9264284 0 0 1 85.60764 91.038595 A 9.9264284 9.9264284 0 0 1 84.385503 90.709997 z "
           transform="matrix(0.73879081,1.2796232,-1.2796232,0.73879081,99.520445,-66.669234)" /><rect
           style="fill:#ea267f;fill-opacity:1;stroke:#000000;stroke-width:2;stroke-linecap:round;stroke-opacity:0"
           id="rect16064"
           width="16.724314"
           height="15.023262"
           x="54.841686"
           y="55.356789" /><path
           id="path463"
           style="fill:url(#linearGradient5169);stroke-width:1.97996"
           d="m 13.03517,35.180611 a 10.236986,10.236986 0 0 0 0.09967,0.129647 10.236986,10.236986 0 0 0 2.454762,2.060366 l 0.001,0.0017 2.394815,1.382317 3.76638,2.175906 a 14.667108,14.667108 0 0 0 0.0064,0.0032 l 7.324109,4.228698 28.521407,16.466931 a 10.236986,10.236986 0 0 0 3.001265,1.09287 10.236986,10.236986 0 0 0 0.940273,0.124695 10.236986,10.236986 0 0 0 2.349411,-10e-4 10.236986,10.236986 0 0 0 0.948131,-0.123412 10.236986,10.236986 0 0 0 2.997921,-1.092608 l 3.878507,-2.239257 7.334152,-4.234375 30.801407,-17.783204 a 10.236986,10.236986 0 0 1 0.002,-0.001 l 5.1082,-2.94922 a 10.236986,10.236986 0 0 0 -0.59961,-1.038554 10.236986,10.236986 0 0 0 -0.45762,-0.597305 10.236986,10.236986 0 0 0 -0.0987,-0.12796 10.236986,10.236986 0 0 0 -0.13573,-0.176485 10.236986,10.236986 0 0 0 -0.17312,-0.143617 10.236986,10.236986 0 0 0 -2.14591,-1.740274 l -1.44856,-0.837089 -0.0924,0.03529 -4.64139,-2.714908 -7.130767,-4.171181 -0.12242,-0.07141 -0.0571,-0.03245 -28.5214,-16.4669313 -0.0209,-0.01276 A 10.236986,10.236986 0 0 0 69.209106,6.2691017 10.236986,10.236986 0 0 0 68.760845,6.0317534 10.236986,10.236986 0 0 0 68.546474,5.9299843 10.236986,10.236986 0 0 0 68.162714,5.7613865 10.236986,10.236986 0 0 0 67.943797,5.6712725 10.236986,10.236986 0 0 0 67.476947,5.503292 10.236986,10.236986 0 0 0 67.326039,5.452848 10.236986,10.236986 0 0 0 66.80694,5.3037413 a 10.236986,10.236986 0 0 0 -0.07302,-0.021007 10.236986,10.236986 0 0 0 -0.285669,-0.065108 10.236986,10.236986 0 0 0 -0.364212,-0.076146 10.236986,10.236986 0 0 0 -0.257225,-0.04318 10.236986,10.236986 0 0 0 -0.377674,-0.05259 10.236986,10.236986 0 0 0 -0.294248,-0.03309 10.236986,10.236986 0 0 0 -0.412932,-0.02772 10.236986,10.236986 0 0 0 -0.214208,-0.01165 10.236986,10.236986 0 0 0 -0.58893,-5.25e-4 10.236986,10.236986 0 0 0 -0.01754,8.86e-4 10.236986,10.236986 0 0 0 -0.253824,0.01349 10.236986,10.236986 0 0 0 -0.441737,0.03177 10.236986,10.236986 0 0 0 -0.199046,0.02243 10.236986,10.236986 0 0 0 -0.442575,0.06156 10.236986,10.236986 0 0 0 -0.234825,0.03858 10.236986,10.236986 0 0 0 -0.491552,0.1056382 10.236986,10.236986 0 0 0 -0.141594,0.032097 10.236986,10.236986 0 0 0 -0.0078,0.00217 10.236986,10.236986 0 0 0 -0.599546,0.1724929 10.236986,10.236986 0 0 0 -0.212635,0.073112 10.236986,10.236986 0 0 0 -0.401504,0.1483239 10.236986,10.236986 0 0 0 -0.219575,0.088435 10.236986,10.236986 0 0 0 -0.432041,0.1930895 10.236986,10.236986 0 0 0 -0.160031,0.074381 10.236986,10.236986 0 0 0 -0.58003,0.30786 10.236986,10.236986 0 0 1 -0.0017,10e-4 l -8.442281,4.8740992 -7.33246,4.233398 -26.239555,15.149414 a 10.236986,10.236986 0 0 0 -2.709226,2.272327 10.236986,10.236986 0 0 0 -0.02772,0.03402 10.236986,10.236986 0 0 0 -1.315008,2.277028 z m 18.595132,7.488964 a 14.667108,14.667108 0 0 0 1.808476,-0.484816 14.667108,14.667108 0 0 1 -1.805808,0.485531 14.667108,14.667108 0 0 0 -0.0027,-7.32e-4 z" /><path
           id="path386"
           style="fill:#000000;stroke-width:1.97996;fill-opacity:1"
           d="M 114.30859 33.941406 A 10.236986 10.236986 0 0 0 114.14648 33.962891 A 10.236986 10.236986 0 0 0 111.13477 35.058594 L 111.13281 35.058594 L 108.73828 36.441406 L 104.9707 38.615234 A 14.667108 14.667108 0 0 0 104.96484 38.619141 L 97.640625 42.847656 L 69.119141 59.314453 A 10.236986 10.236986 0 0 0 66.671875 61.367188 A 10.236986 10.236986 0 0 0 66.09375 62.119141 A 10.236986 10.236986 0 0 0 64.919922 64.154297 A 10.236986 10.236986 0 0 0 64.552734 65.037109 A 10.236986 10.236986 0 0 0 64 68.179688 L 64 72.658203 L 64 81.126953 L 64 116.69336 A 10.236986 10.236986 0 0 1 64 116.69531 L 64 122.59375 A 10.236986 10.236986 0 0 0 65.199219 122.59375 A 10.236986 10.236986 0 0 0 65.945312 122.49609 A 10.236986 10.236986 0 0 0 66.105469 122.47461 A 10.236986 10.236986 0 0 0 66.326172 122.44531 A 10.236986 10.236986 0 0 0 66.537109 122.36719 A 10.236986 10.236986 0 0 0 69.117188 121.37891 L 70.566406 120.54297 L 70.582031 120.44531 L 75.253906 117.7832 L 82.431641 113.69336 L 82.554688 113.62305 L 82.611328 113.58984 L 111.13281 97.123047 L 111.1543 97.111328 A 10.236986 10.236986 0 0 0 111.25977 97.044922 A 10.236986 10.236986 0 0 0 111.68945 96.775391 A 10.236986 10.236986 0 0 0 111.88477 96.640625 A 10.236986 10.236986 0 0 0 112.22266 96.392578 A 10.236986 10.236986 0 0 0 112.41016 96.248047 A 10.236986 10.236986 0 0 0 112.78906 95.927734 A 10.236986 10.236986 0 0 0 112.9082 95.822266 A 10.236986 10.236986 0 0 0 113.29688 95.447266 A 10.236986 10.236986 0 0 0 113.35156 95.394531 A 10.236986 10.236986 0 0 0 113.55078 95.179688 A 10.236986 10.236986 0 0 0 113.79883 94.902344 A 10.236986 10.236986 0 0 0 113.96484 94.701172 A 10.236986 10.236986 0 0 0 114.19922 94.400391 A 10.236986 10.236986 0 0 0 114.375 94.162109 A 10.236986 10.236986 0 0 0 114.60547 93.818359 A 10.236986 10.236986 0 0 0 114.72266 93.638672 A 10.236986 10.236986 0 0 0 115.01758 93.128906 A 10.236986 10.236986 0 0 0 115.02539 93.113281 A 10.236986 10.236986 0 0 0 115.14062 92.886719 A 10.236986 10.236986 0 0 0 115.33398 92.488281 A 10.236986 10.236986 0 0 0 115.41406 92.304688 A 10.236986 10.236986 0 0 0 115.58203 91.890625 A 10.236986 10.236986 0 0 0 115.66602 91.667969 A 10.236986 10.236986 0 0 0 115.82031 91.189453 A 10.236986 10.236986 0 0 0 115.86328 91.050781 A 10.236986 10.236986 0 0 0 115.86523 91.042969 A 10.236986 10.236986 0 0 0 116.01562 90.4375 A 10.236986 10.236986 0 0 0 116.05859 90.216797 A 10.236986 10.236986 0 0 0 116.13086 89.794922 A 10.236986 10.236986 0 0 0 116.16406 89.560547 A 10.236986 10.236986 0 0 0 116.21289 89.089844 A 10.236986 10.236986 0 0 0 116.22852 88.914062 A 10.236986 10.236986 0 0 0 116.25195 88.257812 A 10.236986 10.236986 0 0 1 116.25195 88.255859 L 116.25195 78.507812 L 116.25195 70.041016 L 116.25195 39.742188 A 10.236986 10.236986 0 0 0 115.63867 36.259766 A 10.236986 10.236986 0 0 0 115.62305 36.21875 A 10.236986 10.236986 0 0 0 114.30859 33.941406 z M 98.525391 46.300781 A 14.667108 14.667108 0 0 0 98.041016 48.109375 A 14.667108 14.667108 0 0 1 98.523438 46.302734 A 14.667108 14.667108 0 0 0 98.525391 46.300781 z " /><path
           d="m 92.397271,91.223781 -19.61,11.279999 v -7.19 l 19.61,-11.28 z"
           fill="#ffffff"
           id="path498" /><path
           id="path381"
           style="fill:url(#linearGradient1302);stroke-width:1.97996"
           d="M 13.693359 33.941406 A 10.236986 10.236986 0 0 0 12.664062 35.724609 A 10.236986 10.236986 0 0 0 12.300781 36.603516 A 10.236986 10.236986 0 0 0 11.748047 39.742188 A 10.236986 10.236986 0 0 0 11.748047 39.744141 L 11.748047 75.310547 L 11.748047 83.779297 L 11.748047 88.257812 A 10.236986 10.236986 0 0 0 12.300781 91.400391 A 10.236986 10.236986 0 0 0 12.667969 92.283203 A 10.236986 10.236986 0 0 0 13.841797 94.318359 A 10.236986 10.236986 0 0 0 14.419922 95.070312 A 10.236986 10.236986 0 0 0 16.867188 97.123047 L 45.388672 113.58984 L 52.712891 117.81836 A 14.667108 14.667108 0 0 0 52.71875 117.82227 L 56.486328 119.99609 L 57.433594 120.54297 L 58.880859 121.37891 L 58.882812 121.37891 A 10.236986 10.236986 0 0 0 60.193359 121.97656 A 10.236986 10.236986 0 0 0 60.511719 122.0918 A 10.236986 10.236986 0 0 0 61.894531 122.47461 A 10.236986 10.236986 0 0 0 62.056641 122.49609 A 10.236986 10.236986 0 0 0 62.800781 122.59375 A 10.236986 10.236986 0 0 0 64 122.59375 L 64 116.69531 L 64 86.396484 L 64 77.929688 L 64 68.181641 A 10.236986 10.236986 0 0 0 64 68.179688 A 10.236986 10.236986 0 0 0 63.976562 67.523438 A 10.236986 10.236986 0 0 0 63.960938 67.347656 A 10.236986 10.236986 0 0 0 63.912109 66.876953 A 10.236986 10.236986 0 0 0 63.878906 66.642578 A 10.236986 10.236986 0 0 0 63.806641 66.220703 A 10.236986 10.236986 0 0 0 63.763672 66 A 10.236986 10.236986 0 0 0 63.613281 65.394531 A 10.236986 10.236986 0 0 0 63.611328 65.386719 A 10.236986 10.236986 0 0 0 63.568359 65.248047 A 10.236986 10.236986 0 0 0 63.414062 64.769531 A 10.236986 10.236986 0 0 0 63.330078 64.546875 A 10.236986 10.236986 0 0 0 63.162109 64.132812 A 10.236986 10.236986 0 0 0 63.082031 63.949219 A 10.236986 10.236986 0 0 0 62.888672 63.550781 A 10.236986 10.236986 0 0 0 62.773438 63.324219 A 10.236986 10.236986 0 0 0 62.765625 63.308594 A 10.236986 10.236986 0 0 0 62.470703 62.798828 A 10.236986 10.236986 0 0 0 62.353516 62.619141 A 10.236986 10.236986 0 0 0 62.123047 62.275391 A 10.236986 10.236986 0 0 0 61.947266 62.037109 A 10.236986 10.236986 0 0 0 61.712891 61.736328 A 10.236986 10.236986 0 0 0 61.546875 61.535156 A 10.236986 10.236986 0 0 0 61.298828 61.257812 A 10.236986 10.236986 0 0 0 61.099609 61.042969 A 10.236986 10.236986 0 0 0 61.044922 60.990234 A 10.236986 10.236986 0 0 0 60.65625 60.615234 A 10.236986 10.236986 0 0 0 60.537109 60.509766 A 10.236986 10.236986 0 0 0 60.158203 60.189453 A 10.236986 10.236986 0 0 0 59.970703 60.044922 A 10.236986 10.236986 0 0 0 59.632812 59.796875 A 10.236986 10.236986 0 0 0 59.4375 59.662109 A 10.236986 10.236986 0 0 0 59.007812 59.392578 A 10.236986 10.236986 0 0 0 58.902344 59.326172 L 58.880859 59.314453 L 30.359375 42.847656 L 30.302734 42.814453 L 30.179688 42.744141 L 23.001953 38.654297 L 16.234375 34.796875 A 10.236986 10.236986 0 0 0 16.228516 34.792969 A 10.236986 10.236986 0 0 0 16.208984 34.785156 A 10.236986 10.236986 0 0 0 14.074219 33.992188 A 10.236986 10.236986 0 0 0 13.693359 33.941406 z M 45.789062 108.32812 A 14.667108 14.667108 0 0 0 46.273438 110.13672 A 14.667108 14.667108 0 0 1 46.271484 110.13477 A 14.667108 14.667108 0 0 1 45.789062 108.32812 z " /><path
           id="path987"
           style="fill:#333333;fill-opacity:0.50082278;stroke-width:1.97996"
           d="m 63.999441,122.75085 a 10.236986,10.236986 0 0 1 -5.117187,-1.3711 L 16.86663,97.121938 a 10.236986,10.236986 0 0 1 -5.11914,-8.865235 v -6 a 10.236986,10.236986 0 0 0 5.11914,8.865235 l 42.015624,24.257812 a 10.236986,10.236986 0 0 0 10.236328,0 L 111.13226,91.121938 a 10.236986,10.236986 0 0 0 5.11914,-8.865235 v 6 a 10.236986,10.236986 0 0 1 -5.11914,8.865235 L 69.118582,121.37975 a 10.236986,10.236986 0 0 1 -5.119141,1.3711 z" /></g></g></g></svg>
