<?xml version="1.0" encoding="UTF-8" standalone="no"?>
<!-- Created with Inkscape (http://www.inkscape.org/) -->

<svg
   width="128"
   height="128"
   viewBox="0 0 128 128"
   version="1.1"
   id="svg5"
   inkscape:version="1.2.2 (b0a8486541, 2022-12-01)"
   sodipodi:docname="com.slack.Slack.svg"
   inkscape:export-filename="/home/retro/.icons/skeuowaita/scalable/apps/skeuowaita.png"
   inkscape:export-xdpi="1536"
   inkscape:export-ydpi="1536"
   xml:space="preserve"
   xmlns:inkscape="http://www.inkscape.org/namespaces/inkscape"
   xmlns:sodipodi="http://sodipodi.sourceforge.net/DTD/sodipodi-0.dtd"
   xmlns:xlink="http://www.w3.org/1999/xlink"
   xmlns="http://www.w3.org/2000/svg"
   xmlns:svg="http://www.w3.org/2000/svg"><sodipodi:namedview
     id="namedview7"
     pagecolor="#ffffff"
     bordercolor="#666666"
     borderopacity="1"
     inkscape:pageshadow="2"
     inkscape:pageopacity="0.0"
     inkscape:pagecheckerboard="true"
     inkscape:document-units="px"
     showgrid="false"
     inkscape:showpageshadow="false"
     showborder="true"
     inkscape:snap-page="true"
     inkscape:zoom="2.0410197"
     inkscape:cx="164.13365"
     inkscape:cy="90.151017"
     inkscape:window-width="1366"
     inkscape:window-height="731"
     inkscape:window-x="0"
     inkscape:window-y="0"
     inkscape:window-maximized="1"
     inkscape:current-layer="layer2"
     inkscape:snap-bbox="true"
     inkscape:snap-bbox-midpoints="true"
     inkscape:snap-bbox-edge-midpoints="true"
     inkscape:bbox-nodes="true"
     inkscape:bbox-paths="true"
     inkscape:snap-intersection-paths="true"
     inkscape:object-paths="true"
     inkscape:snap-smooth-nodes="true"
     inkscape:snap-midpoints="true"
     inkscape:deskcolor="#d1d1d1" /><defs
     id="defs2"><linearGradient
       inkscape:collect="always"
       id="linearGradient1668"><stop
         style="stop-color:#ffffff;stop-opacity:1;"
         offset="0"
         id="stop1664" /><stop
         style="stop-color:#ededed;stop-opacity:1;"
         offset="1"
         id="stop1666" /></linearGradient><linearGradient
       inkscape:collect="always"
       id="linearGradient1522"><stop
         style="stop-color:#a5a5a5;stop-opacity:1;"
         offset="0"
         id="stop1518" /><stop
         style="stop-color:#a5a5a5;stop-opacity:1;"
         offset="0.40000001"
         id="stop1617" /><stop
         style="stop-color:#c2c2c2;stop-opacity:1;"
         offset="0.5"
         id="stop1613" /><stop
         style="stop-color:#a5a5a5;stop-opacity:1;"
         offset="0.60000002"
         id="stop1615" /><stop
         style="stop-color:#a5a5a5;stop-opacity:1;"
         offset="1"
         id="stop1520" /></linearGradient><linearGradient
       y2="236"
       x2="96"
       y1="236"
       x1="32"
       gradientTransform="translate(604.81684,170.58641)"
       gradientUnits="userSpaceOnUse"
       id="linearGradient1099"
       xlink:href="#linearGradient1036" /><linearGradient
       id="linearGradient1036"><stop
         id="stop1032"
         offset="0"
         style="stop-color:#d5d3cf;stop-opacity:1;" /><stop
         id="stop1034"
         offset="1"
         style="stop-color:#f6f5f4;stop-opacity:1" /></linearGradient><radialGradient
       r="32"
       fy="-76"
       fx="-244"
       cy="-76"
       cx="-244"
       gradientTransform="matrix(0.88333331,0,0,0.88333331,-460.35018,463.11973)"
       gradientUnits="userSpaceOnUse"
       id="radialGradient1103"
       xlink:href="#linearGradient1069" /><linearGradient
       id="linearGradient1069"><stop
         id="stop1065"
         offset="0"
         style="stop-color:#d5d3cf;stop-opacity:1" /><stop
         id="stop1067-1"
         offset="1"
         style="stop-color:#949390;stop-opacity:1" /></linearGradient><linearGradient
       gradientUnits="userSpaceOnUse"
       y2="232"
       x2="64"
       y1="262.5"
       x1="64"
       id="linearGradient1027"
       xlink:href="#linearGradient1025"
       gradientTransform="translate(-470.5864,432.81685)" /><linearGradient
       id="linearGradient1025"><stop
         id="stop1021"
         offset="0"
         style="stop-color:#9a9996;stop-opacity:1" /><stop
         id="stop1023"
         offset="1"
         style="stop-color:#77767b;stop-opacity:1" /></linearGradient><inkscape:path-effect
       effect="spiro"
       id="path-effect35304-9"
       is_visible="true" /><clipPath
       clipPathUnits="userSpaceOnUse"
       id="clipPath1609-7"><path
         sodipodi:nodetypes="cccccc"
         inkscape:connector-curvature="0"
         id="path1611-5"
         d="m 252,116 28,-28 v -8 h -36 v 36 z"
         style="fill:#e74747;stroke:none;stroke-width:0.25px;stroke-linecap:butt;stroke-linejoin:miter;stroke-opacity:1" /></clipPath><radialGradient
       r="32"
       fy="-76"
       fx="-244"
       cy="-76"
       cx="-244"
       gradientTransform="matrix(0.88333331,0,0,0.88333331,-460.35018,463.11973)"
       gradientUnits="userSpaceOnUse"
       id="radialGradient1103-5"
       xlink:href="#linearGradient1069" /><inkscape:path-effect
       effect="spiro"
       id="path-effect35304-9-2"
       is_visible="true" /><clipPath
       clipPathUnits="userSpaceOnUse"
       id="clipPath1609-7-7"><path
         sodipodi:nodetypes="cccccc"
         inkscape:connector-curvature="0"
         id="path1611-5-0"
         d="m 252,116 28,-28 v -8 h -36 v 36 z"
         style="fill:#e74747;stroke:none;stroke-width:0.25px;stroke-linecap:butt;stroke-linejoin:miter;stroke-opacity:1" /></clipPath><clipPath
       clipPathUnits="userSpaceOnUse"
       id="clipPath744"><rect
         style="fill:#1e88e5;fill-opacity:1;stroke-width:0.264583"
         id="rect746"
         width="541.86664"
         height="541.86664"
         x="0"
         y="1.5987212e-14"
         rx="79.375"
         ry="79.375" /></clipPath><clipPath
       clipPathUnits="userSpaceOnUse"
       id="clipPath62"><rect
         style="fill:#1e88e5;fill-opacity:1;stroke-width:0.264583"
         id="rect64"
         width="541.86664"
         height="541.86664"
         x="2.2507105e-05"
         y="-0.42205024"
         rx="79.375"
         ry="79.375" /></clipPath><radialGradient
       r="32"
       fy="-76"
       fx="-244"
       cy="-76"
       cx="-244"
       gradientTransform="matrix(0.88333331,0,0,0.88333331,-460.35018,463.11973)"
       gradientUnits="userSpaceOnUse"
       id="radialGradient1103-6"
       xlink:href="#linearGradient1069" /><inkscape:path-effect
       effect="spiro"
       id="path-effect35304-9-20"
       is_visible="true" /><clipPath
       clipPathUnits="userSpaceOnUse"
       id="clipPath1609-7-2"><path
         sodipodi:nodetypes="cccccc"
         inkscape:connector-curvature="0"
         id="path1611-5-3"
         d="m 252,116 28,-28 v -8 h -36 v 36 z"
         style="fill:#e74747;stroke:none;stroke-width:0.25px;stroke-linecap:butt;stroke-linejoin:miter;stroke-opacity:1" /></clipPath><clipPath
       clipPathUnits="userSpaceOnUse"
       id="clipPath961"><rect
         style="fill:#00c853;stroke:none;stroke-width:0.529037"
         id="rect963"
         width="541.86664"
         height="541.86664"
         x="1.4210855e-14"
         y="2.717972e-05"
         rx="79.375"
         ry="79.375" /></clipPath><radialGradient
       r="32"
       fy="-76"
       fx="-244"
       cy="-76"
       cx="-244"
       gradientTransform="matrix(0.88333331,0,0,0.88333331,-460.35018,463.11973)"
       gradientUnits="userSpaceOnUse"
       id="radialGradient1103-56"
       xlink:href="#linearGradient1069" /><inkscape:path-effect
       effect="spiro"
       id="path-effect35304-9-7"
       is_visible="true" /><clipPath
       clipPathUnits="userSpaceOnUse"
       id="clipPath1440"><circle
         style="display:inline;opacity:1;vector-effect:none;fill:none;fill-opacity:1;stroke:#000000;stroke-width:2;stroke-linecap:butt;stroke-linejoin:miter;stroke-miterlimit:4;stroke-dasharray:none;stroke-dashoffset:0;stroke-opacity:1;marker:none;marker-start:none;marker-mid:none;marker-end:none;paint-order:normal;enable-background:new"
         id="circle1442"
         cx="-134.35028"
         cy="193.74727"
         r="24"
         transform="rotate(-45)" /></clipPath><clipPath
       clipPathUnits="userSpaceOnUse"
       id="clipPath1430"><circle
         style="display:inline;opacity:1;vector-effect:none;fill:none;fill-opacity:1;stroke:#000000;stroke-width:2;stroke-linecap:butt;stroke-linejoin:miter;stroke-miterlimit:4;stroke-dasharray:none;stroke-dashoffset:0;stroke-opacity:1;marker:none;marker-start:none;marker-mid:none;marker-end:none;paint-order:normal;enable-background:new"
         id="circle1432"
         cx="12"
         cy="232"
         r="24" /></clipPath><clipPath
       clipPathUnits="userSpaceOnUse"
       id="clipPath1440-9"><circle
         style="display:inline;opacity:1;vector-effect:none;fill:none;fill-opacity:1;stroke:#000000;stroke-width:2;stroke-linecap:butt;stroke-linejoin:miter;stroke-miterlimit:4;stroke-dasharray:none;stroke-dashoffset:0;stroke-opacity:1;marker:none;marker-start:none;marker-mid:none;marker-end:none;paint-order:normal;enable-background:new"
         id="circle1442-5"
         cx="-134.35028"
         cy="193.74727"
         r="24"
         transform="rotate(-45)" /></clipPath><clipPath
       clipPathUnits="userSpaceOnUse"
       id="clipPath1430-1"><circle
         style="display:inline;opacity:1;vector-effect:none;fill:none;fill-opacity:1;stroke:#000000;stroke-width:2;stroke-linecap:butt;stroke-linejoin:miter;stroke-miterlimit:4;stroke-dasharray:none;stroke-dashoffset:0;stroke-opacity:1;marker:none;marker-start:none;marker-mid:none;marker-end:none;paint-order:normal;enable-background:new"
         id="circle1432-8"
         cx="12"
         cy="232"
         r="24" /></clipPath><clipPath
       clipPathUnits="userSpaceOnUse"
       id="clipPath2024"><rect
         style="opacity:1;vector-effect:none;fill:#63452c;fill-opacity:1;stroke:none;stroke-width:4;stroke-linecap:round;stroke-linejoin:round;stroke-miterlimit:4;stroke-dasharray:none;stroke-dashoffset:0;stroke-opacity:1"
         id="rect2026"
         width="74"
         height="98"
         x="6"
         y="196" /></clipPath><linearGradient
       id="linearGradient914"
       inkscape:collect="always"><stop
         id="stop910"
         offset="0"
         style="stop-color:#f6f5f4;stop-opacity:0.43700787" /><stop
         id="stop912"
         offset="1"
         style="stop-color:#deddda;stop-opacity:0;" /></linearGradient><radialGradient
       gradientTransform="matrix(2.6086955,0,0,1.8410361,-102.95652,-748.94671)"
       gradientUnits="userSpaceOnUse"
       r="46"
       fy="296"
       fx="64.000008"
       cy="296"
       cx="64.000008"
       id="radialGradient916"
       xlink:href="#linearGradient914"
       inkscape:collect="always" /><clipPath
       clipPathUnits="userSpaceOnUse"
       id="clipPath11543"><rect
         style="fill:#f0c04e;fill-opacity:1;stroke:none;stroke-width:0.529037"
         id="rect11545"
         width="541.86664"
         height="541.86664"
         x="1.4746095e-06"
         y="6.4330168e-05"
         rx="79.375"
         ry="79.375" /></clipPath><style
       id="style374">.cls-1{fill:url(#linear-gradient);}.cls-2{opacity:0.35;fill:url(#radial-gradient);}.cls-2,.cls-4{isolation:isolate;}.cls-3{fill:url(#linear-gradient-2);}.cls-4{opacity:0.41;fill:url(#radial-gradient-2);}.cls-5{fill:url(#radial-gradient-3);}.cls-6{fill:url(#radial-gradient-4);}</style><linearGradient
       id="linear-gradient"
       x1="63.33"
       y1="84.03"
       x2="241.67"
       y2="84.03"
       gradientTransform="matrix(1,0,0,-1,0,266)"
       gradientUnits="userSpaceOnUse"><stop
         offset="0"
         stop-color="#0c59a4"
         id="stop376" /><stop
         offset="1"
         stop-color="#114a8b"
         id="stop378" /></linearGradient><radialGradient
       id="radial-gradient"
       cx="161.83"
       cy="68.91"
       r="95.38"
       gradientTransform="matrix(1,0,0,-0.95,0,248.84)"
       gradientUnits="userSpaceOnUse"><stop
         offset="0.72"
         stop-opacity="0"
         id="stop381" /><stop
         offset="0.95"
         stop-opacity="0.53"
         id="stop383" /><stop
         offset="1"
         id="stop385" /></radialGradient><linearGradient
       id="linear-gradient-2"
       x1="157.35"
       y1="161.39"
       x2="45.96"
       y2="40.06"
       gradientTransform="matrix(1,0,0,-1,0,266)"
       gradientUnits="userSpaceOnUse"><stop
         offset="0"
         stop-color="#1b9de2"
         id="stop388" /><stop
         offset="0.16"
         stop-color="#1595df"
         id="stop390" /><stop
         offset="0.67"
         stop-color="#0680d7"
         id="stop392" /><stop
         offset="1"
         stop-color="#0078d4"
         id="stop394" /></linearGradient><radialGradient
       id="radial-gradient-2"
       cx="-340.29"
       cy="62.99"
       r="143.24"
       gradientTransform="matrix(0.15,-0.99,-0.8,-0.12,176.64,-125.4)"
       gradientUnits="userSpaceOnUse"><stop
         offset="0.76"
         stop-opacity="0"
         id="stop397" /><stop
         offset="0.95"
         stop-opacity="0.5"
         id="stop399" /><stop
         offset="1"
         id="stop401" /></radialGradient><radialGradient
       id="radial-gradient-3"
       cx="113.37"
       cy="570.21"
       r="202.43"
       gradientTransform="matrix(-0.04,1,2.13,0.08,-1179.54,-106.69)"
       gradientUnits="userSpaceOnUse"><stop
         offset="0"
         stop-color="#35c1f1"
         id="stop404" /><stop
         offset="0.11"
         stop-color="#34c1ed"
         id="stop406" /><stop
         offset="0.23"
         stop-color="#2fc2df"
         id="stop408" /><stop
         offset="0.31"
         stop-color="#2bc3d2"
         id="stop410" /><stop
         offset="0.67"
         stop-color="#36c752"
         id="stop412" /></radialGradient><radialGradient
       id="radial-gradient-4"
       cx="376.52"
       cy="567.97"
       r="97.34"
       gradientTransform="matrix(0.28,0.96,0.78,-0.23,-303.76,-148.5)"
       gradientUnits="userSpaceOnUse"><stop
         offset="0"
         stop-color="#66eb6e"
         id="stop415" /><stop
         offset="1"
         stop-color="#66eb6e"
         stop-opacity="0"
         id="stop417" /></radialGradient><clipPath
       clipPathUnits="userSpaceOnUse"
       id="clipPath1260"><rect
         style="fill:#bbdefb;fill-opacity:1;stroke:none;stroke-width:0.529037"
         id="rect1262"
         width="541.86664"
         height="541.86664"
         x="2.9492187e-06"
         y="3.9968629e-05"
         rx="79.375"
         ry="79.375" /></clipPath><clipPath
       clipPathUnits="userSpaceOnUse"
       id="clipPath16285"><rect
         style="fill:#bbdefb;fill-opacity:1;stroke:none;stroke-width:0.529037"
         id="rect16287"
         width="541.86664"
         height="541.86664"
         x="0"
         y="6.4807005e-05"
         rx="79.375"
         ry="79.375" /></clipPath><clipPath
       clipPathUnits="userSpaceOnUse"
       id="clipPath990"><rect
         style="fill:#bbdefb;fill-opacity:1;stroke:none;stroke-width:0.529037"
         id="rect992"
         width="487.67996"
         height="487.67996"
         x="27.093349"
         y="27.093338"
         rx="71.4375"
         ry="71.4375" /></clipPath><linearGradient
       inkscape:collect="always"
       xlink:href="#linearGradient1522"
       id="linearGradient1524"
       x1="9"
       y1="64"
       x2="119"
       y2="64"
       gradientUnits="userSpaceOnUse" /><linearGradient
       inkscape:collect="always"
       xlink:href="#linearGradient1668"
       id="linearGradient1670"
       x1="64.502502"
       y1="5.0022955"
       x2="64.502502"
       y2="114.77119"
       gradientUnits="userSpaceOnUse" /></defs><g
     inkscape:groupmode="layer"
     id="layer2"
     inkscape:label="Layer 1"><path
       id="circle372"
       style="fill:url(#linearGradient1524);fill-opacity:1;stroke-width:1"
       d="M 64,5 A 55,55 0 0 0 9,60 v 8 a 55,55 0 0 0 55,55 55,55 0 0 0 55,-55 V 60 A 55,55 0 0 0 64,5 Z" /><circle
       style="fill:url(#linearGradient1670);fill-opacity:1;stroke-width:1"
       id="path953"
       cx="64"
       cy="60"
       r="55"
       inkscape:export-filename="/home/retro/.icons/skeuowaita/scalable/apps/skeuwaita.png"
       inkscape:export-xdpi="1536"
       inkscape:export-ydpi="1536" /><g
       id="g465"
       transform="translate(0,2)"><path
         id="path2951"
         style="fill:#bdbdbd;fill-opacity:1;stroke-width:0.647609"
         d="m 53.28125,21.324559 c -4.727542,0 -8.546875,3.821286 -8.546875,8.548828 0,0.338973 0.02429,0.671425 0.0625,1 -0.03821,0.328576 -0.0625,0.661028 -0.0625,1 0,4.727544 3.819333,8.548828 8.546875,8.548828 h 8.548828 v -2 -6.548828 -2 c 0,-4.727542 -3.821285,-8.548828 -8.548828,-8.548828 z M 31.845703,42.760106 c -4.727542,0 -8.548828,3.821286 -8.548828,8.548828 0,0.338972 0.02624,0.671425 0.06445,1 -0.03821,0.328576 -0.06445,0.661028 -0.06445,1 0,4.727543 3.821286,8.548828 8.548828,8.548828 H 53.28125 c 4.727543,0 8.548828,-3.821285 8.548828,-8.548828 0,-0.338957 -0.02429,-0.671438 -0.0625,-1 0.03821,-0.328562 0.0625,-0.661042 0.0625,-1 0,-4.727542 -3.821285,-8.548828 -8.548828,-8.548828 z" /><path
         id="path1910"
         style="fill:#bdbdbd;fill-opacity:1;stroke-width:0.647609"
         d="m 74.71875,64.195653 c -4.727543,0 -8.548828,3.821285 -8.548828,8.548828 0,0.338958 0.02429,0.671438 0.0625,1 -0.03821,0.328562 -0.0625,0.661042 -0.0625,1 0,4.727542 3.821285,8.548828 8.548828,8.548828 h 21.435547 c 4.727543,0 8.548823,-3.821286 8.548823,-8.548828 0,-0.338972 -0.0262,-0.671424 -0.0644,-1 0.0382,-0.328576 0.0644,-0.661028 0.0644,-1 0,-4.727543 -3.82128,-8.548828 -8.548823,-8.548828 z m -8.548828,21.371094 v 2 6.548828 1.999996 c 0,4.727539 3.821285,8.548829 8.548828,8.548829 4.727542,0 8.546875,-3.82129 8.546875,-8.548829 0,-0.338968 -0.02429,-0.671421 -0.0625,-0.999996 0.03821,-0.328576 0.0625,-0.661028 0.0625,-1 0,-4.727543 -3.819333,-8.548828 -8.546875,-8.548828 z" /><path
         id="path2809"
         style="fill:#bdbdbd;fill-opacity:1;stroke-width:0.647609"
         d="m 31.796732,64.206691 c -4.727542,0 -8.546875,3.821285 -8.546875,8.548828 0,0.338972 0.02429,0.671424 0.0625,1 -0.03821,0.328576 -0.0625,0.661028 -0.0625,1 0,4.727542 3.819333,8.548828 8.546875,8.548828 4.727543,0 8.548828,-3.821286 8.548828,-8.548828 v -2 -6.548828 -2 z m 21.371094,0 c -4.727542,0 -8.546875,3.821285 -8.546875,8.548828 v 2 19.371094 1.999998 c 0,4.727539 3.819333,8.548829 8.546875,8.548829 4.727543,0 8.548828,-3.82129 8.548828,-8.548829 v -1.999998 -19.371094 -2 c 0,-4.727543 -3.821285,-8.548828 -8.548828,-8.548828 z" /><path
         id="path2811"
         style="fill:#bdbdbd;fill-opacity:1;stroke-width:0.647609"
         d="m 74.71875,21.324559 c -4.727543,0 -8.548828,3.821286 -8.548828,8.548828 v 2 19.435547 2 c 0,4.727543 3.821285,8.548828 8.548828,8.548828 4.727542,0 8.546875,-3.821285 8.546875,-8.548828 v -2 -19.435547 -2 c 0,-4.727542 -3.819333,-8.548828 -8.546875,-8.548828 z m 21.371094,21.435547 c -4.727544,0 -8.548828,3.821286 -8.548828,8.548828 v 2 6.548828 2 h 8.548828 c 4.727536,0 8.546876,-3.821285 8.546876,-8.548828 0,-0.338972 -0.0243,-0.671424 -0.0625,-1 0.0382,-0.328575 0.0625,-0.661028 0.0625,-1 0,-4.727542 -3.81934,-8.548828 -8.546876,-8.548828 z" /></g><text
       xml:space="preserve"
       style="font-style:normal;font-variant:normal;font-weight:normal;font-stretch:normal;font-size:40px;line-height:1.25;font-family:'DejaVu Math TeX Gyre';-inkscape-font-specification:'DejaVu Math TeX Gyre';fill:#000000;fill-opacity:1;stroke:none"
       x="57.326862"
       y="68.239342"
       id="text3441"><tspan
         sodipodi:role="line"
         id="tspan3439"
         x="57.326862"
         y="68.239342" /></text><text
       xml:space="preserve"
       style="font-size:40px;line-height:1.25;font-family:Caladea;-inkscape-font-specification:Caladea"
       x="43.192081"
       y="68.806938"
       id="text13903"><tspan
         sodipodi:role="line"
         id="tspan13901"
         x="43.192081"
         y="68.806938" /></text><circle
       style="fill:#e6e6e6;fill-opacity:1;stroke-width:0.949152"
       id="circle1662"
       cx="64"
       cy="60"
       r="52.203354"
       inkscape:export-filename="/home/retro/.icons/skeuowaita/scalable/apps/skeuwaita.png"
       inkscape:export-xdpi="1536"
       inkscape:export-ydpi="1536" /><path
       id="path2171"
       style="fill:#b3b3b3;fill-opacity:1;stroke-width:0.647609"
       d="m 31.820228,66.206691 c -4.727542,0 -8.546875,3.821285 -8.546875,8.548828 0,0.338972 0.02429,0.671424 0.0625,1 -0.03821,0.328576 -0.0625,0.661028 -0.0625,1 0,4.727542 3.819333,8.548828 8.546875,8.548828 4.727543,0 8.548828,-3.821286 8.548828,-8.548828 v -2 -6.548828 -2 z m 21.371094,0 c -4.727542,0 -8.546875,3.821285 -8.546875,8.548828 v 2 19.371094 2 c 0,4.727537 3.819333,8.548827 8.546875,8.548827 4.727543,0 8.548828,-3.82129 8.548828,-8.548827 v -2 -19.371094 -2 c 0,-4.727543 -3.821285,-8.548828 -8.548828,-8.548828 z" /><path
       id="path399"
       style="fill:#93143b;fill-opacity:1;stroke-width:0.647609"
       d="m 31.820228,62.206691 c -4.727542,0 -8.546875,3.821285 -8.546875,8.548828 0,0.338972 0.02429,0.671424 0.0625,1 -0.03821,0.328576 -0.0625,0.661028 -0.0625,1 0,4.727542 3.819333,8.548828 8.546875,8.548828 4.727543,0 8.548828,-3.821286 8.548828,-8.548828 v -2 -6.548828 -2 z m 21.371094,0 c -4.727542,0 -8.546875,3.821285 -8.546875,8.548828 v 2 19.371094 2 c 0,4.727538 3.819333,8.548827 8.546875,8.548827 4.727543,0 8.548828,-3.821289 8.548828,-8.548827 v -2 -19.371094 -2 c 0,-4.727543 -3.821285,-8.548828 -8.548828,-8.548828 z" /><path
       id="path2173"
       style="fill:#b3b3b3;fill-opacity:1;stroke-width:0.647609"
       d="m 53.304746,23.324559 c -4.727542,0 -8.546875,3.821286 -8.546875,8.548828 0,0.338973 0.02429,0.671425 0.0625,1 -0.03821,0.328576 -0.0625,0.661029 -0.0625,1 0,4.727545 3.819333,8.548828 8.546875,8.548828 h 8.548828 v -2 -6.548828 -2 c 0,-4.727542 -3.821285,-8.548828 -8.548828,-8.548828 z M 31.869199,44.760106 c -4.727542,0 -8.548828,3.821286 -8.548828,8.548828 0,0.338972 0.02624,0.671425 0.06445,1 -0.03821,0.328576 -0.06445,0.661028 -0.06445,1 0,4.727543 3.821286,8.548828 8.548828,8.548828 h 21.435547 c 4.727543,0 8.548828,-3.821285 8.548828,-8.548828 0,-0.338957 -0.02429,-0.671438 -0.0625,-1 0.03821,-0.328561 0.0625,-0.661042 0.0625,-1 0,-4.727542 -3.821285,-8.548828 -8.548828,-8.548828 z" /><path
       id="path401"
       style="fill:#1d6b82;fill-opacity:1;stroke-width:0.647609"
       d="m 53.304746,19.324559 c -4.727542,0 -8.546875,3.821286 -8.546875,8.548828 0,0.338973 0.02429,0.671425 0.0625,1 -0.03821,0.328576 -0.0625,0.661029 -0.0625,1 0,4.727545 3.819333,8.548828 8.546875,8.548828 h 8.548828 v -2 -6.548828 -2 c 0,-4.727542 -3.821285,-8.548828 -8.548828,-8.548828 z M 31.869199,40.760106 c -4.727542,0 -8.548828,3.821286 -8.548828,8.548828 0,0.338972 0.02624,0.671425 0.06445,1 -0.03821,0.328576 -0.06445,0.661028 -0.06445,1 0,4.727543 3.821286,8.548828 8.548828,8.548828 h 21.435547 c 4.727543,0 8.548828,-3.821285 8.548828,-8.548828 0,-0.338957 -0.02429,-0.671438 -0.0625,-1 0.03821,-0.328561 0.0625,-0.661042 0.0625,-1 0,-4.727542 -3.821285,-8.548828 -8.548828,-8.548828 z" /><path
       id="path2098"
       style="fill:#b3b3b3;fill-opacity:1;stroke-width:0.647609"
       d="m 74.742246,23.324559 c -4.727543,0 -8.548828,3.821286 -8.548828,8.548828 v 2 19.435547 2 c 0,4.727543 3.821285,8.548828 8.548828,8.548828 4.727542,0 8.546875,-3.821285 8.546875,-8.548828 v -2 -19.435547 -2 c 0,-4.727542 -3.819333,-8.548828 -8.546875,-8.548828 z M 96.11334,44.760106 c -4.727544,0 -8.548828,3.821286 -8.548828,8.548828 v 2 6.548828 2 h 8.548828 c 4.72754,0 8.54688,-3.821285 8.54688,-8.548828 0,-0.338972 -0.0243,-0.671424 -0.0625,-1 0.0382,-0.328575 0.0625,-0.661028 0.0625,-1 0,-4.727542 -3.81934,-8.548828 -8.54688,-8.548828 z" /><path
       id="path403"
       style="fill:#1b6b49;fill-opacity:1;stroke-width:0.647609"
       d="m 74.742246,19.324559 c -4.727543,0 -8.548828,3.821286 -8.548828,8.548828 v 2 19.435547 2 c 0,4.727543 3.821285,8.548828 8.548828,8.548828 4.727542,0 8.546875,-3.821285 8.546875,-8.548828 v -2 -19.435547 -2 c 0,-4.727542 -3.819333,-8.548828 -8.546875,-8.548828 z M 96.11334,40.760106 c -4.727544,0 -8.548828,3.821286 -8.548828,8.548828 v 2 6.548828 2 h 8.548828 c 4.72754,0 8.54688,-3.821285 8.54688,-8.548828 0,-0.338972 -0.0243,-0.671424 -0.0625,-1 0.0382,-0.328575 0.0625,-0.661028 0.0625,-1 0,-4.727542 -3.81934,-8.548828 -8.54688,-8.548828 z" /><path
       id="path2100"
       style="fill:#b3b3b3;fill-opacity:1;stroke-width:0.647609"
       d="m 74.742246,66.195653 c -4.727543,0 -8.548828,3.821285 -8.548828,8.548829 0,0.338958 0.02429,0.671437 0.0625,1 -0.03821,0.328562 -0.0625,0.661041 -0.0625,1 0,4.727542 3.821285,8.548828 8.548828,8.548828 h 21.435547 c 4.727547,0 8.548827,-3.821286 8.548827,-8.548828 0,-0.338972 -0.0262,-0.671424 -0.0644,-1 0.0382,-0.328576 0.0644,-0.661028 0.0644,-1 0,-4.727543 -3.82128,-8.548828 -8.548827,-8.548828 z m -8.548828,21.371094 v 2 6.548828 2 c 0,4.727535 3.821285,8.548825 8.548828,8.548825 4.727542,0 8.546875,-3.82129 8.546875,-8.548824 0,-0.338972 -0.02429,-0.671425 -0.0625,-1 0.03821,-0.328576 0.0625,-0.661028 0.0625,-1 0,-4.727543 -3.819333,-8.548828 -8.546875,-8.548828 z" /><path
       id="path405"
       style="fill:#ae8322;fill-opacity:1;stroke-width:0.647609"
       d="m 74.742246,62.195653 c -4.727543,0 -8.548828,3.821285 -8.548828,8.548829 0,0.338958 0.02429,0.671437 0.0625,1 -0.03821,0.328562 -0.0625,0.661041 -0.0625,1 0,4.727542 3.821285,8.548828 8.548828,8.548828 h 21.435547 c 4.727547,0 8.548827,-3.821286 8.548827,-8.548828 0,-0.338972 -0.0262,-0.671424 -0.0644,-1 0.0382,-0.328576 0.0644,-0.661028 0.0644,-1 0,-4.727543 -3.82128,-8.548828 -8.548827,-8.548828 z m -8.548828,21.371094 v 2 6.548828 2 c 0,4.727536 3.821285,8.548825 8.548828,8.548825 4.727542,0 8.546875,-3.821289 8.546875,-8.548824 0,-0.338972 -0.02429,-0.671425 -0.0625,-1 0.03821,-0.328576 0.0625,-0.661028 0.0625,-1 0,-4.727543 -3.819333,-8.548828 -8.546875,-8.548828 z" /><path
       style="stroke-width:0.647609;fill:#e01e5a;fill-opacity:1"
       d="m 44.757122,68.744794 c 0,-4.727548 3.820894,-8.548442 8.548441,-8.548442 4.727548,0 8.548442,3.820894 8.548442,8.548442 v 21.371104 c 0,4.727547 -3.820894,8.548442 -8.548442,8.548442 -4.727547,0 -8.548441,-3.820895 -8.548441,-8.548442 z"
       id="path449" /><path
       style="stroke-width:0.647609;fill:#e01e5a;fill-opacity:1"
       d="m 40.482901,68.744794 c 0,4.727547 -3.820895,8.548441 -8.548442,8.548441 -4.727547,0 -8.548442,-3.820894 -8.548442,-8.548441 0,-4.727548 3.820895,-8.548442 8.548442,-8.548442 h 8.548442 z"
       id="path379" /><path
       style="stroke-width:0.647609;fill:#36c5f0;fill-opacity:1"
       d="m 53.305563,38.760487 c 4.727548,0 8.548442,3.820894 8.548442,8.548441 0,4.727548 -3.820894,8.548442 -8.548442,8.548442 H 31.869698 c -4.727547,0 -8.548442,-3.820894 -8.548442,-8.548442 0,-4.727547 3.820895,-8.548441 8.548442,-8.548441 z"
       id="path453" /><path
       style="stroke-width:0.647609;fill:#36c5f0;fill-opacity:1"
       d="m 53.305563,34.421505 c -4.727547,0 -8.548441,-3.820894 -8.548441,-8.548442 0,-4.727547 3.820894,-8.548441 8.548441,-8.548441 4.727548,0 8.548442,3.820894 8.548442,8.548441 v 8.548442 z"
       id="path381" /><path
       style="stroke-width:0.647609;fill:#2eb67d;fill-opacity:1"
       d="m 83.28987,47.308928 c 0,4.727548 -3.820894,8.548442 -8.548441,8.548442 -4.727548,0 -8.548442,-3.820894 -8.548442,-8.548442 V 25.873063 c 0,-4.727547 3.820894,-8.548441 8.548442,-8.548441 4.727547,0 8.548441,3.820894 8.548441,8.548441 z"
       id="path457" /><path
       style="stroke-width:0.647609;fill:#2eb67d;fill-opacity:1"
       d="m 87.564091,47.308928 c 0,-4.727547 3.820894,-8.548441 8.548442,-8.548441 4.727547,0 8.548437,3.820894 8.548437,8.548441 0,4.727548 -3.82089,8.548442 -8.548437,8.548442 h -8.548442 z"
       id="path383" /><path
       style="stroke-width:0.647609;fill:#ecb22e;fill-opacity:1"
       d="m 74.741429,77.293235 c -4.727548,0 -8.548442,-3.820894 -8.548442,-8.548441 0,-4.727548 3.820894,-8.548442 8.548442,-8.548442 h 21.435865 c 4.727546,0 8.548446,3.820894 8.548446,8.548442 0,4.727547 -3.8209,8.548441 -8.548446,8.548441 z"
       id="path445" /><path
       style="stroke-width:0.647609;fill:#ecb22e;fill-opacity:1"
       d="m 74.741429,81.567456 c 4.727547,0 8.548441,3.820895 8.548441,8.548442 0,4.727547 -3.820894,8.548442 -8.548441,8.548442 -4.727548,0 -8.548442,-3.820895 -8.548442,-8.548442 v -8.548442 z"
       id="path385" /></g></svg>
