<?xml version="1.0" encoding="UTF-8" standalone="no"?>
<!-- Created with Inkscape (http://www.inkscape.org/) -->

<svg
   width="128"
   height="128"
   viewBox="0 0 128 128"
   version="1.1"
   id="svg5"
   inkscape:version="1.2.2 (b0a8486541, 2022-12-01)"
   sodipodi:docname="notion-app.svg"
   xml:space="preserve"
   xmlns:inkscape="http://www.inkscape.org/namespaces/inkscape"
   xmlns:sodipodi="http://sodipodi.sourceforge.net/DTD/sodipodi-0.dtd"
   xmlns:xlink="http://www.w3.org/1999/xlink"
   xmlns="http://www.w3.org/2000/svg"
   xmlns:svg="http://www.w3.org/2000/svg"><sodipodi:namedview
     id="namedview7"
     pagecolor="#ffffff"
     bordercolor="#666666"
     borderopacity="1"
     inkscape:pageshadow="2"
     inkscape:pageopacity="0.0"
     inkscape:pagecheckerboard="true"
     inkscape:document-units="px"
     showgrid="false"
     inkscape:showpageshadow="false"
     showborder="true"
     inkscape:snap-page="true"
     inkscape:zoom="1.4142136"
     inkscape:cx="-59.750523"
     inkscape:cy="103.9447"
     inkscape:window-width="1366"
     inkscape:window-height="731"
     inkscape:window-x="0"
     inkscape:window-y="0"
     inkscape:window-maximized="1"
     inkscape:current-layer="layer2"
     inkscape:deskcolor="#d1d1d1" /><defs
     id="defs2"><linearGradient
       inkscape:collect="always"
       id="linearGradient3801"><stop
         style="stop-color:#3b3b3b;stop-opacity:1;"
         offset="0"
         id="stop3797" /><stop
         style="stop-color:#222222;stop-opacity:1;"
         offset="1"
         id="stop3799" /></linearGradient><linearGradient
       inkscape:collect="always"
       id="linearGradient2777"><stop
         style="stop-color:#ffffff;stop-opacity:1;"
         offset="0"
         id="stop2773" /><stop
         style="stop-color:#e6e6e6;stop-opacity:1"
         offset="1"
         id="stop2775" /></linearGradient><linearGradient
       y2="236"
       x2="96"
       y1="236"
       x1="32"
       gradientTransform="translate(604.81684,170.58641)"
       gradientUnits="userSpaceOnUse"
       id="linearGradient1099"
       xlink:href="#linearGradient1036" /><linearGradient
       id="linearGradient1036"><stop
         id="stop1032"
         offset="0"
         style="stop-color:#d5d3cf;stop-opacity:1;" /><stop
         id="stop1034"
         offset="1"
         style="stop-color:#f6f5f4;stop-opacity:1" /></linearGradient><radialGradient
       r="32"
       fy="-76"
       fx="-244"
       cy="-76"
       cx="-244"
       gradientTransform="matrix(0.88333331,0,0,0.88333331,-460.35018,463.11973)"
       gradientUnits="userSpaceOnUse"
       id="radialGradient1103"
       xlink:href="#linearGradient1069" /><linearGradient
       id="linearGradient1069"><stop
         id="stop1065"
         offset="0"
         style="stop-color:#d5d3cf;stop-opacity:1" /><stop
         id="stop1067-1"
         offset="1"
         style="stop-color:#949390;stop-opacity:1" /></linearGradient><linearGradient
       gradientUnits="userSpaceOnUse"
       y2="232"
       x2="64"
       y1="262.5"
       x1="64"
       id="linearGradient1027"
       xlink:href="#linearGradient1025"
       gradientTransform="translate(-470.5864,432.81685)" /><linearGradient
       id="linearGradient1025"><stop
         id="stop1021"
         offset="0"
         style="stop-color:#9a9996;stop-opacity:1" /><stop
         id="stop1023"
         offset="1"
         style="stop-color:#77767b;stop-opacity:1" /></linearGradient><inkscape:path-effect
       effect="spiro"
       id="path-effect35304-9"
       is_visible="true" /><clipPath
       clipPathUnits="userSpaceOnUse"
       id="clipPath1609-7"><path
         sodipodi:nodetypes="cccccc"
         inkscape:connector-curvature="0"
         id="path1611-5"
         d="m 252,116 28,-28 v -8 h -36 v 36 z"
         style="fill:#e74747;stroke:none;stroke-width:0.25px;stroke-linecap:butt;stroke-linejoin:miter;stroke-opacity:1" /></clipPath><linearGradient
       inkscape:collect="always"
       id="linearGradient8241"><stop
         style="stop-color:#999999;stop-opacity:1"
         offset="0"
         id="stop8237" /><stop
         style="stop-color:#b3b3b3;stop-opacity:1"
         offset="0.05"
         id="stop9349" /><stop
         style="stop-color:#999999;stop-opacity:1"
         offset="0.1"
         id="stop21746" /><stop
         style="stop-color:#999999;stop-opacity:1"
         offset="0.89999998"
         id="stop21940" /><stop
         style="stop-color:#b3b3b3;stop-opacity:1"
         offset="0.94999999"
         id="stop9351" /><stop
         style="stop-color:#999999;stop-opacity:1"
         offset="1"
         id="stop8239" /></linearGradient><radialGradient
       r="32"
       fy="-76"
       fx="-244"
       cy="-76"
       cx="-244"
       gradientTransform="matrix(0.88333331,0,0,0.88333331,-460.35018,463.11973)"
       gradientUnits="userSpaceOnUse"
       id="radialGradient1103-5"
       xlink:href="#linearGradient1069" /><inkscape:path-effect
       effect="spiro"
       id="path-effect35304-9-2"
       is_visible="true" /><clipPath
       clipPathUnits="userSpaceOnUse"
       id="clipPath1609-7-7"><path
         sodipodi:nodetypes="cccccc"
         inkscape:connector-curvature="0"
         id="path1611-5-0"
         d="m 252,116 28,-28 v -8 h -36 v 36 z"
         style="fill:#e74747;stroke:none;stroke-width:0.25px;stroke-linecap:butt;stroke-linejoin:miter;stroke-opacity:1" /></clipPath><clipPath
       clipPathUnits="userSpaceOnUse"
       id="clipPath744"><rect
         style="fill:#1e88e5;fill-opacity:1;stroke-width:0.264583"
         id="rect746"
         width="541.86664"
         height="541.86664"
         x="0"
         y="1.5987212e-14"
         rx="79.375"
         ry="79.375" /></clipPath><clipPath
       clipPathUnits="userSpaceOnUse"
       id="clipPath62"><rect
         style="fill:#1e88e5;fill-opacity:1;stroke-width:0.264583"
         id="rect64"
         width="541.86664"
         height="541.86664"
         x="2.2507105e-05"
         y="-0.42205024"
         rx="79.375"
         ry="79.375" /></clipPath><linearGradient
       inkscape:collect="always"
       xlink:href="#linearGradient8241"
       id="linearGradient8243"
       x1="11.5"
       y1="120.5"
       x2="116.5"
       y2="120.5"
       gradientUnits="userSpaceOnUse" /><radialGradient
       r="32"
       fy="-76"
       fx="-244"
       cy="-76"
       cx="-244"
       gradientTransform="matrix(0.88333331,0,0,0.88333331,-460.35018,463.11973)"
       gradientUnits="userSpaceOnUse"
       id="radialGradient1103-6"
       xlink:href="#linearGradient1069" /><inkscape:path-effect
       effect="spiro"
       id="path-effect35304-9-20"
       is_visible="true" /><clipPath
       clipPathUnits="userSpaceOnUse"
       id="clipPath1609-7-2"><path
         sodipodi:nodetypes="cccccc"
         inkscape:connector-curvature="0"
         id="path1611-5-3"
         d="m 252,116 28,-28 v -8 h -36 v 36 z"
         style="fill:#e74747;stroke:none;stroke-width:0.25px;stroke-linecap:butt;stroke-linejoin:miter;stroke-opacity:1" /></clipPath><radialGradient
       r="32"
       fy="-76"
       fx="-244"
       cy="-76"
       cx="-244"
       gradientTransform="matrix(0.88333331,0,0,0.88333331,-460.35018,463.11973)"
       gradientUnits="userSpaceOnUse"
       id="radialGradient1103-56"
       xlink:href="#linearGradient1069" /><inkscape:path-effect
       effect="spiro"
       id="path-effect35304-9-7"
       is_visible="true" /><clipPath
       clipPathUnits="userSpaceOnUse"
       id="clipPath1609-7-0"><path
         sodipodi:nodetypes="cccccc"
         inkscape:connector-curvature="0"
         id="path1611-5-9"
         d="m 252,116 28,-28 v -8 h -36 v 36 z"
         style="fill:#e74747;stroke:none;stroke-width:0.25px;stroke-linecap:butt;stroke-linejoin:miter;stroke-opacity:1" /></clipPath><clipPath
       clipPathUnits="userSpaceOnUse"
       id="clipPath37"><rect
         style="fill:#1a1a1a;fill-opacity:1;stroke-width:0.264583"
         id="rect39"
         width="541.86664"
         height="541.86664"
         x="-2.6626146e-06"
         y="3.2408705"
         rx="79.375"
         ry="79.375" /></clipPath><clipPath
       clipPathUnits="userSpaceOnUse"
       id="clipPath22042"><rect
         style="fill:#333333;fill-opacity:1;stroke-width:0.0133797"
         id="rect22044"
         width="27.31955"
         height="27.483929"
         x="166.96844"
         y="105.40438"
         rx="4.0018873"
         ry="4.0259666" /></clipPath><clipPath
       clipPathUnits="userSpaceOnUse"
       id="clipPath1039"><rect
         style="fill:#b3b3b3;fill-opacity:1;stroke-width:0.264583"
         id="rect1041"
         width="541.8667"
         height="541.86682"
         x="2.5931527e-05"
         y="-0.00010962487"
         rx="79.375008"
         ry="79.375031" /></clipPath><clipPath
       clipPathUnits="userSpaceOnUse"
       id="clipPath154"><rect
         style="fill:#b3b3b3;fill-opacity:1;stroke-width:0.264583"
         id="rect156"
         width="541.8667"
         height="541.86682"
         x="-2.9218751e-05"
         y="-0.00016368683"
         rx="79.375008"
         ry="79.375031" /></clipPath><linearGradient
       inkscape:collect="always"
       xlink:href="#linearGradient2777"
       id="linearGradient2779"
       x1="64"
       y1="7.5"
       x2="64"
       y2="112.5"
       gradientUnits="userSpaceOnUse" /><filter
       style="color-interpolation-filters:sRGB;"
       inkscape:label="Drop Shadow"
       id="filter3372"
       x="-0.064658829"
       y="-0.063672109"
       width="1.1293177"
       height="1.1915138"><feFlood
         flood-opacity="0.933333"
         flood-color="rgb(0,0,0)"
         result="flood"
         id="feFlood3362" /><feComposite
         in="flood"
         in2="SourceGraphic"
         operator="in"
         result="composite1"
         id="feComposite3364" /><feGaussianBlur
         in="composite1"
         stdDeviation="1.6"
         result="blur"
         id="feGaussianBlur3366" /><feOffset
         dx="0"
         dy="3.8700000000000001"
         result="offset"
         id="feOffset3368" /><feComposite
         in="SourceGraphic"
         in2="offset"
         operator="over"
         result="composite2"
         id="feComposite3370" /></filter><radialGradient
       inkscape:collect="always"
       xlink:href="#linearGradient3801"
       id="radialGradient4232"
       cx="63.999992"
       cy="110.84093"
       fx="63.999992"
       fy="110.84093"
       r="50.840935"
       gradientTransform="matrix(1.7932795,-3.6946786e-8,0,1.8082807,-50.769875,-89.590576)"
       gradientUnits="userSpaceOnUse" /></defs><g
     inkscape:groupmode="layer"
     id="layer2"
     inkscape:label="Layer 1"><rect
       style="fill:url(#linearGradient8243);fill-opacity:1;stroke-width:0.999996"
       id="rect440"
       width="105"
       height="105"
       x="11.5"
       y="15.5"
       rx="8"
       ry="8" /><rect
       style="fill:url(#linearGradient2779);fill-opacity:1;stroke-width:0.999996"
       id="rect358"
       width="105"
       height="105"
       x="11.5"
       y="7.5"
       rx="8"
       ry="8" /><rect
       style="fill:url(#radialGradient4232);fill-opacity:1;stroke-width:0.968399"
       id="rect2711"
       width="101.68187"
       height="101.68188"
       x="13.159057"
       y="9.1590576"
       rx="7.747191"
       ry="7.7471914" /><path
       id="path5269"
       style="fill:#1a1a1a;fill-opacity:1;stroke-width:1.20697"
       d="M 90.9375 30.888672 L 90.9375 32.888672 L 90.9375 33.998047 L 77.355469 34.789062 C 76.985168 34.825329 76.634431 34.91423 76.294922 35.029297 L 76.294922 34.810547 L 73.539062 34.810547 L 73.539062 36.810547 L 73.539062 38.548828 L 73.539062 38.810547 L 73.539062 40.548828 L 73.539062 40.810547 L 73.544922 40.810547 C 73.550922 41.029363 73.567385 41.251679 73.609375 41.482422 L 79.701172 42.183594 L 79.701172 72.566406 L 55.802734 35.962891 L 38.462891 37.128906 C 37.59879 37.191172 36.884712 37.452253 36.304688 37.835938 L 34.386719 37.835938 L 34.386719 39.835938 L 34.386719 41.615234 C 34.386952 41.65978 34.385208 41.703847 34.386719 41.748047 L 34.386719 41.835938 L 34.386719 43.615234 C 34.386952 43.659784 34.385219 43.703844 34.386719 43.748047 L 34.386719 43.835938 L 34.396484 43.835938 C 34.409304 44.072687 34.431319 44.308728 34.480469 44.529297 L 40.337891 45.001953 L 40.337891 89.230469 L 37.0625 90.138672 L 37.0625 89.367188 L 34.306641 89.367188 L 34.306641 91.367188 L 34.306641 93.28125 L 34.306641 95.28125 L 34.310547 95.28125 C 34.312447 95.621633 34.366067 95.929392 34.478516 96.154297 L 50.640625 95.216797 C 56.502898 95.216797 56.501953 90.992188 56.501953 90.992188 L 56.501953 88.992188 L 56.501953 86.992188 L 56.501953 84.992188 L 53.746094 84.992188 L 53.746094 86.992188 L 53.746094 88.369141 L 49.236328 87.347656 L 49.236328 54.384766 L 72.205078 90.521484 C 75.013706 94.038605 75.951105 95.212891 79.701172 95.212891 C 82.047529 95.212891 84.854274 94.274296 87.904297 92.632812 L 87.904297 90.632812 L 87.904297 41.007812 L 91.416016 40.310547 C 93.176635 40.109333 93.783616 38.606083 93.669922 36.888672 L 93.693359 36.888672 L 93.693359 34.888672 L 93.693359 32.888672 L 93.693359 30.888672 L 90.9375 30.888672 z " /><path
       d="m 93.528927,29.845506 c 0.467098,2.112208 0,4.224416 -2.11221,4.465811 l -3.512301,0.696426 V 86.63374 c -3.050029,1.641486 -5.857456,2.579306 -8.203817,2.579306 -3.750075,0 -4.686689,-1.174388 -7.495323,-4.691515 L 49.236517,48.384661 v 34.962482 l 7.265998,1.645109 c 0,0 0,4.224415 -5.862285,4.224415 l -16.161411,0.937821 c -0.470721,-0.941442 0,-3.286597 1.637867,-3.753696 l 4.220795,-1.170766 V 39.002835 l -5.857456,-0.474343 c -0.47072,-2.112207 0.700047,-5.162238 3.983022,-5.398803 l 17.340628,-1.167148 23.89813,36.60397 V 36.183337 L 73.610197,35.483292 C 73.139476,32.89674 75.01391,31.01748 77.355444,30.788153 l 16.173483,-0.941441 z"
       id="path363"
       style="fill:#ffffff;fill-opacity:1;stroke-width:1.20697" /><path
       id="rect2706"
       style="fill:#000000;fill-opacity:1;stroke-width:0.968399"
       d="M 20.90625 9.1582031 C 16.614311 9.1582031 13.158203 12.61431 13.158203 16.90625 L 13.158203 18.90625 C 13.158203 14.61431 16.614311 11.158203 20.90625 11.158203 L 107.09375 11.158203 C 111.38569 11.158203 114.8418 14.61431 114.8418 18.90625 L 114.8418 16.90625 C 114.8418 12.61431 111.38569 9.1582031 107.09375 9.1582031 L 20.90625 9.1582031 z " /></g></svg>
