<?xml version="1.0" encoding="UTF-8" standalone="no"?>
<!-- Created with Inkscape (http://www.inkscape.org/) -->

<svg
   width="128"
   height="128"
   viewBox="0 0 128 128"
   version="1.1"
   id="svg5"
   inkscape:version="1.2.2 (b0a8486541, 2022-12-01)"
   sodipodi:docname="org.chromium.Chromium.svg"
   inkscape:export-filename="/home/retro/.icons/skeuowaita/scalable/apps/skeuowaita.png"
   inkscape:export-xdpi="1536"
   inkscape:export-ydpi="1536"
   xml:space="preserve"
   xmlns:inkscape="http://www.inkscape.org/namespaces/inkscape"
   xmlns:sodipodi="http://sodipodi.sourceforge.net/DTD/sodipodi-0.dtd"
   xmlns:xlink="http://www.w3.org/1999/xlink"
   xmlns="http://www.w3.org/2000/svg"
   xmlns:svg="http://www.w3.org/2000/svg"><sodipodi:namedview
     id="namedview7"
     pagecolor="#ffffff"
     bordercolor="#666666"
     borderopacity="1"
     inkscape:pageshadow="2"
     inkscape:pageopacity="0.0"
     inkscape:pagecheckerboard="true"
     inkscape:document-units="px"
     showgrid="false"
     inkscape:showpageshadow="false"
     showborder="true"
     inkscape:snap-page="true"
     inkscape:zoom="2"
     inkscape:cx="221.5"
     inkscape:cy="72"
     inkscape:window-width="1366"
     inkscape:window-height="731"
     inkscape:window-x="0"
     inkscape:window-y="0"
     inkscape:window-maximized="1"
     inkscape:current-layer="layer2"
     inkscape:snap-bbox="true"
     inkscape:snap-bbox-midpoints="true"
     inkscape:snap-bbox-edge-midpoints="true"
     inkscape:bbox-nodes="true"
     inkscape:bbox-paths="true"
     inkscape:snap-intersection-paths="true"
     inkscape:object-paths="true"
     inkscape:snap-smooth-nodes="true"
     inkscape:snap-midpoints="true"
     inkscape:deskcolor="#d1d1d1" /><defs
     id="defs2"><linearGradient
       inkscape:collect="always"
       id="linearGradient5049"><stop
         style="stop-color:#476eac;stop-opacity:1;"
         offset="0"
         id="stop5045" /><stop
         style="stop-color:#476eac;stop-opacity:1;"
         offset="0.80000001"
         id="stop5053" /><stop
         style="stop-color:#5584ce;stop-opacity:1;"
         offset="1"
         id="stop5047" /></linearGradient><linearGradient
       inkscape:collect="always"
       id="linearGradient5039"><stop
         style="stop-color:#7e96bf;stop-opacity:1;"
         offset="0"
         id="stop5035" /><stop
         style="stop-color:#758cb2;stop-opacity:1;"
         offset="0.2"
         id="stop5043" /><stop
         style="stop-color:#758cb2;stop-opacity:1;"
         offset="1"
         id="stop5037" /></linearGradient><linearGradient
       inkscape:collect="always"
       id="linearGradient1522"><stop
         style="stop-color:#808080;stop-opacity:1"
         offset="0"
         id="stop1518" /><stop
         style="stop-color:#808080;stop-opacity:1"
         offset="0.40000001"
         id="stop1617" /><stop
         style="stop-color:#999999;stop-opacity:1"
         offset="0.5"
         id="stop1613" /><stop
         style="stop-color:#808080;stop-opacity:1"
         offset="0.60000002"
         id="stop1615" /><stop
         style="stop-color:#808080;stop-opacity:1"
         offset="1"
         id="stop1520" /></linearGradient><linearGradient
       y2="236"
       x2="96"
       y1="236"
       x1="32"
       gradientTransform="translate(604.81684,170.58641)"
       gradientUnits="userSpaceOnUse"
       id="linearGradient1099"
       xlink:href="#linearGradient1036" /><linearGradient
       id="linearGradient1036"><stop
         id="stop1032"
         offset="0"
         style="stop-color:#d5d3cf;stop-opacity:1;" /><stop
         id="stop1034"
         offset="1"
         style="stop-color:#f6f5f4;stop-opacity:1" /></linearGradient><radialGradient
       r="32"
       fy="-76"
       fx="-244"
       cy="-76"
       cx="-244"
       gradientTransform="matrix(0.88333331,0,0,0.88333331,-460.35018,463.11973)"
       gradientUnits="userSpaceOnUse"
       id="radialGradient1103"
       xlink:href="#linearGradient1069" /><linearGradient
       id="linearGradient1069"><stop
         id="stop1065"
         offset="0"
         style="stop-color:#d5d3cf;stop-opacity:1" /><stop
         id="stop1067-1"
         offset="1"
         style="stop-color:#949390;stop-opacity:1" /></linearGradient><linearGradient
       gradientUnits="userSpaceOnUse"
       y2="232"
       x2="64"
       y1="262.5"
       x1="64"
       id="linearGradient1027"
       xlink:href="#linearGradient1025"
       gradientTransform="translate(-470.5864,432.81685)" /><linearGradient
       id="linearGradient1025"><stop
         id="stop1021"
         offset="0"
         style="stop-color:#9a9996;stop-opacity:1" /><stop
         id="stop1023"
         offset="1"
         style="stop-color:#77767b;stop-opacity:1" /></linearGradient><inkscape:path-effect
       effect="spiro"
       id="path-effect35304-9"
       is_visible="true" /><clipPath
       clipPathUnits="userSpaceOnUse"
       id="clipPath1609-7"><path
         sodipodi:nodetypes="cccccc"
         inkscape:connector-curvature="0"
         id="path1611-5"
         d="m 252,116 28,-28 v -8 h -36 v 36 z"
         style="fill:#e74747;stroke:none;stroke-width:0.25px;stroke-linecap:butt;stroke-linejoin:miter;stroke-opacity:1" /></clipPath><radialGradient
       r="32"
       fy="-76"
       fx="-244"
       cy="-76"
       cx="-244"
       gradientTransform="matrix(0.88333331,0,0,0.88333331,-460.35018,463.11973)"
       gradientUnits="userSpaceOnUse"
       id="radialGradient1103-5"
       xlink:href="#linearGradient1069" /><inkscape:path-effect
       effect="spiro"
       id="path-effect35304-9-2"
       is_visible="true" /><clipPath
       clipPathUnits="userSpaceOnUse"
       id="clipPath1609-7-7"><path
         sodipodi:nodetypes="cccccc"
         inkscape:connector-curvature="0"
         id="path1611-5-0"
         d="m 252,116 28,-28 v -8 h -36 v 36 z"
         style="fill:#e74747;stroke:none;stroke-width:0.25px;stroke-linecap:butt;stroke-linejoin:miter;stroke-opacity:1" /></clipPath><clipPath
       clipPathUnits="userSpaceOnUse"
       id="clipPath744"><rect
         style="fill:#1e88e5;fill-opacity:1;stroke-width:0.264583"
         id="rect746"
         width="541.86664"
         height="541.86664"
         x="0"
         y="1.5987212e-14"
         rx="79.375"
         ry="79.375" /></clipPath><clipPath
       clipPathUnits="userSpaceOnUse"
       id="clipPath62"><rect
         style="fill:#1e88e5;fill-opacity:1;stroke-width:0.264583"
         id="rect64"
         width="541.86664"
         height="541.86664"
         x="2.2507105e-05"
         y="-0.42205024"
         rx="79.375"
         ry="79.375" /></clipPath><radialGradient
       r="32"
       fy="-76"
       fx="-244"
       cy="-76"
       cx="-244"
       gradientTransform="matrix(0.88333331,0,0,0.88333331,-460.35018,463.11973)"
       gradientUnits="userSpaceOnUse"
       id="radialGradient1103-6"
       xlink:href="#linearGradient1069" /><inkscape:path-effect
       effect="spiro"
       id="path-effect35304-9-20"
       is_visible="true" /><clipPath
       clipPathUnits="userSpaceOnUse"
       id="clipPath1609-7-2"><path
         sodipodi:nodetypes="cccccc"
         inkscape:connector-curvature="0"
         id="path1611-5-3"
         d="m 252,116 28,-28 v -8 h -36 v 36 z"
         style="fill:#e74747;stroke:none;stroke-width:0.25px;stroke-linecap:butt;stroke-linejoin:miter;stroke-opacity:1" /></clipPath><clipPath
       clipPathUnits="userSpaceOnUse"
       id="clipPath961"><rect
         style="fill:#00c853;stroke:none;stroke-width:0.529037"
         id="rect963"
         width="541.86664"
         height="541.86664"
         x="1.4210855e-14"
         y="2.717972e-05"
         rx="79.375"
         ry="79.375" /></clipPath><radialGradient
       r="32"
       fy="-76"
       fx="-244"
       cy="-76"
       cx="-244"
       gradientTransform="matrix(0.88333331,0,0,0.88333331,-460.35018,463.11973)"
       gradientUnits="userSpaceOnUse"
       id="radialGradient1103-56"
       xlink:href="#linearGradient1069" /><inkscape:path-effect
       effect="spiro"
       id="path-effect35304-9-7"
       is_visible="true" /><clipPath
       clipPathUnits="userSpaceOnUse"
       id="clipPath1440"><circle
         style="display:inline;opacity:1;vector-effect:none;fill:none;fill-opacity:1;stroke:#000000;stroke-width:2;stroke-linecap:butt;stroke-linejoin:miter;stroke-miterlimit:4;stroke-dasharray:none;stroke-dashoffset:0;stroke-opacity:1;marker:none;marker-start:none;marker-mid:none;marker-end:none;paint-order:normal;enable-background:new"
         id="circle1442"
         cx="-134.35028"
         cy="193.74727"
         r="24"
         transform="rotate(-45)" /></clipPath><clipPath
       clipPathUnits="userSpaceOnUse"
       id="clipPath1430"><circle
         style="display:inline;opacity:1;vector-effect:none;fill:none;fill-opacity:1;stroke:#000000;stroke-width:2;stroke-linecap:butt;stroke-linejoin:miter;stroke-miterlimit:4;stroke-dasharray:none;stroke-dashoffset:0;stroke-opacity:1;marker:none;marker-start:none;marker-mid:none;marker-end:none;paint-order:normal;enable-background:new"
         id="circle1432"
         cx="12"
         cy="232"
         r="24" /></clipPath><clipPath
       clipPathUnits="userSpaceOnUse"
       id="clipPath1440-9"><circle
         style="display:inline;opacity:1;vector-effect:none;fill:none;fill-opacity:1;stroke:#000000;stroke-width:2;stroke-linecap:butt;stroke-linejoin:miter;stroke-miterlimit:4;stroke-dasharray:none;stroke-dashoffset:0;stroke-opacity:1;marker:none;marker-start:none;marker-mid:none;marker-end:none;paint-order:normal;enable-background:new"
         id="circle1442-5"
         cx="-134.35028"
         cy="193.74727"
         r="24"
         transform="rotate(-45)" /></clipPath><clipPath
       clipPathUnits="userSpaceOnUse"
       id="clipPath1430-1"><circle
         style="display:inline;opacity:1;vector-effect:none;fill:none;fill-opacity:1;stroke:#000000;stroke-width:2;stroke-linecap:butt;stroke-linejoin:miter;stroke-miterlimit:4;stroke-dasharray:none;stroke-dashoffset:0;stroke-opacity:1;marker:none;marker-start:none;marker-mid:none;marker-end:none;paint-order:normal;enable-background:new"
         id="circle1432-8"
         cx="12"
         cy="232"
         r="24" /></clipPath><clipPath
       clipPathUnits="userSpaceOnUse"
       id="clipPath2024"><rect
         style="opacity:1;vector-effect:none;fill:#63452c;fill-opacity:1;stroke:none;stroke-width:4;stroke-linecap:round;stroke-linejoin:round;stroke-miterlimit:4;stroke-dasharray:none;stroke-dashoffset:0;stroke-opacity:1"
         id="rect2026"
         width="74"
         height="98"
         x="6"
         y="196" /></clipPath><linearGradient
       id="linearGradient914"
       inkscape:collect="always"><stop
         id="stop910"
         offset="0"
         style="stop-color:#f6f5f4;stop-opacity:0.43700787" /><stop
         id="stop912"
         offset="1"
         style="stop-color:#deddda;stop-opacity:0;" /></linearGradient><radialGradient
       gradientTransform="matrix(2.6086955,0,0,1.8410361,-102.95652,-748.94671)"
       gradientUnits="userSpaceOnUse"
       r="46"
       fy="296"
       fx="64.000008"
       cy="296"
       cx="64.000008"
       id="radialGradient916"
       xlink:href="#linearGradient914"
       inkscape:collect="always" /><clipPath
       clipPathUnits="userSpaceOnUse"
       id="clipPath11543"><rect
         style="fill:#f0c04e;fill-opacity:1;stroke:none;stroke-width:0.529037"
         id="rect11545"
         width="541.86664"
         height="541.86664"
         x="1.4746095e-06"
         y="6.4330168e-05"
         rx="79.375"
         ry="79.375" /></clipPath><style
       id="style374">.cls-1{fill:url(#linear-gradient);}.cls-2{opacity:0.35;fill:url(#radial-gradient);}.cls-2,.cls-4{isolation:isolate;}.cls-3{fill:url(#linear-gradient-2);}.cls-4{opacity:0.41;fill:url(#radial-gradient-2);}.cls-5{fill:url(#radial-gradient-3);}.cls-6{fill:url(#radial-gradient-4);}</style><linearGradient
       id="linear-gradient"
       x1="63.33"
       y1="84.03"
       x2="241.67"
       y2="84.03"
       gradientTransform="matrix(1,0,0,-1,0,266)"
       gradientUnits="userSpaceOnUse"><stop
         offset="0"
         stop-color="#0c59a4"
         id="stop376" /><stop
         offset="1"
         stop-color="#114a8b"
         id="stop378" /></linearGradient><radialGradient
       id="radial-gradient"
       cx="161.83"
       cy="68.91"
       r="95.38"
       gradientTransform="matrix(1,0,0,-0.95,0,248.84)"
       gradientUnits="userSpaceOnUse"><stop
         offset="0.72"
         stop-opacity="0"
         id="stop381" /><stop
         offset="0.95"
         stop-opacity="0.53"
         id="stop383" /><stop
         offset="1"
         id="stop385" /></radialGradient><linearGradient
       id="linear-gradient-2"
       x1="157.35"
       y1="161.39"
       x2="45.96"
       y2="40.06"
       gradientTransform="matrix(1,0,0,-1,0,266)"
       gradientUnits="userSpaceOnUse"><stop
         offset="0"
         stop-color="#1b9de2"
         id="stop388" /><stop
         offset="0.16"
         stop-color="#1595df"
         id="stop390" /><stop
         offset="0.67"
         stop-color="#0680d7"
         id="stop392" /><stop
         offset="1"
         stop-color="#0078d4"
         id="stop394" /></linearGradient><radialGradient
       id="radial-gradient-2"
       cx="-340.29"
       cy="62.99"
       r="143.24"
       gradientTransform="matrix(0.15,-0.99,-0.8,-0.12,176.64,-125.4)"
       gradientUnits="userSpaceOnUse"><stop
         offset="0.76"
         stop-opacity="0"
         id="stop397" /><stop
         offset="0.95"
         stop-opacity="0.5"
         id="stop399" /><stop
         offset="1"
         id="stop401" /></radialGradient><radialGradient
       id="radial-gradient-3"
       cx="113.37"
       cy="570.21"
       r="202.43"
       gradientTransform="matrix(-0.04,1,2.13,0.08,-1179.54,-106.69)"
       gradientUnits="userSpaceOnUse"><stop
         offset="0"
         stop-color="#35c1f1"
         id="stop404" /><stop
         offset="0.11"
         stop-color="#34c1ed"
         id="stop406" /><stop
         offset="0.23"
         stop-color="#2fc2df"
         id="stop408" /><stop
         offset="0.31"
         stop-color="#2bc3d2"
         id="stop410" /><stop
         offset="0.67"
         stop-color="#36c752"
         id="stop412" /></radialGradient><radialGradient
       id="radial-gradient-4"
       cx="376.52"
       cy="567.97"
       r="97.34"
       gradientTransform="matrix(0.28,0.96,0.78,-0.23,-303.76,-148.5)"
       gradientUnits="userSpaceOnUse"><stop
         offset="0"
         stop-color="#66eb6e"
         id="stop415" /><stop
         offset="1"
         stop-color="#66eb6e"
         stop-opacity="0"
         id="stop417" /></radialGradient><clipPath
       clipPathUnits="userSpaceOnUse"
       id="clipPath1260"><rect
         style="fill:#bbdefb;fill-opacity:1;stroke:none;stroke-width:0.529037"
         id="rect1262"
         width="541.86664"
         height="541.86664"
         x="2.9492187e-06"
         y="3.9968629e-05"
         rx="79.375"
         ry="79.375" /></clipPath><clipPath
       clipPathUnits="userSpaceOnUse"
       id="clipPath16285"><rect
         style="fill:#bbdefb;fill-opacity:1;stroke:none;stroke-width:0.529037"
         id="rect16287"
         width="541.86664"
         height="541.86664"
         x="0"
         y="6.4807005e-05"
         rx="79.375"
         ry="79.375" /></clipPath><clipPath
       clipPathUnits="userSpaceOnUse"
       id="clipPath990"><rect
         style="fill:#bbdefb;fill-opacity:1;stroke:none;stroke-width:0.529037"
         id="rect992"
         width="487.67996"
         height="487.67996"
         x="27.093349"
         y="27.093338"
         rx="71.4375"
         ry="71.4375" /></clipPath><linearGradient
       inkscape:collect="always"
       xlink:href="#linearGradient1522"
       id="linearGradient1524"
       x1="9"
       y1="64"
       x2="119"
       y2="64"
       gradientUnits="userSpaceOnUse" /><linearGradient
       inkscape:collect="always"
       xlink:href="#linearGradient5039"
       id="linearGradient5041"
       x1="61.107422"
       y1="78.973633"
       x2="119"
       y2="78.973633"
       gradientUnits="userSpaceOnUse" /><linearGradient
       inkscape:collect="always"
       xlink:href="#linearGradient5049"
       id="linearGradient5051"
       x1="9"
       y1="76.62793"
       x2="61.107422"
       y2="76.62793"
       gradientUnits="userSpaceOnUse" /></defs><g
     inkscape:groupmode="layer"
     id="layer2"
     inkscape:label="Layer 1"><path
       id="circle372"
       style="fill:url(#linearGradient1524);fill-opacity:1;stroke-width:1"
       d="M 64 5 A 55 55 0 0 0 9 60 L 9 68 A 55 55 0 0 0 64 123 A 55 55 0 0 0 119 68 L 119 60 A 55 55 0 0 0 64 5 z " /><path
       id="path4357"
       style="fill:#aecbfa;fill-opacity:1;stroke-width:1.5;stroke-linecap:round;stroke-linejoin:round;paint-order:markers stroke fill"
       d="M 64,35.107422 A 24.893112,24.893112 0 0 1 88.89258,60 24.893112,24.893112 0 0 1 85.56055,72.441406 l 0.002,0.002 -0.004,0.0039 -24.44921,42.345704 A 55,55 0 0 0 64,115 55,55 0 0 0 119,60 55,55 0 0 0 113.02734,35.107422 Z" /><path
       clip-path="url(#b)"
       d="m 17.92907,30.408311 35.628267,35.622043 -11.114775,6.4162 z"
       fill="url(#j)"
       id="path529"
       style="stroke-width:0.622328" /><path
       clip-path="url(#b)"
       d="m 61.40489,114.69639 13.043991,-48.666036 11.114774,6.4162 z"
       fill="url(#k)"
       id="path531"
       style="stroke-width:0.622328" /><circle
       cx="63.999992"
       cy="59.999996"
       fill="url(#l)"
       r="54.764847"
       id="circle555"
       style="stroke-width:0.622328" /><path
       d="M 4.2565284,0.256529 H 123.74347 V 119.74347 H 4.2565284 Z"
       fill="none"
       id="path557"
       style="stroke-width:0.622328" /><text
       xml:space="preserve"
       style="font-style:normal;font-variant:normal;font-weight:normal;font-stretch:normal;font-size:40px;line-height:1.25;font-family:'DejaVu Math TeX Gyre';-inkscape-font-specification:'DejaVu Math TeX Gyre';fill:#000000;fill-opacity:1;stroke:none"
       x="57.303368"
       y="70.244858"
       id="text3441"><tspan
         sodipodi:role="line"
         id="tspan3439"
         x="57.303368"
         y="70.244858" /></text><text
       xml:space="preserve"
       style="font-size:40px;line-height:1.25;font-family:Caladea;-inkscape-font-specification:Caladea"
       x="43.168587"
       y="70.812454"
       id="text13903"><tspan
         sodipodi:role="line"
         id="tspan13901"
         x="43.168587"
         y="70.812454" /></text><path
       id="path4362"
       style="fill:#669df6;fill-opacity:1;stroke-width:1.5;stroke-linecap:round;stroke-linejoin:round;paint-order:markers stroke fill"
       d="M 17.933594,29.994141 A 55,55 0 0 0 9,60 55,55 0 0 0 61.107422,114.79297 L 85.556641,72.443359 h -0.06055 A 24.893112,24.893112 0 0 1 64,84.892578 24.893112,24.893112 0 0 1 42.507812,72.449219 h -0.06445 l -0.002,-0.0039 z" /><path
       id="path4364"
       style="fill:#1967d2;fill-opacity:1;stroke-width:1.5;stroke-linecap:round;stroke-linejoin:round;paint-order:markers stroke fill"
       d="M 64,5 A 55,55 0 0 0 17.933594,29.996094 l 24.507812,42.453125 0.0332,-0.05859 A 24.893112,24.893112 0 0 1 39.107422,60 24.893112,24.893112 0 0 1 63.994141,35.107422 H 64 113.02734 A 55,55 0 0 0 64,5 Z" /><path
       id="path4654"
       style="fill:url(#linearGradient5041);fill-opacity:1;stroke-width:1.5;stroke-linecap:round;stroke-linejoin:round;paint-order:markers stroke fill"
       d="M 112.94531 34.947266 L 112.7793 35.105469 L 112.77734 35.107422 L 113.01562 35.107422 A 55 55 0 0 0 112.94531 34.947266 z M 114.48242 38.439453 A 55 55 0 0 1 115.58203 40.960938 A 55 55 0 0 0 114.48242 38.439453 z M 116.73828 44.744141 A 55 55 0 0 1 117.46875 47.154297 A 55 55 0 0 0 116.73828 44.744141 z M 118.29883 51.773438 A 55 55 0 0 1 118.61328 53.529297 A 55 55 0 0 0 118.29883 51.773438 z M 119 60 A 55 55 0 0 1 64 115 A 55 55 0 0 1 61.109375 114.79297 L 61.125 114.76562 L 61.107422 114.79297 L 61.107422 122.79297 A 55 55 0 0 0 64 123 A 55 55 0 0 0 119 68 L 119 60 z " /><path
       id="path4748"
       style="fill:url(#linearGradient5051);fill-opacity:1;stroke-width:1.5;stroke-linecap:round;stroke-linejoin:round;paint-order:markers stroke fill"
       d="M 17.666016 30.462891 L 17.617188 30.472656 A 55 55 0 0 0 15.785156 33.746094 A 55 55 0 0 1 17.666016 30.462891 z M 14.705078 35.671875 A 55 55 0 0 0 13.070312 39.488281 A 55 55 0 0 1 14.705078 35.671875 z M 12.240234 41.466797 A 55 55 0 0 0 10.976562 45.712891 A 55 55 0 0 1 12.240234 41.466797 z M 10.453125 47.5 A 55 55 0 0 0 9.5800781 52.480469 A 55 55 0 0 1 10.453125 47.5 z M 9.3691406 53.701172 A 55 55 0 0 0 9 60 A 55 55 0 0 1 9.3691406 53.701172 z M 9 60 L 9 68 A 55 55 0 0 0 61.107422 122.79297 L 61.107422 114.79297 A 55 55 0 0 1 9 60 z " /><path
       id="path4829"
       style="fill:#ffffff;fill-opacity:0.30164778;stroke-width:1.5;stroke-linecap:round;stroke-linejoin:round;paint-order:markers stroke fill"
       d="M 64 5 A 55 55 0 0 0 17.933594 29.994141 L 17.933594 29.996094 A 55 55 0 0 0 9 60 A 55 55 0 0 0 9.0722656 61.011719 A 55 55 0 0 1 17.933594 31.996094 L 17.933594 31.994141 A 55 55 0 0 1 64 7 A 55 55 0 0 1 113.02734 37.107422 A 55 55 0 0 1 118.93555 60.90625 A 55 55 0 0 0 119 60 A 55 55 0 0 0 113.02734 35.107422 A 55 55 0 0 0 64 5 z M 39.203125 61.037109 A 24.893112 24.893112 0 0 0 39.107422 62 A 24.893112 24.893112 0 0 0 42.474609 74.390625 L 42.443359 74.447266 L 42.443359 74.449219 L 42.507812 74.449219 A 24.893112 24.893112 0 0 0 64 86.892578 A 24.893112 24.893112 0 0 0 81.466797 79.527344 L 85.556641 72.443359 L 85.496094 72.443359 A 24.893112 24.893112 0 0 1 64 84.892578 A 24.893112 24.893112 0 0 1 42.507812 72.449219 L 42.443359 72.449219 L 42.443359 72.447266 L 42.474609 72.390625 A 24.893112 24.893112 0 0 1 39.203125 61.037109 z M 88.845703 61.527344 A 24.893112 24.893112 0 0 1 85.560547 72.441406 L 85.5625 72.443359 L 85.558594 72.447266 L 81.474609 79.519531 A 24.893112 24.893112 0 0 0 85.496094 74.443359 L 85.556641 74.443359 L 62.216797 114.87305 A 55 55 0 0 0 62.21875 114.87305 L 85.558594 74.447266 L 85.5625 74.443359 L 85.560547 74.441406 A 24.893112 24.893112 0 0 0 88.892578 62 A 24.893112 24.893112 0 0 0 88.845703 61.527344 z " /><circle
       cx="64"
       cy="63.999996"
       fill="#f1f1f1"
       r="24.893112"
       id="circle4847"
       style="fill:#000000;stroke-width:0.622328;fill-opacity:0.29646924" /><circle
       cx="64"
       cy="61.999996"
       fill="#f1f1f1"
       r="24.893112"
       id="circle4845"
       style="fill:#999999;stroke-width:0.622328" /><circle
       cx="64"
       cy="59.999996"
       fill="#f1f1f1"
       r="24.893112"
       id="circle533"
       style="fill:#e6e6e6;stroke-width:0.622328" /><circle
       cx="64"
       cy="59.999996"
       fill="#4285f4"
       r="19.91449"
       id="circle535"
       style="stroke-width:0.622328" /><path
       id="circle4849"
       style="fill:#ffffff;stroke-width:0.622328"
       d="M 64 35.107422 A 24.893112 24.893112 0 0 0 39.107422 60 A 24.893112 24.893112 0 0 0 39.177734 61 A 24.893112 24.893112 0 0 1 64 37.107422 A 24.893112 24.893112 0 0 1 88.849609 60.599609 A 24.893112 24.893112 0 0 0 88.892578 60 A 24.893112 24.893112 0 0 0 64 35.107422 z " /><path
       id="circle4854"
       style="stroke-width:0.622328;fill:#000000;fill-opacity:0.20426662"
       d="M 64 40.085938 A 19.91449 19.91449 0 0 0 44.085938 60 A 19.91449 19.91449 0 0 0 44.158203 61 A 19.91449 19.91449 0 0 1 64 42.085938 A 19.91449 19.91449 0 0 1 83.865234 60.681641 A 19.91449 19.91449 0 0 0 83.914062 60 A 19.91449 19.91449 0 0 0 64 40.085938 z " /></g></svg>
