<?xml version="1.0" encoding="UTF-8" standalone="no"?>
<!-- Created with Inkscape (http://www.inkscape.org/) -->

<svg
   width="128"
   height="128"
   viewBox="0 0 128 128"
   version="1.1"
   id="svg5"
   inkscape:version="1.2.2 (b0a8486541, 2022-12-01)"
   sodipodi:docname="org.gnome.Software.svg"
   xml:space="preserve"
   xmlns:inkscape="http://www.inkscape.org/namespaces/inkscape"
   xmlns:sodipodi="http://sodipodi.sourceforge.net/DTD/sodipodi-0.dtd"
   xmlns:xlink="http://www.w3.org/1999/xlink"
   xmlns="http://www.w3.org/2000/svg"
   xmlns:svg="http://www.w3.org/2000/svg"><sodipodi:namedview
     id="namedview7"
     pagecolor="#ffffff"
     bordercolor="#666666"
     borderopacity="1"
     inkscape:pageshadow="2"
     inkscape:pageopacity="0.0"
     inkscape:pagecheckerboard="true"
     inkscape:document-units="px"
     showgrid="false"
     inkscape:showpageshadow="false"
     showborder="true"
     inkscape:snap-page="true"
     inkscape:snap-bbox="true"
     inkscape:bbox-paths="true"
     inkscape:bbox-nodes="true"
     inkscape:snap-bbox-edge-midpoints="true"
     inkscape:snap-bbox-midpoints="true"
     inkscape:object-paths="true"
     inkscape:zoom="3.835466"
     inkscape:cx="81.867497"
     inkscape:cy="99.596764"
     inkscape:window-width="1366"
     inkscape:window-height="731"
     inkscape:window-x="0"
     inkscape:window-y="0"
     inkscape:window-maximized="1"
     inkscape:current-layer="layer2"
     inkscape:deskcolor="#d1d1d1" /><defs
     id="defs2"><linearGradient
       inkscape:collect="always"
       id="linearGradient3811"><stop
         style="stop-color:#3f6291;stop-opacity:1;"
         offset="0"
         id="stop3807" /><stop
         style="stop-color:#5d98df;stop-opacity:1;"
         offset="0.8773852"
         id="stop512" /><stop
         style="stop-color:#9cc0ea;stop-opacity:1;"
         offset="1"
         id="stop3809" /></linearGradient><linearGradient
       inkscape:collect="always"
       id="linearGradient3245"><stop
         style="stop-color:#ffffff;stop-opacity:1;"
         offset="0"
         id="stop3241" /><stop
         style="stop-color:#b9d8fb;stop-opacity:1;"
         offset="1"
         id="stop3243" /></linearGradient><linearGradient
       inkscape:collect="always"
       id="linearGradient1008"><stop
         style="stop-color:#76aff1;stop-opacity:1;"
         offset="0"
         id="stop1004" /><stop
         style="stop-color:#9ec4f1;stop-opacity:1;"
         offset="0.06041278"
         id="stop1566" /><stop
         style="stop-color:#76aff1;stop-opacity:1;"
         offset="0.12631179"
         id="stop1568" /><stop
         style="stop-color:#76aff1;stop-opacity:1;"
         offset="0.88846779"
         id="stop1572" /><stop
         style="stop-color:#9ec4f1;stop-opacity:1;"
         offset="0.94781947"
         id="stop1570" /><stop
         style="stop-color:#76aff1;stop-opacity:1;"
         offset="1"
         id="stop1006" /></linearGradient><linearGradient
       y2="236"
       x2="96"
       y1="236"
       x1="32"
       gradientTransform="translate(604.81684,170.58641)"
       gradientUnits="userSpaceOnUse"
       id="linearGradient1099"
       xlink:href="#linearGradient1036" /><linearGradient
       id="linearGradient1036"><stop
         id="stop1032"
         offset="0"
         style="stop-color:#d5d3cf;stop-opacity:1;" /><stop
         id="stop1034"
         offset="1"
         style="stop-color:#f6f5f4;stop-opacity:1" /></linearGradient><radialGradient
       r="32"
       fy="-76"
       fx="-244"
       cy="-76"
       cx="-244"
       gradientTransform="matrix(0.88333331,0,0,0.88333331,-460.35018,463.11973)"
       gradientUnits="userSpaceOnUse"
       id="radialGradient1103"
       xlink:href="#linearGradient1069" /><linearGradient
       id="linearGradient1069"><stop
         id="stop1065"
         offset="0"
         style="stop-color:#d5d3cf;stop-opacity:1" /><stop
         id="stop1067-1"
         offset="1"
         style="stop-color:#949390;stop-opacity:1" /></linearGradient><linearGradient
       gradientUnits="userSpaceOnUse"
       y2="232"
       x2="64"
       y1="262.5"
       x1="64"
       id="linearGradient1027"
       xlink:href="#linearGradient1025"
       gradientTransform="translate(-470.5864,432.81685)" /><linearGradient
       id="linearGradient1025"><stop
         id="stop1021"
         offset="0"
         style="stop-color:#9a9996;stop-opacity:1" /><stop
         id="stop1023"
         offset="1"
         style="stop-color:#77767b;stop-opacity:1" /></linearGradient><inkscape:path-effect
       effect="spiro"
       id="path-effect35304-9"
       is_visible="true" /><clipPath
       clipPathUnits="userSpaceOnUse"
       id="clipPath1609-7"><path
         sodipodi:nodetypes="cccccc"
         inkscape:connector-curvature="0"
         id="path1611-5"
         d="m 252,116 28,-28 v -8 h -36 v 36 z"
         style="fill:#e74747;stroke:none;stroke-width:0.25px;stroke-linecap:butt;stroke-linejoin:miter;stroke-opacity:1" /></clipPath><clipPath
       clipPathUnits="userSpaceOnUse"
       id="clipPath961"><rect
         style="fill:#00c853;stroke:none;stroke-width:0.529037"
         id="rect963"
         width="541.86664"
         height="541.86664"
         x="1.4210855e-14"
         y="2.717972e-05"
         rx="79.375"
         ry="79.375" /></clipPath><linearGradient
       id="d"><stop
         offset="0"
         stop-color="#f9f06b"
         id="stop865" /><stop
         offset="1"
         stop-color="#f6d32d"
         id="stop867" /></linearGradient><linearGradient
       id="e"><stop
         offset="0"
         stop-color="#2dc0af"
         id="stop870" /><stop
         offset="1"
         stop-color="#5ed9cb"
         id="stop872" /></linearGradient><linearGradient
       id="f"><stop
         offset="0"
         stop-color="#fff"
         id="stop875" /><stop
         offset="1"
         stop-color="#fff"
         stop-opacity="0"
         id="stop877" /></linearGradient><linearGradient
       id="g"><stop
         offset="0"
         stop-color="#2dc0af"
         id="stop880" /><stop
         offset="1"
         stop-color="#3584e4"
         id="stop882" /></linearGradient><linearGradient
       id="h"><stop
         offset="0"
         stop-color="#c061cb"
         id="stop885" /><stop
         offset="1"
         stop-color="#8f58c8"
         id="stop887" /></linearGradient><linearGradient
       xlink:href="#d"
       id="m"
       gradientUnits="userSpaceOnUse"
       x1="529.288"
       y1="441.731"
       x2="543.341"
       y2="408.599"
       gradientTransform="translate(-461.557,-35.819)" /><linearGradient
       xlink:href="#e"
       id="l"
       gradientUnits="userSpaceOnUse"
       x1="529.288"
       y1="441.731"
       x2="543.341"
       y2="408.599"
       gradientTransform="rotate(-120,320.2,508.254)" /><linearGradient
       xlink:href="#f"
       id="k"
       x1="56"
       y1="252"
       x2="0"
       y2="244"
       gradientUnits="userSpaceOnUse"
       gradientTransform="translate(42.443,122.181)" /><linearGradient
       gradientTransform="translate(42.443,122.181)"
       xlink:href="#g"
       id="j"
       x1="64"
       y1="260"
       x2="80"
       y2="220"
       gradientUnits="userSpaceOnUse" /><linearGradient
       gradientTransform="translate(42.443,122.181)"
       xlink:href="#h"
       id="i"
       x1="32"
       y1="239.25"
       x2="56"
       y2="196"
       gradientUnits="userSpaceOnUse" /><clipPath
       clipPathUnits="userSpaceOnUse"
       id="clipPath1891"><rect
         style="fill:#b3b3b3;stroke:none;stroke-width:0.529037"
         id="rect1893"
         width="541.86664"
         height="541.86664"
         x="2.2119139e-06"
         y="4.8096284e-05"
         rx="79.375"
         ry="79.375" /></clipPath><linearGradient
       id="linearGradient1494"><stop
         id="stop1490"
         offset="0"
         style="stop-color:#babdb6;stop-opacity:1;" /><stop
         id="stop1492"
         offset="1"
         style="stop-color:#babdb6;stop-opacity:0;" /></linearGradient><linearGradient
       gradientUnits="userSpaceOnUse"
       y2="20"
       x2="280"
       y1="172"
       x1="280"
       id="linearGradient1496"
       xlink:href="#linearGradient1494" /><linearGradient
       inkscape:collect="always"
       xlink:href="#linearGradient968"
       id="linearGradient970"
       x1="1.5731626"
       y1="7.8303881"
       x2="14.573318"
       y2="7.8303881"
       gradientUnits="userSpaceOnUse"
       gradientTransform="matrix(2.3326989,0,0,2.3326989,46.174296,59.62683)" /><linearGradient
       id="linearGradient968"
       inkscape:swatch="solid"><stop
         style="stop-color:#ffffff;stop-opacity:1;"
         offset="0"
         id="stop966" /></linearGradient><linearGradient
       inkscape:collect="always"
       xlink:href="#linearGradient1008"
       id="linearGradient1010"
       x1="17.191406"
       y1="112.08105"
       x2="110.80859"
       y2="112.08105"
       gradientUnits="userSpaceOnUse"
       gradientTransform="matrix(1.014771,0,0,1.001989,-0.25393363,6.7449404)" /><linearGradient
       inkscape:collect="always"
       xlink:href="#linearGradient3245"
       id="linearGradient3247"
       x1="-16.12431"
       y1="27.232536"
       x2="-16.12431"
       y2="116.02655"
       gradientUnits="userSpaceOnUse"
       gradientTransform="matrix(1.014771,0,0,1.001989,80.927742,-0.05566419)" /><radialGradient
       inkscape:collect="always"
       xlink:href="#linearGradient3811"
       id="radialGradient3813"
       cx="64"
       cy="35.970905"
       fx="64"
       fy="35.970905"
       r="22.644531"
       gradientTransform="matrix(0.98240272,0,-1.8547524e-8,1.1630932,1.1262262,-8.9690678)"
       gradientUnits="userSpaceOnUse" /></defs><g
     inkscape:groupmode="layer"
     id="layer2"
     inkscape:label="Layer 1"><g
       id="g1263"
       transform="translate(0,-4.4548011)"><g
         transform="rotate(-30,39.642951,512.35152)"
         id="g1710" /><g
         id="g3753"
         transform="translate(-0.691408,-3.5644004)"><path
           id="path1578"
           style="fill:url(#linearGradient3247);fill-opacity:1;stroke-width:1.5735"
           d="m 17.191868,27.985618 v 7.652084 11.145586 64.745652 c 0,4.23927 3.870685,7.65209 8.678656,7.65209 h 77.641756 c 4.80798,0 8.67867,-3.41282 8.67867,-7.65209 V 46.783288 35.637702 27.985618 h -8.67867 -77.641756 z" /><path
           id="path1580"
           style="fill:#e7f0fc;fill-opacity:1;stroke-width:1.5113"
           d="m 19.069579,29.788147 v 7.349589 10.704988 62.186176 c 0,4.07169 3.717673,7.3496 8.335579,7.3496 h 74.572482 c 4.61792,0 8.3356,-3.27791 8.3356,-7.3496 V 47.842724 37.137736 29.788147 h -8.3356 -74.572482 z" /><path
           id="path1852"
           style="fill:url(#linearGradient1010);fill-opacity:1;stroke-width:1.71297"
           d="m 17.191406,110.11225 v 2.00398 4.79663 2.00398 c 0,5.02395 3.871104,9.06878 8.679067,9.06878 h 77.641867 c 4.80797,0 8.67907,-4.04483 8.67907,-9.06878 v -2.00398 -4.79663 -2.00398 c 0,5.02393 -3.8711,9.06878 -8.67907,9.06878 H 25.870473 c -4.807963,0 -8.679067,-4.04485 -8.679067,-9.06878 z" /></g><circle
         r="5.9444656"
         cy="38.961525"
         cx="83.814346"
         id="circle1049"
         style="fill:#1a5fb4;fill-opacity:1;stroke:none;stroke-width:4.75557;stroke-linecap:round;stroke-linejoin:round;stroke-miterlimit:4;stroke-dasharray:none;stroke-dashoffset:0;stroke-opacity:1" /><circle
         r="5.9444656"
         cy="38.961525"
         cx="44.185658"
         id="circle1576"
         style="fill:#1a5fb4;fill-opacity:1;stroke:none;stroke-width:4.75557;stroke-linecap:round;stroke-linejoin:round;stroke-miterlimit:4;stroke-dasharray:none;stroke-dashoffset:0;stroke-opacity:1" /><path
         id="circle3822"
         style="fill:#71acf1;fill-opacity:1;stroke:none;stroke-width:4.75557;stroke-linecap:round;stroke-linejoin:round;stroke-miterlimit:4;stroke-dasharray:none;stroke-dashoffset:0;stroke-opacity:1"
         d="m 83.814453,31.017578 a 5.9444656,5.9444656 0 0 0 -5.945312,5.94336 5.9444656,5.9444656 0 0 0 0.09375,1 5.9444656,5.9444656 0 0 1 5.851562,-4.94336 5.9444656,5.9444656 0 0 1 5.855469,4.925781 5.9444656,5.9444656 0 0 0 0.08984,-0.982421 5.9444656,5.9444656 0 0 0 -5.945313,-5.94336 z" /><path
         id="path3896"
         style="fill:#71acf1;fill-opacity:1;stroke:none;stroke-width:4.75557;stroke-linecap:round;stroke-linejoin:round;stroke-miterlimit:4;stroke-dasharray:none;stroke-dashoffset:0;stroke-opacity:1"
         d="m 44.18481,31.017578 a 5.9444656,5.9444656 0 0 0 -5.945312,5.94336 5.9444656,5.9444656 0 0 0 0.09375,1 5.9444656,5.9444656 0 0 1 5.851562,-4.94336 5.9444656,5.9444656 0 0 1 5.855469,4.925781 5.9444656,5.9444656 0 0 0 0.08984,-0.982421 5.9444656,5.9444656 0 0 0 -5.945313,-5.94336 z" /><path
         style="color:#000000;fill:url(#radialGradient3813);stroke-linecap:round;stroke-linejoin:round;-inkscape-stroke:none"
         d="m 64,4.4883825 c -12.496337,0 -22.644531,10.1501475 -22.644531,22.6464845 v 11.322266 a 2.8306201,2.8306201 0 0 0 2.830078,2.830078 2.8306201,2.8306201 0 0 0 2.830078,-2.830078 V 27.134867 c 0,-9.457936 7.526438,-16.984375 16.984375,-16.984375 9.457937,0 16.984375,7.526438 16.984375,16.984375 v 11.322266 a 2.8306201,2.8306201 0 0 0 2.830078,2.830078 2.8306201,2.8306201 0 0 0 2.830078,-2.830078 V 27.134867 C 86.644531,14.63853 76.496337,4.4883825 64,4.4883825 Z"
         id="rect1044" /><g
         id="g3762"
         transform="matrix(0.9723864,0,0,0.9723864,0.35796493,1.1494137)"><path
           style="display:inline;fill:#3584e4;fill-opacity:1;stroke:none;stroke-width:0.0145702;stroke-linecap:butt;stroke-linejoin:miter;stroke-miterlimit:4;stroke-dasharray:none;stroke-dashoffset:0;stroke-opacity:1;marker:none;marker-start:none;marker-mid:none;marker-end:none;paint-order:normal;enable-background:new"
           d="m 65.449331,51.709655 c -14.630728,0 -26.491275,11.860555 -26.491283,26.491285 8e-6,14.630739 11.860555,26.49128 26.491283,26.49128 14.630729,0 26.491279,-11.860541 26.491281,-26.49128 C 91.94061,63.57021 80.08006,51.709655 65.449331,51.709655 Z"
           id="path920"
           sodipodi:nodetypes="sssss" /><path
           d="m 76.973163,59.255675 c -7.756223,0 -9.209494,11.04533 -4.847348,11.04533 4.362147,0 12.601238,-11.04533 4.845015,-11.04533 z M 64.096666,68.93171 c 2.321038,0.139907 4.870678,-8.864262 0.506194,-8.29742 -4.364477,0.566853 -2.829563,8.155126 -0.506194,8.29742 z m -10.644105,5.596149 c 1.65155,-0.727818 0.209942,-7.837864 -2.596297,-5.901733 -2.808565,1.940807 0.944744,6.627199 2.596297,5.901733 z m 4.653734,-3.725325 c 1.966465,-0.398893 2.076102,-8.465353 -1.432278,-7.019098 -3.508381,1.44628 -0.531856,7.422657 1.432278,7.02144 z m 10.268542,18.052755 c 0.349906,2.663947 -1.954801,3.979582 -4.210524,2.26272 -7.184712,-5.467844 11.889766,-8.194773 10.632441,-15.666397 -1.042716,-6.200331 -20.068206,-4.292178 -22.235284,5.41185 -1.464937,6.561893 6.037026,15.666409 13.865564,15.666409 3.851282,0 8.295075,-3.478057 9.125515,-7.884524 0.634495,-3.359087 -7.469299,-2.013116 -7.177712,0.209942 z"
           fill="#474747"
           id="path133"
           style="fill:url(#linearGradient970);fill-opacity:1;stroke-width:2.3327" /></g><g
         style="fill:url(#linearGradient1496);fill-opacity:1"
         id="g1480"
         transform="translate(-151.01795,-154.52665)" /><path
         id="circle3815"
         style="fill:#ffffff;fill-opacity:1;stroke:none;stroke-width:4.75557;stroke-linecap:round;stroke-linejoin:round;stroke-miterlimit:4;stroke-dasharray:none;stroke-dashoffset:0;stroke-opacity:1"
         d="m 89.669922,39.943359 a 5.9444656,5.9444656 0 0 1 -5.855469,4.962891 5.9444656,5.9444656 0 0 1 -5.851562,-4.945312 5.9444656,5.9444656 0 0 0 -0.09375,1 5.9444656,5.9444656 0 0 0 5.945312,5.945312 5.9444656,5.9444656 0 0 0 5.945313,-5.945312 5.9444656,5.9444656 0 0 0 -0.08984,-1.017579 z" /><path
         id="path3820"
         style="fill:#ffffff;fill-opacity:1;stroke:none;stroke-width:4.75557;stroke-linecap:round;stroke-linejoin:round;stroke-miterlimit:4;stroke-dasharray:none;stroke-dashoffset:0;stroke-opacity:1"
         d="m 50.040279,39.943359 a 5.9444656,5.9444656 0 0 1 -5.855469,4.962891 5.9444656,5.9444656 0 0 1 -5.851562,-4.945312 5.9444656,5.9444656 0 0 0 -0.09375,1 5.9444656,5.9444656 0 0 0 5.945312,5.945312 5.9444656,5.9444656 0 0 0 5.945313,-5.945312 5.9444656,5.9444656 0 0 0 -0.08984,-1.017579 z" /></g></g></svg>
