<?xml version="1.0" encoding="UTF-8" standalone="no"?>
<!-- Created with Inkscape (http://www.inkscape.org/) -->

<svg
   width="128"
   height="128"
   viewBox="0 0 128 128"
   version="1.1"
   id="svg5"
   inkscape:version="1.2 (dc2aedaf03, 2022-05-15)"
   sodipodi:docname="org.gnome.Software.svg"
   xml:space="preserve"
   xmlns:inkscape="http://www.inkscape.org/namespaces/inkscape"
   xmlns:sodipodi="http://sodipodi.sourceforge.net/DTD/sodipodi-0.dtd"
   xmlns:xlink="http://www.w3.org/1999/xlink"
   xmlns="http://www.w3.org/2000/svg"
   xmlns:svg="http://www.w3.org/2000/svg"><sodipodi:namedview
     id="namedview7"
     pagecolor="#ffffff"
     bordercolor="#666666"
     borderopacity="1"
     inkscape:pageshadow="2"
     inkscape:pageopacity="0.0"
     inkscape:pagecheckerboard="true"
     inkscape:document-units="px"
     showgrid="false"
     inkscape:showpageshadow="false"
     showborder="true"
     inkscape:snap-page="true"
     inkscape:snap-bbox="true"
     inkscape:bbox-paths="true"
     inkscape:bbox-nodes="true"
     inkscape:snap-bbox-edge-midpoints="true"
     inkscape:snap-bbox-midpoints="true"
     inkscape:object-paths="true"
     inkscape:zoom="5.3343347"
     inkscape:cx="55.020919"
     inkscape:cy="72.267681"
     inkscape:window-width="1366"
     inkscape:window-height="731"
     inkscape:window-x="0"
     inkscape:window-y="0"
     inkscape:window-maximized="1"
     inkscape:current-layer="layer2"
     inkscape:deskcolor="#d1d1d1" /><defs
     id="defs2"><linearGradient
       inkscape:collect="always"
       id="linearGradient445"><stop
         style="stop-color:#0066ff;stop-opacity:1"
         offset="0"
         id="stop441" /><stop
         style="stop-color:#5fbcd3;stop-opacity:1"
         offset="1"
         id="stop443" /></linearGradient><linearGradient
       inkscape:collect="always"
       id="linearGradient437"><stop
         style="stop-color:#7f2aff;stop-opacity:1"
         offset="0"
         id="stop433" /><stop
         style="stop-color:#cc00ff;stop-opacity:1"
         offset="1"
         id="stop435" /></linearGradient><linearGradient
       inkscape:collect="always"
       id="linearGradient365"><stop
         style="stop-color:#ff5555;stop-opacity:1"
         offset="0"
         id="stop361" /><stop
         style="stop-color:#ff9955;stop-opacity:1"
         offset="1"
         id="stop363" /></linearGradient><linearGradient
       y2="236"
       x2="96"
       y1="236"
       x1="32"
       gradientTransform="translate(604.81684,170.58641)"
       gradientUnits="userSpaceOnUse"
       id="linearGradient1099"
       xlink:href="#linearGradient1036" /><linearGradient
       id="linearGradient1036"><stop
         id="stop1032"
         offset="0"
         style="stop-color:#d5d3cf;stop-opacity:1;" /><stop
         id="stop1034"
         offset="1"
         style="stop-color:#f6f5f4;stop-opacity:1" /></linearGradient><radialGradient
       r="32"
       fy="-76"
       fx="-244"
       cy="-76"
       cx="-244"
       gradientTransform="matrix(0.88333331,0,0,0.88333331,-460.35018,463.11973)"
       gradientUnits="userSpaceOnUse"
       id="radialGradient1103"
       xlink:href="#linearGradient1069" /><linearGradient
       id="linearGradient1069"><stop
         id="stop1065"
         offset="0"
         style="stop-color:#d5d3cf;stop-opacity:1" /><stop
         id="stop1067-1"
         offset="1"
         style="stop-color:#949390;stop-opacity:1" /></linearGradient><linearGradient
       gradientUnits="userSpaceOnUse"
       y2="232"
       x2="64"
       y1="262.5"
       x1="64"
       id="linearGradient1027"
       xlink:href="#linearGradient1025"
       gradientTransform="translate(-470.5864,432.81685)" /><linearGradient
       id="linearGradient1025"><stop
         id="stop1021"
         offset="0"
         style="stop-color:#9a9996;stop-opacity:1" /><stop
         id="stop1023"
         offset="1"
         style="stop-color:#77767b;stop-opacity:1" /></linearGradient><inkscape:path-effect
       effect="spiro"
       id="path-effect35304-9"
       is_visible="true" /><clipPath
       clipPathUnits="userSpaceOnUse"
       id="clipPath1609-7"><path
         sodipodi:nodetypes="cccccc"
         inkscape:connector-curvature="0"
         id="path1611-5"
         d="m 252,116 28,-28 v -8 h -36 v 36 z"
         style="fill:#e74747;stroke:none;stroke-width:0.25px;stroke-linecap:butt;stroke-linejoin:miter;stroke-opacity:1" /></clipPath><clipPath
       clipPathUnits="userSpaceOnUse"
       id="clipPath961"><rect
         style="fill:#00c853;stroke:none;stroke-width:0.529037"
         id="rect963"
         width="541.86664"
         height="541.86664"
         x="1.4210855e-14"
         y="2.717972e-05"
         rx="79.375"
         ry="79.375" /></clipPath><linearGradient
       id="d"><stop
         offset="0"
         stop-color="#f9f06b"
         id="stop865" /><stop
         offset="1"
         stop-color="#f6d32d"
         id="stop867" /></linearGradient><linearGradient
       id="e"><stop
         offset="0"
         stop-color="#2dc0af"
         id="stop870" /><stop
         offset="1"
         stop-color="#5ed9cb"
         id="stop872" /></linearGradient><linearGradient
       id="f"><stop
         offset="0"
         stop-color="#fff"
         id="stop875" /><stop
         offset="1"
         stop-color="#fff"
         stop-opacity="0"
         id="stop877" /></linearGradient><linearGradient
       id="g"><stop
         offset="0"
         stop-color="#2dc0af"
         id="stop880" /><stop
         offset="1"
         stop-color="#3584e4"
         id="stop882" /></linearGradient><linearGradient
       id="h"><stop
         offset="0"
         stop-color="#c061cb"
         id="stop885" /><stop
         offset="1"
         stop-color="#8f58c8"
         id="stop887" /></linearGradient><linearGradient
       xlink:href="#d"
       id="m"
       gradientUnits="userSpaceOnUse"
       x1="529.288"
       y1="441.731"
       x2="543.341"
       y2="408.599"
       gradientTransform="translate(-461.557,-35.819)" /><linearGradient
       xlink:href="#e"
       id="l"
       gradientUnits="userSpaceOnUse"
       x1="529.288"
       y1="441.731"
       x2="543.341"
       y2="408.599"
       gradientTransform="rotate(-120,320.2,508.254)" /><linearGradient
       xlink:href="#f"
       id="k"
       x1="56"
       y1="252"
       x2="0"
       y2="244"
       gradientUnits="userSpaceOnUse"
       gradientTransform="translate(42.443,122.181)" /><linearGradient
       gradientTransform="translate(42.443,122.181)"
       xlink:href="#g"
       id="j"
       x1="64"
       y1="260"
       x2="80"
       y2="220"
       gradientUnits="userSpaceOnUse" /><linearGradient
       gradientTransform="translate(42.443,122.181)"
       xlink:href="#h"
       id="i"
       x1="32"
       y1="239.25"
       x2="56"
       y2="196"
       gradientUnits="userSpaceOnUse" /><clipPath
       clipPathUnits="userSpaceOnUse"
       id="clipPath1891"><rect
         style="fill:#b3b3b3;stroke:none;stroke-width:0.529037"
         id="rect1893"
         width="541.86664"
         height="541.86664"
         x="2.2119139e-06"
         y="4.8096284e-05"
         rx="79.375"
         ry="79.375" /></clipPath><linearGradient
       inkscape:collect="always"
       xlink:href="#linearGradient437"
       id="linearGradient439"
       x1="88.019882"
       y1="33.452549"
       x2="88.019882"
       y2="57.452549"
       gradientUnits="userSpaceOnUse"
       gradientTransform="matrix(-0.85199101,0,0,0.85199101,126.13816,16.016656)" /><linearGradient
       inkscape:collect="always"
       xlink:href="#linearGradient445"
       id="linearGradient447"
       x1="75.50035"
       y1="77.45255"
       x2="100.01988"
       y2="77.45255"
       gradientUnits="userSpaceOnUse"
       gradientTransform="matrix(-0.85199101,0,0,0.85199101,127.96626,22.165711)" /><linearGradient
       inkscape:collect="always"
       xlink:href="#linearGradient365"
       id="linearGradient252"
       gradientUnits="userSpaceOnUse"
       gradientTransform="matrix(-0.85199101,0,0,0.85199101,133.27726,20.728984)"
       x1="48.01988"
       y1="61.45255"
       x2="72.01988"
       y2="61.45255" /></defs><g
     inkscape:groupmode="layer"
     id="layer2"
     inkscape:label="Layer 1"><path
       id="path4727"
       style="fill:#cccccc;stroke-width:1.0518"
       d="M 109.63281 106.33789 C 108.71583 109.99328 105.43003 112.68945 101.48242 112.68945 L 26.533203 112.68945 C 22.711108 112.68945 19.295919 110.15656 18.359375 106.68164 L 18.119141 110.27539 C 17.808333 114.9266 21.87165 118.68945 26.533203 118.68945 L 101.48242 118.68945 C 106.14399 118.68945 109.89648 114.93697 109.89648 110.27539 L 109.63281 106.33789 z " /><path
       id="path1673"
       style="fill:#f2f2f2;stroke-width:1.0518"
       d="m 18.119471,30.176076 2.103601,42.618457 -2.103601,31.480057 c -0.310808,4.65121 3.75284,8.4144 8.414403,8.4144 h 74.948986 c 4.66157,0 8.4144,-3.75282 8.4144,-8.4144 l -2.1036,-31.480057 2.1036,-42.618457 z" /><g
       id="g3936"
       transform="matrix(0.98214284,0,0,0.98214284,1.1428592,0.16071642)"><path
         id="rect1439"
         style="fill:#b3b3b3;stroke-width:2.27487"
         d="M 50.857128,8.9999979 42.82729,17.029836 H 85.172713 L 77.142874,8.9999979 Z" /><path
         id="rect1435"
         style="fill:#e6e6e6;stroke-width:1.71575"
         d="m 50.857128,8.9999979 -8.029838,8.0298381 2.141848,16.057585 h 8.029838 z"
         sodipodi:nodetypes="ccccc" /><path
         id="rect1437"
         style="fill:#e6e6e6;stroke-width:1.71575"
         d="M 77.140783,8.9999979 74.998935,33.087421 h 8.03193 L 85.172713,17.029836 77.142874,8.9999979 Z"
         sodipodi:nodetypes="cccccc" /></g><path
       id="rect1505"
       style="fill:#ffffff;stroke-width:1.12809"
       d="M 18.111103,30.176076 H 109.88891 L 107.7853,72.794233 H 20.214704 Z"
       sodipodi:nodetypes="ccccc" /><path
       d="m 51.14601,64.965716 c 5.647771,0 10.223892,-4.576123 10.223892,-10.223892 0,-5.647769 -4.576121,-10.223893 -10.223892,-10.223893 -5.647772,0 -10.223893,4.576124 -10.223893,10.223893 0,5.647769 4.576121,10.223892 10.223893,10.223892 z m 0,0"
       fill="url(#b)"
       id="path262"
       style="fill:url(#linearGradient439);stroke-width:0.851991" /><path
       d="m 47.189889,77.05874 14.976401,8.559847 c 0.911902,0.519183 1.474344,1.487656 1.474344,2.536005 0,1.048349 -0.562442,2.016824 -1.474344,2.536004 l -14.9764,8.559849 c -0.918556,0.525837 -2.046781,0.519182 -2.961999,-0.0099 -0.915226,-0.532548 -1.477676,-1.50768 -1.477676,-2.566012 V 79.634682 c 0,-1.058333 0.56245,-2.033463 1.477676,-2.565957 0.915217,-0.529166 2.04344,-0.535823 2.961999,-0.0099 z m 0,0"
       fill="url(#c)"
       id="path264"
       style="fill:url(#linearGradient447);stroke-width:0.851991" /><path
       id="path250"
       style="fill:url(#linearGradient252);stroke-width:0.851991"
       d="m 78.733423,62.862004 c -3.764061,0 -6.816157,3.052097 -6.816157,6.81616 v 3.116369 3.69979 c 0,0.470507 0.04684,0.928589 0.137637,1.37227 v 0.0021 c 0.04534,0.221164 0.102256,0.438422 0.168452,0.651213 v 0.0021 c 0.0043,0.01389 0.01,0.02724 0.01438,0.04108 0.0069,0.02149 0.0155,0.04227 0.02259,0.06369 0.03437,0.10357 0.07004,0.206946 0.108877,0.308143 0.01725,0.04486 0.03525,0.08913 0.05341,0.13353 0.05249,0.1285 0.106433,0.255604 0.166399,0.380045 0.09574,0.198652 0.200445,0.391932 0.314307,0.579312 0.235079,0.386869 0.508645,0.74706 0.813502,1.078506 0.0049,0.0054 0.0094,0.0111 0.01438,0.01643 0.207689,0.224359 0.42965,0.43595 0.665593,0.630671 h 0.0021 c 0.117492,0.09693 0.239707,0.190378 0.36361,0.279384 0.01835,0.0132 0.03698,0.02601 0.05546,0.03903 0.124478,0.08755 0.249636,0.171383 0.380045,0.250625 0.04069,0.02475 0.08201,0.04799 0.123258,0.0719 0.05383,0.03118 0.107542,0.0627 0.162291,0.09244 h 0.0021 c 0.09606,0.05215 0.192933,0.104423 0.29171,0.152018 h 0.0021 c 0.09877,0.04757 0.198574,0.09271 0.299927,0.135583 h 0.0021 c 0.02849,0.01204 0.05759,0.02326 0.08628,0.03493 0.176017,0.07156 0.35524,0.138238 0.538226,0.195159 0.426842,0.132774 0.872949,0.224624 1.331185,0.271168 0.229119,0.02328 0.461153,0.03491 0.696407,0.03491 h 6.816159 c 0.235254,0 0.467289,-0.01166 0.696408,-0.03491 0.458235,-0.04654 0.902288,-0.138394 1.32913,-0.271168 h 0.0021 c 0.212775,-0.06625 0.42124,-0.144101 0.624507,-0.230082 0.203857,-0.08622 0.402593,-0.182669 0.595746,-0.287601 0.193154,-0.104938 0.381571,-0.21852 0.562878,-0.341013 0.149299,-0.100868 0.292939,-0.208352 0.433457,-0.320472 0.09153,-0.07304 0.181518,-0.148402 0.269113,-0.225971 0.04281,-0.03792 0.08553,-0.07608 0.127366,-0.115042 0.02877,-0.02679 0.056,-0.05497 0.08423,-0.08217 0.06455,-0.06222 0.129144,-0.124519 0.191049,-0.188997 0.118939,-0.123942 0.233644,-0.251564 0.343068,-0.384153 0.13891,-0.168316 0.269878,-0.342539 0.392371,-0.523846 0.122493,-0.181307 0.236081,-0.369725 0.341014,-0.562878 0.104938,-0.193152 0.20137,-0.391888 0.287601,-0.595746 0.344925,-0.815433 0.536172,-1.711082 0.536172,-2.652098 V 72.79463 69.67826 c 0,-3.764062 -3.052095,-6.816159 -6.816159,-6.816159 z" /></g></svg>
