<?xml version="1.0" encoding="UTF-8" standalone="no"?>
<!-- Created with Inkscape (http://www.inkscape.org/) -->

<svg
   width="128"
   height="128"
   viewBox="0 0 128 128"
   version="1.1"
   id="svg5"
   inkscape:version="1.2.2 (b0a8486541, 2022-12-01)"
   sodipodi:docname="org.godotengine.Godot.svg"
   xml:space="preserve"
   xmlns:inkscape="http://www.inkscape.org/namespaces/inkscape"
   xmlns:sodipodi="http://sodipodi.sourceforge.net/DTD/sodipodi-0.dtd"
   xmlns:xlink="http://www.w3.org/1999/xlink"
   xmlns="http://www.w3.org/2000/svg"
   xmlns:svg="http://www.w3.org/2000/svg"><sodipodi:namedview
     id="namedview7"
     pagecolor="#ffffff"
     bordercolor="#666666"
     borderopacity="1"
     inkscape:pageshadow="2"
     inkscape:pageopacity="0.0"
     inkscape:pagecheckerboard="true"
     inkscape:document-units="px"
     showgrid="false"
     inkscape:showpageshadow="false"
     showborder="true"
     inkscape:snap-page="true"
     inkscape:zoom="2"
     inkscape:cx="127.5"
     inkscape:cy="117.5"
     inkscape:window-width="1366"
     inkscape:window-height="731"
     inkscape:window-x="0"
     inkscape:window-y="0"
     inkscape:window-maximized="1"
     inkscape:current-layer="layer2"
     inkscape:deskcolor="#d1d1d1" /><defs
     id="defs2"><linearGradient
       inkscape:collect="always"
       id="linearGradient1265"><stop
         style="stop-color:#51a0da;stop-opacity:1;"
         offset="0"
         id="stop1261" /><stop
         style="stop-color:#ffffff;stop-opacity:1"
         offset="1"
         id="stop1263" /></linearGradient><linearGradient
       inkscape:collect="always"
       id="linearGradient404"><stop
         style="stop-color:#eaf5fd;stop-opacity:1;"
         offset="0"
         id="stop400" /><stop
         style="stop-color:#ffffff;stop-opacity:1"
         offset="1"
         id="stop402" /></linearGradient><linearGradient
       y2="236"
       x2="96"
       y1="236"
       x1="32"
       gradientTransform="translate(604.81684,170.58641)"
       gradientUnits="userSpaceOnUse"
       id="linearGradient1099"
       xlink:href="#linearGradient1036" /><linearGradient
       id="linearGradient1036"><stop
         id="stop1032"
         offset="0"
         style="stop-color:#d5d3cf;stop-opacity:1;" /><stop
         id="stop1034"
         offset="1"
         style="stop-color:#f6f5f4;stop-opacity:1" /></linearGradient><radialGradient
       r="32"
       fy="-76"
       fx="-244"
       cy="-76"
       cx="-244"
       gradientTransform="matrix(0.88333331,0,0,0.88333331,-460.35018,463.11973)"
       gradientUnits="userSpaceOnUse"
       id="radialGradient1103"
       xlink:href="#linearGradient1069" /><linearGradient
       id="linearGradient1069"><stop
         id="stop1065"
         offset="0"
         style="stop-color:#d5d3cf;stop-opacity:1" /><stop
         id="stop1067-1"
         offset="1"
         style="stop-color:#949390;stop-opacity:1" /></linearGradient><linearGradient
       gradientUnits="userSpaceOnUse"
       y2="232"
       x2="64"
       y1="262.5"
       x1="64"
       id="linearGradient1027"
       xlink:href="#linearGradient1025"
       gradientTransform="translate(-470.5864,432.81685)" /><linearGradient
       id="linearGradient1025"><stop
         id="stop1021"
         offset="0"
         style="stop-color:#9a9996;stop-opacity:1" /><stop
         id="stop1023"
         offset="1"
         style="stop-color:#77767b;stop-opacity:1" /></linearGradient><inkscape:path-effect
       effect="spiro"
       id="path-effect35304-9"
       is_visible="true" /><clipPath
       clipPathUnits="userSpaceOnUse"
       id="clipPath1609-7"><path
         sodipodi:nodetypes="cccccc"
         inkscape:connector-curvature="0"
         id="path1611-5"
         d="m 252,116 28,-28 v -8 h -36 v 36 z"
         style="fill:#e74747;stroke:none;stroke-width:0.25px;stroke-linecap:butt;stroke-linejoin:miter;stroke-opacity:1" /></clipPath><linearGradient
       inkscape:collect="always"
       id="linearGradient8241"><stop
         style="stop-color:#55a2db;stop-opacity:1;"
         offset="0"
         id="stop8237" /><stop
         style="stop-color:#74c3fd;stop-opacity:1;"
         offset="0.05"
         id="stop9349" /><stop
         style="stop-color:#55a2db;stop-opacity:1;"
         offset="0.1"
         id="stop21746" /><stop
         style="stop-color:#55a2db;stop-opacity:1;"
         offset="0.89999998"
         id="stop21940" /><stop
         style="stop-color:#74c3fd;stop-opacity:1;"
         offset="0.94999999"
         id="stop9351" /><stop
         style="stop-color:#55a2db;stop-opacity:1;"
         offset="1"
         id="stop8239" /></linearGradient><radialGradient
       r="32"
       fy="-76"
       fx="-244"
       cy="-76"
       cx="-244"
       gradientTransform="matrix(0.88333331,0,0,0.88333331,-460.35018,463.11973)"
       gradientUnits="userSpaceOnUse"
       id="radialGradient1103-5"
       xlink:href="#linearGradient1069" /><inkscape:path-effect
       effect="spiro"
       id="path-effect35304-9-2"
       is_visible="true" /><clipPath
       clipPathUnits="userSpaceOnUse"
       id="clipPath1609-7-7"><path
         sodipodi:nodetypes="cccccc"
         inkscape:connector-curvature="0"
         id="path1611-5-0"
         d="m 252,116 28,-28 v -8 h -36 v 36 z"
         style="fill:#e74747;stroke:none;stroke-width:0.25px;stroke-linecap:butt;stroke-linejoin:miter;stroke-opacity:1" /></clipPath><clipPath
       clipPathUnits="userSpaceOnUse"
       id="clipPath744"><rect
         style="fill:#1e88e5;fill-opacity:1;stroke-width:0.264583"
         id="rect746"
         width="541.86664"
         height="541.86664"
         x="0"
         y="1.5987212e-14"
         rx="79.375"
         ry="79.375" /></clipPath><clipPath
       clipPathUnits="userSpaceOnUse"
       id="clipPath62"><rect
         style="fill:#1e88e5;fill-opacity:1;stroke-width:0.264583"
         id="rect64"
         width="541.86664"
         height="541.86664"
         x="2.2507105e-05"
         y="-0.42205024"
         rx="79.375"
         ry="79.375" /></clipPath><linearGradient
       inkscape:collect="always"
       xlink:href="#linearGradient8241"
       id="linearGradient8243"
       x1="11.5"
       y1="120.5"
       x2="116.5"
       y2="120.5"
       gradientUnits="userSpaceOnUse" /><radialGradient
       r="32"
       fy="-76"
       fx="-244"
       cy="-76"
       cx="-244"
       gradientTransform="matrix(0.88333331,0,0,0.88333331,-460.35018,463.11973)"
       gradientUnits="userSpaceOnUse"
       id="radialGradient1103-6"
       xlink:href="#linearGradient1069" /><inkscape:path-effect
       effect="spiro"
       id="path-effect35304-9-20"
       is_visible="true" /><clipPath
       clipPathUnits="userSpaceOnUse"
       id="clipPath1609-7-2"><path
         sodipodi:nodetypes="cccccc"
         inkscape:connector-curvature="0"
         id="path1611-5-3"
         d="m 252,116 28,-28 v -8 h -36 v 36 z"
         style="fill:#e74747;stroke:none;stroke-width:0.25px;stroke-linecap:butt;stroke-linejoin:miter;stroke-opacity:1" /></clipPath><radialGradient
       r="32"
       fy="-76"
       fx="-244"
       cy="-76"
       cx="-244"
       gradientTransform="matrix(0.88333331,0,0,0.88333331,-460.35018,463.11973)"
       gradientUnits="userSpaceOnUse"
       id="radialGradient1103-56"
       xlink:href="#linearGradient1069" /><inkscape:path-effect
       effect="spiro"
       id="path-effect35304-9-7"
       is_visible="true" /><clipPath
       clipPathUnits="userSpaceOnUse"
       id="clipPath1609-7-0"><path
         sodipodi:nodetypes="cccccc"
         inkscape:connector-curvature="0"
         id="path1611-5-9"
         d="m 252,116 28,-28 v -8 h -36 v 36 z"
         style="fill:#e74747;stroke:none;stroke-width:0.25px;stroke-linecap:butt;stroke-linejoin:miter;stroke-opacity:1" /></clipPath><clipPath
       clipPathUnits="userSpaceOnUse"
       id="clipPath37"><rect
         style="fill:#1a1a1a;fill-opacity:1;stroke-width:0.264583"
         id="rect39"
         width="541.86664"
         height="541.86664"
         x="-2.6626146e-06"
         y="3.2408705"
         rx="79.375"
         ry="79.375" /></clipPath><clipPath
       clipPathUnits="userSpaceOnUse"
       id="clipPath22042"><rect
         style="fill:#333333;fill-opacity:1;stroke-width:0.0133797"
         id="rect22044"
         width="27.31955"
         height="27.483929"
         x="166.96844"
         y="105.40438"
         rx="4.0018873"
         ry="4.0259666" /></clipPath><clipPath
       clipPathUnits="userSpaceOnUse"
       id="clipPath1039"><rect
         style="fill:#b3b3b3;fill-opacity:1;stroke-width:0.264583"
         id="rect1041"
         width="541.8667"
         height="541.86682"
         x="2.5931527e-05"
         y="-0.00010962487"
         rx="79.375008"
         ry="79.375031" /></clipPath><clipPath
       clipPathUnits="userSpaceOnUse"
       id="clipPath154"><rect
         style="fill:#b3b3b3;fill-opacity:1;stroke-width:0.264583"
         id="rect156"
         width="541.8667"
         height="541.86682"
         x="-2.9218751e-05"
         y="-0.00016368683"
         rx="79.375008"
         ry="79.375031" /></clipPath><linearGradient
       inkscape:collect="always"
       xlink:href="#linearGradient404"
       id="linearGradient406"
       x1="64"
       y1="112.5"
       x2="64"
       y2="7.5"
       gradientUnits="userSpaceOnUse" /><linearGradient
       inkscape:collect="always"
       id="linearGradient404-5"><stop
         style="stop-color:#51a0da;stop-opacity:1;"
         offset="0"
         id="stop400-3" /><stop
         style="stop-color:#d4e7f5;stop-opacity:1;"
         offset="1"
         id="stop402-5" /></linearGradient><radialGradient
       r="32"
       fy="-76"
       fx="-244"
       cy="-76"
       cx="-244"
       gradientTransform="matrix(0.88333331,0,0,0.88333331,-460.35018,463.11973)"
       gradientUnits="userSpaceOnUse"
       id="radialGradient1103-9"
       xlink:href="#linearGradient1069" /><inkscape:path-effect
       effect="spiro"
       id="path-effect35304-9-9"
       is_visible="true" /><clipPath
       clipPathUnits="userSpaceOnUse"
       id="clipPath1609-7-3"><path
         sodipodi:nodetypes="cccccc"
         inkscape:connector-curvature="0"
         id="path1611-5-6"
         d="m 252,116 28,-28 v -8 h -36 v 36 z"
         style="fill:#e74747;stroke:none;stroke-width:0.25px;stroke-linecap:butt;stroke-linejoin:miter;stroke-opacity:1" /></clipPath><linearGradient
       inkscape:collect="always"
       id="linearGradient8241-0"><stop
         style="stop-color:#2f5c7e;stop-opacity:1"
         offset="0"
         id="stop8237-6" /><stop
         style="stop-color:#417fae;stop-opacity:1;"
         offset="0.15369755"
         id="stop9349-2" /><stop
         style="stop-color:#2f5c7e;stop-opacity:1"
         offset="0.24903476"
         id="stop21746-6" /><stop
         style="stop-color:#2f5c7e;stop-opacity:1"
         offset="0.74962652"
         id="stop21940-1" /><stop
         style="stop-color:#417fae;stop-opacity:1;"
         offset="0.8537854"
         id="stop9351-8" /><stop
         style="stop-color:#2f5c7e;stop-opacity:1"
         offset="1"
         id="stop8239-7" /></linearGradient><radialGradient
       r="32"
       fy="-76"
       fx="-244"
       cy="-76"
       cx="-244"
       gradientTransform="matrix(0.88333331,0,0,0.88333331,-460.35018,463.11973)"
       gradientUnits="userSpaceOnUse"
       id="radialGradient1103-5-9"
       xlink:href="#linearGradient1069" /><inkscape:path-effect
       effect="spiro"
       id="path-effect35304-9-2-2"
       is_visible="true" /><clipPath
       clipPathUnits="userSpaceOnUse"
       id="clipPath1609-7-7-0"><path
         sodipodi:nodetypes="cccccc"
         inkscape:connector-curvature="0"
         id="path1611-5-0-2"
         d="m 252,116 28,-28 v -8 h -36 v 36 z"
         style="fill:#e74747;stroke:none;stroke-width:0.25px;stroke-linecap:butt;stroke-linejoin:miter;stroke-opacity:1" /></clipPath><clipPath
       clipPathUnits="userSpaceOnUse"
       id="clipPath744-3"><rect
         style="fill:#1e88e5;fill-opacity:1;stroke-width:0.264583"
         id="rect746-7"
         width="541.86664"
         height="541.86664"
         x="0"
         y="1.5987212e-14"
         rx="79.375"
         ry="79.375" /></clipPath><clipPath
       clipPathUnits="userSpaceOnUse"
       id="clipPath62-5"><rect
         style="fill:#1e88e5;fill-opacity:1;stroke-width:0.264583"
         id="rect64-9"
         width="541.86664"
         height="541.86664"
         x="2.2507105e-05"
         y="-0.42205024"
         rx="79.375"
         ry="79.375" /></clipPath><linearGradient
       inkscape:collect="always"
       xlink:href="#linearGradient8241-0"
       id="linearGradient8243-2"
       x1="11.5"
       y1="120.5"
       x2="116.5"
       y2="120.5"
       gradientUnits="userSpaceOnUse"
       gradientTransform="matrix(0.63578751,0,0,0.67665972,23.309596,17.386192)" /><radialGradient
       r="32"
       fy="-76"
       fx="-244"
       cy="-76"
       cx="-244"
       gradientTransform="matrix(0.88333331,0,0,0.88333331,-460.35018,463.11973)"
       gradientUnits="userSpaceOnUse"
       id="radialGradient1103-6-2"
       xlink:href="#linearGradient1069" /><inkscape:path-effect
       effect="spiro"
       id="path-effect35304-9-20-8"
       is_visible="true" /><clipPath
       clipPathUnits="userSpaceOnUse"
       id="clipPath1609-7-2-9"><path
         sodipodi:nodetypes="cccccc"
         inkscape:connector-curvature="0"
         id="path1611-5-3-7"
         d="m 252,116 28,-28 v -8 h -36 v 36 z"
         style="fill:#e74747;stroke:none;stroke-width:0.25px;stroke-linecap:butt;stroke-linejoin:miter;stroke-opacity:1" /></clipPath><radialGradient
       r="32"
       fy="-76"
       fx="-244"
       cy="-76"
       cx="-244"
       gradientTransform="matrix(0.88333331,0,0,0.88333331,-460.35018,463.11973)"
       gradientUnits="userSpaceOnUse"
       id="radialGradient1103-56-3"
       xlink:href="#linearGradient1069" /><inkscape:path-effect
       effect="spiro"
       id="path-effect35304-9-7-6"
       is_visible="true" /><clipPath
       clipPathUnits="userSpaceOnUse"
       id="clipPath1609-7-0-1"><path
         sodipodi:nodetypes="cccccc"
         inkscape:connector-curvature="0"
         id="path1611-5-9-2"
         d="m 252,116 28,-28 v -8 h -36 v 36 z"
         style="fill:#e74747;stroke:none;stroke-width:0.25px;stroke-linecap:butt;stroke-linejoin:miter;stroke-opacity:1" /></clipPath><clipPath
       clipPathUnits="userSpaceOnUse"
       id="clipPath37-9"><rect
         style="fill:#1a1a1a;fill-opacity:1;stroke-width:0.264583"
         id="rect39-3"
         width="541.86664"
         height="541.86664"
         x="-2.6626146e-06"
         y="3.2408705"
         rx="79.375"
         ry="79.375" /></clipPath><clipPath
       clipPathUnits="userSpaceOnUse"
       id="clipPath22042-1"><rect
         style="fill:#333333;fill-opacity:1;stroke-width:0.0133797"
         id="rect22044-9"
         width="27.31955"
         height="27.483929"
         x="166.96844"
         y="105.40438"
         rx="4.0018873"
         ry="4.0259666" /></clipPath><clipPath
       clipPathUnits="userSpaceOnUse"
       id="clipPath1039-4"><rect
         style="fill:#b3b3b3;fill-opacity:1;stroke-width:0.264583"
         id="rect1041-7"
         width="541.8667"
         height="541.86682"
         x="2.5931527e-05"
         y="-0.00010962487"
         rx="79.375008"
         ry="79.375031" /></clipPath><clipPath
       clipPathUnits="userSpaceOnUse"
       id="clipPath154-8"><rect
         style="fill:#b3b3b3;fill-opacity:1;stroke-width:0.264583"
         id="rect156-4"
         width="541.8667"
         height="541.86682"
         x="-2.9218751e-05"
         y="-0.00016368683"
         rx="79.375008"
         ry="79.375031" /></clipPath><clipPath
       clipPathUnits="userSpaceOnUse"
       id="clipPath660"><g
         id="g664"
         transform="matrix(0.66309862,0,0,-0.66309862,161.46174,-150.62178)"><path
           d="M -612.53331,-597.55058 H 509.98666 V 196.15073 H -612.53331 Z"
           id="path662"
           inkscape:connector-curvature="0"
           style="stroke-width:1.33333" /></g></clipPath><clipPath
       clipPathUnits="userSpaceOnUse"
       id="clipPath666"><g
         id="g670"
         transform="matrix(0.66309862,0,0,-0.66309862,166.71164,-151.91559)"><path
           d="M -612.53331,-597.55058 H 509.98666 V 196.15073 H -612.53331 Z"
           id="path668"
           inkscape:connector-curvature="0"
           style="stroke-width:1.33333" /></g></clipPath><clipPath
       clipPathUnits="userSpaceOnUse"
       id="clipPath672"><g
         id="g676"
         transform="matrix(0.66309862,0,0,-0.66309862,196.21084,-128.11599)"><path
           d="M -612.53331,-597.55058 H 509.98666 V 196.15073 H -612.53331 Z"
           id="path674"
           inkscape:connector-curvature="0"
           style="stroke-width:1.33333" /></g></clipPath><clipPath
       clipPathUnits="userSpaceOnUse"
       id="clipPath678"><g
         id="g682"
         transform="matrix(0.66309862,0,0,-0.66309862,230.95505,-150.62178)"><path
           d="M -612.53331,-597.55058 H 509.98666 V 196.15073 H -612.53331 Z"
           id="path680"
           inkscape:connector-curvature="0"
           style="stroke-width:1.33333" /></g></clipPath><clipPath
       clipPathUnits="userSpaceOnUse"
       id="clipPath684"><g
         id="g688"
         transform="matrix(0.66309862,0,0,-0.66309862,225.70644,-151.91559)"><path
           d="M -612.53331,-597.55058 H 509.98666 V 196.15073 H -612.53331 Z"
           id="path686"
           inkscape:connector-curvature="0"
           style="stroke-width:1.33333" /></g></clipPath><clipPath
       clipPathUnits="userSpaceOnUse"
       id="clipPath690"><g
         id="g694"
         transform="matrix(0.66309862,0,0,-0.66309862,130.84854,-105.89359)"><path
           d="M -612.53331,-597.55058 H 509.98666 V 196.15073 H -612.53331 Z"
           id="path692"
           inkscape:connector-curvature="0"
           style="stroke-width:1.33333" /></g></clipPath><clipPath
       clipPathUnits="userSpaceOnUse"
       id="clipPath696"><g
         id="g700"
         transform="matrix(0.66309862,0,0,-0.66309862,294.05675,-175.88229)"><path
           d="M -612.53331,-597.55058 H 509.98666 V 196.15073 H -612.53331 Z"
           id="path698"
           inkscape:connector-curvature="0"
           style="stroke-width:1.33333" /></g></clipPath><clipPath
       clipPathUnits="userSpaceOnUse"
       id="clipPath708"><g
         id="g712"
         transform="matrix(0.66309862,0,0,-0.66309862,-185.94066,-97.011879)"><path
           d="M -612.53331,-597.55058 H 509.98666 V 196.15073 H -612.53331 Z"
           id="path710"
           inkscape:connector-curvature="0"
           style="stroke-width:1.33333" /></g></clipPath><clipPath
       clipPathUnits="userSpaceOnUse"
       id="clipPath714"><g
         id="g718"
         transform="matrix(0.66309862,0,0,-0.66309862,-158.04186,-99.015789)"><path
           d="M -612.53331,-597.55058 H 509.98666 V 196.15073 H -612.53331 Z"
           id="path716"
           inkscape:connector-curvature="0"
           style="stroke-width:1.33333" /></g></clipPath><clipPath
       clipPathUnits="userSpaceOnUse"
       id="clipPath720"><g
         id="g724"><path
           d="M -612.53331,-597.55058 H 509.98666 V 196.15073 H -612.53331 Z"
           id="path722"
           inkscape:connector-curvature="0"
           style="stroke-width:1.33333" /></g></clipPath><clipPath
       clipPathUnits="userSpaceOnUse"
       id="clipPath726"><g
         id="g730"
         transform="matrix(0.66309862,0,0,-0.66309862,-125.07676,-84.165596)"><path
           d="M -612.53331,-597.55058 H 509.98666 V 196.15073 H -612.53331 Z"
           id="path728"
           inkscape:connector-curvature="0"
           style="stroke-width:1.33333" /></g></clipPath><clipPath
       clipPathUnits="userSpaceOnUse"
       id="clipPath732"><g
         id="g736"
         transform="matrix(0.66309862,0,0,-0.66309862,-103.01616,-99.015789)"><path
           d="M -612.53331,-597.55058 H 509.98666 V 196.15073 H -612.53331 Z"
           id="path734"
           inkscape:connector-curvature="0"
           style="stroke-width:1.33333" /></g></clipPath><clipPath
       clipPathUnits="userSpaceOnUse"
       id="clipPath738"><g
         id="g742"
         transform="matrix(0.66309862,0,0,-0.66309862,-87.246538,-97.011879)"><path
           d="M -612.53331,-597.55058 H 509.98666 V 196.15073 H -612.53331 Z"
           id="path740"
           inkscape:connector-curvature="0"
           style="stroke-width:1.33333" /></g></clipPath><clipPath
       clipPathUnits="userSpaceOnUse"
       id="clipPath745"><g
         id="g749"
         transform="matrix(0.66309862,0,0,-0.66309862,-56.074072,-97.011879)"><path
           d="M -612.53331,-597.55058 H 509.98666 V 196.15073 H -612.53331 Z"
           id="path747"
           inkscape:connector-curvature="0"
           style="stroke-width:1.33333" /></g></clipPath><clipPath
       clipPathUnits="userSpaceOnUse"
       id="clipPath751"><g
         id="g755"
         transform="matrix(0.66309862,0,0,-0.66309862,-15.322269,-99.015789)"><path
           d="M -612.53331,-597.55058 H 509.98666 V 196.15073 H -612.53331 Z"
           id="path753"
           inkscape:connector-curvature="0"
           style="stroke-width:1.33333" /></g></clipPath><clipPath
       clipPathUnits="userSpaceOnUse"
       id="clipPath757"><g
         id="g761"
         transform="matrix(0.66309862,0,0,-0.66309862,2.992541,-75.780588)"><path
           d="M -612.53331,-597.55058 H 509.98666 V 196.15073 H -612.53331 Z"
           id="path759"
           inkscape:connector-curvature="0"
           style="stroke-width:1.33333" /></g></clipPath><clipPath
       clipPathUnits="userSpaceOnUse"
       id="clipPath763"><g
         id="g767"
         transform="matrix(0.66309862,0,0,-0.66309862,15.961034,-78.367787)"><path
           d="M -612.53331,-597.55058 H 509.98666 V 196.15073 H -612.53331 Z"
           id="path765"
           inkscape:connector-curvature="0"
           style="stroke-width:1.33333" /></g></clipPath><clipPath
       clipPathUnits="userSpaceOnUse"
       id="clipPath769"><g
         id="g773"
         transform="matrix(0.66309862,0,0,-0.66309862,-7.838264,-167.63109)"><path
           d="M -612.53331,-597.55058 H 509.98666 V 196.15073 H -612.53331 Z"
           id="path771"
           inkscape:connector-curvature="0"
           style="stroke-width:1.33333" /></g></clipPath><clipPath
       clipPathUnits="userSpaceOnUse"
       id="clipPath775"><g
         id="g779"
         transform="matrix(0.66309862,0,0,-0.66309862,-291.41975,-127.51129)"><path
           d="M -612.53331,-597.55058 H 509.98666 V 196.15073 H -612.53331 Z"
           id="path777"
           inkscape:connector-curvature="0"
           style="stroke-width:1.33333" /></g></clipPath><clipPath
       clipPathUnits="userSpaceOnUse"
       id="clipPath781"><g
         id="g785"
         transform="matrix(0.66309862,0,0,-0.66309862,-213.43877,-184.07848)"><path
           d="M -612.53331,-597.55058 H 509.98666 V 196.15073 H -612.53331 Z"
           id="path783"
           inkscape:connector-curvature="0"
           style="stroke-width:1.33333" /></g></clipPath><clipPath
       clipPathUnits="userSpaceOnUse"
       id="clipPath787"><g
         id="g791"
         transform="matrix(0.66309862,0,0,-0.66309862,-131.25065,-183.29629)"><path
           d="M -612.53331,-597.55058 H 509.98666 V 196.15073 H -612.53331 Z"
           id="path789"
           inkscape:connector-curvature="0"
           style="stroke-width:1.33333" /></g></clipPath><clipPath
       clipPathUnits="userSpaceOnUse"
       id="clipPath793"><g
         id="g797"
         transform="matrix(0.66309862,0,0,-0.66309862,-63.701263,-184.07848)"><path
           d="M -612.53331,-597.55058 H 509.98666 V 196.15073 H -612.53331 Z"
           id="path795"
           inkscape:connector-curvature="0"
           style="stroke-width:1.33333" /></g></clipPath><clipPath
       clipPathUnits="userSpaceOnUse"
       id="clipPath9825"><g
         id="g9831"><g
           id="g9829"
           transform="matrix(0.311863,0,0,0.31006301,156.2826,136.55964)"><path
             d="M -612.53331,-597.55058 H 509.98666 V 196.15073 H -612.53331 Z"
             id="path9827"
             inkscape:connector-curvature="0"
             style="stroke-width:1.33333" /></g></g></clipPath><linearGradient
       inkscape:collect="always"
       xlink:href="#linearGradient1265"
       id="linearGradient1442"
       gradientUnits="userSpaceOnUse"
       gradientTransform="matrix(0.63578751,0,0,0.67665972,23.309596,17.386192)"
       x1="64"
       y1="112.5"
       x2="64"
       y2="7.5" /><linearGradient
       inkscape:collect="always"
       xlink:href="#linearGradient404-5"
       id="linearGradient558"
       gradientUnits="userSpaceOnUse"
       gradientTransform="matrix(0.63578751,0,0,0.67665972,23.309596,17.386192)"
       x1="64"
       y1="112.5"
       x2="64"
       y2="7.5" /><filter
       style="color-interpolation-filters:sRGB;"
       inkscape:label="Drop Shadow"
       id="filter627"
       x="-0.026803453"
       y="-0.025869415"
       width="1.0536069"
       height="1.1075466"><feFlood
         flood-opacity="0.403922"
         flood-color="rgb(0,0,0)"
         result="flood"
         id="feFlood617" /><feComposite
         in="SourceGraphic"
         in2="flood"
         operator="in"
         result="composite1"
         id="feComposite619" /><feGaussianBlur
         in="composite1"
         stdDeviation="1"
         result="blur"
         id="feGaussianBlur621" /><feOffset
         dx="2.77556e-17"
         dy="5.1774945175438631"
         result="offset"
         id="feOffset623" /><feComposite
         in="SourceGraphic"
         in2="offset"
         operator="over"
         result="composite2"
         id="feComposite625" /></filter></defs><g
     inkscape:groupmode="layer"
     id="layer2"
     inkscape:label="Layer 1"><rect
       style="fill:url(#linearGradient8243);fill-opacity:1"
       id="rect440"
       width="105"
       height="105"
       x="11.5"
       y="15.5"
       rx="13"
       ry="13" /><rect
       style="fill:url(#linearGradient406);fill-opacity:1"
       id="rect358"
       width="105"
       height="105"
       x="11.5"
       y="7.5"
       rx="13"
       ry="13" /><rect
       style="fill:#d4ecfd;fill-opacity:1;stroke-width:0.959575"
       id="rect338"
       width="100.75533"
       height="100.75533"
       x="13.622333"
       y="9.6223326"
       rx="12"
       ry="12" /><rect
       style="fill:#93ccf7;fill-opacity:1;stroke-width:0.655906"
       id="rect561"
       width="66.757683"
       height="71.049271"
       x="30.621149"
       y="33.874416"
       rx="16.772243"
       ry="16.772243" /><rect
       style="fill:url(#linearGradient8243-2);fill-opacity:1;stroke-width:0.655906"
       id="rect440-0"
       width="66.757683"
       height="71.049271"
       x="30.621149"
       y="27.874416"
       rx="16.772243"
       ry="16.772243" /><rect
       style="fill:#93ccf7;fill-opacity:1;stroke:none;stroke-width:1.45846;stroke-linecap:round"
       id="rect1878"
       width="16.048313"
       height="25.966717"
       x="43.187187"
       y="-49.41544"
       rx="6.065268"
       ry="6.065268"
       transform="rotate(90)" /><rect
       style="fill:#2f5c7e;fill-opacity:1;stroke:none;stroke-width:1.45846;stroke-linecap:round"
       id="rect7984"
       width="16.048313"
       height="25.966717"
       x="37.187187"
       y="-49.41544"
       rx="6.065268"
       ry="6.065268"
       transform="rotate(90)" /><rect
       style="fill:#93ccf7;fill-opacity:1;stroke:none;stroke-width:1.45846;stroke-linecap:round"
       id="rect1880"
       width="16.048313"
       height="25.966717"
       x="43.187187"
       y="-104.5513"
       rx="6.065268"
       ry="6.065268"
       transform="rotate(90)" /><rect
       style="fill:#2f5c7e;fill-opacity:1;stroke:none;stroke-width:1.45846;stroke-linecap:round"
       id="rect3896"
       width="16.048313"
       height="25.966717"
       x="37.187187"
       y="-104.5513"
       rx="6.065268"
       ry="6.065268"
       transform="rotate(90)" /><path
       style="fill:url(#linearGradient558);fill-opacity:1;stroke-width:0.655906"
       d="m 97.379272,76.667963 -10.317437,1.662128 -0.343249,4.902349 c -0.06965,0.99226 -0.875977,1.794532 -1.874349,1.865799 l -13.222952,0.937168 c -0.04769,0.0037 -0.09658,0.0059 -0.145277,0.0059 -0.994936,0 -1.854609,-0.738715 -1.999674,-1.717675 l -0.672261,-4.53078 H 59.2002 l -0.672262,4.530616 c -0.145415,0.979302 -1.003264,1.717674 -1.99683,1.717674 -0.04937,0 -0.09947,-0.0022 -0.14955,-0.0059 L 43.160035,85.098108 c -0.998714,-0.07125 -1.80473,-0.87354 -1.874349,-1.865799 L 40.942438,78.330091 30.620727,76.676509 v 0.06124 c 0,9.291808 7.480435,16.772234 16.772243,16.772234 h 33.214059 c 9.291808,0 16.772243,-7.480426 16.772243,-16.772234 z"
       id="path1462" /><path
       id="rect1437"
       style="fill:url(#linearGradient1442);fill-opacity:1;stroke-width:0.655906"
       d="m 47.39297,22.461542 c -9.291808,0 -16.772243,7.48043 -16.772243,16.772244 V 73.30098 l 12.413968,1.189269 c 0.987389,0.09479 1.753794,0.877447 1.82307,1.861526 l 0.341826,4.858195 9.599601,0.680804 0.653745,-4.402429 c 0.145416,-0.979306 1.005825,-1.717674 2.001105,-1.717674 h 13.096189 c 0.995623,0 1.855689,0.738368 2.001104,1.717674 l 0.653746,4.402429 9.5996,-0.680804 0.341827,-4.858195 c 0.06927,-0.983737 0.835681,-1.766732 1.823069,-1.861526 L 97.379272,73.30098 V 39.233786 c 0,-9.291814 -7.480435,-16.772244 -16.772243,-16.772244 z" /><path
       id="path1407"
       style="fill:#478cbf;fill-opacity:1;stroke:none;stroke-width:1.45846;stroke-linecap:round"
       d="m 47.457062,14.89153 c -3.360143,0 -6.065981,2.704404 -6.065981,6.064556 v 4.373943 c -3.372118,1.524265 -6.107722,4.174459 -7.745196,7.481708 h -4.13182 c -3.360144,0 -6.065981,2.70583 -6.065981,6.065981 v 3.916752 c 0,3.36015 2.705837,6.065979 6.065981,6.065979 h 2.456872 v 24.570142 l 11.063758,1.059658 c 0.987389,0.09479 1.753794,0.877447 1.82307,1.861526 l 0.341826,4.858195 9.599601,0.680804 0.653745,-4.402429 c 0.145416,-0.979306 1.005825,-1.717674 2.001105,-1.717674 h 13.096189 c 0.995623,0 1.855689,0.738368 2.001104,1.717674 l 0.653746,4.402429 9.5996,-0.680804 0.341827,-4.858195 c 0.06927,-0.983737 0.835681,-1.766732 1.823069,-1.861526 L 96.029063,73.430591 V 48.860449 h 2.456869 c 3.360148,0 6.065978,-2.705829 6.065978,-6.065979 v -3.916752 c 0,-3.360151 -2.70583,-6.065981 -6.065978,-6.065981 H 94.354114 C 92.71664,29.504488 89.981036,26.854294 86.608918,25.330029 v -4.373943 c 0,-3.360152 -2.705837,-6.064556 -6.065981,-6.064556 h -3.916756 c -3.360144,0 -6.065981,2.704404 -6.065981,6.064556 V 23.89721 H 57.439799 v -2.941124 c 0,-3.360152 -2.705837,-6.064556 -6.06598,-6.064556 z" /><rect
       style="fill:#d4ecfd;fill-opacity:1;stroke:none;stroke-width:1.76166;stroke-linecap:round"
       id="rect853"
       width="14.902414"
       height="15.111775"
       x="40.39061"
       y="45.211342"
       rx="7.4512072"
       ry="7.4512072" /><rect
       style="fill:#d4ecfd;fill-opacity:1;stroke:none;stroke-width:1.76166;stroke-linecap:round"
       id="rect1461"
       width="14.902414"
       height="15.111775"
       x="72.706978"
       y="45.211342"
       rx="7.4512072"
       ry="7.4512072" /><path
       id="rect2729"
       style="fill:#2f5c7e;fill-opacity:1;stroke:none;stroke-width:1.76166;stroke-linecap:round"
       d="m 80.158183,45.211587 c -4.127971,0 -7.450946,3.322978 -7.450946,7.450944 v 0.209885 c 0,0.570037 0.0657,1.124007 0.1858,1.65672 0.749682,-3.324971 3.707213,-5.794221 7.265146,-5.794221 3.557925,0 6.515454,2.46925 7.265137,5.794221 0.120111,-0.532713 0.1858,-1.086683 0.1858,-1.65672 v -0.209885 c 0,-4.127966 -3.322975,-7.450944 -7.450937,-7.450944 z" /><path
       id="rect2732"
       style="fill:#2f5c7e;fill-opacity:1;stroke:none;stroke-width:1.76166;stroke-linecap:round"
       d="m 47.841817,45.211587 c -4.127962,0 -7.450938,3.322978 -7.450938,7.450944 v 0.209885 c 0,0.570037 0.06571,1.124007 0.1858,1.65672 0.749683,-3.324971 3.707213,-5.794221 7.265138,-5.794221 3.557933,0 6.515462,2.46925 7.265145,5.794221 0.120111,-0.532713 0.185801,-1.086683 0.185801,-1.65672 v -0.209885 c 0,-4.127966 -3.322976,-7.450944 -7.450946,-7.450944 z" /><rect
       style="fill:#d4ecfd;fill-opacity:1;stroke:none;stroke-width:1.82307;stroke-linecap:round;stroke-linejoin:round;stroke-dasharray:none;stroke-opacity:1"
       id="rect7988"
       width="5.7292037"
       height="11.458407"
       x="61.135399"
       y="54.593914"
       rx="2.8646019"
       ry="2.8646019" /><path
       id="rect7990"
       style="fill:#2f5c7e;fill-opacity:1;stroke:none;stroke-width:1.82307;stroke-linecap:round;stroke-linejoin:round;stroke-dasharray:none;stroke-opacity:1"
       d="m 64,54.594574 c -1.58699,0 -2.86421,1.277226 -2.86421,2.864214 V 60.3757 c 0,-1.586988 1.27722,-2.864215 2.86421,-2.864215 1.586989,0 2.86421,1.277227 2.86421,2.864215 V 57.458788 C 66.86421,55.8718 65.586989,54.594574 64,54.594574 Z" /><path
       style="fill:#478cbf;fill-opacity:1;stroke:none;stroke-width:1.45846;stroke-linecap:round"
       d="m 95.98633,76.892999 -8.924495,1.437092 -0.343249,4.902349 c -0.06965,0.99226 -0.875977,1.794532 -1.874349,1.865799 l -13.222952,0.937168 c -0.04769,0.0037 -0.09658,0.0059 -0.145277,0.0059 -0.994936,0 -1.854609,-0.738715 -1.999674,-1.717675 L 68.804073,79.792971 H 59.2002 l -0.672262,4.530615 c -0.145415,0.979302 -1.003264,1.717675 -1.99683,1.717675 -0.04937,0 -0.09947,-0.0022 -0.14955,-0.0059 L 43.160035,85.098239 C 42.161321,85.026991 41.355305,84.2247 41.285686,83.23244 l -0.343248,-4.902349 -8.927347,-1.429972 c 0.451071,8.478107 7.404435,15.174206 15.998868,15.174206 h 31.972089 c 8.596847,0 15.552762,-6.699826 16.000282,-15.181326 z"
       id="path1451" /><path
       id="path2241"
       style="fill:#2f5c7e;fill-opacity:1;stroke-width:1.81665;stroke-linecap:round;stroke-linejoin:round"
       d="M 30.621094 70.384766 L 30.621094 73.300781 L 31.970703 73.429688 L 43.035156 74.490234 C 44.022543 74.585028 44.788142 75.367485 44.857422 76.351562 L 45.199219 81.210938 L 54.798828 81.890625 L 55.453125 77.488281 C 55.598541 76.508977 56.457847 75.771484 57.453125 75.771484 L 70.550781 75.771484 C 71.546402 75.771484 72.405366 76.508977 72.550781 77.488281 L 73.205078 81.890625 L 82.804688 81.210938 L 83.146484 76.351562 C 83.163802 76.105628 83.225246 75.873381 83.322266 75.660156 C 83.613324 75.020484 84.22821 74.561314 84.96875 74.490234 L 96.029297 73.429688 L 97.378906 73.300781 L 97.378906 70.384766 L 96.029297 70.513672 L 84.96875 71.574219 C 84.22821 71.645309 83.613324 72.102515 83.322266 72.742188 C 83.225246 72.955412 83.163802 73.189612 83.146484 73.435547 L 82.804688 78.292969 L 73.205078 78.974609 L 72.550781 74.572266 C 72.405366 73.592963 71.546402 72.853516 70.550781 72.853516 L 57.453125 72.853516 C 56.457847 72.853516 55.598541 73.592963 55.453125 74.572266 L 54.798828 78.974609 L 45.199219 78.292969 L 44.857422 73.435547 C 44.788142 72.45147 44.022543 71.669013 43.035156 71.574219 L 31.970703 70.513672 L 30.621094 70.384766 z " /><path
       id="rect2020"
       style="fill:#d4ecfd;fill-opacity:1;stroke-width:1.81665;stroke-linecap:round;stroke-linejoin:round"
       d="m 30.620729,73.30098 v 3.375529 l 10.321708,1.653582 0.34325,4.902349 c 0.06962,0.992257 0.875632,1.794554 1.874345,1.865799 l 13.221529,0.937168 c 0.05008,0.0037 0.100181,0.0059 0.149549,0.0059 0.993564,0 1.851415,-0.738372 1.996832,-1.717675 l 0.672257,-4.530615 h 9.603875 l 0.672256,4.530615 c 0.145066,0.97896 1.004744,1.717675 1.999681,1.717675 0.04871,0 0.09758,-0.0022 0.145275,-0.0059 L 84.84424,85.098239 c 0.998371,-0.07125 1.804703,-0.873542 1.874344,-1.865799 l 0.343251,-4.902349 10.317437,-1.662128 V 73.30098 l -1.350209,0.129611 -11.059487,1.059658 c -0.740541,0.07108 -1.356824,0.529655 -1.647883,1.169328 -0.09702,0.213225 -0.157868,0.446263 -0.175186,0.692198 L 82.80468,81.20997 73.205079,81.890774 72.551337,77.488345 C 72.405922,76.50904 71.545855,75.770671 70.550233,75.770671 H 57.45404 c -0.995279,0 -1.855689,0.738369 -2.001105,1.717674 l -0.653742,4.402429 -9.599602,-0.680804 -0.341826,-4.858195 c -0.06928,-0.984078 -0.835682,-1.766732 -1.82307,-1.861526 L 31.97094,73.430591 Z m 0,3.436772 v 0.06695 h 0.0014 c -8.6e-5,-0.02243 -0.0014,-0.0445 -0.0014,-0.06695 z m 66.758543,0 c 0,0.02245 -0.0018,0.04452 -0.0018,0.06695 h 0.0018 z" /><path
       id="path2952"
       style="fill:#93ccf7;fill-opacity:1;stroke-width:1.81665;stroke-linecap:round;stroke-linejoin:round"
       d="m 30.621094,73.300782 v 2.916015 l 1.349609,0.128907 11.064453,1.060546 c 0.987387,0.09479 1.752986,0.877251 1.822266,1.861328 l 0.341797,4.859376 9.599609,0.679687 0.654297,-4.402344 c 0.145416,-0.979304 1.004722,-1.716797 2,-1.716797 h 13.097656 c 0.995621,0 1.854585,0.737493 2,1.716797 l 0.654297,4.402344 9.59961,-0.679687 0.341796,-4.859376 c 0.01732,-0.245934 0.07876,-0.478181 0.175782,-0.691406 C 83.613324,77.9365 84.22821,77.47733 84.96875,77.40625 l 11.060547,-1.060546 1.349609,-0.128907 v -2.916015 l -1.349609,0.128906 -11.060547,1.060547 c -0.74054,0.07109 -1.355426,0.528296 -1.646484,1.167969 -0.09702,0.213224 -0.158464,0.447424 -0.175782,0.693359 l -0.341796,4.857422 -9.59961,0.68164 -0.654297,-4.402343 c -0.145415,-0.979303 -1.004379,-1.71875 -2,-1.71875 H 57.453125 c -0.995278,0 -1.854584,0.739447 -2,1.71875 l -0.654297,4.402343 -9.599609,-0.68164 -0.341797,-4.857422 c -0.06928,-0.984077 -0.834879,-1.766534 -1.822266,-1.861328 L 31.970703,73.429688 Z" /><path
       id="path4215"
       style="fill:#ffffff;fill-opacity:1;stroke:none;stroke-width:1.45846;stroke-linecap:round"
       d="m 47.457064,14.89154 c -3.360136,0 -6.06598,2.704413 -6.06598,6.064557 v 2.18626 c 0,-3.360146 2.705844,-6.064556 6.06598,-6.064556 h 3.916751 c 3.360137,0 6.065981,2.70441 6.065981,6.064556 v -2.18626 c 0,-3.360144 -2.705844,-6.064557 -6.065981,-6.064557 z m 29.169119,0 c -3.360136,0 -6.06598,2.704413 -6.06598,6.064557 v 2.18626 c 0,-3.360146 2.705844,-6.064556 6.06598,-6.064556 h 3.916753 c 3.360136,0 6.065979,2.70441 6.065979,6.064556 v -2.18626 c 0,-3.360144 -2.705843,-6.064557 -6.065979,-6.064557 z M 29.514068,32.811748 c -3.360136,0 -6.06598,2.705836 -6.06598,6.065981 v 2.18626 c 0,-3.360147 2.705844,-6.065981 6.06598,-6.065981 h 4.131817 v -2.18626 z m 64.840046,0 v 2.18626 h 4.131818 c 3.360128,0 6.065978,2.705835 6.065978,6.065981 v -2.18626 c 0,-3.360145 -2.70585,-6.065981 -6.065978,-6.065981 z" /><path
       id="path2641"
       style="fill:#93ccf7;fill-opacity:1;stroke:none;stroke-width:1.76166;stroke-linecap:round"
       d="M 80.158203 48.576172 C 76.571841 48.576172 73.594739 51.083871 72.875 54.449219 C 73.092253 55.464218 73.514712 56.40109 74.097656 57.214844 C 75.445858 55.326931 77.651057 54.099609 80.158203 54.099609 C 82.665344 54.099609 84.870546 55.326931 86.21875 57.214844 C 86.801694 56.40109 87.224153 55.464218 87.441406 54.449219 C 86.721666 51.083871 83.744557 48.576172 80.158203 48.576172 z " /><path
       id="path2721"
       style="fill:#93ccf7;fill-opacity:1;stroke:none;stroke-width:1.76166;stroke-linecap:round"
       d="m 47.841798,48.576172 c -3.586362,0 -6.563464,2.507699 -7.283203,5.873047 0.217253,1.014999 0.639712,1.951871 1.222656,2.765625 1.348202,-1.887913 3.553401,-3.115235 6.060547,-3.115235 2.507141,0 4.712343,1.227322 6.060547,3.115235 0.582944,-0.813754 1.005403,-1.750626 1.222656,-2.765625 -0.71974,-3.365348 -3.696849,-5.873047 -7.283203,-5.873047 z" /><path
       id="path2723"
       style="fill:#93ccf7;fill-opacity:1;stroke:none;stroke-width:1.82307;stroke-linecap:round;stroke-linejoin:round;stroke-dasharray:none;stroke-opacity:1"
       d="M 64 57.484375 C 62.413016 57.484375 61.136719 58.762627 61.136719 60.349609 L 61.136719 62.349609 L 61.136719 63.261719 L 61.136719 63.265625 C 61.145714 63.605189 61.213697 63.928808 61.330078 64.228516 C 61.744019 63.158372 62.779849 62.402344 64 62.402344 C 65.22015 62.402344 66.255981 63.158372 66.669922 64.228516 C 66.786303 63.928808 66.854286 63.605189 66.863281 63.265625 L 66.863281 63.261719 L 66.863281 62.349609 L 66.863281 60.349609 C 66.863281 58.762627 65.586983 57.484375 64 57.484375 z " /></g></svg>
