<?xml version="1.0" encoding="UTF-8" standalone="no"?>
<!-- Created with Inkscape (http://www.inkscape.org/) -->

<svg
   width="128"
   height="128"
   viewBox="0 0 128 128"
   version="1.1"
   id="svg5"
   inkscape:version="1.2 (dc2aedaf03, 2022-05-15)"
   sodipodi:docname="org.gnome.Software.svg"
   xml:space="preserve"
   xmlns:inkscape="http://www.inkscape.org/namespaces/inkscape"
   xmlns:sodipodi="http://sodipodi.sourceforge.net/DTD/sodipodi-0.dtd"
   xmlns:xlink="http://www.w3.org/1999/xlink"
   xmlns="http://www.w3.org/2000/svg"
   xmlns:svg="http://www.w3.org/2000/svg"><sodipodi:namedview
     id="namedview7"
     pagecolor="#ffffff"
     bordercolor="#666666"
     borderopacity="1"
     inkscape:pageshadow="2"
     inkscape:pageopacity="0.0"
     inkscape:pagecheckerboard="true"
     inkscape:document-units="px"
     showgrid="false"
     inkscape:showpageshadow="false"
     showborder="true"
     inkscape:snap-page="true"
     inkscape:snap-bbox="true"
     inkscape:bbox-paths="true"
     inkscape:bbox-nodes="true"
     inkscape:snap-bbox-edge-midpoints="true"
     inkscape:snap-bbox-midpoints="true"
     inkscape:object-paths="true"
     inkscape:zoom="10.848336"
     inkscape:cx="77.938221"
     inkscape:cy="31.202942"
     inkscape:window-width="1366"
     inkscape:window-height="731"
     inkscape:window-x="0"
     inkscape:window-y="0"
     inkscape:window-maximized="1"
     inkscape:current-layer="layer2"
     inkscape:deskcolor="#d1d1d1" /><defs
     id="defs2"><linearGradient
       inkscape:collect="always"
       id="linearGradient445"><stop
         style="stop-color:#0066ff;stop-opacity:1"
         offset="0"
         id="stop441" /><stop
         style="stop-color:#5fbcd3;stop-opacity:1"
         offset="1"
         id="stop443" /></linearGradient><linearGradient
       inkscape:collect="always"
       id="linearGradient437"><stop
         style="stop-color:#7f2aff;stop-opacity:1"
         offset="0"
         id="stop433" /><stop
         style="stop-color:#cc00ff;stop-opacity:1"
         offset="1"
         id="stop435" /></linearGradient><linearGradient
       inkscape:collect="always"
       id="linearGradient365"><stop
         style="stop-color:#ff5555;stop-opacity:1"
         offset="0"
         id="stop361" /><stop
         style="stop-color:#ff9955;stop-opacity:1"
         offset="1"
         id="stop363" /></linearGradient><linearGradient
       y2="236"
       x2="96"
       y1="236"
       x1="32"
       gradientTransform="translate(604.81684,170.58641)"
       gradientUnits="userSpaceOnUse"
       id="linearGradient1099"
       xlink:href="#linearGradient1036" /><linearGradient
       id="linearGradient1036"><stop
         id="stop1032"
         offset="0"
         style="stop-color:#d5d3cf;stop-opacity:1;" /><stop
         id="stop1034"
         offset="1"
         style="stop-color:#f6f5f4;stop-opacity:1" /></linearGradient><radialGradient
       r="32"
       fy="-76"
       fx="-244"
       cy="-76"
       cx="-244"
       gradientTransform="matrix(0.88333331,0,0,0.88333331,-460.35018,463.11973)"
       gradientUnits="userSpaceOnUse"
       id="radialGradient1103"
       xlink:href="#linearGradient1069" /><linearGradient
       id="linearGradient1069"><stop
         id="stop1065"
         offset="0"
         style="stop-color:#d5d3cf;stop-opacity:1" /><stop
         id="stop1067-1"
         offset="1"
         style="stop-color:#949390;stop-opacity:1" /></linearGradient><linearGradient
       gradientUnits="userSpaceOnUse"
       y2="232"
       x2="64"
       y1="262.5"
       x1="64"
       id="linearGradient1027"
       xlink:href="#linearGradient1025"
       gradientTransform="translate(-470.5864,432.81685)" /><linearGradient
       id="linearGradient1025"><stop
         id="stop1021"
         offset="0"
         style="stop-color:#9a9996;stop-opacity:1" /><stop
         id="stop1023"
         offset="1"
         style="stop-color:#77767b;stop-opacity:1" /></linearGradient><inkscape:path-effect
       effect="spiro"
       id="path-effect35304-9"
       is_visible="true" /><clipPath
       clipPathUnits="userSpaceOnUse"
       id="clipPath1609-7"><path
         sodipodi:nodetypes="cccccc"
         inkscape:connector-curvature="0"
         id="path1611-5"
         d="m 252,116 28,-28 v -8 h -36 v 36 z"
         style="fill:#e74747;stroke:none;stroke-width:0.25px;stroke-linecap:butt;stroke-linejoin:miter;stroke-opacity:1" /></clipPath><clipPath
       clipPathUnits="userSpaceOnUse"
       id="clipPath961"><rect
         style="fill:#00c853;stroke:none;stroke-width:0.529037"
         id="rect963"
         width="541.86664"
         height="541.86664"
         x="1.4210855e-14"
         y="2.717972e-05"
         rx="79.375"
         ry="79.375" /></clipPath><linearGradient
       id="d"><stop
         offset="0"
         stop-color="#f9f06b"
         id="stop865" /><stop
         offset="1"
         stop-color="#f6d32d"
         id="stop867" /></linearGradient><linearGradient
       id="e"><stop
         offset="0"
         stop-color="#2dc0af"
         id="stop870" /><stop
         offset="1"
         stop-color="#5ed9cb"
         id="stop872" /></linearGradient><linearGradient
       id="f"><stop
         offset="0"
         stop-color="#fff"
         id="stop875" /><stop
         offset="1"
         stop-color="#fff"
         stop-opacity="0"
         id="stop877" /></linearGradient><linearGradient
       id="g"><stop
         offset="0"
         stop-color="#2dc0af"
         id="stop880" /><stop
         offset="1"
         stop-color="#3584e4"
         id="stop882" /></linearGradient><linearGradient
       id="h"><stop
         offset="0"
         stop-color="#c061cb"
         id="stop885" /><stop
         offset="1"
         stop-color="#8f58c8"
         id="stop887" /></linearGradient><linearGradient
       xlink:href="#d"
       id="m"
       gradientUnits="userSpaceOnUse"
       x1="529.288"
       y1="441.731"
       x2="543.341"
       y2="408.599"
       gradientTransform="translate(-461.557,-35.819)" /><linearGradient
       xlink:href="#e"
       id="l"
       gradientUnits="userSpaceOnUse"
       x1="529.288"
       y1="441.731"
       x2="543.341"
       y2="408.599"
       gradientTransform="rotate(-120,320.2,508.254)" /><linearGradient
       xlink:href="#f"
       id="k"
       x1="56"
       y1="252"
       x2="0"
       y2="244"
       gradientUnits="userSpaceOnUse"
       gradientTransform="translate(42.443,122.181)" /><linearGradient
       gradientTransform="translate(42.443,122.181)"
       xlink:href="#g"
       id="j"
       x1="64"
       y1="260"
       x2="80"
       y2="220"
       gradientUnits="userSpaceOnUse" /><linearGradient
       gradientTransform="translate(42.443,122.181)"
       xlink:href="#h"
       id="i"
       x1="32"
       y1="239.25"
       x2="56"
       y2="196"
       gradientUnits="userSpaceOnUse" /><clipPath
       clipPathUnits="userSpaceOnUse"
       id="clipPath1891"><rect
         style="fill:#b3b3b3;stroke:none;stroke-width:0.529037"
         id="rect1893"
         width="541.86664"
         height="541.86664"
         x="2.2119139e-06"
         y="4.8096284e-05"
         rx="79.375"
         ry="79.375" /></clipPath><linearGradient
       inkscape:collect="always"
       xlink:href="#linearGradient437"
       id="linearGradient439"
       x1="88.019882"
       y1="33.452549"
       x2="88.019882"
       y2="57.452549"
       gradientUnits="userSpaceOnUse"
       gradientTransform="matrix(-0.88570236,0,0,0.88570236,128.49222,15.798376)" /><linearGradient
       inkscape:collect="always"
       xlink:href="#linearGradient445"
       id="linearGradient447"
       x1="75.50035"
       y1="77.45255"
       x2="100.01988"
       y2="77.45255"
       gradientUnits="userSpaceOnUse"
       gradientTransform="matrix(-0.88570236,0,0,0.88570236,130.39265,22.190735)" /><linearGradient
       inkscape:collect="always"
       xlink:href="#linearGradient365"
       id="linearGradient252"
       gradientUnits="userSpaceOnUse"
       gradientTransform="matrix(-0.88570236,0,0,0.88570236,135.91379,20.697159)"
       x1="48.01988"
       y1="61.45255"
       x2="72.01988"
       y2="61.45255" /></defs><g
     inkscape:groupmode="layer"
     id="layer2"
     inkscape:label="Layer 1"><path
       id="rect1439"
       style="fill:#b3b3b3;stroke-width:2.38851"
       d="M 50.200629,9.0000003 41.769691,17.430938 H 86.230317 L 77.799379,9.0000003 Z" /><path
       id="rect1435"
       style="fill:#ececec;stroke-width:1.80145"
       d="m 50.200629,9.0000003 -8.430938,8.4309377 0.248836,16.85968 h 8.430938 z"
       sodipodi:nodetypes="ccccc" /><path
       id="rect1437"
       style="fill:#ececec;stroke-width:1.80145"
       d="M 77.797184,9.0000003 77.548347,34.290618 h 8.433135 l 0.248835,-16.85968 -8.430938,-8.4309377 z"
       sodipodi:nodetypes="cccccc" /><path
       id="rect1847"
       style="fill:#f9f9f9;fill-opacity:0.97731;stroke-width:1.51691"
       d="m 17.191865,32.995418 v 7.216528 10.511181 61.060343 c 0,3.99796 3.814344,7.21653 8.55233,7.21653 H 102.2558 c 4.73799,0 8.55234,-3.21857 8.55234,-7.21653 V 50.723127 40.211946 32.995418 H 102.2558 25.744195 Z" /><path
       id="path1852"
       style="fill:#b3b3b3;fill-opacity:0.97731;stroke-width:1.65135"
       d="m 17.191865,104.03343 v 6.41423 c 0,4.738 3.814347,8.55234 8.55233,8.55234 H 102.2558 c 4.73799,0 8.55234,-3.81434 8.55234,-8.55234 v -6.41423 c 0,4.73798 -3.81435,8.55232 -8.55234,8.55232 H 25.744195 c -4.737983,0 -8.55233,-3.81434 -8.55233,-8.55232 z" /><g
       id="g1015"
       transform="matrix(1.0690412,0,0,1.0690412,-4.4186347,-6.8201159)"><path
         d="m 50.532796,66.68424 c 5.871241,0 10.628428,-4.757191 10.628428,-10.628429 0,-5.871239 -4.757187,-10.628429 -10.628428,-10.628429 -5.871242,0 -10.628429,4.75719 -10.628429,10.628429 0,5.871238 4.757187,10.628429 10.628429,10.628429 z m 0,0"
         fill="url(#b)"
         id="path262"
         style="fill:url(#linearGradient439);stroke-width:0.885703" /><path
         d="m 46.420141,79.255757 15.568982,8.89854 c 0.947984,0.539727 1.532681,1.54652 1.532681,2.636349 0,1.08983 -0.584697,2.096625 -1.532681,2.636348 l -15.568981,8.898546 c -0.954902,0.54665 -2.127768,0.53972 -3.079199,-0.0104 -0.95144,-0.55362 -1.536145,-1.56734 -1.536145,-2.667547 v -17.71402 c 0,-1.100209 0.584705,-2.113922 1.536145,-2.667487 0.95143,-0.550103 2.124294,-0.557023 3.079199,-0.01035 z m 0,0"
         fill="url(#c)"
         id="path264"
         style="fill:url(#linearGradient447);stroke-width:0.885703" /><path
         id="path250"
         style="fill:url(#linearGradient252);stroke-width:0.885703"
         d="m 79.211781,64.497288 c -3.912997,0 -7.085857,3.172862 -7.085857,7.08586 v 3.239677 3.846182 c 0,0.489124 0.0487,0.965331 0.143083,1.426568 v 0.0022 c 0.04713,0.229915 0.106301,0.45577 0.175117,0.67698 v 0.0022 c 0.0045,0.01444 0.01035,0.02832 0.01495,0.0427 0.0072,0.02234 0.01612,0.04394 0.02348,0.06621 0.03574,0.107673 0.07281,0.215134 0.113186,0.320335 0.01793,0.04664 0.03665,0.09265 0.05552,0.138814 0.05457,0.133584 0.110646,0.265717 0.172982,0.395082 0.09952,0.206513 0.208377,0.40744 0.326744,0.602235 0.24438,0.402176 0.528771,0.776619 0.84569,1.121179 0.0051,0.0057 0.0097,0.01156 0.01495,0.01708 0.215906,0.233236 0.446649,0.4532 0.691928,0.655626 h 0.0022 c 0.122141,0.100764 0.249192,0.19791 0.377998,0.290437 0.01908,0.01372 0.03844,0.02704 0.05765,0.04057 0.129403,0.09102 0.259513,0.178166 0.395082,0.260543 0.04229,0.02573 0.08525,0.04989 0.128135,0.07474 0.05596,0.03241 0.111802,0.06517 0.168712,0.0961 h 0.0022 c 0.09986,0.05421 0.200567,0.108552 0.303252,0.158034 h 0.0022 c 0.102678,0.04946 0.20643,0.09638 0.311794,0.140947 h 0.0022 c 0.02962,0.01252 0.05987,0.02418 0.08969,0.03631 0.182981,0.07439 0.369296,0.143708 0.559522,0.202881 0.443731,0.138028 0.907489,0.233513 1.383857,0.281898 0.238185,0.0242 0.4794,0.03629 0.723962,0.03629 h 7.085859 c 0.244563,0 0.485778,-0.01212 0.723963,-0.03629 0.476366,-0.04838 0.93799,-0.14387 1.381722,-0.281898 h 0.0022 c 0.221195,-0.06887 0.437908,-0.149802 0.649218,-0.239186 0.211923,-0.08963 0.418522,-0.189897 0.619319,-0.298981 0.200796,-0.109093 0.396668,-0.227166 0.585149,-0.354506 0.155207,-0.104857 0.30453,-0.216596 0.450608,-0.333152 0.09516,-0.07593 0.1887,-0.154274 0.279762,-0.234912 0.0445,-0.03942 0.08891,-0.07909 0.132404,-0.119589 0.02991,-0.02785 0.05822,-0.05715 0.08756,-0.08542 0.0671,-0.06468 0.134254,-0.129446 0.198608,-0.196475 0.123646,-0.128846 0.24289,-0.261518 0.356643,-0.399353 0.144406,-0.174976 0.280557,-0.356093 0.407897,-0.544573 0.127339,-0.188481 0.245422,-0.384355 0.354506,-0.58515 0.109093,-0.200794 0.209338,-0.407394 0.298981,-0.619318 0.358573,-0.847699 0.557387,-1.778787 0.557387,-2.757036 v -3.846175 -3.239677 c 0,-3.912999 -3.172859,-7.08586 -7.085859,-7.08586 z" /></g></g></svg>
