<?xml version="1.0" encoding="UTF-8" standalone="no"?>
<!-- Created with Inkscape (http://www.inkscape.org/) -->

<svg
   width="128"
   height="128"
   viewBox="0 0 128 128"
   version="1.1"
   id="svg5"
   inkscape:version="1.2.2 (b0a8486541, 2022-12-01)"
   sodipodi:docname="org.libreoffice.LibreOffice.math.svg"
   xmlns:inkscape="http://www.inkscape.org/namespaces/inkscape"
   xmlns:sodipodi="http://sodipodi.sourceforge.net/DTD/sodipodi-0.dtd"
   xmlns:xlink="http://www.w3.org/1999/xlink"
   xmlns="http://www.w3.org/2000/svg"
   xmlns:svg="http://www.w3.org/2000/svg">
  <sodipodi:namedview
     id="namedview7"
     pagecolor="#ffffff"
     bordercolor="#666666"
     borderopacity="1"
     inkscape:pageshadow="2"
     inkscape:pageopacity="0.0"
     inkscape:pagecheckerboard="true"
     inkscape:document-units="px"
     showgrid="false"
     inkscape:showpageshadow="false"
     showborder="true"
     inkscape:snap-page="true"
     inkscape:zoom="4.0884933"
     inkscape:cx="160.4503"
     inkscape:cy="62.614753"
     inkscape:window-width="1366"
     inkscape:window-height="731"
     inkscape:window-x="0"
     inkscape:window-y="0"
     inkscape:window-maximized="1"
     inkscape:current-layer="layer2"
     inkscape:snap-global="true"
     inkscape:deskcolor="#d1d1d1" />
  <defs
     id="defs2">
    <inkscape:path-effect
       effect="fillet_chamfer"
       id="path-effect2725"
       is_visible="true"
       lpeversion="1"
       nodesatellites_param="F,0,0,1,0,4,0,1 @ F,0,0,1,0,4,0,1 @ F,0,0,1,0,4,0,1 @ F,0,0,1,0,4,0,1 @ F,0,0,1,0,4,0,1 @ F,0,0,1,0,4,0,1 @ F,0,0,1,0,4,0,1 @ F,0,0,1,0,4,0,1"
       unit="px"
       method="arc"
       mode="F"
       radius="4"
       chamfer_steps="1"
       flexible="false"
       use_knot_distance="true"
       apply_no_radius="true"
       apply_with_radius="true"
       only_selected="false"
       hide_knots="false" />
    <inkscape:path-effect
       effect="fillet_chamfer"
       id="path-effect2717"
       is_visible="true"
       lpeversion="1"
       nodesatellites_param="F,1,0,1,1,0.04,0,1 @ F,1,0,1,1,0.04,0,1 @ F,1,0,1,1,0.04,0,1 @ F,1,0,1,1,0.04,0,1 @ F,1,0,1,1,0.04,0,1 @ F,1,0,1,1,0.04,0,1 @ F,1,0,1,1,0.04,0,1 @ F,1,0,1,1,0.04,0,1"
       unit="px"
       method="arc"
       mode="F"
       radius="4"
       chamfer_steps="1"
       flexible="true"
       use_knot_distance="true"
       apply_no_radius="true"
       apply_with_radius="true"
       only_selected="false"
       hide_knots="true" />
    <inkscape:path-effect
       effect="fillet_chamfer"
       id="path-effect5370"
       is_visible="true"
       lpeversion="1"
       nodesatellites_param="F,1,0,1,1,0.04,0,1 @ F,1,0,1,1,0.04,0,1 @ F,1,0,1,1,0.04,0,1 @ F,1,0,1,1,0.04,0,1 @ F,1,0,1,1,0.04,0,1 @ F,1,0,1,1,0.04,0,1 @ F,1,0,1,1,0.04,0,1 @ F,1,0,1,1,0.04,0,1"
       unit="px"
       method="arc"
       mode="F"
       radius="4"
       chamfer_steps="1"
       flexible="true"
       use_knot_distance="true"
       apply_no_radius="true"
       apply_with_radius="true"
       only_selected="false"
       hide_knots="true" />
    <inkscape:path-effect
       effect="fillet_chamfer"
       id="path-effect5294"
       is_visible="true"
       lpeversion="1"
       nodesatellites_param="F,1,0,1,1,0.04,0,1 @ F,1,0,1,1,0.04,0,1 @ F,1,0,1,1,0.04,0,1 @ F,1,0,1,1,0.04,0,1 @ F,1,0,1,1,0.04,0,1 @ F,1,0,1,1,0.04,0,1 @ F,1,0,1,1,0.04,0,1 @ F,1,0,1,1,0.04,0,1"
       unit="px"
       method="arc"
       mode="F"
       radius="4"
       chamfer_steps="1"
       flexible="true"
       use_knot_distance="true"
       apply_no_radius="true"
       apply_with_radius="true"
       only_selected="false"
       hide_knots="true" />
    <inkscape:path-effect
       effect="fillet_chamfer"
       id="path-effect5288"
       is_visible="true"
       lpeversion="1"
       nodesatellites_param="F,1,0,1,1,0.04,0,1 @ F,1,0,1,1,0.04,0,1 @ F,1,0,1,1,0.04,0,1 @ F,1,0,1,1,0.04,0,1 @ F,1,0,1,1,0.04,0,1 @ F,1,0,1,1,0.04,0,1 @ F,1,0,1,1,0.04,0,1 @ F,1,0,1,1,0.04,0,1"
       unit="px"
       method="arc"
       mode="F"
       radius="4"
       chamfer_steps="1"
       flexible="true"
       use_knot_distance="true"
       apply_no_radius="true"
       apply_with_radius="true"
       only_selected="false"
       hide_knots="true" />
    <inkscape:path-effect
       effect="fillet_chamfer"
       id="path-effect5286"
       is_visible="true"
       lpeversion="1"
       nodesatellites_param="F,0,0,1,0,0,0,1 @ F,0,0,1,0,0,0,1 @ F,0,0,1,0,0,0,1 @ F,0,0,1,0,0,0,1 @ F,0,0,1,0,0,0,1 @ F,0,0,1,0,0,0,1 @ F,0,0,1,0,0,0,1 @ F,0,0,1,0,0,0,1"
       unit="px"
       method="auto"
       mode="F"
       radius="0"
       chamfer_steps="1"
       flexible="false"
       use_knot_distance="true"
       apply_no_radius="true"
       apply_with_radius="true"
       only_selected="true"
       hide_knots="false" />
    <inkscape:path-effect
       effect="fillet_chamfer"
       id="path-effect5284"
       is_visible="true"
       lpeversion="1"
       nodesatellites_param="F,0,0,1,0,4,0,1 @ F,0,0,1,0,4,0,1 @ F,0,0,1,0,4,0,1 @ F,0,0,1,0,4,0,1"
       unit="px"
       method="auto"
       mode="F"
       radius="4"
       chamfer_steps="1"
       flexible="false"
       use_knot_distance="true"
       apply_no_radius="true"
       apply_with_radius="true"
       only_selected="false"
       hide_knots="false" />
    <inkscape:path-effect
       effect="fillet_chamfer"
       id="path-effect5282"
       is_visible="true"
       lpeversion="1"
       nodesatellites_param="F,0,0,1,0,0,0,1 @ F,0,0,1,0,0,0,1 @ F,0,0,1,0,0,0,1 @ F,0,0,1,0,0,0,1"
       unit="px"
       method="auto"
       mode="F"
       radius="0"
       chamfer_steps="1"
       flexible="false"
       use_knot_distance="true"
       apply_no_radius="true"
       apply_with_radius="true"
       only_selected="true"
       hide_knots="false" />
    <linearGradient
       y2="236"
       x2="96"
       y1="236"
       x1="32"
       gradientTransform="translate(604.81684,170.58641)"
       gradientUnits="userSpaceOnUse"
       id="linearGradient1099"
       xlink:href="#linearGradient1036" />
    <linearGradient
       id="linearGradient1036">
      <stop
         id="stop1032"
         offset="0"
         style="stop-color:#d5d3cf;stop-opacity:1;" />
      <stop
         id="stop1034"
         offset="1"
         style="stop-color:#f6f5f4;stop-opacity:1" />
    </linearGradient>
    <radialGradient
       r="32"
       fy="-76"
       fx="-244"
       cy="-76"
       cx="-244"
       gradientTransform="matrix(0.88333331,0,0,0.88333331,-460.35018,463.11973)"
       gradientUnits="userSpaceOnUse"
       id="radialGradient1103"
       xlink:href="#linearGradient1069" />
    <linearGradient
       id="linearGradient1069">
      <stop
         id="stop1065"
         offset="0"
         style="stop-color:#d5d3cf;stop-opacity:1" />
      <stop
         id="stop1067-1"
         offset="1"
         style="stop-color:#949390;stop-opacity:1" />
    </linearGradient>
    <linearGradient
       gradientUnits="userSpaceOnUse"
       y2="232"
       x2="64"
       y1="262.5"
       x1="64"
       id="linearGradient1027"
       xlink:href="#linearGradient1025"
       gradientTransform="translate(-470.5864,432.81685)" />
    <linearGradient
       id="linearGradient1025">
      <stop
         id="stop1021"
         offset="0"
         style="stop-color:#9a9996;stop-opacity:1" />
      <stop
         id="stop1023"
         offset="1"
         style="stop-color:#77767b;stop-opacity:1" />
    </linearGradient>
    <inkscape:path-effect
       effect="spiro"
       id="path-effect35304-9"
       is_visible="true" />
    <clipPath
       clipPathUnits="userSpaceOnUse"
       id="clipPath1609-7">
      <path
         sodipodi:nodetypes="cccccc"
         inkscape:connector-curvature="0"
         id="path1611-5"
         d="m 252,116 28,-28 v -8 h -36 v 36 z"
         style="fill:#e74747;stroke:none;stroke-width:0.25px;stroke-linecap:butt;stroke-linejoin:miter;stroke-opacity:1" />
    </clipPath>
    <linearGradient
       inkscape:collect="always"
       id="linearGradient8241">
      <stop
         style="stop-color:#dd3e3e;stop-opacity:1;"
         offset="0"
         id="stop8237" />
      <stop
         style="stop-color:#ec5656;stop-opacity:1;"
         offset="0.05"
         id="stop9349" />
      <stop
         style="stop-color:#dd3e3e;stop-opacity:1;"
         offset="0.1"
         id="stop21746" />
      <stop
         style="stop-color:#dd3e3e;stop-opacity:1;"
         offset="0.89999998"
         id="stop21940" />
      <stop
         style="stop-color:#ec5656;stop-opacity:1;"
         offset="0.94999999"
         id="stop9351" />
      <stop
         style="stop-color:#dd3e3e;stop-opacity:1;"
         offset="1"
         id="stop8239" />
    </linearGradient>
    <radialGradient
       r="32"
       fy="-76"
       fx="-244"
       cy="-76"
       cx="-244"
       gradientTransform="matrix(0.88333331,0,0,0.88333331,-460.35018,463.11973)"
       gradientUnits="userSpaceOnUse"
       id="radialGradient1103-5"
       xlink:href="#linearGradient1069" />
    <inkscape:path-effect
       effect="spiro"
       id="path-effect35304-9-2"
       is_visible="true" />
    <clipPath
       clipPathUnits="userSpaceOnUse"
       id="clipPath1609-7-7">
      <path
         sodipodi:nodetypes="cccccc"
         inkscape:connector-curvature="0"
         id="path1611-5-0"
         d="m 252,116 28,-28 v -8 h -36 v 36 z"
         style="fill:#e74747;stroke:none;stroke-width:0.25px;stroke-linecap:butt;stroke-linejoin:miter;stroke-opacity:1" />
    </clipPath>
    <clipPath
       clipPathUnits="userSpaceOnUse"
       id="clipPath744">
      <rect
         style="fill:#1e88e5;fill-opacity:1;stroke-width:0.264583"
         id="rect746"
         width="541.86664"
         height="541.86664"
         x="0"
         y="1.5987212e-14"
         rx="79.375"
         ry="79.375" />
    </clipPath>
    <clipPath
       clipPathUnits="userSpaceOnUse"
       id="clipPath62">
      <rect
         style="fill:#1e88e5;fill-opacity:1;stroke-width:0.264583"
         id="rect64"
         width="541.86664"
         height="541.86664"
         x="2.2507105e-05"
         y="-0.42205024"
         rx="79.375"
         ry="79.375" />
    </clipPath>
    <linearGradient
       inkscape:collect="always"
       xlink:href="#linearGradient8241"
       id="linearGradient8243"
       x1="11.5"
       y1="120.5"
       x2="116.5"
       y2="120.5"
       gradientUnits="userSpaceOnUse"
       gradientTransform="matrix(0.82688879,0,0,1,11.079114,-1)" />
    <radialGradient
       r="32"
       fy="-76"
       fx="-244"
       cy="-76"
       cx="-244"
       gradientTransform="matrix(0.88333331,0,0,0.88333331,-460.35018,463.11973)"
       gradientUnits="userSpaceOnUse"
       id="radialGradient1103-6"
       xlink:href="#linearGradient1069" />
    <inkscape:path-effect
       effect="spiro"
       id="path-effect35304-9-20"
       is_visible="true" />
    <clipPath
       clipPathUnits="userSpaceOnUse"
       id="clipPath1609-7-2">
      <path
         sodipodi:nodetypes="cccccc"
         inkscape:connector-curvature="0"
         id="path1611-5-3"
         d="m 252,116 28,-28 v -8 h -36 v 36 z"
         style="fill:#e74747;stroke:none;stroke-width:0.25px;stroke-linecap:butt;stroke-linejoin:miter;stroke-opacity:1" />
    </clipPath>
    <clipPath
       clipPathUnits="userSpaceOnUse"
       id="clipPath966">
      <rect
         style="fill:#999999;fill-opacity:1;stroke-width:0.264583"
         id="rect968"
         width="541.86664"
         height="541.86664"
         x="0"
         y="-2.8421709e-14"
         rx="79.375"
         ry="79.375" />
    </clipPath>
    <clipPath
       clipPathUnits="userSpaceOnUse"
       id="clipPath402">
      <rect
         style="fill:#999999;fill-opacity:1;stroke-width:0.264583"
         id="rect404"
         width="541.86664"
         height="541.86664"
         x="1.5908203e-05"
         y="1.5908203e-05"
         rx="79.375"
         ry="79.375" />
    </clipPath>
    <clipPath
       clipPathUnits="userSpaceOnUse"
       id="clipPath2739">
      <rect
         style="fill:#999999;fill-opacity:1;stroke-width:0.264583"
         id="rect2741"
         width="541.86664"
         height="541.86664"
         x="-7.8515623e-06"
         y="1.8626168"
         rx="79.375"
         ry="79.375" />
    </clipPath>
  </defs>
  <g
     inkscape:groupmode="layer"
     id="layer2"
     inkscape:label="Layer 1">
    <path
       id="rect440"
       style="fill:url(#linearGradient8243);fill-opacity:1;stroke-width:0.909334"
       d="M 20.587891,65.210938 V 111.5 c 0,4.432 3.568008,8 8,8 h 70.824218 c 4.431991,0 8.000001,-3.568 8.000001,-8 V 65.210938 Z" />
    <path
       id="rect388"
       style="fill:#ed6363;fill-opacity:1;stroke-width:0.909334"
       d="M 29.115234 8.5 A 16.39117 16.39117 0 0 0 28.060547 8.5175781 C 25.090849 8.709115 22.573103 10.506071 21.361328 13.054688 A 16.010351 16.010351 0 0 0 21.314453 13.263672 C 20.927328 14.119591 20.66913 15.046169 20.605469 16.033203 A 16.391196 16.391196 0 0 0 20.597656 16.449219 A 16.010351 16.010351 0 0 0 20.587891 20.060547 L 20.587891 102.00195 A 16.010361 16.010361 0 0 0 20.597656 105.61133 A 16.391196 16.391196 0 0 0 20.605469 106.02734 C 20.669152 107.01472 20.927093 107.94267 21.314453 108.79883 A 16.010361 16.010361 0 0 0 21.361328 109.00586 C 22.573102 111.55448 25.090848 113.35338 28.060547 113.54492 A 16.391187 16.391187 0 0 0 29.115234 113.56055 L 69.554688 113.56055 A 4.121107 4.121107 0 0 0 69.859375 113.5 L 98.884766 113.5 A 16.391155 16.391155 0 0 0 99.939453 113.48242 C 103.30155 113.26557 106.08477 110.99157 107.04883 107.89844 A 16.097574 16.097574 0 0 0 107.41211 103.06641 L 107.41211 75.367188 L 107.41211 46.693359 L 107.41211 18.996094 A 16.097573 16.097573 0 0 0 107.04883 14.164062 C 106.08477 11.070929 103.30155 8.7949706 99.939453 8.578125 A 16.391156 16.391156 0 0 0 98.884766 8.5605469 L 69.857422 8.5605469 A 4.1211068 4.1211068 0 0 0 69.554688 8.5 L 29.115234 8.5 z " />
    <path
       id="path5290"
       style="fill:#f9f9f9;fill-opacity:1;stroke-width:0.7405"
       d="M 35.587891 18.253906 A 13.347857 13.347857 0 0 0 34.728516 18.267578 C 32.31024 18.42355 30.258291 19.887531 29.271484 21.962891 A 13.037451 13.037451 0 0 0 28.642578 26.773438 A 13.037451 13.037451 0 0 0 28.642578 29.666016 L 28.642578 96.814453 L 28.642578 98.814453 A 13.347897 13.347897 0 0 0 28.65625 99.673828 C 28.825563 102.29896 30.537534 104.48933 32.898438 105.35742 A 13.078718 13.078718 0 0 0 37.464844 105.75781 L 92.402344 105.75781 A 13.347877 13.347877 0 0 0 93.261719 105.74414 C 95.999538 105.56756 98.26568 103.71409 99.050781 101.19531 A 13.108327 13.108327 0 0 0 99.347656 97.261719 L 99.347656 97.240234 A 13.108327 13.108327 0 0 0 99.347656 95.261719 L 99.347656 51.355469 L 99.347656 49.355469 A 4.0200998 4.0200998 0 0 0 98.169922 46.511719 L 70.890625 19.236328 A 3.3559491 3.3559491 0 0 0 68.517578 18.253906 L 35.587891 18.253906 z " />
    <path
       id="path2720"
       style="fill:#f9f9f9;fill-opacity:1;stroke-width:0.7405"
       d="m 81.051083,21.131161 15.468146,15.468146 a 1.6568542,1.6568542 157.5 0 0 2.828427,-1.171573 v -2.628906 a 79.163609,79.163609 90 0 1 0,-5.978516 v -0.02148 c -0.296875,-3.933594 -0.296875,-3.933594 -0.296875,-3.933594 a 6.9867737,6.9867737 16.921967 0 0 -6.648437,-4.5625 H 82.222656 a 1.6568542,1.6568542 112.5 0 0 -1.171573,2.828427 z"
       inkscape:path-effect="#path-effect2725"
       inkscape:original-d="M 78.222656 18.302734 L 99.347656 39.427734 L 99.347656 28.798828 A 13.108327 13.108327 0 0 0 99.347656 26.820312 L 99.347656 26.798828 A 13.108327 13.108327 0 0 0 99.050781 22.865234 C 98.265681 20.346457 95.999535 18.492986 93.261719 18.316406 A 13.347877 13.347877 0 0 0 92.402344 18.302734 L 78.222656 18.302734 z " />
    <g
       aria-label="√x"
       id="text2878"
       style="font-weight:bold;font-size:43.2068px;font-family:'Liberation Mono';-inkscape-font-specification:'Liberation Mono Bold';fill:#b3b3b3;stroke:#999999;stroke-width:0;stroke-linejoin:round"
       transform="translate(0,6)">
      <g
         id="path3192"
         style="fill:#b3b3b3">
        <path
           style="color:#000000;-inkscape-font-specification:'Carlito Bold';fill:#b3b3b3;stroke:none;stroke-linejoin:miter;-inkscape-stroke:none"
           d="m 56.273228,79.383018 h -4.514773 l -4.303802,-12.9536 h -1.476795 q -0.400844,0 -0.759494,-0.105486 -0.35865,-0.126582 -0.632912,-0.379747 -0.274262,-0.274262 -0.443039,-0.675106 -0.168776,-0.421941 -0.168776,-1.012659 v -1.687766 h 6.645577 q 0.569621,0 0.970465,0.295359 0.400844,0.274262 0.527427,0.696203 l 1.308018,5.843889 q 0.274262,0.886076 0.443038,1.79325 0.168777,0.907174 0.274262,1.835446 0.126583,-0.717301 0.274262,-1.434601 0.168777,-0.738398 0.400845,-1.518989 l 6.4768,-24.40931 q 0.147679,-0.421941 0.50633,-0.696203 0.379747,-0.295359 0.928271,-0.295359 h 3.544307 z"
           id="path3199" />
        <path
           style="color:#000000;-inkscape-font-specification:'Carlito Bold';fill:#b3b3b3;stroke:none;stroke-linejoin:miter;-inkscape-stroke:none"
           d="m 56.273228,79.383018 h -4.514773 l -4.303802,-12.9536 h -1.476795 c -0.267229,0 -0.520394,-0.03516 -0.759494,-0.105486 -0.2391,-0.08439 -0.450071,-0.210971 -0.632912,-0.379747 -0.182841,-0.182841 -0.330521,-0.407877 -0.443039,-0.675106 -0.112517,-0.281294 -0.168776,-0.618847 -0.168776,-1.012659 v -1.687766 h 6.645577 c 0.379747,0 0.703236,0.09845 0.970465,0.295359 0.267229,0.182841 0.443038,0.414909 0.527427,0.696203 l 1.308018,5.843889 c 0.182841,0.590717 0.330521,1.188468 0.443038,1.79325 0.112518,0.604782 0.203939,1.216599 0.274262,1.835446 0.08439,-0.4782 0.175809,-0.956401 0.274262,-1.434601 0.112518,-0.492265 0.246133,-0.998596 0.400845,-1.518989 l 6.4768,-24.40931 c 0.09845,-0.281294 0.26723,-0.513362 0.50633,-0.696203 0.253164,-0.196906 0.562589,-0.295359 0.928271,-0.295359 h 3.544307 z"
           id="path3201" />
      </g>
      <g
         id="path3194"
         style="fill:#b3b3b3">
        <path
           style="color:#000000;-inkscape-font-specification:'Carlito Bold';fill:#b3b3b3;stroke:none;stroke-linejoin:miter;-inkscape-stroke:none"
           d="M 70.8724,68.581319 65.049609,58.433628 h 5.147685 q 0.569621,0 0.822786,0.168777 0.274261,0.147679 0.485232,0.50633 l 3.31224,6.413509 q 0.105485,-0.253165 0.232068,-0.50633 0.126582,-0.274262 0.295359,-0.548524 l 2.278483,-5.274267 q 0.464136,-0.759495 1.181436,-0.759495 h 4.915617 l -5.843888,9.873429 6.097053,11.075961 h -5.147685 q -0.569621,0 -0.928271,-0.295358 -0.35865,-0.316457 -0.569621,-0.675107 l -3.333337,-6.645577 q -0.08439,0.232068 -0.189873,0.443039 -0.08439,0.210971 -0.189874,0.379747 l -2.637134,5.822791 q -0.232067,0.35865 -0.56962,0.675107 -0.316457,0.295358 -0.843883,0.295358 h -4.767938 z"
           id="path3205" />
        <path
           style="color:#000000;-inkscape-font-specification:'Carlito Bold';fill:#b3b3b3;stroke:none;stroke-linejoin:miter;-inkscape-stroke:none"
           d="M 70.8724,68.581319 65.049609,58.433628 h 5.147685 c 0.379747,0 0.65401,0.05626 0.822786,0.168777 0.18284,0.09845 0.344585,0.26723 0.485232,0.50633 l 3.31224,6.413509 c 0.07032,-0.168776 0.147679,-0.337554 0.232068,-0.50633 0.08439,-0.182841 0.182841,-0.365683 0.295359,-0.548524 l 2.278483,-5.274267 c 0.309424,-0.506329 0.703236,-0.759495 1.181436,-0.759495 h 4.915617 l -5.843888,9.873429 6.097053,11.075961 h -5.147685 c -0.379747,0 -0.689171,-0.09845 -0.928271,-0.295358 -0.2391,-0.210971 -0.428974,-0.436007 -0.569621,-0.675107 l -3.333337,-6.645577 c -0.05626,0.154712 -0.119551,0.302392 -0.189873,0.443039 -0.05626,0.140647 -0.119551,0.26723 -0.189874,0.379747 l -2.637134,5.822791 c -0.154711,0.2391 -0.344585,0.464136 -0.56962,0.675107 -0.210971,0.196905 -0.492266,0.295358 -0.843883,0.295358 h -4.767938 z"
           id="path3207" />
      </g>
    </g>
    <path
       id="path347"
       style="fill:#ffffff;fill-opacity:0.39700949;stroke-width:0.909334"
       d="M 29.115234 8.5 A 16.39117 16.39117 0 0 0 28.060547 8.5175781 C 25.090852 8.7091148 22.573102 10.506073 21.361328 13.054688 A 16.010351 16.010351 0 0 0 21.314453 13.263672 C 20.927329 14.11959 20.66913 15.04617 20.605469 16.033203 A 16.391196 16.391196 0 0 0 20.597656 16.449219 A 16.010351 16.010351 0 0 0 20.587891 20.060547 L 20.587891 22.060547 A 16.010351 16.010351 0 0 1 20.597656 18.449219 A 16.391196 16.391196 0 0 1 20.605469 18.033203 C 20.66913 17.04617 20.927329 16.11959 21.314453 15.263672 A 16.010351 16.010351 0 0 1 21.361328 15.054688 C 22.573102 12.506073 25.090852 10.709115 28.060547 10.517578 A 16.39117 16.39117 0 0 1 29.115234 10.5 L 69.554688 10.5 A 4.1211068 4.1211068 0 0 1 69.857422 10.560547 L 98.884766 10.560547 A 16.391156 16.391156 0 0 1 99.939453 10.578125 C 103.30155 10.794971 106.08477 13.070933 107.04883 16.164062 A 16.097573 16.097573 0 0 1 107.42773 18.78125 A 16.097573 16.097573 0 0 0 107.04883 14.164062 C 106.08477 11.070933 103.30155 8.7949704 99.939453 8.578125 A 16.391156 16.391156 0 0 0 98.884766 8.5605469 L 69.857422 8.5605469 A 4.1211068 4.1211068 0 0 0 69.554688 8.5 L 29.115234 8.5 z M 107.41211 103.06641 L 107.41211 105.06641 A 16.097574 16.097574 0 0 1 107.42773 105.27734 A 16.097574 16.097574 0 0 0 107.41211 103.06641 z " />
  </g>
</svg>
