<?xml version="1.0" encoding="UTF-8" standalone="no"?>
<!-- Created with Inkscape (http://www.inkscape.org/) -->

<svg
   width="128"
   height="128"
   viewBox="0 0 128 128"
   version="1.1"
   id="svg5"
   inkscape:version="1.3.2 (091e20ef0f, 2023-11-25)"
   sodipodi:docname="org.gnome.Maps.svg"
   inkscape:export-filename="/home/retro/.icons/skeuowaita/scalable/apps/skeuowaita.png"
   inkscape:export-xdpi="1536"
   inkscape:export-ydpi="1536"
   xml:space="preserve"
   xmlns:inkscape="http://www.inkscape.org/namespaces/inkscape"
   xmlns:sodipodi="http://sodipodi.sourceforge.net/DTD/sodipodi-0.dtd"
   xmlns:xlink="http://www.w3.org/1999/xlink"
   xmlns="http://www.w3.org/2000/svg"
   xmlns:svg="http://www.w3.org/2000/svg"><sodipodi:namedview
     id="namedview7"
     pagecolor="#ffffff"
     bordercolor="#666666"
     borderopacity="1"
     inkscape:pageshadow="2"
     inkscape:pageopacity="0.0"
     inkscape:pagecheckerboard="true"
     inkscape:document-units="px"
     showgrid="false"
     inkscape:showpageshadow="false"
     showborder="true"
     inkscape:snap-page="true"
     inkscape:zoom="4"
     inkscape:cx="63.25"
     inkscape:cy="73.25"
     inkscape:window-width="1920"
     inkscape:window-height="1043"
     inkscape:window-x="0"
     inkscape:window-y="0"
     inkscape:window-maximized="1"
     inkscape:current-layer="layer2"
     inkscape:snap-bbox="true"
     inkscape:snap-bbox-midpoints="true"
     inkscape:snap-bbox-edge-midpoints="true"
     inkscape:bbox-nodes="true"
     inkscape:bbox-paths="true"
     inkscape:snap-intersection-paths="true"
     inkscape:object-paths="true"
     inkscape:snap-smooth-nodes="true"
     inkscape:snap-midpoints="true"
     inkscape:deskcolor="#d1d1d1" /><defs
     id="defs2"><linearGradient
       y2="236"
       x2="96"
       y1="236"
       x1="32"
       gradientTransform="translate(604.81684,170.58641)"
       gradientUnits="userSpaceOnUse"
       id="linearGradient1099"
       xlink:href="#linearGradient1036" /><linearGradient
       id="linearGradient1036"><stop
         id="stop1032"
         offset="0"
         style="stop-color:#d5d3cf;stop-opacity:1;" /><stop
         id="stop1034"
         offset="1"
         style="stop-color:#f6f5f4;stop-opacity:1" /></linearGradient><radialGradient
       r="32"
       fy="-76"
       fx="-244"
       cy="-76"
       cx="-244"
       gradientTransform="matrix(0.88333331,0,0,0.88333331,-460.35018,463.11973)"
       gradientUnits="userSpaceOnUse"
       id="radialGradient1103"
       xlink:href="#linearGradient1069" /><linearGradient
       id="linearGradient1069"><stop
         id="stop1065"
         offset="0"
         style="stop-color:#d5d3cf;stop-opacity:1" /><stop
         id="stop1067-1"
         offset="1"
         style="stop-color:#949390;stop-opacity:1" /></linearGradient><linearGradient
       gradientUnits="userSpaceOnUse"
       y2="232"
       x2="64"
       y1="262.5"
       x1="64"
       id="linearGradient1027"
       xlink:href="#linearGradient1025"
       gradientTransform="translate(-470.5864,432.81685)" /><linearGradient
       id="linearGradient1025"><stop
         id="stop1021"
         offset="0"
         style="stop-color:#9a9996;stop-opacity:1" /><stop
         id="stop1023"
         offset="1"
         style="stop-color:#77767b;stop-opacity:1" /></linearGradient><inkscape:path-effect
       effect="spiro"
       id="path-effect35304-9"
       is_visible="true" /><clipPath
       clipPathUnits="userSpaceOnUse"
       id="clipPath1609-7"><path
         sodipodi:nodetypes="cccccc"
         inkscape:connector-curvature="0"
         id="path1611-5"
         d="m 252,116 28,-28 v -8 h -36 v 36 z"
         style="fill:#e74747;stroke:none;stroke-width:0.25px;stroke-linecap:butt;stroke-linejoin:miter;stroke-opacity:1" /></clipPath><radialGradient
       r="32"
       fy="-76"
       fx="-244"
       cy="-76"
       cx="-244"
       gradientTransform="matrix(0.88333331,0,0,0.88333331,-460.35018,463.11973)"
       gradientUnits="userSpaceOnUse"
       id="radialGradient1103-5"
       xlink:href="#linearGradient1069" /><inkscape:path-effect
       effect="spiro"
       id="path-effect35304-9-2"
       is_visible="true" /><clipPath
       clipPathUnits="userSpaceOnUse"
       id="clipPath1609-7-7"><path
         sodipodi:nodetypes="cccccc"
         inkscape:connector-curvature="0"
         id="path1611-5-0"
         d="m 252,116 28,-28 v -8 h -36 v 36 z"
         style="fill:#e74747;stroke:none;stroke-width:0.25px;stroke-linecap:butt;stroke-linejoin:miter;stroke-opacity:1" /></clipPath><clipPath
       clipPathUnits="userSpaceOnUse"
       id="clipPath744"><rect
         style="fill:#1e88e5;fill-opacity:1;stroke-width:0.264583"
         id="rect746"
         width="541.86664"
         height="541.86664"
         x="0"
         y="1.5987212e-14"
         rx="79.375"
         ry="79.375" /></clipPath><clipPath
       clipPathUnits="userSpaceOnUse"
       id="clipPath62"><rect
         style="fill:#1e88e5;fill-opacity:1;stroke-width:0.264583"
         id="rect64"
         width="541.86664"
         height="541.86664"
         x="2.2507105e-05"
         y="-0.42205024"
         rx="79.375"
         ry="79.375" /></clipPath><radialGradient
       r="32"
       fy="-76"
       fx="-244"
       cy="-76"
       cx="-244"
       gradientTransform="matrix(0.88333331,0,0,0.88333331,-460.35018,463.11973)"
       gradientUnits="userSpaceOnUse"
       id="radialGradient1103-6"
       xlink:href="#linearGradient1069" /><inkscape:path-effect
       effect="spiro"
       id="path-effect35304-9-20"
       is_visible="true" /><clipPath
       clipPathUnits="userSpaceOnUse"
       id="clipPath1609-7-2"><path
         sodipodi:nodetypes="cccccc"
         inkscape:connector-curvature="0"
         id="path1611-5-3"
         d="m 252,116 28,-28 v -8 h -36 v 36 z"
         style="fill:#e74747;stroke:none;stroke-width:0.25px;stroke-linecap:butt;stroke-linejoin:miter;stroke-opacity:1" /></clipPath><clipPath
       clipPathUnits="userSpaceOnUse"
       id="clipPath961"><rect
         style="fill:#00c853;stroke:none;stroke-width:0.529037"
         id="rect963"
         width="541.86664"
         height="541.86664"
         x="1.4210855e-14"
         y="2.717972e-05"
         rx="79.375"
         ry="79.375" /></clipPath><radialGradient
       r="32"
       fy="-76"
       fx="-244"
       cy="-76"
       cx="-244"
       gradientTransform="matrix(0.88333331,0,0,0.88333331,-460.35018,463.11973)"
       gradientUnits="userSpaceOnUse"
       id="radialGradient1103-56"
       xlink:href="#linearGradient1069" /><inkscape:path-effect
       effect="spiro"
       id="path-effect35304-9-7"
       is_visible="true" /><clipPath
       clipPathUnits="userSpaceOnUse"
       id="clipPath1440"><circle
         style="display:inline;opacity:1;vector-effect:none;fill:none;fill-opacity:1;stroke:#000000;stroke-width:2;stroke-linecap:butt;stroke-linejoin:miter;stroke-miterlimit:4;stroke-dasharray:none;stroke-dashoffset:0;stroke-opacity:1;marker:none;marker-start:none;marker-mid:none;marker-end:none;paint-order:normal;enable-background:new"
         id="circle1442"
         cx="-134.35028"
         cy="193.74727"
         r="24"
         transform="rotate(-45)" /></clipPath><clipPath
       clipPathUnits="userSpaceOnUse"
       id="clipPath1430"><circle
         style="display:inline;opacity:1;vector-effect:none;fill:none;fill-opacity:1;stroke:#000000;stroke-width:2;stroke-linecap:butt;stroke-linejoin:miter;stroke-miterlimit:4;stroke-dasharray:none;stroke-dashoffset:0;stroke-opacity:1;marker:none;marker-start:none;marker-mid:none;marker-end:none;paint-order:normal;enable-background:new"
         id="circle1432"
         cx="12"
         cy="232"
         r="24" /></clipPath><clipPath
       clipPathUnits="userSpaceOnUse"
       id="clipPath1440-9"><circle
         style="display:inline;opacity:1;vector-effect:none;fill:none;fill-opacity:1;stroke:#000000;stroke-width:2;stroke-linecap:butt;stroke-linejoin:miter;stroke-miterlimit:4;stroke-dasharray:none;stroke-dashoffset:0;stroke-opacity:1;marker:none;marker-start:none;marker-mid:none;marker-end:none;paint-order:normal;enable-background:new"
         id="circle1442-5"
         cx="-134.35028"
         cy="193.74727"
         r="24"
         transform="rotate(-45)" /></clipPath><clipPath
       clipPathUnits="userSpaceOnUse"
       id="clipPath1430-1"><circle
         style="display:inline;opacity:1;vector-effect:none;fill:none;fill-opacity:1;stroke:#000000;stroke-width:2;stroke-linecap:butt;stroke-linejoin:miter;stroke-miterlimit:4;stroke-dasharray:none;stroke-dashoffset:0;stroke-opacity:1;marker:none;marker-start:none;marker-mid:none;marker-end:none;paint-order:normal;enable-background:new"
         id="circle1432-8"
         cx="12"
         cy="232"
         r="24" /></clipPath><clipPath
       clipPathUnits="userSpaceOnUse"
       id="clipPath2024"><rect
         style="opacity:1;vector-effect:none;fill:#63452c;fill-opacity:1;stroke:none;stroke-width:4;stroke-linecap:round;stroke-linejoin:round;stroke-miterlimit:4;stroke-dasharray:none;stroke-dashoffset:0;stroke-opacity:1"
         id="rect2026"
         width="74"
         height="98"
         x="6"
         y="196" /></clipPath><linearGradient
       id="linearGradient914"
       inkscape:collect="always"><stop
         id="stop910"
         offset="0"
         style="stop-color:#f6f5f4;stop-opacity:0.43700787" /><stop
         id="stop912"
         offset="1"
         style="stop-color:#deddda;stop-opacity:0;" /></linearGradient><radialGradient
       gradientTransform="matrix(2.6086955,0,0,1.8410361,-102.95652,-748.94671)"
       gradientUnits="userSpaceOnUse"
       r="46"
       fy="296"
       fx="64.000008"
       cy="296"
       cx="64.000008"
       id="radialGradient916"
       xlink:href="#linearGradient914"
       inkscape:collect="always" /><clipPath
       clipPathUnits="userSpaceOnUse"
       id="clipPath11543"><rect
         style="fill:#f0c04e;fill-opacity:1;stroke:none;stroke-width:0.529037"
         id="rect11545"
         width="541.86664"
         height="541.86664"
         x="1.4746095e-06"
         y="6.4330168e-05"
         rx="79.375"
         ry="79.375" /></clipPath><style
       id="style374">.cls-1{fill:url(#linear-gradient);}.cls-2{opacity:0.35;fill:url(#radial-gradient);}.cls-2,.cls-4{isolation:isolate;}.cls-3{fill:url(#linear-gradient-2);}.cls-4{opacity:0.41;fill:url(#radial-gradient-2);}.cls-5{fill:url(#radial-gradient-3);}.cls-6{fill:url(#radial-gradient-4);}</style><linearGradient
       id="linear-gradient"
       x1="63.33"
       y1="84.03"
       x2="241.67"
       y2="84.03"
       gradientTransform="matrix(1,0,0,-1,0,266)"
       gradientUnits="userSpaceOnUse"><stop
         offset="0"
         stop-color="#0c59a4"
         id="stop376" /><stop
         offset="1"
         stop-color="#114a8b"
         id="stop378" /></linearGradient><radialGradient
       id="radial-gradient"
       cx="161.83"
       cy="68.91"
       r="95.38"
       gradientTransform="matrix(1,0,0,-0.95,0,248.84)"
       gradientUnits="userSpaceOnUse"><stop
         offset="0.72"
         stop-opacity="0"
         id="stop381" /><stop
         offset="0.95"
         stop-opacity="0.53"
         id="stop383" /><stop
         offset="1"
         id="stop385" /></radialGradient><linearGradient
       id="linear-gradient-2"
       x1="157.35"
       y1="161.39"
       x2="45.96"
       y2="40.06"
       gradientTransform="matrix(1,0,0,-1,0,266)"
       gradientUnits="userSpaceOnUse"><stop
         offset="0"
         stop-color="#1b9de2"
         id="stop388" /><stop
         offset="0.16"
         stop-color="#1595df"
         id="stop390" /><stop
         offset="0.67"
         stop-color="#0680d7"
         id="stop392" /><stop
         offset="1"
         stop-color="#0078d4"
         id="stop394" /></linearGradient><radialGradient
       id="radial-gradient-2"
       cx="-340.29"
       cy="62.99"
       r="143.24"
       gradientTransform="matrix(0.15,-0.99,-0.8,-0.12,176.64,-125.4)"
       gradientUnits="userSpaceOnUse"><stop
         offset="0.76"
         stop-opacity="0"
         id="stop397" /><stop
         offset="0.95"
         stop-opacity="0.5"
         id="stop399" /><stop
         offset="1"
         id="stop401" /></radialGradient><radialGradient
       id="radial-gradient-3"
       cx="113.37"
       cy="570.21"
       r="202.43"
       gradientTransform="matrix(-0.04,1,2.13,0.08,-1179.54,-106.69)"
       gradientUnits="userSpaceOnUse"><stop
         offset="0"
         stop-color="#35c1f1"
         id="stop404" /><stop
         offset="0.11"
         stop-color="#34c1ed"
         id="stop406" /><stop
         offset="0.23"
         stop-color="#2fc2df"
         id="stop408" /><stop
         offset="0.31"
         stop-color="#2bc3d2"
         id="stop410" /><stop
         offset="0.67"
         stop-color="#36c752"
         id="stop412" /></radialGradient><radialGradient
       id="radial-gradient-4"
       cx="376.52"
       cy="567.97"
       r="97.34"
       gradientTransform="matrix(0.28,0.96,0.78,-0.23,-303.76,-148.5)"
       gradientUnits="userSpaceOnUse"><stop
         offset="0"
         stop-color="#66eb6e"
         id="stop415" /><stop
         offset="1"
         stop-color="#66eb6e"
         stop-opacity="0"
         id="stop417" /></radialGradient><clipPath
       clipPathUnits="userSpaceOnUse"
       id="clipPath1260"><rect
         style="fill:#bbdefb;fill-opacity:1;stroke:none;stroke-width:0.529037"
         id="rect1262"
         width="541.86664"
         height="541.86664"
         x="2.9492187e-06"
         y="3.9968629e-05"
         rx="79.375"
         ry="79.375" /></clipPath><clipPath
       clipPathUnits="userSpaceOnUse"
       id="clipPath16285"><rect
         style="fill:#bbdefb;fill-opacity:1;stroke:none;stroke-width:0.529037"
         id="rect16287"
         width="541.86664"
         height="541.86664"
         x="0"
         y="6.4807005e-05"
         rx="79.375"
         ry="79.375" /></clipPath><clipPath
       clipPathUnits="userSpaceOnUse"
       id="clipPath990"><rect
         style="fill:#bbdefb;fill-opacity:1;stroke:none;stroke-width:0.529037"
         id="rect992"
         width="487.67996"
         height="487.67996"
         x="27.093349"
         y="27.093338"
         rx="71.4375"
         ry="71.4375" /></clipPath><clipPath
       id="clipPath941-5-2"
       clipPathUnits="userSpaceOnUse"><rect
         ry="32"
         rx="32"
         y="-116"
         x="32"
         height="320"
         width="448"
         id="rect943-2-6"
         style="display:inline;opacity:1;vector-effect:none;fill:none;fill-opacity:1;stroke:#000000;stroke-width:4;stroke-linecap:butt;stroke-linejoin:miter;stroke-miterlimit:4;stroke-dasharray:none;stroke-dashoffset:0;stroke-opacity:1;marker:none;marker-start:none;marker-mid:none;marker-end:none;paint-order:normal;enable-background:new" /></clipPath><linearGradient
       inkscape:collect="always"
       xlink:href="#linearGradient1522"
       id="linearGradient1524"
       x1="9"
       y1="64"
       x2="119"
       y2="64"
       gradientUnits="userSpaceOnUse"
       gradientTransform="translate(59.000405,8.9999997)" /><linearGradient
       inkscape:collect="always"
       id="linearGradient1522"><stop
         style="stop-color:#999999;stop-opacity:1"
         offset="0"
         id="stop1518" /><stop
         style="stop-color:#999999;stop-opacity:1"
         offset="0.40000001"
         id="stop1617" /><stop
         style="stop-color:#b3b3b3;stop-opacity:1;"
         offset="0.5"
         id="stop1613" /><stop
         style="stop-color:#999999;stop-opacity:1"
         offset="0.60000002"
         id="stop1615" /><stop
         style="stop-color:#999999;stop-opacity:1"
         offset="1"
         id="stop1520" /></linearGradient></defs><g
     inkscape:groupmode="layer"
     id="layer2"
     inkscape:label="Layer 1"><text
       xml:space="preserve"
       style="font-style:normal;font-variant:normal;font-weight:normal;font-stretch:normal;font-size:40px;line-height:1.25;font-family:'DejaVu Math TeX Gyre';-inkscape-font-specification:'DejaVu Math TeX Gyre';fill:#000000;fill-opacity:1;stroke:none"
       x="57.303368"
       y="70.244858"
       id="text3441"><tspan
         sodipodi:role="line"
         id="tspan3439"
         x="57.303368"
         y="70.244858" /></text><text
       xml:space="preserve"
       style="font-size:40px;line-height:1.25;font-family:Caladea;-inkscape-font-specification:Caladea"
       x="43.168587"
       y="70.812454"
       id="text13903"><tspan
         sodipodi:role="line"
         id="tspan13901"
         x="43.168587"
         y="70.812454" /></text><g
       id="g1"
       transform="translate(-59.000225,-9)"><path
         id="circle372"
         style="fill:url(#linearGradient1524);fill-opacity:1;stroke-width:1"
         d="M 123.00041,14 A 55,55 0 0 0 68.000405,69.000001 V 77 a 55,55 0 0 0 55.000005,55 55,55 0 0 0 54.99998,-54.999999 V 69.000002 A 55,55 0 0 0 123.00041,14 Z" /><path
         style="fill:#5fbcd3;fill-opacity:1;stroke-width:1"
         d="m 145.04517,119.28031 a 55,55 0 0 0 5.45523,-2.64891 55,55 0 0 0 25.55324,-61.834279 l -51.17839,29.547858 z"
         id="path1343" /><text
         xml:space="preserve"
         style="font-style:normal;font-variant:normal;font-weight:normal;font-stretch:normal;font-size:40px;line-height:1.25;font-family:'DejaVu Math TeX Gyre';-inkscape-font-specification:'DejaVu Math TeX Gyre';fill:#000000;fill-opacity:1;stroke:none"
         x="116.3561"
         y="79.049553"
         id="text3441-3"><tspan
           sodipodi:role="line"
           id="tspan3439-6"
           x="116.3561"
           y="79.049553" /></text><text
         xml:space="preserve"
         style="font-size:40px;line-height:1.25;font-family:Caladea;-inkscape-font-specification:Caladea"
         x="102.22132"
         y="79.617149"
         id="text13903-7"><tspan
           sodipodi:role="line"
           id="tspan13901-5"
           x="102.22132"
           y="79.617149" /></text><g
         clip-path="url(#clipPath941-5-2)"
         id="g939-5-6"
         style="display:inline;stroke-width:0.0821797;enable-background:new"
         transform="matrix(0.22583343,0,0,0.22583343,-412.69676,-112.4897)" /><path
         style="fill:#c8b7b7;fill-opacity:1;stroke-width:1"
         d="m 84.173749,107.844 a 55,55 0 0 0 46.508831,15.49315 L 112.34664,91.578375 Z"
         id="path1339" /><path
         style="fill:#b7c8be;fill-opacity:1;stroke-width:1"
         d="m 79.784138,35.17847 a 55,55 0 0 0 -4.41513,61.321531 55,55 0 0 0 0.674001,0.995604 l -0.19336,-0.334909 C 75.558328,96.656113 75.72968,96.016623 76.234261,95.725303 L 105.11418,79.051472 Z"
         id="path1335" /><path
         id="circle1328"
         style="fill:#5fd38d;fill-opacity:1;stroke-width:1"
         d="m 124.97111,14.039062 a 55,55 0 0 0 -29.470705,7.330079 55,55 0 0 0 -2.269531,1.535156 l -0.04102,-0.07227 -2.742186,1.941408 -0.0039,-0.0059 a 55,55 0 0 0 -0.08008,0.06445 l -0.148438,0.105468 0.0059,0.0098 a 55,55 0 0 0 -10.472699,10.23048 l 25.330079,43.873047 11.92969,-6.88672 0.002,0.0039 0.62889,-0.357436 0.004,0.0078 0.91602,-0.529297 1.60547,-0.910153 -0.008,-0.01171 50.35155,-29.070312 a 55,55 0 0 0 -45.53714,-27.25779 z" /><path
         id="rect1293"
         style="fill:#e5e5e5;fill-opacity:1;stroke-width:6.29291;stroke-linecap:square;stroke-linejoin:round;paint-order:markers stroke fill"
         d="m 76.234295,95.725284 c -0.504586,0.291322 -0.675936,0.930808 -0.384613,1.435393 l 0.193359,0.334908 A 55,55 0 0 0 84.173745,107.844 L 176.05364,54.797121 a 55,55 0 0 0 -5.42183,-13.297125 55,55 0 0 0 -0.12434,-0.20336 z" /><path
         id="rect1295"
         style="fill:#4fc77f;fill-opacity:1;stroke-width:10.4194;stroke-linecap:square;stroke-linejoin:round;paint-order:markers stroke fill"
         d="m 100.04103,19.077753 12.28711,21.281898 27.00748,-15.592775 -5.5459,-9.605778 a 55,55 0 0 0 -8.81858,-1.121874 55,55 0 0 0 -24.93011,5.038529 z" /><rect
         style="fill:#4fc77f;fill-opacity:1;stroke-width:8.51022;stroke-linecap:square;stroke-linejoin:round;paint-order:markers stroke fill"
         id="rect1297"
         width="31.184862"
         height="20.803656"
         x="77.098793"
         y="95.665695"
         rx="0"
         ry="0"
         transform="rotate(-30)" /><path
         id="rect1309"
         style="fill:#4fc77f;fill-opacity:1;stroke-width:14.0293;stroke-linecap:square;stroke-linejoin:round;paint-order:markers stroke fill"
         d="m 143.55552,18.025191 14.54004,25.184087 9.90009,-5.71582 A 55,55 0 0 0 143.55552,18.025191 Z" /><path
         id="path1468"
         style="fill:#d32f2f;fill-opacity:1;stroke-width:2.25107"
         d="m 133.36698,27.776532 c -8.71174,0 -15.75819,7.046443 -15.75819,15.75819 0,11.81826 15.75819,29.263201 15.75819,29.263201 0,0 15.75819,-17.444941 15.75819,-29.263202 0,-8.711746 -7.04644,-15.75819 -15.75819,-15.758189 z m 0,7.688404 a 7.8116893,7.8116893 0 0 1 7.81242,7.812412 7.8116893,7.8116893 0 0 1 -7.81242,7.810074 7.8116893,7.8116893 0 0 1 -7.81241,-7.810074 7.8116893,7.8116893 0 0 1 7.81241,-7.812412 z" /><path
         id="path1253"
         style="fill:#ef5350;fill-opacity:1;stroke-width:2.25107"
         d="m 133.36698,22.355265 c -8.71174,0 -15.75819,7.046443 -15.75819,15.75819 0,11.81826 15.75819,29.263201 15.75819,29.263201 0,0 15.75819,-17.444941 15.75819,-29.263202 0,-8.711746 -7.04644,-15.75819 -15.75819,-15.758189 z m 0,7.688404 a 7.8116893,7.8116893 0 0 1 7.81242,7.812412 7.8116893,7.8116893 0 0 1 -7.81242,7.810074 7.8116893,7.8116893 0 0 1 -7.81241,-7.810074 7.8116893,7.8116893 0 0 1 7.81241,-7.812412 z" /><path
         id="path3094"
         style="fill:#8c8c8c;fill-opacity:1;stroke-width:6.29291;stroke-linecap:square;stroke-linejoin:round;paint-order:markers stroke fill"
         d="m 145.04533,119.28125 a 55,55 0 0 1 -14.36329,4.05664 l 1e-5,8.11133 a 55,55 0 0 0 14.36328,-4.12109 z" /><path
         id="path3102"
         style="fill:#8c8c8c;fill-opacity:1;stroke-width:6.29291;stroke-linecap:square;stroke-linejoin:round;paint-order:markers stroke fill"
         d="m 75.850014,97.160156 v 7.960934 a 55,55 0 0 0 8.324219,10.63672 v -7.91406 A 55,55 0 0 1 76.043374,97.496095 Z" /><path
         id="path3730"
         style="fill:#55705f;fill-opacity:1;stroke-width:6.29291;stroke-linecap:square;stroke-linejoin:round;paint-order:markers stroke fill"
         d="m 68.131264,68.574219 -0.130859,0.425782 V 77 a 55,55 0 0 0 7.849609,28.12109 V 97.210938 A 55,55 0 0 1 75.369545,96.500001 55,55 0 0 1 68.131264,68.574219 Z m 7.59961,27.857422 c -0.0478,0.240871 -0.01401,0.497883 0.11914,0.728515 z" /><path
         id="path3518"
         style="fill:#236a7c;fill-opacity:1;stroke-width:6.29291;stroke-linecap:square;stroke-linejoin:round;paint-order:markers stroke fill"
         d="m 176.05314,54.796874 a 55,55 0 0 1 -25.55273,61.833996 55,55 0 0 1 -5.45508,2.65038 v 8.04688 a 55,55 0 0 0 0.002,1e-5 55,55 0 0 0 32.95312,-50.328125 v -8 a 55,55 0 0 0 -1.875,-14.203126 z" /><path
         id="path3658"
         style="fill:#776666;fill-opacity:1;stroke-width:6.29291;stroke-linecap:square;stroke-linejoin:round;paint-order:markers stroke fill"
         d="m 84.174233,107.84375 v 7.91406 A 55,55 0 0 0 123.00041,132 a 55,55 0 0 0 7.67968,-0.55077 55,55 0 0 0 0.002,1e-5 v -8.11133 A 55,55 0 0 1 84.174233,107.84375 Z" /><path
         style="fill:#f2f2f2;fill-opacity:1;stroke-width:6.29291;stroke-linecap:square;stroke-linejoin:round;paint-order:markers stroke fill"
         d="m 124.87541,84.345704 -12.52931,7.23241 18.33594,31.759766 a 55,55 0 0 0 14.36328,-4.05664 z"
         id="path613" /><path
         id="path615"
         style="fill:#f2f2f2;fill-opacity:1;stroke-width:6.29291;stroke-linecap:square;stroke-linejoin:round;paint-order:markers stroke fill"
         d="M 79.76488,35.204519 A 55,55 0 0 0 71.572204,49.947982 L 92.549743,86.282145 105.07936,79.050478 Z" /><path
         id="path1821"
         style="fill:#4fc77f;fill-opacity:1;stroke-width:5.93773;stroke-linecap:square;stroke-linejoin:round;paint-order:markers stroke fill"
         d="m 93.189984,22.832487 -2.742191,1.941793 -0.0039,-0.0068 a 55,55 0 0 0 -0.08014,0.06431 l -0.148516,0.106043 0.0059,0.01015 a 55,55 0 0 0 -5.487341,4.753583 L 108.94473,71.63614 118.94221,65.866346 93.883621,22.463589 a 55,55 0 0 0 -0.652622,0.439939 z" /><path
         id="path631"
         style="fill:#ffffff;fill-opacity:0.504585;stroke-width:1"
         d="m 123,14.000008 a 55,55 0 0 0 -55,55 v 2.5 a 55,55 0 0 1 55,-55 55,55 0 0 1 55,55 v -2.5 a 55,55 0 0 0 -55,-55 z" /><path
         id="path1194"
         style="fill:#ff8080;fill-opacity:1;stroke-width:2.25107"
         d="m 133.36719,22.355477 c -8.71174,0 -15.75781,7.046074 -15.75781,15.757813 0,0.374326 0.0163,0.753789 0.0469,1.138672 0.59863,-8.162819 7.39362,-14.587891 15.71093,-14.587891 8.31866,-1e-6 15.11421,6.427099 15.71094,14.591797 0.0308,-0.386182 0.0469,-0.76702 0.0469,-1.142578 0,-8.711738 -7.04608,-15.757814 -15.75781,-15.757813 z m 7.69922,16.5 a 7.8116893,7.8116893 0 0 1 -7.69922,6.810547 7.8116893,7.8116893 0 0 1 -7.6836,-6.654297 7.8116893,7.8116893 0 0 0 -0.1289,1.154297 7.8116893,7.8116893 0 0 0 7.8125,7.808594 7.8116893,7.8116893 0 0 0 7.8125,-7.808594 7.8116893,7.8116893 0 0 0 -0.11328,-1.310547 z" /></g></g></svg>
