<?xml version="1.0" encoding="UTF-8" standalone="no"?>
<!-- Created with Inkscape (http://www.inkscape.org/) -->

<svg
   width="128"
   height="128"
   viewBox="0 0 128 128"
   version="1.1"
   id="svg5"
   inkscape:version="1.3.2 (091e20ef0f, 2023-11-25)"
   sodipodi:docname="org.gaphor.Gaphor.svg"
   xml:space="preserve"
   xmlns:inkscape="http://www.inkscape.org/namespaces/inkscape"
   xmlns:sodipodi="http://sodipodi.sourceforge.net/DTD/sodipodi-0.dtd"
   xmlns:xlink="http://www.w3.org/1999/xlink"
   xmlns="http://www.w3.org/2000/svg"
   xmlns:svg="http://www.w3.org/2000/svg"><sodipodi:namedview
     id="namedview7"
     pagecolor="#ffffff"
     bordercolor="#666666"
     borderopacity="1"
     inkscape:pageshadow="2"
     inkscape:pageopacity="0.0"
     inkscape:pagecheckerboard="true"
     inkscape:document-units="px"
     showgrid="false"
     inkscape:showpageshadow="false"
     showborder="true"
     inkscape:snap-page="true"
     inkscape:zoom="7.7481641"
     inkscape:cx="57.562023"
     inkscape:cy="87.5046"
     inkscape:window-width="1920"
     inkscape:window-height="1043"
     inkscape:window-x="0"
     inkscape:window-y="0"
     inkscape:window-maximized="1"
     inkscape:current-layer="layer2"
     inkscape:deskcolor="#d1d1d1" /><defs
     id="defs2"><linearGradient
       inkscape:collect="always"
       id="linearGradient404"><stop
         style="stop-color:#f0bf9e;stop-opacity:1;"
         offset="0"
         id="stop400" /><stop
         style="stop-color:#fae8da;stop-opacity:1;"
         offset="1"
         id="stop402" /></linearGradient><linearGradient
       y2="236"
       x2="96"
       y1="236"
       x1="32"
       gradientTransform="translate(604.81684,170.58641)"
       gradientUnits="userSpaceOnUse"
       id="linearGradient1099"
       xlink:href="#linearGradient1036" /><linearGradient
       id="linearGradient1036"><stop
         id="stop1032"
         offset="0"
         style="stop-color:#d5d3cf;stop-opacity:1;" /><stop
         id="stop1034"
         offset="1"
         style="stop-color:#f6f5f4;stop-opacity:1" /></linearGradient><radialGradient
       r="32"
       fy="-76"
       fx="-244"
       cy="-76"
       cx="-244"
       gradientTransform="matrix(0.88333331,0,0,0.88333331,-460.35018,463.11973)"
       gradientUnits="userSpaceOnUse"
       id="radialGradient1103"
       xlink:href="#linearGradient1069" /><linearGradient
       id="linearGradient1069"><stop
         id="stop1065"
         offset="0"
         style="stop-color:#d5d3cf;stop-opacity:1" /><stop
         id="stop1067-1"
         offset="1"
         style="stop-color:#949390;stop-opacity:1" /></linearGradient><linearGradient
       gradientUnits="userSpaceOnUse"
       y2="232"
       x2="64"
       y1="262.5"
       x1="64"
       id="linearGradient1027"
       xlink:href="#linearGradient1025"
       gradientTransform="translate(-470.5864,432.81685)" /><linearGradient
       id="linearGradient1025"><stop
         id="stop1021"
         offset="0"
         style="stop-color:#9a9996;stop-opacity:1" /><stop
         id="stop1023"
         offset="1"
         style="stop-color:#77767b;stop-opacity:1" /></linearGradient><inkscape:path-effect
       effect="spiro"
       id="path-effect35304-9"
       is_visible="true" /><clipPath
       clipPathUnits="userSpaceOnUse"
       id="clipPath1609-7"><path
         sodipodi:nodetypes="cccccc"
         inkscape:connector-curvature="0"
         id="path1611-5"
         d="m 252,116 28,-28 v -8 h -36 v 36 z"
         style="fill:#e74747;stroke:none;stroke-width:0.25px;stroke-linecap:butt;stroke-linejoin:miter;stroke-opacity:1" /></clipPath><linearGradient
       inkscape:collect="always"
       id="linearGradient8241"><stop
         style="stop-color:#ba6833;stop-opacity:1;"
         offset="0"
         id="stop8237" /><stop
         style="stop-color:#cf814f;stop-opacity:1;"
         offset="0.05"
         id="stop9349" /><stop
         style="stop-color:#ba6833;stop-opacity:1;"
         offset="0.1"
         id="stop21746" /><stop
         style="stop-color:#ba6833;stop-opacity:1;"
         offset="0.89999998"
         id="stop21940" /><stop
         style="stop-color:#cf814f;stop-opacity:1;"
         offset="0.94999999"
         id="stop9351" /><stop
         style="stop-color:#ba6833;stop-opacity:1;"
         offset="1"
         id="stop8239" /></linearGradient><radialGradient
       r="32"
       fy="-76"
       fx="-244"
       cy="-76"
       cx="-244"
       gradientTransform="matrix(0.88333331,0,0,0.88333331,-460.35018,463.11973)"
       gradientUnits="userSpaceOnUse"
       id="radialGradient1103-5"
       xlink:href="#linearGradient1069" /><inkscape:path-effect
       effect="spiro"
       id="path-effect35304-9-2"
       is_visible="true" /><clipPath
       clipPathUnits="userSpaceOnUse"
       id="clipPath1609-7-7"><path
         sodipodi:nodetypes="cccccc"
         inkscape:connector-curvature="0"
         id="path1611-5-0"
         d="m 252,116 28,-28 v -8 h -36 v 36 z"
         style="fill:#e74747;stroke:none;stroke-width:0.25px;stroke-linecap:butt;stroke-linejoin:miter;stroke-opacity:1" /></clipPath><clipPath
       clipPathUnits="userSpaceOnUse"
       id="clipPath744"><rect
         style="fill:#1e88e5;fill-opacity:1;stroke-width:0.264583"
         id="rect746"
         width="541.86664"
         height="541.86664"
         x="0"
         y="1.5987212e-14"
         rx="79.375"
         ry="79.375" /></clipPath><clipPath
       clipPathUnits="userSpaceOnUse"
       id="clipPath62"><rect
         style="fill:#1e88e5;fill-opacity:1;stroke-width:0.264583"
         id="rect64"
         width="541.86664"
         height="541.86664"
         x="2.2507105e-05"
         y="-0.42205024"
         rx="79.375"
         ry="79.375" /></clipPath><linearGradient
       inkscape:collect="always"
       xlink:href="#linearGradient8241"
       id="linearGradient8243"
       x1="11.5"
       y1="120.5"
       x2="116.5"
       y2="120.5"
       gradientUnits="userSpaceOnUse" /><radialGradient
       r="32"
       fy="-76"
       fx="-244"
       cy="-76"
       cx="-244"
       gradientTransform="matrix(0.88333331,0,0,0.88333331,-460.35018,463.11973)"
       gradientUnits="userSpaceOnUse"
       id="radialGradient1103-6"
       xlink:href="#linearGradient1069" /><inkscape:path-effect
       effect="spiro"
       id="path-effect35304-9-20"
       is_visible="true" /><clipPath
       clipPathUnits="userSpaceOnUse"
       id="clipPath1609-7-2"><path
         sodipodi:nodetypes="cccccc"
         inkscape:connector-curvature="0"
         id="path1611-5-3"
         d="m 252,116 28,-28 v -8 h -36 v 36 z"
         style="fill:#e74747;stroke:none;stroke-width:0.25px;stroke-linecap:butt;stroke-linejoin:miter;stroke-opacity:1" /></clipPath><radialGradient
       r="32"
       fy="-76"
       fx="-244"
       cy="-76"
       cx="-244"
       gradientTransform="matrix(0.88333331,0,0,0.88333331,-460.35018,463.11973)"
       gradientUnits="userSpaceOnUse"
       id="radialGradient1103-56"
       xlink:href="#linearGradient1069" /><inkscape:path-effect
       effect="spiro"
       id="path-effect35304-9-7"
       is_visible="true" /><clipPath
       clipPathUnits="userSpaceOnUse"
       id="clipPath1609-7-0"><path
         sodipodi:nodetypes="cccccc"
         inkscape:connector-curvature="0"
         id="path1611-5-9"
         d="m 252,116 28,-28 v -8 h -36 v 36 z"
         style="fill:#e74747;stroke:none;stroke-width:0.25px;stroke-linecap:butt;stroke-linejoin:miter;stroke-opacity:1" /></clipPath><clipPath
       clipPathUnits="userSpaceOnUse"
       id="clipPath37"><rect
         style="fill:#1a1a1a;fill-opacity:1;stroke-width:0.264583"
         id="rect39"
         width="541.86664"
         height="541.86664"
         x="-2.6626146e-06"
         y="3.2408705"
         rx="79.375"
         ry="79.375" /></clipPath><clipPath
       clipPathUnits="userSpaceOnUse"
       id="clipPath22042"><rect
         style="fill:#333333;fill-opacity:1;stroke-width:0.0133797"
         id="rect22044"
         width="27.31955"
         height="27.483929"
         x="166.96844"
         y="105.40438"
         rx="4.0018873"
         ry="4.0259666" /></clipPath><clipPath
       clipPathUnits="userSpaceOnUse"
       id="clipPath1039"><rect
         style="fill:#b3b3b3;fill-opacity:1;stroke-width:0.264583"
         id="rect1041"
         width="541.8667"
         height="541.86682"
         x="2.5931527e-05"
         y="-0.00010962487"
         rx="79.375008"
         ry="79.375031" /></clipPath><clipPath
       clipPathUnits="userSpaceOnUse"
       id="clipPath154"><rect
         style="fill:#b3b3b3;fill-opacity:1;stroke-width:0.264583"
         id="rect156"
         width="541.8667"
         height="541.86682"
         x="-2.9218751e-05"
         y="-0.00016368683"
         rx="79.375008"
         ry="79.375031" /></clipPath><linearGradient
       inkscape:collect="always"
       xlink:href="#linearGradient404"
       id="linearGradient406"
       x1="64"
       y1="112.5"
       x2="64"
       y2="7.5"
       gradientUnits="userSpaceOnUse" /><filter
       style="color-interpolation-filters:sRGB;"
       inkscape:label="Drop Shadow"
       id="filter6751"
       x="-0.020769834"
       y="-0.023213784"
       width="1.0415397"
       height="1.0947896"><feFlood
         flood-opacity="0.145098"
         flood-color="rgb(0,0,0)"
         result="flood"
         id="feFlood6741" /><feComposite
         in="flood"
         in2="SourceGraphic"
         operator="in"
         result="composite1"
         id="feComposite6743" /><feGaussianBlur
         in="composite1"
         stdDeviation="0.8"
         result="blur"
         id="feGaussianBlur6745" /><feOffset
         dx="0"
         dy="4"
         result="offset"
         id="feOffset6747" /><feComposite
         in="SourceGraphic"
         in2="offset"
         operator="over"
         result="composite2"
         id="feComposite6749" /></filter></defs><g
     inkscape:groupmode="layer"
     id="layer2"
     inkscape:label="Layer 1"><rect
       style="fill:url(#linearGradient8243);fill-opacity:1"
       id="rect440"
       width="105"
       height="105"
       x="11.5"
       y="15.5"
       rx="13"
       ry="13" /><rect
       style="fill:url(#linearGradient406);fill-opacity:1"
       id="rect358"
       width="105"
       height="105"
       x="11.5"
       y="7.5"
       rx="13"
       ry="13" /><rect
       style="fill:#e1b597;fill-opacity:1;stroke-width:0.959575"
       id="rect338"
       width="100.75533"
       height="100.75533"
       x="13.622333"
       y="9.6223326"
       rx="12"
       ry="12" /><path
       id="path1"
       style="color:#000000;fill:#db9e77;fill-opacity:1;stroke-linecap:round;stroke-linejoin:round;-inkscape-stroke:none"
       d="m 52.45898,22.644531 c -2.21599,0 -4,1.784002 -4,4 v 11.933594 l -7.29687,-4.103516 v 2.138672 h -6.61523 c -3.23161,0 -5.89258,2.662927 -5.89258,5.894531 v 7.117188 5.324219 1.128906 h -6.875 c -2.216,0 -4,1.784002 -4,4 v 13.007813 3.371093 c 0,2.215998 1.784,4 4,4 h 9.875 v 0.470703 4.453125 2 1.400391 2 c 0,3.428085 2.82385,6.249999 6.25195,6.25 h 14.05859 1.22266 10.04688 v 0.02148 2 l 7.29492,-4.105468 v 1.398437 5.009761 c 0,2.216 1.784,4.00001 4,4.00001 h 23.21093 c 2.216,0 4,-1.78401 4,-4.00001 V 89.429688 a 2.0605299,2.0605299 0 0 0 0.23829,0.04687 h 2.06054 c 3.38966,0 6.18164,-2.791986 6.18164,-6.18164 v -39.835938 -2 c 0,-3.389654 -2.79198,-6.18164 -6.18164,-6.18164 h -6.20508 l -1.59375,-1.59375 c -0.62245,-0.622451 -1.63073,-0.622451 -2.25585,0 l -2.52735,2.527344 c -0.31073,0.312066 -0.4663,0.719457 -0.4668,1.126953 v -10.69336 c 0,-2.215998 -1.784,-4 -4,-4 z m 38.53125,16.789063 c 0.009,0.395636 0.16505,0.788749 0.4668,1.091797 l 2.52735,2.527343 c 0.62512,0.62245 1.63341,0.62245 2.25585,0 l 1.6543,-1.654296 h 6.14453 c 1.16065,0 2.06055,0.899878 2.06055,2.060546 v 37.835938 c 0,1.160669 -0.8999,2.060547 -2.06055,2.060547 h -2.06054 a 2.0605299,2.0605299 0 0 0 -0.23829,0.04687 v -5.257813 -5.009765 c 0,-2.215998 -1.784,-4 -4,-4 H 83.28711 v -1.085938 c 0,-3.05537 -2.51691,-5.572266 -5.57227,-5.572266 H 56.03711 l -1.79688,-1.796874 c -0.62244,-0.622451 -1.63074,-0.622451 -2.25585,0 l -2.52735,2.527343 c -0.31073,0.312067 -0.4663,0.719458 -0.4668,1.126953 V 60.07812 c 0,-2.215998 -1.784,-4 -4,-4 H 32.58203 V 44.507812 c 0,-1.106546 0.85829,-1.964843 1.96485,-1.964843 h 6.61523 v 0.138672 2 l 7.29687,-4.103516 v 7.455078 3.337891 c 0,2.215998 1.78401,4 4,4 h 34.53125 c 2.216,0 4,-1.784002 4,-4 z m -42,26.996094 c 0.009,0.395635 0.16505,0.788749 0.4668,1.091796 l 2.52735,2.527344 c 0.62511,0.62245 1.6334,0.62245 2.25585,0 l 1.85743,-1.857422 h 21.61718 c 0.70919,0 1.30345,0.377316 1.61719,0.94336 H 74.5293 c -2.216,0 -4,1.784002 -4,4 v 19.8125 L 63.23438,88.84375 v 2 0.01953 H 53.1875 51.96484 37.90625 c -1.17385,0 -2.08398,-0.908194 -2.08398,-2.082031 v -4.251953 -2 -1.601563 -0.470703 h 9.16796 c 2.216,0 4,-1.784002 4,-4 z m 19.78711,27.503906 v 0.02734 l -0.0254,-0.01367 z" /><path
       id="path3429"
       style="color:#000000;fill:#618670;fill-opacity:1;stroke-linecap:round;stroke-linejoin:round;-inkscape-stroke:none"
       d="m 31.654473,76.927713 v 6.453125 3.400391 c 0,3.428088 2.823855,6.249999 6.251953,6.25 h 14.058594 1.222656 10.046875 v 2.021484 l 7.294922,-4.105469 v -2 H 68.77752 v 1.013672 L 63.234551,86.843729 V 88.86326 H 53.187676 51.96502 37.906426 c -1.173849,0 -2.083984,-0.908195 -2.083984,-2.082031 v -6.251954 -3.601562 z" /><rect
       style="fill:#0e7244;fill-opacity:1;stroke:none;stroke-width:12.4251;stroke-linecap:round;stroke-linejoin:round"
       id="rect1954"
       width="31.21059"
       height="21.00754"
       x="17.779119"
       y="55.449669"
       rx="4"
       ry="4" /><rect
       style="fill:#0e7244;fill-opacity:1;stroke:none;stroke-width:15.4332;stroke-linecap:round;stroke-linejoin:round"
       id="rect1952"
       width="42.531151"
       height="29.387121"
       x="48.458271"
       y="21.984312"
       rx="4"
       ry="4" /><rect
       style="fill:#5fd38d;fill-opacity:1;stroke:none;stroke-width:15.4332;stroke-linecap:round;stroke-linejoin:round"
       id="rect339"
       width="42.531151"
       height="29.387121"
       x="48.458271"
       y="18.64526"
       rx="4"
       ry="4" /><path
       id="path3644"
       style="color:#000000;fill:#618670;fill-opacity:1;stroke-linecap:round;stroke-linejoin:round;-inkscape-stroke:none"
       d="M 41.162109 32.474609 L 41.162109 34.613281 L 34.546875 34.613281 C 31.315258 34.613281 28.654297 37.276202 28.654297 40.507812 L 28.654297 52.949219 A 1.964455 1.964455 0 0 0 30.617188 54.914062 A 1.964455 1.964455 0 0 0 32.582031 52.949219 L 32.582031 40.507812 C 32.582031 39.401266 33.440317 38.542969 34.546875 38.542969 L 41.162109 38.542969 L 41.162109 40.681641 L 48.458984 36.578125 L 48.458984 34.578125 L 45.023438 34.578125 L 45.023438 34.646484 L 41.162109 32.474609 z " /><path
       id="path1438"
       style="color:#000000;fill:#f2f2f2;fill-opacity:1;stroke-linecap:round;stroke-linejoin:round;-inkscape-stroke:none"
       d="m 41.162285,30.474588 v 2.138672 h -6.615234 c -3.231614,0 -5.892578,2.662923 -5.892578,5.894531 v 7.117188 5.324218 1.128906 h 0.361328 a 1.964455,1.964455 0 0 0 1.601562,0.835938 1.964455,1.964455 0 0 0 1.605469,-0.835938 h 0.359375 v -1.128906 -5.324218 -7.117188 c 0,-1.106546 0.858287,-1.964844 1.964844,-1.964844 h 6.615234 v 2.138672 l 7.296875,-4.103516 z" /><rect
       style="fill:#5fd38d;fill-opacity:1;stroke:none;stroke-width:12.4251;stroke-linecap:round;stroke-linejoin:round"
       id="rect1887"
       width="31.21059"
       height="21.00754"
       x="17.779119"
       y="52.078293"
       rx="4"
       ry="4" /><path
       style="color:#000000;fill:#618670;fill-opacity:1;stroke-linecap:round;stroke-linejoin:round;-inkscape-stroke:none"
       d="m 52.332207,60.476541 a 1.8573149,1.8573149 0 0 0 -1.857422,1.857422 1.8573149,1.8573149 0 0 0 1.857422,1.857422 H 77.71502 c 1.046189,0 1.857422,0.811232 1.857422,1.857422 v 7.429687 a 1.8573149,1.8573149 0 0 0 1.857421,1.857422 1.8573149,1.8573149 0 0 0 1.857422,-1.857422 v -7.429687 c 0,-3.055373 -2.516902,-5.572266 -5.572265,-5.572266 z"
       id="path3783" /><path
       id="path3425"
       style="fill:#618670;fill-opacity:1;stroke-width:0.686842"
       d="m 53.113742,58.269404 c -0.408147,0 -0.816343,0.155572 -1.128906,0.466797 l -1.597656,1.597656 h -1.398438 v 2.058594 c 0,0.408148 0.157521,0.81634 0.46875,1.128906 l 2.527344,2.527344 c 0.625125,0.62245 1.633415,0.62245 2.255859,0 l 2.527344,-2.527344 c 0.311221,-0.312566 0.466797,-0.720758 0.466797,-1.128906 v -2.058594 h -1.396484 l -1.597657,-1.597656 c -0.311222,-0.311225 -0.718806,-0.466797 -1.126953,-0.466797 z" /><path
       id="path1440"
       style="color:#000000;fill:#f2f2f2;fill-opacity:1;stroke-linecap:round;stroke-linejoin:round;-inkscape-stroke:none"
       d="M 53.113281 56.212891 C 52.705134 56.212891 52.296938 56.368462 51.984375 56.679688 L 49.457031 59.207031 C 48.834572 59.832165 48.834572 60.840441 49.457031 61.462891 L 51.984375 63.990234 C 52.6095 64.612685 53.61779 64.612685 54.240234 63.990234 L 56.039062 62.191406 L 77.714844 62.191406 C 78.761032 62.191406 79.572266 63.002639 79.572266 64.048828 L 79.572266 71.478516 A 1.8573149 1.8573149 0 0 0 81.429688 73.335938 A 1.8573149 1.8573149 0 0 0 83.287109 71.478516 L 83.287109 64.048828 C 83.287109 60.993458 80.770204 58.476562 77.714844 58.476562 L 56.037109 58.476562 L 54.240234 56.679688 C 53.929012 56.368462 53.521428 56.212891 53.113281 56.212891 z " /><path
       id="path3569"
       style="color:#000000;fill:#618670;fill-opacity:1;stroke-linecap:round;stroke-linejoin:round;-inkscape-stroke:none"
       d="M 95.113281 31.273438 C 94.705135 31.273438 94.296938 31.42901 93.984375 31.740234 L 92.386719 33.337891 L 90.988281 33.337891 L 90.988281 35.396484 C 90.988281 35.804632 91.145803 36.212825 91.457031 36.525391 L 93.984375 39.052734 C 94.609499 39.675184 95.617791 39.675184 96.240234 39.052734 L 97.894531 37.398438 L 104.03906 37.398438 C 105.19971 37.398438 106.09961 38.298316 106.09961 39.458984 L 106.09961 79.294922 C 106.09961 80.455591 105.19971 81.355469 104.03906 81.355469 L 101.97852 81.355469 A 2.0605299 2.0605299 0 0 0 99.917969 83.416016 A 2.0605299 2.0605299 0 0 0 101.97852 85.476562 L 104.03906 85.476562 C 107.42872 85.476562 110.2207 82.684576 110.2207 79.294922 L 110.2207 39.458984 C 110.2207 36.06933 107.42872 33.277344 104.03906 33.277344 L 97.777344 33.277344 L 96.240234 31.740234 C 95.929013 31.42901 95.521428 31.273438 95.113281 31.273438 z " /><path
       id="path1444"
       style="color:#000000;fill:#f2f2f2;fill-opacity:1;stroke-linecap:round;stroke-linejoin:round;-inkscape-stroke:none"
       d="M 95.113281 29.216797 C 94.705134 29.216797 94.296938 29.372369 93.984375 29.683594 L 91.457031 32.210938 C 90.834572 32.836071 90.834572 33.844347 91.457031 34.466797 L 93.984375 36.994141 C 94.6095 37.616591 95.61779 37.616591 96.240234 36.994141 L 97.835938 35.398438 L 104.03906 35.398438 C 105.19971 35.398438 106.09961 36.298316 106.09961 37.458984 L 106.09961 77.294922 C 106.09961 78.455591 105.19971 79.355469 104.03906 79.355469 L 101.97852 79.355469 A 2.0605299 2.0605299 0 0 0 99.917969 81.416016 A 2.0605299 2.0605299 0 0 0 101.97852 83.476562 L 104.03906 83.476562 C 107.42872 83.476562 110.2207 80.684576 110.2207 77.294922 L 110.2207 37.458984 C 110.2207 34.06933 107.42872 31.277344 104.03906 31.277344 L 97.833984 31.277344 L 96.240234 29.683594 C 95.929012 29.372369 95.521428 29.216797 95.113281 29.216797 z " /><path
       id="path1478"
       style="color:#000000;fill:#f2f2f2;fill-opacity:1;stroke-linecap:round;stroke-linejoin:round;-inkscape-stroke:none"
       d="m 31.654473,74.927713 v 6.453125 3.400391 c 0,3.428092 2.823852,6.249999 6.251953,6.25 h 14.058594 1.222656 10.046875 v 2.021484 l 7.294922,-4.105469 -7.294922,-4.103515 V 86.86326 H 53.187676 51.96502 37.906426 c -1.17385,0 -2.083984,-0.908193 -2.083984,-2.082031 v -6.251954 -3.601562 z" /><rect
       style="fill:#0e7244;fill-opacity:1;stroke:none;stroke-width:15.1448;stroke-linecap:round;stroke-linejoin:round"
       id="rect3055"
       width="31.21059"
       height="31.21059"
       x="70.529198"
       y="70.14415"
       rx="4"
       ry="4" /><rect
       style="fill:#5fd38d;fill-opacity:1;stroke:none;stroke-width:15.1448;stroke-linecap:round;stroke-linejoin:round"
       id="rect3057"
       width="31.21059"
       height="31.21059"
       x="70.529198"
       y="65.135338"
       rx="4"
       ry="4" /><rect
       style="fill:#1d7b50;fill-opacity:1;stroke:none;stroke-width:12.0945;stroke-linecap:round;stroke-linejoin:round"
       id="rect3923"
       width="22.157579"
       height="4.4315157"
       x="75.055702"
       y="69.037086" /><path
       id="rect3925"
       style="fill:#26a269;fill-opacity:1;stroke:none;stroke-width:12.0945;stroke-linecap:round;stroke-linejoin:round"
       d="m 75.054863,76.61326 v 4.431641 4.43164 H 89.89666 v -4.43164 h 7.316407 V 76.61326 Z" /><rect
       style="fill:#26a269;fill-opacity:1;stroke:none;stroke-width:12.0945;stroke-linecap:round;stroke-linejoin:round"
       id="rect3929"
       width="22.157579"
       height="4.4315157"
       x="75.055702"
       y="88.621193" /><rect
       style="fill:#1d7b50;fill-opacity:1;stroke:none;stroke-width:12.7199;stroke-linecap:round;stroke-linejoin:round"
       id="rect4623"
       width="24.508324"
       height="4.4315157"
       x="21.130251"
       y="54.91404" /><path
       id="rect4625"
       style="fill:#26a269;fill-opacity:1;stroke:none;stroke-width:12.7199;stroke-linecap:round;stroke-linejoin:round"
       d="m 21.131035,61.345682 v 4.43164 4.431641 h 12.253907 v -4.431641 h 12.253906 v -4.43164 z" /><rect
       style="fill:#1d7b50;fill-opacity:1;stroke:none;stroke-width:15.0947;stroke-linecap:round;stroke-linejoin:round"
       id="rect4837"
       width="34.514019"
       height="4.4315157"
       x="52.466839"
       y="21.984312" /><path
       id="rect4839"
       style="fill:#26a269;fill-opacity:1;stroke:none;stroke-width:15.0947;stroke-linecap:round;stroke-linejoin:round"
       d="m 52.466973,29.373025 v 4.431641 4.431641 h 24.697266 v -4.431641 h 9.816406 v -4.431641 z" /><rect
       style="fill:#26a269;fill-opacity:1;stroke:none;stroke-width:14.0759;stroke-linecap:round;stroke-linejoin:round"
       id="rect4841"
       width="30.012466"
       height="4.4315157"
       x="52.466839"
       y="41.193565" /></g></svg>
