<?xml version="1.0" encoding="UTF-8" standalone="no"?>
<!-- Created with Inkscape (http://www.inkscape.org/) -->

<svg
   width="128"
   height="128"
   viewBox="0 0 128 128"
   version="1.1"
   id="svg5"
   inkscape:version="1.2.2 (b0a8486541, 2022-12-01)"
   sodipodi:docname="org.blender.Blender.svg"
   xml:space="preserve"
   xmlns:inkscape="http://www.inkscape.org/namespaces/inkscape"
   xmlns:sodipodi="http://sodipodi.sourceforge.net/DTD/sodipodi-0.dtd"
   xmlns:xlink="http://www.w3.org/1999/xlink"
   xmlns="http://www.w3.org/2000/svg"
   xmlns:svg="http://www.w3.org/2000/svg"><sodipodi:namedview
     id="namedview7"
     pagecolor="#ffffff"
     bordercolor="#666666"
     borderopacity="1"
     inkscape:pageshadow="2"
     inkscape:pageopacity="0.0"
     inkscape:pagecheckerboard="true"
     inkscape:document-units="px"
     showgrid="false"
     inkscape:showpageshadow="false"
     showborder="true"
     inkscape:snap-page="true"
     inkscape:zoom="3.2627628"
     inkscape:cx="62.217211"
     inkscape:cy="66.508053"
     inkscape:window-width="1366"
     inkscape:window-height="731"
     inkscape:window-x="0"
     inkscape:window-y="0"
     inkscape:window-maximized="1"
     inkscape:current-layer="layer2"
     inkscape:deskcolor="#d1d1d1" /><defs
     id="defs2"><linearGradient
   inkscape:collect="always"
   id="linearGradient404"><stop
     style="stop-color:#ffe1cd;stop-opacity:1"
     offset="0"
     id="stop400" /><stop
     style="stop-color:#fff6f0;stop-opacity:1;"
     offset="1"
     id="stop402" /></linearGradient><linearGradient
   y2="236"
   x2="96"
   y1="236"
   x1="32"
   gradientTransform="translate(604.81684,170.58641)"
   gradientUnits="userSpaceOnUse"
   id="linearGradient1099"
   xlink:href="#linearGradient1036" /><linearGradient
   id="linearGradient1036"><stop
     id="stop1032"
     offset="0"
     style="stop-color:#d5d3cf;stop-opacity:1;" /><stop
     id="stop1034"
     offset="1"
     style="stop-color:#f6f5f4;stop-opacity:1" /></linearGradient><radialGradient
   r="32"
   fy="-76"
   fx="-244"
   cy="-76"
   cx="-244"
   gradientTransform="matrix(0.88333331,0,0,0.88333331,-460.35018,463.11973)"
   gradientUnits="userSpaceOnUse"
   id="radialGradient1103"
   xlink:href="#linearGradient1069" /><linearGradient
   id="linearGradient1069"><stop
     id="stop1065"
     offset="0"
     style="stop-color:#d5d3cf;stop-opacity:1" /><stop
     id="stop1067-1"
     offset="1"
     style="stop-color:#949390;stop-opacity:1" /></linearGradient><linearGradient
   gradientUnits="userSpaceOnUse"
   y2="232"
   x2="64"
   y1="262.5"
   x1="64"
   id="linearGradient1027"
   xlink:href="#linearGradient1025"
   gradientTransform="translate(-470.5864,432.81685)" /><linearGradient
   id="linearGradient1025"><stop
     id="stop1021"
     offset="0"
     style="stop-color:#9a9996;stop-opacity:1" /><stop
     id="stop1023"
     offset="1"
     style="stop-color:#77767b;stop-opacity:1" /></linearGradient><inkscape:path-effect
   effect="spiro"
   id="path-effect35304-9"
   is_visible="true" /><clipPath
   clipPathUnits="userSpaceOnUse"
   id="clipPath1609-7"><path
     sodipodi:nodetypes="cccccc"
     inkscape:connector-curvature="0"
     id="path1611-5"
     d="m 252,116 28,-28 v -8 h -36 v 36 z"
     style="fill:#e74747;stroke:none;stroke-width:0.25px;stroke-linecap:butt;stroke-linejoin:miter;stroke-opacity:1" /></clipPath><linearGradient
   inkscape:collect="always"
   id="linearGradient8241"><stop
     style="stop-color:#fd8638;stop-opacity:1;"
     offset="0"
     id="stop8237" /><stop
     style="stop-color:#fda56a;stop-opacity:1;"
     offset="0.05"
     id="stop9349" /><stop
     style="stop-color:#fd8638;stop-opacity:1;"
     offset="0.1"
     id="stop21746" /><stop
     style="stop-color:#fd8638;stop-opacity:1;"
     offset="0.89999998"
     id="stop21940" /><stop
     style="stop-color:#fda56a;stop-opacity:1;"
     offset="0.94999999"
     id="stop9351" /><stop
     style="stop-color:#fd8638;stop-opacity:1;"
     offset="1"
     id="stop8239" /></linearGradient><radialGradient
   r="32"
   fy="-76"
   fx="-244"
   cy="-76"
   cx="-244"
   gradientTransform="matrix(0.88333331,0,0,0.88333331,-460.35018,463.11973)"
   gradientUnits="userSpaceOnUse"
   id="radialGradient1103-5"
   xlink:href="#linearGradient1069" /><inkscape:path-effect
   effect="spiro"
   id="path-effect35304-9-2"
   is_visible="true" /><clipPath
   clipPathUnits="userSpaceOnUse"
   id="clipPath1609-7-7"><path
     sodipodi:nodetypes="cccccc"
     inkscape:connector-curvature="0"
     id="path1611-5-0"
     d="m 252,116 28,-28 v -8 h -36 v 36 z"
     style="fill:#e74747;stroke:none;stroke-width:0.25px;stroke-linecap:butt;stroke-linejoin:miter;stroke-opacity:1" /></clipPath><clipPath
   clipPathUnits="userSpaceOnUse"
   id="clipPath744"><rect
     style="fill:#1e88e5;fill-opacity:1;stroke-width:0.264583"
     id="rect746"
     width="541.86664"
     height="541.86664"
     x="0"
     y="1.5987212e-14"
     rx="79.375"
     ry="79.375" /></clipPath><clipPath
   clipPathUnits="userSpaceOnUse"
   id="clipPath62"><rect
     style="fill:#1e88e5;fill-opacity:1;stroke-width:0.264583"
     id="rect64"
     width="541.86664"
     height="541.86664"
     x="2.2507105e-05"
     y="-0.42205024"
     rx="79.375"
     ry="79.375" /></clipPath><linearGradient
   inkscape:collect="always"
   xlink:href="#linearGradient8241"
   id="linearGradient8243"
   x1="11.5"
   y1="120.5"
   x2="116.5"
   y2="120.5"
   gradientUnits="userSpaceOnUse"
   gradientTransform="matrix(1,0,0,0.94017094,0,5.7094017)" /><radialGradient
   r="32"
   fy="-76"
   fx="-244"
   cy="-76"
   cx="-244"
   gradientTransform="matrix(0.88333331,0,0,0.88333331,-460.35018,463.11973)"
   gradientUnits="userSpaceOnUse"
   id="radialGradient1103-6"
   xlink:href="#linearGradient1069" /><inkscape:path-effect
   effect="spiro"
   id="path-effect35304-9-20"
   is_visible="true" /><clipPath
   clipPathUnits="userSpaceOnUse"
   id="clipPath1609-7-2"><path
     sodipodi:nodetypes="cccccc"
     inkscape:connector-curvature="0"
     id="path1611-5-3"
     d="m 252,116 28,-28 v -8 h -36 v 36 z"
     style="fill:#e74747;stroke:none;stroke-width:0.25px;stroke-linecap:butt;stroke-linejoin:miter;stroke-opacity:1" /></clipPath><radialGradient
   r="32"
   fy="-76"
   fx="-244"
   cy="-76"
   cx="-244"
   gradientTransform="matrix(0.88333331,0,0,0.88333331,-460.35018,463.11973)"
   gradientUnits="userSpaceOnUse"
   id="radialGradient1103-56"
   xlink:href="#linearGradient1069" /><inkscape:path-effect
   effect="spiro"
   id="path-effect35304-9-7"
   is_visible="true" /><clipPath
   clipPathUnits="userSpaceOnUse"
   id="clipPath1609-7-0"><path
     sodipodi:nodetypes="cccccc"
     inkscape:connector-curvature="0"
     id="path1611-5-9"
     d="m 252,116 28,-28 v -8 h -36 v 36 z"
     style="fill:#e74747;stroke:none;stroke-width:0.25px;stroke-linecap:butt;stroke-linejoin:miter;stroke-opacity:1" /></clipPath><clipPath
   clipPathUnits="userSpaceOnUse"
   id="clipPath37"><rect
     style="fill:#1a1a1a;fill-opacity:1;stroke-width:0.264583"
     id="rect39"
     width="541.86664"
     height="541.86664"
     x="-2.6626146e-06"
     y="3.2408705"
     rx="79.375"
     ry="79.375" /></clipPath><clipPath
   clipPathUnits="userSpaceOnUse"
   id="clipPath22042"><rect
     style="fill:#333333;fill-opacity:1;stroke-width:0.0133797"
     id="rect22044"
     width="27.31955"
     height="27.483929"
     x="166.96844"
     y="105.40438"
     rx="4.0018873"
     ry="4.0259666" /></clipPath><clipPath
   clipPathUnits="userSpaceOnUse"
   id="clipPath1039"><rect
     style="fill:#b3b3b3;fill-opacity:1;stroke-width:0.264583"
     id="rect1041"
     width="541.8667"
     height="541.86682"
     x="2.5931527e-05"
     y="-0.00010962487"
     rx="79.375008"
     ry="79.375031" /></clipPath><clipPath
   clipPathUnits="userSpaceOnUse"
   id="clipPath154"><rect
     style="fill:#b3b3b3;fill-opacity:1;stroke-width:0.264583"
     id="rect156"
     width="541.8667"
     height="541.86682"
     x="-2.9218751e-05"
     y="-0.00016368683"
     rx="79.375008"
     ry="79.375031" /></clipPath><linearGradient
   inkscape:collect="always"
   xlink:href="#linearGradient404"
   id="linearGradient406"
   x1="64"
   y1="112.5"
   x2="64"
   y2="7.5"
   gradientUnits="userSpaceOnUse"
   gradientTransform="matrix(1,0,0,0.94017094,0,1.9487179)" />
        
    
            
            
        
                
                
                
            
                    
                
                    
                
                    
                
                
                    
                
                
                    
                
                
                    
                
                
                    
                
                
                    
                
                
                    
                
                
                    
                
                
                    
                <filter
   style="color-interpolation-filters:sRGB;"
   inkscape:label="Blur"
   id="filter2078"
   x="-0.05536301"
   y="-0.068154427"
   width="1.110726"
   height="1.1363089"><feGaussianBlur
     stdDeviation="2 2"
     result="blur"
     id="feGaussianBlur2076" /></filter><filter
   style="color-interpolation-filters:sRGB;"
   inkscape:label="Drop Shadow"
   id="filter3184"
   x="-0.21501199"
   y="-0.23700675"
   width="1.430024"
   height="1.7463822"><feFlood
     flood-opacity="0.333333"
     flood-color="rgb(0,0,0)"
     result="flood"
     id="feFlood3174" /><feComposite
     in="SourceGraphic"
     in2="flood"
     operator="in"
     result="composite1"
     id="feComposite3176" /><feGaussianBlur
     in="composite1"
     stdDeviation="2.1"
     result="blur"
     id="feGaussianBlur3178" /><feOffset
     dx="4.57967e-15"
     dy="5.79198"
     result="offset"
     id="feOffset3180" /><feComposite
     in="SourceGraphic"
     in2="offset"
     operator="over"
     result="composite2"
     id="feComposite3182" /></filter><filter
   style="color-interpolation-filters:sRGB;"
   inkscape:label="Drop Shadow"
   id="filter2692"
   x="-0.013840752"
   y="-0.017038607"
   width="1.0299883"
   height="1.036917"><feFlood
     flood-opacity="1"
     flood-color="rgb(255,255,255)"
     result="flood"
     id="feFlood2682" /><feComposite
     in="flood"
     in2="SourceGraphic"
     operator="out"
     result="composite1"
     id="feComposite2684" /><feGaussianBlur
     in="composite1"
     stdDeviation="0.5"
     result="blur"
     id="feGaussianBlur2686" /><feOffset
     dx="0.2"
     dy="0.2"
     result="offset"
     id="feOffset2688" /><feComposite
     in="offset"
     in2="SourceGraphic"
     operator="in"
     result="composite2"
     id="feComposite2690" /></filter></defs><g
     inkscape:groupmode="layer"
     id="layer2"
     inkscape:label="Layer 1"><path
       d="m 47.205391,70.228299 c 0.01988,1.131616 0.380779,3.330623 0.922126,5.047927 1.137748,3.634936 3.067638,6.997672 5.752969,9.961285 2.755675,3.04619 6.14904,5.492929 10.06846,7.230113 4.11975,1.82435 8.583577,2.75411 13.220206,2.746464 4.628983,-0.0061 9.09281,-0.954228 13.212561,-2.79234 3.919419,-1.754007 7.309726,-4.21145 10.060817,-7.259169 2.6838,-2.975845 4.61063,-6.344698 5.75144,-9.979634 0.57346,-1.836584 0.93589,-3.700693 1.08116,-5.570919 0.14222,-1.8427 0.0826,-3.688457 -0.17892,-5.532687 -0.51076,-3.593647 -1.75403,-6.96556 -3.66862,-10.039275 -1.75097,-2.824454 -4.008119,-5.29719 -6.691921,-7.378445 l 0.0061,-0.0046 L 69.65755,25.86127 c -0.02447,-0.01835 -0.04435,-0.03823 -0.07035,-0.05505 -1.776966,-1.364058 -4.765085,-1.359471 -6.719443,0.0076 -1.975767,1.382407 -2.202093,3.668579 -0.443477,5.110625 l -0.0076,0.0076 11.296433,9.185975 -34.430654,0.0367 h -0.04587 c -2.845898,0.0031 -5.581686,1.870226 -6.123044,4.2298 -0.556635,2.40392 1.376318,4.398011 4.335369,4.408716 l -0.0045,0.0107 17.451595,-0.03364 -31.141267,23.903107 c -0.03976,0.02905 -0.08259,0.05964 -0.119284,0.08869 -2.937658,2.249471 -3.887301,5.989922 -2.036933,8.357143 1.877892,2.406978 5.870714,2.411565 8.838954,0.01376 L 47.433287,67.223398 c 0,0 -0.247736,1.877872 -0.227855,3.004901 z m 43.673322,6.288117 c -3.50194,3.567652 -8.404657,5.590799 -13.709561,5.601503 -5.31255,0.0092 -10.215267,-1.995621 -13.717206,-5.557154 -1.71121,-1.735657 -2.968239,-3.732806 -3.74356,-5.859939 -0.760027,-2.090433 -1.055168,-4.30932 -0.859427,-6.548086 0.185037,-2.188301 0.836489,-4.275675 1.876367,-6.164251 1.021526,-1.856464 2.428419,-3.534008 4.165627,-4.953117 3.404069,-2.773989 7.73791,-4.275676 12.270553,-4.281792 4.537229,-0.0061 8.868013,1.481805 12.275141,4.24662 1.734148,1.412992 3.139512,3.08442 4.161039,4.937824 1.044466,1.887048 1.691331,3.966776 1.884013,6.161195 0.192684,2.235706 -0.102458,4.451534 -0.862487,6.543497 -0.77685,2.133249 -2.029289,4.1304 -3.740499,5.8737 z"
       style="clip-rule:evenodd;fill:#ea7600;fill-rule:nonzero;stroke-width:1.52923;stroke-linejoin:round;stroke-miterlimit:2;filter:url(#filter2078)"
       id="path1710" /><rect
       style="fill:url(#linearGradient8243);fill-opacity:1;stroke-width:0.969624"
       id="rect440"
       width="105"
       height="98.717949"
       x="11.5"
       y="20.282051"
       rx="12"
       ry="11.282051" /><rect
       style="fill:url(#linearGradient406);fill-opacity:1;stroke-width:0.969624"
       id="rect358"
       width="105"
       height="98.717949"
       x="11.5"
       y="9"
       rx="12"
       ry="11.282051" /><rect
       style="fill:#ffd6bc;fill-opacity:1;stroke-width:0.923748"
       id="rect338"
       width="100.03204"
       height="94.047211"
       x="13.983981"
       y="11.335367"
       rx="11.913856"
       ry="11.20106" /><path
       d="m 52.755379,62.966017 c 0.315916,-5.635754 3.075712,-10.60094 7.239252,-14.120679 4.083068,-3.457153 9.57882,-5.570188 15.575269,-5.570188 5.990489,0 11.48624,2.113035 15.57229,5.570188 4.160558,3.519739 6.920359,8.484925 7.239249,14.114718 0.31592,5.790731 -2.011727,11.17018 -6.094797,15.157825 -4.163538,4.056194 -10.085479,6.601375 -16.716742,6.601375 -6.631262,0 -12.565124,-2.545181 -16.725682,-6.601375 -4.08605,-3.987645 -6.407736,-9.367094 -6.088839,-15.151864 z"
       style="clip-rule:evenodd;fill:#ffffff;fill-rule:nonzero;stroke-width:2.98032;stroke-linejoin:round;stroke-miterlimit:2;filter:url(#filter3184)"
       id="path458" /><path
       d="m 63.846682,63.475439 c 0.162097,-2.891741 1.578167,-5.439406 3.714503,-7.245406 2.095047,-1.773885 4.91495,-2.858096 7.991763,-2.858096 3.073756,0 5.893659,1.084211 7.990235,2.858096 2.134807,1.806 3.550875,4.353665 3.714503,7.242346 0.162099,2.97126 -1.032231,5.731486 -3.127278,7.777571 -2.136336,2.081257 -5.174919,3.387203 -8.57746,3.387203 -3.40254,0 -6.447239,-1.305946 -8.582047,-3.387203 -2.096576,-2.046085 -3.287847,-4.806311 -3.124219,-7.774511 z"
       style="clip-rule:evenodd;fill:#306daa;fill-rule:nonzero;stroke-width:1.52923;stroke-linejoin:round;stroke-miterlimit:2;filter:url(#filter3184);fill-opacity:1"
       id="path462" /><path
       d="m 45.20535,69.332319 c 0.01988,1.131616 0.380779,3.330623 0.922126,5.047927 1.137748,3.634936 3.067638,6.997672 5.752969,9.961285 2.755675,3.04619 6.14904,5.492929 10.06846,7.230113 4.11975,1.82435 8.583577,2.75411 13.220206,2.746464 4.628983,-0.0061 9.09281,-0.954228 13.212561,-2.79234 3.919419,-1.754007 7.309726,-4.21145 10.060817,-7.259169 2.683801,-2.975845 4.610631,-6.344698 5.751441,-9.979634 0.57346,-1.836584 0.93589,-3.700693 1.08116,-5.570919 0.14222,-1.8427 0.0826,-3.688457 -0.17892,-5.532687 -0.51076,-3.593647 -1.75403,-6.96556 -3.66862,-10.039275 -1.750971,-2.824454 -4.00812,-5.29719 -6.691922,-7.378445 l 0.0061,-0.0046 L 67.657509,24.96529 c -0.02447,-0.01835 -0.04435,-0.03823 -0.07035,-0.05505 -1.776966,-1.364058 -4.765085,-1.359471 -6.719443,0.0076 -1.975767,1.382407 -2.202093,3.668579 -0.443477,5.110625 l -0.0076,0.0076 11.296433,9.185975 -34.430654,0.0367 h -0.04587 c -2.845898,0.0031 -5.581686,1.870226 -6.123044,4.2298 -0.556635,2.40392 1.376318,4.398011 4.335369,4.408716 l -0.0045,0.0107 17.451595,-0.03364 -31.141267,23.903107 c -0.03976,0.02905 -0.08259,0.05964 -0.119284,0.08869 -2.937658,2.249471 -3.887301,5.989922 -2.036933,8.357143 1.877892,2.406978 5.870714,2.411565 8.838954,0.01376 L 45.433246,66.327418 c 0,0 -0.247736,1.877872 -0.227855,3.004901 z m 43.673322,6.288117 c -3.50194,3.567652 -8.404657,5.590799 -13.709561,5.601503 -5.31255,0.0092 -10.215267,-1.995621 -13.717206,-5.557154 -1.71121,-1.735657 -2.968239,-3.732806 -3.74356,-5.859939 -0.760027,-2.090433 -1.055168,-4.30932 -0.859427,-6.548086 0.185037,-2.188301 0.836489,-4.275675 1.876367,-6.164251 1.021526,-1.856464 2.428419,-3.534008 4.165627,-4.953117 3.404069,-2.773989 7.73791,-4.275676 12.270553,-4.281792 4.537229,-0.0061 8.868013,1.481805 12.275141,4.24662 1.734148,1.412992 3.139512,3.08442 4.161039,4.937824 1.044466,1.887048 1.691331,3.966776 1.884013,6.161195 0.192684,2.235706 -0.102458,4.451534 -0.862487,6.543497 -0.77685,2.133249 -2.029289,4.1304 -3.740499,5.8737 z"
       style="clip-rule:evenodd;fill:#f98107;fill-rule:nonzero;stroke-width:1.52923;stroke-linejoin:round;stroke-miterlimit:2;filter:url(#filter3184);fill-opacity:1"
       id="path464" /><path
       d="m 45.20535,69.332319 c 0.01988,1.131616 0.380779,3.330623 0.922126,5.047927 1.137748,3.634936 3.067638,6.997672 5.752969,9.961285 2.755675,3.04619 6.14904,5.492929 10.06846,7.230113 4.11975,1.82435 8.583577,2.75411 13.220206,2.746464 4.628983,-0.0061 9.09281,-0.954228 13.212561,-2.79234 3.919419,-1.754007 7.309726,-4.21145 10.060817,-7.259169 2.683801,-2.975845 4.610631,-6.344698 5.751441,-9.979634 0.57346,-1.836584 0.93589,-3.700693 1.08116,-5.570919 0.14222,-1.8427 0.0826,-3.688457 -0.17892,-5.532687 -0.51076,-3.593647 -1.75403,-6.96556 -3.66862,-10.039275 -1.750971,-2.824454 -4.00812,-5.29719 -6.691922,-7.378445 l 0.0061,-0.0046 L 67.657509,24.96529 c -0.02447,-0.01835 -0.04435,-0.03823 -0.07035,-0.05505 -1.776966,-1.364058 -4.765085,-1.359471 -6.719443,0.0076 -1.975767,1.382407 -2.202093,3.668579 -0.443477,5.110625 l -0.0076,0.0076 11.296433,9.185975 -34.430654,0.0367 h -0.04587 c -2.845898,0.0031 -5.581686,1.870226 -6.123044,4.2298 -0.556635,2.40392 1.376318,4.398011 4.335369,4.408716 l -0.0045,0.0107 17.451595,-0.03364 -31.141267,23.903107 c -0.03976,0.02905 -0.08259,0.05964 -0.119284,0.08869 -2.937658,2.249471 -3.887301,5.989922 -2.036933,8.357143 1.877892,2.406978 5.870714,2.411565 8.838954,0.01376 L 45.433246,66.327418 c 0,0 -0.247736,1.877872 -0.227855,3.004901 z m 43.673322,6.288117 c -3.50194,3.567652 -8.404657,5.590799 -13.709561,5.601503 -5.31255,0.0092 -10.215267,-1.995621 -13.717206,-5.557154 -1.71121,-1.735657 -2.968239,-3.732806 -3.74356,-5.859939 -0.760027,-2.090433 -1.055168,-4.30932 -0.859427,-6.548086 0.185037,-2.188301 0.836489,-4.275675 1.876367,-6.164251 1.021526,-1.856464 2.428419,-3.534008 4.165627,-4.953117 3.404069,-2.773989 7.73791,-4.275676 12.270553,-4.281792 4.537229,-0.0061 8.868013,1.481805 12.275141,4.24662 1.734148,1.412992 3.139512,3.08442 4.161039,4.937824 1.044466,1.887048 1.691331,3.966776 1.884013,6.161195 0.192684,2.235706 -0.102458,4.451534 -0.862487,6.543497 -0.77685,2.133249 -2.029289,4.1304 -3.740499,5.8737 z"
       style="clip-rule:evenodd;fill:#f98107;fill-rule:nonzero;stroke-width:1.52923;stroke-linejoin:round;stroke-miterlimit:2;fill-opacity:1;filter:url(#filter2692)"
       id="path353" /></g></svg>
