<?xml version="1.0" encoding="UTF-8" standalone="no"?>
<!-- Created with Inkscape (http://www.inkscape.org/) -->

<svg
   width="128"
   height="128"
   viewBox="0 0 128 128"
   version="1.1"
   id="svg5"
   inkscape:version="1.2.2 (b0a8486541, 2022-12-01)"
   sodipodi:docname="org.videolan.VLC.svg"
   xml:space="preserve"
   xmlns:inkscape="http://www.inkscape.org/namespaces/inkscape"
   xmlns:sodipodi="http://sodipodi.sourceforge.net/DTD/sodipodi-0.dtd"
   xmlns:xlink="http://www.w3.org/1999/xlink"
   xmlns="http://www.w3.org/2000/svg"
   xmlns:svg="http://www.w3.org/2000/svg"><sodipodi:namedview
     id="namedview7"
     pagecolor="#ffffff"
     bordercolor="#666666"
     borderopacity="1"
     inkscape:pageshadow="2"
     inkscape:pageopacity="0.0"
     inkscape:pagecheckerboard="true"
     inkscape:document-units="px"
     showgrid="false"
     inkscape:showpageshadow="false"
     showborder="true"
     inkscape:snap-page="true"
     inkscape:zoom="1.4142136"
     inkscape:cx="-144.24978"
     inkscape:cy="-60.104077"
     inkscape:window-width="1366"
     inkscape:window-height="731"
     inkscape:window-x="0"
     inkscape:window-y="0"
     inkscape:window-maximized="1"
     inkscape:current-layer="layer2"
     inkscape:snap-global="false"
     inkscape:snap-bbox="true"
     inkscape:bbox-paths="true"
     inkscape:snap-bbox-midpoints="true"
     inkscape:snap-bbox-edge-midpoints="true"
     inkscape:bbox-nodes="true"
     inkscape:object-paths="true"
     inkscape:snap-intersection-paths="true"
     inkscape:deskcolor="#d1d1d1" /><defs
     id="defs2"><linearGradient
       inkscape:collect="always"
       id="linearGradient981"><stop
         style="stop-color:#af530e;stop-opacity:1;"
         offset="0"
         id="stop977" /><stop
         style="stop-color:#d16513;stop-opacity:1;"
         offset="0.04704872"
         id="stop1605" /><stop
         style="stop-color:#af530e;stop-opacity:1;"
         offset="0.09956726"
         id="stop1611" /><stop
         style="stop-color:#af530e;stop-opacity:1;"
         offset="0.89626855"
         id="stop1609" /><stop
         style="stop-color:#d06413;stop-opacity:1;"
         offset="0.95340931"
         id="stop1607" /><stop
         style="stop-color:#af530e;stop-opacity:1;"
         offset="1"
         id="stop979" /></linearGradient><linearGradient
       inkscape:collect="always"
       id="linearGradient3624"><stop
         style="stop-color:#ab5715;stop-opacity:1;"
         offset="0"
         id="stop3620" /><stop
         style="stop-color:#ee791d;stop-opacity:1"
         offset="0.49753377"
         id="stop7792" /><stop
         style="stop-color:#ee791d;stop-opacity:1"
         offset="1"
         id="stop3622" /></linearGradient><linearGradient
       inkscape:collect="always"
       id="linearGradient3616"><stop
         style="stop-color:#ab5715;stop-opacity:1;"
         offset="0"
         id="stop3612" /><stop
         style="stop-color:#ee791d;stop-opacity:1"
         offset="0.50435835"
         id="stop7721" /><stop
         style="stop-color:#ee791d;stop-opacity:1"
         offset="1"
         id="stop3614" /></linearGradient><linearGradient
       inkscape:collect="always"
       id="linearGradient3551"><stop
         style="stop-color:#b3b3b3;stop-opacity:1"
         offset="0"
         id="stop3547" /><stop
         style="stop-color:#ffffff;stop-opacity:1;"
         offset="1"
         id="stop3549" /></linearGradient><linearGradient
       inkscape:collect="always"
       id="linearGradient2924"><stop
         style="stop-color:#b3b3b3;stop-opacity:1"
         offset="0"
         id="stop2920" /><stop
         style="stop-color:#ffffff;stop-opacity:1;"
         offset="1"
         id="stop2922" /></linearGradient><linearGradient
       y2="236"
       x2="96"
       y1="236"
       x1="32"
       gradientTransform="translate(604.81684,170.58641)"
       gradientUnits="userSpaceOnUse"
       id="linearGradient1099"
       xlink:href="#linearGradient1036" /><linearGradient
       id="linearGradient1036"><stop
         id="stop1032"
         offset="0"
         style="stop-color:#d5d3cf;stop-opacity:1;" /><stop
         id="stop1034"
         offset="1"
         style="stop-color:#f6f5f4;stop-opacity:1" /></linearGradient><radialGradient
       r="32"
       fy="-76"
       fx="-244"
       cy="-76"
       cx="-244"
       gradientTransform="matrix(0.88333331,0,0,0.88333331,-460.35018,463.11973)"
       gradientUnits="userSpaceOnUse"
       id="radialGradient1103"
       xlink:href="#linearGradient1069" /><linearGradient
       id="linearGradient1069"><stop
         id="stop1065"
         offset="0"
         style="stop-color:#d5d3cf;stop-opacity:1" /><stop
         id="stop1067-1"
         offset="1"
         style="stop-color:#949390;stop-opacity:1" /></linearGradient><linearGradient
       gradientUnits="userSpaceOnUse"
       y2="232"
       x2="64"
       y1="262.5"
       x1="64"
       id="linearGradient1027"
       xlink:href="#linearGradient1025"
       gradientTransform="translate(-470.5864,432.81685)" /><linearGradient
       id="linearGradient1025"><stop
         id="stop1021"
         offset="0"
         style="stop-color:#9a9996;stop-opacity:1" /><stop
         id="stop1023"
         offset="1"
         style="stop-color:#77767b;stop-opacity:1" /></linearGradient><inkscape:path-effect
       effect="spiro"
       id="path-effect35304-9"
       is_visible="true" /><clipPath
       clipPathUnits="userSpaceOnUse"
       id="clipPath1609-7"><path
         sodipodi:nodetypes="cccccc"
         inkscape:connector-curvature="0"
         id="path1611-5"
         d="m 252,116 28,-28 v -8 h -36 v 36 z"
         style="fill:#e74747;stroke:none;stroke-width:0.25px;stroke-linecap:butt;stroke-linejoin:miter;stroke-opacity:1" /></clipPath><radialGradient
       r="32"
       fy="-76"
       fx="-244"
       cy="-76"
       cx="-244"
       gradientTransform="matrix(0.88333331,0,0,0.88333331,-460.35018,463.11973)"
       gradientUnits="userSpaceOnUse"
       id="radialGradient1103-5"
       xlink:href="#linearGradient1069" /><inkscape:path-effect
       effect="spiro"
       id="path-effect35304-9-2"
       is_visible="true" /><clipPath
       clipPathUnits="userSpaceOnUse"
       id="clipPath1609-7-7"><path
         sodipodi:nodetypes="cccccc"
         inkscape:connector-curvature="0"
         id="path1611-5-0"
         d="m 252,116 28,-28 v -8 h -36 v 36 z"
         style="fill:#e74747;stroke:none;stroke-width:0.25px;stroke-linecap:butt;stroke-linejoin:miter;stroke-opacity:1" /></clipPath><clipPath
       clipPathUnits="userSpaceOnUse"
       id="clipPath744"><rect
         style="fill:#1e88e5;fill-opacity:1;stroke-width:0.264583"
         id="rect746"
         width="541.86664"
         height="541.86664"
         x="0"
         y="1.5987212e-14"
         rx="79.375"
         ry="79.375" /></clipPath><clipPath
       clipPathUnits="userSpaceOnUse"
       id="clipPath62"><rect
         style="fill:#1e88e5;fill-opacity:1;stroke-width:0.264583"
         id="rect64"
         width="541.86664"
         height="541.86664"
         x="2.2507105e-05"
         y="-0.42205024"
         rx="79.375"
         ry="79.375" /></clipPath><radialGradient
       r="32"
       fy="-76"
       fx="-244"
       cy="-76"
       cx="-244"
       gradientTransform="matrix(0.88333331,0,0,0.88333331,-460.35018,463.11973)"
       gradientUnits="userSpaceOnUse"
       id="radialGradient1103-6"
       xlink:href="#linearGradient1069" /><inkscape:path-effect
       effect="spiro"
       id="path-effect35304-9-20"
       is_visible="true" /><clipPath
       clipPathUnits="userSpaceOnUse"
       id="clipPath1609-7-2"><path
         sodipodi:nodetypes="cccccc"
         inkscape:connector-curvature="0"
         id="path1611-5-3"
         d="m 252,116 28,-28 v -8 h -36 v 36 z"
         style="fill:#e74747;stroke:none;stroke-width:0.25px;stroke-linecap:butt;stroke-linejoin:miter;stroke-opacity:1" /></clipPath><clipPath
       clipPathUnits="userSpaceOnUse"
       id="clipPath961"><rect
         style="fill:#00c853;stroke:none;stroke-width:0.529037"
         id="rect963"
         width="541.86664"
         height="541.86664"
         x="1.4210855e-14"
         y="2.717972e-05"
         rx="79.375"
         ry="79.375" /></clipPath><radialGradient
       r="32"
       fy="-76"
       fx="-244"
       cy="-76"
       cx="-244"
       gradientTransform="matrix(0.88333331,0,0,0.88333331,-460.35018,463.11973)"
       gradientUnits="userSpaceOnUse"
       id="radialGradient1103-56"
       xlink:href="#linearGradient1069" /><inkscape:path-effect
       effect="spiro"
       id="path-effect35304-9-7"
       is_visible="true" /><clipPath
       clipPathUnits="userSpaceOnUse"
       id="clipPath1440"><circle
         style="display:inline;opacity:1;vector-effect:none;fill:none;fill-opacity:1;stroke:#000000;stroke-width:2;stroke-linecap:butt;stroke-linejoin:miter;stroke-miterlimit:4;stroke-dasharray:none;stroke-dashoffset:0;stroke-opacity:1;marker:none;marker-start:none;marker-mid:none;marker-end:none;paint-order:normal;enable-background:new"
         id="circle1442"
         cx="-134.35028"
         cy="193.74727"
         r="24"
         transform="rotate(-45)" /></clipPath><clipPath
       clipPathUnits="userSpaceOnUse"
       id="clipPath1430"><circle
         style="display:inline;opacity:1;vector-effect:none;fill:none;fill-opacity:1;stroke:#000000;stroke-width:2;stroke-linecap:butt;stroke-linejoin:miter;stroke-miterlimit:4;stroke-dasharray:none;stroke-dashoffset:0;stroke-opacity:1;marker:none;marker-start:none;marker-mid:none;marker-end:none;paint-order:normal;enable-background:new"
         id="circle1432"
         cx="12"
         cy="232"
         r="24" /></clipPath><clipPath
       clipPathUnits="userSpaceOnUse"
       id="clipPath1440-9"><circle
         style="display:inline;opacity:1;vector-effect:none;fill:none;fill-opacity:1;stroke:#000000;stroke-width:2;stroke-linecap:butt;stroke-linejoin:miter;stroke-miterlimit:4;stroke-dasharray:none;stroke-dashoffset:0;stroke-opacity:1;marker:none;marker-start:none;marker-mid:none;marker-end:none;paint-order:normal;enable-background:new"
         id="circle1442-5"
         cx="-134.35028"
         cy="193.74727"
         r="24"
         transform="rotate(-45)" /></clipPath><clipPath
       clipPathUnits="userSpaceOnUse"
       id="clipPath1430-1"><circle
         style="display:inline;opacity:1;vector-effect:none;fill:none;fill-opacity:1;stroke:#000000;stroke-width:2;stroke-linecap:butt;stroke-linejoin:miter;stroke-miterlimit:4;stroke-dasharray:none;stroke-dashoffset:0;stroke-opacity:1;marker:none;marker-start:none;marker-mid:none;marker-end:none;paint-order:normal;enable-background:new"
         id="circle1432-8"
         cx="12"
         cy="232"
         r="24" /></clipPath><clipPath
       clipPathUnits="userSpaceOnUse"
       id="clipPath2024"><rect
         style="opacity:1;vector-effect:none;fill:#63452c;fill-opacity:1;stroke:none;stroke-width:4;stroke-linecap:round;stroke-linejoin:round;stroke-miterlimit:4;stroke-dasharray:none;stroke-dashoffset:0;stroke-opacity:1"
         id="rect2026"
         width="74"
         height="98"
         x="6"
         y="196" /></clipPath><linearGradient
       id="linearGradient914"
       inkscape:collect="always"><stop
         id="stop910"
         offset="0"
         style="stop-color:#f6f5f4;stop-opacity:0.43700787" /><stop
         id="stop912"
         offset="1"
         style="stop-color:#deddda;stop-opacity:0;" /></linearGradient><radialGradient
       gradientTransform="matrix(2.6086955,0,0,1.8410361,-102.95652,-748.94671)"
       gradientUnits="userSpaceOnUse"
       r="46"
       fy="296"
       fx="64.000008"
       cy="296"
       cx="64.000008"
       id="radialGradient916"
       xlink:href="#linearGradient914"
       inkscape:collect="always" /><clipPath
       clipPathUnits="userSpaceOnUse"
       id="clipPath11543"><rect
         style="fill:#f0c04e;fill-opacity:1;stroke:none;stroke-width:0.529037"
         id="rect11545"
         width="541.86664"
         height="541.86664"
         x="1.4746095e-06"
         y="6.4330168e-05"
         rx="79.375"
         ry="79.375" /></clipPath><style
       id="style374">.cls-1{fill:url(#linear-gradient);}.cls-2{opacity:0.35;fill:url(#radial-gradient);}.cls-2,.cls-4{isolation:isolate;}.cls-3{fill:url(#linear-gradient-2);}.cls-4{opacity:0.41;fill:url(#radial-gradient-2);}.cls-5{fill:url(#radial-gradient-3);}.cls-6{fill:url(#radial-gradient-4);}</style><linearGradient
       id="linear-gradient"
       x1="63.33"
       y1="84.03"
       x2="241.67"
       y2="84.03"
       gradientTransform="matrix(1,0,0,-1,0,266)"
       gradientUnits="userSpaceOnUse"><stop
         offset="0"
         stop-color="#0c59a4"
         id="stop376" /><stop
         offset="1"
         stop-color="#114a8b"
         id="stop378" /></linearGradient><radialGradient
       id="radial-gradient"
       cx="161.83"
       cy="68.91"
       r="95.38"
       gradientTransform="matrix(1,0,0,-0.95,0,248.84)"
       gradientUnits="userSpaceOnUse"><stop
         offset="0.72"
         stop-opacity="0"
         id="stop381" /><stop
         offset="0.95"
         stop-opacity="0.53"
         id="stop383" /><stop
         offset="1"
         id="stop385" /></radialGradient><linearGradient
       id="linear-gradient-2"
       x1="157.35"
       y1="161.39"
       x2="45.96"
       y2="40.06"
       gradientTransform="matrix(1,0,0,-1,0,266)"
       gradientUnits="userSpaceOnUse"><stop
         offset="0"
         stop-color="#1b9de2"
         id="stop388" /><stop
         offset="0.16"
         stop-color="#1595df"
         id="stop390" /><stop
         offset="0.67"
         stop-color="#0680d7"
         id="stop392" /><stop
         offset="1"
         stop-color="#0078d4"
         id="stop394" /></linearGradient><radialGradient
       id="radial-gradient-2"
       cx="-340.29"
       cy="62.99"
       r="143.24"
       gradientTransform="matrix(0.15,-0.99,-0.8,-0.12,176.64,-125.4)"
       gradientUnits="userSpaceOnUse"><stop
         offset="0.76"
         stop-opacity="0"
         id="stop397" /><stop
         offset="0.95"
         stop-opacity="0.5"
         id="stop399" /><stop
         offset="1"
         id="stop401" /></radialGradient><radialGradient
       id="radial-gradient-3"
       cx="113.37"
       cy="570.21"
       r="202.43"
       gradientTransform="matrix(-0.04,1,2.13,0.08,-1179.54,-106.69)"
       gradientUnits="userSpaceOnUse"><stop
         offset="0"
         stop-color="#35c1f1"
         id="stop404" /><stop
         offset="0.11"
         stop-color="#34c1ed"
         id="stop406" /><stop
         offset="0.23"
         stop-color="#2fc2df"
         id="stop408" /><stop
         offset="0.31"
         stop-color="#2bc3d2"
         id="stop410" /><stop
         offset="0.67"
         stop-color="#36c752"
         id="stop412" /></radialGradient><radialGradient
       id="radial-gradient-4"
       cx="376.52"
       cy="567.97"
       r="97.34"
       gradientTransform="matrix(0.28,0.96,0.78,-0.23,-303.76,-148.5)"
       gradientUnits="userSpaceOnUse"><stop
         offset="0"
         stop-color="#66eb6e"
         id="stop415" /><stop
         offset="1"
         stop-color="#66eb6e"
         stop-opacity="0"
         id="stop417" /></radialGradient><clipPath
       clipPathUnits="userSpaceOnUse"
       id="clipPath1260"><rect
         style="fill:#bbdefb;fill-opacity:1;stroke:none;stroke-width:0.529037"
         id="rect1262"
         width="541.86664"
         height="541.86664"
         x="2.9492187e-06"
         y="3.9968629e-05"
         rx="79.375"
         ry="79.375" /></clipPath><linearGradient
       x1="0.00011788858"
       y1="119.55213"
       x2="235.77728"
       y2="119.55213"
       id="linearGradient-1"
       gradientTransform="matrix(1.4511897,0,0,1.7037658,99.854461,80.416034)"
       gradientUnits="userSpaceOnUse"><stop
         stop-color="#FF5500"
         offset="0%"
         id="stop6" /><stop
         stop-color="#FF5500"
         offset="40.9877232%"
         id="stop8" /><stop
         stop-color="#FF2000"
         offset="58.1981215%"
         id="stop10" /><stop
         stop-color="#FF2000"
         offset="100%"
         id="stop12" /></linearGradient><linearGradient
       x1="0.021484375"
       y1="0.50705516"
       x2="1"
       y2="0.50705516"
       id="linearGradient-2"
       gradientUnits="userSpaceOnUse"
       gradientTransform="matrix(7.1070123,0,0,7.1070123,54.42477,49.220049)"><stop
         stop-color="#FF452A"
         offset="0%"
         id="stop15" /><stop
         stop-color="#FF2000"
         offset="100%"
         id="stop17" /></linearGradient><mask
       id="mask-4"
       fill="#ffffff"><path
         d="M 45.051162,6.7034671 39.149895,2.8822695e-5 h -10.3632 -10.3632 L 12.522229,6.7034671 c 0,0 -5.1816002,-1.4411348 -7.6284669,1.0087943 0,0 6.9087999,-0.6244437 9.2836999,3.2425536 0,0 6.405033,1.224964 7.268633,1.224964 0.8636,0 2.734734,-0.720567 4.461934,-1.297021 1.7272,-0.576454 2.878666,-0.580633 2.878666,-0.580633 0,0 1.151467,0.0042 2.878667,0.580633 1.7272,0.576454 3.598333,1.297021 4.461933,1.297021 0.8636,0 7.268634,-1.224964 7.268634,-1.224964 2.3749,-3.8669973 9.2837,-3.2425536 9.2837,-3.2425536 C 50.232762,5.2623323 45.051162,6.7034671 45.051162,6.7034671"
         id="use25"
         style="stroke-width:0.264583" /></mask><clipPath
       clipPathUnits="userSpaceOnUse"
       id="clipPath3338"><rect
         style="fill:#ff7f2a;fill-opacity:1;stroke:none;stroke-width:0.529037"
         id="rect3340"
         width="541.86664"
         height="541.86664"
         x="1.1368684e-13"
         y="5.8174133e-05"
         rx="79.375"
         ry="79.375" /></clipPath><clipPath
       clipPathUnits="userSpaceOnUse"
       id="clipPath2140"><rect
         style="fill:#ffad76;fill-opacity:1;stroke:none;stroke-width:0.529037"
         id="rect2142"
         width="487.67996"
         height="487.67996"
         x="27.093353"
         y="27.093338"
         rx="71.4375"
         ry="71.4375" /></clipPath><linearGradient
       gradientUnits="userSpaceOnUse"
       y2="268"
       x2="115.82323"
       y1="268"
       x1="11.823223"
       id="linearGradient1329"
       xlink:href="#linearGradient1357"
       gradientTransform="matrix(2.2749684,0,0,2.2749684,-344.80754,-258.29553)" /><linearGradient
       id="linearGradient1357"><stop
         id="stop1345"
         offset="0"
         style="stop-color:#986a44;stop-opacity:1" /><stop
         style="stop-color:#cdab8f;stop-opacity:1"
         offset="0.02884588"
         id="stop1347" /><stop
         id="stop1349"
         offset="0.05769204"
         style="stop-color:#b5835a;stop-opacity:1" /><stop
         style="stop-color:#b5835a;stop-opacity:1"
         offset="0.94230765"
         id="stop1351" /><stop
         id="stop1353"
         offset="0.97133332"
         style="stop-color:#cdab8f;stop-opacity:1" /><stop
         id="stop1355"
         offset="1"
         style="stop-color:#986a44;stop-opacity:1" /></linearGradient><linearGradient
       y2="23"
       x2="60"
       y1="53.254841"
       x1="70.586235"
       gradientTransform="translate(0,170)"
       gradientUnits="userSpaceOnUse"
       id="linearGradient1610"
       xlink:href="#linearGradient1656" /><linearGradient
       id="linearGradient1656"><stop
         style="stop-color:#ffffff;stop-opacity:1"
         offset="0"
         id="stop1652" /><stop
         style="stop-color:#deddda;stop-opacity:1"
         offset="1"
         id="stop1654" /></linearGradient><linearGradient
       y2="268"
       x2="68"
       y1="268"
       x1="60"
       gradientUnits="userSpaceOnUse"
       id="linearGradient1612"
       xlink:href="#linearGradient1270" /><linearGradient
       id="linearGradient1270"><stop
         style="stop-color:#949390;stop-opacity:1;"
         offset="0"
         id="stop1258" /><stop
         id="stop1260"
         offset="0.08333334"
         style="stop-color:#d5d3cf;stop-opacity:1" /><stop
         style="stop-color:#949390;stop-opacity:1;"
         offset="0.16666667"
         id="stop1262" /><stop
         id="stop1264"
         offset="0.83333331"
         style="stop-color:#949390;stop-opacity:1;" /><stop
         style="stop-color:#d5d3cf;stop-opacity:1"
         offset="0.91666669"
         id="stop1266" /><stop
         style="stop-color:#949390;stop-opacity:1"
         offset="1"
         id="stop1268" /></linearGradient><linearGradient
       id="i"><stop
         offset="0"
         stop-color="#e26400"
         id="stop353" /><stop
         offset="1"
         stop-color="#ffb900"
         id="stop355" /></linearGradient><linearGradient
       id="h"><stop
         offset="0"
         stop-color="#9b4400"
         id="stop358" /><stop
         offset="1"
         stop-color="#e56300"
         id="stop360" /></linearGradient><linearGradient
       id="g"><stop
         offset="0"
         stop-color="#f48200"
         stop-opacity="0"
         id="stop363" /><stop
         offset=".58887613"
         stop-color="#f48200"
         stop-opacity=".72784811"
         id="stop365" /><stop
         offset=".81621653"
         stop-color="#cc5f00"
         id="stop367" /><stop
         offset="1"
         stop-color="#a43d00"
         id="stop369" /></linearGradient><linearGradient
       id="f"><stop
         offset="0"
         stop-color="#a1abb2"
         id="stop372" /><stop
         offset=".08297831"
         stop-color="#eaeced"
         id="stop374" /><stop
         offset="1"
         stop-color="#c6ccd0"
         id="stop376-3" /></linearGradient><linearGradient
       id="e"><stop
         offset="0"
         stop-color="#7a8288"
         id="stop379" /><stop
         offset=".5288403"
         stop-color="#9fa3a7"
         id="stop381-6" /><stop
         offset="1"
         stop-color="#7d858b"
         id="stop383-7" /></linearGradient><linearGradient
       id="d"><stop
         offset="0"
         stop-color="#a1abb2"
         id="stop386" /><stop
         offset=".14824273"
         stop-color="#eaeced"
         id="stop388-5" /><stop
         offset="1"
         stop-color="#c6ccd0"
         id="stop390-3" /></linearGradient><linearGradient
       id="c"><stop
         offset="0"
         stop-color="#7a8288"
         id="stop393" /><stop
         offset=".07633271"
         stop-color="#9fa3a7"
         id="stop395" /><stop
         offset="1"
         stop-color="#7d858b"
         id="stop397-5" /></linearGradient><linearGradient
       id="b"><stop
         offset="0"
         stop-color="#ffb900"
         id="stop400" /><stop
         offset="1"
         stop-color="#ffd76b"
         id="stop402" /></linearGradient><linearGradient
       xlink:href="#a"
       id="r"
       x1="236.651"
       x2="236.05246"
       y1="158.47852"
       y2="162.89346"
       gradientTransform="matrix(0.64617078,0,0,0.64617078,-88.351412,9.8226964)"
       gradientUnits="userSpaceOnUse"
       spreadMethod="reflect" /><linearGradient
       id="a"><stop
         offset="0"
         stop-color="#f68000"
         id="stop406-6" /><stop
         offset="1"
         stop-color="#fd9800"
         id="stop408-2" /></linearGradient><linearGradient
       xlink:href="#b"
       id="q"
       x1="-113.89329"
       x2="412.23013"
       y1="461.92139"
       y2="463.26218"
       gradientTransform="matrix(0.1823638,0,0,0.1823638,29.170629,32.901931)"
       gradientUnits="userSpaceOnUse" /><linearGradient
       xlink:href="#c"
       id="p"
       x1="107.20918"
       x2="151.34604"
       y1="-.64152896"
       y2="12.703197"
       gradientTransform="matrix(0.1823638,0,0,0.1823638,29.080273,32.894297)"
       gradientUnits="userSpaceOnUse" /><linearGradient
       xlink:href="#d"
       id="o"
       x1="104.88638"
       x2="164.75943"
       y1="12.640625"
       y2="27.389442"
       gradientTransform="matrix(0.1823638,0,0,0.1823638,29.170629,32.901931)"
       gradientUnits="userSpaceOnUse" /><linearGradient
       xlink:href="#e"
       id="n"
       x1="18.875"
       x2="334.03125"
       y1="252.48438"
       y2="268.41544"
       gradientTransform="matrix(0.1823638,0,0,0.1823638,29.170629,32.901931)"
       gradientUnits="userSpaceOnUse" /><linearGradient
       xlink:href="#f"
       id="m"
       x1="44.103722"
       x2="278.4324"
       y1="228.59993"
       y2="290.6998"
       gradientTransform="matrix(0.1823638,0,0,0.1823638,29.170629,32.901931)"
       gradientUnits="userSpaceOnUse" /><linearGradient
       xlink:href="#g"
       id="l"
       x1="115.20164"
       x2="261.62219"
       y1="70.105232"
       y2="55.356419"
       gradientTransform="matrix(0.1823638,0,0,0.1823638,29.170629,32.901931)"
       gradientUnits="userSpaceOnUse" /><linearGradient
       xlink:href="#h"
       id="k"
       x1="64.751183"
       x2="93.522026"
       y1="102.28447"
       y2="108.98846"
       gradientTransform="matrix(0.1823638,0,0,0.1823638,29.170629,32.901931)"
       gradientUnits="userSpaceOnUse" /><linearGradient
       xlink:href="#i"
       id="j"
       x1="40.775471"
       x2="44.375881"
       y1="100.34167"
       y2="125.31633"
       gradientTransform="matrix(0.64617078,0,0,0.65924464,29.170634,31.982132)"
       gradientUnits="userSpaceOnUse" /><filter
       id="s"
       color-interpolation-filters="sRGB"
       x="-0.025415705"
       y="-0.091577561"
       width="1.0508314"
       height="1.1831551"><feGaussianBlur
         stdDeviation="1.1354669"
         id="feGaussianBlur419" /></filter><linearGradient
       inkscape:collect="always"
       xlink:href="#linearGradient2924"
       id="linearGradient2926"
       x1="47.498685"
       y1="38.786367"
       x2="80.50338"
       y2="38.786367"
       gradientUnits="userSpaceOnUse"
       gradientTransform="matrix(1.052848,0,0,1.0049913,-3.3781436,-0.04492706)" /><linearGradient
       inkscape:collect="always"
       xlink:href="#linearGradient3551"
       id="linearGradient3553"
       x1="34.298798"
       y1="87.025932"
       x2="93.7012"
       y2="87.025932"
       gradientUnits="userSpaceOnUse"
       gradientTransform="matrix(1.052848,0,0,1.0049913,-3.3781436,-0.04492706)" /><linearGradient
       inkscape:collect="always"
       xlink:href="#linearGradient3616"
       id="linearGradient3618"
       x1="39.577207"
       y1="63.34184"
       x2="88.424735"
       y2="63.34184"
       gradientUnits="userSpaceOnUse"
       gradientTransform="matrix(1.052848,0,0,1.0049913,-3.3781436,-0.04492706)" /><linearGradient
       inkscape:collect="always"
       xlink:href="#linearGradient3624"
       id="linearGradient3626"
       x1="54.095729"
       y1="19.228609"
       x2="73.90628"
       y2="19.228609"
       gradientUnits="userSpaceOnUse"
       gradientTransform="matrix(1.052848,0,0,1.0049913,-3.3781436,-0.04492706)" /><linearGradient
       inkscape:collect="always"
       xlink:href="#linearGradient981"
       id="linearGradient985"
       x1="-54.173015"
       y1="104.23535"
       x2="34.291804"
       y2="104.23535"
       gradientUnits="userSpaceOnUse"
       gradientTransform="matrix(1.052848,0,0,1.052848,74.46269,-11.530542)" /></defs><g
     inkscape:groupmode="layer"
     id="layer2"
     inkscape:label="Layer 1"><path
       id="path2062"
       style="fill:url(#linearGradient3626);fill-opacity:1;stroke-width:3.92866;stroke-linecap:round;stroke-linejoin:round;paint-order:markers stroke fill"
       d="M 64.004127,8.9999943 A 5.5473099,1.8895506 0 0 0 58.456964,10.889545 L 53.82107,25.20226 a 10.429723,3.6038595 0 0 0 -0.244633,0.753094 10.429723,3.6038595 0 0 0 10.429726,3.603964 10.429723,3.6038595 0 0 0 10.425666,-3.598126 10.429723,3.6038595 0 0 0 0.0021,0 v -0.002 a 10.429723,3.6038595 0 0 0 0,-0.0039 10.429723,3.6038595 0 0 0 -0.260947,-0.799799 L 69.551291,10.889545 A 5.5473099,1.8895506 0 0 0 64.004127,8.9999943 Z" /><ellipse
       style="fill:#ff9955;fill-opacity:1;stroke-width:5.61485;stroke-linecap:round;stroke-linejoin:round;paint-order:markers stroke fill"
       id="path2049"
       cx="64.004128"
       cy="10.889545"
       rx="5.5473099"
       ry="1.8895506" /><path
       id="path624"
       style="fill:url(#linearGradient985);stroke-width:1.57927;stroke-linecap:round;stroke-linejoin:round;paint-order:markers stroke fill"
       d="m 28.048956,79.532585 c -2.333108,-10e-7 -3.633933,1.950875 -4.211392,4.211392 l -6.317088,24.727543 c -0.06713,0.26278 -0.09009,0.52133 -0.08019,0.77318 -0.0014,-0.0351 -0.0062,-0.0696 -0.0062,-0.10487 h -0.0082 v 6.31709 h 0.0082 c -6.08e-4,1.963 2.190473,3.54309 4.289533,3.54309 h 84.544521 c 2.09906,0 4.29013,-1.58009 4.28953,-3.54309 h 0.0105 v -6.14024 c 0.002,-0.0385 -8.6e-4,-0.0783 0,-0.11722 v -0.0596 h -0.002 c -8e-5,-0.21886 -0.0202,-0.44155 -0.0781,-0.6683 l -6.31709,-24.72754 c -0.57746,-2.260517 -1.87828,-4.211392 -4.211395,-4.211392 z M 17.450561,109.3763 c 0.0072,0.0801 0.01656,0.15999 0.03085,0.23853 -0.01432,-0.0786 -0.02363,-0.15825 -0.03085,-0.23853 z m 0.0658,0.40304 c 0.01099,0.0445 0.02589,0.0877 0.03907,0.13161 -0.01319,-0.044 -0.02807,-0.087 -0.03907,-0.13161 z m 0.277606,0.70739 c 0.01882,0.0344 0.04156,0.067 0.06169,0.10076 -0.02017,-0.034 -0.04284,-0.0662 -0.06169,-0.10076 z m 0.306396,0.44416 c 0.09758,0.12633 0.203879,0.2484 0.318733,0.36398 -0.115562,-0.11638 -0.220666,-0.23668 -0.318733,-0.36398 z m 91.719097,0.10076 c -0.0493,0.0597 -0.0989,0.11762 -0.15217,0.17479 0.0531,-0.0567 0.10308,-0.11565 0.15217,-0.17479 z M 18.655578,111.519 c 0.129312,0.11137 0.267789,0.21286 0.411268,0.31051 -0.143833,-0.0979 -0.281685,-0.19878 -0.411268,-0.31051 z m 90.612792,0.0617 c -0.0672,0.0555 -0.13686,0.10642 -0.2077,0.15834 0.0708,-0.0516 0.1406,-0.10328 0.2077,-0.15834 z m -89.958875,0.40921 c 0.168747,0.10034 0.347273,0.18715 0.52848,0.26733 -0.182257,-0.0804 -0.358853,-0.16643 -0.52848,-0.26733 z m 89.321405,0.035 c -0.10202,0.059 -0.20795,0.10864 -0.31462,0.16039 0.10646,-0.0513 0.21269,-0.10192 0.31462,-0.16039 z m -88.560558,0.33723 c 0.204519,0.0782 0.416296,0.13483 0.629242,0.18507 -0.213473,-0.05 -0.424273,-0.10687 -0.629242,-0.18507 z m 87.816168,0.0164 c -0.13032,0.0485 -0.26496,0.0798 -0.39894,0.11721 0.13382,-0.037 0.2687,-0.0691 0.39894,-0.11721 z m -87.001855,0.21797 c 0.278026,0.0539 0.558932,0.0858 0.838988,0.0863 -0.279976,0 -0.561156,-0.0329 -0.838988,-0.0863 z m 86.212215,0.004 c -0.24577,0.0466 -0.49452,0.069 -0.74234,0.074 0.24735,-0.004 0.49676,-0.028 0.74234,-0.074 z" /><path
       id="rect525"
       style="fill:#ee791d;fill-opacity:1;stroke-width:1.57927;stroke-linecap:round;stroke-linejoin:round;paint-order:markers stroke fill"
       d="m 28.048784,79.531886 h 71.911483 c 2.333113,0 3.633933,1.950873 4.211393,4.211392 l 6.31709,24.728862 c 0.57745,2.26051 -1.87829,4.21139 -4.2114,4.21139 H 21.731696 c -2.333111,0 -4.78885,-1.95088 -4.211392,-4.21139 l 6.317088,-24.728862 c 0.577459,-2.260519 1.878281,-4.211392 4.211392,-4.211392 z"
       sodipodi:nodetypes="sssssssss" /><path
       id="path2120"
       style="fill:url(#linearGradient3553);fill-opacity:1;stroke-width:3.92866;stroke-linecap:round;stroke-linejoin:round;paint-order:markers stroke fill"
       d="M 38.291607,73.136888 32.733309,90.286514 A 31.271181,11.955341 0 0 0 64.004128,102.24238 31.271181,11.955341 0 0 0 95.274947,90.286514 L 89.718706,73.136888 A 25.714819,6.7019821 0 0 1 64.006184,79.840101 25.714819,6.7019821 0 0 1 38.291607,73.136888 Z" /><path
       id="path2126"
       style="fill:url(#linearGradient3618);fill-opacity:1;stroke-width:3.92866;stroke-linecap:round;stroke-linejoin:round;paint-order:markers stroke fill"
       d="m 46.628717,47.38648 -8.01801,24.754864 A 25.714819,6.7019821 0 0 0 38.29064,73.137689 25.714819,6.7019821 0 0 0 64.006162,79.839658 25.714819,6.7019821 0 0 0 89.719661,73.137689 25.714819,6.7019821 0 0 0 89.34659,72.001234 L 81.379537,47.402047 A 31.271181,11.955341 0 0 1 64.000046,49.418087 31.271181,11.955341 0 0 1 46.628717,47.38648 Z" /><path
       id="path1627"
       style="fill:url(#linearGradient2926);fill-opacity:1;stroke-width:3.92866;stroke-linecap:round;stroke-linejoin:round;paint-order:markers stroke fill"
       d="m 53.576437,25.955354 -6.723472,20.751977 a 17.373379,4.5279756 0 0 0 -0.222213,0.679149 17.373379,4.5279756 0 0 0 17.375411,4.528305 17.373379,4.5279756 0 0 0 17.369304,-4.512738 31.271181,11.955341 0 0 0 0.0042,0 l -0.0021,-0.0058 a 17.373379,4.5279756 0 0 0 0.0021,-0.0098 17.373379,4.5279756 0 0 0 -0.254831,-0.768664 L 74.433969,25.961119 a 10.429723,3.6038595 0 0 0 -0.0021,0 10.429723,3.6038595 0 0 1 -10.425666,3.598125 10.429723,3.6038595 0 0 1 -10.429725,-3.603963 z" /><ellipse
       style="fill:#b35610;fill-opacity:1;stroke-width:3.74036;stroke-linecap:round;stroke-linejoin:round;paint-order:markers stroke fill"
       id="ellipse1027"
       cx="64.004128"
       cy="10.615391"
       rx="3.6953731"
       ry="1.2587351" /><path
       id="path1457"
       style="fill:#d36b1a;fill-opacity:1;stroke-width:3.92866;stroke-linecap:round;stroke-linejoin:round;paint-order:markers stroke fill"
       d="m 32.807336,90.725264 a 31.271181,11.955341 0 0 0 -0.07403,0.450339 l 5.558298,17.149907 a 25.714819,6.7019821 0 0 0 0.318733,0.99527 l 0.224141,0.69504 0.448283,1.67181 9.195969,0.008 a 46.484717,16.574729 0 0 0 15.525393,0.98686 46.484717,16.574729 0 0 0 15.389677,-0.95621 l 9.311124,0.008 0.452396,-1.69237 0.0062,-0.0185 0.0021,-0.008 0.180957,-0.55521 a 25.714819,6.7019821 0 0 0 0.372199,-1.1351 l 5.55617,-17.149497 A 31.271181,11.955341 0 0 0 95.22765,90.910335 31.271181,11.955341 0 0 1 64.004127,102.24285 31.271181,11.955341 0 0 1 32.807336,90.725264 Z" /><path
       id="path4718"
       style="fill:#ee9148;fill-opacity:1;stroke-width:1.57927;stroke-linecap:round;stroke-linejoin:round;paint-order:markers stroke fill"
       d="M 17.498047 108.5918 C 17.037456 110.80002 19.441403 112.68359 21.732422 112.68359 L 106.27734 112.68359 C 108.56837 112.68359 110.97035 110.80002 110.50977 108.5918 C 110.13609 110.27944 108.16712 111.55859 106.27734 111.55859 L 21.732422 111.55859 C 19.84265 111.55859 17.871711 110.27945 17.498047 108.5918 z " /></g></svg>
