<?xml version="1.0" encoding="UTF-8" standalone="no"?>
<!-- Created with Inkscape (http://www.inkscape.org/) -->

<svg
   width="128"
   height="128"
   viewBox="0 0 128 128"
   version="1.1"
   id="svg5"
   inkscape:version="1.1.2 (0a00cf5339, 2022-02-04)"
   sodipodi:docname="org.gnome.Extensions.svg"
   xmlns:inkscape="http://www.inkscape.org/namespaces/inkscape"
   xmlns:sodipodi="http://sodipodi.sourceforge.net/DTD/sodipodi-0.dtd"
   xmlns:xlink="http://www.w3.org/1999/xlink"
   xmlns="http://www.w3.org/2000/svg"
   xmlns:svg="http://www.w3.org/2000/svg">
  <sodipodi:namedview
     id="namedview7"
     pagecolor="#ffffff"
     bordercolor="#666666"
     borderopacity="1"
     inkscape:pageshadow="2"
     inkscape:pageopacity="0.0"
     inkscape:pagecheckerboard="true"
     inkscape:document-units="px"
     showgrid="false"
     inkscape:showpageshadow="false"
     showborder="true"
     inkscape:snap-page="true"
     inkscape:object-paths="true"
     inkscape:snap-object-midpoints="true"
     inkscape:zoom="3.875736"
     inkscape:cx="73.276405"
     inkscape:cy="64.761893"
     inkscape:window-width="1366"
     inkscape:window-height="731"
     inkscape:window-x="0"
     inkscape:window-y="0"
     inkscape:window-maximized="1"
     inkscape:current-layer="layer2"
     inkscape:snap-global="true"
     inkscape:snap-bbox="true"
     inkscape:bbox-paths="true"
     inkscape:bbox-nodes="true"
     inkscape:snap-bbox-midpoints="true" />
  <defs
     id="defs2">
    <linearGradient
       inkscape:collect="always"
       id="linearGradient17153">
      <stop
         style="stop-color:#169452;stop-opacity:1;"
         offset="0"
         id="stop17149" />
      <stop
         style="stop-color:#1dc56d;stop-opacity:1"
         offset="0.1"
         id="stop26540" />
      <stop
         style="stop-color:#169452;stop-opacity:1;"
         offset="0.14551678"
         id="stop26282" />
      <stop
         style="stop-color:#169452;stop-opacity:1"
         offset="0.39899856"
         id="stop18731" />
      <stop
         style="stop-color:#1dc56d;stop-opacity:1"
         offset="0.50134802"
         id="stop17959" />
      <stop
         style="stop-color:#169452;stop-opacity:1"
         offset="0.60000002"
         id="stop18473" />
      <stop
         style="stop-color:#179c56;stop-opacity:1"
         offset="0.85000002"
         id="stop19503" />
      <stop
         style="stop-color:#1dc56d;stop-opacity:1"
         offset="0.89999998"
         id="stop19117" />
      <stop
         style="stop-color:#169452;stop-opacity:1"
         offset="1"
         id="stop17151" />
    </linearGradient>
    <linearGradient
       y2="236"
       x2="96"
       y1="236"
       x1="32"
       gradientTransform="translate(604.81684,170.58641)"
       gradientUnits="userSpaceOnUse"
       id="linearGradient1099"
       xlink:href="#linearGradient1036" />
    <linearGradient
       id="linearGradient1036">
      <stop
         id="stop1032"
         offset="0"
         style="stop-color:#d5d3cf;stop-opacity:1;" />
      <stop
         id="stop1034"
         offset="1"
         style="stop-color:#f6f5f4;stop-opacity:1" />
    </linearGradient>
    <radialGradient
       r="32"
       fy="-76"
       fx="-244"
       cy="-76"
       cx="-244"
       gradientTransform="matrix(0.88333331,0,0,0.88333331,-460.35018,463.11973)"
       gradientUnits="userSpaceOnUse"
       id="radialGradient1103"
       xlink:href="#linearGradient1069" />
    <linearGradient
       id="linearGradient1069">
      <stop
         id="stop1065"
         offset="0"
         style="stop-color:#d5d3cf;stop-opacity:1" />
      <stop
         id="stop1067-1"
         offset="1"
         style="stop-color:#949390;stop-opacity:1" />
    </linearGradient>
    <linearGradient
       gradientUnits="userSpaceOnUse"
       y2="232"
       x2="64"
       y1="262.5"
       x1="64"
       id="linearGradient1027"
       xlink:href="#linearGradient1025"
       gradientTransform="translate(-470.5864,432.81685)" />
    <linearGradient
       id="linearGradient1025">
      <stop
         id="stop1021"
         offset="0"
         style="stop-color:#9a9996;stop-opacity:1" />
      <stop
         id="stop1023"
         offset="1"
         style="stop-color:#77767b;stop-opacity:1" />
    </linearGradient>
    <inkscape:path-effect
       effect="spiro"
       id="path-effect35304-9"
       is_visible="true" />
    <clipPath
       clipPathUnits="userSpaceOnUse"
       id="clipPath1609-7">
      <path
         sodipodi:nodetypes="cccccc"
         inkscape:connector-curvature="0"
         id="path1611-5"
         d="m 252,116 28,-28 v -8 h -36 v 36 z"
         style="fill:#e74747;stroke:none;stroke-width:0.25px;stroke-linecap:butt;stroke-linejoin:miter;stroke-opacity:1" />
    </clipPath>
    <clipPath
       clipPathUnits="userSpaceOnUse"
       id="clipPath961">
      <rect
         style="fill:#00c853;stroke:none;stroke-width:0.529037"
         id="rect963"
         width="541.86664"
         height="541.86664"
         x="1.4210855e-14"
         y="2.717972e-05"
         rx="79.375"
         ry="79.375" />
    </clipPath>
    <linearGradient
       inkscape:collect="always"
       xlink:href="#linearGradient17153"
       id="linearGradient17155"
       x1="14.854111"
       y1="67.659181"
       x2="113.14588"
       y2="67.659181"
       gradientUnits="userSpaceOnUse"
       gradientTransform="matrix(1.1699552,0,0,1.273938,-10.877044,-21.352507)" />
  </defs>
  <g
     inkscape:groupmode="layer"
     id="layer2"
     inkscape:label="Layer 1">
    <g
       id="g1255"
       transform="matrix(1.136974,0,0,1.136974,4.1100734,-8.7674184)">
      <path
         id="path1010"
         style="fill:url(#linearGradient17155);fill-opacity:1;stroke:#000000;stroke-width:0.0748491;stroke-opacity:0"
         d="m 45.246094,19.988281 v 1.833985 h -0.002 v 4.130859 H 30.728516 c -0.850679,0 -1.535157,0.822429 -1.535157,1.845703 v 29.00586 c -0.178891,0.09992 -2.296254,1.222607 -4.509765,-0.417969 -0.0025,-0.0018 -0.0053,-0.002 -0.0078,-0.0039 a 11.327647,14.411313 0 0 0 -6.81056,-2.898444 11.327647,14.411313 0 0 0 -9.5449215,6.767578 H 6.5371094 v 7.642578 a 11.327647,14.411313 0 0 0 11.3281246,14.41211 11.327647,14.411313 0 0 0 7.490235,-3.603516 c 1.947501,-0.997698 3.661981,-0.09975 3.83789,-0.002 v 29.146485 c 0,1.02327 0.684477,1.8457 1.535157,1.8457 h 23.291015 c 0.03473,-0.0722 0.422423,-0.92799 0.419922,-2.11914 h 0.0098 v -7.644529 h -3.185547 a 13.235018,12.334421 0 0 1 -0.294922,-2.5625 13.235018,12.334421 0 0 1 13.234375,-12.333985 13.235018,12.334421 0 0 1 13.236328,12.333985 13.235018,12.334421 0 0 1 -0.333984,2.5625 H 73.6973 v 7.644529 h 0.0098 c -0.0033,1.18842 0.382119,2.04017 0.419922,2.11914 H 97.27546 c 0.85068,0 1.535156,-0.82243 1.535156,-1.8457 V 78.845703 c 1.94e-4,-1.07e-4 0.0018,1.08e-4 0.002,0 V 67.822266 a 11.327647,14.411313 0 0 0 -0.002,0.05469 v -0.05078 l 0.002,-0.0039 V 56.955078 c -1.73e-4,-9.6e-5 -0.0018,9.4e-5 -0.002,0 v -29.15625 c 0,-1.023274 -0.684466,-1.845703 -1.535156,-1.845703 h -14.375 v -5.964844 h -9.183594 v 1.833985 h -0.002 v 5.943359 c -0.0374,0.683054 0.03915,1.496201 0.412109,2.359375 a 13.235018,12.334421 0 0 1 3.3125,8.154297 13.235018,12.334421 0 0 1 -13.23635,12.333984 13.235018,12.334421 0 0 1 -13.234375,-12.333984 13.235018,12.334421 0 0 1 2.660156,-7.417969 c 0.0017,-0.0027 0.0042,-0.0049 0.0059,-0.0078 0.747702,-1.196109 0.870227,-2.365394 0.792968,-3.263672 v -1.261719 h 0.002 V 19.988281 Z M 29.1875,67.675781 c 5.59e-4,0.0011 0.0042,0.0067 0.0059,0.0098 v 0.134765 l -0.002,0.002 a 11.327647,14.411313 0 0 0 -0.0039,-0.146485 z" />
      <path
         id="path974"
         style="fill:#69f0ae;fill-opacity:1;stroke:#000000;stroke-width:0.0748491;stroke-opacity:0"
         d="m 30.728516,18.308594 c -0.85068,0 -1.535157,0.822427 -1.535157,1.845703 v 29.007812 c -0.178891,0.09993 -2.296256,1.222609 -4.509765,-0.417968 -0.0025,-0.0018 -0.0034,-0.0041 -0.0059,-0.0059 a 11.327648,14.411313 0 0 0 -6.8125,-2.898437 11.327648,14.411313 0 0 0 -11.3281246,14.412109 11.327648,14.411313 0 0 0 11.3281246,14.410156 11.327648,14.411313 0 0 0 7.488282,-3.603515 c 1.947501,-0.997696 3.663935,-0.09781 3.839843,0 v 29.146486 c 0,1.02328 0.684477,1.8457 1.535157,1.8457 h 23.291015 c 0.05853,-0.12161 1.148254,-2.449949 -0.384765,-4.902342 -0.0017,-0.0027 -0.0042,-0.0051 -0.0059,-0.0078 A 13.235018,12.334421 0 0 1 50.96875,89.722656 13.235018,12.334421 0 0 1 64.203125,77.388672 13.235018,12.334421 0 0 1 77.4375,89.722656 13.235018,12.334421 0 0 1 74.128906,97.876953 c -0.936122,2.166567 -0.05924,4.054047 -0.002,4.173827 h 23.148438 c 0.850683,0 1.535156,-0.82242 1.535156,-1.8457 V 84.806641 71.203125 60.234375 60.181641 36.287109 h 0.002 V 20.154297 c 0,-1.023275 -0.686427,-1.845703 -1.537109,-1.845703 H 74.125 c -0.102376,0.220873 -0.903824,2.070979 0.0039,4.171875 A 13.235018,12.334421 0 0 1 77.4375,30.634766 13.235018,12.334421 0 0 1 64.203125,42.970703 13.235018,12.334421 0 0 1 50.966797,30.634766 13.235018,12.334421 0 0 1 53.628906,23.21875 c 0.0017,-0.0027 0.0043,-0.005 0.0059,-0.0078 1.495403,-2.392216 0.491701,-4.677445 0.386718,-4.902344 z M 29.1875,60.033203 c 5.61e-4,0.0012 0.0043,0.0066 0.0059,0.0098 v 0.132812 c -2.46e-4,6.11e-4 -0.0017,0.0035 -0.002,0.0039 A 11.327648,14.411313 0 0 0 29.1875,60.03323 Z" />
    </g>
  </g>
</svg>
