<?xml version="1.0" encoding="UTF-8" standalone="no"?>
<!-- Created with Inkscape (http://www.inkscape.org/) -->

<svg
   width="128"
   height="128"
   viewBox="0 0 128 128"
   version="1.1"
   id="svg5"
   inkscape:version="1.2.2 (b0a8486541, 2022-12-01)"
   sodipodi:docname="org.gnome.Nautilus.svg"
   xml:space="preserve"
   xmlns:inkscape="http://www.inkscape.org/namespaces/inkscape"
   xmlns:sodipodi="http://sodipodi.sourceforge.net/DTD/sodipodi-0.dtd"
   xmlns:xlink="http://www.w3.org/1999/xlink"
   xmlns="http://www.w3.org/2000/svg"
   xmlns:svg="http://www.w3.org/2000/svg"><sodipodi:namedview
     id="namedview7"
     pagecolor="#ffffff"
     bordercolor="#666666"
     borderopacity="1"
     inkscape:pageshadow="2"
     inkscape:pageopacity="0.0"
     inkscape:pagecheckerboard="true"
     inkscape:document-units="px"
     showgrid="false"
     inkscape:showpageshadow="false"
     showborder="true"
     inkscape:snap-page="true"
     inkscape:zoom="3.2315261"
     inkscape:cx="71.019077"
     inkscape:cy="59.105202"
     inkscape:window-width="1366"
     inkscape:window-height="731"
     inkscape:window-x="0"
     inkscape:window-y="0"
     inkscape:window-maximized="1"
     inkscape:current-layer="layer2"
     inkscape:snap-bbox="true"
     inkscape:bbox-nodes="true"
     inkscape:bbox-paths="true"
     inkscape:snap-bbox-edge-midpoints="true"
     inkscape:snap-bbox-midpoints="true"
     inkscape:object-paths="true"
     inkscape:snap-intersection-paths="true"
     inkscape:deskcolor="#d1d1d1" /><defs
     id="defs2"><linearGradient
       inkscape:collect="always"
       id="linearGradient5168"><stop
         style="stop-color:#0b80dc;stop-opacity:1;"
         offset="0"
         id="stop5164" /><stop
         style="stop-color:#3785e4;stop-opacity:1;"
         offset="0"
         id="stop5462" /><stop
         style="stop-color:#3785e4;stop-opacity:1;"
         offset="0.88639259"
         id="stop5722" /><stop
         style="stop-color:#70adf0;stop-opacity:1;"
         offset="0.94881046"
         id="stop5592" /><stop
         style="stop-color:#3785e4;stop-opacity:1;"
         offset="1"
         id="stop5166" /></linearGradient><linearGradient
       y2="236"
       x2="96"
       y1="236"
       x1="32"
       gradientTransform="translate(604.81684,170.58641)"
       gradientUnits="userSpaceOnUse"
       id="linearGradient1099"
       xlink:href="#linearGradient1036" /><linearGradient
       id="linearGradient1036"><stop
         id="stop1032"
         offset="0"
         style="stop-color:#d5d3cf;stop-opacity:1;" /><stop
         id="stop1034"
         offset="1"
         style="stop-color:#f6f5f4;stop-opacity:1" /></linearGradient><radialGradient
       r="32"
       fy="-76"
       fx="-244"
       cy="-76"
       cx="-244"
       gradientTransform="matrix(0.88333331,0,0,0.88333331,-460.35018,463.11973)"
       gradientUnits="userSpaceOnUse"
       id="radialGradient1103"
       xlink:href="#linearGradient1069" /><linearGradient
       id="linearGradient1069"><stop
         id="stop1065"
         offset="0"
         style="stop-color:#d5d3cf;stop-opacity:1" /><stop
         id="stop1067-1"
         offset="1"
         style="stop-color:#949390;stop-opacity:1" /></linearGradient><linearGradient
       gradientUnits="userSpaceOnUse"
       y2="232"
       x2="64"
       y1="262.5"
       x1="64"
       id="linearGradient1027"
       xlink:href="#linearGradient1025"
       gradientTransform="translate(-470.5864,432.81685)" /><linearGradient
       id="linearGradient1025"><stop
         id="stop1021"
         offset="0"
         style="stop-color:#9a9996;stop-opacity:1" /><stop
         id="stop1023"
         offset="1"
         style="stop-color:#77767b;stop-opacity:1" /></linearGradient><inkscape:path-effect
       effect="spiro"
       id="path-effect35304-9"
       is_visible="true" /><clipPath
       clipPathUnits="userSpaceOnUse"
       id="clipPath1609-7"><path
         sodipodi:nodetypes="cccccc"
         inkscape:connector-curvature="0"
         id="path1611-5"
         d="m 252,116 28,-28 v -8 h -36 v 36 z"
         style="fill:#e74747;stroke:none;stroke-width:0.25px;stroke-linecap:butt;stroke-linejoin:miter;stroke-opacity:1" /></clipPath><radialGradient
       r="32"
       fy="-76"
       fx="-244"
       cy="-76"
       cx="-244"
       gradientTransform="matrix(0.88333331,0,0,0.88333331,-460.35018,463.11973)"
       gradientUnits="userSpaceOnUse"
       id="radialGradient1103-5"
       xlink:href="#linearGradient1069" /><inkscape:path-effect
       effect="spiro"
       id="path-effect35304-9-2"
       is_visible="true" /><clipPath
       clipPathUnits="userSpaceOnUse"
       id="clipPath1609-7-7"><path
         sodipodi:nodetypes="cccccc"
         inkscape:connector-curvature="0"
         id="path1611-5-0"
         d="m 252,116 28,-28 v -8 h -36 v 36 z"
         style="fill:#e74747;stroke:none;stroke-width:0.25px;stroke-linecap:butt;stroke-linejoin:miter;stroke-opacity:1" /></clipPath><clipPath
       clipPathUnits="userSpaceOnUse"
       id="clipPath744"><rect
         style="fill:#1e88e5;fill-opacity:1;stroke-width:0.264583"
         id="rect746"
         width="541.86664"
         height="541.86664"
         x="0"
         y="1.5987212e-14"
         rx="79.375"
         ry="79.375" /></clipPath><clipPath
       clipPathUnits="userSpaceOnUse"
       id="clipPath62"><rect
         style="fill:#1e88e5;fill-opacity:1;stroke-width:0.264583"
         id="rect64"
         width="541.86664"
         height="541.86664"
         x="2.2507105e-05"
         y="-0.42205024"
         rx="79.375"
         ry="79.375" /></clipPath><radialGradient
       r="32"
       fy="-76"
       fx="-244"
       cy="-76"
       cx="-244"
       gradientTransform="matrix(0.88333331,0,0,0.88333331,-460.35018,463.11973)"
       gradientUnits="userSpaceOnUse"
       id="radialGradient1103-6"
       xlink:href="#linearGradient1069" /><inkscape:path-effect
       effect="spiro"
       id="path-effect35304-9-20"
       is_visible="true" /><clipPath
       clipPathUnits="userSpaceOnUse"
       id="clipPath1609-7-2"><path
         sodipodi:nodetypes="cccccc"
         inkscape:connector-curvature="0"
         id="path1611-5-3"
         d="m 252,116 28,-28 v -8 h -36 v 36 z"
         style="fill:#e74747;stroke:none;stroke-width:0.25px;stroke-linecap:butt;stroke-linejoin:miter;stroke-opacity:1" /></clipPath><clipPath
       clipPathUnits="userSpaceOnUse"
       id="clipPath1056"><rect
         style="fill:#64b5f6;fill-opacity:1;stroke-width:0.264583"
         id="rect1058"
         width="541.86664"
         height="541.86664"
         x="-1.1368684e-13"
         y="3.1816406e-05"
         rx="79.375"
         ry="79.375" /></clipPath><clipPath
       clipPathUnits="userSpaceOnUse"
       id="clipPath261"><rect
         style="fill:#64b5f6;fill-opacity:1;stroke-width:0.264583"
         id="rect263"
         width="541.86664"
         height="541.86664"
         x="0"
         y="3.1816406e-05"
         rx="79.375"
         ry="79.375" /></clipPath><clipPath
       clipPathUnits="userSpaceOnUse"
       id="clipPath3004"><rect
         style="fill:#90caf9;fill-opacity:1;stroke-width:0.264583"
         id="rect3006"
         width="541.86664"
         height="541.86664"
         x="0"
         y="-2.6645351e-14"
         rx="79.375"
         ry="79.375" /></clipPath><clipPath
       clipPathUnits="userSpaceOnUse"
       id="clipPath823"><path
         id="path825"
         style="fill:#999999;stroke-width:3.26374"
         d="M 52.916667,2.9771875e-6 C 23.600833,2.9771875e-6 7.9999835e-8,23.600836 7.9999835e-8,52.916667 V 157.92266 488.95 541.86667 H 52.916667 383.94452 488.95 c 29.31584,0 52.91667,-23.60086 52.91667,-52.91667 V 52.916667 C 541.86667,23.600836 518.26584,2.9771875e-6 488.95,2.9771875e-6 Z" /></clipPath><radialGradient
       r="32"
       fy="-76"
       fx="-244"
       cy="-76"
       cx="-244"
       gradientTransform="matrix(0.88333331,0,0,0.88333331,-460.35018,463.11973)"
       gradientUnits="userSpaceOnUse"
       id="radialGradient1103-56"
       xlink:href="#linearGradient1069" /><inkscape:path-effect
       effect="spiro"
       id="path-effect35304-9-7"
       is_visible="true" /><clipPath
       clipPathUnits="userSpaceOnUse"
       id="clipPath1609-7-0"><path
         sodipodi:nodetypes="cccccc"
         inkscape:connector-curvature="0"
         id="path1611-5-9"
         d="m 252,116 28,-28 v -8 h -36 v 36 z"
         style="fill:#e74747;stroke:none;stroke-width:0.25px;stroke-linecap:butt;stroke-linejoin:miter;stroke-opacity:1" /></clipPath><radialGradient
       r="32"
       fy="-76"
       fx="-244"
       cy="-76"
       cx="-244"
       gradientTransform="matrix(0.88333331,0,0,0.88333331,-460.35018,463.11973)"
       gradientUnits="userSpaceOnUse"
       id="radialGradient1103-5-3"
       xlink:href="#linearGradient1069" /><inkscape:path-effect
       effect="spiro"
       id="path-effect35304-9-2-6"
       is_visible="true" /><clipPath
       clipPathUnits="userSpaceOnUse"
       id="clipPath1609-7-7-0"><path
         sodipodi:nodetypes="cccccc"
         inkscape:connector-curvature="0"
         id="path1611-5-0-6"
         d="m 252,116 28,-28 v -8 h -36 v 36 z"
         style="fill:#e74747;stroke:none;stroke-width:0.25px;stroke-linecap:butt;stroke-linejoin:miter;stroke-opacity:1" /></clipPath><clipPath
       clipPathUnits="userSpaceOnUse"
       id="clipPath744-2"><rect
         style="fill:#1e88e5;fill-opacity:1;stroke-width:0.264583"
         id="rect746-6"
         width="541.86664"
         height="541.86664"
         x="0"
         y="1.5987212e-14"
         rx="79.375"
         ry="79.375" /></clipPath><clipPath
       clipPathUnits="userSpaceOnUse"
       id="clipPath62-1"><rect
         style="fill:#1e88e5;fill-opacity:1;stroke-width:0.264583"
         id="rect64-8"
         width="541.86664"
         height="541.86664"
         x="2.2507105e-05"
         y="-0.42205024"
         rx="79.375"
         ry="79.375" /></clipPath><radialGradient
       r="32"
       fy="-76"
       fx="-244"
       cy="-76"
       cx="-244"
       gradientTransform="matrix(0.88333331,0,0,0.88333331,-460.35018,463.11973)"
       gradientUnits="userSpaceOnUse"
       id="radialGradient1103-6-7"
       xlink:href="#linearGradient1069" /><inkscape:path-effect
       effect="spiro"
       id="path-effect35304-9-20-9"
       is_visible="true" /><clipPath
       clipPathUnits="userSpaceOnUse"
       id="clipPath1609-7-2-2"><path
         sodipodi:nodetypes="cccccc"
         inkscape:connector-curvature="0"
         id="path1611-5-3-0"
         d="m 252,116 28,-28 v -8 h -36 v 36 z"
         style="fill:#e74747;stroke:none;stroke-width:0.25px;stroke-linecap:butt;stroke-linejoin:miter;stroke-opacity:1" /></clipPath><linearGradient
       inkscape:collect="always"
       xlink:href="#linearGradient5168"
       id="linearGradient5426"
       x1="11.503906"
       y1="68.358396"
       x2="116.49609"
       y2="68.358396"
       gradientUnits="userSpaceOnUse" /></defs><g
     inkscape:groupmode="layer"
     id="layer2"
     inkscape:label="Layer 1"><path
       id="path864"
       style="fill:#3785e4;fill-opacity:1;stroke-width:0.0656055"
       d="m 21.756476,8.4523672 c -5.680229,0 -10.253122,4.7929148 -10.253122,10.7464468 v 7.272742 27.778412 4.705558 48.794014 0.78709 9.95936 H 21.756476 65.617713 106.2422 c 5.68023,0 10.25313,-4.44188 10.25313,-9.95936 v -0.78709 -48.147234 -33.13075 c 0,-5.517482 -4.5729,-9.959353 -10.25313,-9.959353 H 53.48989 L 45.800048,8.4523672 Z" /><path
       id="path1128"
       style="fill:url(#linearGradient5426);fill-opacity:1;stroke-width:0.0656055"
       d="M 11.550781 18.220703 C 11.523184 18.543459 11.503906 18.868686 11.503906 19.199219 L 11.503906 26.470703 L 11.503906 54.25 L 11.503906 58.955078 L 11.503906 107.75 L 11.503906 108.53711 L 11.503906 118.49609 L 21.755859 118.49609 L 65.617188 118.49609 L 106.24219 118.49609 C 111.92242 118.49609 116.49609 114.05459 116.49609 108.53711 L 116.49609 107.75 L 116.49609 62.876953 L 11.550781 62.876953 L 11.550781 18.220703 z " /><rect
       style="fill:#ffffff;fill-opacity:1;stroke-width:1.46589"
       id="rect7882"
       width="94.361458"
       height="47.186806"
       x="16.818613"
       y="27.984913"
       rx="6.5185628"
       ry="5.2743082" /><path
       id="path854"
       style="fill:#60a5f0;fill-opacity:1;stroke-width:0.0532917"
       d="m 76.772071,37.574797 -7.686047,6.233978 H 21.803217 c -5.677428,0 -10.248065,2.892579 -10.248065,6.485607 v 21.153803 32.287615 6.48562 h 10.248065 43.8396 40.604443 c 5.67746,0 10.24807,-2.8926 10.24807,-6.48562 V 64.669381 50.294382 44.669191 c 0,-3.930296 -4.57063,-7.094394 -10.24807,-7.094394 z" /><path
       id="path353"
       style="fill:#a2c7f0;fill-opacity:1;stroke-width:0.0532917"
       d="M 76.771484 37.574219 L 69.085938 43.808594 L 21.802734 43.808594 C 16.125312 43.808594 11.554688 46.701897 11.554688 50.294922 L 11.554688 53.107422 C 11.554688 49.514397 16.125312 46.621094 21.802734 46.621094 L 69.085938 46.621094 L 76.771484 40.386719 L 106.24805 40.386719 C 111.92548 40.386719 116.49609 43.55213 116.49609 47.482422 L 116.49609 44.669922 C 116.49609 40.73963 111.92548 37.574219 106.24805 37.574219 L 76.771484 37.574219 z " /><path
       id="path1749"
       style="fill:#96b9e4;fill-opacity:1;stroke-width:0.0656055"
       d="M 21.755859 8.453125 C 16.075636 8.453125 11.503906 13.245693 11.503906 19.199219 L 11.503906 21.199219 C 11.503906 15.245693 16.075636 10.453125 21.755859 10.453125 L 45.800781 10.453125 L 53.490234 18.511719 L 106.24219 18.511719 C 111.92241 18.511719 116.49609 22.953227 116.49609 28.470703 L 116.49609 26.470703 C 116.49609 20.953227 111.92241 16.511719 106.24219 16.511719 L 53.490234 16.511719 L 45.800781 8.453125 L 21.755859 8.453125 z " /></g></svg>
