<?xml version="1.0" encoding="UTF-8" standalone="no"?>
<!-- Created with Inkscape (http://www.inkscape.org/) -->

<svg
   width="128"
   height="128"
   viewBox="0 0 128 128"
   version="1.1"
   id="svg5"
   inkscape:version="1.2.2 (b0a8486541, 2022-12-01)"
   sodipodi:docname="org.gnome.Contacts.svg"
   xmlns:inkscape="http://www.inkscape.org/namespaces/inkscape"
   xmlns:sodipodi="http://sodipodi.sourceforge.net/DTD/sodipodi-0.dtd"
   xmlns:xlink="http://www.w3.org/1999/xlink"
   xmlns="http://www.w3.org/2000/svg"
   xmlns:svg="http://www.w3.org/2000/svg">
  <sodipodi:namedview
     id="namedview7"
     pagecolor="#ffffff"
     bordercolor="#666666"
     borderopacity="1"
     inkscape:pageshadow="2"
     inkscape:pageopacity="0.0"
     inkscape:pagecheckerboard="true"
     inkscape:document-units="px"
     showgrid="false"
     inkscape:showpageshadow="false"
     showborder="true"
     inkscape:snap-page="true"
     inkscape:zoom="1.2510139"
     inkscape:cx="171.8606"
     inkscape:cy="125.49821"
     inkscape:window-width="1366"
     inkscape:window-height="731"
     inkscape:window-x="0"
     inkscape:window-y="0"
     inkscape:window-maximized="1"
     inkscape:current-layer="layer2"
     inkscape:snap-global="true"
     inkscape:snap-bbox="true"
     inkscape:bbox-nodes="true"
     inkscape:snap-bbox-edge-midpoints="true"
     inkscape:snap-bbox-midpoints="true"
     inkscape:bbox-paths="true"
     inkscape:snap-intersection-paths="true"
     inkscape:object-paths="true"
     inkscape:deskcolor="#d1d1d1" />
  <defs
     id="defs2">
    <inkscape:path-effect
       effect="powerclip"
       id="path-effect5337"
       is_visible="true"
       lpeversion="1"
       inverse="true"
       flatten="false"
       hide_clip="false"
       message="Use fill-rule evenodd on &lt;b&gt;fill and stroke&lt;/b&gt; dialog if no flatten result after convert clip to paths." />
    <linearGradient
       inkscape:collect="always"
       id="linearGradient1009">
      <stop
         style="stop-color:#cccccc;stop-opacity:1"
         offset="0"
         id="stop997" />
      <stop
         style="stop-color:#e6e6e6;stop-opacity:1"
         offset="0.05"
         id="stop999" />
      <stop
         style="stop-color:#cccccc;stop-opacity:1"
         offset="0.1"
         id="stop1001" />
      <stop
         style="stop-color:#cccccc;stop-opacity:1"
         offset="0.89999998"
         id="stop1003" />
      <stop
         style="stop-color:#e6e6e6;stop-opacity:1"
         offset="0.94999999"
         id="stop1005" />
      <stop
         style="stop-color:#cccccc;stop-opacity:1"
         offset="1"
         id="stop1007" />
    </linearGradient>
    <linearGradient
       y2="236"
       x2="96"
       y1="236"
       x1="32"
       gradientTransform="translate(604.81684,170.58641)"
       gradientUnits="userSpaceOnUse"
       id="linearGradient1099"
       xlink:href="#linearGradient1036" />
    <linearGradient
       id="linearGradient1036">
      <stop
         id="stop1032"
         offset="0"
         style="stop-color:#d5d3cf;stop-opacity:1;" />
      <stop
         id="stop1034"
         offset="1"
         style="stop-color:#f6f5f4;stop-opacity:1" />
    </linearGradient>
    <radialGradient
       r="32"
       fy="-76"
       fx="-244"
       cy="-76"
       cx="-244"
       gradientTransform="matrix(0.88333331,0,0,0.88333331,-460.35018,463.11973)"
       gradientUnits="userSpaceOnUse"
       id="radialGradient1103"
       xlink:href="#linearGradient1069" />
    <linearGradient
       id="linearGradient1069">
      <stop
         id="stop1065"
         offset="0"
         style="stop-color:#d5d3cf;stop-opacity:1" />
      <stop
         id="stop1067-1"
         offset="1"
         style="stop-color:#949390;stop-opacity:1" />
    </linearGradient>
    <linearGradient
       gradientUnits="userSpaceOnUse"
       y2="232"
       x2="64"
       y1="262.5"
       x1="64"
       id="linearGradient1027"
       xlink:href="#linearGradient1025"
       gradientTransform="translate(-470.5864,432.81685)" />
    <linearGradient
       id="linearGradient1025">
      <stop
         id="stop1021"
         offset="0"
         style="stop-color:#9a9996;stop-opacity:1" />
      <stop
         id="stop1023"
         offset="1"
         style="stop-color:#77767b;stop-opacity:1" />
    </linearGradient>
    <inkscape:path-effect
       effect="spiro"
       id="path-effect35304-9"
       is_visible="true" />
    <clipPath
       clipPathUnits="userSpaceOnUse"
       id="clipPath1609-7">
      <path
         sodipodi:nodetypes="cccccc"
         inkscape:connector-curvature="0"
         id="path1611-5"
         d="m 252,116 28,-28 v -8 h -36 v 36 z"
         style="fill:#e74747;stroke:none;stroke-width:0.25px;stroke-linecap:butt;stroke-linejoin:miter;stroke-opacity:1" />
    </clipPath>
    <linearGradient
       inkscape:collect="always"
       id="linearGradient8241">
      <stop
         style="stop-color:#1565c0;stop-opacity:1"
         offset="0"
         id="stop8237" />
      <stop
         style="stop-color:#448aff;stop-opacity:1"
         offset="0.0001"
         id="stop3157" />
      <stop
         style="stop-color:#1565c0;stop-opacity:1"
         offset="0.09"
         id="stop21746" />
      <stop
         style="stop-color:#1565c0;stop-opacity:1"
         offset="0.89999998"
         id="stop21940" />
      <stop
         style="stop-color:#42a5f5;stop-opacity:1"
         offset="0.94999999"
         id="stop9351" />
      <stop
         style="stop-color:#1565c0;stop-opacity:1"
         offset="1"
         id="stop8239" />
    </linearGradient>
    <radialGradient
       r="32"
       fy="-76"
       fx="-244"
       cy="-76"
       cx="-244"
       gradientTransform="matrix(0.88333331,0,0,0.88333331,-460.35018,463.11973)"
       gradientUnits="userSpaceOnUse"
       id="radialGradient1103-5"
       xlink:href="#linearGradient1069" />
    <inkscape:path-effect
       effect="spiro"
       id="path-effect35304-9-2"
       is_visible="true" />
    <clipPath
       clipPathUnits="userSpaceOnUse"
       id="clipPath1609-7-7">
      <path
         sodipodi:nodetypes="cccccc"
         inkscape:connector-curvature="0"
         id="path1611-5-0"
         d="m 252,116 28,-28 v -8 h -36 v 36 z"
         style="fill:#e74747;stroke:none;stroke-width:0.25px;stroke-linecap:butt;stroke-linejoin:miter;stroke-opacity:1" />
    </clipPath>
    <clipPath
       clipPathUnits="userSpaceOnUse"
       id="clipPath744">
      <rect
         style="fill:#1e88e5;fill-opacity:1;stroke-width:0.264583"
         id="rect746"
         width="541.86664"
         height="541.86664"
         x="0"
         y="1.5987212e-14"
         rx="79.375"
         ry="79.375" />
    </clipPath>
    <clipPath
       clipPathUnits="userSpaceOnUse"
       id="clipPath62">
      <rect
         style="fill:#1e88e5;fill-opacity:1;stroke-width:0.264583"
         id="rect64"
         width="541.86664"
         height="541.86664"
         x="2.2507105e-05"
         y="-0.42205024"
         rx="79.375"
         ry="79.375" />
    </clipPath>
    <linearGradient
       inkscape:collect="always"
       xlink:href="#linearGradient8241"
       id="linearGradient8243"
       x1="11.5"
       y1="120.5"
       x2="116.5"
       y2="120.5"
       gradientUnits="userSpaceOnUse"
       gradientTransform="matrix(0.82688879,0,0,1,11.079114,1)" />
    <radialGradient
       r="32"
       fy="-76"
       fx="-244"
       cy="-76"
       cx="-244"
       gradientTransform="matrix(0.88333331,0,0,0.88333331,-460.35018,463.11973)"
       gradientUnits="userSpaceOnUse"
       id="radialGradient1103-6"
       xlink:href="#linearGradient1069" />
    <inkscape:path-effect
       effect="spiro"
       id="path-effect35304-9-20"
       is_visible="true" />
    <clipPath
       clipPathUnits="userSpaceOnUse"
       id="clipPath1609-7-2">
      <path
         sodipodi:nodetypes="cccccc"
         inkscape:connector-curvature="0"
         id="path1611-5-3"
         d="m 252,116 28,-28 v -8 h -36 v 36 z"
         style="fill:#e74747;stroke:none;stroke-width:0.25px;stroke-linecap:butt;stroke-linejoin:miter;stroke-opacity:1" />
    </clipPath>
    <clipPath
       clipPathUnits="userSpaceOnUse"
       id="clipPath966">
      <rect
         style="fill:#999999;fill-opacity:1;stroke-width:0.264583"
         id="rect968"
         width="541.86664"
         height="541.86664"
         x="0"
         y="-2.8421709e-14"
         rx="79.375"
         ry="79.375" />
    </clipPath>
    <clipPath
       clipPathUnits="userSpaceOnUse"
       id="clipPath402">
      <rect
         style="fill:#999999;fill-opacity:1;stroke-width:0.264583"
         id="rect404"
         width="541.86664"
         height="541.86664"
         x="1.5908203e-05"
         y="1.5908203e-05"
         rx="79.375"
         ry="79.375" />
    </clipPath>
    <clipPath
       clipPathUnits="userSpaceOnUse"
       id="clipPath2739">
      <rect
         style="fill:#999999;fill-opacity:1;stroke-width:0.264583"
         id="rect2741"
         width="541.86664"
         height="541.86664"
         x="-7.8515623e-06"
         y="1.8626168"
         rx="79.375"
         ry="79.375" />
    </clipPath>
    <linearGradient
       inkscape:collect="always"
       xlink:href="#linearGradient1009"
       id="linearGradient883"
       gradientUnits="userSpaceOnUse"
       gradientTransform="matrix(0.82688879,0,0,1.0071317,11.079114,0.140626)"
       x1="11.5"
       y1="120.5"
       x2="116.5"
       y2="120.5" />
    <linearGradient
       inkscape:collect="always"
       xlink:href="#linearGradient1009"
       id="linearGradient1723"
       gradientUnits="userSpaceOnUse"
       gradientTransform="matrix(0.82688879,0,0,1.0071317,11.079114,-10.400878)"
       x1="11.5"
       y1="120.5"
       x2="116.5"
       y2="120.5" />
    <linearGradient
       inkscape:collect="always"
       xlink:href="#linearGradient1009"
       id="linearGradient1727"
       gradientUnits="userSpaceOnUse"
       gradientTransform="matrix(0.82688879,0,0,1.0071317,11.079114,-6.400878)"
       x1="11.5"
       y1="120.5"
       x2="116.5"
       y2="120.5" />
    <clipPath
       clipPathUnits="userSpaceOnUse"
       id="clipPath5331">
      <g
         aria-label="@"
         id="g5335"
         style="font-size:55.6805px;line-height:1.25;display:block;fill:#75a8ff;fill-opacity:1;stroke-width:1.39201"
         transform="translate(0,2)">
        <path
           d="m 56.985383,60.163136 q 0,3.887848 1.93033,6.117243 1.93033,2.202207 5.30161,2.202207 3.344093,0 5.247235,-2.229395 1.930329,-2.229395 1.930329,-6.090055 0,-3.806284 -1.957517,-6.035679 -1.957518,-2.256583 -5.274423,-2.256583 -3.289717,0 -5.247234,2.229395 -1.93033,2.229395 -1.93033,6.062867 z m 14.817321,8.129136 q -1.631265,2.093456 -3.751909,3.099402 -2.093456,0.978759 -4.893794,0.978759 -4.676292,0 -7.612568,-3.37128 -2.909089,-3.398468 -2.909089,-8.836017 0,-5.437549 2.936276,-8.836017 2.936277,-3.398468 7.585381,-3.398468 2.800338,0 4.920982,1.033135 2.120644,1.005946 3.724721,3.072215 v -3.561595 h 3.887847 v 20.01018 q 3.969411,-0.598131 6.198806,-3.61597 2.256582,-3.045028 2.256582,-7.857258 0,-2.909089 -0.870007,-5.464737 -0.84282,-2.555648 -2.582836,-4.730667 -2.827525,-3.561595 -6.905687,-5.437549 -4.050974,-1.903142 -8.836017,-1.903142 -3.344092,0 -6.416308,0.897195 -3.072215,0.870008 -5.682238,2.610024 -4.268476,2.77315 -6.688185,7.286315 -2.392522,4.485978 -2.392522,9.733213 0,4.322851 1.549702,8.101947 1.576889,3.779097 4.540353,6.660998 2.854713,2.827525 6.606622,4.295663 3.751909,1.495326 8.020384,1.495326 3.507219,0 6.8785,-1.196261 3.398468,-1.169073 6.225993,-3.37128 l 2.446897,3.01784 q -3.398468,2.637211 -7.422254,4.023786 -3.996598,1.413763 -8.129136,1.413763 -5.029732,0 -9.488522,-1.794391 -4.45879,-1.767204 -7.938822,-5.165672 -3.480031,-3.398468 -5.30161,-7.857258 -1.821579,-4.485978 -1.821579,-9.624461 0,-4.94817 1.848767,-9.434148 1.848767,-4.485977 5.274422,-7.884445 3.507219,-3.452844 8.101948,-5.274423 4.594729,-1.848766 9.733213,-1.848766 5.763801,0 10.684783,2.365333 4.948169,2.365334 8.292262,6.715373 2.039081,2.664399 3.099403,5.79099 1.08751,3.12659 1.08751,6.470683 0,7.150377 -4.322852,11.282914 -4.322851,4.132537 -11.935419,4.295663 z"
           id="path5333"
           style="fill:#75a8ff;fill-opacity:1" />
      </g>
    </clipPath>
    <mask
       maskUnits="userSpaceOnUse"
       id="mask2399">
      <g
         aria-label="@"
         id="g2403"
         style="font-size:55.6805px;line-height:1.25;fill:#75a8ff;fill-opacity:1;stroke-width:1.39201"
         transform="translate(0,2)">
        <path
           d="m 56.985383,60.163136 q 0,3.887848 1.93033,6.117243 1.93033,2.202207 5.30161,2.202207 3.344093,0 5.247235,-2.229395 1.930329,-2.229395 1.930329,-6.090055 0,-3.806284 -1.957517,-6.035679 -1.957518,-2.256583 -5.274423,-2.256583 -3.289717,0 -5.247234,2.229395 -1.93033,2.229395 -1.93033,6.062867 z m 14.817321,8.129136 q -1.631265,2.093456 -3.751909,3.099402 -2.093456,0.978759 -4.893794,0.978759 -4.676292,0 -7.612568,-3.37128 -2.909089,-3.398468 -2.909089,-8.836017 0,-5.437549 2.936276,-8.836017 2.936277,-3.398468 7.585381,-3.398468 2.800338,0 4.920982,1.033135 2.120644,1.005946 3.724721,3.072215 v -3.561595 h 3.887847 v 20.01018 q 3.969411,-0.598131 6.198806,-3.61597 2.256582,-3.045028 2.256582,-7.857258 0,-2.909089 -0.870007,-5.464737 -0.84282,-2.555648 -2.582836,-4.730667 -2.827525,-3.561595 -6.905687,-5.437549 -4.050974,-1.903142 -8.836017,-1.903142 -3.344092,0 -6.416308,0.897195 -3.072215,0.870008 -5.682238,2.610024 -4.268476,2.77315 -6.688185,7.286315 -2.392522,4.485978 -2.392522,9.733213 0,4.322851 1.549702,8.101947 1.576889,3.779097 4.540353,6.660998 2.854713,2.827525 6.606622,4.295663 3.751909,1.495326 8.020384,1.495326 3.507219,0 6.8785,-1.196261 3.398468,-1.169073 6.225993,-3.37128 l 2.446897,3.01784 q -3.398468,2.637211 -7.422254,4.023786 -3.996598,1.413763 -8.129136,1.413763 -5.029732,0 -9.488522,-1.794391 -4.45879,-1.767204 -7.938822,-5.165672 -3.480031,-3.398468 -5.30161,-7.857258 -1.821579,-4.485978 -1.821579,-9.624461 0,-4.94817 1.848767,-9.434148 1.848767,-4.485977 5.274422,-7.884445 3.507219,-3.452844 8.101948,-5.274423 4.594729,-1.848766 9.733213,-1.848766 5.763801,0 10.684783,2.365333 4.948169,2.365334 8.292262,6.715373 2.039081,2.664399 3.099403,5.79099 1.08751,3.12659 1.08751,6.470683 0,7.150377 -4.322852,11.282914 -4.322851,4.132537 -11.935419,4.295663 z"
           id="path2401"
           style="fill:#75a8ff;fill-opacity:1" />
      </g>
      <path
         id="mask-powermask-path-effect2405_box"
         style="fill:#ffffff;fill-opacity:1"
         d="M 38.938667,34.558228 H 89.060975 V 85.441792 H 38.938667 Z" />
    </mask>
    <filter
       id="mask-powermask-path-effect2405_inverse"
       inkscape:label="filtermask-powermask-path-effect2405"
       style="color-interpolation-filters:sRGB"
       height="100"
       width="100"
       x="-50"
       y="-50">
      <feColorMatrix
         id="mask-powermask-path-effect2405_primitive1"
         values="1"
         type="saturate"
         result="fbSourceGraphic" />
      <feColorMatrix
         id="mask-powermask-path-effect2405_primitive2"
         values="-1 0 0 0 1 0 -1 0 0 1 0 0 -1 0 1 0 0 0 1 0 "
         in="fbSourceGraphic" />
    </filter>
  </defs>
  <g
     inkscape:groupmode="layer"
     id="layer2"
     inkscape:label="Layer 1">
    <rect
       style="fill:url(#linearGradient883);fill-opacity:1;stroke-width:0.912571"
       id="rect881"
       width="86.823326"
       height="105.74883"
       x="20.588337"
       y="15.751167"
       rx="8"
       ry="8.0570536" />
    <rect
       style="fill:#e6e6e6;fill-opacity:1;stroke-width:0.881099"
       id="rect1729"
       width="86.823326"
       height="98.580765"
       x="20.588337"
       y="18.377728"
       rx="8"
       ry="7.5109153" />
    <rect
       style="fill:#cccccc;fill-opacity:1;stroke-width:0.881099"
       id="rect1715"
       width="86.823326"
       height="98.580765"
       x="20.588337"
       y="14.377728"
       rx="8"
       ry="7.5109153" />
    <rect
       style="fill:url(#linearGradient1727);fill-opacity:1;stroke-width:0.912571"
       id="rect1725"
       width="86.823326"
       height="105.74883"
       x="20.588337"
       y="9.2096634"
       rx="8"
       ry="8.0570536" />
    <rect
       style="fill:#e6e6e6;fill-opacity:1;stroke-width:0.881099"
       id="rect1717"
       width="86.823326"
       height="98.580765"
       x="20.588337"
       y="14.377728"
       rx="8"
       ry="7.5109153" />
    <path
       id="rect1721"
       style="fill:url(#linearGradient1723);fill-opacity:1;stroke-width:0.912571"
       d="m 20.587891,95.570312 v 7.332028 c 0,4.46361 3.568004,8.05664 8,8.05664 h 70.824218 c 4.431991,0 8.000001,-3.59303 8.000001,-8.05664 v -7.332028 c 0,4.161048 -3.56801,7.509768 -8.000001,7.509768 H 28.587891 c -4.431996,0 -8,-3.34872 -8,-7.509768 z" />
    <path
       id="rect745"
       style="fill:#e6e6e6;fill-opacity:1;stroke-width:0.881099"
       d="m 20.587891,95.570312 v 5.876958 c 0,4.16104 3.568004,7.51171 8,7.51171 h 70.824218 c 4.431991,0 8.000001,-3.35067 8.000001,-7.51171 v -5.876958 c 0,4.161048 -3.56801,7.509768 -8.000001,7.509768 H 28.587891 c -4.431996,0 -8,-3.34872 -8,-7.509768 z" />
    <rect
       style="fill:#448aff;fill-opacity:1;stroke-width:0.881099"
       id="rect358"
       width="86.822998"
       height="98.580765"
       x="20.588337"
       y="8.5"
       rx="8"
       ry="7.5109153" />
    <path
       id="rect440"
       style="fill:url(#linearGradient8243);fill-opacity:1;stroke-width:0.909334"
       d="m 28.587891,8.3769531 c -4.431984,0 -8,3.3506879 -8,7.5117189 V 99.447266 111.44336 113.5 c 0,0.25507 0.01386,0.50716 0.03711,0.75586 0.003,0.0325 0.0064,0.0652 0.0098,0.0977 0.02482,0.23462 0.05891,0.46543 0.103515,0.69336 0.0075,0.0384 0.01541,0.077 0.02344,0.11523 0.04512,0.21377 0.100309,0.4239 0.162109,0.63086 0.01728,0.0582 0.03418,0.11617 0.05273,0.17383 0.06075,0.1876 0.127222,0.37158 0.201172,0.55273 0.03156,0.0777 0.0657,0.15398 0.09961,0.23047 0.07181,0.16112 0.14657,0.32134 0.228515,0.47656 0.0495,0.0942 0.103154,0.18539 0.15625,0.27735 0.05135,0.0885 0.105547,0.17545 0.160157,0.26171 0.0913,0.14492 0.186953,0.28545 0.287109,0.42383 0.04003,0.0551 0.0797,0.11003 0.121094,0.16407 0.14137,0.18518 0.290546,0.36328 0.447265,0.53515 0.014,0.0153 0.0269,0.0317 0.04102,0.0469 0.183416,0.19803 0.377552,0.3859 0.580078,0.56445 1.408752,1.24197 3.254752,2 5.289063,2 h 70.824218 c 4.431994,0 8.000004,-3.568 8.000004,-8 v -2.05664 c 0,4.46356 -3.56801,8.05664 -8.000004,8.05664 H 28.806641 c -2.256492,0 -2.785157,-0.875 -2.785157,-0.875 -0.105769,-0.21134 -0.179687,-0.44022 -0.179687,-0.69336 v -9.4043 c 0,-0.86846 0.699896,-1.56836 1.568359,-1.56836 h 1.177735 70.824218 c 4.431991,0 8.000001,-3.35067 8.000001,-7.511714 V 15.888672 c 0,-4.161031 -3.56801,-7.5117189 -8.000001,-7.5117189 z" />
    <rect
       style="fill:#448aff;fill-opacity:1;stroke-width:0.881099"
       id="rect2958"
       width="86.822998"
       height="98.580765"
       x="20.588337"
       y="6.5"
       rx="8"
       ry="7.5109153" />
    <g
       aria-label="@"
       id="text6566"
       style="font-size:55.6805px;line-height:1.25;fill:#89b5ff;fill-opacity:1;stroke-width:1.39201"
       transform="translate(3.772318,-1)">
      <path
         d="m 56.985383,60.163136 q 0,3.887848 1.93033,6.117243 1.93033,2.202207 5.30161,2.202207 3.344093,0 5.247235,-2.229395 1.930329,-2.229395 1.930329,-6.090055 0,-3.806284 -1.957517,-6.035679 -1.957518,-2.256583 -5.274423,-2.256583 -3.289717,0 -5.247234,2.229395 -1.93033,2.229395 -1.93033,6.062867 z m 14.817321,8.129136 q -1.631265,2.093456 -3.751909,3.099402 -2.093456,0.978759 -4.893794,0.978759 -4.676292,0 -7.612568,-3.37128 -2.909089,-3.398468 -2.909089,-8.836017 0,-5.437549 2.936276,-8.836017 2.936277,-3.398468 7.585381,-3.398468 2.800338,0 4.920982,1.033135 2.120644,1.005946 3.724721,3.072215 v -3.561595 h 3.887847 v 20.01018 q 3.969411,-0.598131 6.198806,-3.61597 2.256582,-3.045028 2.256582,-7.857258 0,-2.909089 -0.870007,-5.464737 -0.84282,-2.555648 -2.582836,-4.730667 -2.827525,-3.561595 -6.905687,-5.437549 -4.050974,-1.903142 -8.836017,-1.903142 -3.344092,0 -6.416308,0.897195 -3.072215,0.870008 -5.682238,2.610024 -4.268476,2.77315 -6.688185,7.286315 -2.392522,4.485978 -2.392522,9.733213 0,4.322851 1.549702,8.101947 1.576889,3.779097 4.540353,6.660998 2.854713,2.827525 6.606622,4.295663 3.751909,1.495326 8.020384,1.495326 3.507219,0 6.8785,-1.196261 3.398468,-1.169073 6.225993,-3.37128 l 2.446897,3.01784 q -3.398468,2.637211 -7.422254,4.023786 -3.996598,1.413763 -8.129136,1.413763 -5.029732,0 -9.488522,-1.794391 -4.45879,-1.767204 -7.938822,-5.165672 -3.480031,-3.398468 -5.30161,-7.857258 -1.821579,-4.485978 -1.821579,-9.624461 0,-4.94817 1.848767,-9.434148 1.848767,-4.485977 5.274422,-7.884445 3.507219,-3.452844 8.101948,-5.274423 4.594729,-1.848766 9.733213,-1.848766 5.763801,0 10.684783,2.365333 4.948169,2.365334 8.292262,6.715373 2.039081,2.664399 3.099403,5.79099 1.08751,3.12659 1.08751,6.470683 0,7.150377 -4.322852,11.282914 -4.322851,4.132537 -11.935419,4.295663 z"
         id="path5321"
         style="fill:#89b5ff;fill-opacity:1" />
    </g>
    <rect
       style="fill:#327ce7;fill-opacity:1;stroke-width:10.5861;stroke-linecap:square;stroke-linejoin:round;paint-order:markers stroke fill"
       id="rect4246"
       width="3.5800667"
       height="98.580765"
       x="29.112303"
       y="6.5"
       rx="0"
       ry="0" />
  </g>
</svg>
