<?xml version="1.0" encoding="UTF-8" standalone="no"?>
<!-- Created with Inkscape (http://www.inkscape.org/) -->

<svg
   width="128"
   height="128"
   viewBox="0 0 128 128"
   version="1.1"
   id="svg5"
   inkscape:version="1.2.2 (b0a8486541, 2022-12-01)"
   sodipodi:docname="org.onlyoffice.desktopeditors.svg"
   xml:space="preserve"
   xmlns:inkscape="http://www.inkscape.org/namespaces/inkscape"
   xmlns:sodipodi="http://sodipodi.sourceforge.net/DTD/sodipodi-0.dtd"
   xmlns:xlink="http://www.w3.org/1999/xlink"
   xmlns="http://www.w3.org/2000/svg"
   xmlns:svg="http://www.w3.org/2000/svg"><sodipodi:namedview
     id="namedview7"
     pagecolor="#ffffff"
     bordercolor="#666666"
     borderopacity="1"
     inkscape:pageshadow="2"
     inkscape:pageopacity="0.0"
     inkscape:pagecheckerboard="true"
     inkscape:document-units="px"
     showgrid="false"
     inkscape:showpageshadow="false"
     showborder="true"
     inkscape:snap-page="true"
     inkscape:zoom="1.4142136"
     inkscape:cx="14.849242"
     inkscape:cy="82.731493"
     inkscape:window-width="1366"
     inkscape:window-height="731"
     inkscape:window-x="0"
     inkscape:window-y="0"
     inkscape:window-maximized="1"
     inkscape:current-layer="layer2"
     inkscape:deskcolor="#d1d1d1" /><defs
     id="defs2"><linearGradient
       inkscape:collect="always"
       id="linearGradient404"><stop
         style="stop-color:#464f5b;stop-opacity:1;"
         offset="0"
         id="stop400" /><stop
         style="stop-color:#dbdee3;stop-opacity:1"
         offset="1"
         id="stop402" /></linearGradient><linearGradient
       y2="236"
       x2="96"
       y1="236"
       x1="32"
       gradientTransform="translate(604.81684,170.58641)"
       gradientUnits="userSpaceOnUse"
       id="linearGradient1099"
       xlink:href="#linearGradient1036" /><linearGradient
       id="linearGradient1036"><stop
         id="stop1032"
         offset="0"
         style="stop-color:#d5d3cf;stop-opacity:1;" /><stop
         id="stop1034"
         offset="1"
         style="stop-color:#f6f5f4;stop-opacity:1" /></linearGradient><radialGradient
       r="32"
       fy="-76"
       fx="-244"
       cy="-76"
       cx="-244"
       gradientTransform="matrix(0.88333331,0,0,0.88333331,-460.35018,463.11973)"
       gradientUnits="userSpaceOnUse"
       id="radialGradient1103"
       xlink:href="#linearGradient1069" /><linearGradient
       id="linearGradient1069"><stop
         id="stop1065"
         offset="0"
         style="stop-color:#d5d3cf;stop-opacity:1" /><stop
         id="stop1067-1"
         offset="1"
         style="stop-color:#949390;stop-opacity:1" /></linearGradient><linearGradient
       gradientUnits="userSpaceOnUse"
       y2="232"
       x2="64"
       y1="262.5"
       x1="64"
       id="linearGradient1027"
       xlink:href="#linearGradient1025"
       gradientTransform="translate(-470.5864,432.81685)" /><linearGradient
       id="linearGradient1025"><stop
         id="stop1021"
         offset="0"
         style="stop-color:#9a9996;stop-opacity:1" /><stop
         id="stop1023"
         offset="1"
         style="stop-color:#77767b;stop-opacity:1" /></linearGradient><inkscape:path-effect
       effect="spiro"
       id="path-effect35304-9"
       is_visible="true" /><clipPath
       clipPathUnits="userSpaceOnUse"
       id="clipPath1609-7"><path
         sodipodi:nodetypes="cccccc"
         inkscape:connector-curvature="0"
         id="path1611-5"
         d="m 252,116 28,-28 v -8 h -36 v 36 z"
         style="fill:#e74747;stroke:none;stroke-width:0.25px;stroke-linecap:butt;stroke-linejoin:miter;stroke-opacity:1" /></clipPath><linearGradient
       inkscape:collect="always"
       id="linearGradient8241"><stop
         style="stop-color:#141617;stop-opacity:1;"
         offset="0"
         id="stop8237" /><stop
         style="stop-color:#282d36;stop-opacity:1;"
         offset="0.05"
         id="stop9349" /><stop
         style="stop-color:#141617;stop-opacity:1;"
         offset="0.1"
         id="stop21746" /><stop
         style="stop-color:#141617;stop-opacity:1;"
         offset="0.89999998"
         id="stop21940" /><stop
         style="stop-color:#282d36;stop-opacity:1;"
         offset="0.94999999"
         id="stop9351" /><stop
         style="stop-color:#141617;stop-opacity:1;"
         offset="1"
         id="stop8239" /></linearGradient><radialGradient
       r="32"
       fy="-76"
       fx="-244"
       cy="-76"
       cx="-244"
       gradientTransform="matrix(0.88333331,0,0,0.88333331,-460.35018,463.11973)"
       gradientUnits="userSpaceOnUse"
       id="radialGradient1103-5"
       xlink:href="#linearGradient1069" /><inkscape:path-effect
       effect="spiro"
       id="path-effect35304-9-2"
       is_visible="true" /><clipPath
       clipPathUnits="userSpaceOnUse"
       id="clipPath1609-7-7"><path
         sodipodi:nodetypes="cccccc"
         inkscape:connector-curvature="0"
         id="path1611-5-0"
         d="m 252,116 28,-28 v -8 h -36 v 36 z"
         style="fill:#e74747;stroke:none;stroke-width:0.25px;stroke-linecap:butt;stroke-linejoin:miter;stroke-opacity:1" /></clipPath><clipPath
       clipPathUnits="userSpaceOnUse"
       id="clipPath744"><rect
         style="fill:#1e88e5;fill-opacity:1;stroke-width:0.264583"
         id="rect746"
         width="541.86664"
         height="541.86664"
         x="0"
         y="1.5987212e-14"
         rx="79.375"
         ry="79.375" /></clipPath><clipPath
       clipPathUnits="userSpaceOnUse"
       id="clipPath62"><rect
         style="fill:#1e88e5;fill-opacity:1;stroke-width:0.264583"
         id="rect64"
         width="541.86664"
         height="541.86664"
         x="2.2507105e-05"
         y="-0.42205024"
         rx="79.375"
         ry="79.375" /></clipPath><linearGradient
       inkscape:collect="always"
       xlink:href="#linearGradient8241"
       id="linearGradient8243"
       x1="11.5"
       y1="120.5"
       x2="116.5"
       y2="120.5"
       gradientUnits="userSpaceOnUse" /><radialGradient
       r="32"
       fy="-76"
       fx="-244"
       cy="-76"
       cx="-244"
       gradientTransform="matrix(0.88333331,0,0,0.88333331,-460.35018,463.11973)"
       gradientUnits="userSpaceOnUse"
       id="radialGradient1103-6"
       xlink:href="#linearGradient1069" /><inkscape:path-effect
       effect="spiro"
       id="path-effect35304-9-20"
       is_visible="true" /><clipPath
       clipPathUnits="userSpaceOnUse"
       id="clipPath1609-7-2"><path
         sodipodi:nodetypes="cccccc"
         inkscape:connector-curvature="0"
         id="path1611-5-3"
         d="m 252,116 28,-28 v -8 h -36 v 36 z"
         style="fill:#e74747;stroke:none;stroke-width:0.25px;stroke-linecap:butt;stroke-linejoin:miter;stroke-opacity:1" /></clipPath><radialGradient
       r="32"
       fy="-76"
       fx="-244"
       cy="-76"
       cx="-244"
       gradientTransform="matrix(0.88333331,0,0,0.88333331,-460.35018,463.11973)"
       gradientUnits="userSpaceOnUse"
       id="radialGradient1103-56"
       xlink:href="#linearGradient1069" /><inkscape:path-effect
       effect="spiro"
       id="path-effect35304-9-7"
       is_visible="true" /><clipPath
       clipPathUnits="userSpaceOnUse"
       id="clipPath1609-7-0"><path
         sodipodi:nodetypes="cccccc"
         inkscape:connector-curvature="0"
         id="path1611-5-9"
         d="m 252,116 28,-28 v -8 h -36 v 36 z"
         style="fill:#e74747;stroke:none;stroke-width:0.25px;stroke-linecap:butt;stroke-linejoin:miter;stroke-opacity:1" /></clipPath><clipPath
       clipPathUnits="userSpaceOnUse"
       id="clipPath37"><rect
         style="fill:#1a1a1a;fill-opacity:1;stroke-width:0.264583"
         id="rect39"
         width="541.86664"
         height="541.86664"
         x="-2.6626146e-06"
         y="3.2408705"
         rx="79.375"
         ry="79.375" /></clipPath><clipPath
       clipPathUnits="userSpaceOnUse"
       id="clipPath22042"><rect
         style="fill:#333333;fill-opacity:1;stroke-width:0.0133797"
         id="rect22044"
         width="27.31955"
         height="27.483929"
         x="166.96844"
         y="105.40438"
         rx="4.0018873"
         ry="4.0259666" /></clipPath><clipPath
       clipPathUnits="userSpaceOnUse"
       id="clipPath1039"><rect
         style="fill:#b3b3b3;fill-opacity:1;stroke-width:0.264583"
         id="rect1041"
         width="541.8667"
         height="541.86682"
         x="2.5931527e-05"
         y="-0.00010962487"
         rx="79.375008"
         ry="79.375031" /></clipPath><clipPath
       clipPathUnits="userSpaceOnUse"
       id="clipPath154"><rect
         style="fill:#b3b3b3;fill-opacity:1;stroke-width:0.264583"
         id="rect156"
         width="541.8667"
         height="541.86682"
         x="-2.9218751e-05"
         y="-0.00016368683"
         rx="79.375008"
         ry="79.375031" /></clipPath><linearGradient
       inkscape:collect="always"
       xlink:href="#linearGradient404"
       id="linearGradient406"
       x1="64"
       y1="112.5"
       x2="64"
       y2="7.5"
       gradientUnits="userSpaceOnUse" /><linearGradient
       id="paint0_linear"
       x1="35.9743"
       y1="78.6594"
       x2="35.9743"
       y2="29.0302"
       gradientUnits="userSpaceOnUse"
       gradientTransform="matrix(1.0906882,0,0,1.0906882,24.735348,21.885524)"><stop
         stop-color="#FCC2B1"
         id="stop189" /><stop
         offset="0.8848"
         stop-color="#D9420B"
         id="stop191" /></linearGradient><linearGradient
       id="paint1_linear"
       x1="35.9743"
       y1="57.1713"
       x2="35.9743"
       y2="24.5316"
       gradientUnits="userSpaceOnUse"
       gradientTransform="matrix(1.0906882,0,0,1.0906882,24.735348,21.885524)"><stop
         stop-color="#DEEDC9"
         id="stop194" /><stop
         offset="0.6606"
         stop-color="#8BBA25"
         id="stop196" /></linearGradient><linearGradient
       id="paint2_linear"
       x1="35.9743"
       y1="43.9547"
       x2="35.9743"
       y2="-0.460862"
       gradientUnits="userSpaceOnUse"
       gradientTransform="matrix(1.0906882,0,0,1.0906882,24.735348,21.885524)"><stop
         stop-color="#C2EBFA"
         id="stop199" /><stop
         offset="1"
         stop-color="#26A8DE"
         id="stop201" /></linearGradient><filter
       style="color-interpolation-filters:sRGB;"
       inkscape:label="Drop Shadow"
       id="filter1510"
       x="-0.026438117"
       y="-0.023338048"
       width="1.0528762"
       height="1.0831418"><feFlood
         flood-opacity="0.301961"
         flood-color="rgb(0,0,0)"
         result="flood"
         id="feFlood1500" /><feComposite
         in="flood"
         in2="SourceGraphic"
         operator="in"
         result="composite1"
         id="feComposite1502" /><feGaussianBlur
         in="composite1"
         stdDeviation="0.8"
         result="blur"
         id="feGaussianBlur1504" /><feOffset
         dx="0"
         dy="3"
         result="offset"
         id="feOffset1506" /><feComposite
         in="SourceGraphic"
         in2="offset"
         operator="over"
         result="composite2"
         id="feComposite1508" /></filter></defs><g
     inkscape:groupmode="layer"
     id="layer2"
     inkscape:label="Layer 1"><rect
       style="fill:url(#linearGradient8243);fill-opacity:1"
       id="rect440"
       width="105"
       height="105"
       x="11.5"
       y="15.5"
       rx="13"
       ry="13" /><rect
       style="fill:url(#linearGradient406);fill-opacity:1"
       id="rect358"
       width="105"
       height="105"
       x="11.5"
       y="7.5"
       rx="13"
       ry="13" /><rect
       style="fill:#373e48;fill-opacity:1;stroke-width:0.959575"
       id="rect338"
       width="100.75533"
       height="100.75533"
       x="13.622333"
       y="9.6223326"
       rx="12"
       ry="12" /><g
       id="g1402"
       style="filter:url(#filter1510)"><path
         id="path353"
         style="fill:#4b879f;fill-opacity:1;stroke-width:1.00865"
         d="M 64.041016 25.6875 C 62.395547 25.6875 60.736999 25.987429 59.464844 26.585938 L 32.833984 38.810547 L 32.640625 37.728516 L 27.689453 38.324219 L 27.689453 42.324219 C 27.689453 43.072357 28.325523 43.83311 29.597656 44.431641 L 59.464844 58.142578 C 61.898506 59.230806 65.990946 59.230806 68.535156 58.142578 L 98.402344 44.431641 C 99.717858 43.868981 100.34757 43.102508 100.30273 42.328125 L 100.31055 42.324219 L 100.31055 38.324219 L 95.359375 37.728516 L 95.166016 38.810547 L 68.535156 26.585938 C 67.318324 25.987429 65.686484 25.6875 64.041016 25.6875 z " /><path
         id="path357"
         style="fill:#a65a40;fill-opacity:1;stroke-width:1.00865"
         d="M 39.996094 80.505859 L 32.931641 83.759766 L 27.689453 83.451172 L 27.689453 87.322266 L 27.689453 87.402344 L 27.697266 87.404297 C 27.742212 88.125729 28.37218 88.853109 29.597656 89.429688 L 59.464844 103.14062 C 61.898506 104.22875 65.991438 104.22875 68.314453 103.14062 L 98.181641 89.429688 C 99.453746 88.885573 100.08984 88.150482 100.08984 87.402344 L 100.08984 83.451172 L 94.847656 83.759766 L 87.783203 80.505859 L 68.425781 89.429688 C 65.992119 90.626648 61.897827 90.626648 59.353516 89.429688 L 39.996094 80.505859 z " /><path
         id="path355"
         style="fill:#6a862f;fill-opacity:1;stroke-width:1.00865"
         d="M 39.773438 57.898438 L 31.146484 61.865234 L 27.691406 60.703125 L 27.691406 64.585938 C 27.691212 64.599006 27.691212 64.611923 27.691406 64.625 L 27.691406 64.685547 L 27.697266 64.6875 C 27.742212 65.408931 28.37218 66.13636 29.597656 66.712891 L 59.464844 80.423828 C 61.898506 81.620789 65.990946 81.620789 68.535156 80.423828 L 98.402344 66.712891 C 99.6745 66.168827 100.31055 65.433685 100.31055 64.685547 L 100.31055 60.703125 L 96.853516 61.867188 L 88.226562 57.898438 L 68.535156 66.931641 C 66.101493 68.128601 62.009155 68.128601 59.464844 66.931641 L 39.773438 57.898438 z " /><path
         fill-rule="evenodd"
         clip-rule="evenodd"
         d="M 59.464528,99.141335 29.596994,85.430079 c -2.544269,-1.197063 -2.544269,-3.047024 0,-4.135154 l 10.398311,-4.788152 19.358574,8.923306 c 2.544314,1.196962 6.637306,1.196962 9.070971,0 l 19.358574,-8.923306 10.398352,4.788152 c 2.544214,1.196963 2.544214,3.046924 0,4.135154 L 68.314202,99.141335 c -2.323017,1.088125 -6.416009,1.088125 -8.849674,0 z"
         fill="url(#paint0_linear)"
         id="path183"
         style="fill:#e97e59;fill-opacity:1;stroke-width:1.00865" /><path
         fill-rule="evenodd"
         clip-rule="evenodd"
         d="M 59.464528,76.424559 29.596994,62.713202 c -2.544269,-1.196962 -2.544269,-3.046923 0,-4.135153 l 10.177115,-4.679218 19.690419,9.032038 c 2.544314,1.196962 6.637204,1.196962 9.07087,0 l 19.690519,-9.032038 10.177058,4.679218 c 2.544315,1.197063 2.544315,3.047024 0,4.135153 L 68.535398,76.424559 c -2.544213,1.196962 -6.637205,1.196962 -9.07087,0 z"
         fill="url(#paint1_linear)"
         id="path185"
         style="fill:#9bc445;fill-opacity:1;stroke-width:1.00865" /><path
         fill-rule="evenodd"
         clip-rule="evenodd"
         d="M 59.464528,54.143116 29.596994,40.43186 c -2.544269,-1.197063 -2.544269,-3.047024 0,-4.135154 L 59.464528,22.585391 c 2.544314,-1.197019 6.637204,-1.197019 9.07087,0 l 29.867577,13.711315 c 2.544315,1.196963 2.544315,3.046924 0,4.135154 L 68.535398,54.143116 c -2.544213,1.088229 -6.637205,1.088229 -9.07087,0 z"
         fill="url(#paint2_linear)"
         id="path187"
         style="fill:#6fc7eb;fill-opacity:1;stroke-width:1.00865" /></g></g></svg>
