<?xml version="1.0" encoding="UTF-8" standalone="no"?>
<!-- Created with Inkscape (http://www.inkscape.org/) -->

<svg
   width="128"
   height="128"
   viewBox="0 0 128 128"
   version="1.1"
   id="svg5"
   inkscape:version="1.1.2 (0a00cf5339, 2022-02-04)"
   sodipodi:docname="org.gnome.Settings.svg"
   xmlns:inkscape="http://www.inkscape.org/namespaces/inkscape"
   xmlns:sodipodi="http://sodipodi.sourceforge.net/DTD/sodipodi-0.dtd"
   xmlns:xlink="http://www.w3.org/1999/xlink"
   xmlns="http://www.w3.org/2000/svg"
   xmlns:svg="http://www.w3.org/2000/svg">
  <sodipodi:namedview
     id="namedview7"
     pagecolor="#ffffff"
     bordercolor="#666666"
     borderopacity="1"
     inkscape:pageshadow="2"
     inkscape:pageopacity="0.0"
     inkscape:pagecheckerboard="true"
     inkscape:document-units="px"
     showgrid="false"
     inkscape:showpageshadow="false"
     showborder="true"
     inkscape:snap-page="true"
     inkscape:zoom="2.7882865"
     inkscape:cx="6.4555776"
     inkscape:cy="80.336077"
     inkscape:window-width="1366"
     inkscape:window-height="731"
     inkscape:window-x="0"
     inkscape:window-y="0"
     inkscape:window-maximized="1"
     inkscape:current-layer="layer2" />
  <defs
     id="defs2">
    <linearGradient
       y2="236"
       x2="96"
       y1="236"
       x1="32"
       gradientTransform="translate(604.81684,170.58641)"
       gradientUnits="userSpaceOnUse"
       id="linearGradient1099"
       xlink:href="#linearGradient1036" />
    <linearGradient
       id="linearGradient1036">
      <stop
         id="stop1032"
         offset="0"
         style="stop-color:#d5d3cf;stop-opacity:1;" />
      <stop
         id="stop1034"
         offset="1"
         style="stop-color:#f6f5f4;stop-opacity:1" />
    </linearGradient>
    <radialGradient
       r="32"
       fy="-76"
       fx="-244"
       cy="-76"
       cx="-244"
       gradientTransform="matrix(0.88333331,0,0,0.88333331,-460.35018,463.11973)"
       gradientUnits="userSpaceOnUse"
       id="radialGradient1103"
       xlink:href="#linearGradient1069" />
    <linearGradient
       id="linearGradient1069">
      <stop
         id="stop1065"
         offset="0"
         style="stop-color:#d5d3cf;stop-opacity:1" />
      <stop
         id="stop1067-1"
         offset="1"
         style="stop-color:#949390;stop-opacity:1" />
    </linearGradient>
    <linearGradient
       gradientUnits="userSpaceOnUse"
       y2="232"
       x2="64"
       y1="262.5"
       x1="64"
       id="linearGradient1027"
       xlink:href="#linearGradient1025"
       gradientTransform="translate(-470.5864,432.81685)" />
    <linearGradient
       id="linearGradient1025">
      <stop
         id="stop1021"
         offset="0"
         style="stop-color:#9a9996;stop-opacity:1" />
      <stop
         id="stop1023"
         offset="1"
         style="stop-color:#77767b;stop-opacity:1" />
    </linearGradient>
    <inkscape:path-effect
       effect="spiro"
       id="path-effect35304-9"
       is_visible="true" />
    <clipPath
       clipPathUnits="userSpaceOnUse"
       id="clipPath1609-7">
      <path
         sodipodi:nodetypes="cccccc"
         inkscape:connector-curvature="0"
         id="path1611-5"
         d="m 252,116 28,-28 v -8 h -36 v 36 z"
         style="fill:#e74747;stroke:none;stroke-width:0.25px;stroke-linecap:butt;stroke-linejoin:miter;stroke-opacity:1" />
    </clipPath>
    <radialGradient
       r="32"
       fy="-76"
       fx="-244"
       cy="-76"
       cx="-244"
       gradientTransform="matrix(0.88333331,0,0,0.88333331,-460.35018,463.11973)"
       gradientUnits="userSpaceOnUse"
       id="radialGradient1103-5"
       xlink:href="#linearGradient1069" />
    <inkscape:path-effect
       effect="spiro"
       id="path-effect35304-9-2"
       is_visible="true" />
    <clipPath
       clipPathUnits="userSpaceOnUse"
       id="clipPath1609-7-7">
      <path
         sodipodi:nodetypes="cccccc"
         inkscape:connector-curvature="0"
         id="path1611-5-0"
         d="m 252,116 28,-28 v -8 h -36 v 36 z"
         style="fill:#e74747;stroke:none;stroke-width:0.25px;stroke-linecap:butt;stroke-linejoin:miter;stroke-opacity:1" />
    </clipPath>
    <clipPath
       clipPathUnits="userSpaceOnUse"
       id="clipPath744">
      <rect
         style="fill:#1e88e5;fill-opacity:1;stroke-width:0.264583"
         id="rect746"
         width="541.86664"
         height="541.86664"
         x="0"
         y="1.5987212e-14"
         rx="79.375"
         ry="79.375" />
    </clipPath>
    <clipPath
       clipPathUnits="userSpaceOnUse"
       id="clipPath62">
      <rect
         style="fill:#1e88e5;fill-opacity:1;stroke-width:0.264583"
         id="rect64"
         width="541.86664"
         height="541.86664"
         x="2.2507105e-05"
         y="-0.42205024"
         rx="79.375"
         ry="79.375" />
    </clipPath>
    <radialGradient
       r="32"
       fy="-76"
       fx="-244"
       cy="-76"
       cx="-244"
       gradientTransform="matrix(0.88333331,0,0,0.88333331,-460.35018,463.11973)"
       gradientUnits="userSpaceOnUse"
       id="radialGradient1103-6"
       xlink:href="#linearGradient1069" />
    <inkscape:path-effect
       effect="spiro"
       id="path-effect35304-9-20"
       is_visible="true" />
    <clipPath
       clipPathUnits="userSpaceOnUse"
       id="clipPath1609-7-2">
      <path
         sodipodi:nodetypes="cccccc"
         inkscape:connector-curvature="0"
         id="path1611-5-3"
         d="m 252,116 28,-28 v -8 h -36 v 36 z"
         style="fill:#e74747;stroke:none;stroke-width:0.25px;stroke-linecap:butt;stroke-linejoin:miter;stroke-opacity:1" />
    </clipPath>
    <radialGradient
       r="32"
       fy="-76"
       fx="-244"
       cy="-76"
       cx="-244"
       gradientTransform="matrix(0.88333331,0,0,0.88333331,-460.35018,463.11973)"
       gradientUnits="userSpaceOnUse"
       id="radialGradient1103-56"
       xlink:href="#linearGradient1069" />
    <inkscape:path-effect
       effect="spiro"
       id="path-effect35304-9-7"
       is_visible="true" />
    <clipPath
       clipPathUnits="userSpaceOnUse"
       id="clipPath1609-7-0">
      <path
         sodipodi:nodetypes="cccccc"
         inkscape:connector-curvature="0"
         id="path1611-5-9"
         d="m 252,116 28,-28 v -8 h -36 v 36 z"
         style="fill:#e74747;stroke:none;stroke-width:0.25px;stroke-linecap:butt;stroke-linejoin:miter;stroke-opacity:1" />
    </clipPath>
  </defs>
  <g
     inkscape:groupmode="layer"
     id="layer2"
     inkscape:label="Layer 1">
    <g
       id="layer2-3"
       inkscape:label="Layer 1"
       transform="matrix(0.93026326,0,0,0.93026326,4.4631499,3.5328867)">
      <path
         id="path16478"
         style="fill:#808080;fill-opacity:1"
         inkscape:transform-center-x="0.075064"
         inkscape:transform-center-y="-49.085264"
         d="m 109.22266,27.851562 -6.38086,11.445313 a 45,45 0 0 1 0.52539,1.056641 l -0.52539,0.943359 a 45,45 0 0 1 1.05273,2.113281 l 5.32813,-9.558594 v -2 -2 z m -90.550785,0.105469 v 2 2 2 l 5.404297,9.699219 A 45,45 0 0 1 25.125,41.537109 L 24.601562,40.595703 A 45,45 0 0 1 25.125,39.537109 Z M 64,36.636719 A 25.363274,25.363274 0 0 0 38.636719,62 a 25.363274,25.363274 0 0 0 0.09961,1 25.363274,25.363274 0 0 0 -0.09961,1 25.363274,25.363274 0 0 0 0.197265,2 25.363274,25.363274 0 0 1 0.1875,-0.998047 A 25.363274,25.363274 0 0 1 64,42.636719 25.363274,25.363274 0 0 1 89.277344,66 25.363274,25.363274 0 0 0 89.363281,64 25.363274,25.363274 0 0 0 89.324219,62.90625 25.363274,25.363274 0 0 0 89.363281,62 25.363274,25.363274 0 0 0 64,36.636719 Z m 41.86719,9.050781 a 45,45 0 0 1 1.60742,4.738281 45,45 0 0 0 -1.60742,-4.738281 z m -83.728518,0.195312 a 45,45 0 0 0 -1.587891,4.685547 45,45 0 0 1 1.587891,-4.685547 z M 105.86719,47.6875 a 45,45 0 0 1 1.60742,4.738281 45,45 0 0 0 -1.60742,-4.738281 z m -83.728518,0.195312 a 45,45 0 0 0 -1.587891,4.685547 45,45 0 0 1 1.587891,-4.685547 z m 16.695312,18.119141 a 25.363274,25.363274 0 0 0 0.97461,5.205078 25.363274,25.363274 0 0 1 -0.97461,-5.205078 z m 1.023438,3.365235 a 25.363274,25.363274 0 0 0 1.982422,4.71875 25.363274,25.363274 0 0 1 -1.982422,-4.71875 z m 80.265628,0.46289 -12.67383,3.601563 a 45,45 0 0 1 -4.57422,11.03125 l 0.52344,0.939453 a 45,45 0 0 1 -0.52344,1.060547 l 1.04883,1.880859 a 45,45 0 0 0 3.52539,-8.912109 l 12.67383,-3.601563 v -2 -2 z M 7.8769531,69.980469 v 2 2 2 l 12.7089849,3.611328 a 45,45 0 0 0 3.566406,8.912109 l 1.054687,-1.890625 a 45,45 0 0 1 -0.527343,-1.054687 l 0.527343,-0.945313 A 45,45 0 0 1 20.585938,73.591797 Z m 31.9804689,1.386719 a 25.363274,25.363274 0 0 0 1.982422,4.71875 25.363274,25.363274 0 0 1 -1.982422,-4.71875 z m 2.126953,2.992187 a 25.363274,25.363274 0 0 0 2.84375,4.066406 25.363274,25.363274 0 0 1 -2.84375,-4.066406 z m 0,2 a 25.363274,25.363274 0 0 0 2.84375,4.066406 25.363274,25.363274 0 0 1 -2.84375,-4.066406 z m 3.121094,2.402344 a 25.363274,25.363274 0 0 0 3.5625,3.308593 25.363274,25.363274 0 0 1 -3.5625,-3.308593 z m 0,2 a 25.363274,25.363274 0 0 0 3.5625,3.308593 25.363274,25.363274 0 0 1 -3.5625,-3.308593 z m 3.947265,1.623047 a 25.363274,25.363274 0 0 0 4.136719,2.457031 25.363274,25.363274 0 0 1 -4.136719,-2.457031 z m 0,2 a 25.363274,25.363274 0 0 0 4.136719,2.457031 25.363274,25.363274 0 0 1 -4.136719,-2.457031 z m 4.609375,0.710937 a 25.363274,25.363274 0 0 0 4.572266,1.53125 25.363274,25.363274 0 0 1 -4.572266,-1.53125 z m 0,2 a 25.363274,25.363274 0 0 0 4.572266,1.53125 25.363274,25.363274 0 0 1 -4.572266,-1.53125 z m 55.666011,8.947266 -11.179682,11.179691 -11.535157,-6.42969 a 45,45 0 0 1 -11.021484,4.62109 l -3.611328,12.70899 H 56.169922 L 52.568359,105.44922 A 45,45 0 0 1 41.537109,100.875 L 29.957031,107.32812 18.777344,96.148438 v 2 2.000002 2 l 11.179687,11.17968 11.580078,-6.45312 a 45,45 0 0 0 11.03125,4.57422 l 3.601563,12.67383 h 15.810547 l 3.611328,-12.70899 a 45,45 0 0 0 11.021484,-4.62109 l 11.535157,6.42969 11.179682,-11.17969 v -2 -2.000001 z" />
      <path
         id="path15193"
         style="fill:#b3b3b3;fill-opacity:1;stroke:none;stroke-width:1px;stroke-linecap:butt;stroke-linejoin:miter;stroke-opacity:1"
         d="M 109.32812,96.042969 98.148438,107.22266 v 4 2 l 11.179682,-11.17969 v -2 z m -90.550776,0.105469 v 4.000002 2 l 11.179687,11.17968 v -2 -4 z m 37.392578,21.974612 v 2 2 2 h 15.810547 v -2 -2 -2 z" />
      <path
         id="rect465"
         style="fill:#e6e6e6;fill-opacity:1"
         inkscape:transform-center-x="0.075064"
         inkscape:transform-center-y="-49.085264"
         d="M 56.019531,5.8769531 52.408203,18.585938 A 45,45 0 0 0 41.386719,23.207031 L 29.851562,16.777344 18.671875,27.957031 25.125,39.537109 a 45,45 0 0 0 -4.574219,11.03125 L 7.8769531,54.169922 v 15.810547 l 12.7089849,3.611328 a 45,45 0 0 0 4.621093,11.021484 L 18.777344,96.148438 29.957031,107.32812 41.537109,100.875 a 45,45 0 0 0 11.03125,4.57422 l 3.601563,12.67383 h 15.810547 l 3.611328,-12.70899 a 45,45 0 0 0 11.021484,-4.62109 L 98.148438,107.22266 109.32812,96.042969 102.875,84.462891 a 45,45 0 0 0 4.57422,-11.03125 l 12.67383,-3.601563 V 54.019531 l -12.64844,-3.59375 A 45,45 0 0 0 102.8418,39.296875 L 109.22266,27.851562 98.042969,16.671875 86.556641,23.074219 A 45,45 0 0 0 75.412109,18.480469 L 71.830078,5.8769531 Z M 64,36.636719 A 25.363274,25.363274 0 0 1 89.363281,62 25.363274,25.363274 0 0 1 64,87.363281 25.363274,25.363274 0 0 1 38.636719,62 25.363274,25.363274 0 0 1 64,36.636719 Z" />
    </g>
  </g>
</svg>
