<?xml version="1.0" encoding="UTF-8" standalone="no"?>
<!-- Created with Inkscape (http://www.inkscape.org/) -->

<svg
   width="128"
   height="128"
   viewBox="0 0 128 128"
   version="1.1"
   id="svg5"
   inkscape:version="1.2.2 (b0a8486541, 2022-12-01)"
   sodipodi:docname="org.videolan.VLC.svg"
   xml:space="preserve"
   xmlns:inkscape="http://www.inkscape.org/namespaces/inkscape"
   xmlns:sodipodi="http://sodipodi.sourceforge.net/DTD/sodipodi-0.dtd"
   xmlns:xlink="http://www.w3.org/1999/xlink"
   xmlns="http://www.w3.org/2000/svg"
   xmlns:svg="http://www.w3.org/2000/svg"><sodipodi:namedview
     id="namedview7"
     pagecolor="#ffffff"
     bordercolor="#666666"
     borderopacity="1"
     inkscape:pageshadow="2"
     inkscape:pageopacity="0.0"
     inkscape:pagecheckerboard="true"
     inkscape:document-units="px"
     showgrid="false"
     inkscape:showpageshadow="false"
     showborder="true"
     inkscape:snap-page="true"
     inkscape:zoom="2.8284271"
     inkscape:cx="77.781746"
     inkscape:cy="78.488853"
     inkscape:window-width="1366"
     inkscape:window-height="731"
     inkscape:window-x="0"
     inkscape:window-y="0"
     inkscape:window-maximized="1"
     inkscape:current-layer="layer2"
     inkscape:snap-global="false"
     inkscape:snap-bbox="true"
     inkscape:bbox-paths="true"
     inkscape:snap-bbox-midpoints="true"
     inkscape:snap-bbox-edge-midpoints="true"
     inkscape:bbox-nodes="true"
     inkscape:object-paths="true"
     inkscape:snap-intersection-paths="true"
     inkscape:deskcolor="#d1d1d1" /><defs
     id="defs2"><linearGradient
       inkscape:collect="always"
       id="linearGradient631"><stop
         style="stop-color:#ff6600;stop-opacity:1"
         offset="0"
         id="stop627" /><stop
         style="stop-color:#ff9955;stop-opacity:1"
         offset="1"
         id="stop629" /></linearGradient><linearGradient
       inkscape:collect="always"
       id="linearGradient981"><stop
         style="stop-color:#c75b0a;stop-opacity:1;"
         offset="0"
         id="stop977" /><stop
         style="stop-color:#d96914;stop-opacity:1;"
         offset="0.04704872"
         id="stop1605" /><stop
         style="stop-color:#c75b0a;stop-opacity:1;"
         offset="0.09956726"
         id="stop1611" /><stop
         style="stop-color:#c75b0a;stop-opacity:1;"
         offset="0.89626855"
         id="stop1609" /><stop
         style="stop-color:#d96914;stop-opacity:1;"
         offset="0.95340931"
         id="stop1607" /><stop
         style="stop-color:#c75b0a;stop-opacity:1;"
         offset="1"
         id="stop979" /></linearGradient><linearGradient
       inkscape:collect="always"
       id="linearGradient3624"><stop
         style="stop-color:#d45500;stop-opacity:1"
         offset="0"
         id="stop3620" /><stop
         style="stop-color:#ee791d;stop-opacity:1"
         offset="0.49753377"
         id="stop7792" /><stop
         style="stop-color:#ff9955;stop-opacity:1"
         offset="1"
         id="stop3622" /></linearGradient><linearGradient
       inkscape:collect="always"
       id="linearGradient3616"><stop
         style="stop-color:#d45500;stop-opacity:1"
         offset="0"
         id="stop3612" /><stop
         style="stop-color:#ee791d;stop-opacity:1"
         offset="0.50435835"
         id="stop7721" /><stop
         style="stop-color:#ff9955;stop-opacity:1"
         offset="1"
         id="stop3614" /></linearGradient><linearGradient
       inkscape:collect="always"
       id="linearGradient3551"><stop
         style="stop-color:#b3b3b3;stop-opacity:1"
         offset="0"
         id="stop3547" /><stop
         style="stop-color:#ffffff;stop-opacity:1;"
         offset="1"
         id="stop3549" /></linearGradient><linearGradient
       inkscape:collect="always"
       id="linearGradient2924"><stop
         style="stop-color:#b3b3b3;stop-opacity:1"
         offset="0"
         id="stop2920" /><stop
         style="stop-color:#ffffff;stop-opacity:1;"
         offset="1"
         id="stop2922" /></linearGradient><linearGradient
       y2="236"
       x2="96"
       y1="236"
       x1="32"
       gradientTransform="translate(604.81684,170.58641)"
       gradientUnits="userSpaceOnUse"
       id="linearGradient1099"
       xlink:href="#linearGradient1036" /><linearGradient
       id="linearGradient1036"><stop
         id="stop1032"
         offset="0"
         style="stop-color:#d5d3cf;stop-opacity:1;" /><stop
         id="stop1034"
         offset="1"
         style="stop-color:#f6f5f4;stop-opacity:1" /></linearGradient><radialGradient
       r="32"
       fy="-76"
       fx="-244"
       cy="-76"
       cx="-244"
       gradientTransform="matrix(0.88333331,0,0,0.88333331,-460.35018,463.11973)"
       gradientUnits="userSpaceOnUse"
       id="radialGradient1103"
       xlink:href="#linearGradient1069" /><linearGradient
       id="linearGradient1069"><stop
         id="stop1065"
         offset="0"
         style="stop-color:#d5d3cf;stop-opacity:1" /><stop
         id="stop1067-1"
         offset="1"
         style="stop-color:#949390;stop-opacity:1" /></linearGradient><linearGradient
       gradientUnits="userSpaceOnUse"
       y2="232"
       x2="64"
       y1="262.5"
       x1="64"
       id="linearGradient1027"
       xlink:href="#linearGradient1025"
       gradientTransform="translate(-470.5864,432.81685)" /><linearGradient
       id="linearGradient1025"><stop
         id="stop1021"
         offset="0"
         style="stop-color:#9a9996;stop-opacity:1" /><stop
         id="stop1023"
         offset="1"
         style="stop-color:#77767b;stop-opacity:1" /></linearGradient><inkscape:path-effect
       effect="spiro"
       id="path-effect35304-9"
       is_visible="true" /><clipPath
       clipPathUnits="userSpaceOnUse"
       id="clipPath1609-7"><path
         sodipodi:nodetypes="cccccc"
         inkscape:connector-curvature="0"
         id="path1611-5"
         d="m 252,116 28,-28 v -8 h -36 v 36 z"
         style="fill:#e74747;stroke:none;stroke-width:0.25px;stroke-linecap:butt;stroke-linejoin:miter;stroke-opacity:1" /></clipPath><radialGradient
       r="32"
       fy="-76"
       fx="-244"
       cy="-76"
       cx="-244"
       gradientTransform="matrix(0.88333331,0,0,0.88333331,-460.35018,463.11973)"
       gradientUnits="userSpaceOnUse"
       id="radialGradient1103-5"
       xlink:href="#linearGradient1069" /><inkscape:path-effect
       effect="spiro"
       id="path-effect35304-9-2"
       is_visible="true" /><clipPath
       clipPathUnits="userSpaceOnUse"
       id="clipPath1609-7-7"><path
         sodipodi:nodetypes="cccccc"
         inkscape:connector-curvature="0"
         id="path1611-5-0"
         d="m 252,116 28,-28 v -8 h -36 v 36 z"
         style="fill:#e74747;stroke:none;stroke-width:0.25px;stroke-linecap:butt;stroke-linejoin:miter;stroke-opacity:1" /></clipPath><clipPath
       clipPathUnits="userSpaceOnUse"
       id="clipPath744"><rect
         style="fill:#1e88e5;fill-opacity:1;stroke-width:0.264583"
         id="rect746"
         width="541.86664"
         height="541.86664"
         x="0"
         y="1.5987212e-14"
         rx="79.375"
         ry="79.375" /></clipPath><clipPath
       clipPathUnits="userSpaceOnUse"
       id="clipPath62"><rect
         style="fill:#1e88e5;fill-opacity:1;stroke-width:0.264583"
         id="rect64"
         width="541.86664"
         height="541.86664"
         x="2.2507105e-05"
         y="-0.42205024"
         rx="79.375"
         ry="79.375" /></clipPath><radialGradient
       r="32"
       fy="-76"
       fx="-244"
       cy="-76"
       cx="-244"
       gradientTransform="matrix(0.88333331,0,0,0.88333331,-460.35018,463.11973)"
       gradientUnits="userSpaceOnUse"
       id="radialGradient1103-6"
       xlink:href="#linearGradient1069" /><inkscape:path-effect
       effect="spiro"
       id="path-effect35304-9-20"
       is_visible="true" /><clipPath
       clipPathUnits="userSpaceOnUse"
       id="clipPath1609-7-2"><path
         sodipodi:nodetypes="cccccc"
         inkscape:connector-curvature="0"
         id="path1611-5-3"
         d="m 252,116 28,-28 v -8 h -36 v 36 z"
         style="fill:#e74747;stroke:none;stroke-width:0.25px;stroke-linecap:butt;stroke-linejoin:miter;stroke-opacity:1" /></clipPath><clipPath
       clipPathUnits="userSpaceOnUse"
       id="clipPath961"><rect
         style="fill:#00c853;stroke:none;stroke-width:0.529037"
         id="rect963"
         width="541.86664"
         height="541.86664"
         x="1.4210855e-14"
         y="2.717972e-05"
         rx="79.375"
         ry="79.375" /></clipPath><radialGradient
       r="32"
       fy="-76"
       fx="-244"
       cy="-76"
       cx="-244"
       gradientTransform="matrix(0.88333331,0,0,0.88333331,-460.35018,463.11973)"
       gradientUnits="userSpaceOnUse"
       id="radialGradient1103-56"
       xlink:href="#linearGradient1069" /><inkscape:path-effect
       effect="spiro"
       id="path-effect35304-9-7"
       is_visible="true" /><clipPath
       clipPathUnits="userSpaceOnUse"
       id="clipPath1440"><circle
         style="display:inline;opacity:1;vector-effect:none;fill:none;fill-opacity:1;stroke:#000000;stroke-width:2;stroke-linecap:butt;stroke-linejoin:miter;stroke-miterlimit:4;stroke-dasharray:none;stroke-dashoffset:0;stroke-opacity:1;marker:none;marker-start:none;marker-mid:none;marker-end:none;paint-order:normal;enable-background:new"
         id="circle1442"
         cx="-134.35028"
         cy="193.74727"
         r="24"
         transform="rotate(-45)" /></clipPath><clipPath
       clipPathUnits="userSpaceOnUse"
       id="clipPath1430"><circle
         style="display:inline;opacity:1;vector-effect:none;fill:none;fill-opacity:1;stroke:#000000;stroke-width:2;stroke-linecap:butt;stroke-linejoin:miter;stroke-miterlimit:4;stroke-dasharray:none;stroke-dashoffset:0;stroke-opacity:1;marker:none;marker-start:none;marker-mid:none;marker-end:none;paint-order:normal;enable-background:new"
         id="circle1432"
         cx="12"
         cy="232"
         r="24" /></clipPath><clipPath
       clipPathUnits="userSpaceOnUse"
       id="clipPath1440-9"><circle
         style="display:inline;opacity:1;vector-effect:none;fill:none;fill-opacity:1;stroke:#000000;stroke-width:2;stroke-linecap:butt;stroke-linejoin:miter;stroke-miterlimit:4;stroke-dasharray:none;stroke-dashoffset:0;stroke-opacity:1;marker:none;marker-start:none;marker-mid:none;marker-end:none;paint-order:normal;enable-background:new"
         id="circle1442-5"
         cx="-134.35028"
         cy="193.74727"
         r="24"
         transform="rotate(-45)" /></clipPath><clipPath
       clipPathUnits="userSpaceOnUse"
       id="clipPath1430-1"><circle
         style="display:inline;opacity:1;vector-effect:none;fill:none;fill-opacity:1;stroke:#000000;stroke-width:2;stroke-linecap:butt;stroke-linejoin:miter;stroke-miterlimit:4;stroke-dasharray:none;stroke-dashoffset:0;stroke-opacity:1;marker:none;marker-start:none;marker-mid:none;marker-end:none;paint-order:normal;enable-background:new"
         id="circle1432-8"
         cx="12"
         cy="232"
         r="24" /></clipPath><clipPath
       clipPathUnits="userSpaceOnUse"
       id="clipPath2024"><rect
         style="opacity:1;vector-effect:none;fill:#63452c;fill-opacity:1;stroke:none;stroke-width:4;stroke-linecap:round;stroke-linejoin:round;stroke-miterlimit:4;stroke-dasharray:none;stroke-dashoffset:0;stroke-opacity:1"
         id="rect2026"
         width="74"
         height="98"
         x="6"
         y="196" /></clipPath><linearGradient
       id="linearGradient914"
       inkscape:collect="always"><stop
         id="stop910"
         offset="0"
         style="stop-color:#f6f5f4;stop-opacity:0.43700787" /><stop
         id="stop912"
         offset="1"
         style="stop-color:#deddda;stop-opacity:0;" /></linearGradient><radialGradient
       gradientTransform="matrix(2.6086955,0,0,1.8410361,-102.95652,-748.94671)"
       gradientUnits="userSpaceOnUse"
       r="46"
       fy="296"
       fx="64.000008"
       cy="296"
       cx="64.000008"
       id="radialGradient916"
       xlink:href="#linearGradient914"
       inkscape:collect="always" /><clipPath
       clipPathUnits="userSpaceOnUse"
       id="clipPath11543"><rect
         style="fill:#f0c04e;fill-opacity:1;stroke:none;stroke-width:0.529037"
         id="rect11545"
         width="541.86664"
         height="541.86664"
         x="1.4746095e-06"
         y="6.4330168e-05"
         rx="79.375"
         ry="79.375" /></clipPath><style
       id="style374">.cls-1{fill:url(#linear-gradient);}.cls-2{opacity:0.35;fill:url(#radial-gradient);}.cls-2,.cls-4{isolation:isolate;}.cls-3{fill:url(#linear-gradient-2);}.cls-4{opacity:0.41;fill:url(#radial-gradient-2);}.cls-5{fill:url(#radial-gradient-3);}.cls-6{fill:url(#radial-gradient-4);}</style><linearGradient
       id="linear-gradient"
       x1="63.33"
       y1="84.03"
       x2="241.67"
       y2="84.03"
       gradientTransform="matrix(1,0,0,-1,0,266)"
       gradientUnits="userSpaceOnUse"><stop
         offset="0"
         stop-color="#0c59a4"
         id="stop376" /><stop
         offset="1"
         stop-color="#114a8b"
         id="stop378" /></linearGradient><radialGradient
       id="radial-gradient"
       cx="161.83"
       cy="68.91"
       r="95.38"
       gradientTransform="matrix(1,0,0,-0.95,0,248.84)"
       gradientUnits="userSpaceOnUse"><stop
         offset="0.72"
         stop-opacity="0"
         id="stop381" /><stop
         offset="0.95"
         stop-opacity="0.53"
         id="stop383" /><stop
         offset="1"
         id="stop385" /></radialGradient><linearGradient
       id="linear-gradient-2"
       x1="157.35"
       y1="161.39"
       x2="45.96"
       y2="40.06"
       gradientTransform="matrix(1,0,0,-1,0,266)"
       gradientUnits="userSpaceOnUse"><stop
         offset="0"
         stop-color="#1b9de2"
         id="stop388" /><stop
         offset="0.16"
         stop-color="#1595df"
         id="stop390" /><stop
         offset="0.67"
         stop-color="#0680d7"
         id="stop392" /><stop
         offset="1"
         stop-color="#0078d4"
         id="stop394" /></linearGradient><radialGradient
       id="radial-gradient-2"
       cx="-340.29"
       cy="62.99"
       r="143.24"
       gradientTransform="matrix(0.15,-0.99,-0.8,-0.12,176.64,-125.4)"
       gradientUnits="userSpaceOnUse"><stop
         offset="0.76"
         stop-opacity="0"
         id="stop397" /><stop
         offset="0.95"
         stop-opacity="0.5"
         id="stop399" /><stop
         offset="1"
         id="stop401" /></radialGradient><radialGradient
       id="radial-gradient-3"
       cx="113.37"
       cy="570.21"
       r="202.43"
       gradientTransform="matrix(-0.04,1,2.13,0.08,-1179.54,-106.69)"
       gradientUnits="userSpaceOnUse"><stop
         offset="0"
         stop-color="#35c1f1"
         id="stop404" /><stop
         offset="0.11"
         stop-color="#34c1ed"
         id="stop406" /><stop
         offset="0.23"
         stop-color="#2fc2df"
         id="stop408" /><stop
         offset="0.31"
         stop-color="#2bc3d2"
         id="stop410" /><stop
         offset="0.67"
         stop-color="#36c752"
         id="stop412" /></radialGradient><radialGradient
       id="radial-gradient-4"
       cx="376.52"
       cy="567.97"
       r="97.34"
       gradientTransform="matrix(0.28,0.96,0.78,-0.23,-303.76,-148.5)"
       gradientUnits="userSpaceOnUse"><stop
         offset="0"
         stop-color="#66eb6e"
         id="stop415" /><stop
         offset="1"
         stop-color="#66eb6e"
         stop-opacity="0"
         id="stop417" /></radialGradient><clipPath
       clipPathUnits="userSpaceOnUse"
       id="clipPath1260"><rect
         style="fill:#bbdefb;fill-opacity:1;stroke:none;stroke-width:0.529037"
         id="rect1262"
         width="541.86664"
         height="541.86664"
         x="2.9492187e-06"
         y="3.9968629e-05"
         rx="79.375"
         ry="79.375" /></clipPath><linearGradient
       x1="0.00011788858"
       y1="119.55213"
       x2="235.77728"
       y2="119.55213"
       id="linearGradient-1"
       gradientTransform="matrix(1.4511897,0,0,1.7037658,99.854461,80.416034)"
       gradientUnits="userSpaceOnUse"><stop
         stop-color="#FF5500"
         offset="0%"
         id="stop6" /><stop
         stop-color="#FF5500"
         offset="40.9877232%"
         id="stop8" /><stop
         stop-color="#FF2000"
         offset="58.1981215%"
         id="stop10" /><stop
         stop-color="#FF2000"
         offset="100%"
         id="stop12" /></linearGradient><linearGradient
       x1="0.021484375"
       y1="0.50705516"
       x2="1"
       y2="0.50705516"
       id="linearGradient-2"
       gradientUnits="userSpaceOnUse"
       gradientTransform="matrix(7.1070123,0,0,7.1070123,54.42477,49.220049)"><stop
         stop-color="#FF452A"
         offset="0%"
         id="stop15" /><stop
         stop-color="#FF2000"
         offset="100%"
         id="stop17" /></linearGradient><mask
       id="mask-4"
       fill="#ffffff"><path
         d="M 45.051162,6.7034671 39.149895,2.8822695e-5 h -10.3632 -10.3632 L 12.522229,6.7034671 c 0,0 -5.1816002,-1.4411348 -7.6284669,1.0087943 0,0 6.9087999,-0.6244437 9.2836999,3.2425536 0,0 6.405033,1.224964 7.268633,1.224964 0.8636,0 2.734734,-0.720567 4.461934,-1.297021 1.7272,-0.576454 2.878666,-0.580633 2.878666,-0.580633 0,0 1.151467,0.0042 2.878667,0.580633 1.7272,0.576454 3.598333,1.297021 4.461933,1.297021 0.8636,0 7.268634,-1.224964 7.268634,-1.224964 2.3749,-3.8669973 9.2837,-3.2425536 9.2837,-3.2425536 C 50.232762,5.2623323 45.051162,6.7034671 45.051162,6.7034671"
         id="use25"
         style="stroke-width:0.264583" /></mask><clipPath
       clipPathUnits="userSpaceOnUse"
       id="clipPath3338"><rect
         style="fill:#ff7f2a;fill-opacity:1;stroke:none;stroke-width:0.529037"
         id="rect3340"
         width="541.86664"
         height="541.86664"
         x="1.1368684e-13"
         y="5.8174133e-05"
         rx="79.375"
         ry="79.375" /></clipPath><clipPath
       clipPathUnits="userSpaceOnUse"
       id="clipPath2140"><rect
         style="fill:#ffad76;fill-opacity:1;stroke:none;stroke-width:0.529037"
         id="rect2142"
         width="487.67996"
         height="487.67996"
         x="27.093353"
         y="27.093338"
         rx="71.4375"
         ry="71.4375" /></clipPath><linearGradient
       gradientUnits="userSpaceOnUse"
       y2="268"
       x2="115.82323"
       y1="268"
       x1="11.823223"
       id="linearGradient1329"
       xlink:href="#linearGradient1357"
       gradientTransform="matrix(2.2749684,0,0,2.2749684,-344.80754,-258.29553)" /><linearGradient
       id="linearGradient1357"><stop
         id="stop1345"
         offset="0"
         style="stop-color:#986a44;stop-opacity:1" /><stop
         style="stop-color:#cdab8f;stop-opacity:1"
         offset="0.02884588"
         id="stop1347" /><stop
         id="stop1349"
         offset="0.05769204"
         style="stop-color:#b5835a;stop-opacity:1" /><stop
         style="stop-color:#b5835a;stop-opacity:1"
         offset="0.94230765"
         id="stop1351" /><stop
         id="stop1353"
         offset="0.97133332"
         style="stop-color:#cdab8f;stop-opacity:1" /><stop
         id="stop1355"
         offset="1"
         style="stop-color:#986a44;stop-opacity:1" /></linearGradient><linearGradient
       y2="23"
       x2="60"
       y1="53.254841"
       x1="70.586235"
       gradientTransform="translate(0,170)"
       gradientUnits="userSpaceOnUse"
       id="linearGradient1610"
       xlink:href="#linearGradient1656" /><linearGradient
       id="linearGradient1656"><stop
         style="stop-color:#ffffff;stop-opacity:1"
         offset="0"
         id="stop1652" /><stop
         style="stop-color:#deddda;stop-opacity:1"
         offset="1"
         id="stop1654" /></linearGradient><linearGradient
       y2="268"
       x2="68"
       y1="268"
       x1="60"
       gradientUnits="userSpaceOnUse"
       id="linearGradient1612"
       xlink:href="#linearGradient1270" /><linearGradient
       id="linearGradient1270"><stop
         style="stop-color:#949390;stop-opacity:1;"
         offset="0"
         id="stop1258" /><stop
         id="stop1260"
         offset="0.08333334"
         style="stop-color:#d5d3cf;stop-opacity:1" /><stop
         style="stop-color:#949390;stop-opacity:1;"
         offset="0.16666667"
         id="stop1262" /><stop
         id="stop1264"
         offset="0.83333331"
         style="stop-color:#949390;stop-opacity:1;" /><stop
         style="stop-color:#d5d3cf;stop-opacity:1"
         offset="0.91666669"
         id="stop1266" /><stop
         style="stop-color:#949390;stop-opacity:1"
         offset="1"
         id="stop1268" /></linearGradient><linearGradient
       id="i"><stop
         offset="0"
         stop-color="#e26400"
         id="stop353" /><stop
         offset="1"
         stop-color="#ffb900"
         id="stop355" /></linearGradient><linearGradient
       id="h"><stop
         offset="0"
         stop-color="#9b4400"
         id="stop358" /><stop
         offset="1"
         stop-color="#e56300"
         id="stop360" /></linearGradient><linearGradient
       id="g"><stop
         offset="0"
         stop-color="#f48200"
         stop-opacity="0"
         id="stop363" /><stop
         offset=".58887613"
         stop-color="#f48200"
         stop-opacity=".72784811"
         id="stop365" /><stop
         offset=".81621653"
         stop-color="#cc5f00"
         id="stop367" /><stop
         offset="1"
         stop-color="#a43d00"
         id="stop369" /></linearGradient><linearGradient
       id="f"><stop
         offset="0"
         stop-color="#a1abb2"
         id="stop372" /><stop
         offset=".08297831"
         stop-color="#eaeced"
         id="stop374" /><stop
         offset="1"
         stop-color="#c6ccd0"
         id="stop376-3" /></linearGradient><linearGradient
       id="e"><stop
         offset="0"
         stop-color="#7a8288"
         id="stop379" /><stop
         offset=".5288403"
         stop-color="#9fa3a7"
         id="stop381-6" /><stop
         offset="1"
         stop-color="#7d858b"
         id="stop383-7" /></linearGradient><linearGradient
       id="d"><stop
         offset="0"
         stop-color="#a1abb2"
         id="stop386" /><stop
         offset=".14824273"
         stop-color="#eaeced"
         id="stop388-5" /><stop
         offset="1"
         stop-color="#c6ccd0"
         id="stop390-3" /></linearGradient><linearGradient
       id="c"><stop
         offset="0"
         stop-color="#7a8288"
         id="stop393" /><stop
         offset=".07633271"
         stop-color="#9fa3a7"
         id="stop395" /><stop
         offset="1"
         stop-color="#7d858b"
         id="stop397-5" /></linearGradient><linearGradient
       id="b"><stop
         offset="0"
         stop-color="#ffb900"
         id="stop400" /><stop
         offset="1"
         stop-color="#ffd76b"
         id="stop402" /></linearGradient><linearGradient
       xlink:href="#a"
       id="r"
       x1="236.651"
       x2="236.05246"
       y1="158.47852"
       y2="162.89346"
       gradientTransform="matrix(0.64617078,0,0,0.64617078,-88.351412,9.8226964)"
       gradientUnits="userSpaceOnUse"
       spreadMethod="reflect" /><linearGradient
       id="a"><stop
         offset="0"
         stop-color="#f68000"
         id="stop406-6" /><stop
         offset="1"
         stop-color="#fd9800"
         id="stop408-2" /></linearGradient><linearGradient
       xlink:href="#b"
       id="q"
       x1="-113.89329"
       x2="412.23013"
       y1="461.92139"
       y2="463.26218"
       gradientTransform="matrix(0.1823638,0,0,0.1823638,29.170629,32.901931)"
       gradientUnits="userSpaceOnUse" /><linearGradient
       xlink:href="#c"
       id="p"
       x1="107.20918"
       x2="151.34604"
       y1="-.64152896"
       y2="12.703197"
       gradientTransform="matrix(0.1823638,0,0,0.1823638,29.080273,32.894297)"
       gradientUnits="userSpaceOnUse" /><linearGradient
       xlink:href="#d"
       id="o"
       x1="104.88638"
       x2="164.75943"
       y1="12.640625"
       y2="27.389442"
       gradientTransform="matrix(0.1823638,0,0,0.1823638,29.170629,32.901931)"
       gradientUnits="userSpaceOnUse" /><linearGradient
       xlink:href="#e"
       id="n"
       x1="18.875"
       x2="334.03125"
       y1="252.48438"
       y2="268.41544"
       gradientTransform="matrix(0.1823638,0,0,0.1823638,29.170629,32.901931)"
       gradientUnits="userSpaceOnUse" /><linearGradient
       xlink:href="#f"
       id="m"
       x1="44.103722"
       x2="278.4324"
       y1="228.59993"
       y2="290.6998"
       gradientTransform="matrix(0.1823638,0,0,0.1823638,29.170629,32.901931)"
       gradientUnits="userSpaceOnUse" /><linearGradient
       xlink:href="#g"
       id="l"
       x1="115.20164"
       x2="261.62219"
       y1="70.105232"
       y2="55.356419"
       gradientTransform="matrix(0.1823638,0,0,0.1823638,29.170629,32.901931)"
       gradientUnits="userSpaceOnUse" /><linearGradient
       xlink:href="#h"
       id="k"
       x1="64.751183"
       x2="93.522026"
       y1="102.28447"
       y2="108.98846"
       gradientTransform="matrix(0.1823638,0,0,0.1823638,29.170629,32.901931)"
       gradientUnits="userSpaceOnUse" /><linearGradient
       xlink:href="#i"
       id="j"
       x1="40.775471"
       x2="44.375881"
       y1="100.34167"
       y2="125.31633"
       gradientTransform="matrix(0.64617078,0,0,0.65924464,29.170634,31.982132)"
       gradientUnits="userSpaceOnUse" /><filter
       id="s"
       color-interpolation-filters="sRGB"
       x="-0.025415705"
       y="-0.091577561"
       width="1.0508314"
       height="1.1831551"><feGaussianBlur
         stdDeviation="1.1354669"
         id="feGaussianBlur419" /></filter><linearGradient
       inkscape:collect="always"
       xlink:href="#linearGradient2924"
       id="linearGradient2926"
       x1="47.498685"
       y1="38.786367"
       x2="80.50338"
       y2="38.786367"
       gradientUnits="userSpaceOnUse"
       gradientTransform="matrix(0.99171372,0,0,0.95507785,0.53500445,4.4770553)" /><linearGradient
       inkscape:collect="always"
       xlink:href="#linearGradient3551"
       id="linearGradient3553"
       x1="34.298798"
       y1="87.025932"
       x2="93.7012"
       y2="87.025932"
       gradientUnits="userSpaceOnUse"
       gradientTransform="matrix(0.99171372,0,0,0.95507785,0.53500445,4.4770553)" /><linearGradient
       inkscape:collect="always"
       xlink:href="#linearGradient3616"
       id="linearGradient3618"
       x1="39.577207"
       y1="63.34184"
       x2="88.424735"
       y2="63.34184"
       gradientUnits="userSpaceOnUse"
       gradientTransform="matrix(0.99171372,0,0,0.95507785,0.53500445,4.4770553)" /><linearGradient
       inkscape:collect="always"
       xlink:href="#linearGradient3624"
       id="linearGradient3626"
       x1="54.095729"
       y1="19.228609"
       x2="73.90628"
       y2="19.228609"
       gradientUnits="userSpaceOnUse"
       gradientTransform="matrix(0.99171372,0,0,0.95507785,0.53500445,4.4770553)" /><linearGradient
       inkscape:collect="always"
       xlink:href="#linearGradient981"
       id="linearGradient985"
       x1="-54.173015"
       y1="104.23535"
       x2="34.291804"
       y2="104.23535"
       gradientUnits="userSpaceOnUse"
       gradientTransform="matrix(1.1086263,0,0,1.1933665,75.019588,-28.951827)" /><linearGradient
       inkscape:collect="always"
       xlink:href="#linearGradient631"
       id="linearGradient633"
       x1="64.000893"
       y1="69.872223"
       x2="64.000893"
       y2="112.68359"
       gradientUnits="userSpaceOnUse"
       gradientTransform="matrix(1.1334651,0,0,1.1334651,-8.5417673,-15.88236)" /></defs><g
     inkscape:groupmode="layer"
     id="layer2"
     inkscape:label="Layer 1"><path
       id="path2062"
       style="fill:url(#linearGradient3626);fill-opacity:1;stroke-width:3.717;stroke-linecap:round;stroke-linejoin:round;paint-order:markers stroke fill"
       d="m 64.003906,13.072754 a 5.225202,1.7957051 0 0 0 -5.138672,1.490106 l -0.08594,0.306237 -0.169922,0.526579 -4.197266,13.074836 a 9.8241148,3.4248719 0 0 0 -0.230468,0.715176 9.8241148,3.4248719 0 0 0 9.824218,3.424629 9.8241148,3.4248719 0 0 0 9.820313,-3.419027 9.8241148,3.4248719 0 0 0 0.002,0 v -0.0019 a 9.8241148,3.4248719 0 0 0 0,-0.0019 9.8241148,3.4248719 0 0 0 0,-0.0019 9.8241148,3.4248719 0 0 0 -0.246094,-0.759991 l -4.18164,-13.030021 -0.169922,-0.526579 -0.08594,-0.30437 a 5.225202,1.7957051 0 0 0 -5.140625,-1.491973 z" /><path
       id="path624"
       style="fill:url(#linearGradient985);stroke-width:1.72532;stroke-linecap:round;stroke-linejoin:round;paint-order:markers stroke fill"
       d="m 28.413858,74.265049 c -2.456713,-1e-6 -3.826455,2.211249 -4.434505,4.773466 l -8.918689,28.027805 c -0.07069,0.29785 -0.09487,0.59091 -0.08443,0.87637 -0.0015,-0.0398 -0.0066,-0.0789 -0.0066,-0.11886 h -0.0086 v 7.1602 h 0.0086 C 14.969018,117.20902 17.276179,119 19.486444,119 h 89.023566 c 2.21025,0 4.51741,-1.79098 4.51678,-4.01597 h 0.0113 v -6.95975 c 0.002,-0.0436 -9.1e-4,-0.0888 0,-0.13286 v -0.0676 h -0.002 c -8e-5,-0.24807 -0.0212,-0.50048 -0.0822,-0.75749 l -8.91873,-28.027806 c -0.60806,-2.562217 -1.97779,-4.773466 -4.434504,-4.773466 z M 14.987046,108.09186 c 0.0076,0.0908 0.01743,0.18134 0.03247,0.27036 -0.01507,-0.0891 -0.02488,-0.17937 -0.03247,-0.27036 z m 0.06929,0.45683 c 0.01156,0.0504 0.02726,0.0994 0.04116,0.14918 -0.01389,-0.0499 -0.02955,-0.0986 -0.04116,-0.14918 z m 0.292313,0.8018 c 0.01981,0.039 0.04376,0.0759 0.06497,0.11421 -0.02124,-0.0385 -0.04511,-0.075 -0.06497,-0.11421 z m 0.322629,0.50344 c 0.102748,0.14319 0.21468,0.28156 0.335618,0.41256 -0.121684,-0.13191 -0.232355,-0.26827 -0.335618,-0.41256 z m 96.578222,0.11421 c -0.0519,0.0677 -0.10405,0.13332 -0.16023,0.19812 0.0559,-0.0643 0.10859,-0.13109 0.16023,-0.19812 z m -95.993596,0.55239 c 0.136162,0.12624 0.281976,0.24127 0.433055,0.35196 -0.151452,-0.11097 -0.296607,-0.22531 -0.433055,-0.35196 z m 95.413316,0.0699 c -0.0707,0.0629 -0.14412,0.12062 -0.2187,0.17947 0.0745,-0.0585 0.14804,-0.11706 0.2187,-0.17947 z m -94.724757,0.46382 c 0.177687,0.11374 0.365672,0.21213 0.556479,0.30301 -0.191913,-0.0911 -0.377865,-0.18864 -0.556479,-0.30301 z m 94.053507,0.0397 c -0.10745,0.0669 -0.21897,0.12314 -0.33129,0.18179 0.1121,-0.0581 0.22397,-0.11552 0.33129,-0.18179 z m -93.252351,0.38223 c 0.215353,0.0886 0.43835,0.15283 0.662579,0.20977 -0.224783,-0.0567 -0.446751,-0.12113 -0.662579,-0.20977 z m 92.468521,0.0186 c -0.13722,0.055 -0.27899,0.0905 -0.42007,0.13286 0.14091,-0.0419 0.28294,-0.0783 0.42007,-0.13286 z m -91.611066,0.24706 c 0.292754,0.0611 0.588542,0.0973 0.883436,0.0978 -0.29481,0 -0.590886,-0.0373 -0.883436,-0.0978 z m 90.779596,0.005 c -0.25878,0.0528 -0.52071,0.0782 -0.78167,0.0839 0.26045,-0.005 0.52308,-0.0317 0.78167,-0.0839 z"
       sodipodi:nodetypes="scccccccsscccccccccsccccccccccccccccccccccccccccccccccccccc" /><path
       id="rect525"
       style="fill:url(#linearGradient633);fill-opacity:1;stroke-width:1.72532;stroke-linecap:round;stroke-linejoin:round;paint-order:markers stroke fill"
       d="m 28.406307,74.264257 h 71.187385 c 2.456718,0 3.636038,2.264055 4.434518,4.773466 l 8.91868,28.029307 c 0.79847,2.5094 -1.9778,4.77346 -4.4345,4.77346 H 19.487619 c -2.456717,0 -5.232976,-2.26406 -4.434506,-4.77346 l 8.918689,-28.029307 c 0.798472,-2.509409 1.977788,-4.773466 4.434505,-4.773466 z"
       sodipodi:nodetypes="sssssssss" /><path
       id="path2120"
       style="fill:url(#linearGradient3553);fill-opacity:1;stroke-width:3.717;stroke-linecap:round;stroke-linejoin:round;paint-order:markers stroke fill"
       d="m 39.785174,74.024258 -5.235551,16.29788 A 29.455401,11.361573 0 0 0 64.004684,101.68421 29.455401,11.361573 0 0 0 93.459742,90.322138 L 88.226128,74.024258 A 24.221672,6.3691246 0 0 1 64.00662,80.394551 24.221672,6.3691246 0 0 1 39.785174,74.024258 Z" /><path
       id="path2126"
       style="fill:url(#linearGradient3618);fill-opacity:1;stroke-width:3.717;stroke-linecap:round;stroke-linejoin:round;paint-order:markers stroke fill"
       d="m 47.638187,49.552757 -7.552439,23.525401 a 24.221672,6.3691246 0 0 0 -0.301484,0.946861 24.221672,6.3691246 0 0 0 24.222335,6.369113 24.221672,6.3691246 0 0 0 24.220429,-6.369113 24.221672,6.3691246 0 0 0 -0.351408,-1.080013 L 80.371178,49.567551 a 29.455401,11.361573 0 0 1 -16.37034,1.915911 29.455401,11.361573 0 0 1 -16.362651,-1.930705 z" /><path
       id="path1627"
       style="fill:url(#linearGradient2926);fill-opacity:1;stroke-width:3.717;stroke-linecap:round;stroke-linejoin:round;paint-order:markers stroke fill"
       d="m 54.182482,29.186019 -6.333068,19.721319 a 16.364584,4.3030913 0 0 0 -0.209311,0.645419 16.364584,4.3030913 0 0 0 16.366497,4.303405 16.364584,4.3030913 0 0 0 16.360744,-4.288611 29.455401,11.361573 0 0 0 0.004,0 l -0.0019,-0.0055 a 16.364584,4.3030913 0 0 0 0.0019,-0.0093 16.364584,4.3030913 0 0 0 -0.240033,-0.730488 l -6.302359,-19.63079 a 9.8241148,3.4248719 0 0 0 -0.0019,0 9.8241148,3.4248719 0 0 1 -9.820293,3.419421 9.8241148,3.4248719 0 0 1 -9.824117,-3.42497 z" /><path
       id="path1457"
       style="fill:#f07e25;fill-opacity:1;stroke-width:3.83472;stroke-linecap:round;stroke-linejoin:round;paint-order:markers stroke fill"
       d="m 34.620672,90.036855 a 29.455401,12.092616 0 0 0 -0.07305,0.453828 l 5.235635,17.345117 a 24.221672,6.7789366 0 0 0 0.301077,1.0095 l 0.212525,0.70177 0.420621,1.69133 h 0.0044 l 0.150538,0.60216 H 87.13639 l 0.137256,-0.55345 h -0.0044 l 0.429477,-1.71348 0.0044,-0.0177 0.0023,-0.009 0.170463,-0.56009 a 24.221672,6.7789366 0 0 0 0.351946,-1.15099 L 93.461237,90.490683 A 29.455401,12.092616 0 0 0 93.414747,90.2206 29.455401,12.092616 0 0 1 64.004426,101.68587 29.455401,12.092616 0 0 1 34.620672,90.036855 Z" /><path
       id="path4718"
       style="fill:#ffb380;fill-opacity:1;stroke-width:1.72532;stroke-linecap:round;stroke-linejoin:round;paint-order:markers stroke fill"
       d="m 15.030311,107.20266 c -0.484994,2.50294 2.046313,4.6379 4.458706,4.6379 H 108.513 c 2.41239,0 4.94163,-2.13496 4.45665,-4.6379 -0.39347,1.91288 -2.46676,3.36275 -4.45665,3.36275 H 19.489017 c -1.989889,0 -4.065246,-1.44986 -4.458706,-3.36275 z" /><ellipse
       style="fill:#ff9955;fill-opacity:1;stroke-width:1.96308;stroke-linecap:round;stroke-linejoin:round;paint-order:markers stroke fill"
       id="path3704"
       cx="64.004883"
       cy="14.525409"
       rx="5.1187005"
       ry="1.4526541" /></g></svg>
