<?xml version="1.0" encoding="UTF-8" standalone="no"?>
<!-- Created with Inkscape (http://www.inkscape.org/) -->

<svg
   width="128"
   height="128"
   viewBox="0 0 128 128"
   version="1.1"
   id="svg5"
   inkscape:version="1.2.2 (b0a8486541, 2022-12-01)"
   sodipodi:docname="org.prismlauncher.PrismLauncher.svg"
   xml:space="preserve"
   xmlns:inkscape="http://www.inkscape.org/namespaces/inkscape"
   xmlns:sodipodi="http://sodipodi.sourceforge.net/DTD/sodipodi-0.dtd"
   xmlns:xlink="http://www.w3.org/1999/xlink"
   xmlns="http://www.w3.org/2000/svg"
   xmlns:svg="http://www.w3.org/2000/svg"><sodipodi:namedview
     id="namedview7"
     pagecolor="#ffffff"
     bordercolor="#666666"
     borderopacity="1"
     inkscape:pageshadow="2"
     inkscape:pageopacity="0.0"
     inkscape:pagecheckerboard="true"
     inkscape:document-units="px"
     showgrid="false"
     inkscape:showpageshadow="false"
     showborder="true"
     inkscape:snap-page="true"
     inkscape:snap-bbox="true"
     inkscape:snap-bbox-midpoints="true"
     inkscape:zoom="2"
     inkscape:cx="157.25"
     inkscape:cy="59.5"
     inkscape:window-width="1366"
     inkscape:window-height="731"
     inkscape:window-x="0"
     inkscape:window-y="0"
     inkscape:window-maximized="1"
     inkscape:current-layer="layer2"
     inkscape:snap-bbox-edge-midpoints="false"
     inkscape:bbox-nodes="false"
     inkscape:snap-center="true"
     inkscape:object-paths="true"
     inkscape:object-nodes="true"
     inkscape:snap-nodes="true"
     inkscape:snap-object-midpoints="true"
     inkscape:snap-intersection-paths="true"
     inkscape:snap-smooth-nodes="true"
     inkscape:snap-midpoints="true"
     inkscape:snap-others="false"
     inkscape:deskcolor="#d1d1d1" /><defs
     id="defs2"><inkscape:path-effect
       effect="fillet_chamfer"
       id="path-effect997"
       is_visible="true"
       lpeversion="1"
       satellites_param="F,0,0,1,0,4,0,1 @ F,0,0,1,0,4,0,1 @ F,0,0,1,0,4,0,1 @ F,0,0,1,0,4,0,1 @ F,0,0,1,0,4,0,1 @ F,0,0,1,0,4,0,1"
       unit="px"
       method="auto"
       mode="F"
       radius="4"
       chamfer_steps="1"
       flexible="false"
       use_knot_distance="true"
       apply_no_radius="true"
       apply_with_radius="true"
       only_selected="false"
       hide_knots="false"
       nodesatellites_param="F,0,0,1,0,4,0,1 @ F,0,0,1,0,4,0,1 @ F,0,0,1,0,4,0,1 @ F,0,0,1,0,4,0,1 @ F,0,0,1,0,4,0,1 @ F,0,0,1,0,4,0,1" /><inkscape:path-effect
       effect="fillet_chamfer"
       id="path-effect991"
       is_visible="true"
       lpeversion="1"
       satellites_param="F,0,0,1,0,4,0,1 @ F,0,0,1,0,4,0,1 @ F,0,0,1,0,4,0,1 @ F,0,0,1,0,4,0,1 @ F,0,0,1,0,4,0,1 @ F,0,0,1,0,4,0,1"
       unit="px"
       method="auto"
       mode="F"
       radius="4"
       chamfer_steps="1"
       flexible="false"
       use_knot_distance="true"
       apply_no_radius="true"
       apply_with_radius="true"
       only_selected="false"
       hide_knots="false"
       nodesatellites_param="F,0,0,1,0,4,0,1 @ F,0,0,1,0,4,0,1 @ F,0,0,1,0,4,0,1 @ F,0,0,1,0,4,0,1 @ F,0,0,1,0,4,0,1 @ F,0,0,1,0,4,0,1" /><inkscape:path-effect
       effect="fillet_chamfer"
       id="path-effect60143"
       is_visible="true"
       lpeversion="1"
       satellites_param="F,0,0,1,0,4,0,1 @ F,0,0,1,0,4,0,1 @ F,0,0,1,0,4,0,1 @ F,0,0,1,0,4,0,1 @ F,0,0,1,0,4,0,1 @ F,0,0,1,0,4,0,1"
       unit="px"
       method="auto"
       mode="F"
       radius="4"
       chamfer_steps="1"
       flexible="false"
       use_knot_distance="true"
       apply_no_radius="true"
       apply_with_radius="true"
       only_selected="false"
       hide_knots="false"
       nodesatellites_param="F,0,0,1,0,4,0,1 @ F,0,0,1,0,4,0,1 @ F,0,0,1,0,4,0,1 @ F,0,0,1,0,4,0,1 @ F,0,0,1,0,4,0,1 @ F,0,0,1,0,4,0,1" /><inkscape:path-effect
       effect="fillet_chamfer"
       id="path-effect60137"
       is_visible="true"
       lpeversion="1"
       satellites_param="F,0,0,1,0,4,0,1 @ F,0,0,1,0,4,0,1 @ F,0,0,1,0,4,0,1 @ F,0,0,1,0,4,0,1 @ F,0,0,1,0,4,0,1 @ F,0,0,1,0,4,0,1"
       unit="px"
       method="auto"
       mode="F"
       radius="4"
       chamfer_steps="1"
       flexible="false"
       use_knot_distance="true"
       apply_no_radius="true"
       apply_with_radius="true"
       only_selected="false"
       hide_knots="false"
       nodesatellites_param="F,0,0,1,0,4,0,1 @ F,0,0,1,0,4,0,1 @ F,0,0,1,0,4,0,1 @ F,0,0,1,0,4,0,1 @ F,0,0,1,0,4,0,1 @ F,0,0,1,0,4,0,1" /><inkscape:path-effect
       effect="fillet_chamfer"
       id="path-effect60129"
       is_visible="true"
       lpeversion="1"
       satellites_param="F,0,0,1,0,4,0,1 @ F,0,0,1,0,4,0,1 @ F,0,0,1,0,4,0,1 @ F,0,0,1,0,4,0,1 @ F,0,0,1,0,4,0,1 @ F,0,0,1,0,4,0,1"
       unit="px"
       method="auto"
       mode="F"
       radius="4"
       chamfer_steps="1"
       flexible="false"
       use_knot_distance="true"
       apply_no_radius="true"
       apply_with_radius="true"
       only_selected="false"
       hide_knots="false"
       nodesatellites_param="F,0,0,1,0,4,0,1 @ F,0,0,1,0,4,0,1 @ F,0,0,1,0,4,0,1 @ F,0,0,1,0,4,0,1 @ F,0,0,1,0,4,0,1 @ F,0,0,1,0,4,0,1" /><inkscape:path-effect
       effect="fillet_chamfer"
       id="path-effect59564"
       is_visible="true"
       lpeversion="1"
       satellites_param="F,0,0,1,0,4,0,1 @ F,0,0,1,0,4,0,1 @ F,0,0,1,0,4,0,1 @ F,0,0,1,0,4,0,1 @ F,0,0,1,0,4,0,1 @ F,0,0,1,0,4,0,1"
       unit="px"
       method="auto"
       mode="F"
       radius="4"
       chamfer_steps="1"
       flexible="false"
       use_knot_distance="true"
       apply_no_radius="true"
       apply_with_radius="true"
       only_selected="false"
       hide_knots="false"
       nodesatellites_param="F,0,0,1,0,4,0,1 @ F,0,0,1,0,4,0,1 @ F,0,0,1,0,4,0,1 @ F,0,0,1,0,4,0,1 @ F,0,0,1,0,4,0,1 @ F,0,0,1,0,4,0,1" /><inkscape:path-effect
       effect="fillet_chamfer"
       id="path-effect59556"
       is_visible="true"
       lpeversion="1"
       satellites_param="F,0,0,1,0,4,0,1 @ F,0,0,1,0,4,0,1 @ F,0,0,1,0,4,0,1 @ F,0,0,1,0,4,0,1 @ F,0,0,1,0,4,0,1 @ F,0,0,1,0,4,0,1"
       unit="px"
       method="auto"
       mode="F"
       radius="4"
       chamfer_steps="1"
       flexible="false"
       use_knot_distance="true"
       apply_no_radius="true"
       apply_with_radius="true"
       only_selected="false"
       hide_knots="false"
       nodesatellites_param="F,0,0,1,0,4,0,1 @ F,0,0,1,0,4,0,1 @ F,0,0,1,0,4,0,1 @ F,0,0,1,0,4,0,1 @ F,0,0,1,0,4,0,1 @ F,0,0,1,0,4,0,1" /><inkscape:path-effect
       effect="fillet_chamfer"
       id="path-effect59548"
       is_visible="true"
       lpeversion="1"
       satellites_param="F,0,0,1,0,4,0,1 @ F,0,0,1,0,4,0,1 @ F,0,0,1,0,4,0,1 @ F,0,0,1,0,4,0,1 @ F,0,0,1,0,4,0,1 @ F,0,0,1,0,4,0,1"
       unit="px"
       method="auto"
       mode="F"
       radius="4"
       chamfer_steps="1"
       flexible="false"
       use_knot_distance="true"
       apply_no_radius="true"
       apply_with_radius="true"
       only_selected="false"
       hide_knots="false"
       nodesatellites_param="F,0,0,1,0,4,0,1 @ F,0,0,1,0,4,0,1 @ F,0,0,1,0,4,0,1 @ F,0,0,1,0,4,0,1 @ F,0,0,1,0,4,0,1 @ F,0,0,1,0,4,0,1" /><inkscape:path-effect
       effect="fillet_chamfer"
       id="path-effect59538"
       is_visible="true"
       lpeversion="1"
       satellites_param="F,0,0,1,0,4,0,1 @ F,0,0,1,0,4,0,1 @ F,0,0,1,0,4,0,1 @ F,0,0,1,0,4,0,1 @ F,0,0,1,0,4,0,1 @ F,0,0,1,0,4,0,1"
       unit="px"
       method="auto"
       mode="F"
       radius="4"
       chamfer_steps="1"
       flexible="false"
       use_knot_distance="true"
       apply_no_radius="true"
       apply_with_radius="true"
       only_selected="false"
       hide_knots="false"
       nodesatellites_param="F,0,0,1,0,4,0,1 @ F,0,0,1,0,4,0,1 @ F,0,0,1,0,4,0,1 @ F,0,0,1,0,4,0,1 @ F,0,0,1,0,4,0,1 @ F,0,0,1,0,4,0,1" /><inkscape:path-effect
       effect="fillet_chamfer"
       id="path-effect59530"
       is_visible="true"
       lpeversion="1"
       satellites_param="F,0,0,1,0,4,0,1 @ F,0,0,1,0,4,0,1 @ F,0,0,1,0,4,0,1 @ F,0,0,1,0,4,0,1 @ F,0,0,1,0,4,0,1 @ F,0,0,1,0,4,0,1"
       unit="px"
       method="auto"
       mode="F"
       radius="4"
       chamfer_steps="1"
       flexible="false"
       use_knot_distance="true"
       apply_no_radius="true"
       apply_with_radius="true"
       only_selected="false"
       hide_knots="false"
       nodesatellites_param="F,0,0,1,0,4,0,1 @ F,0,0,1,0,4,0,1 @ F,0,0,1,0,4,0,1 @ F,0,0,1,0,4,0,1 @ F,0,0,1,0,4,0,1 @ F,0,0,1,0,4,0,1" /><inkscape:path-effect
       effect="fillet_chamfer"
       id="path-effect59362"
       is_visible="true"
       lpeversion="1"
       satellites_param="F,0,0,1,0,4,0,1 @ F,0,0,1,0,4,0,1 @ F,0,0,1,0,4,0,1 @ F,0,0,1,0,4,0,1 @ F,0,0,1,0,4,0,1 @ F,0,0,1,0,4,0,1"
       unit="px"
       method="auto"
       mode="F"
       radius="4"
       chamfer_steps="1"
       flexible="false"
       use_knot_distance="true"
       apply_no_radius="true"
       apply_with_radius="true"
       only_selected="false"
       hide_knots="false"
       nodesatellites_param="F,0,0,1,0,4,0,1 @ F,0,0,1,0,4,0,1 @ F,0,0,1,0,4,0,1 @ F,0,0,1,0,4,0,1 @ F,0,0,1,0,4,0,1 @ F,0,0,1,0,4,0,1" /><inkscape:path-effect
       effect="fillet_chamfer"
       id="path-effect58546"
       is_visible="true"
       lpeversion="1"
       satellites_param="F,0,0,1,0,4,0,1 @ F,0,0,1,0,4,0,1 @ F,0,0,1,0,4,0,1 @ F,0,0,1,0,4,0,1 @ F,0,0,1,0,4,0,1 @ F,0,0,1,0,4,0,1"
       unit="px"
       method="auto"
       mode="F"
       radius="4"
       chamfer_steps="1"
       flexible="false"
       use_knot_distance="true"
       apply_no_radius="true"
       apply_with_radius="true"
       only_selected="false"
       hide_knots="false"
       nodesatellites_param="F,0,0,1,0,4,0,1 @ F,0,0,1,0,4,0,1 @ F,0,0,1,0,4,0,1 @ F,0,0,1,0,4,0,1 @ F,0,0,1,0,4,0,1 @ F,0,0,1,0,4,0,1" /><inkscape:path-effect
       effect="fillet_chamfer"
       id="path-effect57659"
       is_visible="true"
       lpeversion="1"
       satellites_param="F,0,0,1,0,0,0,1 @ F,0,0,1,0,8,0,1 @ F,0,0,1,0,8,0,1 @ F,0,0,1,0,8,0,1"
       unit="px"
       method="auto"
       mode="F"
       radius="8"
       chamfer_steps="1"
       flexible="false"
       use_knot_distance="true"
       apply_no_radius="true"
       apply_with_radius="true"
       only_selected="false"
       hide_knots="false"
       nodesatellites_param="F,0,0,1,0,0,0,1 @ F,0,0,1,0,8,0,1 @ F,0,0,1,0,8,0,1 @ F,0,0,1,0,8,0,1" /><inkscape:path-effect
       effect="fillet_chamfer"
       id="path-effect57657"
       is_visible="true"
       lpeversion="1"
       satellites_param="F,0,0,1,0,0,0,1 @ F,0,0,1,0,0,0,1 @ F,0,0,1,0,0,0,1 @ F,0,0,1,0,0,0,1"
       unit="px"
       method="auto"
       mode="F"
       radius="0"
       chamfer_steps="1"
       flexible="false"
       use_knot_distance="true"
       apply_no_radius="true"
       apply_with_radius="true"
       only_selected="false"
       hide_knots="false"
       nodesatellites_param="F,0,0,1,0,0,0,1 @ F,0,0,1,0,0,0,1 @ F,0,0,1,0,0,0,1 @ F,0,0,1,0,0,0,1" /><inkscape:path-effect
       effect="fillet_chamfer"
       id="path-effect57655"
       is_visible="true"
       lpeversion="1"
       satellites_param="F,0,0,1,0,8,0,1 @ F,0,0,1,0,8,0,1 @ F,0,0,1,0,8,0,1 @ F,0,0,1,0,8,0,1"
       unit="px"
       method="auto"
       mode="F"
       radius="8"
       chamfer_steps="1"
       flexible="false"
       use_knot_distance="true"
       apply_no_radius="true"
       apply_with_radius="true"
       only_selected="false"
       hide_knots="false"
       nodesatellites_param="F,0,0,1,0,8,0,1 @ F,0,0,1,0,8,0,1 @ F,0,0,1,0,8,0,1 @ F,0,0,1,0,8,0,1" /><inkscape:path-effect
       effect="fillet_chamfer"
       id="path-effect57653"
       is_visible="true"
       lpeversion="1"
       satellites_param="F,0,0,1,0,8,0,1 @ F,0,0,1,0,8,0,1 @ F,0,0,1,0,8,0,1 @ F,0,0,1,0,8,0,1 @ F,0,0,1,0,8,0,1"
       unit="px"
       method="auto"
       mode="F"
       radius="8"
       chamfer_steps="1"
       flexible="false"
       use_knot_distance="true"
       apply_no_radius="true"
       apply_with_radius="true"
       only_selected="false"
       hide_knots="false"
       nodesatellites_param="F,0,0,1,0,8,0,1 @ F,0,0,1,0,8,0,1 @ F,0,0,1,0,8,0,1 @ F,0,0,1,0,8,0,1 @ F,0,0,1,0,8,0,1" /><inkscape:path-effect
       effect="fillet_chamfer"
       id="path-effect57651"
       is_visible="true"
       lpeversion="1"
       satellites_param="F,0,0,1,0,8,0,1 @ F,0,0,1,0,8,0,1 @ F,0,0,1,0,8,0,1 @ F,0,0,1,0,8,0,1 @ F,0,0,1,0,8,0,1"
       unit="px"
       method="auto"
       mode="F"
       radius="8"
       chamfer_steps="1"
       flexible="false"
       use_knot_distance="true"
       apply_no_radius="true"
       apply_with_radius="true"
       only_selected="false"
       hide_knots="false"
       nodesatellites_param="F,0,0,1,0,8,0,1 @ F,0,0,1,0,8,0,1 @ F,0,0,1,0,8,0,1 @ F,0,0,1,0,8,0,1 @ F,0,0,1,0,8,0,1" /><inkscape:path-effect
       effect="fillet_chamfer"
       id="path-effect57649"
       is_visible="true"
       lpeversion="1"
       satellites_param="F,0,0,1,0,8,0,1 @ F,0,0,1,0,8,0,1 @ F,0,0,1,0,8,0,1 @ F,0,0,1,0,8,0,1"
       unit="px"
       method="auto"
       mode="F"
       radius="8"
       chamfer_steps="1"
       flexible="false"
       use_knot_distance="true"
       apply_no_radius="true"
       apply_with_radius="true"
       only_selected="false"
       hide_knots="false"
       nodesatellites_param="F,0,0,1,0,8,0,1 @ F,0,0,1,0,8,0,1 @ F,0,0,1,0,8,0,1 @ F,0,0,1,0,8,0,1" /><inkscape:path-effect
       effect="fillet_chamfer"
       id="path-effect57647"
       is_visible="true"
       lpeversion="1"
       satellites_param="F,0,0,1,0,8,0,1 @ F,0,0,1,0,8,0,1 @ F,0,0,1,0,8,0,1 @ F,0,0,1,0,8,0,1 @ F,0,0,1,0,8,0,1"
       unit="px"
       method="auto"
       mode="F"
       radius="8"
       chamfer_steps="1"
       flexible="false"
       use_knot_distance="true"
       apply_no_radius="true"
       apply_with_radius="true"
       only_selected="false"
       hide_knots="false"
       nodesatellites_param="F,0,0,1,0,8,0,1 @ F,0,0,1,0,8,0,1 @ F,0,0,1,0,8,0,1 @ F,0,0,1,0,8,0,1 @ F,0,0,1,0,8,0,1" /><inkscape:path-effect
       effect="fillet_chamfer"
       id="path-effect55649"
       is_visible="true"
       lpeversion="1"
       satellites_param="F,0,0,1,0,12,0,1 @ F,0,0,1,0,12,0,1 @ F,0,0,1,0,12,0,1"
       unit="px"
       method="auto"
       mode="F"
       radius="12"
       chamfer_steps="1"
       flexible="false"
       use_knot_distance="true"
       apply_no_radius="true"
       apply_with_radius="true"
       only_selected="false"
       hide_knots="false"
       nodesatellites_param="F,0,0,1,0,12,0,1 @ F,0,0,1,0,12,0,1 @ F,0,0,1,0,12,0,1" /><inkscape:path-effect
       effect="fillet_chamfer"
       id="path-effect55643"
       is_visible="true"
       lpeversion="1"
       satellites_param="F,0,0,1,0,12,0,1 @ F,0,0,1,0,12,0,1 @ F,0,0,1,0,12,0,1"
       unit="px"
       method="auto"
       mode="F"
       radius="12"
       chamfer_steps="1"
       flexible="false"
       use_knot_distance="true"
       apply_no_radius="true"
       apply_with_radius="true"
       only_selected="false"
       hide_knots="false"
       nodesatellites_param="F,0,0,1,0,12,0,1 @ F,0,0,1,0,12,0,1 @ F,0,0,1,0,12,0,1" /><inkscape:path-effect
       effect="fillet_chamfer"
       id="path-effect55637"
       is_visible="true"
       lpeversion="1"
       satellites_param="F,0,0,1,0,12,0,1 @ F,0,0,1,0,12,0,1 @ F,0,0,1,0,12,0,1"
       unit="px"
       method="auto"
       mode="F"
       radius="12"
       chamfer_steps="1"
       flexible="false"
       use_knot_distance="true"
       apply_no_radius="true"
       apply_with_radius="true"
       only_selected="false"
       hide_knots="false"
       nodesatellites_param="F,0,0,1,0,12,0,1 @ F,0,0,1,0,12,0,1 @ F,0,0,1,0,12,0,1" /><inkscape:path-effect
       effect="fillet_chamfer"
       id="path-effect55631"
       is_visible="true"
       lpeversion="1"
       satellites_param="F,0,0,1,0,12,0,1 @ F,0,0,1,0,12,0,1 @ F,0,0,1,0,12,0,1"
       unit="px"
       method="auto"
       mode="F"
       radius="12"
       chamfer_steps="1"
       flexible="false"
       use_knot_distance="true"
       apply_no_radius="true"
       apply_with_radius="true"
       only_selected="false"
       hide_knots="false"
       nodesatellites_param="F,0,0,1,0,12,0,1 @ F,0,0,1,0,12,0,1 @ F,0,0,1,0,12,0,1" /><inkscape:path-effect
       effect="fillet_chamfer"
       id="path-effect55625"
       is_visible="true"
       lpeversion="1"
       satellites_param="F,0,0,1,0,12,0,1 @ F,0,0,1,0,12,0,1 @ F,0,0,1,0,12,0,1"
       unit="px"
       method="auto"
       mode="F"
       radius="12"
       chamfer_steps="1"
       flexible="false"
       use_knot_distance="true"
       apply_no_radius="true"
       apply_with_radius="true"
       only_selected="false"
       hide_knots="false"
       nodesatellites_param="F,0,0,1,0,12,0,1 @ F,0,0,1,0,12,0,1 @ F,0,0,1,0,12,0,1" /><inkscape:path-effect
       effect="fillet_chamfer"
       id="path-effect55520"
       is_visible="true"
       lpeversion="1"
       satellites_param="F,0,0,1,0,12,0,1 @ F,0,0,1,0,12,0,1 @ F,0,0,1,0,12,0,1"
       unit="px"
       method="auto"
       mode="F"
       radius="12"
       chamfer_steps="1"
       flexible="false"
       use_knot_distance="true"
       apply_no_radius="true"
       apply_with_radius="true"
       only_selected="false"
       hide_knots="false"
       nodesatellites_param="F,0,0,1,0,12,0,1 @ F,0,0,1,0,12,0,1 @ F,0,0,1,0,12,0,1" /><inkscape:path-effect
       effect="fillet_chamfer"
       id="path-effect7037"
       is_visible="true"
       lpeversion="1"
       satellites_param="F,0,0,1,0,4,0,1 @ F,0,0,1,0,4,0,1 @ F,0,0,1,0,4,0,1 @ F,0,0,1,0,4,0,1 @ F,0,0,1,0,4,0,1 @ F,0,0,1,0,4,0,1"
       unit="px"
       method="auto"
       mode="F"
       radius="4"
       chamfer_steps="1"
       flexible="false"
       use_knot_distance="true"
       apply_no_radius="true"
       apply_with_radius="true"
       only_selected="false"
       hide_knots="false"
       nodesatellites_param="F,0,0,1,0,4,0,1 @ F,0,0,1,0,4,0,1 @ F,0,0,1,0,4,0,1 @ F,0,0,1,0,4,0,1 @ F,0,0,1,0,4,0,1 @ F,0,0,1,0,4,0,1" /><inkscape:path-effect
       effect="fillet_chamfer"
       id="path-effect7031"
       is_visible="true"
       lpeversion="1"
       satellites_param="F,0,0,1,0,4,0,1 @ F,0,0,1,0,4,0,1 @ F,0,0,1,0,4,0,1 @ F,0,0,1,0,4,0,1 @ F,0,0,1,0,4,0,1 @ F,0,0,1,0,4,0,1"
       unit="px"
       method="auto"
       mode="F"
       radius="4"
       chamfer_steps="1"
       flexible="false"
       use_knot_distance="true"
       apply_no_radius="true"
       apply_with_radius="true"
       only_selected="false"
       hide_knots="false"
       nodesatellites_param="F,0,0,1,0,4,0,1 @ F,0,0,1,0,4,0,1 @ F,0,0,1,0,4,0,1 @ F,0,0,1,0,4,0,1 @ F,0,0,1,0,4,0,1 @ F,0,0,1,0,4,0,1" /><inkscape:path-effect
       effect="fillet_chamfer"
       id="path-effect6000"
       is_visible="true"
       lpeversion="1"
       satellites_param="F,0,0,1,0,4,0,1 @ F,0,0,1,0,4,0,1 @ F,0,0,1,0,4,0,1 @ F,0,0,1,0,4,0,1 @ F,0,0,1,0,4,0,1 @ F,0,0,1,0,4,0,1"
       unit="px"
       method="auto"
       mode="F"
       radius="4"
       chamfer_steps="1"
       flexible="false"
       use_knot_distance="true"
       apply_no_radius="true"
       apply_with_radius="true"
       only_selected="false"
       hide_knots="false"
       nodesatellites_param="F,0,0,1,0,4,0,1 @ F,0,0,1,0,4,0,1 @ F,0,0,1,0,4,0,1 @ F,0,0,1,0,4,0,1 @ F,0,0,1,0,4,0,1 @ F,0,0,1,0,4,0,1" /><inkscape:path-effect
       effect="fillet_chamfer"
       id="path-effect5108"
       is_visible="true"
       lpeversion="1"
       satellites_param="F,0,0,1,0,4,0,1 @ F,0,0,1,0,4,0,1 @ F,0,0,1,0,4,0,1 @ F,0,0,1,0,4,0,1 @ F,0,0,1,0,4,0,1 @ F,0,0,1,0,4,0,1"
       unit="px"
       method="auto"
       mode="F"
       radius="4"
       chamfer_steps="1"
       flexible="false"
       use_knot_distance="true"
       apply_no_radius="true"
       apply_with_radius="true"
       only_selected="false"
       hide_knots="false"
       nodesatellites_param="F,0,0,1,0,4,0,1 @ F,0,0,1,0,4,0,1 @ F,0,0,1,0,4,0,1 @ F,0,0,1,0,4,0,1 @ F,0,0,1,0,4,0,1 @ F,0,0,1,0,4,0,1" /><inkscape:path-effect
       effect="fillet_chamfer"
       id="path-effect5099"
       is_visible="true"
       lpeversion="1"
       satellites_param="F,0,0,1,0,4,0,1 @ F,0,0,1,0,4,0,1 @ F,0,0,1,0,4,0,1 @ F,0,0,1,0,4,0,1 @ F,0,0,1,0,4,0,1 @ F,0,0,1,0,4,0,1"
       unit="px"
       method="auto"
       mode="F"
       radius="4"
       chamfer_steps="1"
       flexible="false"
       use_knot_distance="true"
       apply_no_radius="true"
       apply_with_radius="true"
       only_selected="false"
       hide_knots="false"
       nodesatellites_param="F,0,0,1,0,4,0,1 @ F,0,0,1,0,4,0,1 @ F,0,0,1,0,4,0,1 @ F,0,0,1,0,4,0,1 @ F,0,0,1,0,4,0,1 @ F,0,0,1,0,4,0,1" /><inkscape:path-effect
       effect="fillet_chamfer"
       id="path-effect5093"
       is_visible="true"
       lpeversion="1"
       satellites_param="F,0,0,1,0,4,0,1 @ F,0,0,1,0,4,0,1 @ F,0,0,1,0,4,0,1 @ F,0,0,1,0,4,0,1 @ F,0,0,1,0,4,0,1 @ F,0,0,1,0,4,0,1"
       unit="px"
       method="auto"
       mode="F"
       radius="4"
       chamfer_steps="1"
       flexible="false"
       use_knot_distance="true"
       apply_no_radius="true"
       apply_with_radius="true"
       only_selected="false"
       hide_knots="false"
       nodesatellites_param="F,0,0,1,0,4,0,1 @ F,0,0,1,0,4,0,1 @ F,0,0,1,0,4,0,1 @ F,0,0,1,0,4,0,1 @ F,0,0,1,0,4,0,1 @ F,0,0,1,0,4,0,1" /><inkscape:path-effect
       effect="fillet_chamfer"
       id="path-effect4663"
       is_visible="true"
       lpeversion="1"
       satellites_param="F,0,0,1,0,4,0,1 @ F,0,0,1,0,4,0,1 @ F,0,0,1,0,4,0,1 @ F,0,0,1,0,4,0,1 @ F,0,0,1,0,4,0,1 @ F,0,0,1,0,4,0,1"
       unit="px"
       method="auto"
       mode="F"
       radius="4"
       chamfer_steps="1"
       flexible="false"
       use_knot_distance="true"
       apply_no_radius="true"
       apply_with_radius="true"
       only_selected="false"
       hide_knots="false"
       nodesatellites_param="F,0,0,1,0,4,0,1 @ F,0,0,1,0,4,0,1 @ F,0,0,1,0,4,0,1 @ F,0,0,1,0,4,0,1 @ F,0,0,1,0,4,0,1 @ F,0,0,1,0,4,0,1" /><inkscape:path-effect
       effect="fillet_chamfer"
       id="path-effect4657"
       is_visible="true"
       lpeversion="1"
       satellites_param="F,0,0,1,0,4,0,1 @ F,0,0,1,0,4,0,1 @ F,0,0,1,0,4,0,1 @ F,0,0,1,0,4,0,1 @ F,0,0,1,0,4,0,1 @ F,0,0,1,0,4,0,1"
       unit="px"
       method="auto"
       mode="F"
       radius="4"
       chamfer_steps="1"
       flexible="false"
       use_knot_distance="true"
       apply_no_radius="true"
       apply_with_radius="true"
       only_selected="false"
       hide_knots="false"
       nodesatellites_param="F,0,0,1,0,4,0,1 @ F,0,0,1,0,4,0,1 @ F,0,0,1,0,4,0,1 @ F,0,0,1,0,4,0,1 @ F,0,0,1,0,4,0,1 @ F,0,0,1,0,4,0,1" /><inkscape:path-effect
       effect="fillet_chamfer"
       id="path-effect4651"
       is_visible="true"
       lpeversion="1"
       satellites_param="F,0,0,1,0,4,0,1 @ F,0,0,1,0,4,0,1 @ F,0,0,1,0,4,0,1 @ F,0,0,1,0,4,0,1 @ F,0,0,1,0,4,0,1 @ F,0,0,1,0,4,0,1"
       unit="px"
       method="auto"
       mode="F"
       radius="4"
       chamfer_steps="1"
       flexible="false"
       use_knot_distance="true"
       apply_no_radius="true"
       apply_with_radius="true"
       only_selected="false"
       hide_knots="false"
       nodesatellites_param="F,0,0,1,0,4,0,1 @ F,0,0,1,0,4,0,1 @ F,0,0,1,0,4,0,1 @ F,0,0,1,0,4,0,1 @ F,0,0,1,0,4,0,1 @ F,0,0,1,0,4,0,1" /><inkscape:path-effect
       effect="fillet_chamfer"
       id="path-effect4645"
       is_visible="true"
       lpeversion="1"
       satellites_param="F,0,0,1,0,4,0,1 @ F,0,0,1,0,4,0,1 @ F,0,0,1,0,4,0,1 @ F,0,0,1,0,4,0,1 @ F,0,0,1,0,4,0,1 @ F,0,0,1,0,4,0,1"
       unit="px"
       method="auto"
       mode="F"
       radius="4"
       chamfer_steps="1"
       flexible="false"
       use_knot_distance="true"
       apply_no_radius="true"
       apply_with_radius="true"
       only_selected="false"
       hide_knots="false"
       nodesatellites_param="F,0,0,1,0,4,0,1 @ F,0,0,1,0,4,0,1 @ F,0,0,1,0,4,0,1 @ F,0,0,1,0,4,0,1 @ F,0,0,1,0,4,0,1 @ F,0,0,1,0,4,0,1" /><inkscape:path-effect
       effect="fillet_chamfer"
       id="path-effect4639"
       is_visible="true"
       lpeversion="1"
       satellites_param="F,0,0,1,0,4,0,1 @ F,0,0,1,0,4,0,1 @ F,0,0,1,0,4,0,1 @ F,0,0,1,0,4,0,1 @ F,0,0,1,0,4,0,1 @ F,0,0,1,0,4,0,1"
       unit="px"
       method="auto"
       mode="F"
       radius="4"
       chamfer_steps="1"
       flexible="false"
       use_knot_distance="true"
       apply_no_radius="true"
       apply_with_radius="true"
       only_selected="false"
       hide_knots="false"
       nodesatellites_param="F,0,0,1,0,4,0,1 @ F,0,0,1,0,4,0,1 @ F,0,0,1,0,4,0,1 @ F,0,0,1,0,4,0,1 @ F,0,0,1,0,4,0,1 @ F,0,0,1,0,4,0,1" /><inkscape:path-effect
       effect="fillet_chamfer"
       id="path-effect4473"
       is_visible="true"
       lpeversion="1"
       satellites_param="F,0,0,1,0,4,0,1 @ F,0,0,1,0,4,0,1 @ F,0,0,1,0,4,0,1 @ F,0,0,1,0,4,0,1 @ F,0,0,1,0,4,0,1 @ F,0,0,1,0,4,0,1"
       unit="px"
       method="auto"
       mode="F"
       radius="4"
       chamfer_steps="1"
       flexible="false"
       use_knot_distance="true"
       apply_no_radius="true"
       apply_with_radius="true"
       only_selected="false"
       hide_knots="false"
       nodesatellites_param="F,0,0,1,0,4,0,1 @ F,0,0,1,0,4,0,1 @ F,0,0,1,0,4,0,1 @ F,0,0,1,0,4,0,1 @ F,0,0,1,0,4,0,1 @ F,0,0,1,0,4,0,1" /><inkscape:path-effect
       effect="fillet_chamfer"
       id="path-effect4467"
       is_visible="true"
       lpeversion="1"
       satellites_param="F,0,0,1,0,4,0,1 @ F,0,0,1,0,4,0,1 @ F,0,0,1,0,4,0,1 @ F,0,0,1,0,4,0,1 @ F,0,0,1,0,4,0,1 @ F,0,0,1,0,4,0,1"
       unit="px"
       method="auto"
       mode="F"
       radius="4"
       chamfer_steps="1"
       flexible="false"
       use_knot_distance="true"
       apply_no_radius="true"
       apply_with_radius="true"
       only_selected="false"
       hide_knots="false"
       nodesatellites_param="F,0,0,1,0,4,0,1 @ F,0,0,1,0,4,0,1 @ F,0,0,1,0,4,0,1 @ F,0,0,1,0,4,0,1 @ F,0,0,1,0,4,0,1 @ F,0,0,1,0,4,0,1" /><inkscape:path-effect
       effect="fillet_chamfer"
       id="path-effect4301"
       is_visible="true"
       lpeversion="1"
       satellites_param="F,0,0,1,0,8,0,1 @ F,0,0,1,0,8,0,1 @ F,0,0,1,0,8,0,1 @ F,0,0,1,0,8,0,1 @ F,0,0,1,0,8,0,1 @ F,0,0,1,0,8,0,1"
       unit="px"
       method="auto"
       mode="F"
       radius="8"
       chamfer_steps="1"
       flexible="false"
       use_knot_distance="true"
       apply_no_radius="true"
       apply_with_radius="true"
       only_selected="false"
       hide_knots="false"
       nodesatellites_param="F,0,0,1,0,8,0,1 @ F,0,0,1,0,8,0,1 @ F,0,0,1,0,8,0,1 @ F,0,0,1,0,8,0,1 @ F,0,0,1,0,8,0,1 @ F,0,0,1,0,8,0,1" /><inkscape:path-effect
       effect="fillet_chamfer"
       id="path-effect4259"
       is_visible="true"
       lpeversion="1"
       satellites_param="F,0,0,1,0,4,0,1 @ F,0,0,1,0,4,0,1 @ F,0,0,1,0,4,0,1 @ F,0,0,1,0,4,0,1 @ F,0,0,1,0,4,0,1 @ F,0,0,1,0,4,0,1"
       unit="px"
       method="auto"
       mode="F"
       radius="4"
       chamfer_steps="1"
       flexible="false"
       use_knot_distance="true"
       apply_no_radius="true"
       apply_with_radius="true"
       only_selected="false"
       hide_knots="false"
       nodesatellites_param="F,0,0,1,0,4,0,1 @ F,0,0,1,0,4,0,1 @ F,0,0,1,0,4,0,1 @ F,0,0,1,0,4,0,1 @ F,0,0,1,0,4,0,1 @ F,0,0,1,0,4,0,1" /><inkscape:path-effect
       effect="fillet_chamfer"
       id="path-effect1190"
       is_visible="true"
       lpeversion="1"
       satellites_param="F,0,0,1,0,0,0,1 @ F,0,0,1,0,0,0,1 @ F,0,0,1,0,0,0,1 @ F,0,0,1,0,0,0,1 @ F,0,0,1,0,0,0,1 @ F,0,0,1,0,0,0,1"
       unit="px"
       method="auto"
       mode="F"
       radius="0"
       chamfer_steps="1"
       flexible="false"
       use_knot_distance="true"
       apply_no_radius="true"
       apply_with_radius="true"
       only_selected="false"
       hide_knots="false"
       nodesatellites_param="F,0,0,1,0,0,0,1 @ F,0,0,1,0,0,0,1 @ F,0,0,1,0,0,0,1 @ F,0,0,1,0,0,0,1 @ F,0,0,1,0,0,0,1 @ F,0,0,1,0,0,0,1" /><linearGradient
       y2="236"
       x2="96"
       y1="236"
       x1="32"
       gradientTransform="translate(604.81684,170.58641)"
       gradientUnits="userSpaceOnUse"
       id="linearGradient1099"
       xlink:href="#linearGradient1036" /><linearGradient
       id="linearGradient1036"><stop
         id="stop1032"
         offset="0"
         style="stop-color:#d5d3cf;stop-opacity:1;" /><stop
         id="stop1034"
         offset="1"
         style="stop-color:#f6f5f4;stop-opacity:1" /></linearGradient><radialGradient
       r="32"
       fy="-76"
       fx="-244"
       cy="-76"
       cx="-244"
       gradientTransform="matrix(0.88333331,0,0,0.88333331,-460.35018,463.11973)"
       gradientUnits="userSpaceOnUse"
       id="radialGradient1103"
       xlink:href="#linearGradient1069" /><linearGradient
       id="linearGradient1069"><stop
         id="stop1065"
         offset="0"
         style="stop-color:#d5d3cf;stop-opacity:1" /><stop
         id="stop1067-1"
         offset="1"
         style="stop-color:#949390;stop-opacity:1" /></linearGradient><linearGradient
       gradientUnits="userSpaceOnUse"
       y2="232"
       x2="64"
       y1="262.5"
       x1="64"
       id="linearGradient1027"
       xlink:href="#linearGradient1025"
       gradientTransform="translate(-470.5864,432.81685)" /><linearGradient
       id="linearGradient1025"><stop
         id="stop1021"
         offset="0"
         style="stop-color:#9a9996;stop-opacity:1" /><stop
         id="stop1023"
         offset="1"
         style="stop-color:#77767b;stop-opacity:1" /></linearGradient><inkscape:path-effect
       effect="spiro"
       id="path-effect35304-9"
       is_visible="true" /><clipPath
       clipPathUnits="userSpaceOnUse"
       id="clipPath1609-7"><path
         sodipodi:nodetypes="cccccc"
         inkscape:connector-curvature="0"
         id="path1611-5"
         d="m 252,116 28,-28 v -8 h -36 v 36 z"
         style="fill:#e74747;stroke:none;stroke-width:0.25px;stroke-linecap:butt;stroke-linejoin:miter;stroke-opacity:1" /></clipPath></defs><g
     inkscape:groupmode="layer"
     id="layer2"
     inkscape:label="Layer 1"><path
       id="path426"
       clip-path="none"
       style="fill:#99cd61;stroke-width:1.04561"
       d="m 64.364984,5.8535156 c -2.4371,-0.1314397 -4.785325,0.2769054 -6.478516,1.2539063 h -0.002 l -19.414059,11.2089841 -0.09961,0.05664 -1.13282,0.65625 h -0.002 l -15.74414,9.091797 -2.41016,1.390625 -0.002,0.002 c -4.084,2.359162 -7.37109,7.404747 -7.37109,11.314453 v 22.417969 1.421875 20.964843 c 0,4.71711 2.72669,10.087724 6.11328,12.042969 l 19.41406,11.208989 1.23242,0.71093 18.156253,10.48242 c 4.084548,2.35823 10.09753,2.6828 13.484375,0.72852 h 0.002 l 19.414063,-11.20898 0.09961,-0.0566 1.132813,-0.65625 h 0.002 l 1.333984,-0.76954 14.412111,-8.320308 2.4082,-1.390625 0.002,-0.002 c 4.6e-4,-2.66e-4 0.001,2.66e-4 0.002,0 4.08334,-2.3595 7.36914,-7.407139 7.36914,-11.316406 V 64.669922 63.248047 42.28125 c 0,-4.717111 -2.72669,-10.087721 -6.11328,-12.042969 L 90.759515,19.029297 89.527093,18.318359 71.370843,7.8359375 C 69.32827,6.6566592 66.802787,5.984996 64.364984,5.8535156 Z" /><path
       id="path429"
       clip-path="none"
       style="fill:#df6277;fill-opacity:1;stroke-width:1.04561"
       d="M 64 5.8535156 L 64 63.957031 L 114.31641 93.007812 C 115.53034 91.048931 116.28711 88.941026 116.28711 87.085938 L 116.28711 64.669922 L 116.28711 63.248047 L 116.28711 42.28125 C 116.28711 37.565202 113.56131 32.196573 110.17578 30.240234 L 110.17383 30.238281 L 90.759766 19.029297 L 89.527344 18.318359 L 71.371094 7.8359375 C 69.328523 6.6566604 66.803035 5.9849959 64.365234 5.8535156 C 64.241796 5.8468582 64.122909 5.8573997 64 5.8535156 z " /><path
       id="path432"
       clip-path="none"
       style="fill:#fb9168;fill-opacity:1;stroke-width:1.04561"
       inkscape:transform-center-x="-25.004888"
       inkscape:transform-center-y="-7.217768"
       d="M 90.144531 18.673828 L 64 63.957031 L 114.31641 93.007812 C 115.53034 91.048931 116.28711 88.941026 116.28711 87.085938 L 116.28711 64.669922 L 116.28711 63.248047 L 116.28711 42.28125 C 116.28711 37.565202 113.56131 32.196573 110.17578 30.240234 L 110.17383 30.238281 L 90.759766 19.029297 L 90.144531 18.673828 z " /><path
       id="path435"
       clip-path="none"
       style="fill:#6f488c;fill-opacity:1;stroke-width:1.04561"
       d="M 114.31641 34.90625 L 64 63.957031 L 64 122.06055 C 66.3018 122.1327 68.503102 121.73349 70.109375 120.80664 L 70.111328 120.80664 L 89.525391 109.59766 L 89.533203 109.59375 L 89.625 109.54102 L 90.046875 109.29688 L 90.757812 108.88477 L 90.759766 108.88477 L 91.207031 108.62695 L 92.09375 108.11523 L 108.91406 98.404297 L 108.91602 98.402344 L 108.93555 98.390625 C 113.01053 96.02671 116.28711 90.98945 116.28711 87.085938 L 116.28711 64.669922 L 116.28711 63.248047 L 116.28711 42.28125 C 116.28711 39.802553 115.52231 37.155475 114.31641 34.90625 z " /><path
       id="path438"
       clip-path="none"
       style="fill:#4b7cbc;fill-opacity:1;stroke-width:1.04561"
       inkscape:transform-center-x="-25.004888"
       inkscape:transform-center-y="7.217772"
       d="M 114.31641 34.90625 L 64 63.957031 L 90.144531 109.24023 L 90.757812 108.88477 L 90.759766 108.88477 L 92.09375 108.11523 L 100.73633 103.125 L 106.50586 99.794922 L 108.91406 98.404297 L 108.91602 98.402344 L 108.93164 98.394531 C 113.00877 96.031746 116.28711 90.990926 116.28711 87.085938 L 116.28711 64.669922 L 116.28711 63.248047 L 116.28711 42.28125 C 116.28711 39.802553 115.52231 37.155475 114.31641 34.90625 z " /><path
       id="path441"
       clip-path="none"
       style="fill:#f3db6c;fill-opacity:1;stroke-width:1.04561"
       d="M 114.31641 34.90625 L 64 63.957031 L 116.28711 63.957031 L 116.28711 63.248047 L 116.28711 42.28125 C 116.28711 39.802553 115.52231 37.155475 114.31641 34.90625 z " /><path
       id="path447"
       clip-path="none"
       style="fill:#7ab392;fill-opacity:1;stroke-width:1.04561"
       d="m 64,63.957031 50.31641,29.048828 c 1.21339,-1.958472 1.9707,-4.065292 1.9707,-5.919921 V 64.669922 63.957031 Z" /><path
       id="path450"
       clip-path="none"
       style="fill:#4d3f33;fill-opacity:1;stroke-width:1.04561"
       d="M 13.681641 34.90625 C 12.466598 36.865228 11.708984 38.972199 11.708984 40.828125 L 11.708984 63.246094 L 11.708984 64.667969 L 11.708984 85.632812 C 11.708984 90.344458 14.429408 95.707098 17.810547 97.667969 L 37.236328 108.88477 L 38.46875 109.5957 L 56.625 120.07812 C 56.626242 120.07884 56.627664 120.07936 56.628906 120.08008 C 58.775653 121.31851 61.449909 121.98061 64 122.06055 L 64 63.957031 L 13.681641 34.90625 z " /><path
       id="path453"
       clip-path="none"
       style="fill:#7a573b;fill-opacity:1;stroke-width:1.04561"
       d="M 13.681641 34.90625 C 12.466598 36.865228 11.708984 38.972199 11.708984 40.828125 L 11.708984 63.246094 L 11.708984 64.667969 L 11.708984 85.632812 C 11.708984 88.111574 12.473728 90.75855 13.679688 93.007812 L 64 63.957031 L 13.681641 34.90625 z " /><path
       id="path456"
       clip-path="none"
       style="fill:#ffffff;stroke-width:0.491022"
       d="m 64.002076,36.387925 a 4.8073426,4.8073426 0 0 0 -0.428878,0.05498 4.8073426,4.8073426 0 0 0 -0.675204,0.09018 4.8073426,4.8073426 0 0 0 -1.031504,0.387088 l -14.735783,8.463179 -3.444214,1.988231 -1.818877,1.051297 -0.0044,0.0022 a 4.8073426,4.8073426 0 0 0 -0.01099,0.0088 4.8073426,4.8073426 0 0 0 -1.137074,0.954522 4.8073426,4.8073426 0 0 0 -0.268324,0.351901 4.8073426,4.8073426 0 0 0 -0.554241,0.958926 4.8073426,4.8073426 0 0 0 -0.169353,0.41348 4.8073426,4.8073426 0 0 0 -0.259525,1.473581 v 16.702016 3.976462 2.104794 a 4.8073426,4.8073426 0 0 0 0.259525,1.475776 4.8073426,4.8073426 0 0 0 0.171553,0.413485 4.8073426,4.8073426 0 0 0 0.552041,0.956727 4.8073426,4.8073426 0 0 0 0.270524,0.351895 4.8073426,4.8073426 0 0 0 1.150268,0.965526 l 5.302682,3.061522 8.089281,4.671464 3.439815,1.983831 a 6.8877513,6.8877513 0 0 0 0.0044,0.0022 l 1.768293,1.020505 1.086489,0.629019 0.03739,0.022 h 0.0022 a 4.8073426,4.8073426 0 0 0 1.414192,0.51465 4.8073426,4.8073426 0 0 0 0.424478,0.05498 4.8073426,4.8073426 0 0 0 1.12608,0 4.8073426,4.8073426 0 0 0 0.426679,-0.05498 4.8073426,4.8073426 0 0 0 1.414192,-0.51465 l 0.541047,-0.312315 11.779826,-6.802651 3.442014,-1.986031 1.313022,-0.756581 2.656841,-1.535161 a 4.8073426,4.8073426 0 0 0 1.269036,-1.064496 4.8073426,4.8073426 0 0 0 0.0132,-0.01759 4.8073426,4.8073426 0 0 0 0.824759,-1.425191 4.8073426,4.8073426 0 0 0 0.0066,-0.0198 4.8073426,4.8073426 0 0 0 0.288117,-1.634131 v -14.22993 -3.974263 -4.579088 a 4.8073426,4.8073426 0 0 0 -0.01099,-0.307915 4.8073426,4.8073426 0 0 0 -0.0066,-0.08358 4.8073426,4.8073426 0 0 0 -0.02419,-0.219933 4.8073426,4.8073426 0 0 0 -0.0154,-0.109969 4.8073426,4.8073426 0 0 0 -0.03299,-0.200141 4.8073426,4.8073426 0 0 0 -0.0198,-0.103375 4.8073426,4.8073426 0 0 0 -0.07258,-0.283717 4.8073426,4.8073426 0 0 0 0,-0.0044 4.8073426,4.8073426 0 0 0 -0.01979,-0.06378 4.8073426,4.8073426 0 0 0 -0.07258,-0.224339 4.8073426,4.8073426 0 0 0 -0.03959,-0.105569 4.8073426,4.8073426 0 0 0 -0.07918,-0.193546 4.8073426,4.8073426 0 0 0 -0.03739,-0.08797 4.8073426,4.8073426 0 0 0 -0.09017,-0.186947 4.8073426,4.8073426 0 0 0 -0.05498,-0.105569 4.8073426,4.8073426 0 0 0 -0.0044,-0.0066 4.8073426,4.8073426 0 0 0 -0.138561,-0.239731 4.8073426,4.8073426 0 0 0 -0.05499,-0.08578 4.8073426,4.8073426 0 0 0 -0.107765,-0.160554 4.8073426,4.8073426 0 0 0 -0.08138,-0.112164 4.8073426,4.8073426 0 0 0 -0.109969,-0.140762 4.8073426,4.8073426 0 0 0 -0.07918,-0.09457 4.8073426,4.8073426 0 0 0 -0.116569,-0.129768 4.8073426,4.8073426 0 0 0 -0.09237,-0.10117 4.8073426,4.8073426 0 0 0 -0.02639,-0.02419 4.8073426,4.8073426 0 0 0 -0.182547,-0.175948 4.8073426,4.8073426 0 0 0 -0.05499,-0.05058 4.8073426,4.8073426 0 0 0 -0.178153,-0.149561 4.8073426,4.8073426 0 0 0 -0.08797,-0.06818 4.8073426,4.8073426 0 0 0 -0.158355,-0.116569 4.8073426,4.8073426 0 0 0 -0.09238,-0.06378 4.8073426,4.8073426 0 0 0 -0.20234,-0.125363 4.8073426,4.8073426 0 0 0 -0.04838,-0.03299 l -0.011,-0.0044 -13.394163,-7.732985 -0.02639,-0.01539 -0.05718,-0.03299 -3.371636,-1.920053 -3.17809,-1.812278 a 4.8073426,4.8073426 0 0 0 -0.0022,-0.0022 4.8073426,4.8073426 0 0 0 -0.0088,-0.0044 4.8073426,4.8073426 0 0 0 -1.002912,-0.371693 4.8073426,4.8073426 0 0 0 -0.824765,-0.10997 4.8073426,4.8073426 0 0 0 -0.266124,-0.03299 z" /><path
       id="path459"
       clip-path="none"
       style="fill:#dfdfdf;fill-opacity:1;stroke-width:0.491022"
       d="M 87.882836,50.169175 63.999877,63.957026 v 27.536113 a 4.8073426,4.8073426 0 0 0 0.563039,0 4.8073426,4.8073426 0 0 0 0.426677,-0.05499 4.8073426,4.8073426 0 0 0 1.414196,-0.514652 l 12.32087,-7.114962 3.442014,-1.986031 1.313024,-0.756583 2.65464,-1.532962 a 4.8073426,4.8073426 0 0 0 0.0022,-0.0022 4.8073426,4.8073426 0 0 0 1.269037,-1.064495 4.8073426,4.8073426 0 0 0 0.0132,-0.0176 4.8073426,4.8073426 0 0 0 0.824764,-1.425192 4.8073426,4.8073426 0 0 0 0.0066,-0.01979 4.8073426,4.8073426 0 0 0 0.288118,-1.634132 V 61.139633 57.165371 52.586283 a 4.8073426,4.8073426 0 0 0 -0.011,-0.307912 4.8073426,4.8073426 0 0 0 -0.0066,-0.08358 4.8073426,4.8073426 0 0 0 -0.02419,-0.219937 4.8073426,4.8073426 0 0 0 -0.0154,-0.109969 4.8073426,4.8073426 0 0 0 -0.03299,-0.200142 4.8073426,4.8073426 0 0 0 -0.0198,-0.10337 4.8073426,4.8073426 0 0 0 -0.07258,-0.283719 4.8073426,4.8073426 0 0 0 0,-0.0044 4.8073426,4.8073426 0 0 0 -0.01979,-0.06378 4.8073426,4.8073426 0 0 0 -0.07258,-0.224336 4.8073426,4.8073426 0 0 0 -0.03959,-0.105569 4.8073426,4.8073426 0 0 0 -0.07918,-0.193545 4.8073426,4.8073426 0 0 0 -0.03739,-0.08798 4.8073426,4.8073426 0 0 0 -0.09017,-0.186947 4.8073426,4.8073426 0 0 0 -0.05498,-0.105569 4.8073426,4.8073426 0 0 0 -0.0044,-0.0066 4.8073426,4.8073426 0 0 0 -0.07478,-0.129763 z" /><path
       id="path462"
       clip-path="none"
       style="fill:#d6d2d2;fill-opacity:1;stroke-width:0.491022"
       d="m 40.1785,50.202166 a 4.8073426,4.8073426 0 0 0 -0.285918,0.497057 4.8073426,4.8073426 0 0 0 -0.169352,0.413481 4.8073426,4.8073426 0 0 0 -0.259525,1.473579 v 16.702016 3.976461 2.104797 a 4.8073426,4.8073426 0 0 0 0.259525,1.475778 4.8073426,4.8073426 0 0 0 0.171551,0.413481 4.8073426,4.8073426 0 0 0 0.552042,0.956726 4.8073426,4.8073426 0 0 0 0.270523,0.351899 4.8073426,4.8073426 0 0 0 1.148071,0.963324 4.8073426,4.8073426 0 0 0 0.0022,0.0022 l 13.391964,7.732986 3.439815,1.983832 a 6.8877513,6.8877513 0 0 0 0.0044,0.0022 l 1.768294,1.020508 1.018307,0.58943 0.10557,0.06158 h 0.0022 a 4.8073426,4.8073426 0 0 0 1.414195,0.514652 4.8073426,4.8073426 0 0 0 0.424478,0.05499 4.8073426,4.8073426 0 0 0 0.563039,0 V 63.957026 Z" /><path
       id="path1417"
       clip-path="none"
       style="fill:#333333;fill-opacity:0.45098;stroke-width:1.04561"
       d="m 11.708984,79.632812 v 6 c 0,4.717106 2.726695,10.087718 6.113282,12.042968 l 19.414062,11.20899 1.232422,0.71093 18.15625,10.48242 c 4.084544,2.35823 10.097533,2.6828 13.484375,0.72852 h 0.002 l 19.414063,-11.20898 0.09961,-0.0566 1.132812,-0.65625 h 0.002 l 1.333984,-0.76954 14.412106,-8.32031 2.4082,-1.39062 0.002,-0.002 h 0.002 c 4.08333,-2.35949 7.36914,-7.407139 7.36914,-11.316402 v -6 c 0,3.909263 -3.28581,8.956908 -7.36914,11.316406 h -0.002 l -0.002,0.002 -2.4082,1.390625 -14.412106,8.320311 -1.333984,0.76954 h -0.002 l -1.132812,0.65625 -0.09961,0.0566 -19.414063,11.20898 h -0.002 c -3.386842,1.95428 -9.399831,1.62971 -13.484375,-0.72852 L 38.46875,103.5957 37.236328,102.88477 17.822266,91.675781 C 14.435679,89.720533 11.708984,84.349918 11.708984,79.632812 Z" /></g></svg>
