<?xml version="1.0" encoding="UTF-8" standalone="no"?>
<!-- Created with Inkscape (http://www.inkscape.org/) -->

<svg
   width="128"
   height="128"
   viewBox="0 0 128 128"
   version="1.1"
   id="svg5"
   inkscape:version="1.3.2 (091e20ef0f, 2023-11-25)"
   sodipodi:docname="org.audacityteam.Audacity.svg"
   xml:space="preserve"
   xmlns:inkscape="http://www.inkscape.org/namespaces/inkscape"
   xmlns:sodipodi="http://sodipodi.sourceforge.net/DTD/sodipodi-0.dtd"
   xmlns:xlink="http://www.w3.org/1999/xlink"
   xmlns="http://www.w3.org/2000/svg"
   xmlns:svg="http://www.w3.org/2000/svg"><sodipodi:namedview
     id="namedview7"
     pagecolor="#ffffff"
     bordercolor="#666666"
     borderopacity="1"
     inkscape:pageshadow="2"
     inkscape:pageopacity="0.0"
     inkscape:pagecheckerboard="true"
     inkscape:document-units="px"
     showgrid="false"
     inkscape:showpageshadow="false"
     showborder="true"
     inkscape:snap-page="true"
     inkscape:zoom="5.9900636"
     inkscape:cx="42.820914"
     inkscape:cy="84.306283"
     inkscape:window-width="1920"
     inkscape:window-height="1043"
     inkscape:window-x="0"
     inkscape:window-y="0"
     inkscape:window-maximized="1"
     inkscape:current-layer="layer2"
     inkscape:deskcolor="#d1d1d1" /><defs
     id="defs2"><linearGradient
       y2="236"
       x2="96"
       y1="236"
       x1="32"
       gradientTransform="translate(604.81684,170.58641)"
       gradientUnits="userSpaceOnUse"
       id="linearGradient1099"
       xlink:href="#linearGradient1036" /><linearGradient
       id="linearGradient1036"><stop
         id="stop1032"
         offset="0"
         style="stop-color:#d5d3cf;stop-opacity:1;" /><stop
         id="stop1034"
         offset="1"
         style="stop-color:#f6f5f4;stop-opacity:1" /></linearGradient><radialGradient
       r="32"
       fy="-76"
       fx="-244"
       cy="-76"
       cx="-244"
       gradientTransform="matrix(0.88333331,0,0,0.88333331,-460.35018,463.11973)"
       gradientUnits="userSpaceOnUse"
       id="radialGradient1103"
       xlink:href="#linearGradient1069" /><linearGradient
       id="linearGradient1069"><stop
         id="stop1065"
         offset="0"
         style="stop-color:#d5d3cf;stop-opacity:1" /><stop
         id="stop1067-1"
         offset="1"
         style="stop-color:#949390;stop-opacity:1" /></linearGradient><linearGradient
       gradientUnits="userSpaceOnUse"
       y2="232"
       x2="64"
       y1="262.5"
       x1="64"
       id="linearGradient1027"
       xlink:href="#linearGradient1025"
       gradientTransform="translate(-470.5864,432.81685)" /><linearGradient
       id="linearGradient1025"><stop
         id="stop1021"
         offset="0"
         style="stop-color:#9a9996;stop-opacity:1" /><stop
         id="stop1023"
         offset="1"
         style="stop-color:#77767b;stop-opacity:1" /></linearGradient><inkscape:path-effect
       effect="spiro"
       id="path-effect35304-9"
       is_visible="true" /><clipPath
       clipPathUnits="userSpaceOnUse"
       id="clipPath1609-7"><path
         sodipodi:nodetypes="cccccc"
         inkscape:connector-curvature="0"
         id="path1611-5"
         d="m 252,116 28,-28 v -8 h -36 v 36 z"
         style="fill:#e74747;stroke:none;stroke-width:0.25px;stroke-linecap:butt;stroke-linejoin:miter;stroke-opacity:1" /></clipPath><radialGradient
       r="32"
       fy="-76"
       fx="-244"
       cy="-76"
       cx="-244"
       gradientTransform="matrix(0.88333331,0,0,0.88333331,-460.35018,463.11973)"
       gradientUnits="userSpaceOnUse"
       id="radialGradient1103-5"
       xlink:href="#linearGradient1069" /><inkscape:path-effect
       effect="spiro"
       id="path-effect35304-9-2"
       is_visible="true" /><clipPath
       clipPathUnits="userSpaceOnUse"
       id="clipPath1609-7-7"><path
         sodipodi:nodetypes="cccccc"
         inkscape:connector-curvature="0"
         id="path1611-5-0"
         d="m 252,116 28,-28 v -8 h -36 v 36 z"
         style="fill:#e74747;stroke:none;stroke-width:0.25px;stroke-linecap:butt;stroke-linejoin:miter;stroke-opacity:1" /></clipPath><clipPath
       clipPathUnits="userSpaceOnUse"
       id="clipPath744"><rect
         style="fill:#1e88e5;fill-opacity:1;stroke-width:0.264583"
         id="rect746"
         width="541.86664"
         height="541.86664"
         x="0"
         y="1.5987212e-14"
         rx="79.375"
         ry="79.375" /></clipPath><clipPath
       clipPathUnits="userSpaceOnUse"
       id="clipPath62"><rect
         style="fill:#1e88e5;fill-opacity:1;stroke-width:0.264583"
         id="rect64"
         width="541.86664"
         height="541.86664"
         x="2.2507105e-05"
         y="-0.42205024"
         rx="79.375"
         ry="79.375" /></clipPath><radialGradient
       r="32"
       fy="-76"
       fx="-244"
       cy="-76"
       cx="-244"
       gradientTransform="matrix(0.88333331,0,0,0.88333331,-460.35018,463.11973)"
       gradientUnits="userSpaceOnUse"
       id="radialGradient1103-6"
       xlink:href="#linearGradient1069" /><inkscape:path-effect
       effect="spiro"
       id="path-effect35304-9-20"
       is_visible="true" /><clipPath
       clipPathUnits="userSpaceOnUse"
       id="clipPath1609-7-2"><path
         sodipodi:nodetypes="cccccc"
         inkscape:connector-curvature="0"
         id="path1611-5-3"
         d="m 252,116 28,-28 v -8 h -36 v 36 z"
         style="fill:#e74747;stroke:none;stroke-width:0.25px;stroke-linecap:butt;stroke-linejoin:miter;stroke-opacity:1" /></clipPath><radialGradient
       r="32"
       fy="-76"
       fx="-244"
       cy="-76"
       cx="-244"
       gradientTransform="matrix(0.88333331,0,0,0.88333331,-460.35018,463.11973)"
       gradientUnits="userSpaceOnUse"
       id="radialGradient1103-56"
       xlink:href="#linearGradient1069" /><inkscape:path-effect
       effect="spiro"
       id="path-effect35304-9-7"
       is_visible="true" /><clipPath
       clipPathUnits="userSpaceOnUse"
       id="clipPath1609-7-0"><path
         sodipodi:nodetypes="cccccc"
         inkscape:connector-curvature="0"
         id="path1611-5-9"
         d="m 252,116 28,-28 v -8 h -36 v 36 z"
         style="fill:#e74747;stroke:none;stroke-width:0.25px;stroke-linecap:butt;stroke-linejoin:miter;stroke-opacity:1" /></clipPath><clipPath
       clipPathUnits="userSpaceOnUse"
       id="clipPath37"><rect
         style="fill:#1a1a1a;fill-opacity:1;stroke-width:0.264583"
         id="rect39"
         width="541.86664"
         height="541.86664"
         x="-2.6626146e-06"
         y="3.2408705"
         rx="79.375"
         ry="79.375" /></clipPath><clipPath
       clipPathUnits="userSpaceOnUse"
       id="clipPath22042"><rect
         style="fill:#333333;fill-opacity:1;stroke-width:0.0133797"
         id="rect22044"
         width="27.31955"
         height="27.483929"
         x="166.96844"
         y="105.40438"
         rx="4.0018873"
         ry="4.0259666" /></clipPath><clipPath
       clipPathUnits="userSpaceOnUse"
       id="clipPath1039"><rect
         style="fill:#b3b3b3;fill-opacity:1;stroke-width:0.264583"
         id="rect1041"
         width="541.8667"
         height="541.86682"
         x="2.5931527e-05"
         y="-0.00010962487"
         rx="79.375008"
         ry="79.375031" /></clipPath><clipPath
       clipPathUnits="userSpaceOnUse"
       id="clipPath154"><rect
         style="fill:#b3b3b3;fill-opacity:1;stroke-width:0.264583"
         id="rect156"
         width="541.8667"
         height="541.86682"
         x="-2.9218751e-05"
         y="-0.00016368683"
         rx="79.375008"
         ry="79.375031" /></clipPath><linearGradient
       id="paint0_linear"
       x1="49.9392"
       y1="0.257812"
       x2="49.9392"
       y2="99.7423"
       gradientUnits="userSpaceOnUse"
       gradientTransform="matrix(0.76242929,0,0,0.76242929,26.69079,21.878509)"><stop
         stop-color="white"
         id="stop585" /><stop
         offset="1"
         stop-color="white"
         stop-opacity="0"
         id="stop587" /></linearGradient><radialGradient
       r="32"
       fy="-76"
       fx="-244"
       cy="-76"
       cx="-244"
       gradientTransform="matrix(0.88333331,0,0,0.88333331,-460.35018,463.11973)"
       gradientUnits="userSpaceOnUse"
       id="radialGradient1103-562"
       xlink:href="#linearGradient1069" /><inkscape:path-effect
       effect="spiro"
       id="path-effect35304-9-0"
       is_visible="true" /><clipPath
       clipPathUnits="userSpaceOnUse"
       id="clipPath1609-7-9"><path
         sodipodi:nodetypes="cccccc"
         inkscape:connector-curvature="0"
         id="path1611-5-36"
         d="m 252,116 28,-28 v -8 h -36 v 36 z"
         style="fill:#e74747;stroke:none;stroke-width:0.25px;stroke-linecap:butt;stroke-linejoin:miter;stroke-opacity:1" /></clipPath><radialGradient
       r="32"
       fy="-76"
       fx="-244"
       cy="-76"
       cx="-244"
       gradientTransform="matrix(0.88333331,0,0,0.88333331,-460.35018,463.11973)"
       gradientUnits="userSpaceOnUse"
       id="radialGradient1103-5-0"
       xlink:href="#linearGradient1069" /><inkscape:path-effect
       effect="spiro"
       id="path-effect35304-9-2-6"
       is_visible="true" /><clipPath
       clipPathUnits="userSpaceOnUse"
       id="clipPath1609-7-7-2"><path
         sodipodi:nodetypes="cccccc"
         inkscape:connector-curvature="0"
         id="path1611-5-0-6"
         d="m 252,116 28,-28 v -8 h -36 v 36 z"
         style="fill:#e74747;stroke:none;stroke-width:0.25px;stroke-linecap:butt;stroke-linejoin:miter;stroke-opacity:1" /></clipPath><clipPath
       clipPathUnits="userSpaceOnUse"
       id="clipPath744-1"><rect
         style="fill:#1e88e5;fill-opacity:1;stroke-width:0.264583"
         id="rect746-8"
         width="541.86664"
         height="541.86664"
         x="0"
         y="1.5987212e-14"
         rx="79.375"
         ry="79.375" /></clipPath><clipPath
       clipPathUnits="userSpaceOnUse"
       id="clipPath62-7"><rect
         style="fill:#1e88e5;fill-opacity:1;stroke-width:0.264583"
         id="rect64-9"
         width="541.86664"
         height="541.86664"
         x="2.2507105e-05"
         y="-0.42205024"
         rx="79.375"
         ry="79.375" /></clipPath><radialGradient
       r="32"
       fy="-76"
       fx="-244"
       cy="-76"
       cx="-244"
       gradientTransform="matrix(0.88333331,0,0,0.88333331,-460.35018,463.11973)"
       gradientUnits="userSpaceOnUse"
       id="radialGradient1103-6-2"
       xlink:href="#linearGradient1069" /><inkscape:path-effect
       effect="spiro"
       id="path-effect35304-9-20-0"
       is_visible="true" /><clipPath
       clipPathUnits="userSpaceOnUse"
       id="clipPath1609-7-2-2"><path
         sodipodi:nodetypes="cccccc"
         inkscape:connector-curvature="0"
         id="path1611-5-3-3"
         d="m 252,116 28,-28 v -8 h -36 v 36 z"
         style="fill:#e74747;stroke:none;stroke-width:0.25px;stroke-linecap:butt;stroke-linejoin:miter;stroke-opacity:1" /></clipPath><radialGradient
       r="32"
       fy="-76"
       fx="-244"
       cy="-76"
       cx="-244"
       gradientTransform="matrix(0.88333331,0,0,0.88333331,-460.35018,463.11973)"
       gradientUnits="userSpaceOnUse"
       id="radialGradient1103-56-7"
       xlink:href="#linearGradient1069" /><inkscape:path-effect
       effect="spiro"
       id="path-effect35304-9-7-5"
       is_visible="true" /><clipPath
       clipPathUnits="userSpaceOnUse"
       id="clipPath1609-7-0-9"><path
         sodipodi:nodetypes="cccccc"
         inkscape:connector-curvature="0"
         id="path1611-5-9-2"
         d="m 252,116 28,-28 v -8 h -36 v 36 z"
         style="fill:#e74747;stroke:none;stroke-width:0.25px;stroke-linecap:butt;stroke-linejoin:miter;stroke-opacity:1" /></clipPath><clipPath
       clipPathUnits="userSpaceOnUse"
       id="clipPath37-2"><rect
         style="fill:#1a1a1a;fill-opacity:1;stroke-width:0.264583"
         id="rect39-8"
         width="541.86664"
         height="541.86664"
         x="-2.6626146e-06"
         y="3.2408705"
         rx="79.375"
         ry="79.375" /></clipPath><clipPath
       clipPathUnits="userSpaceOnUse"
       id="clipPath22042-9"><rect
         style="fill:#333333;fill-opacity:1;stroke-width:0.0133797"
         id="rect22044-7"
         width="27.31955"
         height="27.483929"
         x="166.96844"
         y="105.40438"
         rx="4.0018873"
         ry="4.0259666" /></clipPath><clipPath
       clipPathUnits="userSpaceOnUse"
       id="clipPath1039-3"><rect
         style="fill:#b3b3b3;fill-opacity:1;stroke-width:0.264583"
         id="rect1041-6"
         width="541.8667"
         height="541.86682"
         x="2.5931527e-05"
         y="-0.00010962487"
         rx="79.375008"
         ry="79.375031" /></clipPath><clipPath
       clipPathUnits="userSpaceOnUse"
       id="clipPath154-1"><rect
         style="fill:#b3b3b3;fill-opacity:1;stroke-width:0.264583"
         id="rect156-2"
         width="541.8667"
         height="541.86682"
         x="-2.9218751e-05"
         y="-0.00016368683"
         rx="79.375008"
         ry="79.375031" /></clipPath></defs><g
     inkscape:groupmode="layer"
     id="layer2"
     inkscape:label="Layer 1"><path
       style="fill:#364599;fill-opacity:1;stroke-width:0.26572"
       d="M 11.571937,68.76684 C 9.4965672,66.691472 12.166233,52.648836 16.239629,44.214425 39.447972,-3.840959 111.48061,9.0308183 116.92559,62.20637 c 0.79216,7.736267 0.741,7.775895 -7.81228,6.050666 -6.72664,-1.356789 -6.78622,-1.39029 -6.78622,-3.815542 0,-19.047676 -18.845837,-37.534356 -38.263552,-37.534356 -19.383914,0 -38.242107,18.482754 -38.261985,37.500253 -0.0026,2.465082 -0.04816,2.490939 -6.772998,3.842141 -6.817909,1.369904 -6.617897,1.356029 -7.456618,0.517308 z"
       id="path12" /><path
       style="fill:#364599;fill-opacity:1;stroke-width:0.26572"
       d="M 115.08161,95.990971 V 82.173577 l 1.66074,0.0058 c 2.71818,0.0095 4.89368,1.279347 6.13588,3.581372 0.55594,1.030278 0.57353,1.344031 0.57353,10.230187 0,8.886144 -0.0176,9.199904 -0.57353,10.230184 -1.2422,2.30202 -3.4177,3.57182 -6.13588,3.58137 l -1.66074,0.006 z"
       id="path15" /><path
       style="fill:#364599;fill-opacity:1;stroke-width:0.26572"
       d="M 8.3953846,109.17508 C 4.8236231,107.48652 4.5554752,106.57898 4.5482927,96.154659 4.5400233,84.312271 5.6033115,82.173577 11.498489,82.173577 h 1.54698 v 13.817394 13.817389 l -1.660745,-0.003 c -1.189954,-0.002 -2.0373748,-0.18065 -2.9893394,-0.63069 z"
       id="path16" /><path
       style="fill:#0a75c8;fill-opacity:1;stroke-width:0.26572"
       d="m 97.544145,120.0569 c -3.789401,-1.05442 -6.587265,-3.89413 -7.61036,-7.72421 -0.276198,-1.03393 -0.354902,-4.65825 -0.354902,-16.341719 0,-11.683463 0.07865,-15.30779 0.354902,-16.341725 2.535543,-9.492058 15.304815,-10.956418 19.695205,-2.258612 1.13346,2.24549 1.20111,3.293158 1.20111,18.600337 0,9.789399 -0.0983,15.051599 -0.29876,15.996499 -1.24318,5.85912 -7.33275,9.64278 -12.987195,8.06943 z"
       id="path19" /><path
       style="fill:#0a75c8;fill-opacity:1;stroke-width:0.26572"
       d="m 25.268548,120.0569 c -3.7894,-1.05442 -6.587266,-3.89413 -7.610366,-7.72421 -0.515327,-1.92917 -0.515327,-30.754274 0,-32.683444 C 20.2813,69.829363 33.18764,68.711263 37.595161,77.922072 l 0.826482,1.727174 v 16.341725 16.341719 l -0.826482,1.72718 c -2.327391,4.86376 -7.447368,7.35468 -12.326613,5.99703 z"
       id="path20" /><path
       style="fill:#3f51b5;fill-opacity:1;stroke-width:0.26572"
       d="M 11.571937,60.891292 C 9.4965672,58.815924 12.166233,44.773288 16.239629,36.338878 39.447972,-11.716506 111.48061,1.1552709 116.92559,54.330823 c 0.79216,7.736266 0.741,7.775895 -7.81228,6.050666 -6.72664,-1.356789 -6.78622,-1.39029 -6.78622,-3.815543 0,-19.047675 -18.845837,-37.534355 -38.263552,-37.534355 -19.383914,0 -38.242107,18.482754 -38.261985,37.500253 -0.0026,2.465081 -0.04816,2.490938 -6.772998,3.842141 -6.817909,1.369904 -6.617897,1.356028 -7.456618,0.517307 z"
       id="path11" /><path
       style="fill:#ffc107;fill-opacity:1;stroke-width:0.26572"
       d="m 79.596033,103.2851 -0.652221,-0.65221 v -9.324329 -9.324325 l 0.652221,-0.652221 c 0.41113,-0.411128 0.955805,-0.652217 1.473533,-0.652217 0.517715,0 1.062404,0.241089 1.473535,0.652217 l 0.652207,0.652221 v 9.324325 9.324329 l -0.652207,0.65221 c -0.411131,0.41114 -0.95582,0.65223 -1.473535,0.65223 -0.517728,0 -1.062403,-0.24109 -1.473533,-0.65223 z"
       id="path10" /><path
       style="fill:#ffc107;fill-opacity:1;stroke-width:0.26572"
       d="m 45.583982,107.53661 -0.65222,-0.65222 v -9.324322 -9.324325 l 0.65222,-0.652221 c 0.411129,-0.411129 0.955813,-0.652219 1.473532,-0.652219 0.51772,0 1.062404,0.24109 1.473536,0.652219 l 0.652218,0.652221 v 9.324325 9.324322 l -0.652218,0.65222 c -0.411132,0.41113 -0.955816,0.65222 -1.473536,0.65222 -0.517719,0 -1.062403,-0.24109 -1.473532,-0.65222 z"
       id="path9" /><path
       style="fill:#3f51b5;fill-opacity:1;stroke-width:0.26572"
       d="M 115.08161,88.115424 V 74.298029 l 1.66074,0.0058 c 2.71818,0.0095 4.89368,1.279347 6.13588,3.581372 0.55594,1.030278 0.57353,1.34403 0.57353,10.230186 0,8.886152 -0.0176,9.199905 -0.57353,10.230185 -1.2422,2.302018 -3.4177,3.571818 -6.13588,3.581368 l -1.66074,0.006 z"
       id="path8" /><path
       style="fill:#3f51b5;fill-opacity:1;stroke-width:0.26572"
       d="M 8.3953846,101.29953 C 4.8236231,99.610977 4.5554752,98.703431 4.5482927,88.279112 4.5400233,76.436724 5.6033115,74.298029 11.498489,74.298029 h 1.54698 v 13.817395 13.817396 l -1.660745,-0.003 c -1.189954,-0.002 -2.0373748,-0.18065 -2.9893394,-0.63069 z"
       id="path7" /><path
       style="fill:#ffc107;fill-opacity:1;stroke-width:0.26572"
       d="M 54.086994,111.78812 53.434773,111.1359 V 93.308561 75.481226 l 0.652221,-0.652221 c 0.411129,-0.41113 0.955812,-0.652219 1.473532,-0.652219 0.517719,0 1.062403,0.241089 1.473535,0.652219 l 0.652218,0.652221 V 93.308561 111.1359 l -0.652218,0.65222 c -0.411132,0.41113 -0.955816,0.65222 -1.473535,0.65222 -0.51772,0 -1.062403,-0.24109 -1.473532,-0.65222 z"
       id="path6" /><path
       style="fill:#ffc107;fill-opacity:1;stroke-width:0.26572"
       d="m 71.60987,112.32733 c -1.210533,-0.52801 -1.169074,0.14769 -1.169074,-19.052578 V 75.481226 l 0.652222,-0.652221 c 0.411128,-0.41113 0.955811,-0.652219 1.473531,-0.652219 0.517719,0 1.0624,0.241089 1.473531,0.652219 l 0.652221,0.652221 v 17.948116 c 0,19.307918 0.02037,19.010998 -1.306861,19.010998 -0.134196,0 -0.403235,0.0554 -0.597869,0.1232 -0.194633,0.0678 -0.724598,-0.0385 -1.177701,-0.23617 z"
       id="path5" /><path
       style="fill:#2196f3;fill-opacity:1;stroke-width:0.26572"
       d="m 97.544145,112.18135 c -3.789401,-1.05441 -6.587265,-3.89414 -7.61036,-7.7242 -0.276198,-1.03394 -0.354902,-4.658262 -0.354902,-16.341726 0,-11.683464 0.07865,-15.307791 0.354902,-16.341725 2.535543,-9.492059 15.304815,-10.956418 19.695205,-2.258613 1.13346,2.245491 1.20111,3.293159 1.20111,18.600338 0,9.789398 -0.0983,15.051596 -0.29876,15.996496 -1.24318,5.85911 -7.33275,9.64278 -12.987195,8.06943 z"
       id="path4" /><path
       style="fill:#2196f3;fill-opacity:1;stroke-width:0.26572"
       d="m 25.268548,112.18135 c -3.7894,-1.05441 -6.587266,-3.89414 -7.610366,-7.7242 -0.515327,-1.92918 -0.515327,-30.754281 0,-32.683451 C 20.2813,61.953815 33.18764,60.835716 37.595161,70.046524 l 0.826482,1.727175 v 16.341725 16.341726 l -0.826482,1.72717 c -2.327391,4.86377 -7.447368,7.35468 -12.326613,5.99703 z"
       id="path3" /><path
       style="fill:#ffc107;fill-opacity:1;stroke-width:0.26572"
       d="M 62.590004,120.29112 61.937786,119.6389 V 93.308561 66.978213 l 0.652218,-0.65222 c 0.41113,-0.411129 0.955815,-0.652217 1.473534,-0.652217 0.517718,0 1.062403,0.241088 1.473534,0.652217 l 0.652219,0.65222 V 93.308561 119.6389 l -0.652219,0.65222 c -0.411131,0.41113 -0.955816,0.65222 -1.473534,0.65222 -0.517719,0 -1.062404,-0.24109 -1.473534,-0.65222 z"
       id="path2" /></g></svg>
