<?xml version="1.0" encoding="UTF-8" standalone="no"?>
<!-- Created with Inkscape (http://www.inkscape.org/) -->

<svg
   width="128"
   height="128"
   viewBox="0 0 128 128"
   version="1.1"
   id="svg5"
   inkscape:version="1.2.2 (b0a8486541, 2022-12-01)"
   sodipodi:docname="org.gaphor.Gaphor.svg"
   xml:space="preserve"
   xmlns:inkscape="http://www.inkscape.org/namespaces/inkscape"
   xmlns:sodipodi="http://sodipodi.sourceforge.net/DTD/sodipodi-0.dtd"
   xmlns:xlink="http://www.w3.org/1999/xlink"
   xmlns="http://www.w3.org/2000/svg"
   xmlns:svg="http://www.w3.org/2000/svg"><sodipodi:namedview
     id="namedview7"
     pagecolor="#ffffff"
     bordercolor="#666666"
     borderopacity="1"
     inkscape:pageshadow="2"
     inkscape:pageopacity="0.0"
     inkscape:pagecheckerboard="true"
     inkscape:document-units="px"
     showgrid="false"
     inkscape:showpageshadow="false"
     showborder="true"
     inkscape:snap-page="true"
     inkscape:zoom="3.2627627"
     inkscape:cx="66.814543"
     inkscape:cy="104.51266"
     inkscape:window-width="1366"
     inkscape:window-height="731"
     inkscape:window-x="0"
     inkscape:window-y="0"
     inkscape:window-maximized="1"
     inkscape:current-layer="layer2"
     inkscape:deskcolor="#d1d1d1" /><defs
     id="defs2"><linearGradient
       inkscape:collect="always"
       id="linearGradient404"><stop
         style="stop-color:#d5fff6;stop-opacity:1"
         offset="0"
         id="stop400" /><stop
         style="stop-color:#ffffff;stop-opacity:1"
         offset="1"
         id="stop402" /></linearGradient><linearGradient
       y2="236"
       x2="96"
       y1="236"
       x1="32"
       gradientTransform="translate(604.81684,170.58641)"
       gradientUnits="userSpaceOnUse"
       id="linearGradient1099"
       xlink:href="#linearGradient1036" /><linearGradient
       id="linearGradient1036"><stop
         id="stop1032"
         offset="0"
         style="stop-color:#d5d3cf;stop-opacity:1;" /><stop
         id="stop1034"
         offset="1"
         style="stop-color:#f6f5f4;stop-opacity:1" /></linearGradient><radialGradient
       r="32"
       fy="-76"
       fx="-244"
       cy="-76"
       cx="-244"
       gradientTransform="matrix(0.88333331,0,0,0.88333331,-460.35018,463.11973)"
       gradientUnits="userSpaceOnUse"
       id="radialGradient1103"
       xlink:href="#linearGradient1069" /><linearGradient
       id="linearGradient1069"><stop
         id="stop1065"
         offset="0"
         style="stop-color:#d5d3cf;stop-opacity:1" /><stop
         id="stop1067-1"
         offset="1"
         style="stop-color:#949390;stop-opacity:1" /></linearGradient><linearGradient
       gradientUnits="userSpaceOnUse"
       y2="232"
       x2="64"
       y1="262.5"
       x1="64"
       id="linearGradient1027"
       xlink:href="#linearGradient1025"
       gradientTransform="translate(-470.5864,432.81685)" /><linearGradient
       id="linearGradient1025"><stop
         id="stop1021"
         offset="0"
         style="stop-color:#9a9996;stop-opacity:1" /><stop
         id="stop1023"
         offset="1"
         style="stop-color:#77767b;stop-opacity:1" /></linearGradient><inkscape:path-effect
       effect="spiro"
       id="path-effect35304-9"
       is_visible="true" /><clipPath
       clipPathUnits="userSpaceOnUse"
       id="clipPath1609-7"><path
         sodipodi:nodetypes="cccccc"
         inkscape:connector-curvature="0"
         id="path1611-5"
         d="m 252,116 28,-28 v -8 h -36 v 36 z"
         style="fill:#e74747;stroke:none;stroke-width:0.25px;stroke-linecap:butt;stroke-linejoin:miter;stroke-opacity:1" /></clipPath><linearGradient
       inkscape:collect="always"
       id="linearGradient8241"><stop
         style="stop-color:#2ca089;stop-opacity:1"
         offset="0"
         id="stop8237" /><stop
         style="stop-color:#37c8ab;stop-opacity:1"
         offset="0.05"
         id="stop9349" /><stop
         style="stop-color:#2ca089;stop-opacity:1"
         offset="0.1"
         id="stop21746" /><stop
         style="stop-color:#2ca089;stop-opacity:1"
         offset="0.89999998"
         id="stop21940" /><stop
         style="stop-color:#37c8ab;stop-opacity:1"
         offset="0.94999999"
         id="stop9351" /><stop
         style="stop-color:#2ca089;stop-opacity:1"
         offset="1"
         id="stop8239" /></linearGradient><radialGradient
       r="32"
       fy="-76"
       fx="-244"
       cy="-76"
       cx="-244"
       gradientTransform="matrix(0.88333331,0,0,0.88333331,-460.35018,463.11973)"
       gradientUnits="userSpaceOnUse"
       id="radialGradient1103-5"
       xlink:href="#linearGradient1069" /><inkscape:path-effect
       effect="spiro"
       id="path-effect35304-9-2"
       is_visible="true" /><clipPath
       clipPathUnits="userSpaceOnUse"
       id="clipPath1609-7-7"><path
         sodipodi:nodetypes="cccccc"
         inkscape:connector-curvature="0"
         id="path1611-5-0"
         d="m 252,116 28,-28 v -8 h -36 v 36 z"
         style="fill:#e74747;stroke:none;stroke-width:0.25px;stroke-linecap:butt;stroke-linejoin:miter;stroke-opacity:1" /></clipPath><clipPath
       clipPathUnits="userSpaceOnUse"
       id="clipPath744"><rect
         style="fill:#1e88e5;fill-opacity:1;stroke-width:0.264583"
         id="rect746"
         width="541.86664"
         height="541.86664"
         x="0"
         y="1.5987212e-14"
         rx="79.375"
         ry="79.375" /></clipPath><clipPath
       clipPathUnits="userSpaceOnUse"
       id="clipPath62"><rect
         style="fill:#1e88e5;fill-opacity:1;stroke-width:0.264583"
         id="rect64"
         width="541.86664"
         height="541.86664"
         x="2.2507105e-05"
         y="-0.42205024"
         rx="79.375"
         ry="79.375" /></clipPath><linearGradient
       inkscape:collect="always"
       xlink:href="#linearGradient8241"
       id="linearGradient8243"
       x1="11.5"
       y1="120.5"
       x2="116.5"
       y2="120.5"
       gradientUnits="userSpaceOnUse" /><radialGradient
       r="32"
       fy="-76"
       fx="-244"
       cy="-76"
       cx="-244"
       gradientTransform="matrix(0.88333331,0,0,0.88333331,-460.35018,463.11973)"
       gradientUnits="userSpaceOnUse"
       id="radialGradient1103-6"
       xlink:href="#linearGradient1069" /><inkscape:path-effect
       effect="spiro"
       id="path-effect35304-9-20"
       is_visible="true" /><clipPath
       clipPathUnits="userSpaceOnUse"
       id="clipPath1609-7-2"><path
         sodipodi:nodetypes="cccccc"
         inkscape:connector-curvature="0"
         id="path1611-5-3"
         d="m 252,116 28,-28 v -8 h -36 v 36 z"
         style="fill:#e74747;stroke:none;stroke-width:0.25px;stroke-linecap:butt;stroke-linejoin:miter;stroke-opacity:1" /></clipPath><radialGradient
       r="32"
       fy="-76"
       fx="-244"
       cy="-76"
       cx="-244"
       gradientTransform="matrix(0.88333331,0,0,0.88333331,-460.35018,463.11973)"
       gradientUnits="userSpaceOnUse"
       id="radialGradient1103-56"
       xlink:href="#linearGradient1069" /><inkscape:path-effect
       effect="spiro"
       id="path-effect35304-9-7"
       is_visible="true" /><clipPath
       clipPathUnits="userSpaceOnUse"
       id="clipPath1609-7-0"><path
         sodipodi:nodetypes="cccccc"
         inkscape:connector-curvature="0"
         id="path1611-5-9"
         d="m 252,116 28,-28 v -8 h -36 v 36 z"
         style="fill:#e74747;stroke:none;stroke-width:0.25px;stroke-linecap:butt;stroke-linejoin:miter;stroke-opacity:1" /></clipPath><clipPath
       clipPathUnits="userSpaceOnUse"
       id="clipPath37"><rect
         style="fill:#1a1a1a;fill-opacity:1;stroke-width:0.264583"
         id="rect39"
         width="541.86664"
         height="541.86664"
         x="-2.6626146e-06"
         y="3.2408705"
         rx="79.375"
         ry="79.375" /></clipPath><clipPath
       clipPathUnits="userSpaceOnUse"
       id="clipPath22042"><rect
         style="fill:#333333;fill-opacity:1;stroke-width:0.0133797"
         id="rect22044"
         width="27.31955"
         height="27.483929"
         x="166.96844"
         y="105.40438"
         rx="4.0018873"
         ry="4.0259666" /></clipPath><clipPath
       clipPathUnits="userSpaceOnUse"
       id="clipPath1039"><rect
         style="fill:#b3b3b3;fill-opacity:1;stroke-width:0.264583"
         id="rect1041"
         width="541.8667"
         height="541.86682"
         x="2.5931527e-05"
         y="-0.00010962487"
         rx="79.375008"
         ry="79.375031" /></clipPath><clipPath
       clipPathUnits="userSpaceOnUse"
       id="clipPath154"><rect
         style="fill:#b3b3b3;fill-opacity:1;stroke-width:0.264583"
         id="rect156"
         width="541.8667"
         height="541.86682"
         x="-2.9218751e-05"
         y="-0.00016368683"
         rx="79.375008"
         ry="79.375031" /></clipPath><linearGradient
       inkscape:collect="always"
       xlink:href="#linearGradient404"
       id="linearGradient406"
       x1="64"
       y1="112.5"
       x2="64"
       y2="7.5"
       gradientUnits="userSpaceOnUse" /><filter
       style="color-interpolation-filters:sRGB;"
       inkscape:label="Drop Shadow"
       id="filter6751"
       x="-0.020769834"
       y="-0.023213784"
       width="1.0415397"
       height="1.0947896"><feFlood
         flood-opacity="0.145098"
         flood-color="rgb(0,0,0)"
         result="flood"
         id="feFlood6741" /><feComposite
         in="flood"
         in2="SourceGraphic"
         operator="in"
         result="composite1"
         id="feComposite6743" /><feGaussianBlur
         in="composite1"
         stdDeviation="0.8"
         result="blur"
         id="feGaussianBlur6745" /><feOffset
         dx="0"
         dy="4"
         result="offset"
         id="feOffset6747" /><feComposite
         in="SourceGraphic"
         in2="offset"
         operator="over"
         result="composite2"
         id="feComposite6749" /></filter></defs><g
     inkscape:groupmode="layer"
     id="layer2"
     inkscape:label="Layer 1"><rect
       style="fill:url(#linearGradient8243);fill-opacity:1"
       id="rect440"
       width="105"
       height="105"
       x="11.5"
       y="15.5"
       rx="13"
       ry="13" /><rect
       style="fill:url(#linearGradient406);fill-opacity:1"
       id="rect358"
       width="105"
       height="105"
       x="11.5"
       y="7.5"
       rx="13"
       ry="13" /><rect
       style="fill:#bbfff0;fill-opacity:1;stroke-width:0.959575"
       id="rect338"
       width="100.75533"
       height="100.75533"
       x="13.622333"
       y="9.6223326"
       rx="12"
       ry="12" /><g
       id="g1353"
       style="filter:url(#filter6751)"><path
         id="path3429"
         style="color:#000000;fill:#7ba08a;fill-opacity:1;stroke-linecap:round;stroke-linejoin:round;-inkscape-stroke:none"
         d="m 31.654473,76.927713 v 6.453125 3.400391 c 0,3.428088 2.823855,6.249999 6.251953,6.25 h 14.058594 1.222656 10.046875 v 2.021484 l 7.294922,-4.105469 v -2 H 68.77752 v 1.013672 L 63.234551,86.843729 V 88.86326 H 53.187676 51.96502 37.906426 c -1.173849,0 -2.083984,-0.908195 -2.083984,-2.082031 v -6.251954 -3.601562 z" /><rect
         style="fill:#008033;fill-opacity:1;stroke:none;stroke-width:12.4251;stroke-linecap:round;stroke-linejoin:round"
         id="rect1954"
         width="31.21059"
         height="21.00754"
         x="17.779119"
         y="55.449669"
         rx="4"
         ry="4" /><rect
         style="fill:#008033;fill-opacity:1;stroke:none;stroke-width:15.4332;stroke-linecap:round;stroke-linejoin:round"
         id="rect1952"
         width="42.531151"
         height="29.387121"
         x="48.458271"
         y="21.984312"
         rx="4"
         ry="4" /><rect
         style="fill:#5fd38d;fill-opacity:1;stroke:none;stroke-width:15.4332;stroke-linecap:round;stroke-linejoin:round"
         id="rect339"
         width="42.531151"
         height="29.387121"
         x="48.458271"
         y="18.64526"
         rx="4"
         ry="4" /><path
         style="color:#000000;fill:#7ba08a;fill-opacity:1;stroke-linecap:round;stroke-linejoin:round;-inkscape-stroke:none"
         d="m 34.547051,34.61326 c -3.23162,0 -5.892578,2.662917 -5.892578,5.894531 v 12.441406 a 1.964455,1.964455 0 0 0 1.96289,1.964844 1.964455,1.964455 0 0 0 1.964844,-1.964844 V 40.507791 c 0,-1.106548 0.858285,-1.964844 1.964844,-1.964844 H 43.05877 A 1.964455,1.964455 0 0 0 45.023613,36.578103 1.964455,1.964455 0 0 0 43.05877,34.61326 Z"
         id="path3644" /><path
         id="path3646"
         style="fill:#7ba08a;fill-opacity:1;stroke-width:0.455971"
         d="m 41.162285,32.474588 v 8.207031 l 7.296875,-4.103516 v -2 h -3.435547 v 0.06836 z" /><path
         id="path1438"
         style="color:#000000;fill:#dbe3de;stroke-linecap:round;stroke-linejoin:round;-inkscape-stroke:none;fill-opacity:1"
         d="m 41.162285,30.474588 v 2.138672 h -6.615234 c -3.231614,0 -5.892578,2.662923 -5.892578,5.894531 v 7.117188 5.324218 1.128906 h 0.361328 a 1.964455,1.964455 0 0 0 1.601562,0.835938 1.964455,1.964455 0 0 0 1.605469,-0.835938 h 0.359375 v -1.128906 -5.324218 -7.117188 c 0,-1.106546 0.858287,-1.964844 1.964844,-1.964844 h 6.615234 v 2.138672 l 7.296875,-4.103516 z" /><rect
         style="fill:#5fd38d;fill-opacity:1;stroke:none;stroke-width:12.4251;stroke-linecap:round;stroke-linejoin:round"
         id="rect1887"
         width="31.21059"
         height="21.00754"
         x="17.779119"
         y="52.078293"
         rx="4"
         ry="4" /><path
         style="color:#000000;fill:#7ba08a;fill-opacity:1;stroke-linecap:round;stroke-linejoin:round;-inkscape-stroke:none"
         d="m 52.332207,60.476541 a 1.8573149,1.8573149 0 0 0 -1.857422,1.857422 1.8573149,1.8573149 0 0 0 1.857422,1.857422 H 77.71502 c 1.046189,0 1.857422,0.811232 1.857422,1.857422 v 7.429687 a 1.8573149,1.8573149 0 0 0 1.857421,1.857422 1.8573149,1.8573149 0 0 0 1.857422,-1.857422 v -7.429687 c 0,-3.055373 -2.516902,-5.572266 -5.572265,-5.572266 z"
         id="path3783" /><path
         id="path3425"
         style="fill:#7ba08a;stroke-width:0.686842;fill-opacity:1"
         d="m 53.113742,58.269404 c -0.408147,0 -0.816343,0.155572 -1.128906,0.466797 l -1.597656,1.597656 h -1.398438 v 2.058594 c 0,0.408148 0.157521,0.81634 0.46875,1.128906 l 2.527344,2.527344 c 0.625125,0.62245 1.633415,0.62245 2.255859,0 l 2.527344,-2.527344 c 0.311221,-0.312566 0.466797,-0.720758 0.466797,-1.128906 v -2.058594 h -1.396484 l -1.597657,-1.597656 c -0.311222,-0.311225 -0.718806,-0.466797 -1.126953,-0.466797 z" /><path
         style="color:#000000;fill:#dbe3de;stroke-linecap:round;stroke-linejoin:round;-inkscape-stroke:none;fill-opacity:1"
         d="m 52.332207,58.476541 a 1.8573149,1.8573149 0 0 0 -1.857422,1.857422 1.8573149,1.8573149 0 0 0 1.857422,1.857422 H 77.71502 c 1.046189,0 1.857422,0.811232 1.857422,1.857422 v 7.429687 a 1.8573149,1.8573149 0 0 0 1.857421,1.857422 1.8573149,1.8573149 0 0 0 1.857422,-1.857422 v -7.429687 c 0,-3.055373 -2.516902,-5.572266 -5.572265,-5.572266 z"
         id="path1440" /><path
         style="color:#000000;fill:#7ba08a;fill-opacity:1;stroke-linecap:round;stroke-linejoin:round;-inkscape-stroke:none"
         d="m 96.484551,33.277322 a 2.0605299,2.0605299 0 0 0 -2.060547,2.060547 2.0605299,2.0605299 0 0 0 2.060547,2.060547 h 7.554689 c 1.16065,0 2.06054,0.899877 2.06054,2.060547 V 79.2949 c 0,1.16067 -0.89989,2.060547 -2.06054,2.060547 h -2.06055 a 2.0605299,2.0605299 0 0 0 -2.060549,2.060547 2.0605299,2.0605299 0 0 0 2.060549,2.060547 h 2.06055 c 3.38966,0 6.18164,-2.791983 6.18164,-6.181641 V 39.458963 c 0,-3.389658 -2.79198,-6.181641 -6.18164,-6.181641 z"
         id="path3569" /><path
         id="path1490"
         style="fill:#7ba08a;stroke-width:0.686842;fill-opacity:1"
         d="m 95.113457,31.273416 c -0.408147,0 -0.816343,0.155572 -1.128906,0.466797 l -1.597656,1.597656 h -1.398438 v 2.058594 c 0,0.408148 0.157521,0.81634 0.46875,1.128906 l 2.527344,2.527344 c 0.625125,0.62245 1.633415,0.62245 2.255859,0 l 2.527344,-2.527344 c 0.311221,-0.312566 0.466797,-0.720758 0.466797,-1.128906 V 33.337869 H 97.838067 L 96.24041,31.740213 c -0.311222,-0.311225 -0.718806,-0.466797 -1.126953,-0.466797 z" /><path
         style="color:#000000;fill:#dbe3de;stroke-linecap:round;stroke-linejoin:round;-inkscape-stroke:none;fill-opacity:1"
         d="m 96.484551,31.277322 a 2.0605299,2.0605299 0 0 0 -2.060547,2.060547 2.0605299,2.0605299 0 0 0 2.060547,2.060547 h 7.554689 c 1.16065,0 2.06054,0.899877 2.06054,2.060547 V 77.2949 c 0,1.16067 -0.89989,2.060547 -2.06054,2.060547 h -2.06055 a 2.0605299,2.0605299 0 0 0 -2.060549,2.060547 2.0605299,2.0605299 0 0 0 2.060549,2.060547 h 2.06055 c 3.38966,0 6.18164,-2.791983 6.18164,-6.181641 V 37.458963 c 0,-3.389658 -2.79198,-6.181641 -6.18164,-6.181641 z"
         id="path1444" /><path
         id="path1478"
         style="color:#000000;fill:#dbe3de;stroke-linecap:round;stroke-linejoin:round;-inkscape-stroke:none;fill-opacity:1"
         d="m 31.654473,74.927713 v 6.453125 3.400391 c 0,3.428092 2.823852,6.249999 6.251953,6.25 h 14.058594 1.222656 10.046875 v 2.021484 l 7.294922,-4.105469 -7.294922,-4.103515 V 86.86326 H 53.187676 51.96502 37.906426 c -1.17385,0 -2.083984,-0.908193 -2.083984,-2.082031 v -6.251954 -3.601562 z" /><path
         d="m 93.983632,29.683263 -2.527364,2.527364 c -0.62246,0.625134 -0.62246,1.633935 0,2.256385 l 2.527364,2.527365 c 0.625126,0.622451 1.63393,0.622451 2.256375,0 l 2.527379,-2.527365 c 0.622442,-0.62245 0.622442,-1.631251 0,-2.256385 l -2.527379,-2.527364 c -0.622445,-0.622451 -1.631249,-0.622451 -2.256375,0 z m 0,0"
         fill="#deddda"
         id="path1494"
         style="fill:#dbe3de;stroke-width:0.686842" /><rect
         style="fill:#008033;fill-opacity:1;stroke:none;stroke-width:15.1448;stroke-linecap:round;stroke-linejoin:round"
         id="rect3055"
         width="31.21059"
         height="31.21059"
         x="70.529198"
         y="70.14415"
         rx="4"
         ry="4" /><rect
         style="fill:#5fd38d;fill-opacity:1;stroke:none;stroke-width:15.1448;stroke-linecap:round;stroke-linejoin:round"
         id="rect3057"
         width="31.21059"
         height="31.21059"
         x="70.529198"
         y="65.135338"
         rx="4"
         ry="4" /><path
         d="m 51.983917,56.679251 -2.527364,2.527364 c -0.62246,0.625134 -0.62246,1.633935 0,2.256385 l 2.527364,2.527365 c 0.625126,0.622451 1.63393,0.622451 2.256375,0 L 56.767671,61.463 c 0.622442,-0.62245 0.622442,-1.631251 0,-2.256385 l -2.527379,-2.527364 c -0.622445,-0.622451 -1.631249,-0.622451 -2.256375,0 z m 0,0"
         fill="#deddda"
         id="path3427"
         style="fill:#dbe3de;stroke-width:0.686842" /><rect
         style="fill:#1d7b50;fill-opacity:1;stroke:none;stroke-width:12.0945;stroke-linecap:round;stroke-linejoin:round"
         id="rect3923"
         width="22.157579"
         height="4.4315157"
         x="75.055702"
         y="69.037086" /><path
         id="rect3925"
         style="fill:#26a269;fill-opacity:1;stroke:none;stroke-width:12.0945;stroke-linecap:round;stroke-linejoin:round"
         d="m 75.054863,76.61326 v 4.431641 4.43164 H 89.89666 v -4.43164 h 7.316407 V 76.61326 Z" /><rect
         style="fill:#26a269;fill-opacity:1;stroke:none;stroke-width:12.0945;stroke-linecap:round;stroke-linejoin:round"
         id="rect3929"
         width="22.157579"
         height="4.4315157"
         x="75.055702"
         y="88.621193" /><rect
         style="fill:#1d7b50;fill-opacity:1;stroke:none;stroke-width:12.7199;stroke-linecap:round;stroke-linejoin:round"
         id="rect4623"
         width="24.508324"
         height="4.4315157"
         x="21.130251"
         y="54.91404" /><path
         id="rect4625"
         style="fill:#26a269;fill-opacity:1;stroke:none;stroke-width:12.7199;stroke-linecap:round;stroke-linejoin:round"
         d="m 21.131035,61.345682 v 4.43164 4.431641 h 12.253907 v -4.431641 h 12.253906 v -4.43164 z" /><rect
         style="fill:#1d7b50;fill-opacity:1;stroke:none;stroke-width:15.0947;stroke-linecap:round;stroke-linejoin:round"
         id="rect4837"
         width="34.514019"
         height="4.4315157"
         x="52.466839"
         y="21.984312" /><path
         id="rect4839"
         style="fill:#26a269;fill-opacity:1;stroke:none;stroke-width:15.0947;stroke-linecap:round;stroke-linejoin:round"
         d="m 52.466973,29.373025 v 4.431641 4.431641 h 24.697266 v -4.431641 h 9.816406 v -4.431641 z" /><rect
         style="fill:#26a269;fill-opacity:1;stroke:none;stroke-width:14.0759;stroke-linecap:round;stroke-linejoin:round"
         id="rect4841"
         width="30.012466"
         height="4.4315157"
         x="52.466839"
         y="41.193565" /></g></g></svg>
