<?xml version="1.0" encoding="UTF-8" standalone="no"?>
<!-- Created with Inkscape (http://www.inkscape.org/) -->

<svg
   width="128"
   height="128"
   viewBox="0 0 128 128"
   version="1.1"
   id="svg5"
   inkscape:version="1.2.2 (b0a8486541, 2022-12-01)"
   sodipodi:docname="org.gnome.Extensions.svg"
   xmlns:inkscape="http://www.inkscape.org/namespaces/inkscape"
   xmlns:sodipodi="http://sodipodi.sourceforge.net/DTD/sodipodi-0.dtd"
   xmlns:xlink="http://www.w3.org/1999/xlink"
   xmlns="http://www.w3.org/2000/svg"
   xmlns:svg="http://www.w3.org/2000/svg">
  <sodipodi:namedview
     id="namedview7"
     pagecolor="#ffffff"
     bordercolor="#666666"
     borderopacity="1"
     inkscape:pageshadow="2"
     inkscape:pageopacity="0.0"
     inkscape:pagecheckerboard="true"
     inkscape:document-units="px"
     showgrid="false"
     inkscape:showpageshadow="false"
     showborder="true"
     inkscape:snap-page="true"
     inkscape:object-paths="true"
     inkscape:snap-object-midpoints="true"
     inkscape:zoom="2.7405592"
     inkscape:cx="179.89029"
     inkscape:cy="55.098244"
     inkscape:window-width="1366"
     inkscape:window-height="731"
     inkscape:window-x="0"
     inkscape:window-y="0"
     inkscape:window-maximized="1"
     inkscape:current-layer="layer2"
     inkscape:snap-global="true"
     inkscape:snap-bbox="true"
     inkscape:bbox-paths="true"
     inkscape:bbox-nodes="true"
     inkscape:snap-bbox-midpoints="true"
     inkscape:deskcolor="#d1d1d1" />
  <defs
     id="defs2">
    <linearGradient
       inkscape:collect="always"
       id="linearGradient17153">
      <stop
         style="stop-color:#169452;stop-opacity:1;"
         offset="0"
         id="stop17149" />
      <stop
         style="stop-color:#19ad60;stop-opacity:1;"
         offset="0.1"
         id="stop26540" />
      <stop
         style="stop-color:#169452;stop-opacity:1;"
         offset="0.14551678"
         id="stop26282" />
      <stop
         style="stop-color:#169452;stop-opacity:1"
         offset="0.39899856"
         id="stop18731" />
      <stop
         style="stop-color:#1ab363;stop-opacity:1;"
         offset="0.50134802"
         id="stop17959" />
      <stop
         style="stop-color:#169452;stop-opacity:1"
         offset="0.60000002"
         id="stop18473" />
      <stop
         style="stop-color:#179c56;stop-opacity:1"
         offset="0.85000002"
         id="stop19503" />
      <stop
         style="stop-color:#1dc56d;stop-opacity:1"
         offset="0.89999998"
         id="stop19117" />
      <stop
         style="stop-color:#169452;stop-opacity:1"
         offset="1"
         id="stop17151" />
    </linearGradient>
    <linearGradient
       y2="236"
       x2="96"
       y1="236"
       x1="32"
       gradientTransform="translate(604.81684,170.58641)"
       gradientUnits="userSpaceOnUse"
       id="linearGradient1099"
       xlink:href="#linearGradient1036" />
    <linearGradient
       id="linearGradient1036">
      <stop
         id="stop1032"
         offset="0"
         style="stop-color:#d5d3cf;stop-opacity:1;" />
      <stop
         id="stop1034"
         offset="1"
         style="stop-color:#f6f5f4;stop-opacity:1" />
    </linearGradient>
    <radialGradient
       r="32"
       fy="-76"
       fx="-244"
       cy="-76"
       cx="-244"
       gradientTransform="matrix(0.88333331,0,0,0.88333331,-460.35018,463.11973)"
       gradientUnits="userSpaceOnUse"
       id="radialGradient1103"
       xlink:href="#linearGradient1069" />
    <linearGradient
       id="linearGradient1069">
      <stop
         id="stop1065"
         offset="0"
         style="stop-color:#d5d3cf;stop-opacity:1" />
      <stop
         id="stop1067-1"
         offset="1"
         style="stop-color:#949390;stop-opacity:1" />
    </linearGradient>
    <linearGradient
       gradientUnits="userSpaceOnUse"
       y2="232"
       x2="64"
       y1="262.5"
       x1="64"
       id="linearGradient1027"
       xlink:href="#linearGradient1025"
       gradientTransform="translate(-470.5864,432.81685)" />
    <linearGradient
       id="linearGradient1025">
      <stop
         id="stop1021"
         offset="0"
         style="stop-color:#9a9996;stop-opacity:1" />
      <stop
         id="stop1023"
         offset="1"
         style="stop-color:#77767b;stop-opacity:1" />
    </linearGradient>
    <inkscape:path-effect
       effect="spiro"
       id="path-effect35304-9"
       is_visible="true" />
    <clipPath
       clipPathUnits="userSpaceOnUse"
       id="clipPath1609-7">
      <path
         sodipodi:nodetypes="cccccc"
         inkscape:connector-curvature="0"
         id="path1611-5"
         d="m 252,116 28,-28 v -8 h -36 v 36 z"
         style="fill:#e74747;stroke:none;stroke-width:0.25px;stroke-linecap:butt;stroke-linejoin:miter;stroke-opacity:1" />
    </clipPath>
    <clipPath
       clipPathUnits="userSpaceOnUse"
       id="clipPath961">
      <rect
         style="fill:#00c853;stroke:none;stroke-width:0.529037"
         id="rect963"
         width="541.86664"
         height="541.86664"
         x="1.4210855e-14"
         y="2.717972e-05"
         rx="79.375"
         ry="79.375" />
    </clipPath>
    <linearGradient
       inkscape:collect="always"
       xlink:href="#linearGradient17153"
       id="linearGradient17155"
       x1="14.854111"
       y1="67.659181"
       x2="113.14588"
       y2="67.659181"
       gradientUnits="userSpaceOnUse"
       gradientTransform="matrix(1.3302086,0,0,1.4484344,-8.2568428,-33.044664)" />
  </defs>
  <g
     inkscape:groupmode="layer"
     id="layer2"
     inkscape:label="Layer 1">
    <path
       id="path1010"
       style="fill:url(#linearGradient17155);fill-opacity:1;stroke:#000000;stroke-width:0.0851015;stroke-opacity:0"
       d="m 55.553706,13.958737 v 2.085194 h -0.0023 V 20.74061 H 39.047597 c -0.9672,0 -1.745433,0.93508 -1.745433,2.098516 v 32.978909 c -0.203395,0.113606 -2.610782,1.390072 -5.127486,-0.47522 -0.0028,-0.002 -0.006,-0.0023 -0.0089,-0.0044 A 12.87924,16.385288 0 0 0 24.422348,52.042959 12.87924,16.385288 0 0 0 13.57002,59.73752 h -2.027455 v 8.689412 a 12.87924,16.385288 0 0 0 12.879783,16.386194 12.87924,16.385288 0 0 0 8.516202,-4.097104 c 2.214258,-1.134356 4.163578,-0.113413 4.363582,-0.0023 v 33.138798 c 0,1.16343 0.778232,2.09851 1.745433,2.09851 h 26.481279 c 0.03949,-0.0821 0.480284,-1.0551 0.47744,-2.4094 h 0.01114 V 104.85 H 62.39554 a 15.047871,14.023916 0 0 1 -0.335318,-2.9135 15.047871,14.023916 0 0 1 15.04714,-14.023423 15.047871,14.023916 0 0 1 15.049361,14.023423 15.047871,14.023916 0 0 1 -0.379731,2.9135 h -3.875039 v 8.69163 h 0.01114 c -0.0038,1.3512 0.434459,2.31962 0.47744,2.4094 H 114.7097 c 0.9672,0 1.74543,-0.93508 1.74543,-2.09851 V 80.878096 c 2.3e-4,-1.22e-4 0.002,1.23e-4 0.002,0 V 68.344735 a 12.87924,16.385288 0 0 0 -0.002,0.06218 v -0.05774 l 0.002,-0.0044 V 55.989024 c -2e-4,-1.09e-4 -0.002,1.07e-4 -0.002,0 V 22.839126 c 0,-1.163436 -0.77822,-2.098516 -1.74543,-2.098516 H 98.365741 V 13.958737 H 87.924233 v 2.085194 h -0.0023 v 6.757444 c -0.04252,0.776615 0.04451,1.701142 0.468558,2.682548 a 15.047871,14.023916 0 0 1 3.766226,9.271224 15.047871,14.023916 0 0 1 -15.049386,14.023419 15.047871,14.023916 0 0 1 -15.04714,-14.023419 15.047871,14.023916 0 0 1 3.024528,-8.434038 c 0.0019,-0.0031 0.0048,-0.0056 0.0067,-0.0089 0.850118,-1.359945 0.989426,-2.689392 0.901584,-3.71071 v -1.434542 h 0.0023 v -7.20822 z M 37.295502,68.178185 c 6.36e-4,0.0013 0.0048,0.0076 0.0067,0.01114 v 0.153225 l -0.0023,0.0023 a 12.87924,16.385288 0 0 0 -0.0044,-0.16655 z" />
    <path
       id="path974"
       style="fill:#47d891;fill-opacity:1;stroke:#000000;stroke-width:0.0851015;stroke-opacity:0"
       d="m 39.047597,12.048977 c -0.967201,0 -1.745433,0.935078 -1.745433,2.098516 v 32.981128 c -0.203395,0.113618 -2.610784,1.390075 -5.127486,-0.475218 -0.0028,-0.002 -0.0039,-0.0047 -0.0067,-0.0067 A 12.879241,16.385288 0 0 0 24.422334,43.351247 12.879241,16.385288 0 0 0 11.542551,59.73744 12.879241,16.385288 0 0 0 24.422334,76.121413 12.879241,16.385288 0 0 0 32.936316,72.02431 c 2.214258,-1.134354 4.165799,-0.111207 4.365802,0 v 33.1388 c 0,1.16344 0.778233,2.09851 1.745434,2.09851 H 65.52883 c 0.06655,-0.13827 1.305535,-2.78553 -0.437468,-5.57384 -0.0019,-0.003 -0.0048,-0.006 -0.0067,-0.009 A 15.047871,14.023916 0 0 1 62.060225,93.244769 15.047871,14.023916 0 0 1 77.107365,79.22135 15.047871,14.023916 0 0 1 92.154506,93.244769 15.047871,14.023916 0 0 1 88.39272,102.51599 c -1.064346,2.46333 -0.06735,4.60935 -0.0023,4.74554 h 26.31917 c 0.9672,0 1.74543,-0.93508 1.74543,-2.09852 V 87.655527 72.188683 59.7175 59.657543 32.490081 h 0.002 V 14.147493 c 0,-1.163437 -0.78045,-2.098516 -1.74766,-2.098516 H 88.388271 c -0.116399,0.251127 -1.027624,2.354649 0.0044,4.743313 a 15.047871,14.023916 0 0 1 3.761793,9.271224 15.047871,14.023916 0 0 1 -15.047141,14.02564 15.047871,14.023916 0 0 1 -15.049361,-14.02564 15.047871,14.023916 0 0 1 3.026749,-8.431817 c 0.0019,-0.0031 0.0049,-0.0057 0.0067,-0.0089 1.700235,-2.719887 0.559052,-5.318133 0.439689,-5.573837 z m -1.752095,47.439796 c 6.38e-4,0.0014 0.0049,0.0075 0.0067,0.01114 v 0.151004 c -2.8e-4,6.94e-4 -0.0019,0.004 -0.0023,0.0044 a 12.879241,16.385288 0 0 0 -0.0044,-0.16655 z" />
  </g>
</svg>
