<?xml version="1.0" encoding="UTF-8" standalone="no"?>
<!-- Created with Inkscape (http://www.inkscape.org/) -->

<svg
   width="128"
   height="128"
   viewBox="0 0 128 128"
   version="1.1"
   id="svg5"
   inkscape:version="1.2.2 (b0a8486541, 2022-12-01)"
   sodipodi:docname="org.mozilla.firefox.svg"
   xmlns:inkscape="http://www.inkscape.org/namespaces/inkscape"
   xmlns:sodipodi="http://sodipodi.sourceforge.net/DTD/sodipodi-0.dtd"
   xmlns:xlink="http://www.w3.org/1999/xlink"
   xmlns="http://www.w3.org/2000/svg"
   xmlns:svg="http://www.w3.org/2000/svg">
  <sodipodi:namedview
     id="namedview7"
     pagecolor="#ffffff"
     bordercolor="#666666"
     borderopacity="1"
     inkscape:pageshadow="2"
     inkscape:pageopacity="0.0"
     inkscape:pagecheckerboard="true"
     inkscape:document-units="px"
     showgrid="false"
     inkscape:showpageshadow="false"
     showborder="true"
     inkscape:snap-page="true"
     inkscape:zoom="3.504907"
     inkscape:cx="12.553828"
     inkscape:cy="71.613883"
     inkscape:window-width="1366"
     inkscape:window-height="731"
     inkscape:window-x="0"
     inkscape:window-y="0"
     inkscape:window-maximized="1"
     inkscape:current-layer="layer2"
     inkscape:snap-global="true"
     inkscape:deskcolor="#d1d1d1" />
  <defs
     id="defs2">
    <linearGradient
       inkscape:collect="always"
       id="linearGradient6595">
      <stop
         style="stop-color:#6c112a;stop-opacity:1;"
         offset="0"
         id="stop6591" />
      <stop
         style="stop-color:#d91647;stop-opacity:1;"
         offset="1"
         id="stop6593" />
    </linearGradient>
    <linearGradient
       inkscape:collect="always"
       id="linearGradient203582">
      <stop
         style="stop-color:#9e4f00;stop-opacity:1;"
         offset="0"
         id="stop203578" />
      <stop
         style="stop-color:#ffa918;stop-opacity:1"
         offset="1"
         id="stop203580" />
    </linearGradient>
    <linearGradient
       inkscape:collect="always"
       id="linearGradient63723">
      <stop
         style="stop-color:#b31c1d;stop-opacity:1;"
         offset="0"
         id="stop63719" />
      <stop
         style="stop-color:#fea553;stop-opacity:1"
         offset="1"
         id="stop63721" />
    </linearGradient>
    <linearGradient
       y2="236"
       x2="96"
       y1="236"
       x1="32"
       gradientTransform="translate(604.81684,170.58641)"
       gradientUnits="userSpaceOnUse"
       id="linearGradient1099"
       xlink:href="#linearGradient1036" />
    <linearGradient
       id="linearGradient1036">
      <stop
         id="stop1032"
         offset="0"
         style="stop-color:#d5d3cf;stop-opacity:1;" />
      <stop
         id="stop1034"
         offset="1"
         style="stop-color:#f6f5f4;stop-opacity:1" />
    </linearGradient>
    <radialGradient
       r="32"
       fy="-76"
       fx="-244"
       cy="-76"
       cx="-244"
       gradientTransform="matrix(0.88333331,0,0,0.88333331,-460.35018,463.11973)"
       gradientUnits="userSpaceOnUse"
       id="radialGradient1103"
       xlink:href="#linearGradient1069" />
    <linearGradient
       id="linearGradient1069">
      <stop
         id="stop1065"
         offset="0"
         style="stop-color:#d5d3cf;stop-opacity:1" />
      <stop
         id="stop1067-1"
         offset="1"
         style="stop-color:#949390;stop-opacity:1" />
    </linearGradient>
    <linearGradient
       gradientUnits="userSpaceOnUse"
       y2="232"
       x2="64"
       y1="262.5"
       x1="64"
       id="linearGradient1027"
       xlink:href="#linearGradient1025"
       gradientTransform="translate(-470.5864,432.81685)" />
    <linearGradient
       id="linearGradient1025">
      <stop
         id="stop1021"
         offset="0"
         style="stop-color:#9a9996;stop-opacity:1" />
      <stop
         id="stop1023"
         offset="1"
         style="stop-color:#77767b;stop-opacity:1" />
    </linearGradient>
    <inkscape:path-effect
       effect="spiro"
       id="path-effect35304-9"
       is_visible="true" />
    <clipPath
       clipPathUnits="userSpaceOnUse"
       id="clipPath1609-7">
      <path
         sodipodi:nodetypes="cccccc"
         inkscape:connector-curvature="0"
         id="path1611-5"
         d="m 252,116 28,-28 v -8 h -36 v 36 z"
         style="fill:#e74747;stroke:none;stroke-width:0.25px;stroke-linecap:butt;stroke-linejoin:miter;stroke-opacity:1" />
    </clipPath>
    <radialGradient
       r="32"
       fy="-76"
       fx="-244"
       cy="-76"
       cx="-244"
       gradientTransform="matrix(0.88333331,0,0,0.88333331,-460.35018,463.11973)"
       gradientUnits="userSpaceOnUse"
       id="radialGradient1103-5"
       xlink:href="#linearGradient1069" />
    <inkscape:path-effect
       effect="spiro"
       id="path-effect35304-9-2"
       is_visible="true" />
    <clipPath
       clipPathUnits="userSpaceOnUse"
       id="clipPath1609-7-7">
      <path
         sodipodi:nodetypes="cccccc"
         inkscape:connector-curvature="0"
         id="path1611-5-0"
         d="m 252,116 28,-28 v -8 h -36 v 36 z"
         style="fill:#e74747;stroke:none;stroke-width:0.25px;stroke-linecap:butt;stroke-linejoin:miter;stroke-opacity:1" />
    </clipPath>
    <clipPath
       clipPathUnits="userSpaceOnUse"
       id="clipPath744">
      <rect
         style="fill:#1e88e5;fill-opacity:1;stroke-width:0.264583"
         id="rect746"
         width="541.86664"
         height="541.86664"
         x="0"
         y="1.5987212e-14"
         rx="79.375"
         ry="79.375" />
    </clipPath>
    <clipPath
       clipPathUnits="userSpaceOnUse"
       id="clipPath62">
      <rect
         style="fill:#1e88e5;fill-opacity:1;stroke-width:0.264583"
         id="rect64"
         width="541.86664"
         height="541.86664"
         x="2.2507105e-05"
         y="-0.42205024"
         rx="79.375"
         ry="79.375" />
    </clipPath>
    <radialGradient
       r="32"
       fy="-76"
       fx="-244"
       cy="-76"
       cx="-244"
       gradientTransform="matrix(0.88333331,0,0,0.88333331,-460.35018,463.11973)"
       gradientUnits="userSpaceOnUse"
       id="radialGradient1103-6"
       xlink:href="#linearGradient1069" />
    <inkscape:path-effect
       effect="spiro"
       id="path-effect35304-9-20"
       is_visible="true" />
    <clipPath
       clipPathUnits="userSpaceOnUse"
       id="clipPath1609-7-2">
      <path
         sodipodi:nodetypes="cccccc"
         inkscape:connector-curvature="0"
         id="path1611-5-3"
         d="m 252,116 28,-28 v -8 h -36 v 36 z"
         style="fill:#e74747;stroke:none;stroke-width:0.25px;stroke-linecap:butt;stroke-linejoin:miter;stroke-opacity:1" />
    </clipPath>
    <radialGradient
       id="a"
       cx="-1186.91"
       cy="-517.676"
       r="90.78"
       gradientTransform="matrix(1.4002632,0,0,1.4002632,1770.1497,753.91708)"
       gradientUnits="userSpaceOnUse">
      <stop
         offset="0"
         stop-color="#fff36e"
         id="stop858" />
      <stop
         offset=".5"
         stop-color="#fc4055"
         id="stop860" />
      <stop
         offset="1"
         stop-color="#e31587"
         id="stop862" />
    </radialGradient>
    <radialGradient
       id="b"
       cx="-1251.812"
       cy="-513.921"
       r="53.726"
       gradientTransform="matrix(1.4002632,0,0,1.4002632,1770.1497,753.91708)"
       gradientUnits="userSpaceOnUse">
      <stop
         offset=".001"
         stop-color="#c60084"
         id="stop865" />
      <stop
         offset="1"
         stop-color="#fc4055"
         stop-opacity="0"
         id="stop867" />
    </radialGradient>
    <radialGradient
       id="c"
       cx="-1179.15"
       cy="-522.842"
       r="106.599"
       gradientTransform="matrix(1.4002632,0,0,1.4002632,1770.1497,753.91708)"
       gradientUnits="userSpaceOnUse">
      <stop
         offset="0"
         stop-color="#ffde67"
         stop-opacity=".6"
         id="stop870" />
      <stop
         offset=".093"
         stop-color="#ffd966"
         stop-opacity=".581"
         id="stop872" />
      <stop
         offset=".203"
         stop-color="#ffca65"
         stop-opacity=".525"
         id="stop874" />
      <stop
         offset=".321"
         stop-color="#feb262"
         stop-opacity=".432"
         id="stop876" />
      <stop
         offset=".446"
         stop-color="#fe8f5e"
         stop-opacity=".302"
         id="stop878" />
      <stop
         offset=".573"
         stop-color="#fd6459"
         stop-opacity=".137"
         id="stop880" />
      <stop
         offset=".664"
         stop-color="#fc4055"
         stop-opacity="0"
         id="stop882" />
    </radialGradient>
    <radialGradient
       id="d"
       cx="42.285"
       cy="44.499"
       r="137.521"
       gradientTransform="matrix(1.4002632,0,0,1.4002632,8.00114,5.9580941)"
       gradientUnits="userSpaceOnUse">
      <stop
         offset=".153"
         stop-color="#810220"
         id="stop885" />
      <stop
         offset=".167"
         stop-color="#920b27"
         stop-opacity=".861"
         id="stop887" />
      <stop
         offset=".216"
         stop-color="#cb2740"
         stop-opacity=".398"
         id="stop889" />
      <stop
         offset=".253"
         stop-color="#ef394f"
         stop-opacity=".11"
         id="stop891" />
      <stop
         offset=".272"
         stop-color="#fc4055"
         stop-opacity="0"
         id="stop893" />
    </radialGradient>
    <radialGradient
       id="e"
       cx="31.878"
       cy="42.77"
       r="137.521"
       gradientTransform="matrix(1.4002632,0,0,1.4002632,8.00114,5.9580941)"
       gradientUnits="userSpaceOnUse">
      <stop
         offset=".113"
         stop-color="#810220"
         id="stop896" />
      <stop
         offset=".133"
         stop-color="#920b27"
         stop-opacity=".861"
         id="stop898" />
      <stop
         offset=".204"
         stop-color="#cb2740"
         stop-opacity=".398"
         id="stop900" />
      <stop
         offset=".257"
         stop-color="#ef394f"
         stop-opacity=".11"
         id="stop902" />
      <stop
         offset=".284"
         stop-color="#fc4055"
         stop-opacity="0"
         id="stop904" />
    </radialGradient>
    <linearGradient
       id="f"
       x1="-1212.61"
       y1="-525.103"
       x2="-1189.052"
       y2="-484.299"
       gradientTransform="matrix(1.4002632,0,0,1.4002632,1640.0662,742.74378)"
       gradientUnits="userSpaceOnUse">
      <stop
         offset="0"
         stop-color="#ffbd4f"
         id="stop907" />
      <stop
         offset=".508"
         stop-color="#ff9640"
         stop-opacity="0"
         id="stop909" />
    </linearGradient>
    <radialGradient
       id="g"
       cx="-1255.933"
       cy="-77.395"
       r="88.863"
       gradientTransform="matrix(1.3428524,0,0,1.3456529,1661.7073,117.63548)"
       gradientUnits="userSpaceOnUse">
      <stop
         offset="0"
         stop-color="#ff9640"
         id="stop912" />
      <stop
         offset=".8"
         stop-color="#fc4055"
         id="stop914" />
    </radialGradient>
    <radialGradient
       id="h"
       cx="-1255.933"
       cy="-77.395"
       r="88.863"
       gradientTransform="matrix(1.3428524,0,0,1.3456529,1791.7908,127.16907)"
       gradientUnits="userSpaceOnUse">
      <stop
         offset=".084"
         stop-color="#ffde67"
         id="stop917" />
      <stop
         offset=".147"
         stop-color="#ffdc66"
         stop-opacity=".968"
         id="stop919" />
      <stop
         offset=".246"
         stop-color="#ffd562"
         stop-opacity=".879"
         id="stop921" />
      <stop
         offset=".369"
         stop-color="#ffcb5d"
         stop-opacity=".734"
         id="stop923" />
      <stop
         offset=".511"
         stop-color="#ffbc55"
         stop-opacity=".533"
         id="stop925" />
      <stop
         offset=".667"
         stop-color="#ffaa4b"
         stop-opacity=".28"
         id="stop927" />
      <stop
         offset=".822"
         stop-color="#ff9640"
         stop-opacity="0"
         id="stop929" />
    </radialGradient>
    <radialGradient
       id="i"
       cx="49.941"
       cy="38.654"
       r="41.79"
       gradientTransform="matrix(0.34586501,1.3596556,-1.4156661,0.36266817,115.37472,-21.705506)"
       gradientUnits="userSpaceOnUse">
      <stop
         offset=".363"
         stop-color="#fc4055"
         id="stop932" />
      <stop
         offset=".443"
         stop-color="#fd604d"
         stop-opacity=".633"
         id="stop934" />
      <stop
         offset=".545"
         stop-color="#fe8644"
         stop-opacity=".181"
         id="stop936" />
      <stop
         offset=".59"
         stop-color="#ff9640"
         stop-opacity="0"
         id="stop938" />
    </radialGradient>
    <radialGradient
       id="j"
       cx="42.737"
       cy="42.193"
       r="41.79"
       gradientTransform="matrix(1.4002632,0,0,1.4002632,8.00114,5.9580941)"
       gradientUnits="userSpaceOnUse">
      <stop
         offset=".216"
         stop-color="#fc4055"
         stop-opacity=".8"
         id="stop941" />
      <stop
         offset=".267"
         stop-color="#fd5251"
         stop-opacity=".633"
         id="stop943" />
      <stop
         offset=".41"
         stop-color="#fe8345"
         stop-opacity=".181"
         id="stop945" />
      <stop
         offset=".474"
         stop-color="#ff9640"
         stop-opacity="0"
         id="stop947" />
    </radialGradient>
    <radialGradient
       id="k"
       cx="-1238.198"
       cy="-87.433"
       r="150.195"
       gradientTransform="matrix(1.3428524,0,0,1.3456529,1661.7073,117.63548)"
       gradientUnits="userSpaceOnUse">
      <stop
         offset=".054"
         stop-color="#fff36e"
         id="stop950" />
      <stop
         offset=".457"
         stop-color="#ff9640"
         id="stop952" />
      <stop
         offset=".639"
         stop-color="#ff9640"
         id="stop954" />
    </radialGradient>
    <linearGradient
       id="l"
       x1="59.052"
       y1="7.083"
       x2="18.155"
       y2="77.92"
       gradientUnits="userSpaceOnUse"
       gradientTransform="matrix(1.4002632,0,0,1.4002632,8.00114,6.0911191)">
      <stop
         offset="0"
         stop-color="#fff36e"
         stop-opacity=".8"
         id="stop957" />
      <stop
         offset=".094"
         stop-color="#fff36e"
         stop-opacity=".699"
         id="stop959" />
      <stop
         offset=".752"
         stop-color="#fff36e"
         stop-opacity="0"
         id="stop961" />
    </linearGradient>
    <linearGradient
       id="m"
       x1="40.585"
       y1="-.67"
       x2="62.3"
       y2="62.203"
       gradientUnits="userSpaceOnUse"
       gradientTransform="matrix(1.4002632,0,0,1.4002632,8.00114,6.0911191)">
      <stop
         offset="0"
         stop-color="#b833e1"
         id="stop964" />
      <stop
         offset=".371"
         stop-color="#9059ff"
         id="stop966" />
      <stop
         offset=".614"
         stop-color="#5b6df8"
         id="stop968" />
      <stop
         offset="1"
         stop-color="#0090ed"
         id="stop970" />
    </linearGradient>
    <linearGradient
       id="n"
       x1="-1230.731"
       y1="-532.566"
       x2="-1190.37"
       y2="-492.205"
       gradientTransform="matrix(1.4002632,0,0,1.4002632,1770.1497,752.27737)"
       gradientUnits="userSpaceOnUse">
      <stop
         offset=".805"
         stop-color="#722291"
         stop-opacity="0"
         id="stop973" />
      <stop
         offset="1"
         stop-color="#592acb"
         stop-opacity=".5"
         id="stop975"
         style="stop-color:#321773;stop-opacity:0.50196081" />
    </linearGradient>
    <linearGradient
       inkscape:collect="always"
       xlink:href="#f"
       id="linearGradient29928"
       gradientUnits="userSpaceOnUse"
       gradientTransform="matrix(1.4002632,0,0,1.4002632,1770.1497,752.27737)"
       x1="-1212.61"
       y1="-525.103"
       x2="-1189.052"
       y2="-484.299" />
    <radialGradient
       inkscape:collect="always"
       xlink:href="#g"
       id="radialGradient29930"
       gradientUnits="userSpaceOnUse"
       gradientTransform="matrix(1.3428524,0,0,1.3456529,1791.7908,127.16907)"
       cx="-1255.933"
       cy="-77.395"
       r="88.863" />
    <radialGradient
       inkscape:collect="always"
       xlink:href="#k"
       id="radialGradient29932"
       gradientUnits="userSpaceOnUse"
       gradientTransform="matrix(1.3428524,0,0,1.3456529,1791.7908,127.16907)"
       cx="-1238.198"
       cy="-87.433"
       r="150.195" />
    <linearGradient
       inkscape:collect="always"
       xlink:href="#linearGradient63723"
       id="linearGradient63725"
       x1="55.882427"
       y1="110.41429"
       x2="55.882427"
       y2="25.147078"
       gradientUnits="userSpaceOnUse"
       gradientTransform="translate(0,-2)" />
    <linearGradient
       inkscape:collect="always"
       xlink:href="#linearGradient203582"
       id="linearGradient203584"
       x1="72.548775"
       y1="90.836075"
       x2="72.548775"
       y2="45.738731"
       gradientUnits="userSpaceOnUse"
       gradientTransform="translate(0,-2)" />
    <linearGradient
       inkscape:collect="always"
       xlink:href="#linearGradient6595"
       id="linearGradient6597"
       x1="8.0492633"
       y1="64.394523"
       x2="119.79735"
       y2="64.394523"
       gradientUnits="userSpaceOnUse" />
  </defs>
  <g
     inkscape:groupmode="layer"
     id="layer2"
     inkscape:label="Layer 1">
    <path
       id="path1500"
       style="fill:url(#linearGradient6597);fill-opacity:1;stroke-width:1.40026"
       d="M 63.84375,6.1015625 C 52.121789,6.3278259 43.927375,9.948727 39.162109,12.894531 45.963189,8.949989 55.806618,6.7116446 64.423828,6.8222656 83.159873,7.0589807 103.06435,17.882603 110.91211,37.658203 A 56.097344,56.097344 0 0 0 108.74219,34.076172 55.268389,55.268389 0 0 0 66.234375,12.103516 c -13.00565,-0.26045 -21.989316,3.648824 -27.072266,6.791015 6.80108,-3.944542 16.644509,-6.182886 25.261719,-6.072265 22.16617,0.280052 45.972152,15.376023 49.507812,42.585937 0.195,1.499867 0.31281,2.983293 0.39063,4.457031 -1.42757,26.384279 -21.578461,46.855076 -48.689458,46.925786 -28.850479,0.0732 -47.998313,-21.806836 -49.52539,-44.917973 0.127358,-1.868976 0.360452,-3.735081 0.730469,-5.585938 a 27.634194,27.634194 0 0 1 0.578125,-3.902343 52.950953,52.950953 0 0 1 5.871093,-19.628907 v -5.996093 l -0.0039,0.0059 a 52.950953,52.950953 0 0 1 0.0039,-0.0098 c -3.87733,2.006578 -8.81354,8.352164 -11.25,14.230469 a 57.907885,57.907885 0 0 0 -3.8730465,24.261719 57.907885,57.907885 0 0 0 0.234375,9.994141 c 0.084,0.725336 0.1606394,1.450186 0.2558594,2.169921 A 56.097344,56.097344 0 0 0 119.72266,63.707031 56.097344,56.097344 0 0 0 108.74219,28.076172 55.268389,55.268389 0 0 0 66.234375,6.1035156 c -0.812853,-0.016278 -1.609161,-0.017037 -2.390625,-0.00195 z" />
    <path
       d="M 108.74168,28.075251 A 55.268389,55.268389 0 0 0 66.235286,6.1037215 C 53.229641,5.8432725 44.245553,9.751407 39.162597,12.893598 45.963676,8.949056 55.806126,6.7114357 64.423345,6.8220565 86.589512,7.1021091 110.39679,22.198347 113.93245,49.408261 117.99321,80.642532 96.237325,106.71123 65.633173,106.79105 31.963844,106.87647 11.48499,77.06486 16.8382,50.287626 a 27.634194,27.634194 0 0 1 0.57831,-3.902533 52.950953,52.950953 0 0 1 5.8713,-19.62889 c -3.87733,2.006578 -8.81465,8.35257 -11.25111,14.230875 A 57.907885,57.907885 0 0 0 8.39881,69.242989 c 0.084,0.725337 0.15963,1.449273 0.25485,2.169008 A 56.097344,56.097344 0 1 0 108.74168,28.075251 Z m -88.77669,4.882718 z"
       fill="url(#a)"
       id="path980"
       style="fill:url(#a);stroke-width:1.40026" />
    <path
       d="M 108.74168,28.075251 A 55.268389,55.268389 0 0 0 66.235286,6.1037215 C 53.229641,5.8432725 44.245553,9.751407 39.162597,12.893598 45.963676,8.949056 55.806126,6.7114357 64.423345,6.8220565 86.589512,7.1021091 110.39679,22.198347 113.93245,49.408261 117.99321,80.642532 96.237325,106.71123 65.633173,106.79105 31.963844,106.87647 11.48499,77.06486 16.8382,50.287626 a 27.634194,27.634194 0 0 1 0.57831,-3.902533 52.950953,52.950953 0 0 1 5.8713,-19.62889 c -3.87733,2.006578 -8.81465,8.35257 -11.25111,14.230875 A 57.907885,57.907885 0 0 0 8.39881,69.242989 c 0.084,0.725337 0.15963,1.449273 0.25485,2.169008 A 56.097344,56.097344 0 1 0 108.74168,28.075251 Z m -88.77669,4.882718 z"
       fill="url(#b)"
       opacity="0.67"
       id="path982"
       style="fill:url(#b);stroke-width:1.40026" />
    <path
       d="M 108.74168,28.075251 A 55.268389,55.268389 0 0 0 66.235286,6.1037215 C 53.229641,5.8432725 44.245553,9.751407 39.162597,12.893598 45.963676,8.949056 55.806126,6.7114357 64.423345,6.8220565 86.589512,7.1021091 110.39679,22.198347 113.93245,49.408261 117.99321,80.642532 96.237325,106.71123 65.633173,106.79105 31.963844,106.87647 11.48499,77.06486 16.8382,50.287626 a 27.634194,27.634194 0 0 1 0.57831,-3.902533 52.950953,52.950953 0 0 1 5.8713,-19.62889 c -3.87733,2.006578 -8.81465,8.35257 -11.25111,14.230875 A 57.907885,57.907885 0 0 0 8.39881,69.242989 c 0.084,0.725337 0.15963,1.449273 0.25485,2.169008 A 56.097344,56.097344 0 1 0 108.74168,28.075251 Z m -88.77669,4.882718 z"
       fill="url(#c)"
       id="path984"
       style="fill:url(#c);stroke-width:1.40026" />
    <path
       d="M 108.74168,28.075251 A 55.268389,55.268389 0 0 0 66.235286,6.1037215 C 53.229641,5.8432725 44.245553,9.751407 39.162597,12.893598 45.963676,8.949056 55.806126,6.7114357 64.423345,6.8220565 86.589512,7.1021091 110.39679,22.198347 113.93245,49.408261 117.99321,80.642532 96.237325,106.71123 65.633173,106.79105 31.963844,106.87647 11.48499,77.06486 16.8382,50.287626 a 27.634194,27.634194 0 0 1 0.57831,-3.902533 52.950953,52.950953 0 0 1 5.8713,-19.62889 c -3.87733,2.006578 -8.81465,8.35257 -11.25111,14.230875 A 57.907885,57.907885 0 0 0 8.39881,69.242989 c 0.084,0.725337 0.15963,1.449273 0.25485,2.169008 A 56.097344,56.097344 0 1 0 108.74168,28.075251 Z m -88.77669,4.882718 z"
       fill="url(#d)"
       id="path986"
       style="fill:url(#d);stroke-width:1.40026" />
    <path
       d="M 108.74168,28.075251 A 55.268389,55.268389 0 0 0 66.235286,6.1037215 C 53.229641,5.8432725 44.245553,9.751407 39.162597,12.893598 45.963676,8.949056 55.806126,6.7114357 64.423345,6.8220565 86.589512,7.1021091 110.39679,22.198347 113.93245,49.408261 117.99321,80.642532 96.237325,106.71123 65.633173,106.79105 31.963844,106.87647 11.48499,77.06486 16.8382,50.287626 a 27.634194,27.634194 0 0 1 0.57831,-3.902533 52.950953,52.950953 0 0 1 5.8713,-19.62889 c -3.87733,2.006578 -8.81465,8.35257 -11.25111,14.230875 A 57.907885,57.907885 0 0 0 8.39881,69.242989 c 0.084,0.725337 0.15963,1.449273 0.25485,2.169008 A 56.097344,56.097344 0 1 0 108.74168,28.075251 Z m -88.77669,4.882718 z"
       fill="url(#e)"
       id="path988"
       style="fill:url(#e);stroke-width:1.40026" />
    <path
       d="m 113.93245,49.408261 a 57.424794,57.424794 0 0 1 0.42008,10.147708 q 2.78652,-0.420079 5.58285,-0.74214 A 56.024531,56.024531 0 0 0 108.74168,28.075251 55.268389,55.268389 0 0 0 66.235286,6.1037215 C 53.229641,5.8432725 44.245553,9.751407 39.162597,12.893598 45.963676,8.949056 55.806126,6.7114357 64.423345,6.8220565 86.589512,7.1049097 110.39679,22.194146 113.93245,49.408261 Z"
       fill="url(#f)"
       id="path990"
       style="fill:url(#linearGradient29928);stroke-width:1.40026" />
    <path
       id="path1512"
       style="fill:url(#linearGradient63725);fill-opacity:1;stroke-width:1.40026"
       d="m 64.423828,8.822266 c -8.61862,0.070013 -18.460639,2.127723 -25.261719,6.072265 a 27.585185,27.585185 0 0 0 -4.984375,3.779297 c 0.18063,-0.149828 0.719922,-0.593716 1.613282,-1.207031 l 0.08789,-0.06055 0.07813,-0.05273 A 37.324016,37.324016 0 0 1 46.728516,12.351562 60.911449,60.911449 0 0 1 65.1875,10.191406 46.564352,46.564352 0 0 1 108.94531,54.990234 C 109.45921,73.483511 94.324233,88.22787 76.876953,89.082031 64.187773,89.703747 52.231678,83.564358 46.392578,71.28125 a 30.357706,30.357706 0 0 1 -2.75,-8.869141 C 40.875658,43.718595 53.429846,27.77742 64.941406,23.830078 v -2 l -4.519531,-0.472656 0.002,0.0098 c -7.521899,-2.516972 -19.47668,-0.957899 -28.835937,5.927734 -8.33996,6.135953 -13.750629,15.470024 -15.542969,26.603516 a 46.131671,46.131671 0 0 0 3.277344,25.205078 49.429291,49.429291 0 0 0 42.132812,30.027344 c 1.389993,0.10642 2.782141,0.15914 4.177734,0.1582 37.053768,0 53.129718,-28.127906 49.664068,-59.433591 C 112.14487,21.418924 86.784638,8.637431 64.423828,8.822266 Z" />
    <path
       d="M 115.29631,47.855369 C 112.14431,19.418824 86.784148,6.6372217 64.423345,6.8220565 55.804725,6.8920695 45.963676,8.949056 39.162597,12.893598 a 27.585185,27.585185 0 0 0 -4.984937,3.78071 c 0.180634,-0.149828 0.719736,-0.593711 1.613103,-1.207026 l 0.08822,-0.06021 0.07841,-0.05321 a 37.324016,37.324016 0 0 1 10.770824,-5.001741 60.911449,60.911449 0 0 1 18.45967,-2.160606 46.564352,46.564352 0 0 1 43.758223,44.79862 C 109.46001,71.483411 94.324564,86.228182 76.877284,87.082343 64.188099,87.704059 52.232652,81.563905 46.393554,69.280797 A 30.357706,30.357706 0 0 1 43.643437,60.41293 C 40.876517,41.719416 53.429877,25.777419 64.941441,21.830077 58.731273,16.405458 43.170149,16.773727 31.588572,25.294329 23.24861,31.430282 17.83799,40.765837 16.04565,51.899329 a 46.131671,46.131671 0 0 0 3.27662,25.204738 49.429291,49.429291 0 0 0 42.132515,30.025843 q 2.084992,0.15963 4.178386,0.15823 c 37.053769,0 53.128789,-28.127086 49.663139,-59.432771 z"
       fill="url(#g)"
       id="path992"
       style="fill:url(#radialGradient29930);stroke-width:1.40026" />
    <path
       d="M 115.29631,47.855369 C 112.14431,19.418824 86.784148,6.6372217 64.423345,6.8220565 55.804725,6.8920695 45.963676,8.949056 39.162597,12.893598 a 27.585185,27.585185 0 0 0 -4.984937,3.78071 c 0.180634,-0.149828 0.719736,-0.593711 1.613103,-1.207026 l 0.08822,-0.06021 0.07841,-0.05321 a 37.324016,37.324016 0 0 1 10.770824,-5.001741 60.911449,60.911449 0 0 1 18.45967,-2.160606 46.564352,46.564352 0 0 1 43.758223,44.79862 C 109.46001,71.483411 94.324564,86.228182 76.877284,87.082343 64.188099,87.704059 52.232652,81.563905 46.393554,69.280797 A 30.357706,30.357706 0 0 1 43.643437,60.41293 C 40.876517,41.719416 53.429877,25.777419 64.941441,21.830077 58.731273,16.405458 43.170149,16.773727 31.588572,25.294329 23.24861,31.430282 17.83799,40.765837 16.04565,51.899329 a 46.131671,46.131671 0 0 0 3.27662,25.204738 49.429291,49.429291 0 0 0 42.132515,30.025843 q 2.084992,0.15963 4.178386,0.15823 c 37.053769,0 53.128789,-28.127086 49.663139,-59.432771 z"
       fill="url(#h)"
       id="path994"
       style="fill:url(#h);stroke-width:1.40026" />
    <path
       d="M 115.29631,47.855369 C 112.14431,19.418824 86.784148,6.6372217 64.423345,6.8220565 55.804725,6.8920695 45.963676,8.949056 39.162597,12.893598 a 27.585185,27.585185 0 0 0 -4.984937,3.78071 c 0.180634,-0.149828 0.719736,-0.593711 1.613103,-1.207026 l 0.08822,-0.06021 0.07841,-0.05321 a 37.324016,37.324016 0 0 1 10.770824,-5.001741 60.911449,60.911449 0 0 1 18.45967,-2.160606 46.564352,46.564352 0 0 1 43.758223,44.79862 C 109.46001,71.483411 94.324564,86.228182 76.877284,87.082343 64.188099,87.704059 52.232652,81.563905 46.393554,69.280797 A 30.357706,30.357706 0 0 1 43.643437,60.41293 C 40.876517,41.719416 53.429877,25.777419 64.941441,21.830077 58.731273,16.405458 43.170149,16.773727 31.588572,25.294329 23.24861,31.430282 17.83799,40.765837 16.04565,51.899329 a 46.131671,46.131671 0 0 0 3.27662,25.204738 49.429291,49.429291 0 0 0 42.132515,30.025843 q 2.084992,0.15963 4.178386,0.15823 c 37.053769,0 53.128789,-28.127086 49.663139,-59.432771 z"
       style="mix-blend-mode:multiply;fill:url(#i);stroke-width:1.40026"
       opacity="0.53"
       fill="url(#i)"
       id="path996" />
    <path
       d="M 115.29631,47.855369 C 112.14431,19.418824 86.784148,6.6372217 64.423345,6.8220565 55.804725,6.8920695 45.963676,8.949056 39.162597,12.893598 a 27.585185,27.585185 0 0 0 -4.984937,3.78071 c 0.180634,-0.149828 0.719736,-0.593711 1.613103,-1.207026 l 0.08822,-0.06021 0.07841,-0.05321 a 37.324016,37.324016 0 0 1 10.770824,-5.001741 60.911449,60.911449 0 0 1 18.45967,-2.160606 46.564352,46.564352 0 0 1 43.758223,44.79862 C 109.46001,71.483411 94.324564,86.228182 76.877284,87.082343 64.188099,87.704059 52.232652,81.563905 46.393554,69.280797 A 30.357706,30.357706 0 0 1 43.643437,60.41293 C 40.876517,41.719416 53.429877,25.777419 64.941441,21.830077 58.731273,16.405458 43.170149,16.773727 31.588572,25.294329 23.24861,31.430282 17.83799,40.765837 16.04565,51.899329 a 46.131671,46.131671 0 0 0 3.27662,25.204738 49.429291,49.429291 0 0 0 42.132515,30.025843 q 2.084992,0.15963 4.178386,0.15823 c 37.053769,0 53.128789,-28.127086 49.663139,-59.432771 z"
       style="mix-blend-mode:multiply;fill:url(#j);stroke-width:1.40026"
       opacity="0.53"
       fill="url(#j)"
       id="path998" />
    <path
       id="path1520"
       style="fill:url(#linearGradient203584);fill-opacity:1;stroke-width:1.40026"
       d="m 68.359375,10.066406 c -1.036177,0.01692 -2.094022,0.05849 -3.171875,0.125 a 60.911449,60.911449 0 0 0 -18.458984,2.164063 40.404595,40.404595 0 0 0 -10.771485,5.001953 l -0.07813,0.05469 -0.08789,0.05859 c -0.535834,0.373403 -1.059773,0.767076 -1.572266,1.179688 A 46.883612,46.883612 0 0 1 63.591797,13.138672 C 83.394317,15.73756 101.5,31.142529 101.5,51.46875 101.5,67.108289 89.414179,79.053674 75.261719,78.195312 54.236769,76.935075 48.935597,55.370085 59.873047,46.052734 v -2 l -3.388672,0.890625 -0.06836,1.16211 c -2.842106,0.563321 -6.259088,2.389318 -8.892578,6.326172 -3.462851,5.180973 -3.265707,13.177142 -1.128907,18.849609 A 30.971021,30.971021 0 0 0 76.876953,89.082031 C 100.82145,87.625757 111.07212,67.798066 111.71484,53.732422 112.6861,32.442076 100.48088,9.54184 68.359375,10.066406 Z" />
    <path
       id="path1524"
       style="fill:#7014a0;fill-opacity:1;stroke-width:1.40026"
       d="M 65.164062,6.0898438 A 55.778084,55.778084 0 0 0 53.558594,7.2402344 C 45.600904,8.92055 38.603964,12.36356 34.177734,16.667969 a 44.948449,44.948449 0 0 1 0.02148,-0.0098 l -0.02148,0.01563 v 5.994141 a 44.948449,44.948449 0 0 1 11.246094,-4.482422 46.999834,46.999834 0 0 1 43.650391,11.34375 37.821109,37.821109 0 0 1 6.060547,7.419922 c 2.879156,4.681346 4.419781,9.867242 4.859375,14.921875 -0.416621,4.735045 -1.803298,9.105008 -3.998047,12.498047 -3.96975,6.138754 -12.471797,11.901196 -20.404297,11.833984 A 33.086819,33.086819 0 0 0 95.191406,71.523438 C 90.955488,77.210425 83.024211,82.2661 75.591797,82.203125 A 33.086819,33.086819 0 0 0 105.99219,66.980469 c 3.87443,-6.045246 5.14864,-13.232809 4.59179,-20.027344 0.42324,-5.053241 -0.25489,-10.134618 -1.74218,-14.640625 A 31.447111,31.447111 0 0 0 102.00586,20.908203 42.321555,42.321555 0 0 0 89.271484,11.816406 56.735864,56.735864 0 0 0 76.753906,7.3789062 55.778084,55.778084 0 0 0 65.164062,6.0898438 Z" />
    <path
       d="M 76.877286,87.082343 C 100.82179,85.626069 111.07171,65.798342 111.71443,51.732698 112.71702,29.755567 99.679172,6.0631138 65.187889,8.191514 a 60.911449,60.911449 0 0 0 -18.45967,2.164807 40.404595,40.404595 0 0 0 -10.770824,5.00174 l -0.07841,0.05321 -0.08822,0.06021 q -0.803751,0.560105 -1.572495,1.179022 a 46.883612,46.883612 0 0 1 29.373321,-5.511436 c 19.802522,2.598888 37.907929,18.003184 37.907929,38.329405 0,15.639539 -12.085675,27.585185 -26.238135,26.726823 C 54.236433,74.935059 48.936436,53.371006 59.873892,44.053655 56.924938,43.419335 51.382696,44.662769 47.523571,50.431854 44.06072,55.612827 44.256757,63.60833 46.393558,69.280797 a 30.971021,30.971021 0 0 0 30.48373,17.801546 z"
       fill="url(#k)"
       id="path1000"
       style="fill:url(#radialGradient29932);stroke-width:1.40026" />
    <path
       d="m 108.74168,28.075251 a 55.951717,55.951717 0 0 0 -4.87572,-5.575848 43.887049,43.887049 0 0 0 -4.448637,-4.09717 34.15662,34.15662 0 0 1 2.589087,2.506471 31.458313,31.458313 0 0 1 6.83609,11.403744 c 2.92514,8.862266 2.73471,19.95375 -2.85094,28.664788 A 32.960795,32.960795 0 0 1 76.78907,76.233103 c -0.505495,0 -1.015191,0 -1.527687,-0.03781 -21.024952,-1.260237 -26.324949,-22.82429 -15.386092,-32.141641 -2.950355,-0.63432 -8.492597,0.609114 -12.351722,6.378199 -3.462851,5.180973 -3.266814,13.176476 -1.130013,18.848943 A 30.356306,30.356306 0 0 1 43.64484,60.412927 C 40.876519,41.719413 53.429879,25.777416 64.941443,21.830074 58.731275,16.405455 43.170151,16.773724 31.588574,25.294326 A 38.990329,38.990329 0 0 0 17.46412,45.738168 53.910133,53.910133 0 0 1 23.28781,26.760401 c -3.87733,2.006577 -8.81465,8.35257 -11.25111,14.230875 a 57.907885,57.907885 0 0 0 -3.63789,28.25171 c 0.084,0.725337 0.15963,1.449273 0.25485,2.169008 A 56.097344,56.097344 0 1 0 108.74168,28.075251 Z"
       fill="url(#l)"
       id="path1002"
       style="fill:url(#l);stroke-width:1.40026" />
    <path
       d="M 108.8425,32.312448 A 31.447111,31.447111 0 0 0 102.00641,20.908704 42.321555,42.321555 0 0 0 89.272416,11.816795 56.735864,56.735864 0 0 0 76.754063,7.3793612 55.778084,55.778084 0 0 0 53.558703,7.2393349 C 45.601007,8.919651 38.603892,12.362898 34.17766,16.667307 a 44.948449,44.948449 0 0 1 11.245514,-4.480842 46.999834,46.999834 0 0 1 43.650405,11.342132 37.821109,37.821109 0 0 1 6.061739,7.421395 C 101.98961,42.094686 101.34129,56.10572 95.99648,64.368673 92.026734,70.507427 83.524336,76.27091 75.591845,76.203698 A 33.086819,33.086819 0 0 0 105.99156,60.981437 c 5.58565,-8.715239 5.77608,-19.806723 2.85094,-28.668989 z"
       fill="url(#m)"
       id="path1004"
       style="fill:url(#m);stroke-width:1.40026" />
    <path
       d="M 108.8425,32.312448 A 31.447111,31.447111 0 0 0 102.00641,20.908704 42.321555,42.321555 0 0 0 89.272416,11.816795 56.735864,56.735864 0 0 0 76.754063,7.3793612 55.778084,55.778084 0 0 0 53.558703,7.2393349 C 45.601007,8.919651 38.603892,12.362898 34.17766,16.667307 a 44.948449,44.948449 0 0 1 11.245514,-4.480842 46.999834,46.999834 0 0 1 43.650405,11.342132 37.821109,37.821109 0 0 1 6.061739,7.421395 C 101.98961,42.094686 101.34129,56.10572 95.99648,64.368673 92.026734,70.507427 83.524336,76.27091 75.591845,76.203698 A 33.086819,33.086819 0 0 0 105.99156,60.981437 c 5.58565,-8.715239 5.77608,-19.806723 2.85094,-28.668989 z"
       fill="url(#n)"
       id="path1006"
       style="fill:url(#n);stroke-width:1.40026" />
    <path
       style="fill:#7014a0;fill-opacity:1;stroke:none;stroke-width:1px;stroke-linecap:butt;stroke-linejoin:miter;stroke-opacity:1"
       d="m 34.17766,16.674308 v 5.992999 z"
       id="path29389" />
  </g>
</svg>
