<?xml version="1.0" encoding="UTF-8" standalone="no"?>
<!-- Created with Inkscape (http://www.inkscape.org/) -->

<svg
   width="128"
   height="128"
   viewBox="0 0 128 128"
   version="1.1"
   id="svg5"
   inkscape:version="1.2 (dc2aedaf03, 2022-05-15)"
   sodipodi:docname="org.gnome.Software.svg"
   xml:space="preserve"
   xmlns:inkscape="http://www.inkscape.org/namespaces/inkscape"
   xmlns:sodipodi="http://sodipodi.sourceforge.net/DTD/sodipodi-0.dtd"
   xmlns:xlink="http://www.w3.org/1999/xlink"
   xmlns="http://www.w3.org/2000/svg"
   xmlns:svg="http://www.w3.org/2000/svg"><sodipodi:namedview
     id="namedview7"
     pagecolor="#ffffff"
     bordercolor="#666666"
     borderopacity="1"
     inkscape:pageshadow="2"
     inkscape:pageopacity="0.0"
     inkscape:pagecheckerboard="true"
     inkscape:document-units="px"
     showgrid="false"
     inkscape:showpageshadow="false"
     showborder="true"
     inkscape:snap-page="true"
     inkscape:snap-bbox="true"
     inkscape:bbox-paths="true"
     inkscape:bbox-nodes="true"
     inkscape:snap-bbox-edge-midpoints="true"
     inkscape:snap-bbox-midpoints="true"
     inkscape:object-paths="true"
     inkscape:zoom="1.2829035"
     inkscape:cx="-195.26021"
     inkscape:cy="47.938134"
     inkscape:window-width="1366"
     inkscape:window-height="731"
     inkscape:window-x="0"
     inkscape:window-y="0"
     inkscape:window-maximized="1"
     inkscape:current-layer="layer2"
     inkscape:deskcolor="#d1d1d1" /><defs
     id="defs2"><linearGradient
       inkscape:collect="always"
       id="linearGradient453"><stop
         style="stop-color:#b3b3b3;stop-opacity:1"
         offset="0"
         id="stop449" /><stop
         style="stop-color:#999999;stop-opacity:1"
         offset="0.80000001"
         id="stop461" /><stop
         style="stop-color:#b3b3b3;stop-opacity:1"
         offset="0.8532064"
         id="stop457" /><stop
         style="stop-color:#999999;stop-opacity:1"
         offset="0.90300578"
         id="stop459" /><stop
         style="stop-color:#999999;stop-opacity:1"
         offset="1"
         id="stop451" /></linearGradient><linearGradient
       inkscape:collect="always"
       id="linearGradient445"><stop
         style="stop-color:#0066ff;stop-opacity:1"
         offset="0"
         id="stop441" /><stop
         style="stop-color:#5fbcd3;stop-opacity:1"
         offset="1"
         id="stop443" /></linearGradient><linearGradient
       inkscape:collect="always"
       id="linearGradient437"><stop
         style="stop-color:#7f2aff;stop-opacity:1"
         offset="0"
         id="stop433" /><stop
         style="stop-color:#cc00ff;stop-opacity:1"
         offset="1"
         id="stop435" /></linearGradient><linearGradient
       inkscape:collect="always"
       id="linearGradient365"><stop
         style="stop-color:#ff5555;stop-opacity:1"
         offset="0"
         id="stop361" /><stop
         style="stop-color:#ff9955;stop-opacity:1"
         offset="1"
         id="stop363" /></linearGradient><linearGradient
       y2="236"
       x2="96"
       y1="236"
       x1="32"
       gradientTransform="translate(604.81684,170.58641)"
       gradientUnits="userSpaceOnUse"
       id="linearGradient1099"
       xlink:href="#linearGradient1036" /><linearGradient
       id="linearGradient1036"><stop
         id="stop1032"
         offset="0"
         style="stop-color:#d5d3cf;stop-opacity:1;" /><stop
         id="stop1034"
         offset="1"
         style="stop-color:#f6f5f4;stop-opacity:1" /></linearGradient><radialGradient
       r="32"
       fy="-76"
       fx="-244"
       cy="-76"
       cx="-244"
       gradientTransform="matrix(0.88333331,0,0,0.88333331,-460.35018,463.11973)"
       gradientUnits="userSpaceOnUse"
       id="radialGradient1103"
       xlink:href="#linearGradient1069" /><linearGradient
       id="linearGradient1069"><stop
         id="stop1065"
         offset="0"
         style="stop-color:#d5d3cf;stop-opacity:1" /><stop
         id="stop1067-1"
         offset="1"
         style="stop-color:#949390;stop-opacity:1" /></linearGradient><linearGradient
       gradientUnits="userSpaceOnUse"
       y2="232"
       x2="64"
       y1="262.5"
       x1="64"
       id="linearGradient1027"
       xlink:href="#linearGradient1025"
       gradientTransform="translate(-470.5864,432.81685)" /><linearGradient
       id="linearGradient1025"><stop
         id="stop1021"
         offset="0"
         style="stop-color:#9a9996;stop-opacity:1" /><stop
         id="stop1023"
         offset="1"
         style="stop-color:#77767b;stop-opacity:1" /></linearGradient><inkscape:path-effect
       effect="spiro"
       id="path-effect35304-9"
       is_visible="true" /><clipPath
       clipPathUnits="userSpaceOnUse"
       id="clipPath1609-7"><path
         sodipodi:nodetypes="cccccc"
         inkscape:connector-curvature="0"
         id="path1611-5"
         d="m 252,116 28,-28 v -8 h -36 v 36 z"
         style="fill:#e74747;stroke:none;stroke-width:0.25px;stroke-linecap:butt;stroke-linejoin:miter;stroke-opacity:1" /></clipPath><clipPath
       clipPathUnits="userSpaceOnUse"
       id="clipPath961"><rect
         style="fill:#00c853;stroke:none;stroke-width:0.529037"
         id="rect963"
         width="541.86664"
         height="541.86664"
         x="1.4210855e-14"
         y="2.717972e-05"
         rx="79.375"
         ry="79.375" /></clipPath><linearGradient
       id="d"><stop
         offset="0"
         stop-color="#f9f06b"
         id="stop865" /><stop
         offset="1"
         stop-color="#f6d32d"
         id="stop867" /></linearGradient><linearGradient
       id="e"><stop
         offset="0"
         stop-color="#2dc0af"
         id="stop870" /><stop
         offset="1"
         stop-color="#5ed9cb"
         id="stop872" /></linearGradient><linearGradient
       id="f"><stop
         offset="0"
         stop-color="#fff"
         id="stop875" /><stop
         offset="1"
         stop-color="#fff"
         stop-opacity="0"
         id="stop877" /></linearGradient><linearGradient
       id="g"><stop
         offset="0"
         stop-color="#2dc0af"
         id="stop880" /><stop
         offset="1"
         stop-color="#3584e4"
         id="stop882" /></linearGradient><linearGradient
       id="h"><stop
         offset="0"
         stop-color="#c061cb"
         id="stop885" /><stop
         offset="1"
         stop-color="#8f58c8"
         id="stop887" /></linearGradient><linearGradient
       xlink:href="#d"
       id="m"
       gradientUnits="userSpaceOnUse"
       x1="529.288"
       y1="441.731"
       x2="543.341"
       y2="408.599"
       gradientTransform="translate(-461.557,-35.819)" /><linearGradient
       xlink:href="#e"
       id="l"
       gradientUnits="userSpaceOnUse"
       x1="529.288"
       y1="441.731"
       x2="543.341"
       y2="408.599"
       gradientTransform="rotate(-120,320.2,508.254)" /><linearGradient
       xlink:href="#f"
       id="k"
       x1="56"
       y1="252"
       x2="0"
       y2="244"
       gradientUnits="userSpaceOnUse"
       gradientTransform="translate(42.443,122.181)" /><linearGradient
       gradientTransform="translate(42.443,122.181)"
       xlink:href="#g"
       id="j"
       x1="64"
       y1="260"
       x2="80"
       y2="220"
       gradientUnits="userSpaceOnUse" /><linearGradient
       gradientTransform="translate(42.443,122.181)"
       xlink:href="#h"
       id="i"
       x1="32"
       y1="239.25"
       x2="56"
       y2="196"
       gradientUnits="userSpaceOnUse" /><clipPath
       clipPathUnits="userSpaceOnUse"
       id="clipPath1891"><rect
         style="fill:#b3b3b3;stroke:none;stroke-width:0.529037"
         id="rect1893"
         width="541.86664"
         height="541.86664"
         x="2.2119139e-06"
         y="4.8096284e-05"
         rx="79.375"
         ry="79.375" /></clipPath><linearGradient
       inkscape:collect="always"
       xlink:href="#linearGradient365"
       id="linearGradient367"
       x1="48.01988"
       y1="61.45255"
       x2="72.01988"
       y2="61.45255"
       gradientUnits="userSpaceOnUse"
       gradientTransform="matrix(-1,0,0,1,138.01988,1.8064689)" /><linearGradient
       inkscape:collect="always"
       xlink:href="#linearGradient437"
       id="linearGradient439"
       x1="88.019882"
       y1="33.452549"
       x2="88.019882"
       y2="57.452549"
       gradientUnits="userSpaceOnUse"
       gradientTransform="matrix(-1,0,0,1,136.01988,-4.193531)" /><linearGradient
       inkscape:collect="always"
       xlink:href="#linearGradient445"
       id="linearGradient447"
       x1="75.50035"
       y1="77.45255"
       x2="100.01988"
       y2="77.45255"
       gradientUnits="userSpaceOnUse"
       gradientTransform="matrix(-1,0,0,1,138.01988,1.8064689)" /><linearGradient
       inkscape:collect="always"
       xlink:href="#linearGradient453"
       id="linearGradient455"
       x1="19.126535"
       y1="118.70936"
       x2="112.86349"
       y2="118.70936"
       gradientUnits="userSpaceOnUse"
       gradientTransform="matrix(-1,0,0,1,131.99002,0)" /><linearGradient
       inkscape:collect="always"
       xlink:href="#linearGradient365"
       id="linearGradient252"
       gradientUnits="userSpaceOnUse"
       gradientTransform="matrix(-1,0,0,1,138.01988,3.8064689)"
       x1="48.01988"
       y1="61.45255"
       x2="72.01988"
       y2="61.45255" /></defs><g
     inkscape:groupmode="layer"
     id="layer2"
     inkscape:label="Layer 1"><path
       id="path231"
       style="color:#000000;font-weight:400;line-height:normal;font-family:sans-serif;font-variant-ligatures:normal;font-variant-position:normal;font-variant-caps:normal;font-variant-numeric:normal;font-variant-alternates:normal;font-feature-settings:normal;text-indent:0;text-align:start;text-decoration-line:none;text-decoration-style:solid;text-decoration-color:#000000;text-transform:none;text-orientation:mixed;white-space:normal;shape-padding:0;isolation:auto;mix-blend-mode:normal;solid-color:#000000;solid-opacity:1;fill:url(#linearGradient455);fill-rule:evenodd;stroke-width:1.33952"
       d="M 35.123047,15.292969 A 15.626125,15.626125 0 0 0 19.13086,30.912109 v 36.082032 14.371093 c 1.2e-4,7.236968 0.005,14.47384 -0.002,21.710936 -0.0403,2.1912 0.44421,4.33145 1.33203,6.28906 a 15.626125,15.626125 0 0 0 0.0703,0.15235 c 0.0683,0.14642 0.14009,0.29128 0.21289,0.43554 a 15.626125,15.626125 0 0 0 0.15039,0.28907 c 0.31042,0.58493 0.65482,1.15254 1.03516,1.69531 a 15.626125,15.626125 0 0 0 0.47851,0.64844 c 0.0488,0.0628 0.1007,0.12347 0.1504,0.18554 a 15.626125,15.626125 0 0 0 0.54687,0.64844 c 0.27763,0.31232 0.56664,0.6141 0.86719,0.9043 a 15.626125,15.626125 0 0 0 0.67969,0.61914 c 0.17933,0.15464 0.36297,0.30458 0.54882,0.45117 a 15.626125,15.626125 0 0 0 0.44922,0.3418 c 0.378,0.27725 0.7672,0.5387 1.16797,0.78125 a 15.626125,15.626125 0 0 0 0.23047,0.13672 c 1.82192,1.06045 3.85543,1.74746 5.992187,1.94336 a 15.626125,15.626125 0 0 0 0.195312,0.0176 c 0.06661,0.005 0.132425,0.0134 0.199219,0.0176 1.85173,0.20641 3.669673,-0.0173 5.417969,-0.52148 a 15.626125,15.626125 0 0 0 0.546875,-0.13672 15.626125,15.626125 0 0 0 0.849609,-0.33594 c 0.733223,-0.27805 1.451656,-0.59917 2.152344,-0.95703 a 15.626125,15.626125 0 0 0 0.164062,-0.0742 l 0.232422,-0.13476 c 0.585774,-0.31279 1.162774,-0.63827 1.720703,-0.99024 0.0033,-0.003 0.0065,-0.005 0.0098,-0.008 L 73.814453,98.564453 105.0625,80.525391 a 15.626125,15.626125 0 0 0 1.83008,-1.261719 c 0.0125,-0.0097 0.0247,-0.01955 0.0371,-0.0293 a 15.626125,15.626125 0 0 0 5.92578,-11.894531 c 1.9e-4,-0.0052 -1.8e-4,-0.01042 0,-0.01563 a 15.626125,15.626125 0 0 0 0.008,-0.525391 c 0.004,-2.228676 -0.46753,-4.455556 -1.48047,-6.49414 -0.8172,-1.866601 -2.0598,-3.44044 -3.53515,-4.779297 a 15.626125,15.626125 0 0 0 -0.67969,-0.578125 c -0.17246,-0.141898 -0.34404,-0.283745 -0.52149,-0.419922 a 15.626125,15.626125 0 0 0 -0.42382,-0.310547 c -0.98914,-0.720299 -2.03496,-1.367389 -3.11133,-1.933594 -0.0807,-0.03169 -0.16303,-0.05776 -0.24414,-0.08789 L 42.566406,17.380859 a 15.626125,15.626125 0 0 0 -7.443359,-2.08789 z" /><path
       id="path1515"
       style="color:#000000;font-weight:400;line-height:normal;font-family:sans-serif;font-variant-ligatures:normal;font-variant-position:normal;font-variant-caps:normal;font-variant-numeric:normal;font-variant-alternates:normal;font-feature-settings:normal;text-indent:0;text-align:start;text-decoration-line:none;text-decoration-style:solid;text-decoration-color:#000000;text-transform:none;text-orientation:mixed;white-space:normal;shape-padding:0;isolation:auto;mix-blend-mode:normal;solid-color:#000000;solid-opacity:1;fill:#f2f2f2;fill-rule:evenodd;stroke-width:1.33952"
       d="M 35.123047,9.2929688 A 15.626125,15.626125 0 0 0 19.13086,24.912109 v 36.082032 14.371093 c 1.2e-4,7.236968 0.005,14.47384 -0.002,21.710938 -0.0403,2.191198 0.44421,4.331448 1.33203,6.289058 a 15.626125,15.626125 0 0 0 0.0703,0.15235 c 0.0683,0.14642 0.14009,0.29128 0.21289,0.43554 a 15.626125,15.626125 0 0 0 0.15039,0.28907 c 0.31042,0.58493 0.65482,1.15254 1.03516,1.69531 a 15.626125,15.626125 0 0 0 0.47851,0.64844 c 0.0488,0.0628 0.1007,0.12347 0.15039,0.18554 a 15.626125,15.626125 0 0 0 0.54688,0.64844 c 0.27763,0.31232 0.56664,0.6141 0.86719,0.9043 a 15.626125,15.626125 0 0 0 0.67968,0.61914 c 0.17934,0.15464 0.36298,0.30458 0.54883,0.45117 a 15.626125,15.626125 0 0 0 0.44922,0.3418 c 0.378,0.27725 0.7672,0.5387 1.16797,0.78125 a 15.626125,15.626125 0 0 0 0.23047,0.13672 c 1.82192,1.06045 3.85543,1.74746 5.992186,1.94336 a 15.626125,15.626125 0 0 0 0.195312,0.0176 c 0.06661,0.005 0.132425,0.0134 0.199219,0.0176 1.85173,0.20641 3.669673,-0.0173 5.417969,-0.52148 a 15.626125,15.626125 0 0 0 0.546875,-0.13672 15.626125,15.626125 0 0 0 0.849609,-0.33594 c 0.733223,-0.27805 1.451656,-0.59917 2.152344,-0.95703 a 15.626125,15.626125 0 0 0 0.164062,-0.0742 l 0.232422,-0.13476 c 0.585774,-0.31279 1.162774,-0.63827 1.720703,-0.99024 0.0033,-0.003 0.0065,-0.005 0.0098,-0.008 L 73.814453,92.564453 105.0625,74.525391 a 15.626125,15.626125 0 0 0 1.83008,-1.261719 c 0.0125,-0.0097 0.0247,-0.01955 0.0371,-0.0293 a 15.626125,15.626125 0 0 0 5.92578,-11.894528 c 1.9e-4,-0.0052 -1.8e-4,-0.01042 0,-0.01563 a 15.626125,15.626125 0 0 0 0.008,-0.525391 c 0.004,-2.228676 -0.46753,-4.455556 -1.48047,-6.49414 -0.8172,-1.866601 -2.0598,-3.44044 -3.53515,-4.779297 a 15.626125,15.626125 0 0 0 -0.67969,-0.578125 c -0.17246,-0.141898 -0.34404,-0.283745 -0.52149,-0.419922 a 15.626125,15.626125 0 0 0 -0.42382,-0.310547 c -0.98914,-0.720299 -2.03496,-1.367389 -3.11133,-1.933594 -0.0807,-0.03169 -0.16303,-0.05776 -0.24414,-0.08789 L 42.566406,11.380859 A 15.626125,15.626125 0 0 0 35.123047,9.2929688 Z" /><path
       d="m 82,51.259019 h -8 c -4.41797,0 -8,3.582031 -8,8 v 8 c 0,4.417969 3.58203,8 8,8 h 8 c 4.41797,0 8,-3.582031 8,-8 v -8 c 0,-4.417969 -3.58203,-8 -8,-8 z m 0,0"
       fill="url(#a)"
       id="path260"
       style="fill:url(#linearGradient367)" /><path
       d="m 48,53.259019 c 6.62891,0 12,-5.371094 12,-12 0,-6.628906 -5.37109,-12 -12,-12 -6.62891,0 -12,5.371094 -12,12 0,6.628906 5.37109,12 12,12 z m 0,0"
       fill="url(#b)"
       id="path262"
       style="fill:url(#linearGradient439)" /><path
       d="m 43.21094,66.235581 17.57812,10.046876 c 1.07032,0.609374 1.73047,1.746093 1.73047,2.976562 0,1.230469 -0.66015,2.367188 -1.73047,2.976562 L 43.21094,92.282457 c -1.07813,0.617187 -2.40235,0.609374 -3.47656,-0.01172 C 38.66016,91.645738 38,90.501207 38,89.259019 v -20 c 0,-1.242188 0.66016,-2.386719 1.73438,-3.011719 1.07421,-0.621093 2.39843,-0.628906 3.47656,-0.01172 z m 0,0"
       fill="url(#c)"
       id="path264"
       style="fill:url(#linearGradient447)" /><path
       d="m 82,53.259019 h -8 c -4.41797,0 -8,3.582031 -8,8 v 8 c 0,4.417969 3.58203,8 8,8 h 8 c 4.41797,0 8,-3.582031 8,-8 v -8 c 0,-4.417969 -3.58203,-8 -8,-8 z m 0,0"
       fill="url(#a)"
       id="path250"
       style="fill:url(#linearGradient252)" /></g></svg>
