<?xml version="1.0" encoding="UTF-8" standalone="no"?>
<!-- Created with Inkscape (http://www.inkscape.org/) -->

<svg
   width="128"
   height="128"
   viewBox="0 0 128 128"
   version="1.1"
   id="svg5"
   inkscape:version="1.2.2 (b0a8486541, 2022-12-01)"
   sodipodi:docname="org.mozilla.firefox.svg"
   xmlns:inkscape="http://www.inkscape.org/namespaces/inkscape"
   xmlns:sodipodi="http://sodipodi.sourceforge.net/DTD/sodipodi-0.dtd"
   xmlns:xlink="http://www.w3.org/1999/xlink"
   xmlns="http://www.w3.org/2000/svg"
   xmlns:svg="http://www.w3.org/2000/svg">
  <sodipodi:namedview
     id="namedview7"
     pagecolor="#ffffff"
     bordercolor="#666666"
     borderopacity="1"
     inkscape:pageshadow="2"
     inkscape:pageopacity="0.0"
     inkscape:pagecheckerboard="true"
     inkscape:document-units="px"
     showgrid="false"
     inkscape:showpageshadow="false"
     showborder="true"
     inkscape:snap-page="true"
     inkscape:zoom="4"
     inkscape:cx="115"
     inkscape:cy="71"
     inkscape:window-width="1366"
     inkscape:window-height="731"
     inkscape:window-x="0"
     inkscape:window-y="0"
     inkscape:window-maximized="1"
     inkscape:current-layer="layer2"
     inkscape:snap-global="true"
     inkscape:deskcolor="#d1d1d1" />
  <defs
     id="defs2">
    <linearGradient
       inkscape:collect="always"
       id="linearGradient6595">
      <stop
         style="stop-color:#6c112a;stop-opacity:1;"
         offset="0"
         id="stop6591" />
      <stop
         style="stop-color:#d91647;stop-opacity:1;"
         offset="1"
         id="stop6593" />
    </linearGradient>
    <linearGradient
       inkscape:collect="always"
       id="linearGradient203582">
      <stop
         style="stop-color:#9e4f00;stop-opacity:1;"
         offset="0"
         id="stop203578" />
      <stop
         style="stop-color:#ffa918;stop-opacity:1"
         offset="1"
         id="stop203580" />
    </linearGradient>
    <linearGradient
       inkscape:collect="always"
       id="linearGradient63723">
      <stop
         style="stop-color:#b31c1d;stop-opacity:1;"
         offset="0"
         id="stop63719" />
      <stop
         style="stop-color:#fea553;stop-opacity:1"
         offset="1"
         id="stop63721" />
    </linearGradient>
    <linearGradient
       y2="236"
       x2="96"
       y1="236"
       x1="32"
       gradientTransform="translate(604.81684,170.58641)"
       gradientUnits="userSpaceOnUse"
       id="linearGradient1099"
       xlink:href="#linearGradient1036" />
    <linearGradient
       id="linearGradient1036">
      <stop
         id="stop1032"
         offset="0"
         style="stop-color:#d5d3cf;stop-opacity:1;" />
      <stop
         id="stop1034"
         offset="1"
         style="stop-color:#f6f5f4;stop-opacity:1" />
    </linearGradient>
    <radialGradient
       r="32"
       fy="-76"
       fx="-244"
       cy="-76"
       cx="-244"
       gradientTransform="matrix(0.88333331,0,0,0.88333331,-460.35018,463.11973)"
       gradientUnits="userSpaceOnUse"
       id="radialGradient1103"
       xlink:href="#linearGradient1069" />
    <linearGradient
       id="linearGradient1069">
      <stop
         id="stop1065"
         offset="0"
         style="stop-color:#d5d3cf;stop-opacity:1" />
      <stop
         id="stop1067-1"
         offset="1"
         style="stop-color:#949390;stop-opacity:1" />
    </linearGradient>
    <linearGradient
       gradientUnits="userSpaceOnUse"
       y2="232"
       x2="64"
       y1="262.5"
       x1="64"
       id="linearGradient1027"
       xlink:href="#linearGradient1025"
       gradientTransform="translate(-470.5864,432.81685)" />
    <linearGradient
       id="linearGradient1025">
      <stop
         id="stop1021"
         offset="0"
         style="stop-color:#9a9996;stop-opacity:1" />
      <stop
         id="stop1023"
         offset="1"
         style="stop-color:#77767b;stop-opacity:1" />
    </linearGradient>
    <inkscape:path-effect
       effect="spiro"
       id="path-effect35304-9"
       is_visible="true" />
    <clipPath
       clipPathUnits="userSpaceOnUse"
       id="clipPath1609-7">
      <path
         sodipodi:nodetypes="cccccc"
         inkscape:connector-curvature="0"
         id="path1611-5"
         d="m 252,116 28,-28 v -8 h -36 v 36 z"
         style="fill:#e74747;stroke:none;stroke-width:0.25px;stroke-linecap:butt;stroke-linejoin:miter;stroke-opacity:1" />
    </clipPath>
    <radialGradient
       r="32"
       fy="-76"
       fx="-244"
       cy="-76"
       cx="-244"
       gradientTransform="matrix(0.88333331,0,0,0.88333331,-460.35018,463.11973)"
       gradientUnits="userSpaceOnUse"
       id="radialGradient1103-5"
       xlink:href="#linearGradient1069" />
    <inkscape:path-effect
       effect="spiro"
       id="path-effect35304-9-2"
       is_visible="true" />
    <clipPath
       clipPathUnits="userSpaceOnUse"
       id="clipPath1609-7-7">
      <path
         sodipodi:nodetypes="cccccc"
         inkscape:connector-curvature="0"
         id="path1611-5-0"
         d="m 252,116 28,-28 v -8 h -36 v 36 z"
         style="fill:#e74747;stroke:none;stroke-width:0.25px;stroke-linecap:butt;stroke-linejoin:miter;stroke-opacity:1" />
    </clipPath>
    <clipPath
       clipPathUnits="userSpaceOnUse"
       id="clipPath744">
      <rect
         style="fill:#1e88e5;fill-opacity:1;stroke-width:0.264583"
         id="rect746"
         width="541.86664"
         height="541.86664"
         x="0"
         y="1.5987212e-14"
         rx="79.375"
         ry="79.375" />
    </clipPath>
    <clipPath
       clipPathUnits="userSpaceOnUse"
       id="clipPath62">
      <rect
         style="fill:#1e88e5;fill-opacity:1;stroke-width:0.264583"
         id="rect64"
         width="541.86664"
         height="541.86664"
         x="2.2507105e-05"
         y="-0.42205024"
         rx="79.375"
         ry="79.375" />
    </clipPath>
    <radialGradient
       r="32"
       fy="-76"
       fx="-244"
       cy="-76"
       cx="-244"
       gradientTransform="matrix(0.88333331,0,0,0.88333331,-460.35018,463.11973)"
       gradientUnits="userSpaceOnUse"
       id="radialGradient1103-6"
       xlink:href="#linearGradient1069" />
    <inkscape:path-effect
       effect="spiro"
       id="path-effect35304-9-20"
       is_visible="true" />
    <clipPath
       clipPathUnits="userSpaceOnUse"
       id="clipPath1609-7-2">
      <path
         sodipodi:nodetypes="cccccc"
         inkscape:connector-curvature="0"
         id="path1611-5-3"
         d="m 252,116 28,-28 v -8 h -36 v 36 z"
         style="fill:#e74747;stroke:none;stroke-width:0.25px;stroke-linecap:butt;stroke-linejoin:miter;stroke-opacity:1" />
    </clipPath>
    <radialGradient
       id="a"
       cx="-1186.91"
       cy="-517.676"
       r="90.78"
       gradientTransform="matrix(1.3747416,0,0,1.3747416,1739.0529,739.97426)"
       gradientUnits="userSpaceOnUse">
      <stop
         offset="0"
         stop-color="#fff36e"
         id="stop858" />
      <stop
         offset=".5"
         stop-color="#fc4055"
         id="stop860" />
      <stop
         offset="1"
         stop-color="#e31587"
         id="stop862" />
    </radialGradient>
    <radialGradient
       id="b"
       cx="-1251.812"
       cy="-513.921"
       r="53.726"
       gradientTransform="matrix(1.3747416,0,0,1.3747416,1739.0529,739.97426)"
       gradientUnits="userSpaceOnUse">
      <stop
         offset=".001"
         stop-color="#c60084"
         id="stop865" />
      <stop
         offset="1"
         stop-color="#fc4055"
         stop-opacity="0"
         id="stop867" />
    </radialGradient>
    <radialGradient
       id="c"
       cx="-1179.15"
       cy="-522.842"
       r="106.599"
       gradientTransform="matrix(1.3747416,0,0,1.3747416,1739.0529,739.97426)"
       gradientUnits="userSpaceOnUse">
      <stop
         offset="0"
         stop-color="#ffde67"
         stop-opacity=".6"
         id="stop870" />
      <stop
         offset=".093"
         stop-color="#ffd966"
         stop-opacity=".581"
         id="stop872" />
      <stop
         offset=".203"
         stop-color="#ffca65"
         stop-opacity=".525"
         id="stop874" />
      <stop
         offset=".321"
         stop-color="#feb262"
         stop-opacity=".432"
         id="stop876" />
      <stop
         offset=".446"
         stop-color="#fe8f5e"
         stop-opacity=".302"
         id="stop878" />
      <stop
         offset=".573"
         stop-color="#fd6459"
         stop-opacity=".137"
         id="stop880" />
      <stop
         offset=".664"
         stop-color="#fc4055"
         stop-opacity="0"
         id="stop882" />
    </radialGradient>
    <radialGradient
       id="d"
       cx="42.285"
       cy="44.499"
       r="137.521"
       gradientTransform="matrix(1.3747416,0,0,1.3747416,9.021793,5.6478048)"
       gradientUnits="userSpaceOnUse">
      <stop
         offset=".153"
         stop-color="#810220"
         id="stop885" />
      <stop
         offset=".167"
         stop-color="#920b27"
         stop-opacity=".861"
         id="stop887" />
      <stop
         offset=".216"
         stop-color="#cb2740"
         stop-opacity=".398"
         id="stop889" />
      <stop
         offset=".253"
         stop-color="#ef394f"
         stop-opacity=".11"
         id="stop891" />
      <stop
         offset=".272"
         stop-color="#fc4055"
         stop-opacity="0"
         id="stop893" />
    </radialGradient>
    <radialGradient
       id="e"
       cx="31.878"
       cy="42.77"
       r="137.521"
       gradientTransform="matrix(1.3747416,0,0,1.3747416,9.021793,5.6478048)"
       gradientUnits="userSpaceOnUse">
      <stop
         offset=".113"
         stop-color="#810220"
         id="stop896" />
      <stop
         offset=".133"
         stop-color="#920b27"
         stop-opacity=".861"
         id="stop898" />
      <stop
         offset=".204"
         stop-color="#cb2740"
         stop-opacity=".398"
         id="stop900" />
      <stop
         offset=".257"
         stop-color="#ef394f"
         stop-opacity=".11"
         id="stop902" />
      <stop
         offset=".284"
         stop-color="#fc4055"
         stop-opacity="0"
         id="stop904" />
    </radialGradient>
    <linearGradient
       id="f"
       x1="-1212.61"
       y1="-525.103"
       x2="-1189.052"
       y2="-484.299"
       gradientTransform="matrix(1.4002632,0,0,1.4002632,1640.0662,742.74378)"
       gradientUnits="userSpaceOnUse">
      <stop
         offset="0"
         stop-color="#ffbd4f"
         id="stop907" />
      <stop
         offset=".508"
         stop-color="#ff9640"
         stop-opacity="0"
         id="stop909" />
    </linearGradient>
    <radialGradient
       id="g"
       cx="-1255.933"
       cy="-77.395"
       r="88.863"
       gradientTransform="matrix(1.3428524,0,0,1.3456529,1661.7073,117.63548)"
       gradientUnits="userSpaceOnUse">
      <stop
         offset="0"
         stop-color="#ff9640"
         id="stop912" />
      <stop
         offset=".8"
         stop-color="#fc4055"
         id="stop914" />
    </radialGradient>
    <radialGradient
       id="h"
       cx="-1255.933"
       cy="-77.395"
       r="88.863"
       gradientTransform="matrix(1.3183772,0,0,1.3211266,1760.2995,124.64955)"
       gradientUnits="userSpaceOnUse">
      <stop
         offset=".084"
         stop-color="#ffde67"
         id="stop917" />
      <stop
         offset=".147"
         stop-color="#ffdc66"
         stop-opacity=".968"
         id="stop919" />
      <stop
         offset=".246"
         stop-color="#ffd562"
         stop-opacity=".879"
         id="stop921" />
      <stop
         offset=".369"
         stop-color="#ffcb5d"
         stop-opacity=".734"
         id="stop923" />
      <stop
         offset=".511"
         stop-color="#ffbc55"
         stop-opacity=".533"
         id="stop925" />
      <stop
         offset=".667"
         stop-color="#ffaa4b"
         stop-opacity=".28"
         id="stop927" />
      <stop
         offset=".822"
         stop-color="#ff9640"
         stop-opacity="0"
         id="stop929" />
    </radialGradient>
    <radialGradient
       id="i"
       cx="49.941"
       cy="38.654"
       r="41.79"
       gradientTransform="matrix(0.33956117,1.3348741,-1.3898637,0.35605807,114.43835,-21.51159)"
       gradientUnits="userSpaceOnUse">
      <stop
         offset=".363"
         stop-color="#fc4055"
         id="stop932" />
      <stop
         offset=".443"
         stop-color="#fd604d"
         stop-opacity=".633"
         id="stop934" />
      <stop
         offset=".545"
         stop-color="#fe8644"
         stop-opacity=".181"
         id="stop936" />
      <stop
         offset=".59"
         stop-color="#ff9640"
         stop-opacity="0"
         id="stop938" />
    </radialGradient>
    <radialGradient
       id="j"
       cx="42.737"
       cy="42.193"
       r="41.79"
       gradientTransform="matrix(1.3747416,0,0,1.3747416,9.021793,5.6478048)"
       gradientUnits="userSpaceOnUse">
      <stop
         offset=".216"
         stop-color="#fc4055"
         stop-opacity=".8"
         id="stop941" />
      <stop
         offset=".267"
         stop-color="#fd5251"
         stop-opacity=".633"
         id="stop943" />
      <stop
         offset=".41"
         stop-color="#fe8345"
         stop-opacity=".181"
         id="stop945" />
      <stop
         offset=".474"
         stop-color="#ff9640"
         stop-opacity="0"
         id="stop947" />
    </radialGradient>
    <radialGradient
       id="k"
       cx="-1238.198"
       cy="-87.433"
       r="150.195"
       gradientTransform="matrix(1.3428524,0,0,1.3456529,1661.7073,117.63548)"
       gradientUnits="userSpaceOnUse">
      <stop
         offset=".054"
         stop-color="#fff36e"
         id="stop950" />
      <stop
         offset=".457"
         stop-color="#ff9640"
         id="stop952" />
      <stop
         offset=".639"
         stop-color="#ff9640"
         id="stop954" />
    </radialGradient>
    <linearGradient
       id="l"
       x1="59.052"
       y1="7.083"
       x2="18.155"
       y2="77.92"
       gradientUnits="userSpaceOnUse"
       gradientTransform="matrix(1.3747416,0,0,1.3747416,9.021793,5.7784052)">
      <stop
         offset="0"
         stop-color="#fff36e"
         stop-opacity=".8"
         id="stop957" />
      <stop
         offset=".094"
         stop-color="#fff36e"
         stop-opacity=".699"
         id="stop959" />
      <stop
         offset=".752"
         stop-color="#fff36e"
         stop-opacity="0"
         id="stop961" />
    </linearGradient>
    <linearGradient
       id="m"
       x1="40.585"
       y1="-.67"
       x2="62.3"
       y2="62.203"
       gradientUnits="userSpaceOnUse"
       gradientTransform="matrix(1.3747416,0,0,1.3747416,9.021793,5.7784052)">
      <stop
         offset="0"
         stop-color="#b833e1"
         id="stop964" />
      <stop
         offset=".371"
         stop-color="#9059ff"
         id="stop966" />
      <stop
         offset=".614"
         stop-color="#5b6df8"
         id="stop968" />
      <stop
         offset="1"
         stop-color="#0090ed"
         id="stop970" />
    </linearGradient>
    <linearGradient
       id="n"
       x1="-1230.731"
       y1="-532.566"
       x2="-1190.37"
       y2="-492.205"
       gradientTransform="matrix(1.3747416,0,0,1.3747416,1739.0529,738.36443)"
       gradientUnits="userSpaceOnUse">
      <stop
         offset=".805"
         stop-color="#722291"
         stop-opacity="0"
         id="stop973" />
      <stop
         offset="1"
         stop-color="#592acb"
         stop-opacity=".5"
         id="stop975"
         style="stop-color:#321773;stop-opacity:0.50196081" />
    </linearGradient>
    <linearGradient
       inkscape:collect="always"
       xlink:href="#f"
       id="linearGradient29928"
       gradientUnits="userSpaceOnUse"
       gradientTransform="matrix(1.3747416,0,0,1.3747416,1739.0529,738.36443)"
       x1="-1212.61"
       y1="-525.103"
       x2="-1189.052"
       y2="-484.299" />
    <radialGradient
       inkscape:collect="always"
       xlink:href="#g"
       id="radialGradient29930"
       gradientUnits="userSpaceOnUse"
       gradientTransform="matrix(1.3183772,0,0,1.3211266,1760.2995,124.64955)"
       cx="-1255.933"
       cy="-77.395"
       r="88.863" />
    <radialGradient
       inkscape:collect="always"
       xlink:href="#k"
       id="radialGradient29932"
       gradientUnits="userSpaceOnUse"
       gradientTransform="matrix(1.3183772,0,0,1.3211266,1760.2995,124.64955)"
       cx="-1238.198"
       cy="-87.433"
       r="150.195" />
    <linearGradient
       inkscape:collect="always"
       xlink:href="#linearGradient63723"
       id="linearGradient63725"
       x1="55.882427"
       y1="110.41429"
       x2="55.882427"
       y2="25.147078"
       gradientUnits="userSpaceOnUse"
       gradientTransform="matrix(0.98177369,0,0,0.98177369,1.1664843,-2.1652426)" />
    <linearGradient
       inkscape:collect="always"
       xlink:href="#linearGradient203582"
       id="linearGradient203584"
       x1="72.548775"
       y1="90.836075"
       x2="72.548775"
       y2="45.738731"
       gradientUnits="userSpaceOnUse"
       gradientTransform="matrix(0.98177369,0,0,0.98177369,1.1664843,-2.1652426)" />
    <linearGradient
       inkscape:collect="always"
       xlink:href="#linearGradient6595"
       id="linearGradient1772"
       gradientUnits="userSpaceOnUse"
       x1="8.0492633"
       y1="64.394523"
       x2="119.79735"
       y2="64.394523"
       gradientTransform="matrix(0.98177369,0,0,0.98177369,1.1664843,1.7618521)" />
  </defs>
  <g
     inkscape:groupmode="layer"
     id="layer2"
     inkscape:label="Layer 1">
    <path
       id="path1770"
       style="fill:url(#linearGradient1772);fill-opacity:1;stroke-width:1.37474"
       d="M 63.846598,5.7886583 C 52.338297,6.0107975 44.293221,9.5657063 39.614813,12.457816 46.291928,8.5851726 55.955962,6.3876209 64.416104,6.4962256 75.280736,6.6334917 86.526865,10.425052 95.516469,17.483654 A 54.26105,54.26105 0 0 0 66.193651,7.7541232 C 65.395614,7.7381419 64.613818,7.7373936 63.846598,7.7522057 52.338297,7.9743449 44.293221,11.529253 39.614813,14.421363 46.291928,10.54872 55.955962,8.3511683 64.416104,8.459773 80.384872,8.6615257 97.207031,16.707501 106.40994,31.525702 A 54.26105,54.26105 0 0 0 66.193651,11.681218 c -12.768592,-0.255703 -21.588537,3.582323 -26.578838,6.66724 6.677115,-3.872643 16.341149,-6.070195 24.801291,-5.96159 10.949534,0.138339 22.303816,3.962215 31.328551,11.127407 A 54.26105,54.26105 0 0 0 66.193651,13.644766 c -12.768592,-0.255703 -21.588537,3.582322 -26.578838,6.66724 6.677115,-3.872644 16.341149,-6.070195 24.801291,-5.96159 21.762141,0.274946 45.134246,15.095801 48.605466,41.809752 0.14603,1.123192 0.2385,2.234897 0.31256,3.342249 -1.82093,25.450681 -21.43517,45.071913 -47.731078,45.140503 -27.899235,0.0708 -46.54388,-20.77031 -48.530683,-43.079162 0.133842,-1.51882 0.324202,-3.035519 0.625114,-4.540703 a 27.130525,27.130525 0 0 1 0.567588,-3.831218 51.985853,51.985853 0 0 1 5.764084,-19.271144 v -1.963548 -3.923259 -0.0038 -1.959711 l -0.0038,0.0058 a 51.985853,51.985853 0 0 1 0.0038,-0.0096 c -3.806656,1.970003 -8.652903,8.199941 -11.044954,13.9711 a 56.852438,56.852438 0 0 0 -3.8024549,23.819517 56.852438,56.852438 0 0 0 -0.067113,5.361405 56.852438,56.852438 0 0 0 0.2972167,6.414127 c 0.082469,0.712115 0.1577116,1.423756 0.251196,2.130372 A 55.074896,55.074896 0 0 0 118.70704,64.307739 55.074896,55.074896 0 0 0 118.73964,61.14382 55.074896,55.074896 0 0 0 107.92671,27.362752 54.26105,54.26105 0 0 0 66.193651,5.7905758 c -0.798037,-0.015981 -1.579833,-0.016729 -2.347053,-0.00191 z" />
    <path
       d="M 107.9262,27.361848 A 54.26105,54.26105 0 0 0 66.194545,5.7907779 C 53.425945,5.535076 44.605604,9.3719796 39.615292,12.4569 46.292412,8.5842525 55.955471,6.3874157 64.415629,6.4960203 86.177789,6.7709686 109.55115,21.592058 113.02237,48.306035 117.00911,78.971021 95.649758,104.56458 65.603407,104.64295 32.547745,104.72681 12.442145,75.458557 17.697786,49.169373 a 27.130525,27.130525 0 0 1 0.56777,-3.831404 51.985853,51.985853 0 0 1 5.764287,-19.271128 C 20.223183,28.036846 15.375852,34.267174 12.9838,40.03834 A 56.852438,56.852438 0 0 0 9.412215,67.77925 c 0.082469,0.712116 0.1567205,1.422858 0.250205,2.129475 A 55.074896,55.074896 0 1 0 107.9262,27.361848 Z m -87.158614,4.793724 z"
       fill="url(#a)"
       id="path980"
       style="fill:url(#a);stroke-width:1.37474" />
    <path
       d="M 107.9262,27.361848 A 54.26105,54.26105 0 0 0 66.194545,5.7907779 C 53.425945,5.535076 44.605604,9.3719796 39.615292,12.4569 46.292412,8.5842525 55.955471,6.3874157 64.415629,6.4960203 86.177789,6.7709686 109.55115,21.592058 113.02237,48.306035 117.00911,78.971021 95.649758,104.56458 65.603407,104.64295 32.547745,104.72681 12.442145,75.458557 17.697786,49.169373 a 27.130525,27.130525 0 0 1 0.56777,-3.831404 51.985853,51.985853 0 0 1 5.764287,-19.271128 C 20.223183,28.036846 15.375852,34.267174 12.9838,40.03834 A 56.852438,56.852438 0 0 0 9.412215,67.77925 c 0.082469,0.712116 0.1567205,1.422858 0.250205,2.129475 A 55.074896,55.074896 0 1 0 107.9262,27.361848 Z m -87.158614,4.793724 z"
       fill="url(#b)"
       opacity="0.67"
       id="path982"
       style="fill:url(#b);stroke-width:1.37474" />
    <path
       d="M 107.9262,27.361848 A 54.26105,54.26105 0 0 0 66.194545,5.7907779 C 53.425945,5.535076 44.605604,9.3719796 39.615292,12.4569 46.292412,8.5842525 55.955471,6.3874157 64.415629,6.4960203 86.177789,6.7709686 109.55115,21.592058 113.02237,48.306035 117.00911,78.971021 95.649758,104.56458 65.603407,104.64295 32.547745,104.72681 12.442145,75.458557 17.697786,49.169373 a 27.130525,27.130525 0 0 1 0.56777,-3.831404 51.985853,51.985853 0 0 1 5.764287,-19.271128 C 20.223183,28.036846 15.375852,34.267174 12.9838,40.03834 A 56.852438,56.852438 0 0 0 9.412215,67.77925 c 0.082469,0.712116 0.1567205,1.422858 0.250205,2.129475 A 55.074896,55.074896 0 1 0 107.9262,27.361848 Z m -87.158614,4.793724 z"
       fill="url(#c)"
       id="path984"
       style="fill:url(#c);stroke-width:1.37474" />
    <path
       d="M 107.9262,27.361848 A 54.26105,54.26105 0 0 0 66.194545,5.7907779 C 53.425945,5.535076 44.605604,9.3719796 39.615292,12.4569 46.292412,8.5842525 55.955471,6.3874157 64.415629,6.4960203 86.177789,6.7709686 109.55115,21.592058 113.02237,48.306035 117.00911,78.971021 95.649758,104.56458 65.603407,104.64295 32.547745,104.72681 12.442145,75.458557 17.697786,49.169373 a 27.130525,27.130525 0 0 1 0.56777,-3.831404 51.985853,51.985853 0 0 1 5.764287,-19.271128 C 20.223183,28.036846 15.375852,34.267174 12.9838,40.03834 A 56.852438,56.852438 0 0 0 9.412215,67.77925 c 0.082469,0.712116 0.1567205,1.422858 0.250205,2.129475 A 55.074896,55.074896 0 1 0 107.9262,27.361848 Z m -87.158614,4.793724 z"
       fill="url(#d)"
       id="path986"
       style="fill:url(#d);stroke-width:1.37474" />
    <path
       d="M 107.9262,27.361848 A 54.26105,54.26105 0 0 0 66.194545,5.7907779 C 53.425945,5.535076 44.605604,9.3719796 39.615292,12.4569 46.292412,8.5842525 55.955471,6.3874157 64.415629,6.4960203 86.177789,6.7709686 109.55115,21.592058 113.02237,48.306035 117.00911,78.971021 95.649758,104.56458 65.603407,104.64295 32.547745,104.72681 12.442145,75.458557 17.697786,49.169373 a 27.130525,27.130525 0 0 1 0.56777,-3.831404 51.985853,51.985853 0 0 1 5.764287,-19.271128 C 20.223183,28.036846 15.375852,34.267174 12.9838,40.03834 A 56.852438,56.852438 0 0 0 9.412215,67.77925 c 0.082469,0.712116 0.1567205,1.422858 0.250205,2.129475 A 55.074896,55.074896 0 1 0 107.9262,27.361848 Z m -87.158614,4.793724 z"
       fill="url(#e)"
       id="path988"
       style="fill:url(#e);stroke-width:1.37474" />
    <path
       d="m 113.02237,48.306035 a 56.378152,56.378152 0 0 1 0.41242,9.962753 q 2.73573,-0.412422 5.48109,-0.728613 A 55.003411,55.003411 0 0 0 107.9262,27.361848 54.26105,54.26105 0 0 0 66.194545,5.7907779 C 53.425945,5.535076 44.605604,9.3719796 39.615292,12.4569 46.292412,8.5842525 55.955471,6.3874157 64.415629,6.4960203 86.177789,6.7737182 109.55115,21.587933 113.02237,48.306035 Z"
       fill="url(#f)"
       id="path990"
       style="fill:url(#linearGradient29928);stroke-width:1.37474" />
    <path
       id="path1512"
       style="fill:url(#linearGradient63725);fill-opacity:1;stroke-width:1.37474"
       d="m 64.416104,8.4597734 c -8.461535,0.068737 -18.12417,2.0889426 -24.801291,5.9615896 a 27.082409,27.082409 0 0 0 -4.893529,3.710415 c 0.177338,-0.147097 0.706801,-0.582895 1.583878,-1.185032 l 0.08629,-0.05945 0.07671,-0.05177 A 36.643737,36.643737 0 0 1 47.043312,11.924743 59.801258,59.801258 0 0 1 65.165857,9.803959 45.715656,45.715656 0 0 1 108.12612,53.78627 C 108.63066,71.942482 93.771535,86.418106 76.642254,87.256699 64.184351,87.867083 52.446172,81.839593 46.713497,69.780361 a 29.804397,29.804397 0 0 1 -2.699878,-8.70749 C 41.29713,42.720071 53.622501,27.069445 64.924248,23.194048 v -1.963547 l -4.437157,-0.464041 0.002,0.0096 c -7.384839,-2.471076 -19.121728,-0.940419 -28.3104,5.819714 -8.187954,6.024118 -13.500006,15.188063 -15.259678,26.118632 a 45.290861,45.290861 0 0 0 3.21761,24.745683 48.528377,48.528377 0 0 0 41.364886,29.480051 c 1.364659,0.10448 2.731433,0.15624 4.101589,0.15532 36.378422,0 52.161362,-27.615236 48.758882,-58.350334 C 111.26737,20.826841 86.369359,8.2783073 64.416104,8.4597734 Z" />
    <path
       d="M 114.36137,46.781447 C 111.26682,18.863195 86.368878,6.3145544 64.415629,6.4960203 55.954095,6.5647573 46.292412,8.5842525 39.615292,12.4569 a 27.082409,27.082409 0 0 0 -4.89408,3.711802 c 0.177341,-0.147098 0.706618,-0.58289 1.583702,-1.185027 l 0.08661,-0.05911 0.07698,-0.05224 A 36.643737,36.643737 0 0 1 47.043018,9.9617448 59.801258,59.801258 0 0 1 65.166237,7.8405187 45.715656,45.715656 0 0 1 108.12691,51.822625 C 108.63144,69.978837 93.77186,84.454865 76.642579,85.293458 64.184671,85.903842 52.447128,79.875601 46.714455,67.816368 A 29.804397,29.804397 0 0 1 44.014462,59.11013 C 41.297973,40.75733 53.622532,25.105897 64.924282,21.2305 58.827303,15.904752 43.549801,16.266309 32.179313,24.631611 23.991358,30.655729 18.679354,39.821131 16.919681,50.7517 a 45.290861,45.290861 0 0 0 3.2169,24.745349 48.528377,48.528377 0 0 0 41.364594,29.478581 q 2.046991,0.15672 4.10223,0.15535 c 36.378415,0 52.160445,-27.614435 48.757965,-58.349533 z"
       fill="url(#g)"
       id="path992"
       style="fill:url(#radialGradient29930);stroke-width:1.37474" />
    <path
       d="M 114.36137,46.781447 C 111.26682,18.863195 86.368878,6.3145544 64.415629,6.4960203 55.954095,6.5647573 46.292412,8.5842525 39.615292,12.4569 a 27.082409,27.082409 0 0 0 -4.89408,3.711802 c 0.177341,-0.147098 0.706618,-0.58289 1.583702,-1.185027 l 0.08661,-0.05911 0.07698,-0.05224 A 36.643737,36.643737 0 0 1 47.043018,9.9617448 59.801258,59.801258 0 0 1 65.166237,7.8405187 45.715656,45.715656 0 0 1 108.12691,51.822625 C 108.63144,69.978837 93.77186,84.454865 76.642579,85.293458 64.184671,85.903842 52.447128,79.875601 46.714455,67.816368 A 29.804397,29.804397 0 0 1 44.014462,59.11013 C 41.297973,40.75733 53.622532,25.105897 64.924282,21.2305 58.827303,15.904752 43.549801,16.266309 32.179313,24.631611 23.991358,30.655729 18.679354,39.821131 16.919681,50.7517 a 45.290861,45.290861 0 0 0 3.2169,24.745349 48.528377,48.528377 0 0 0 41.364594,29.478581 q 2.046991,0.15672 4.10223,0.15535 c 36.378415,0 52.160445,-27.614435 48.757965,-58.349533 z"
       fill="url(#h)"
       id="path994"
       style="fill:url(#h);stroke-width:1.37474" />
    <path
       d="M 114.36137,46.781447 C 111.26682,18.863195 86.368878,6.3145544 64.415629,6.4960203 55.954095,6.5647573 46.292412,8.5842525 39.615292,12.4569 a 27.082409,27.082409 0 0 0 -4.89408,3.711802 c 0.177341,-0.147098 0.706618,-0.58289 1.583702,-1.185027 l 0.08661,-0.05911 0.07698,-0.05224 A 36.643737,36.643737 0 0 1 47.043018,9.9617448 59.801258,59.801258 0 0 1 65.166237,7.8405187 45.715656,45.715656 0 0 1 108.12691,51.822625 C 108.63144,69.978837 93.77186,84.454865 76.642579,85.293458 64.184671,85.903842 52.447128,79.875601 46.714455,67.816368 A 29.804397,29.804397 0 0 1 44.014462,59.11013 C 41.297973,40.75733 53.622532,25.105897 64.924282,21.2305 58.827303,15.904752 43.549801,16.266309 32.179313,24.631611 23.991358,30.655729 18.679354,39.821131 16.919681,50.7517 a 45.290861,45.290861 0 0 0 3.2169,24.745349 48.528377,48.528377 0 0 0 41.364594,29.478581 q 2.046991,0.15672 4.10223,0.15535 c 36.378415,0 52.160445,-27.614435 48.757965,-58.349533 z"
       style="mix-blend-mode:multiply;fill:url(#i);stroke-width:1.37474"
       opacity="0.53"
       fill="url(#i)"
       id="path996" />
    <path
       d="M 114.36137,46.781447 C 111.26682,18.863195 86.368878,6.3145544 64.415629,6.4960203 55.954095,6.5647573 46.292412,8.5842525 39.615292,12.4569 a 27.082409,27.082409 0 0 0 -4.89408,3.711802 c 0.177341,-0.147098 0.706618,-0.58289 1.583702,-1.185027 l 0.08661,-0.05911 0.07698,-0.05224 A 36.643737,36.643737 0 0 1 47.043018,9.9617448 59.801258,59.801258 0 0 1 65.166237,7.8405187 45.715656,45.715656 0 0 1 108.12691,51.822625 C 108.63144,69.978837 93.77186,84.454865 76.642579,85.293458 64.184671,85.903842 52.447128,79.875601 46.714455,67.816368 A 29.804397,29.804397 0 0 1 44.014462,59.11013 C 41.297973,40.75733 53.622532,25.105897 64.924282,21.2305 58.827303,15.904752 43.549801,16.266309 32.179313,24.631611 23.991358,30.655729 18.679354,39.821131 16.919681,50.7517 a 45.290861,45.290861 0 0 0 3.2169,24.745349 48.528377,48.528377 0 0 0 41.364594,29.478581 q 2.046991,0.15672 4.10223,0.15535 c 36.378415,0 52.160445,-27.614435 48.757965,-58.349533 z"
       style="mix-blend-mode:multiply;fill:url(#j);stroke-width:1.37474"
       opacity="0.53"
       fill="url(#j)"
       id="path998" />
    <path
       id="path1520"
       style="fill:url(#linearGradient203584);fill-opacity:1;stroke-width:1.37474"
       d="m 68.27992,9.6812373 c -1.017291,0.016612 -2.055856,0.057424 -3.114063,0.1227217 a 59.801258,59.801258 0 0 0 -18.122545,2.12462 39.668168,39.668168 0 0 0 -10.575161,4.910786 l -0.07671,0.05369 -0.08629,0.05752 c -0.526067,0.366598 -1.040457,0.753095 -1.543609,1.158187 a 46.029097,46.029097 0 0 1 28.837689,-5.41126 c 19.441594,2.55152 37.217269,17.675713 37.217269,37.631462 0,15.354488 -11.865533,27.082153 -25.760046,26.239436 C 54.414717,75.331137 49.210166,54.159197 59.948267,45.011667 V 43.04812 l -3.326909,0.874392 -0.06711,1.140929 c -2.790305,0.553054 -6.145008,2.34577 -8.7305,6.210869 -3.399736,5.086543 -3.206185,12.936972 -1.108331,18.506051 A 30.406534,30.406534 0 0 0 76.642254,87.256699 C 100.15033,85.826968 110.21417,66.360662 110.84517,52.551383 111.79873,31.649081 99.815969,9.1662322 68.27992,9.6812373 Z" />
    <path
       id="path1524"
       style="fill:#7014a0;fill-opacity:1;stroke-width:1.37474"
       d="M 65.142846,5.7771532 A 54.761455,54.761455 0 0 0 53.748903,6.9065764 C 45.936252,8.556266 39.06684,11.936523 34.721284,16.162478 a 44.129205,44.129205 0 0 1 0.02109,-0.0096 l -0.02109,0.01534 v 5.88489 a 44.129205,44.129205 0 0 1 11.04112,-4.400724 46.1432,46.1432 0 0 1 42.854805,11.136995 37.13177,37.13177 0 0 1 5.950086,7.284684 c 2.826679,4.596023 4.339224,9.687399 4.770806,14.649905 -0.409027,4.648742 -1.77043,8.939057 -3.925177,12.270253 -3.897396,6.026868 -12.244482,11.684281 -20.032402,11.618294 A 32.483768,32.483768 0 0 0 94.622902,70.01815 C 90.464189,75.601469 82.67747,80.564997 75.380522,80.50317 A 32.483768,32.483768 0 0 0 105.22683,65.557967 c 3.80381,-5.935064 5.0548,-12.991624 4.5081,-19.662319 0.41552,-4.96114 -0.25025,-9.949902 -1.71043,-14.373781 A 30.873946,30.873946 0 0 0 101.31315,20.325428 41.550189,41.550189 0 0 0 88.810879,11.399341 55.701779,55.701779 0 0 0 76.52145,7.0427207 54.761455,54.761455 0 0 0 65.142846,5.7771532 Z" />
    <path
       d="M 76.642581,85.293458 C 100.15067,83.863726 110.21377,64.397386 110.84477,50.588107 111.82909,29.011538 99.028873,5.7509104 65.166239,7.8405177 A 59.801258,59.801258 0 0 0 47.04302,9.9658682 39.668168,39.668168 0 0 0 36.468509,14.876445 l -0.07698,0.05224 -0.08661,0.05911 q -0.789102,0.549896 -1.543834,1.157533 a 46.029097,46.029097 0 0 1 28.837953,-5.410983 c 19.441595,2.55152 37.217002,17.675052 37.217002,37.630801 0,15.354488 -11.865392,27.082409 -25.759905,26.239692 C 54.414387,73.367574 49.21099,52.196554 59.949096,43.049024 57.053891,42.426265 51.612663,43.647036 47.823876,49.310972 44.42414,54.397515 44.616604,62.24729 46.714459,67.816368 a 30.406534,30.406534 0 0 0 29.928124,17.47709 z"
       fill="url(#k)"
       id="path1000"
       style="fill:url(#radialGradient29932);stroke-width:1.37474" />
    <path
       d="m 107.9262,27.361848 a 54.931924,54.931924 0 0 0 -4.78685,-5.474221 43.08715,43.08715 0 0 0 -4.367554,-4.022494 33.534071,33.534071 0 0 1 2.541894,2.460787 30.884944,30.884944 0 0 1 6.7115,11.195896 c 2.87182,8.70074 2.68486,19.590067 -2.79898,28.142335 A 32.360041,32.360041 0 0 1 76.555973,74.64196 c -0.496282,0 -0.996688,0 -1.499843,-0.03712 C 54.414385,73.367571 49.210988,52.196551 59.95047,43.049021 57.053889,42.426263 51.612661,43.647033 47.823874,49.310969 44.424138,54.397512 44.616602,62.247287 46.714457,67.816366 A 29.803023,29.803023 0 0 1 44.01584,59.110127 C 41.297975,40.757327 53.622534,25.105894 64.924284,21.230497 58.827305,15.904749 43.549803,16.266306 32.179315,24.631609 A 38.279679,38.279679 0 0 0 18.312298,44.702835 52.92755,52.92755 0 0 1 24.029843,26.070962 C 20.223183,28.040967 15.375852,34.271296 12.9838,40.042461 A 56.852438,56.852438 0 0 0 9.412215,67.779247 c 0.082469,0.712116 0.1567205,1.422858 0.250205,2.129475 A 55.074896,55.074896 0 1 0 107.9262,27.361848 Z"
       fill="url(#l)"
       id="path1002"
       style="fill:url(#l);stroke-width:1.37474" />
    <path
       d="M 108.02519,31.521816 A 30.873946,30.873946 0 0 0 101.31369,20.32592 41.550189,41.550189 0 0 0 88.811794,11.399723 55.701779,55.701779 0 0 0 76.521604,7.0431674 54.761455,54.761455 0 0 0 53.74901,6.9056933 C 45.936353,8.5553834 39.06677,11.935873 34.721212,16.161828 a 44.129205,44.129205 0 0 1 11.040549,-4.399173 46.1432,46.1432 0 0 1 42.85482,11.135407 37.13177,37.13177 0 0 1 5.951256,7.286131 C 101.2972,41.12576 100.6607,54.881425 95.413303,62.993774 91.515911,69.020642 83.16848,74.679078 75.380569,74.613091 A 32.483768,32.483768 0 0 0 105.22621,59.668275 c 5.48384,-8.556392 5.6708,-19.445719 2.79898,-28.146459 z"
       fill="url(#m)"
       id="path1004"
       style="fill:url(#m);stroke-width:1.37474" />
    <path
       d="M 108.02519,31.521816 A 30.873946,30.873946 0 0 0 101.31369,20.32592 41.550189,41.550189 0 0 0 88.811794,11.399723 55.701779,55.701779 0 0 0 76.521604,7.0431674 54.761455,54.761455 0 0 0 53.74901,6.9056933 C 45.936353,8.5553834 39.06677,11.935873 34.721212,16.161828 a 44.129205,44.129205 0 0 1 11.040549,-4.399173 46.1432,46.1432 0 0 1 42.85482,11.135407 37.13177,37.13177 0 0 1 5.951256,7.286131 C 101.2972,41.12576 100.6607,54.881425 95.413303,62.993774 91.515911,69.020642 83.16848,74.679078 75.380569,74.613091 A 32.483768,32.483768 0 0 0 105.22621,59.668275 c 5.48384,-8.556392 5.6708,-19.445719 2.79898,-28.146459 z"
       fill="url(#n)"
       id="path1006"
       style="fill:url(#n);stroke-width:1.37474" />
    <path
       style="fill:#7014a0;fill-opacity:1;stroke:none;stroke-width:0.981774px;stroke-linecap:butt;stroke-linejoin:miter;stroke-opacity:1"
       d="M 34.721212,16.168702 V 22.05247 Z"
       id="path29389" />
  </g>
</svg>
