<?xml version="1.0" encoding="UTF-8" standalone="no"?>
<svg
   height="128px"
   viewBox="0 0 128 128"
   width="128px"
   version="1.1"
   id="svg9"
   sodipodi:docname="folder-books.svg"
   xml:space="preserve"
   inkscape:version="1.3.2 (091e20ef0f, 2023-11-25)"
   xmlns:inkscape="http://www.inkscape.org/namespaces/inkscape"
   xmlns:sodipodi="http://sodipodi.sourceforge.net/DTD/sodipodi-0.dtd"
   xmlns="http://www.w3.org/2000/svg"
   xmlns:svg="http://www.w3.org/2000/svg"><defs
     id="defs9" /><sodipodi:namedview
     id="namedview9"
     pagecolor="#ffffff"
     bordercolor="#000000"
     borderopacity="0.25"
     inkscape:showpageshadow="2"
     inkscape:pageopacity="0.0"
     inkscape:pagecheckerboard="0"
     inkscape:deskcolor="#d1d1d1"
     inkscape:zoom="3.5"
     inkscape:cx="10.571429"
     inkscape:cy="63.714285"
     inkscape:window-width="1920"
     inkscape:window-height="1043"
     inkscape:window-x="0"
     inkscape:window-y="0"
     inkscape:window-maximized="1"
     inkscape:current-layer="svg9" /><linearGradient
     id="a"
     gradientTransform="matrix(0.45451 0 0 0.455522 -1210.292114 616.172607)"
     gradientUnits="userSpaceOnUse"
     x1="2689.251953"
     x2="2918.069824"
     y1="-1106.802979"
     y2="-1106.802979"><stop
       offset="0"
       stop-color="#62a0ea"
       id="stop1" /><stop
       offset="0.0576991"
       stop-color="#afd4ff"
       id="stop2" /><stop
       offset="0.122204"
       stop-color="#62a0ea"
       id="stop3" /><stop
       offset="0.873306"
       stop-color="#62a0ea"
       id="stop4" /><stop
       offset="0.955997"
       stop-color="#c0d5ea"
       id="stop5" /><stop
       offset="1"
       stop-color="#62a0ea"
       id="stop6" /></linearGradient><path
     d="m 21.976562 12 c -5.527343 0 -9.976562 4.460938 -9.976562 10 v 86.03125 c 0 5.542969 4.449219 10 9.976562 10 h 84.042969 c 5.53125 0 9.980469 -4.457031 9.980469 -10 v -72.085938 c 0 -6.628906 -5.359375 -12 -11.972656 -12 h -46.027344 c -2.453125 0 -4.695312 -1.386718 -5.796875 -3.582031 l -1.503906 -2.992187 c -1.65625 -3.292969 -5.019531 -5.371094 -8.699219 -5.371094 z m 0 0"
     fill="#438de6"
     id="path6"
     style="fill:#b3b3b3;fill-opacity:1" /><path
     d="m 65.976562 36 c -2.746093 0 -5.226562 1.101562 -7.027343 2.890625 c -2.273438 2.253906 -5.382813 5.109375 -8.632813 5.109375 h -28.339844 c -5.527343 0 -9.976562 4.460938 -9.976562 10 v 54.03125 c 0 5.542969 4.449219 10 9.976562 10 h 84.042969 c 5.53125 0 9.980469 -4.457031 9.980469 -10 v -62.03125 c 0 -5.539062 -4.449219 -10 -9.980469 -10 z m 0 0"
     fill="url(#a)"
     id="path7"
     style="fill:#b3b3b3;fill-opacity:1" /><path
     d="m 65.976562 32 c -2.746093 0 -5.226562 1.101562 -7.027343 2.890625 c -2.273438 2.253906 -5.382813 5.109375 -8.632813 5.109375 h -28.339844 c -5.527343 0 -9.976562 4.460938 -9.976562 10 v 55.976562 c 0 5.539063 4.449219 10 9.976562 10 h 84.042969 c 5.53125 0 9.980469 -4.460937 9.980469 -10 v -63.976562 c 0 -5.539062 -4.449219 -10 -9.980469 -10 z m 0 0"
     fill="#a4caee"
     id="path8"
     style="fill:#ececec;fill-opacity:1" /><g
     style="fill:#b3b3b3;fill-opacity:1"
     id="g1"
     transform="matrix(0.05529366,0,0,0.05529366,37.459043,104.13716)"><path
       d="m 260,-320 q 47,0 91.5,10.5 44.5,10.5 88.5,31.5 v -394 q -41,-24 -87,-36 -46,-12 -93,-12 -36,0 -71.5,7 -35.5,7 -68.5,21 v 396 q 35,-12 69.5,-18 34.5,-6 70.5,-6 z m 260,42 q 44,-21 88.5,-31.5 44.5,-10.5 91.5,-10.5 36,0 70.5,6 34.5,6 69.5,18 v -396 q -33,-14 -68.5,-21 -35.5,-7 -71.5,-7 -47,0 -93,12 -46,12 -87,36 z m -40,97 q -14,0 -26.5,-3.5 -12.5,-3.5 -23.5,-9.5 -39,-23 -82,-34.5 -43,-11.5 -88,-11.5 -42,0 -82.5,11 -40.5,11 -77.5,31 -21,11 -40.5,-1 Q 40,-211 40,-234 v -482 q 0,-11 5.5,-21 5.5,-10 16.5,-15 46,-24 96,-36 50,-12 102,-12 58,0 113.5,15 55.5,15 106.5,45 51,-30 106.5,-45 55.5,-15 113.5,-15 52,0 102,12 50,12 96,36 11,5 16.5,15 5.5,10 5.5,21 v 482 q 0,23 -19.5,35 -19.5,12 -40.5,1 -37,-20 -77.5,-31 -40.5,-11 -82.5,-11 -45,0 -88,11.5 -43,11.5 -82,34.5 -11,6 -23.5,9.5 Q 494,-181 480,-181 Z M 280,-494 Z m 280,-115 q 0,-9 6.5,-18.5 6.5,-9.5 14.5,-12.5 29,-10 58,-15 29,-5 61,-5 20,0 39.5,2.5 19.5,2.5 38.5,6.5 9,2 15.5,10 6.5,8 6.5,18 0,17 -11,25 -11,8 -28,4 -14,-3 -29.5,-4.5 -15.5,-1.5 -31.5,-1.5 -26,0 -51,5 -25,5 -48,13 -18,7 -29.5,-1 -11.5,-8 -11.5,-26 z m 0,220 q 0,-9 6.5,-18.5 6.5,-9.5 14.5,-12.5 29,-10 58,-15 29,-5 61,-5 20,0 39.5,2.5 19.5,2.5 38.5,6.5 9,2 15.5,10 6.5,8 6.5,18 0,17 -11,25 -11,8 -28,4 -14,-3 -29.5,-4.5 -15.5,-1.5 -31.5,-1.5 -26,0 -51,4.5 -25,4.5 -48,12.5 -18,7 -29.5,-0.5 Q 560,-371 560,-389 Z m 0,-110 q 0,-9 6.5,-18.5 6.5,-9.5 14.5,-12.5 29,-10 58,-15 29,-5 61,-5 20,0 39.5,2.5 19.5,2.5 38.5,6.5 9,2 15.5,10 6.5,8 6.5,18 0,17 -11,25 -11,8 -28,4 -14,-3 -29.5,-4.5 -15.5,-1.5 -31.5,-1.5 -26,0 -51,5 -25,5 -48,13 -18,7 -29.5,-1 -11.5,-8 -11.5,-26 z"
       id="path1"
       style="fill:#b3b3b3;fill-opacity:1" /></g></svg>
