<?xml version="1.0" encoding="UTF-8" standalone="no"?>
<svg
   height="128px"
   viewBox="0 0 128 128"
   width="128px"
   version="1.1"
   id="svg8"
   sodipodi:docname="folder-study.svg"
   xml:space="preserve"
   inkscape:version="1.3.2 (091e20ef0f, 2023-11-25)"
   xmlns:inkscape="http://www.inkscape.org/namespaces/inkscape"
   xmlns:sodipodi="http://sodipodi.sourceforge.net/DTD/sodipodi-0.dtd"
   xmlns="http://www.w3.org/2000/svg"
   xmlns:svg="http://www.w3.org/2000/svg"><defs
     id="defs8" /><sodipodi:namedview
     id="namedview8"
     pagecolor="#ffffff"
     bordercolor="#000000"
     borderopacity="0.25"
     inkscape:showpageshadow="2"
     inkscape:pageopacity="0.0"
     inkscape:pagecheckerboard="0"
     inkscape:deskcolor="#d1d1d1"
     inkscape:zoom="7.0000002"
     inkscape:cx="46.071427"
     inkscape:cy="76.285712"
     inkscape:window-width="1920"
     inkscape:window-height="1043"
     inkscape:window-x="0"
     inkscape:window-y="0"
     inkscape:window-maximized="1"
     inkscape:current-layer="svg8" /><linearGradient
     id="a"
     gradientTransform="matrix(0.45451 0 0 0.455522 -1210.292114 616.172607)"
     gradientUnits="userSpaceOnUse"
     x1="2689.251953"
     x2="2918.069824"
     y1="-1106.802979"
     y2="-1106.802979"><stop
       offset="0"
       stop-color="#62a0ea"
       id="stop1" /><stop
       offset="0.0576991"
       stop-color="#afd4ff"
       id="stop2" /><stop
       offset="0.122204"
       stop-color="#62a0ea"
       id="stop3" /><stop
       offset="0.873306"
       stop-color="#62a0ea"
       id="stop4" /><stop
       offset="0.955997"
       stop-color="#c0d5ea"
       id="stop5" /><stop
       offset="1"
       stop-color="#62a0ea"
       id="stop6" /></linearGradient><path
     id="path6"
     style="fill:#93ac9d;fill-opacity:1"
     d="M 21.976562 12 C 16.449225 12 12 16.460944 12 22 L 12 54 L 12 108.03125 C 12 113.57421 16.449225 118.03125 21.976562 118.03125 L 106.01953 118.03125 C 111.55078 118.03125 116 113.57421 116 108.03125 L 116 46 L 116 35.945312 C 116 29.316413 110.64063 23.945312 104.02734 23.945312 L 58 23.945312 C 55.546877 23.945312 53.304687 22.558592 52.203125 20.363281 L 50.699219 17.371094 C 49.04297 14.078128 45.679684 12 42 12 L 21.976562 12 z " /><path
     d="M 65.976562,32 C 63.230469,32 60.75,33.101562 58.949219,34.890625 56.675781,37.144531 53.566406,40 50.316406,40 H 21.976562 C 16.449219,40 12,44.460938 12,50 v 55.97656 c 0,5.53907 4.449219,10 9.976562,10 h 84.042968 c 5.53125,0 9.98047,-4.46093 9.98047,-10 V 42 c 0,-5.539062 -4.44922,-10 -9.98047,-10 z m 0,0"
     fill="#a4caee"
     id="path8"
     style="fill:#dbe3e2;fill-opacity:1" /><g
     style="fill:#93ac9d;fill-opacity:1"
     id="g1"
     transform="matrix(0.04976558,0,0,0.04976558,39.042563,100.9031)"><path
       d="m 242,-249 q -20,-11 -31,-29.5 -11,-18.5 -11,-41.5 v -192 l -96,-53 q -11,-6 -16,-15 -5,-9 -5,-20 0,-11 5,-20 5,-9 16,-15 l 338,-184 q 9,-5 18.5,-7.5 9.5,-2.5 19.5,-2.5 10,0 19.5,2.5 9.5,2.5 18.5,7.5 l 381,208 q 10,5 15.5,14.5 5.5,9.5 5.5,20.5 v 256 q 0,17 -11.5,28.5 Q 897,-280 880,-280 863,-280 851.5,-291.5 840,-303 840,-320 v -236 l -80,44 v 192 q 0,23 -11,41.5 -11,18.5 -31,29.5 l -200,108 q -9,5 -18.5,7.5 -9.5,2.5 -19.5,2.5 -10,0 -19.5,-2.5 Q 451,-136 442,-141 Z M 480,-452 754,-600 480,-748 206,-600 Z m 0,241 200,-108 v -151 l -161,89 q -9,5 -19,7.5 -10,2.5 -20,2.5 -10,0 -20,-2.5 -10,-2.5 -19,-7.5 l -161,-89 v 151 z m 0,-241 z m 0,121 z m 0,0 z"
       id="path1"
       style="fill:#93ac9d;fill-opacity:1" /></g></svg>
