<?xml version="1.0" encoding="UTF-8" standalone="no"?>
<svg
   height="128px"
   viewBox="0 0 128 128"
   width="128px"
   version="1.1"
   id="svg8"
   sodipodi:docname="folder-obsidian.svg"
   xml:space="preserve"
   inkscape:version="1.3.2 (091e20ef0f, 2023-11-25)"
   xmlns:inkscape="http://www.inkscape.org/namespaces/inkscape"
   xmlns:sodipodi="http://sodipodi.sourceforge.net/DTD/sodipodi-0.dtd"
   xmlns="http://www.w3.org/2000/svg"
   xmlns:svg="http://www.w3.org/2000/svg"><defs
     id="defs8"><radialGradient
       id="logo-bottom-left"
       cx="0"
       cy="0"
       gradientTransform="matrix(-2.9166656,-11.122877,7.4152515,-1.9279654,59.322231,84.557486)"
       gradientUnits="userSpaceOnUse"
       r="1"><stop
         offset="0"
         stop-color="#fff"
         stop-opacity=".4"
         id="stop1-6" /><stop
         offset="1"
         stop-opacity=".1"
         id="stop2-2" /></radialGradient><radialGradient
       id="logo-top-right"
       cx="0"
       cy="0"
       gradientTransform="matrix(2.4717505,-18.735869,13.841803,1.8290954,69.140024,79.821612)"
       gradientUnits="userSpaceOnUse"
       r="1"><stop
         offset="0"
         stop-color="#fff"
         stop-opacity=".6"
         id="stop3-9" /><stop
         offset="1"
         stop-color="#fff"
         stop-opacity=".1"
         id="stop4-1" /></radialGradient><radialGradient
       id="logo-top-left"
       cx="0"
       cy="0"
       gradientTransform="matrix(3.4110157,-15.769768,10.776832,2.3234455,60.014321,76.499579)"
       gradientUnits="userSpaceOnUse"
       r="1"><stop
         offset="0"
         stop-color="#fff"
         stop-opacity=".8"
         id="stop5-2" /><stop
         offset="1"
         stop-color="#fff"
         stop-opacity=".4"
         id="stop6-7" /></radialGradient><radialGradient
       id="logo-bottom-right"
       cx="0"
       cy="0"
       gradientTransform="matrix(-4.745761,-8.0579066,9.2443469,-5.4872861,67.918979,86.643643)"
       gradientUnits="userSpaceOnUse"
       r="1"><stop
         offset="0"
         stop-color="#fff"
         stop-opacity=".3"
         id="stop7" /><stop
         offset="1"
         stop-opacity=".3"
         id="stop8" /></radialGradient><radialGradient
       id="logo-top-edge"
       cx="0"
       cy="0"
       gradientTransform="matrix(-36,166,-112,-24,310,128.2)"
       gradientUnits="userSpaceOnUse"
       r="1"><stop
         offset="0"
         stop-color="#fff"
         stop-opacity="0"
         id="stop9" /><stop
         offset="1"
         stop-color="#fff"
         stop-opacity=".2"
         id="stop10" /></radialGradient><radialGradient
       id="logo-left-edge"
       cx="0"
       cy="0"
       gradientTransform="matrix(88,89,-190,187,111,220.2)"
       gradientUnits="userSpaceOnUse"
       r="1"><stop
         offset="0"
         stop-color="#fff"
         stop-opacity=".2"
         id="stop11" /><stop
         offset="1"
         stop-color="#fff"
         stop-opacity=".4"
         id="stop12" /></radialGradient><radialGradient
       id="logo-bottom-edge"
       cx="0"
       cy="0"
       gradientTransform="matrix(9,130,-276,20,215,284)"
       gradientUnits="userSpaceOnUse"
       r="1"><stop
         offset="0"
         stop-color="#fff"
         stop-opacity=".2"
         id="stop13" /><stop
         offset="1"
         stop-color="#fff"
         stop-opacity=".3"
         id="stop14" /></radialGradient><radialGradient
       id="logo-middle-edge"
       cx="0"
       cy="0"
       gradientTransform="matrix(-198,-104,327,-623,400,399.2)"
       gradientUnits="userSpaceOnUse"
       r="1"><stop
         offset="0"
         stop-color="#fff"
         stop-opacity=".2"
         id="stop15" /><stop
         offset=".5"
         stop-color="#fff"
         stop-opacity=".2"
         id="stop16" /><stop
         offset="1"
         stop-color="#fff"
         stop-opacity=".3"
         id="stop17" /></radialGradient><clipPath
       clipPathUnits="userSpaceOnUse"
       id="clipPath1"><g
         id="g2"
         transform="matrix(20.228579,0,0,20.228579,-1038.6044,-1240.4778)"><path
           d="M 51.353307,61.332918 H 76.664032 V 86.643643 H 51.353307 Z"
           id="path1"
           style="stroke-width:0.049435" /></g></clipPath><clipPath
       clipPathUnits="userSpaceOnUse"
       id="clipPath2"><g
         id="g3"><path
           d="M 51.353307,61.332918 H 76.664032 V 86.643643 H 51.353307 Z"
           id="path2"
           style="stroke-width:0.049435" /></g></clipPath><clipPath
       clipPathUnits="userSpaceOnUse"
       id="clipPath3"><g
         id="g4"><path
           d="M 51.353307,61.332918 H 76.664032 V 86.643643 H 51.353307 Z"
           id="path3"
           style="stroke-width:0.049435" /></g></clipPath><clipPath
       clipPathUnits="userSpaceOnUse"
       id="clipPath4"><g
         id="g5"><path
           d="M 51.353307,61.332918 H 76.664032 V 86.643643 H 51.353307 Z"
           id="path4"
           style="stroke-width:0.049435" /></g></clipPath><clipPath
       clipPathUnits="userSpaceOnUse"
       id="clipPath5"><g
         id="g6"><path
           d="M 51.353307,61.332918 H 76.664032 V 86.643643 H 51.353307 Z"
           id="path5"
           style="stroke-width:0.049435" /></g></clipPath><clipPath
       clipPathUnits="userSpaceOnUse"
       id="clipPath6"><g
         id="g9"><path
           d="M 51.353307,61.332918 H 76.664032 V 86.643643 H 51.353307 Z"
           id="path9"
           style="stroke-width:0.049435" /></g></clipPath></defs><sodipodi:namedview
     id="namedview8"
     pagecolor="#ffffff"
     bordercolor="#000000"
     borderopacity="0.25"
     inkscape:showpageshadow="2"
     inkscape:pageopacity="0.0"
     inkscape:pagecheckerboard="0"
     inkscape:deskcolor="#d1d1d1"
     inkscape:zoom="2.4748738"
     inkscape:cx="-31.92082"
     inkscape:cy="2.828427"
     inkscape:window-width="1920"
     inkscape:window-height="1043"
     inkscape:window-x="0"
     inkscape:window-y="0"
     inkscape:window-maximized="1"
     inkscape:current-layer="svg8" /><linearGradient
     id="a"
     gradientTransform="matrix(0.45451 0 0 0.455522 -1210.292114 616.172607)"
     gradientUnits="userSpaceOnUse"
     x1="2689.251953"
     x2="2918.069824"
     y1="-1106.802979"
     y2="-1106.802979"><stop
       offset="0"
       stop-color="#62a0ea"
       id="stop1" /><stop
       offset="0.0576991"
       stop-color="#afd4ff"
       id="stop2" /><stop
       offset="0.122204"
       stop-color="#62a0ea"
       id="stop3" /><stop
       offset="0.873306"
       stop-color="#62a0ea"
       id="stop4" /><stop
       offset="0.955997"
       stop-color="#c0d5ea"
       id="stop5" /><stop
       offset="1"
       stop-color="#62a0ea"
       id="stop6" /></linearGradient><path
     d="M 21.976562,12 C 16.449219,12 12,16.460938 12,22 v 86.03125 c 0,5.54297 4.449219,10 9.976562,10 h 84.042968 c 5.53125,0 9.98047,-4.45703 9.98047,-10 V 35.945312 c 0,-6.628906 -5.35937,-12 -11.97266,-12 H 58 c -2.453125,0 -4.695312,-1.386718 -5.796875,-3.582031 L 50.699219,17.371094 C 49.042969,14.078125 45.679688,12 42,12 Z m 0,0"
     fill="#438de6"
     id="path6"
     style="fill:#8758ff;fill-opacity:1" /><path
     d="M 65.976562,36 C 63.230469,36 60.75,37.101562 58.949219,38.890625 56.675781,41.144531 53.566406,44 50.316406,44 H 21.976562 C 16.449219,44 12,48.460938 12,54 v 54.03125 c 0,5.54297 4.449219,10 9.976562,10 h 84.042968 c 5.53125,0 9.98047,-4.45703 9.98047,-10 V 46 c 0,-5.539062 -4.44922,-10 -9.98047,-10 z m 0,0"
     fill="url(#a)"
     id="path7"
     style="fill:#8758ff;fill-opacity:1" /><path
     d="M 65.976562,32 C 63.230469,32 60.75,33.101562 58.949219,34.890625 56.675781,37.144531 53.566406,40 50.316406,40 H 21.976562 C 16.449219,40 12,44.460938 12,50 v 55.97656 c 0,5.53907 4.449219,10 9.976562,10 h 84.042968 c 5.53125,0 9.98047,-4.46093 9.98047,-10 V 42 c 0,-5.539062 -4.44922,-10 -9.98047,-10 z m 0,0"
     fill="#a4caee"
     id="path8"
     style="fill:#dcdcf5;fill-opacity:1" /><path
     style="fill:#000000"
     id="path11" /><path
     style="fill:#000000"
     id="path10" /><path
     style="fill:#8758ff;fill-opacity:1;stroke-width:0.12321"
     d="m 64.523033,82.840864 c -1.203873,-0.0072 -2.495667,0.12133 -3.885452,0.379492 l -1.047286,0.194682 -0.0027,2.61052 c -0.0039,3.666676 -0.629681,6.430506 -2.292141,10.123687 -0.336174,0.746813 -0.622736,1.411363 -0.636746,1.476593 -0.02811,0.13092 0.577732,0.20438 4.040428,0.49093 3.068092,0.25387 3.61066,0.37347 9.302367,2.049322 1.343333,0.39555 2.179337,0.44181 2.990014,0.16557 1.310021,-0.446382 2.183198,-1.679952 2.482252,-3.506932 0.219547,-1.341234 0.601519,-2.814074 0.977741,-3.770175 l 0.297437,-0.756106 -0.66731,-1.331005 c -2.772623,-5.530483 -6.341882,-8.097024 -11.55867,-8.126578 z"
     id="path14" /><path
     style="fill:#8758ff;fill-opacity:1;stroke-width:0.12321"
     d="m 50.861285,73.844413 c -0.254992,0.02714 -0.405055,0.450485 -0.834797,1.424138 -0.358445,0.81212 -1.527222,3.408704 -2.59728,5.770184 l -1.945614,4.29358 0.06088,0.850199 c 0.08388,1.172283 0.06347,1.147036 4.83239,6.056317 4.838297,4.980696 4.210682,4.60448 4.933942,2.957037 3.920149,-8.92927 2.754951,-16.060846 -3.380579,-20.690886 -0.475422,-0.358766 -0.751413,-0.59148 -0.952232,-0.648296 -0.04183,-0.01184 -0.08028,-0.01614 -0.116713,-0.01226 z"
     id="path13" /><path
     style="fill:#8758ff;fill-opacity:1;stroke-width:0.12321"
     d="m 69.775517,56.644319 c -0.01548,-0.003 -0.02838,-0.0012 -0.03898,0.0045 -0.07714,0.04258 -0.03436,0.307755 -0.0051,0.659849 0.153563,1.845055 -0.246544,3.222422 -1.923473,6.622545 -2.600736,5.27322 -2.910238,7.909834 -1.547588,13.183492 0.936974,3.626218 1.038923,3.793246 2.544579,4.17519 3.989385,1.011988 7.056257,3.716799 9.36951,8.263021 0.439564,0.863872 0.217805,1.048057 1.916017,-1.593067 3.26051,-5.070809 3.18852,-4.813479 1.869358,-6.66488 -3.499567,-4.911497 -4.511938,-7.972997 -4.556374,-13.777879 -0.01034,-1.348241 -0.166325,-1.600638 -3.997831,-6.478401 -2.577811,-3.281724 -3.397866,-4.350782 -3.630129,-4.394418 z"
     id="path12" /><path
     style="fill:#8758ff;fill-opacity:1;stroke-width:0.12321"
     d="m 65.257964,53.647317 c -1.121168,0.01004 -1.302105,0.145582 -6.789796,5.082422 -6.041491,5.435047 -5.409758,4.485572 -6.081818,9.141859 -0.278753,1.931316 -0.534738,3.604725 -0.568885,3.718685 -0.04443,0.148287 0.148227,0.34997 0.677896,0.709663 3.327634,2.259752 5.302618,4.832637 6.602815,8.601125 0.0694,0.201153 0.154163,0.196909 1.818311,-0.08759 0.77675,-0.132796 2.002071,-0.279481 2.7229,-0.326084 0.720823,-0.0466 1.31055,-0.12229 1.31055,-0.168205 0,-0.04588 -0.140736,-0.495266 -0.312838,-0.998441 -2.216098,-6.479136 -2.001096,-10.443636 0.881483,-16.254356 2.060518,-4.153605 2.31079,-5.555635 1.467452,-8.223315 -0.365582,-1.156426 -0.4393,-1.207312 -1.72807,-1.195767 z"
     id="path15" /></svg>
