<?xml version="1.0" encoding="UTF-8" standalone="no"?>
<svg
   height="128px"
   viewBox="0 0 128 128"
   width="128px"
   version="1.1"
   id="svg8"
   sodipodi:docname="folder-icons.svg"
   xml:space="preserve"
   inkscape:version="1.3.2 (091e20ef0f, 2023-11-25)"
   xmlns:inkscape="http://www.inkscape.org/namespaces/inkscape"
   xmlns:sodipodi="http://sodipodi.sourceforge.net/DTD/sodipodi-0.dtd"
   xmlns="http://www.w3.org/2000/svg"
   xmlns:svg="http://www.w3.org/2000/svg"><defs
     id="defs8" /><sodipodi:namedview
     id="namedview8"
     pagecolor="#ffffff"
     bordercolor="#000000"
     borderopacity="0.25"
     inkscape:showpageshadow="2"
     inkscape:pageopacity="0.0"
     inkscape:pagecheckerboard="0"
     inkscape:deskcolor="#d1d1d1"
     inkscape:zoom="3.5000001"
     inkscape:cx="38.857142"
     inkscape:cy="95.714283"
     inkscape:window-width="1920"
     inkscape:window-height="1043"
     inkscape:window-x="0"
     inkscape:window-y="0"
     inkscape:window-maximized="1"
     inkscape:current-layer="svg8" /><linearGradient
     id="a"
     gradientTransform="matrix(0.45451 0 0 0.455522 -1210.292114 616.172607)"
     gradientUnits="userSpaceOnUse"
     x1="2689.251953"
     x2="2918.069824"
     y1="-1106.802979"
     y2="-1106.802979"><stop
       offset="0"
       stop-color="#62a0ea"
       id="stop1" /><stop
       offset="0.0576991"
       stop-color="#afd4ff"
       id="stop2" /><stop
       offset="0.122204"
       stop-color="#62a0ea"
       id="stop3" /><stop
       offset="0.873306"
       stop-color="#62a0ea"
       id="stop4" /><stop
       offset="0.955997"
       stop-color="#c0d5ea"
       id="stop5" /><stop
       offset="1"
       stop-color="#62a0ea"
       id="stop6" /></linearGradient><path
     d="M 21.976562,12 C 16.449219,12 12,16.460938 12,22 v 86.03125 c 0,5.54297 4.449219,10 9.976562,10 h 84.042968 c 5.53125,0 9.98047,-4.45703 9.98047,-10 V 35.945312 c 0,-6.628906 -5.35937,-12 -11.97266,-12 H 58 c -2.453125,0 -4.695312,-1.386718 -5.796875,-3.582031 L 50.699219,17.371094 C 49.042969,14.078125 45.679688,12 42,12 Z m 0,0"
     fill="#438de6"
     id="path6"
     style="fill:#8787de;fill-opacity:1" /><path
     d="M 65.976562,36 C 63.230469,36 60.75,37.101562 58.949219,38.890625 56.675781,41.144531 53.566406,44 50.316406,44 H 21.976562 C 16.449219,44 12,48.460938 12,54 v 54.03125 c 0,5.54297 4.449219,10 9.976562,10 h 84.042968 c 5.53125,0 9.98047,-4.45703 9.98047,-10 V 46 c 0,-5.539062 -4.44922,-10 -9.98047,-10 z m 0,0"
     fill="url(#a)"
     id="path7"
     style="fill:#8787de;fill-opacity:1" /><path
     d="M 65.976562,32 C 63.230469,32 60.75,33.101562 58.949219,34.890625 56.675781,37.144531 53.566406,40 50.316406,40 H 21.976562 C 16.449219,40 12,44.460938 12,50 v 55.97656 c 0,5.53907 4.449219,10 9.976562,10 h 84.042968 c 5.53125,0 9.98047,-4.46093 9.98047,-10 V 42 c 0,-5.539062 -4.44922,-10 -9.98047,-10 z m 0,0"
     fill="#a4caee"
     id="path8"
     style="fill:#d7d7f4;fill-opacity:1" /><g
     style="fill:#8787de;fill-opacity:1"
     id="g1"
     transform="matrix(0.04741753,0,0,0.04741753,41.239584,99.776041)"><path
       d="M 340,-540 H 200 q -33,0 -56.5,-23.5 Q 120,-587 120,-620 v -140 q 0,-33 23.5,-56.5 Q 167,-840 200,-840 h 140 q 33,0 56.5,23.5 23.5,23.5 23.5,56.5 v 140 q 0,33 -23.5,56.5 Q 373,-540 340,-540 Z M 200,-620 H 340 V -760 H 200 Z m 140,500 H 200 q -33,0 -56.5,-23.5 Q 120,-167 120,-200 v -140 q 0,-33 23.5,-56.5 Q 167,-420 200,-420 h 140 q 33,0 56.5,23.5 23.5,23.5 23.5,56.5 v 140 q 0,33 -23.5,56.5 Q 373,-120 340,-120 Z M 200,-200 H 340 V -340 H 200 Z M 760,-540 H 620 q -33,0 -56.5,-23.5 Q 540,-587 540,-620 v -140 q 0,-33 23.5,-56.5 Q 587,-840 620,-840 h 140 q 33,0 56.5,23.5 23.5,23.5 23.5,56.5 v 140 q 0,33 -23.5,56.5 Q 793,-540 760,-540 Z M 620,-620 H 760 V -760 H 620 Z m 140,500 H 620 q -33,0 -56.5,-23.5 Q 540,-167 540,-200 v -140 q 0,-33 23.5,-56.5 Q 587,-420 620,-420 h 140 q 33,0 56.5,23.5 23.5,23.5 23.5,56.5 v 140 q 0,33 -23.5,56.5 Q 793,-120 760,-120 Z M 620,-200 H 760 V -340 H 620 Z M 340,-620 Z m 0,280 z m 280,-280 z m 0,280 z"
       id="path1"
       style="fill:#8787de;fill-opacity:1" /></g></svg>
