<?xml version="1.0" encoding="UTF-8" standalone="no"?>
<svg
   height="128px"
   viewBox="0 0 128 128"
   width="128px"
   version="1.1"
   id="svg8"
   sodipodi:docname="folder-illustrator.svg"
   xml:space="preserve"
   inkscape:version="1.3.2 (091e20ef0f, 2023-11-25)"
   xmlns:inkscape="http://www.inkscape.org/namespaces/inkscape"
   xmlns:sodipodi="http://sodipodi.sourceforge.net/DTD/sodipodi-0.dtd"
   xmlns="http://www.w3.org/2000/svg"
   xmlns:svg="http://www.w3.org/2000/svg"><defs
     id="defs8" /><sodipodi:namedview
     id="namedview8"
     pagecolor="#ffffff"
     bordercolor="#000000"
     borderopacity="0.25"
     inkscape:showpageshadow="2"
     inkscape:pageopacity="0.0"
     inkscape:pagecheckerboard="0"
     inkscape:deskcolor="#d1d1d1"
     inkscape:zoom="7.0000002"
     inkscape:cx="64.42857"
     inkscape:cy="73.999998"
     inkscape:window-width="1920"
     inkscape:window-height="1043"
     inkscape:window-x="0"
     inkscape:window-y="0"
     inkscape:window-maximized="1"
     inkscape:current-layer="svg8" /><linearGradient
     id="a"
     gradientTransform="matrix(0.45451 0 0 0.455522 -1210.292114 616.172607)"
     gradientUnits="userSpaceOnUse"
     x1="2689.251953"
     x2="2918.069824"
     y1="-1106.802979"
     y2="-1106.802979"><stop
       offset="0"
       stop-color="#62a0ea"
       id="stop1" /><stop
       offset="0.0576991"
       stop-color="#afd4ff"
       id="stop2" /><stop
       offset="0.122204"
       stop-color="#62a0ea"
       id="stop3" /><stop
       offset="0.873306"
       stop-color="#62a0ea"
       id="stop4" /><stop
       offset="0.955997"
       stop-color="#c0d5ea"
       id="stop5" /><stop
       offset="1"
       stop-color="#62a0ea"
       id="stop6" /></linearGradient><path
     d="M 21.976562,12 C 16.449219,12 12,16.460938 12,22 v 86.03125 c 0,5.54297 4.449219,10 9.976562,10 h 84.042968 c 5.53125,0 9.98047,-4.45703 9.98047,-10 V 35.945312 c 0,-6.628906 -5.35937,-12 -11.97266,-12 H 58 c -2.453125,0 -4.695312,-1.386718 -5.796875,-3.582031 L 50.699219,17.371094 C 49.042969,14.078125 45.679688,12 42,12 Z m 0,0"
     fill="#438de6"
     id="path6"
     style="fill:#dc8a47;fill-opacity:1" /><path
     d="M 65.976562,36 C 63.230469,36 60.75,37.101562 58.949219,38.890625 56.675781,41.144531 53.566406,44 50.316406,44 H 21.976562 C 16.449219,44 12,48.460938 12,54 v 54.03125 c 0,5.54297 4.449219,10 9.976562,10 h 84.042968 c 5.53125,0 9.98047,-4.45703 9.98047,-10 V 46 c 0,-5.539062 -4.44922,-10 -9.98047,-10 z m 0,0"
     fill="url(#a)"
     id="path7"
     style="fill:#dc8a47;fill-opacity:1" /><path
     d="M 65.976562,32 C 63.230469,32 60.75,33.101562 58.949219,34.890625 56.675781,37.144531 53.566406,40 50.316406,40 H 21.976562 C 16.449219,40 12,44.460938 12,50 v 55.97656 c 0,5.53907 4.449219,10 9.976562,10 h 84.042968 c 5.53125,0 9.98047,-4.46093 9.98047,-10 V 42 c 0,-5.539062 -4.44922,-10 -9.98047,-10 z m 0,0"
     fill="#a4caee"
     id="path8"
     style="fill:#530000;fill-opacity:1" /><path
     fill="#ff9a00"
     d="m 63.280681,84.224123 h -10.34788 l -2.114084,6.536968 c -0.05564,0.250352 -0.278169,0.417253 -0.528521,0.389435 h -5.229573 c -0.305986,0 -0.389437,-0.166901 -0.305986,-0.500704 l 8.957036,-25.78625 c 0.08345,-0.278169 0.166902,-0.584154 0.278169,-0.917956 0.111276,-0.584155 0.166901,-1.196126 0.166901,-1.808099 -0.02781,-0.139077 0.08345,-0.278168 0.222536,-0.305985 h 7.204573 c 0.222534,0 0.3338,0.08345 0.361618,0.222537 l 10.153163,28.651387 c 0.08345,0.305987 0,0.44507 -0.278169,0.44507 h -5.813729 c -0.194719,0.02782 -0.389436,-0.111253 -0.44507,-0.305985 z M 54.54618,78.577295 h 7.065487 c -0.166901,-0.584154 -0.389436,-1.279576 -0.639788,-2.002814 -0.25035,-0.751056 -0.500704,-1.557747 -0.751056,-2.392253 -0.278169,-0.862324 -0.52852,-1.69683 -0.806689,-2.559153 -0.278168,-0.862323 -0.52852,-1.669012 -0.751055,-2.475703 -0.222537,-0.778872 -0.417254,-1.502111 -0.611972,-2.169717 h -0.05564 c -0.250351,1.196127 -0.556338,2.392253 -0.945775,3.588379 -0.417251,1.335209 -0.834505,2.726054 -1.279577,4.116898 -0.389435,1.418661 -0.806688,2.726054 -1.223941,3.894363 z M 78.301796,66.699487 c -0.917955,0.02781 -1.808096,-0.333803 -2.475702,-0.973591 -0.639788,-0.695421 -0.97359,-1.613378 -0.945774,-2.559153 -0.02782,-0.945775 0.333803,-1.835915 1.001409,-2.475704 0.667604,-0.639786 1.557744,-0.973589 2.475701,-0.973589 1.08486,0 1.919366,0.333803 2.531338,0.973589 0.611971,0.667606 0.945773,1.557747 0.917957,2.475704 0.02782,0.945775 -0.305986,1.863732 -0.973592,2.559153 -0.639788,0.667606 -1.585562,1.029225 -2.531337,0.973591 z m -3.11549,24.145054 V 69.425542 c 0,-0.27817 0.111276,-0.389437 0.36162,-0.389437 h 5.507742 c 0.250352,0 0.36162,0.139078 0.36162,0.389437 v 21.418999 c 0,0.305985 -0.111276,0.44507 -0.36162,0.44507 H 75.60356 c -0.278168,0 -0.417254,-0.166902 -0.417254,-0.44507 z"
     id="path2"
     style="stroke-width:0.278168" /></svg>
