<?xml version="1.0" encoding="UTF-8" standalone="no"?>
<svg
   height="128px"
   viewBox="0 0 128 128"
   width="128px"
   version="1.1"
   id="svg8"
   sodipodi:docname="folder-apps.svg"
   xml:space="preserve"
   inkscape:version="1.3.2 (091e20ef0f, 2023-11-25)"
   xmlns:inkscape="http://www.inkscape.org/namespaces/inkscape"
   xmlns:sodipodi="http://sodipodi.sourceforge.net/DTD/sodipodi-0.dtd"
   xmlns="http://www.w3.org/2000/svg"
   xmlns:svg="http://www.w3.org/2000/svg"><defs
     id="defs8" /><sodipodi:namedview
     id="namedview8"
     pagecolor="#ffffff"
     bordercolor="#000000"
     borderopacity="0.25"
     inkscape:showpageshadow="2"
     inkscape:pageopacity="0.0"
     inkscape:pagecheckerboard="0"
     inkscape:deskcolor="#d1d1d1"
     inkscape:zoom="4.9497476"
     inkscape:cx="88.792406"
     inkscape:cy="76.771591"
     inkscape:window-width="1920"
     inkscape:window-height="1043"
     inkscape:window-x="0"
     inkscape:window-y="0"
     inkscape:window-maximized="1"
     inkscape:current-layer="svg8" /><linearGradient
     id="a"
     gradientTransform="matrix(0.45451 0 0 0.455522 -1210.292114 616.172607)"
     gradientUnits="userSpaceOnUse"
     x1="2689.251953"
     x2="2918.069824"
     y1="-1106.802979"
     y2="-1106.802979"><stop
       offset="0"
       stop-color="#62a0ea"
       id="stop1" /><stop
       offset="0.0576991"
       stop-color="#afd4ff"
       id="stop2" /><stop
       offset="0.122204"
       stop-color="#62a0ea"
       id="stop3" /><stop
       offset="0.873306"
       stop-color="#62a0ea"
       id="stop4" /><stop
       offset="0.955997"
       stop-color="#c0d5ea"
       id="stop5" /><stop
       offset="1"
       stop-color="#62a0ea"
       id="stop6" /></linearGradient><path
     id="path6"
     style="fill:#93ac9d;fill-opacity:1"
     d="M 21.976562 12 C 16.449225 12 12 16.460944 12 22 L 12 54 L 12 108.03125 C 12 113.57421 16.449225 118.03125 21.976562 118.03125 L 106.01953 118.03125 C 111.55078 118.03125 116 113.57421 116 108.03125 L 116 46 L 116 35.945312 C 116 29.316413 110.64063 23.945312 104.02734 23.945312 L 58 23.945312 C 55.546877 23.945312 53.304687 22.558592 52.203125 20.363281 L 50.699219 17.371094 C 49.04297 14.078128 45.679684 12 42 12 L 21.976562 12 z " /><path
     d="M 65.976562,32 C 63.230469,32 60.75,33.101562 58.949219,34.890625 56.675781,37.144531 53.566406,40 50.316406,40 H 21.976562 C 16.449219,40 12,44.460938 12,50 v 55.97656 c 0,5.53907 4.449219,10 9.976562,10 h 84.042968 c 5.53125,0 9.98047,-4.46093 9.98047,-10 V 42 c 0,-5.539062 -4.44922,-10 -9.98047,-10 z m 0,0"
     fill="#a4caee"
     id="path8"
     style="fill:#dbe3e2;fill-opacity:1" /><path
     style="fill:#93ac9d;fill-opacity:1;stroke-width:0.0541877"
     d="m 77.005061,68.34558 q -1.788196,0 -3.061608,-1.273412 -1.273412,-1.273412 -1.273412,-3.061608 0,-1.788196 1.273412,-3.061608 1.273412,-1.273412 3.061608,-1.273412 1.788196,0 3.061608,1.273412 1.273412,1.273412 1.273412,3.061608 0,1.788196 -1.273412,3.061608 -1.273412,1.273412 -3.061608,1.273412 z"
     id="path12" /><path
     style="fill:#93ac9d;fill-opacity:1;stroke-width:0.0541877"
     d="m 64.000001,68.34558 q -1.788196,0 -3.061608,-1.273412 -1.273412,-1.273412 -1.273412,-3.061608 0,-1.788196 1.273412,-3.061608 1.273412,-1.273412 3.061608,-1.273412 1.788196,0 3.061608,1.273412 1.273412,1.273412 1.273412,3.061608 0,1.788196 -1.273412,3.061608 -1.273412,1.273412 -3.061608,1.273412 z"
     id="path11" /><path
     style="fill:#93ac9d;fill-opacity:1;stroke-width:0.0541877"
     d="m 50.994941,68.34558 q -1.788196,0 -3.061608,-1.273412 -1.273412,-1.273412 -1.273412,-3.061608 0,-1.788196 1.273412,-3.061608 1.273412,-1.273412 3.061608,-1.273412 1.788196,0 3.061608,1.273412 1.273412,1.273412 1.273412,3.061608 0,1.788196 -1.273412,3.061608 -1.273412,1.273412 -3.061608,1.273412 z"
     id="path10" /><path
     style="fill:#93ac9d;fill-opacity:1;stroke-width:0.0541877"
     d="m 77.005061,81.35064 q -1.788196,0 -3.061608,-1.273412 -1.273412,-1.273412 -1.273412,-3.061608 0,-1.788196 1.273412,-3.061608 1.273412,-1.273412 3.061608,-1.273412 1.788196,0 3.061608,1.273412 1.273412,1.273412 1.273412,3.061608 0,1.788196 -1.273412,3.061608 -1.273412,1.273412 -3.061608,1.273412 z"
     id="path9" /><path
     style="fill:#93ac9d;fill-opacity:1;stroke-width:0.0541877"
     d="m 64.000001,81.35064 q -1.788196,0 -3.061608,-1.273412 -1.273412,-1.273412 -1.273412,-3.061608 0,-1.788196 1.273412,-3.061608 1.273412,-1.273412 3.061608,-1.273412 1.788196,0 3.061608,1.273412 1.273412,1.273412 1.273412,3.061608 0,1.788196 -1.273412,3.061608 -1.273412,1.273412 -3.061608,1.273412 z"
     id="path5" /><path
     style="fill:#93ac9d;fill-opacity:1;stroke-width:0.0541877"
     d="m 50.994941,81.35064 q -1.788196,0 -3.061608,-1.273412 -1.273412,-1.273412 -1.273412,-3.061608 0,-1.788196 1.273412,-3.061608 1.273412,-1.273412 3.061608,-1.273412 1.788196,0 3.061608,1.273412 1.273412,1.273412 1.273412,3.061608 0,1.788196 -1.273412,3.061608 -1.273412,1.273412 -3.061608,1.273412 z"
     id="path4" /><path
     style="fill:#93ac9d;fill-opacity:1;stroke-width:0.0541877"
     d="m 77.005061,94.3557 q -1.788196,0 -3.061608,-1.273412 -1.273412,-1.273412 -1.273412,-3.061608 0,-1.788196 1.273412,-3.061608 1.273412,-1.273412 3.061608,-1.273412 1.788196,0 3.061608,1.273412 1.273412,1.273412 1.273412,3.061608 0,1.788196 -1.273412,3.061608 -1.273412,1.273412 -3.061608,1.273412 z"
     id="path3" /><path
     style="fill:#93ac9d;fill-opacity:1;stroke-width:0.0541877"
     d="m 64.000001,94.3557 q -1.788196,0 -3.061608,-1.273412 -1.273412,-1.273412 -1.273412,-3.061608 0,-1.788196 1.273412,-3.061608 1.273412,-1.273412 3.061608,-1.273412 1.788196,0 3.061608,1.273412 1.273412,1.273412 1.273412,3.061608 0,1.788196 -1.273412,3.061608 -1.273412,1.273412 -3.061608,1.273412 z"
     id="path2" /><path
     style="fill:#93ac9d;fill-opacity:1;stroke-width:0.0541877"
     d="m 50.994941,94.3557 q -1.788196,0 -3.061608,-1.273412 -1.273412,-1.273412 -1.273412,-3.061608 0,-1.788196 1.273412,-3.061608 1.273412,-1.273412 3.061608,-1.273412 1.788196,0 3.061608,1.273412 1.273412,1.273412 1.273412,3.061608 0,1.788196 -1.273412,3.061608 -1.273412,1.273412 -3.061608,1.273412 z"
     id="path1" /></svg>
