<?xml version="1.0" encoding="UTF-8"?>
<svg height="128px" viewBox="0 0 128 128" width="128px" xmlns="http://www.w3.org/2000/svg" xmlns:xlink="http://www.w3.org/1999/xlink">
    <linearGradient id="a" gradientTransform="matrix(0 -0.932866 -1 0 -0.000006 -170.918221)" gradientUnits="userSpaceOnUse" x1="-280.623596" x2="-287.76535" y1="-66.117432" y2="-66.117432">
        <stop offset="0" stop-color="#313133"/>
        <stop offset="1" stop-color="#9a9996"/>
    </linearGradient>
    <linearGradient id="b" gradientTransform="matrix(0 -1 -1 0 0 -172)" gradientUnits="userSpaceOnUse" x1="-271.974609" x2="-266.414551" y1="-62.938477" y2="-62.938477">
        <stop offset="0" stop-color="#aeadab"/>
        <stop offset="1" stop-color="#aeadab" stop-opacity="0"/>
    </linearGradient>
    <linearGradient id="c" gradientTransform="matrix(2.381786 0 0 2.083491 -2851.15332 1636.15686)" gradientUnits="userSpaceOnUse" x1="1202" x2="1246" y1="-735" y2="-735">
        <stop offset="0" stop-color="#9a9996" stop-opacity="0"/>
        <stop offset="0.0909091" stop-color="#9a9996"/>
        <stop offset="0.909091" stop-color="#9a9996"/>
        <stop offset="1" stop-color="#9a9996" stop-opacity="0"/>
    </linearGradient>
    <linearGradient id="d" gradientTransform="matrix(0.25 0 0 0.166667 -164.000015 168.666656)" gradientUnits="userSpaceOnUse" x1="904" x2="904" y1="-340" y2="-385.948242">
        <stop offset="0" stop-color="#77767b"/>
        <stop offset="0.603496" stop-color="#c0bfbc"/>
        <stop offset="1" stop-color="#aeadab"/>
    </linearGradient>
    <linearGradient id="e" gradientTransform="matrix(0.232338 0 0 0.233165 -8.671706 198.782745)" gradientUnits="userSpaceOnUse" x1="88.595886" x2="536.595886" y1="-449.394012" y2="-449.394012">
        <stop offset="0" stop-color="#c4c4c6"/>
        <stop offset="0.0357143" stop-color="#f0f0ee"/>
        <stop offset="0.0713653" stop-color="#cfcfcd"/>
        <stop offset="0.928571" stop-color="#d5d5d5"/>
        <stop offset="0.964286" stop-color="#c0bfbc"/>
        <stop offset="1" stop-color="#77767b"/>
    </linearGradient>
    <linearGradient id="f" gradientUnits="userSpaceOnUse" x1="45.543945" x2="45.543945" y1="72.562012" y2="83.275391">
        <stop offset="0" stop-color="#77767b"/>
        <stop offset="1" stop-color="#c0bfbc"/>
    </linearGradient>
    <path d="m 68 105.210938 v -29.851563 h -8 v 29.851563 z m 0 0" fill="url(#a)"/>
    <path d="m 63.796875 105.210938 v -29.851563 h -1.796875 v 29.851563 z m 0 0" fill="url(#b)"/>
    <path d="m 8.179688 105.832031 h 111.945312 v 4.167969 h -111.945312 z m 0 0" fill="url(#c)"/>
    <path d="m 51.730469 104 h 24.539062 c 2.0625 0 3.730469 1.667969 3.730469 3.730469 v 0.539062 c 0 2.0625 -1.667969 3.730469 -3.730469 3.730469 h -24.539062 c -2.0625 0 -3.730469 -1.667969 -3.730469 -3.730469 v -0.539062 c 0 -2.0625 1.667969 -3.730469 3.730469 -3.730469 z m 0 0" fill="url(#d)"/>
    <path d="m 19.355469 23.117188 h 89.203125 c 4.109375 0 7.441406 3.339843 7.441406 7.460937 v 55.960937 c 0 4.121094 -3.332031 7.460938 -7.441406 7.460938 h -89.203125 c -4.109375 0 -7.441407 -3.339844 -7.441407 -7.460938 v -55.960937 c 0 -4.121094 3.332032 -7.460937 7.441407 -7.460937 z m 0 0" fill="url(#e)"/>
    <path d="m 19.5625 12 h 88.929688 c 4.148437 0 7.507812 3.359375 7.507812 7.507812 v 40.722657 c 0 4.148437 -3.359375 7.507812 -7.507812 7.507812 h -88.929688 c -4.144531 0 -7.507812 -3.359375 -7.507812 -7.507812 v -40.722657 c 0 -4.148437 3.363281 -7.507812 7.507812 -7.507812 z m 0 0" fill="#deddda"/>
    <g fill="#ff7800">
        <path d="m 104 84.996094 c 0 0.5625 -0.457031 1.023437 -1.023438 1.023437 c -0.5625 0 -1.019531 -0.460937 -1.019531 -1.023437 s 0.457031 -1.023438 1.019531 -1.023438 c 0.566407 0 1.023438 0.460938 1.023438 1.023438 z m 0 0"/>
        <path d="m 104 81.023438 c 0 0.5625 -0.457031 1.019531 -1.023438 1.019531 c -0.5625 0 -1.019531 -0.457031 -1.019531 -1.019531 c 0 -0.566407 0.457031 -1.023438 1.019531 -1.023438 c 0.566407 0 1.023438 0.457031 1.023438 1.023438 z m 0 0"/>
        <path d="m 104 77.039062 c 0 0.566407 -0.457031 1.023438 -1.023438 1.023438 c -0.5625 0 -1.019531 -0.457031 -1.019531 -1.023438 c 0 -0.5625 0.457031 -1.019531 1.019531 -1.019531 c 0.566407 0 1.023438 0.457031 1.023438 1.019531 z m 0 0"/>
    </g>
    <path d="m 11.914062 58.566406 v 1.859375 c 0 4.167969 3.347657 7.519531 7.507813 7.519531 h 89.066406 c 4.160157 0 7.511719 -3.351562 7.511719 -7.519531 v -1.859375 c 0 4.164063 -3.351562 7.519532 -7.511719 7.519532 h -89.066406 c -4.160156 0 -7.507813 -3.355469 -7.507813 -7.519532 z m 0 0" fill="#f6f5f4"/>
    <path d="m 101.011719 84.996094 c 0 0.5625 -0.457031 1.023437 -1.019531 1.023437 c -0.566407 0 -1.023438 -0.460937 -1.023438 -1.023437 s 0.457031 -1.023438 1.023438 -1.023438 c 0.5625 0 1.019531 0.460938 1.019531 1.023438 z m 0 0" fill="#c01c28"/>
    <path d="m 101.011719 81.023438 c 0 0.5625 -0.457031 1.019531 -1.019531 1.019531 c -0.566407 0 -1.023438 -0.457031 -1.023438 -1.019531 c 0 -0.566407 0.457031 -1.023438 1.023438 -1.023438 c 0.5625 0 1.019531 0.457031 1.019531 1.023438 z m 0 0" fill="#ff7800"/>
    <path d="m 101.011719 77.039062 c 0 0.566407 -0.457031 1.023438 -1.019531 1.023438 c -0.566407 0 -1.023438 -0.457031 -1.023438 -1.023438 c 0 -0.5625 0.457031 -1.019531 1.023438 -1.019531 c 0.5625 0 1.019531 0.457031 1.019531 1.019531 z m 0 0" fill="#c01c28"/>
    <path d="m 98.027344 84.996094 c 0 0.5625 -0.457032 1.023437 -1.023438 1.023437 c -0.5625 0 -1.019531 -0.460937 -1.019531 -1.023437 s 0.457031 -1.023438 1.019531 -1.023438 c 0.566406 0 1.023438 0.460938 1.023438 1.023438 z m 0 0" fill="#ff7800"/>
    <path d="m 98.027344 81.023438 c 0 0.5625 -0.457032 1.019531 -1.023438 1.019531 c -0.5625 0 -1.019531 -0.457031 -1.019531 -1.019531 c 0 -0.566407 0.457031 -1.023438 1.019531 -1.023438 c 0.566406 0 1.023438 0.457031 1.023438 1.023438 z m 0 0" fill="#c01c28"/>
    <path d="m 98.027344 77.039062 c 0 0.566407 -0.457032 1.023438 -1.023438 1.023438 c -0.5625 0 -1.019531 -0.457031 -1.019531 -1.023438 c 0 -0.5625 0.457031 -1.019531 1.019531 -1.019531 c 0.566406 0 1.023438 0.457031 1.023438 1.019531 z m 0 0" fill="#c01c28"/>
    <path d="m 65.421875 80.441406 c -0.511719 0.007813 -0.996094 0.214844 -1.355469 0.578125 l -3.644531 3.714844 c -0.742187 0.757813 -0.730469 1.972656 0.027344 2.714844 c 0.757812 0.742187 1.972656 0.730469 2.714843 -0.023438 l 3.644532 -3.71875 c 0.742187 -0.757812 0.730468 -1.972656 -0.023438 -2.714843 c -0.367187 -0.355469 -0.855468 -0.554688 -1.363281 -0.550782 z m -35.875 -8.375 c -0.507813 0.007813 -0.996094 0.214844 -1.351563 0.578125 l -3.644531 3.714844 c -0.742187 0.757813 -0.730469 1.972656 0.023438 2.714844 c 0.757812 0.746093 1.972656 0.734375 2.714843 -0.023438 l 3.648438 -3.71875 c 0.742188 -0.757812 0.730469 -1.972656 -0.027344 -2.714843 c -0.363281 -0.355469 -0.855468 -0.554688 -1.363281 -0.550782 z m 8.675781 -0.066406 c -0.511718 -0.003906 -1 0.195312 -1.363281 0.550781 l -12.285156 12.097657 c -0.757813 0.746093 -0.765625 1.960937 -0.023438 2.714843 c 0.746094 0.757813 1.960938 0.765625 2.714844 0.023438 l 12.289063 -12.097657 c 0.753906 -0.746093 0.765624 -1.960937 0.019531 -2.714843 c -0.355469 -0.363281 -0.84375 -0.570313 -1.351563 -0.574219 z m 9.117188 0 c -0.511719 -0.003906 -1 0.195312 -1.363282 0.550781 l -12.289062 12.097657 c -0.753906 0.746093 -0.761719 1.960937 -0.019531 2.714843 c 0.746093 0.757813 1.960937 0.765625 2.714843 0.023438 l 12.289063 -12.097657 c 0.753906 -0.746093 0.765625 -1.960937 0.019531 -2.714843 c -0.355468 -0.363281 -0.84375 -0.570313 -1.351562 -0.574219 z m 9.117187 0 c -0.507812 -0.003906 -0.996093 0.195312 -1.359375 0.550781 l -12.289062 12.097657 c -0.753906 0.746093 -0.765625 1.960937 -0.019532 2.714843 c 0.355469 0.363281 0.84375 0.570313 1.351563 0.574219 c 0.511719 0.003906 1 -0.195312 1.363281 -0.550781 l 12.289063 -12.097657 c 0.753906 -0.746093 0.761719 -1.960937 0.019531 -2.714843 c -0.359375 -0.363281 -0.84375 -0.570313 -1.355469 -0.574219 z m 7.757813 0.550781 l -12.285156 12.097657 c -0.753907 0.746093 -0.765626 1.960937 -0.019532 2.714843 c 0.742188 0.757813 1.957032 0.765625 2.714844 0.023438 l 12.285156 -12.097657 c 0.757813 -0.746093 0.765625 -1.960937 0.019532 -2.714843 c -0.742188 -0.757813 -1.957032 -0.765625 -2.714844 -0.023438 z m 0 0" fill="url(#f)"/>
</svg>
