<?xml version="1.0" encoding="UTF-8"?>
<svg height="128px" viewBox="0 0 128 128" width="128px" xmlns="http://www.w3.org/2000/svg" xmlns:xlink="http://www.w3.org/1999/xlink">
    <clipPath id="a">
        <path d="m 32 51 h 36 v 39 h -36 z m 0 0"/>
    </clipPath>
    <clipPath id="b">
        <path d="m 31.351562 39.5625 h 37.296876 v 51.050781 h -37.296876 z m 28.242188 31.855469 c 0 -5.023438 -4.289062 -9.101563 -9.582031 -9.101563 c -5.289063 0 -9.578125 4.078125 -9.578125 9.101563 c 0 5.027343 4.289062 9.101562 9.578125 9.101562 c 5.292969 0 9.582031 -4.074219 9.582031 -9.101562 z m 0 0"/>
    </clipPath>
    <linearGradient id="c" gradientUnits="userSpaceOnUse">
        <stop offset="0" stop-color="#9a9996"/>
        <stop offset="0.0414257" stop-color="#c0bfbc"/>
        <stop offset="0.0815191" stop-color="#9a9996"/>
        <stop offset="0.899024" stop-color="#77767b"/>
        <stop offset="0.952865" stop-color="#c0bfbc"/>
        <stop offset="1" stop-color="#77767b"/>
    </linearGradient>
    <linearGradient id="d" gradientTransform="matrix(0.129522 0 0 0.12304 -20.172717 -8.276901)" x1="403.496033" x2="678.908813" xlink:href="#c" y1="793.565552" y2="793.565552"/>
    <clipPath id="e">
        <path d="m 32 50 h 36 v 39 h -36 z m 0 0"/>
    </clipPath>
    <clipPath id="f">
        <path d="m 31.351562 39.5625 h 37.296876 v 51.050781 h -37.296876 z m 28.242188 31.855469 c 0 -5.023438 -4.289062 -9.101563 -9.582031 -9.101563 c -5.289063 0 -9.578125 4.078125 -9.578125 9.101563 c 0 5.027343 4.289062 9.101562 9.578125 9.101562 c 5.292969 0 9.582031 -4.074219 9.582031 -9.101562 z m 0 0"/>
    </clipPath>
    <clipPath id="g">
        <path d="m 32 40 h 36 v 40 h -36 z m 0 0"/>
    </clipPath>
    <clipPath id="h">
        <path d="m 31.351562 39.5625 h 37.296876 v 51.050781 h -37.296876 z m 28.242188 31.855469 c 0 -5.023438 -4.289062 -9.101563 -9.582031 -9.101563 c -5.289063 0 -9.578125 4.078125 -9.578125 9.101563 c 0 5.027343 4.289062 9.101562 9.578125 9.101562 c 5.292969 0 9.582031 -4.074219 9.582031 -9.101562 z m 0 0"/>
    </clipPath>
    <linearGradient id="i" gradientUnits="userSpaceOnUse">
        <stop offset="0" stop-color="#3d3846"/>
        <stop offset="0.0279595" stop-color="#79718e"/>
        <stop offset="0.0654033" stop-color="#4e475a"/>
        <stop offset="0.938181" stop-color="#716881"/>
        <stop offset="0.971878" stop-color="#847a96"/>
        <stop offset="1" stop-color="#3d3846"/>
    </linearGradient>
    <linearGradient id="j" gradientTransform="matrix(0.224856 0 0 0.22209 -200.939247 25.114628)" x1="928.741516" x2="1302.490479" xlink:href="#i" y1="216.638611" y2="216.638611"/>
    <linearGradient id="k" gradientTransform="matrix(0.45451 0 0 0.455522 -1210.292114 612.172607)" gradientUnits="userSpaceOnUse" x1="2831.385498" x2="2732.762939" y1="-1295.160156" y2="-1196.75647">
        <stop offset="0" stop-color="#1a5fb4"/>
        <stop offset="1" stop-color="#14498a"/>
    </linearGradient>
    <clipPath id="l">
        <path d="m 60 81 h 36 v 39 h -36 z m 0 0"/>
    </clipPath>
    <clipPath id="m">
        <path d="m 59.351562 69.5625 h 37.296876 v 51.050781 h -37.296876 z m 28.242188 31.855469 c 0 -5.023438 -4.289062 -9.101563 -9.582031 -9.101563 c -5.289063 0 -9.578125 4.078125 -9.578125 9.101563 c 0 5.027343 4.289062 9.101562 9.578125 9.101562 c 5.292969 0 9.582031 -4.074219 9.582031 -9.101562 z m 0 0"/>
    </clipPath>
    <linearGradient id="n" gradientTransform="matrix(0.129522 0 0 0.12304 7.827283 21.723099)" x1="403.496033" x2="678.908813" xlink:href="#c" y1="793.565552" y2="793.565552"/>
    <clipPath id="o">
        <path d="m 60 80 h 36 v 39 h -36 z m 0 0"/>
    </clipPath>
    <clipPath id="p">
        <path d="m 59.351562 69.5625 h 37.296876 v 51.050781 h -37.296876 z m 28.242188 31.855469 c 0 -5.023438 -4.289062 -9.101563 -9.582031 -9.101563 c -5.289063 0 -9.578125 4.078125 -9.578125 9.101563 c 0 5.027343 4.289062 9.101562 9.578125 9.101562 c 5.292969 0 9.582031 -4.074219 9.582031 -9.101562 z m 0 0"/>
    </clipPath>
    <clipPath id="q">
        <path d="m 60 70 h 36 v 40 h -36 z m 0 0"/>
    </clipPath>
    <clipPath id="r">
        <path d="m 59.351562 69.5625 h 37.296876 v 51.050781 h -37.296876 z m 28.242188 31.855469 c 0 -5.023438 -4.289062 -9.101563 -9.582031 -9.101563 c -5.289063 0 -9.578125 4.078125 -9.578125 9.101563 c 0 5.027343 4.289062 9.101562 9.578125 9.101562 c 5.292969 0 9.582031 -4.074219 9.582031 -9.101562 z m 0 0"/>
    </clipPath>
    <linearGradient id="s" gradientTransform="matrix(0.224856 0 0 0.22209 -172.939247 55.114628)" x1="928.741516" x2="1302.490479" xlink:href="#i" y1="216.638611" y2="216.638611"/>
    <linearGradient id="t" gradientTransform="matrix(0.337063 0 0 0.330795 -867.055597 477.291929)" gradientUnits="userSpaceOnUse" x1="2704.463135" x2="2868.168457" y1="-1148.187378" y2="-1311.529175">
        <stop offset="0" stop-color="#1c71d8"/>
        <stop offset="1" stop-color="#62a0ea"/>
    </linearGradient>
    <g clip-path="url(#a)">
        <g clip-path="url(#b)">
            <path d="m 34.5625 51.777344 h 30.875 c 1.417969 0 2.5625 1.136718 2.5625 2.542968 v 33.136719 c 0 1.410157 -1.144531 2.542969 -2.5625 2.542969 h -30.875 c -1.417969 0 -2.5625 -1.132812 -2.5625 -2.542969 v -33.136719 c 0 -1.40625 1.144531 -2.542968 2.5625 -2.542968 z m 0 0" fill="url(#d)"/>
        </g>
    </g>
    <g clip-path="url(#e)">
        <g clip-path="url(#f)">
            <path d="m 34.5625 50.289062 h 30.875 c 1.417969 0 2.5625 1.132813 2.5625 2.542969 v 33.132813 c 0 1.410156 -1.144531 2.542968 -2.5625 2.542968 h -30.875 c -1.417969 0 -2.5625 -1.132812 -2.5625 -2.542968 v -33.132813 c 0 -1.410156 1.144531 -2.542969 2.5625 -2.542969 z m 0 0" fill="#77767b"/>
        </g>
    </g>
    <g clip-path="url(#g)">
        <g clip-path="url(#h)">
            <path d="m 32 40.175781 h 36 v 39.816407 h -36 z m 0 0" fill="#434348" fill-opacity="0.509804"/>
        </g>
    </g>
    <path d="m 92 15.105469 v 53.789062 c 0 3.921875 -3.175781 7.105469 -7.089844 7.105469 h -69.820312 c -3.914063 0 -7.089844 -3.183594 -7.089844 -7.105469 v -53.789062 c 0 -3.921875 3.175781 -7.105469 7.089844 -7.105469 h 69.820312 c 3.914063 0 7.089844 3.183594 7.089844 7.105469 z m 0 0" fill="url(#j)"/>
    <path d="m 92 15.105469 v 50.832031 c 0 3.925781 -3.175781 7.105469 -7.089844 7.105469 h -69.820312 c -3.914063 0 -7.089844 -3.179688 -7.089844 -7.105469 v -50.832031 c 0 -3.921875 3.175781 -7.105469 7.089844 -7.105469 h 69.820312 c 3.914063 0 7.089844 3.183594 7.089844 7.105469 z m 0 0" fill="#241f31"/>
    <path d="m 15.363281 10 h 69.183594 c 3.011719 0 5.453125 2.449219 5.453125 5.464844 v 50.070312 c 0 3.015625 -2.441406 5.464844 -5.453125 5.464844 h -69.183594 c -3.015625 0 -5.457031 -2.449219 -5.457031 -5.464844 v -50.070312 c 0 -3.015625 2.441406 -5.464844 5.457031 -5.464844 z m 0 0" fill="url(#k)"/>
    <g clip-path="url(#l)">
        <g clip-path="url(#m)">
            <path d="m 62.5625 81.777344 h 30.875 c 1.417969 0 2.5625 1.136718 2.5625 2.542968 v 33.136719 c 0 1.410157 -1.144531 2.542969 -2.5625 2.542969 h -30.875 c -1.417969 0 -2.5625 -1.132812 -2.5625 -2.542969 v -33.136719 c 0 -1.40625 1.144531 -2.542968 2.5625 -2.542968 z m 0 0" fill="url(#n)"/>
        </g>
    </g>
    <g clip-path="url(#o)">
        <g clip-path="url(#p)">
            <path d="m 62.5625 80.289062 h 30.875 c 1.417969 0 2.5625 1.132813 2.5625 2.542969 v 33.132813 c 0 1.410156 -1.144531 2.542968 -2.5625 2.542968 h -30.875 c -1.417969 0 -2.5625 -1.132812 -2.5625 -2.542968 v -33.132813 c 0 -1.410156 1.144531 -2.542969 2.5625 -2.542969 z m 0 0" fill="#77767b"/>
        </g>
    </g>
    <g clip-path="url(#q)">
        <g clip-path="url(#r)">
            <path d="m 60 70.175781 h 36 v 39.816407 h -36 z m 0 0" fill="#434348" fill-opacity="0.509804"/>
        </g>
    </g>
    <path d="m 120 45.105469 v 53.789062 c 0 3.921875 -3.175781 7.105469 -7.089844 7.105469 h -69.820312 c -3.914063 0 -7.089844 -3.183594 -7.089844 -7.105469 v -53.789062 c 0 -3.921875 3.175781 -7.105469 7.089844 -7.105469 h 69.820312 c 3.914063 0 7.089844 3.183594 7.089844 7.105469 z m 0 0" fill="url(#s)"/>
    <path d="m 120 45.105469 v 50.832031 c 0 3.925781 -3.175781 7.105469 -7.089844 7.105469 h -69.820312 c -3.914063 0 -7.089844 -3.179688 -7.089844 -7.105469 v -50.832031 c 0 -3.921875 3.175781 -7.105469 7.089844 -7.105469 h 69.820312 c 3.914063 0 7.089844 3.183594 7.089844 7.105469 z m 0 0" fill="#241f31"/>
    <path d="m 43.363281 40 h 69.183594 c 3.011719 0 5.453125 2.449219 5.453125 5.464844 v 50.070312 c 0 3.015625 -2.441406 5.464844 -5.453125 5.464844 h -69.183594 c -3.015625 0 -5.457031 -2.449219 -5.457031 -5.464844 v -50.070312 c 0 -3.015625 2.441406 -5.464844 5.457031 -5.464844 z m 0 0" fill="url(#t)"/>
</svg>
