<?xml version="1.0" encoding="UTF-8" standalone="no"?>
<!-- Created with Inkscape (http://www.inkscape.org/) -->

<svg
   width="128"
   height="128"
   viewBox="0 0 128 128"
   version="1.1"
   id="svg5"
   inkscape:version="1.2.2 (b0a8486541, 2022-12-01)"
   sodipodi:docname="firefox-original.svg"
   xmlns:inkscape="http://www.inkscape.org/namespaces/inkscape"
   xmlns:sodipodi="http://sodipodi.sourceforge.net/DTD/sodipodi-0.dtd"
   xmlns:xlink="http://www.w3.org/1999/xlink"
   xmlns="http://www.w3.org/2000/svg"
   xmlns:svg="http://www.w3.org/2000/svg">
  <sodipodi:namedview
     id="namedview7"
     pagecolor="#ffffff"
     bordercolor="#666666"
     borderopacity="1"
     inkscape:pageshadow="2"
     inkscape:pageopacity="0.0"
     inkscape:pagecheckerboard="true"
     inkscape:document-units="px"
     showgrid="false"
     inkscape:showpageshadow="false"
     showborder="true"
     inkscape:snap-page="true"
     inkscape:zoom="1.4142136"
     inkscape:cx="-16.970563"
     inkscape:cy="88.388347"
     inkscape:window-width="1366"
     inkscape:window-height="731"
     inkscape:window-x="0"
     inkscape:window-y="0"
     inkscape:window-maximized="1"
     inkscape:current-layer="layer2"
     inkscape:deskcolor="#d1d1d1" />
  <defs
     id="defs2">
    <linearGradient
       inkscape:collect="always"
       id="linearGradient32400">
      <stop
         style="stop-color:#7f0e17;stop-opacity:1;"
         offset="0"
         id="stop32396" />
      <stop
         style="stop-color:#d61727;stop-opacity:0;"
         offset="1"
         id="stop32398" />
    </linearGradient>
    <linearGradient
       inkscape:collect="always"
       id="linearGradient8150">
      <stop
         style="stop-color:#49092a;stop-opacity:1;"
         offset="0"
         id="stop8146" />
      <stop
         style="stop-color:#d69800;stop-opacity:1"
         offset="1"
         id="stop8148" />
    </linearGradient>
    <linearGradient
       inkscape:collect="always"
       id="linearGradient111533">
      <stop
         style="stop-color:#8b2408;stop-opacity:0.12264067"
         offset="0"
         id="stop111529" />
      <stop
         style="stop-color:#9258fe;stop-opacity:0"
         offset="1"
         id="stop111531" />
    </linearGradient>
    <linearGradient
       inkscape:collect="always"
       id="linearGradient88584">
      <stop
         style="stop-color:#ad6600;stop-opacity:0.55008012"
         offset="0"
         id="stop88580" />
      <stop
         style="stop-color:#ff9e12;stop-opacity:0;"
         offset="1"
         id="stop88582" />
    </linearGradient>
    <linearGradient
       inkscape:collect="always"
       id="linearGradient48521">
      <stop
         style="stop-color:#8b2408;stop-opacity:0.38552797"
         offset="0"
         id="stop48517" />
      <stop
         style="stop-color:#9258fe;stop-opacity:0.03788283"
         offset="1"
         id="stop48519" />
    </linearGradient>
    <linearGradient
       inkscape:collect="always"
       id="linearGradient44024">
      <stop
         style="stop-color:#cb0c0c;stop-opacity:0.36537349"
         offset="0"
         id="stop44020" />
      <stop
         style="stop-color:#fff44f;stop-opacity:0"
         offset="1"
         id="stop44022" />
    </linearGradient>
    <linearGradient
       y2="236"
       x2="96"
       y1="236"
       x1="32"
       gradientTransform="translate(604.81684,170.58641)"
       gradientUnits="userSpaceOnUse"
       id="linearGradient1099"
       xlink:href="#linearGradient1036" />
    <linearGradient
       id="linearGradient1036">
      <stop
         id="stop1032"
         offset="0"
         style="stop-color:#d5d3cf;stop-opacity:1;" />
      <stop
         id="stop1034"
         offset="1"
         style="stop-color:#f6f5f4;stop-opacity:1" />
    </linearGradient>
    <radialGradient
       r="32"
       fy="-76"
       fx="-244"
       cy="-76"
       cx="-244"
       gradientTransform="matrix(0.88333331,0,0,0.88333331,-460.35018,463.11973)"
       gradientUnits="userSpaceOnUse"
       id="radialGradient1103"
       xlink:href="#linearGradient1069" />
    <linearGradient
       id="linearGradient1069">
      <stop
         id="stop1065"
         offset="0"
         style="stop-color:#d5d3cf;stop-opacity:1" />
      <stop
         id="stop1067-1"
         offset="1"
         style="stop-color:#949390;stop-opacity:1" />
    </linearGradient>
    <linearGradient
       gradientUnits="userSpaceOnUse"
       y2="232"
       x2="64"
       y1="262.5"
       x1="64"
       id="linearGradient1027"
       xlink:href="#linearGradient1025"
       gradientTransform="translate(-470.5864,432.81685)" />
    <linearGradient
       id="linearGradient1025">
      <stop
         id="stop1021"
         offset="0"
         style="stop-color:#9a9996;stop-opacity:1" />
      <stop
         id="stop1023"
         offset="1"
         style="stop-color:#77767b;stop-opacity:1" />
    </linearGradient>
    <inkscape:path-effect
       effect="spiro"
       id="path-effect35304-9"
       is_visible="true" />
    <clipPath
       clipPathUnits="userSpaceOnUse"
       id="clipPath1609-7">
      <path
         sodipodi:nodetypes="cccccc"
         inkscape:connector-curvature="0"
         id="path1611-5"
         d="m 252,116 28,-28 v -8 h -36 v 36 z"
         style="fill:#e74747;stroke:none;stroke-width:0.25px;stroke-linecap:butt;stroke-linejoin:miter;stroke-opacity:1" />
    </clipPath>
    <linearGradient
       id="path1002_1_"
       gradientUnits="userSpaceOnUse"
       x1="1556.2566"
       y1="-951.67493"
       x2="311.8808"
       y2="292.67911"
       gradientTransform="matrix(0.06250853,0,0,0.06250853,9.34608,82.491774)">
      <stop
         offset="0.167"
         style="stop-color:#FFF44F;stop-opacity:0.8"
         id="stop148" />
      <stop
         offset="0.266"
         style="stop-color:#FFF44F;stop-opacity:0.634"
         id="stop150" />
      <stop
         offset="0.489"
         style="stop-color:#FFF44F;stop-opacity:0.217"
         id="stop152" />
      <stop
         offset="0.6"
         style="stop-color:#FFF44F;stop-opacity:0"
         id="stop154" />
    </linearGradient>
    <radialGradient
       id="path1000_1_"
       cx="-6734.3213"
       cy="-9290.8115"
       r="1834.0046"
       gradientTransform="matrix(0.06250853,0,0,0.06250853,507.78287,615.24118)"
       gradientUnits="userSpaceOnUse">
      <stop
         offset="0.094"
         style="stop-color:#FFF44F"
         id="stop138" />
      <stop
         offset="0.231"
         style="stop-color:#FFE141"
         id="stop140" />
      <stop
         offset="0.509"
         style="stop-color:#FFAF1E"
         id="stop142" />
      <stop
         offset="0.626"
         style="stop-color:#FF980E"
         id="stop144" />
    </radialGradient>
    <radialGradient
       id="path998_1_"
       cx="-7176.6509"
       cy="-9388.8799"
       r="1675.6613"
       gradientTransform="matrix(0.06250853,0,0,0.06250853,507.78287,615.24118)"
       gradientUnits="userSpaceOnUse">
      <stop
         offset="0.137"
         style="stop-color:#FFF44F"
         id="stop126" />
      <stop
         offset="0.48"
         style="stop-color:#FF980E"
         id="stop128" />
      <stop
         offset="0.592"
         style="stop-color:#FF5634"
         id="stop130" />
      <stop
         offset="0.655"
         style="stop-color:#FF3647"
         id="stop132" />
      <stop
         offset="0.904"
         style="stop-color:#E31587"
         id="stop134" />
    </radialGradient>
    <radialGradient
       id="path996_1_"
       cx="-11156.244"
       cy="-25211.904"
       r="1966.4982"
       gradientTransform="matrix(0.00656578,0.06218407,-0.0408071,0.00431357,-878.70204,800.67145)"
       gradientUnits="userSpaceOnUse">
      <stop
         offset="0"
         style="stop-color:#FFF44F"
         id="stop108" />
      <stop
         offset="0.06"
         style="stop-color:#FFE847"
         id="stop110" />
      <stop
         offset="0.168"
         style="stop-color:#FFC830"
         id="stop112" />
      <stop
         offset="0.304"
         style="stop-color:#FF980E"
         id="stop114" />
      <stop
         offset="0.356"
         style="stop-color:#FF8B16"
         id="stop116" />
      <stop
         offset="0.455"
         style="stop-color:#FF672A"
         id="stop118" />
      <stop
         offset="0.57"
         style="stop-color:#FF3647"
         id="stop120" />
      <stop
         offset="0.737"
         style="stop-color:#E31587"
         id="stop122" />
    </radialGradient>
    <radialGradient
       id="path994_1_"
       cx="-6667.3647"
       cy="-10020.901"
       r="2683.9873"
       gradientTransform="matrix(0.06250853,0,0,0.06250853,507.78287,615.24118)"
       gradientUnits="userSpaceOnUse">
      <stop
         offset="0.113"
         style="stop-color:#FFF44F"
         id="stop96" />
      <stop
         offset="0.456"
         style="stop-color:#FF980E"
         id="stop98" />
      <stop
         offset="0.622"
         style="stop-color:#FF5634"
         id="stop100" />
      <stop
         offset="0.716"
         style="stop-color:#FF3647"
         id="stop102" />
      <stop
         offset="0.904"
         style="stop-color:#E31587"
         id="stop104" />
    </radialGradient>
    <radialGradient
       id="path992_1_"
       cx="-7161.8359"
       cy="-9621.8896"
       r="629.0835"
       gradientTransform="matrix(0.06250853,0,0,0.06250853,507.78287,615.24118)"
       gradientUnits="userSpaceOnUse">
      <stop
         offset="0"
         style="stop-color:#FFE226"
         id="stop82" />
      <stop
         offset="0.121"
         style="stop-color:#FFDB27"
         id="stop84" />
      <stop
         offset="0.295"
         style="stop-color:#FFC82A"
         id="stop86" />
      <stop
         offset="0.502"
         style="stop-color:#FFA930"
         id="stop88" />
      <stop
         offset="0.732"
         style="stop-color:#FF7E37"
         id="stop90" />
      <stop
         offset="0.792"
         style="stop-color:#FF7139"
         id="stop92" />
    </radialGradient>
    <radialGradient
       id="path990_1_"
       cx="-8236.1963"
       cy="-8000.2432"
       r="463.70401"
       gradientTransform="matrix(0.06075257,-0.01469667,0.017197,0.07111658,705.7788,503.91719)"
       gradientUnits="userSpaceOnUse">
      <stop
         offset="0.206"
         style="stop-color:#9059FF;stop-opacity:0"
         id="stop72" />
      <stop
         offset="0.278"
         style="stop-color:#8C4FF3;stop-opacity:0.064"
         id="stop74" />
      <stop
         offset="0.747"
         style="stop-color:#7716A8;stop-opacity:0.45"
         id="stop76" />
      <stop
         offset="0.975"
         style="stop-color:#6E008B;stop-opacity:0.6"
         id="stop78" />
    </radialGradient>
    <radialGradient
       id="path988_1_"
       cx="-7341.7871"
       cy="-8316.2139"
       r="874.44928"
       gradientTransform="matrix(0.06250853,0,0,0.06250853,507.78287,615.24118)"
       gradientUnits="userSpaceOnUse">
      <stop
         offset="0.353"
         style="stop-color:#3A8EE6"
         id="stop62" />
      <stop
         offset="0.472"
         style="stop-color:#5C79F0"
         id="stop64" />
      <stop
         offset="0.669"
         style="stop-color:#9059FF"
         id="stop66" />
      <stop
         offset="1"
         style="stop-color:#C139E6"
         id="stop68" />
    </radialGradient>
    <radialGradient
       id="path986_1_"
       cx="-6917.2114"
       cy="-9963.5234"
       r="1330.4386"
       gradientTransform="matrix(0.06250853,0,0,0.06250853,507.78287,615.24118)"
       gradientUnits="userSpaceOnUse">
      <stop
         offset="0.132"
         style="stop-color:#FFF44F"
         id="stop52" />
      <stop
         offset="0.252"
         style="stop-color:#FFDC3E"
         id="stop54" />
      <stop
         offset="0.506"
         style="stop-color:#FF9D12"
         id="stop56" />
      <stop
         offset="0.526"
         style="stop-color:#FF980E"
         id="stop58" />
    </radialGradient>
    <radialGradient
       id="path984_1_"
       cx="-7138.6494"
       cy="-8795.9219"
       r="1836.528"
       gradientTransform="matrix(0.06250853,0,0,0.06250853,507.78287,615.24118)"
       gradientUnits="userSpaceOnUse">
      <stop
         offset="0.3"
         style="stop-color:#960E18"
         id="stop40" />
      <stop
         offset="0.351"
         style="stop-color:#B11927;stop-opacity:0.74"
         id="stop42" />
      <stop
         offset="0.435"
         style="stop-color:#DB293D;stop-opacity:0.343"
         id="stop44" />
      <stop
         offset="0.497"
         style="stop-color:#F5334B;stop-opacity:0.094"
         id="stop46" />
      <stop
         offset="0.53"
         style="stop-color:#FF3750;stop-opacity:0"
         id="stop48" />
    </radialGradient>
    <radialGradient
       id="path982_1_"
       cx="-6467.5674"
       cy="-9546.7471"
       r="1836.5227"
       gradientTransform="matrix(0.06250853,0,0,0.06250853,507.78287,615.24118)"
       gradientUnits="userSpaceOnUse">
      <stop
         offset="0.129"
         style="stop-color:#FFBD4F"
         id="stop20" />
      <stop
         offset="0.186"
         style="stop-color:#FFAC31"
         id="stop22" />
      <stop
         offset="0.247"
         style="stop-color:#FF9D17"
         id="stop24" />
      <stop
         offset="0.283"
         style="stop-color:#FF980E"
         id="stop26" />
      <stop
         offset="0.403"
         style="stop-color:#FF563B"
         id="stop28" />
      <stop
         offset="0.467"
         style="stop-color:#FF3750"
         id="stop30" />
      <stop
         offset="0.71"
         style="stop-color:#F5156C"
         id="stop32" />
      <stop
         offset="0.782"
         style="stop-color:#EB0878"
         id="stop34" />
      <stop
         offset="0.86"
         style="stop-color:#E50080"
         id="stop36" />
    </radialGradient>
    <linearGradient
       id="path980_1_"
       gradientUnits="userSpaceOnUse"
       x1="1573.7843"
       y1="-944.17688"
       x2="111.3565"
       y2="466.7912"
       gradientTransform="matrix(0.06250853,0,0,0.06250853,9.3460812,82.491774)">
      <stop
         offset="0.048"
         style="stop-color:#FFF44F"
         id="stop2" />
      <stop
         offset="0.111"
         style="stop-color:#FFE847"
         id="stop4" />
      <stop
         offset="0.225"
         style="stop-color:#FFC830"
         id="stop6" />
      <stop
         offset="0.368"
         style="stop-color:#FF980E"
         id="stop8" />
      <stop
         offset="0.401"
         style="stop-color:#FF8B16"
         id="stop10" />
      <stop
         offset="0.462"
         style="stop-color:#FF672A"
         id="stop12" />
      <stop
         offset="0.534"
         style="stop-color:#FF3647"
         id="stop14" />
      <stop
         offset="0.705"
         style="stop-color:#E31587"
         id="stop16" />
    </linearGradient>
    <linearGradient
       inkscape:collect="always"
       xlink:href="#linearGradient44024"
       id="linearGradient44026"
       x1="71.892265"
       y1="82.867165"
       x2="71.892265"
       y2="49.604069"
       gradientUnits="userSpaceOnUse"
       gradientTransform="matrix(1.3180455,0,0,1.3180455,-19.615612,-18.62642)" />
    <linearGradient
       inkscape:collect="always"
       xlink:href="#linearGradient48521"
       id="linearGradient48523"
       x1="94.014542"
       y1="71.631851"
       x2="89.216644"
       y2="51.677429"
       gradientUnits="userSpaceOnUse"
       gradientTransform="matrix(1.3180455,0,0,1.3180455,-19.615612,-18.62642)" />
    <linearGradient
       inkscape:collect="always"
       xlink:href="#linearGradient88584"
       id="linearGradient88586"
       x1="45.72126"
       y1="45.342491"
       x2="45.72126"
       y2="35.147579"
       gradientUnits="userSpaceOnUse"
       gradientTransform="matrix(1.3180455,0,0,1.3180455,-19.615612,-18.62642)" />
    <linearGradient
       inkscape:collect="always"
       xlink:href="#linearGradient111533"
       id="linearGradient111113"
       gradientUnits="userSpaceOnUse"
       x1="71.558571"
       y1="45.232456"
       x2="98.561684"
       y2="45.232456"
       gradientTransform="matrix(1.3180455,0,0,1.3180455,-19.615612,-18.62642)" />
    <linearGradient
       inkscape:collect="always"
       xlink:href="#linearGradient111533"
       id="linearGradient1130"
       gradientUnits="userSpaceOnUse"
       gradientTransform="matrix(1.3180455,0,0,1.3180455,-19.615612,-18.62642)"
       x1="71.558571"
       y1="45.232456"
       x2="98.561684"
       y2="45.232456" />
    <linearGradient
       inkscape:collect="always"
       xlink:href="#linearGradient8150"
       id="linearGradient8152"
       x1="67.063522"
       y1="122.41015"
       x2="67.063522"
       y2="19.770594"
       gradientUnits="userSpaceOnUse" />
    <linearGradient
       inkscape:collect="always"
       xlink:href="#linearGradient32400"
       id="linearGradient32402"
       x1="63.185501"
       y1="113.49292"
       x2="63.185501"
       y2="26.909348"
       gradientUnits="userSpaceOnUse" />
  </defs>
  <g
     inkscape:groupmode="layer"
     id="layer2"
     inkscape:label="Layer 1">
    <path
       id="path31329"
       style="fill:#d01826;fill-opacity:1;stroke-width:0.190866"
       d="m 30.295065,26.88219 c -0.643603,0.26244 -1.262967,0.588205 -1.838057,0.975662 -1.924874,1.374997 -3.724152,2.919417 -5.380302,4.61316 -1.893768,1.906176 -3.619189,3.969082 -5.16921,6.162892 v -0.0078 c -3.537318,5.018816 -6.050671,10.686605 -7.388263,16.686662 -0.02504,0.112614 -1.9819546,8.663213 -1.0194255,13.100651 h 0.00264 C 13.752459,93.525815 36.507944,112.69541 62.34526,113.43291 c 23.912417,0.67491 39.18818,-13.20579 45.50088,-26.74963 5.33576,-11.688844 5.953,-24.978412 1.72994,-37.113794 1.92588,12.734162 -4.55397,25.064036 -14.681275,33.406791 l -0.0309,0.0695 C 75.101475,99.1396 56.187029,92.757162 52.362087,90.150889 52.093351,90.026057 51.832788,89.889485 51.564051,89.751871 40.045111,84.245585 35.28233,73.745131 36.300982,64.745047 c -5.587406,0.08131 -10.700374,-3.131771 -13.044017,-8.206892 6.15008,-3.768644 13.812939,-4.073376 20.244355,-0.810908 6.518829,2.962427 13.943204,3.248455 20.674265,0.810908 l -0.01292,-2.654111 -4.489592,-0.365553 0.05407,0.671895 c -3.044362,-1.527224 -6.81691,-3.547762 -8.894251,-5.593911 -1.993781,-1.96859 -2.944133,-2.914888 -3.781659,-3.6272 -0.45636,-0.387456 -0.924677,-0.741951 -1.418443,-1.073486 -0.324859,-0.22503 -0.694269,-0.463104 -1.137844,-0.756847 -4.018866,-2.61257 -12.006714,-2.467526 -12.269151,-2.461037 h -0.02574 C 30.018647,37.909016 30.170047,28.788557 30.295065,26.88219 Z m 79.280955,22.687373 c -0.003,-0.02067 -0.005,-0.04111 -0.008,-0.06178 l -0.0103,-0.09267 c -0.007,-0.01239 0,0.005 0,0.04891 v 0.05148 c 0.006,0.01799 0.0117,0.03606 0.018,0.05407 z" />
    <path
       id="path1543"
       style="fill:url(#linearGradient8152);fill-opacity:1;stroke-width:0.190866"
       d="M 81.150511,8.5196537 C 67.319232,16.619424 62.624284,31.61523 62.193309,39.1153 c 0.643589,-0.04371 1.282452,-0.100395 1.938454,-0.100395 9.993737,0.0189 19.200356,5.399165 24.13156,14.086611 -3.875146,-2.681283 -8.606936,-3.831988 -13.275704,-3.225608 19.806151,9.906124 14.493244,44.008407 -12.956491,42.720636 -2.443852,-0.09982 -4.855499,-0.569889 -7.161723,-1.382403 -0.537486,-0.200027 -1.075454,-0.423971 -1.61924,-0.661599 -0.312443,-0.143722 -0.625559,-0.282927 -0.931899,-0.445354 l 0.03862,0.02574 c -0.268737,-0.125017 -0.531874,-0.261403 -0.80061,-0.399018 0.256333,0.124832 0.499546,0.254557 0.761995,0.373275 C 45.5933,86.632093 40.045091,80.064551 39.351483,72.089606 c 0,0 2.541641,-9.476027 18.197781,-9.476027 1.693741,0 6.538658,-4.724687 6.626268,-6.093386 C 64.156682,56.070323 54.57024,52.257108 50.832896,48.575879 48.839114,46.60729 47.88875,45.663756 47.051237,44.951254 46.594877,44.563796 46.123986,44.20911 45.630219,43.877768 44.374135,39.483847 44.325596,34.83898 45.475762,30.414139 l -0.01292,-2.628367 -1.920433,3.091743 c 0,0 -0.0486,0.297436 0.01292,0.530308 -4.301332,2.3731 -8.142802,5.504508 -11.33725,9.249487 h -0.02317 c -2.18122,-2.7687 -2.032764,-11.886583 -1.907562,-13.793141 -0.643787,0.262631 -1.262979,0.588206 -1.838056,0.975662 -1.925071,1.374997 -3.724165,2.919226 -5.380302,4.61316 -1.887481,1.912475 -3.604697,3.972889 -5.148616,6.17319 v -0.0051 c -3.537317,5.018814 -6.050671,10.686605 -7.388263,16.686662 l -0.07465,0.362978 c -0.106366,0.487471 -0.5697184,2.944135 -0.6384281,3.475314 -0.4313567,2.543668 -0.6999138,5.106763 -0.8186288,7.681734 v 0.2806 c 0.025043,30.41255 24.7061289,55.049411 55.1184999,55.018101 26.787627,-0.025 49.670217,-19.312 54.220067,-45.711979 0.0937,-0.712311 0.1684,-1.412727 0.24971,-2.131527 1.13795,-9.36273 -0.0957,-18.875774 -3.57057,-27.650637 h 0.003 c -1.65334,-3.97555 -4.48035,-8.137775 -7.3239,-11.000017 l 0.6307,-0.319214 -4.3583,-5.254162 v 2.636091 c 2.71259,5.250144 4.59471,10.887563 5.57595,16.712406 l 0.0103,0.09526 C 103.33049,33.977594 92.774422,27.721708 84.149579,14.090456 c -0.43746,-0.687499 -0.874956,-1.38326 -1.300025,-2.108359 -0.243733,-0.418569 -0.436226,-0.79152 -0.604962,-1.135269 -0.356149,-0.693797 -0.631204,-1.426803 -0.81863,-2.1830131 0,-0.07501 -0.05747,-0.1317518 -0.126137,-0.1441612 -0.03137,-0.00633 -0.06785,-0.00633 -0.105549,0 -0.0066,0 -0.01955,0.014288 -0.02574,0.020601 -0.0066,0 -0.02351,0.018018 -0.03603,0.018018 z" />
    <path
       id="path980"
       fill="url(#path980_1_)"
       d="m 115.01993,43.996841 c -2.39384,-5.75613 -7.24374,-11.974918 -11.05018,-13.9374 2.71259,5.250144 4.59376,10.887556 5.57501,16.712397 l 0.0119,0.09371 C 103.33173,31.340531 92.775317,25.084333 84.150475,11.453081 83.713016,10.765582 83.275556,10.071976 82.850487,9.3468775 82.606754,8.9283084 82.412843,8.5532572 82.244107,8.2095083 81.887958,7.5157116 81.612723,6.7843136 81.425297,6.0281035 c 0,-0.07501 -0.05615,-0.1313169 -0.124819,-0.1437223 -0.03137,-0.00633 -0.06867,-0.00633 -0.106366,0 -0.0066,0 -0.01885,0.01239 -0.02504,0.018703 -0.0066,0 -0.02504,0.018901 -0.03756,0.018901 l 0.01885,-0.037406 C 67.319074,13.984349 62.625303,28.978191 62.194328,36.478262 c -5.524996,0.381158 -10.80626,2.412543 -15.156271,5.843737 -0.45636,-0.387457 -0.925136,-0.743613 -1.418902,-1.075146 -1.256085,-4.39354 -1.306289,-9.037494 -0.156123,-13.462337 -5.081237,2.46236 -9.593868,5.950051 -13.256203,10.243767 h -0.02504 c -2.18122,-2.768889 -2.031385,-11.887502 -1.90617,-13.793869 -0.6438,0.262441 -1.262398,0.587484 -1.837474,0.974942 -1.925072,1.374997 -3.725126,2.91872 -5.381264,4.612462 -1.887481,1.912475 -3.606225,3.974971 -5.149946,6.17508 v 0.0063 -0.01265 C 14.369614,41.009387 11.857063,46.6781 10.519471,52.678157 l -0.075,0.362455 c -0.106366,0.487471 -0.4750627,2.912611 -0.5437724,3.437491 0,0.0439 -0.00659,0.08131 -0.01318,0.118717 -0.4750631,2.506258 -0.775103,5.043818 -0.8875191,7.593786 v 0.281335 c 0.025043,30.41255 24.7062355,55.050069 55.1185925,55.018769 26.787628,-0.025 49.668808,-19.31256 54.218668,-45.712536 0.0937,-0.712311 0.16873,-1.412407 0.25004,-2.131207 1.13775,-9.36273 -0.0937,-18.875288 -3.56862,-27.650151 z M 51.551335,87.096812 c 0.256149,0.124832 0.499882,0.256332 0.762515,0.375051 l 0.03743,0.025 c -0.268733,-0.125198 -0.53747,-0.25633 -0.799919,-0.400051 z M 109.56366,46.877959 v -0.05001 l 0.0119,0.05631 z"
       style="fill:url(#path980_1_);stroke-width:0.190866" />
    <path
       id="path982"
       fill="url(#path982_1_)"
       d="m 115.01993,43.996841 c -2.39384,-5.75613 -7.24374,-11.974918 -11.05018,-13.9374 2.71259,5.250144 4.59376,10.887556 5.57501,16.712397 v 0.05001 l 0.0119,0.05631 c 4.24371,12.143835 3.63123,25.462448 -1.71245,37.168818 C 101.53171,97.590619 86.256528,111.4719 62.344111,110.79681 36.506755,110.0656 13.750409,90.89046 9.4940977,65.778062 c -0.775103,-3.962564 0,-5.968754 0.3874527,-9.187515 -0.5250698,2.499961 -0.824912,5.043819 -0.8812189,7.599894 v 0.281335 c 0.025043,30.412551 24.7062355,55.050084 55.1185935,55.018774 26.787627,-0.025 49.668805,-19.31256 54.218665,-45.712541 0.0937,-0.71231 0.16873,-1.412405 0.25004,-2.131207 1.13813,-9.362538 -0.0933,-18.875097 -3.56824,-27.64996 z"
       style="fill:url(#path982_1_);stroke-width:0.190866" />
    <path
       id="path984"
       fill="url(#path984_1_)"
       d="m 115.01993,43.996841 c -2.39384,-5.75613 -7.24374,-11.974918 -11.05018,-13.9374 2.71259,5.250144 4.59376,10.887556 5.57501,16.712397 v 0.05001 l 0.0119,0.05631 c 4.24371,12.143835 3.63123,25.462448 -1.71245,37.168818 C 101.53171,97.590619 86.256528,111.4719 62.344111,110.79681 36.506755,110.0656 13.750409,90.89046 9.4940977,65.778062 c -0.775103,-3.962564 0,-5.968754 0.3874527,-9.187515 -0.5250698,2.499961 -0.824912,5.043819 -0.8812189,7.599894 v 0.281335 c 0.025043,30.412551 24.7062355,55.050084 55.1185935,55.018774 26.787627,-0.025 49.668805,-19.31256 54.218665,-45.712541 0.0937,-0.71231 0.16873,-1.412405 0.25004,-2.131207 1.13813,-9.362538 -0.0933,-18.875097 -3.56824,-27.64996 z"
       style="fill:url(#path984_1_);stroke-width:0.190866" />
    <path
       id="path986"
       fill="url(#path986_1_)"
       d="m 88.257492,50.465472 c 0.118756,0.08131 0.23133,0.168917 0.343759,0.250035 C 87.220137,48.265554 85.495092,46.015628 83.488908,44.046848 66.37016,26.928288 79.001267,6.934526 81.13248,5.9156847 l 0.01885,-0.031106 C 67.320062,13.984349 62.626291,28.978191 62.195317,36.478262 c 0.643588,-0.04371 1.281272,-0.100014 1.937276,-0.100014 9.987253,0.01852 19.199956,5.399975 24.124859,14.08723 z"
       style="fill:url(#path986_1_);stroke-width:0.190866" />
    <path
       id="path992"
       fill="url(#path992_1_)"
       d="m 44.47003,40.484338 c 0.443575,0.281146 0.812509,0.531179 1.137368,0.75621 -1.256084,-4.39392 -1.306289,-9.037685 -0.156123,-13.462526 -5.081237,2.462551 -9.593868,5.950049 -13.256203,10.243766 0.274839,-0.0061 8.262577,-0.15002 12.274958,2.46255 z"
       style="fill:url(#path992_1_);stroke-width:0.190866" />
    <path
       id="path7384"
       fill="url(#path994_1_)"
       d="M 9.5015051,68.414152 C 13.751516,93.52655 36.507677,112.69539 62.344994,113.4329 86.25741,114.1078 101.5324,100.2267 107.8451,86.682869 c 5.34367,-11.706179 5.95615,-25.018685 1.71244,-37.168627 v -0.05001 c 0,-0.0439 -0.007,-0.06241 0,-0.05001 l 0.0119,0.09371 c 1.95637,12.756133 -4.53116,25.112401 -14.674903,33.468695 l -0.03137,0.06871 C 75.100696,99.139145 56.188179,92.75793 52.363238,90.151658 52.094501,90.026826 51.832052,89.889218 51.563316,89.751603 40.044376,84.245318 35.28208,73.74541 36.300731,64.745326 30.713325,64.826637 25.600614,61.614173 23.256971,56.539052 29.40705,52.770408 37.069349,52.464068 43.500766,55.726537 50.019595,58.688964 57.444659,58.9766 64.17572,56.539052 64.156872,56.089182 54.569448,52.276638 50.832104,48.59541 48.838323,46.62682 47.888196,45.682798 47.050671,44.970487 46.594311,44.58303 46.125548,44.226874 45.631782,43.89534 45.306923,43.67031 44.937989,43.432872 44.494414,43.13913 40.475548,40.526559 32.488192,40.670281 32.225756,40.67677 h -0.02504 c -2.181404,-2.768889 -2.031385,-11.887501 -1.906368,-13.793868 -0.643602,0.26244 -1.262384,0.587485 -1.837474,0.974943 -1.924874,1.374996 -3.724928,2.918719 -5.381079,4.612462 -1.893768,1.906175 -3.618812,3.968671 -5.168834,6.162482 v 0.0061 -0.01239 C 14.36964,43.645278 11.85709,49.31399 10.519498,55.314046 10.494455,55.42666 8.538317,63.97668 9.5008461,68.414119 Z"
       style="fill:url(#linearGradient32402);fill-opacity:1;stroke-width:0.190866" />
    <path
       id="path988"
       fill="url(#path988_1_)"
       d="m 64.163752,53.884261 c -0.09371,1.368698 -4.931217,6.093771 -6.624958,6.093771 -15.65614,0 -18.200008,9.47515 -18.200008,9.47515 0.693806,7.974944 6.250093,14.543589 12.968764,18.018681 0.306143,0.156128 0.618783,0.29985 0.931239,0.443572 0.537472,0.237628 1.075143,0.462658 1.618916,0.662686 2.306237,0.818623 4.718774,1.281281 7.16243,1.381105 27.443632,1.28758 32.762301,-32.818604 12.956163,-42.718622 4.675068,-0.60638 9.406245,0.543777 13.275091,3.224868 C 83.332588,41.778026 74.12007,36.396758 64.12653,36.377861 c -0.656202,0 -1.293688,0.05631 -1.937474,0.100013 -5.524996,0.381159 -10.806247,2.412543 -15.156087,5.843737 0.837526,0.712311 1.78727,1.66244 3.781249,3.624923 3.743262,3.681419 13.330633,7.493962 13.349534,7.937727 z"
       style="fill:url(#path988_1_);stroke-width:0.190866;opacity:0.8" />
    <path
       id="path990"
       fill="url(#path990_1_)"
       d="m 64.163752,53.884261 c -0.09371,1.368698 -4.931217,6.093771 -6.624958,6.093771 -15.65614,0 -18.200008,9.47515 -18.200008,9.47515 0.693806,7.974944 6.250093,14.543589 12.968764,18.018685 0.306143,0.156122 0.618783,0.299842 0.931239,0.443575 0.537472,0.237617 1.075143,0.462647 1.618916,0.662674 2.306237,0.818624 4.718774,1.281285 7.16243,1.381114 27.443632,1.287572 32.762301,-32.818608 12.956163,-42.718626 4.675068,-0.60638 9.406245,0.543777 13.275091,3.224868 C 83.332588,41.778026 74.12007,36.396758 64.12653,36.377861 c -0.656202,0 -1.293688,0.05631 -1.937474,0.100013 -5.524996,0.381159 -10.806247,2.412543 -15.156087,5.843737 0.837526,0.712311 1.78727,1.66244 3.781249,3.624923 3.743262,3.681419 13.330633,7.493962 13.349534,7.937727 z"
       style="fill:#000000;stroke-width:0.190866;fill-opacity:0" />
    <path
       id="path996"
       fill="url(#path996_1_)"
       d="m 83.488711,44.046657 c 2.012497,1.975079 3.731242,4.225195 5.11254,6.675149 0.299842,0.231329 0.587295,0.45636 0.824912,0.674901 12.487397,11.506342 5.943753,27.774977 5.456287,28.93754 10.14376,-8.356294 16.62478,-20.712371 14.67491,-33.468694 C 103.32617,31.334424 92.769952,25.078226 84.144913,11.446975 83.707454,10.759477 83.269797,10.065679 82.84474,9.340771 82.600994,8.9220121 82.407268,8.5469609 82.238545,8.2032107 81.882198,7.509414 81.607161,6.7782071 81.419735,6.021997 c 0,-0.075208 -0.05628,-0.1313169 -0.125082,-0.1439121 -0.03111,-0.00606 -0.06854,-0.00606 -0.106367,0 -0.0066,0 -0.01872,0.01239 -0.02504,0.018901 -0.0066,0 -0.02504,0.018703 -0.03743,0.018703 -2.1249,1.0186515 -14.75602,21.0124121 2.362728,38.1309721 z"
       style="fill:url(#path996_1_);stroke-width:0.190866" />
    <path
       id="path105011"
       style="fill:#000000;fill-opacity:0.2;stroke-width:0.190866"
       d="M 64.175781 56.539062 L 58.089844 60.128906 L 58.980469 61.603516 L 58.089844 62.128906 L 58.265625 62.421875 C 57.987889 62.54437 57.740624 62.613281 57.539062 62.613281 C 41.882922 62.613281 39.337891 72.089844 39.337891 72.089844 C 39.380822 72.583244 39.453221 73.0677 39.535156 73.548828 C 39.400606 73.880138 39.337891 74.089844 39.337891 74.089844 C 39.394241 74.737465 39.492835 75.37183 39.611328 76 C 40.567779 73.799917 44.505726 67.25 57.539062 67.25 C 59.232804 67.25 64.074499 62.524948 64.162109 61.15625 L 64.175781 58.539062 L 64.166016 58.544922 L 64.175781 56.539062 z " />
    <path
       id="path110891"
       style="fill:#000000;fill-opacity:0.2;stroke-width:0.190866"
       d="M 74.976562 49.875 L 74.986328 51.876953 L 74.976562 51.875 L 74.978516 52.519531 C 74.97879 52.519669 74.978241 52.521347 74.978516 52.521484 L 74.988281 54.511719 L 75 54.517578 C 74.9922 54.518573 74.984302 54.518531 74.976562 54.519531 C 82.636126 58.350569 86.523231 65.80032 86.841797 73.421875 C 86.381584 84.847165 77.927131 95.984366 62.021484 95.238281 C 59.577643 95.138268 57.163646 94.667985 54.857422 93.855469 C 54.319936 93.655441 53.784007 93.430796 53.240234 93.193359 C 52.927791 93.049638 52.614935 92.912426 52.308594 92.75 L 52.34375 92.773438 C 54.60622 94.318785 62.147879 97.181369 72.021484 95.931641 C 69.105123 96.924943 65.771943 97.414204 62.021484 97.238281 C 59.577643 97.138268 57.163646 96.667985 54.857422 95.855469 C 54.319936 95.655441 53.784007 95.430796 53.240234 95.193359 C 52.927791 95.049638 52.614935 94.912426 52.308594 94.75 L 52.34375 94.773438 C 56.168691 97.386008 75.077156 103.76983 94.845703 87.669922 L 94.876953 87.599609 C 95.147602 86.966061 97.226662 81.790268 97.001953 75.351562 C 97.205235 69.641135 95.790136 62.536368 89.419922 56.669922 C 89.182476 56.451381 88.895545 56.219172 88.595703 55.994141 C 88.483142 55.912831 88.368716 55.823496 88.25 55.742188 C 85.90145 54.11719 83.23778 53.059419 80.464844 52.609375 L 80.568359 51.222656 L 74.976562 49.875 z " />
    <path
       id="path105121"
       style="fill:#b98300;fill-opacity:1;stroke-width:0.190866"
       d="m 74.977321,47.239814 0.01028,2.636091 0.01292,0.0051 c -0.0078,9.95e-4 -0.01543,0.0016 -0.02317,0.0026 19.806138,9.906316 14.493257,44.005642 -12.95649,42.71806 -2.443841,-0.100013 -4.858075,-0.569887 -7.164299,-1.382403 -0.537486,-0.200028 -1.072891,-0.42416 -1.616664,-0.661597 -0.312443,-0.143721 -0.62556,-0.280355 -0.931901,-0.442781 l 0.03604,0.02317 c 3.824941,2.61257 22.733272,8.994818 42.501819,-7.105089 l 0.0309,-0.0695 c 0.493951,-1.156264 7.030054,-17.430025 -5.457532,-28.930069 -0.237446,-0.218541 -0.523937,-0.449438 -0.823779,-0.674469 -0.112561,-0.08131 -0.22624,-0.170973 -0.344956,-0.252282 -2.34855,-1.624998 -5.01177,-2.682888 -7.784706,-3.132932 l 0.102979,-1.387551 z" />
    <path
       id="path998"
       fill="url(#path998_1_)"
       d="M 89.419876,51.396707 C 89.18243,51.178166 88.894793,50.946837 88.594951,50.721806 88.48239,50.640496 88.369921,50.55308 88.251205,50.471771 84.376045,47.790489 79.644868,46.640523 74.976101,47.246712 94.782239,57.153028 89.469685,91.253105 62.019938,89.965523 59.576097,89.86551 57.163744,89.396744 54.85752,88.584229 54.320034,88.384201 53.782364,88.15917 53.238591,87.921733 52.926148,87.778012 52.613693,87.640397 52.307352,87.477971 l 0.03743,0.025 c 3.824942,2.612571 22.731342,8.993785 42.499889,-7.106122 l 0.03124,-0.06871 C 95.369863,79.171877 101.90741,62.896754 89.419823,51.39671 Z"
       style="fill:url(#path998_1_);stroke-width:0.190866" />
    <path
       id="path994"
       fill="url(#path994_1_)"
       d="M 9.5015051,65.778061 C 13.751516,90.890459 36.507677,110.0593 62.344994,110.7968 86.25741,111.47171 101.5324,97.590612 107.8451,84.046778 c 5.34367,-11.706179 5.95615,-25.018685 1.71244,-37.168627 v -0.05001 c 0,-0.0439 -0.007,-0.06241 0,-0.05001 l 0.0119,0.09371 c 1.95637,12.756133 -4.53116,25.112401 -14.674903,33.468695 l -0.03137,0.06871 C 75.100696,96.503054 56.188179,90.121839 52.363238,87.515567 52.094501,87.390735 51.832052,87.253127 51.563316,87.115512 40.044376,81.609227 35.28208,71.109319 36.300731,62.109235 c -5.587406,0.08131 -10.700117,-3.131153 -13.04376,-8.206274 6.150079,-3.768644 13.812378,-4.074984 20.243795,-0.812515 6.518829,2.962427 13.943893,3.250063 20.674954,0.812515 -0.01885,-0.44987 -9.606272,-4.262414 -13.343616,-7.943642 -1.993781,-1.96859 -2.943908,-2.912612 -3.781433,-3.624923 -0.45636,-0.387457 -0.925123,-0.743613 -1.418889,-1.075147 -0.324859,-0.22503 -0.693793,-0.462468 -1.137368,-0.75621 -4.018866,-2.612571 -12.006222,-2.468849 -12.268658,-2.46236 h -0.02504 C 30.019309,35.27179 30.169328,26.153178 30.294345,24.246811 c -0.643602,0.26244 -1.262384,0.587485 -1.837474,0.974943 -1.924874,1.374996 -3.724928,2.918719 -5.381079,4.612462 -1.893768,1.906175 -3.618812,3.968671 -5.168834,6.162482 v 0.0061 -0.01239 c -3.537318,5.018816 -6.049868,10.687528 -7.38746,16.687584 -0.02504,0.112614 -1.981181,8.662634 -1.0186519,13.100073 z"
       style="fill:url(#path994_1_);stroke-width:0.190866" />
    <path
       id="path1002"
       fill="url(#path1002_1_)"
       d="m 115.01993,43.996841 c -2.39384,-5.75613 -7.24374,-11.974918 -11.05018,-13.9374 2.71259,5.250144 4.59376,10.887556 5.575,16.712397 l 0.0119,0.09371 C 103.33172,31.340531 92.775314,25.084333 84.150475,11.453081 83.713016,10.765582 83.275556,10.071976 82.850487,9.3468775 82.606754,8.9283084 82.412843,8.5532572 82.244107,8.2095083 81.887958,7.5157116 81.612723,6.7843136 81.425297,6.0281035 c 0,-0.07501 -0.05615,-0.1313169 -0.124819,-0.1437223 -0.03137,-0.00633 -0.06867,-0.00633 -0.106366,0 -0.0066,0 -0.01885,0.01239 -0.02504,0.018703 -0.0066,0 -0.02504,0.018901 -0.03756,0.018901 l 0.01885,-0.037406 C 67.319074,13.984349 62.625303,28.978191 62.194328,36.478262 c 0.643589,-0.04371 1.281272,-0.100014 1.937277,-0.100014 9.993737,0.0189 19.200153,5.400166 24.131354,14.087612 -3.875144,-2.681283 -8.606334,-3.831249 -13.275101,-3.224869 19.806148,9.906125 14.493581,44.006392 -12.95615,42.718621 -2.443854,-0.09982 -4.856207,-0.568589 -7.162431,-1.381105 -0.537486,-0.200027 -1.075143,-0.425058 -1.618929,-0.662686 -0.312443,-0.143722 -0.624885,-0.281145 -0.931225,-0.443572 l 0.03743,0.025 c -0.268736,-0.125016 -0.531185,-0.26244 -0.799922,-0.400054 0.256334,0.124832 0.500067,0.256333 0.762516,0.375051 C 45.594176,83.997155 40.043992,77.42851 39.35038,69.453565 c 0,0 2.543871,-9.47515 18.200011,-9.47515 1.693741,0 6.537347,-4.725072 6.624958,-6.093771 -0.01885,-0.44987 -9.606285,-4.262605 -13.34363,-7.943834 C 48.837938,43.972221 47.887812,43.02839 47.0503,42.315889 46.59394,41.928431 46.125164,41.572275 45.631397,41.240933 44.375313,36.847012 44.325109,32.203248 45.475275,27.778407 40.394038,30.240956 35.88159,33.728456 32.21907,38.022172 h -0.025 c -2.18122,-2.768699 -2.03138,-11.887311 -1.90618,-13.793869 -0.64379,0.262631 -1.26239,0.587486 -1.83746,0.974942 -1.92507,1.374997 -3.72513,2.91872 -5.38127,4.612653 -1.88748,1.912475 -3.60602,3.97478 -5.14994,6.17508 v 0.0061 -0.01265 c -3.53732,5.018814 -6.04987,10.687528 -7.38746,16.687584 l -0.075,0.362455 c -0.10637,0.487471 -0.56878,2.943723 -0.63749,3.474902 0,0.03741 0,-0.0439 0,0 -0.43135,2.543631 -0.7001,5.106195 -0.81882,7.681166 v 0.281335 c 0.025,30.41255 24.70624,55.05008 55.118607,55.01878 26.787625,-0.0251 49.668803,-19.31257 54.218653,-45.712547 0.0937,-0.712311 0.16873,-1.412407 0.25004,-2.131207 1.13794,-9.36273 -0.0936,-18.875288 -3.56843,-27.650151 z m -5.46258,2.824813 0.0119,0.05631 z"
       style="fill:url(#path1002_1_);stroke-width:0.190866" />
    <path
       id="path83237"
       style="fill:#ab7900;fill-opacity:1;stroke-width:0.190866"
       d="m 64.175527,53.902123 -6.085664,3.591159 1.078636,1.78657 c -0.647954,0.423465 -1.228209,0.697637 -1.629538,0.697637 -15.65614,0 -18.200354,9.476026 -18.200354,9.476026 0.05635,0.647621 0.154384,1.281967 0.272877,1.910137 0.956451,-2.200083 4.894141,-8.750072 17.927477,-8.750072 1.693741,0 6.536084,-4.724688 6.623694,-6.093386 z" />
    <path
       id="path1000"
       fill="url(#path1000_1_)"
       d="m 39.338786,69.453182 c 0,0 2.543868,-9.47515 18.200008,-9.47515 1.693741,0 6.537347,-4.725073 6.624958,-6.093771 -6.731272,2.437356 -14.156323,2.150103 -20.674967,-0.812516 -6.431219,-3.262659 -14.093716,-2.956319 -20.243795,0.812516 2.343643,5.07493 7.45617,8.287392 13.043773,8.206083 -1.018849,9.006383 3.737529,19.500182 15.262572,25.006468 0.256149,0.124832 0.499882,0.256332 0.762515,0.375051 C 45.588879,83.996771 40.032395,77.428126 39.338786,69.453182 Z"
       style="fill:url(#path1000_1_);stroke-width:0.190866" />
    <path
       id="path43970"
       fill="url(#path998_1_)"
       d="M 89.419876,51.396707 C 89.18243,51.178166 88.894793,50.946837 88.594951,50.721806 88.48239,50.640496 88.369921,50.55308 88.251205,50.471771 84.376045,47.790489 79.644868,46.640523 74.976101,47.246712 94.782239,57.153028 89.469685,91.253105 62.019938,89.965523 59.576097,89.86551 57.163744,89.396744 54.85752,88.584229 54.320034,88.384201 53.782364,88.15917 53.238591,87.921733 52.926148,87.778012 52.613693,87.640397 52.307352,87.477971 l 0.03743,0.025 c 3.824942,2.612571 22.731342,8.993785 42.499889,-7.106122 l 0.03124,-0.06871 C 95.369863,79.171877 101.90741,62.896754 89.419823,51.39671 Z"
       style="fill:url(#linearGradient44026);fill-opacity:1;stroke-width:0.190866" />
    <path
       id="path44602"
       fill="url(#path996_1_)"
       d="m 83.488711,44.046657 c 2.012497,1.975079 3.731242,4.225195 5.11254,6.675149 0.299842,0.231329 0.587295,0.45636 0.824912,0.674901 12.487397,11.506342 5.943753,27.774977 5.456287,28.93754 10.14376,-8.356294 16.62478,-20.712371 14.67491,-33.468694 C 103.32617,31.334424 92.769952,25.078226 84.144913,11.446975 83.707454,10.759477 83.269797,10.065679 82.84474,9.340771 82.600994,8.9220121 82.407268,8.5469609 82.238545,8.2032107 81.882198,7.509414 81.607161,6.7782071 81.419735,6.021997 c 0,-0.075208 -0.05628,-0.1313169 -0.125082,-0.1439121 -0.03111,-0.00606 -0.06854,-0.00606 -0.106367,0 -0.0066,0 -0.01872,0.01239 -0.02504,0.018901 -0.0066,0 -0.02504,0.018703 -0.03743,0.018703 -2.1249,1.0186515 -14.75602,21.0124121 2.362728,38.1309721 z"
       style="fill:url(#linearGradient48523);fill-opacity:1;stroke-width:0.190866" />
    <path
       style="fill:#8b2408;fill-opacity:0.385528;stroke-width:0.263609"
       d="M 21.838464,51.688218 Z"
       id="path76656" />
    <path
       id="path87307"
       fill="url(#path992_1_)"
       d="m 44.47003,40.484338 c 0.443575,0.281146 0.812509,0.531179 1.137368,0.75621 -1.256084,-4.39392 -1.306289,-9.037685 -0.156123,-13.462526 -5.081237,2.462551 -9.593868,5.950049 -13.256203,10.243766 0.274839,-0.0061 8.262577,-0.15002 12.274958,2.46255 z"
       style="fill:url(#linearGradient88586);fill-opacity:1;stroke-width:0.190866" />
    <path
       id="path110983"
       fill="url(#path996_1_)"
       d="m 83.488711,44.046657 c 2.012497,1.975079 3.731242,4.225195 5.11254,6.675149 0.299842,0.231329 0.587295,0.45636 0.824912,0.674901 12.487397,11.506342 5.943753,27.774977 5.456287,28.93754 10.14376,-8.356294 16.62478,-20.712371 14.67491,-33.468694 C 103.32617,31.334424 92.769952,25.078226 84.144913,11.446975 83.707454,10.759477 83.269797,10.065679 82.84474,9.340771 82.600994,8.9220121 82.407268,8.5469609 82.238545,8.2032107 81.882198,7.509414 81.607161,6.7782071 81.419735,6.021997 c 0,-0.075208 -0.05628,-0.1313169 -0.125082,-0.1439121 -0.03111,-0.00606 -0.06854,-0.00606 -0.106367,0 -0.0066,0 -0.01872,0.01239 -0.02504,0.018901 -0.0066,0 -0.02504,0.018703 -0.03743,0.018703 -2.1249,1.0186515 -14.75602,21.0124121 2.362728,38.1309721 z"
       style="fill:url(#linearGradient111113);fill-opacity:1;stroke-width:0.190866" />
    <path
       id="path1128"
       fill="url(#path996_1_)"
       d="m 83.488711,44.046657 c 2.012497,1.975079 3.731242,4.225195 5.11254,6.675149 0.299842,0.231329 0.587295,0.45636 0.824912,0.674901 12.487397,11.506342 5.943753,27.774977 5.456287,28.93754 10.14376,-8.356294 16.62478,-20.712371 14.67491,-33.468694 C 103.32617,31.334424 92.769952,25.078226 84.144913,11.446975 83.707454,10.759477 83.269797,10.065679 82.84474,9.340771 82.600994,8.922012 82.407268,8.546961 82.238545,8.203211 81.882198,7.509414 81.607161,6.778207 81.419735,6.021997 c 0,-0.075208 -0.05628,-0.1313169 -0.125082,-0.1439121 -0.03111,-0.00606 -0.06854,-0.00606 -0.106367,0 -0.0066,0 -0.01872,0.01239 -0.02504,0.018901 -0.0066,0 -0.02504,0.018703 -0.03743,0.018703 -2.1249,1.0186511 -14.75602,21.0124121 2.362728,38.1309721 z"
       style="fill:url(#linearGradient1130);fill-opacity:1;stroke-width:0.190866" />
  </g>
</svg>
