<?xml version="1.0" encoding="UTF-8" standalone="no"?>
<!-- Created with Inkscape (http://www.inkscape.org/) -->

<svg
   width="128"
   height="128"
   viewBox="0 0 128 128"
   version="1.1"
   id="svg5"
   inkscape:version="1.2.2 (b0a8486541, 2022-12-01)"
   sodipodi:docname="firefox-nightly.svg"
   xml:space="preserve"
   xmlns:inkscape="http://www.inkscape.org/namespaces/inkscape"
   xmlns:sodipodi="http://sodipodi.sourceforge.net/DTD/sodipodi-0.dtd"
   xmlns:xlink="http://www.w3.org/1999/xlink"
   xmlns="http://www.w3.org/2000/svg"
   xmlns:svg="http://www.w3.org/2000/svg"><sodipodi:namedview
     id="namedview7"
     pagecolor="#ffffff"
     bordercolor="#666666"
     borderopacity="1"
     inkscape:pageshadow="2"
     inkscape:pageopacity="0.0"
     inkscape:pagecheckerboard="true"
     inkscape:document-units="px"
     showgrid="false"
     inkscape:showpageshadow="false"
     showborder="true"
     inkscape:snap-page="true"
     inkscape:zoom="1.4142136"
     inkscape:cx="21.213203"
     inkscape:cy="82.024384"
     inkscape:window-width="1366"
     inkscape:window-height="731"
     inkscape:window-x="0"
     inkscape:window-y="0"
     inkscape:window-maximized="1"
     inkscape:current-layer="layer2"
     inkscape:deskcolor="#d1d1d1" /><defs
     id="defs2"><radialGradient
       id="radialGradient21291"
       cx="-7915.977"
       cy="-8535.981"
       r="118.081"
       gradientTransform="matrix(1.4298649,0,0,1.4298649,11538.803,12194.255)"
       gradientUnits="userSpaceOnUse"><stop
         offset="0.126"
         stop-color="#3fe1b0"
         id="stop21279"
         style="stop-color:#6938ab;stop-opacity:1;" /><stop
         offset="0.42899999"
         stop-color="#0df"
         id="stop21281"
         style="stop-color:#6e38b0;stop-opacity:1;" /><stop
         offset="0.479"
         stop-color="#1ec1ff"
         id="stop21283"
         style="stop-color:#6736a7;stop-opacity:1;" /><stop
         offset="0.62400001"
         stop-color="#7077ff"
         id="stop21285"
         style="stop-color:#5e369f;stop-opacity:1;" /><stop
         offset="0.76423353"
         stop-color="#9059ff"
         id="stop21287"
         style="stop-color:#5c369e;stop-opacity:1;" /><stop
         offset="0.88211679"
         stop-color="#b833e1"
         id="stop21289"
         style="stop-color:#5642a4;stop-opacity:1;" /></radialGradient><linearGradient
       inkscape:collect="always"
       id="linearGradient3451"><stop
         style="stop-color:#4b2b92;stop-opacity:1;"
         offset="0"
         id="stop3447" /><stop
         style="stop-color:#46278c;stop-opacity:1;"
         offset="0.49877024"
         id="stop5801" /><stop
         style="stop-color:#5f39ac;stop-opacity:1;"
         offset="0.82551014"
         id="stop18233" /><stop
         style="stop-color:#6e42cc;stop-opacity:1;"
         offset="0.91954786"
         id="stop12151" /><stop
         style="stop-color:#1064af;stop-opacity:1;"
         offset="1"
         id="stop3449" /></linearGradient><radialGradient
       id="radialGradient1996"
       cx="-7907.187"
       cy="-8515.121"
       r="80.797"
       gradientTransform="matrix(1.4298649,0,0,1.4298649,11538.803,12194.255)"
       gradientUnits="userSpaceOnUse"><stop
         offset=".108"
         stop-color="#3fe1b0"
         id="stop1976" /><stop
         offset=".122"
         stop-color="#3bdcb3"
         id="stop1978" /><stop
         offset=".254"
         stop-color="#1bb3d3"
         id="stop1980" /><stop
         offset=".358"
         stop-color="#0799e6"
         id="stop1982" /><stop
         offset=".42"
         stop-color="#0090ed"
         id="stop1984" /><stop
         offset=".487"
         stop-color="#2482f1"
         id="stop1986"
         style="stop-color:#7542e5;stop-opacity:1" /><stop
         offset=".64"
         stop-color="#7165fb"
         id="stop1988" /><stop
         offset=".71"
         stop-color="#9059ff"
         id="stop1990" /><stop
         offset=".795"
         stop-color="#7d49ed"
         id="stop1992" /><stop
         offset=".86"
         stop-color="#7542e5"
         id="stop1994" /></radialGradient><linearGradient
       y2="236"
       x2="96"
       y1="236"
       x1="32"
       gradientTransform="translate(604.81684,170.58641)"
       gradientUnits="userSpaceOnUse"
       id="linearGradient1099"
       xlink:href="#linearGradient1036" /><linearGradient
       id="linearGradient1036"><stop
         id="stop1032"
         offset="0"
         style="stop-color:#d5d3cf;stop-opacity:1;" /><stop
         id="stop1034"
         offset="1"
         style="stop-color:#f6f5f4;stop-opacity:1" /></linearGradient><radialGradient
       r="32"
       fy="-76"
       fx="-244"
       cy="-76"
       cx="-244"
       gradientTransform="matrix(0.88333331,0,0,0.88333331,-460.35018,463.11973)"
       gradientUnits="userSpaceOnUse"
       id="radialGradient1103"
       xlink:href="#linearGradient1069" /><linearGradient
       id="linearGradient1069"><stop
         id="stop1065"
         offset="0"
         style="stop-color:#d5d3cf;stop-opacity:1" /><stop
         id="stop1067-1"
         offset="1"
         style="stop-color:#949390;stop-opacity:1" /></linearGradient><linearGradient
       gradientUnits="userSpaceOnUse"
       y2="232"
       x2="64"
       y1="262.5"
       x1="64"
       id="linearGradient1027"
       xlink:href="#linearGradient1025"
       gradientTransform="translate(-470.5864,432.81685)" /><linearGradient
       id="linearGradient1025"><stop
         id="stop1021"
         offset="0"
         style="stop-color:#9a9996;stop-opacity:1" /><stop
         id="stop1023"
         offset="1"
         style="stop-color:#77767b;stop-opacity:1" /></linearGradient><inkscape:path-effect
       effect="spiro"
       id="path-effect35304-9"
       is_visible="true" /><clipPath
       clipPathUnits="userSpaceOnUse"
       id="clipPath1609-7"><path
         sodipodi:nodetypes="cccccc"
         inkscape:connector-curvature="0"
         id="path1611-5"
         d="m 252,116 28,-28 v -8 h -36 v 36 z"
         style="fill:#e74747;stroke:none;stroke-width:0.25px;stroke-linecap:butt;stroke-linejoin:miter;stroke-opacity:1" /></clipPath><linearGradient
       id="path1002_1_"
       gradientUnits="userSpaceOnUse"
       x1="1556.2566"
       y1="-951.67493"
       x2="311.8808"
       y2="292.67911"
       gradientTransform="matrix(0.06250853,0,0,0.06250853,9.34608,82.491774)"><stop
         offset="0.167"
         style="stop-color:#FFF44F;stop-opacity:0.8"
         id="stop148" /><stop
         offset="0.266"
         style="stop-color:#FFF44F;stop-opacity:0.634"
         id="stop150" /><stop
         offset="0.489"
         style="stop-color:#FFF44F;stop-opacity:0.217"
         id="stop152" /><stop
         offset="0.6"
         style="stop-color:#FFF44F;stop-opacity:0"
         id="stop154" /></linearGradient><radialGradient
       id="path1000_1_"
       cx="-6734.3213"
       cy="-9290.8115"
       r="1834.0046"
       gradientTransform="matrix(0.06250853,0,0,0.06250853,507.78287,615.24118)"
       gradientUnits="userSpaceOnUse"><stop
         offset="0.094"
         style="stop-color:#FFF44F"
         id="stop138" /><stop
         offset="0.231"
         style="stop-color:#FFE141"
         id="stop140" /><stop
         offset="0.509"
         style="stop-color:#FFAF1E"
         id="stop142" /><stop
         offset="0.626"
         style="stop-color:#FF980E"
         id="stop144" /></radialGradient><radialGradient
       id="path998_1_"
       cx="-7176.6509"
       cy="-9388.8799"
       r="1675.6613"
       gradientTransform="matrix(0.06250853,0,0,0.06250853,507.78287,615.24118)"
       gradientUnits="userSpaceOnUse"><stop
         offset="0.137"
         style="stop-color:#FFF44F"
         id="stop126" /><stop
         offset="0.48"
         style="stop-color:#FF980E"
         id="stop128" /><stop
         offset="0.592"
         style="stop-color:#FF5634"
         id="stop130" /><stop
         offset="0.655"
         style="stop-color:#FF3647"
         id="stop132" /><stop
         offset="0.904"
         style="stop-color:#E31587"
         id="stop134" /></radialGradient><radialGradient
       id="path996_1_"
       cx="-11156.244"
       cy="-25211.904"
       r="1966.4982"
       gradientTransform="matrix(0.00656578,0.06218407,-0.0408071,0.00431357,-878.70204,800.67145)"
       gradientUnits="userSpaceOnUse"><stop
         offset="0"
         style="stop-color:#FFF44F"
         id="stop108" /><stop
         offset="0.06"
         style="stop-color:#FFE847"
         id="stop110" /><stop
         offset="0.168"
         style="stop-color:#FFC830"
         id="stop112" /><stop
         offset="0.304"
         style="stop-color:#FF980E"
         id="stop114" /><stop
         offset="0.356"
         style="stop-color:#FF8B16"
         id="stop116" /><stop
         offset="0.455"
         style="stop-color:#FF672A"
         id="stop118" /><stop
         offset="0.57"
         style="stop-color:#FF3647"
         id="stop120" /><stop
         offset="0.737"
         style="stop-color:#E31587"
         id="stop122" /></radialGradient><radialGradient
       id="path994_1_"
       cx="-6667.3647"
       cy="-10020.901"
       r="2683.9873"
       gradientTransform="matrix(0.06250853,0,0,0.06250853,507.78287,615.24118)"
       gradientUnits="userSpaceOnUse"><stop
         offset="0.113"
         style="stop-color:#FFF44F"
         id="stop96" /><stop
         offset="0.456"
         style="stop-color:#FF980E"
         id="stop98" /><stop
         offset="0.622"
         style="stop-color:#FF5634"
         id="stop100" /><stop
         offset="0.716"
         style="stop-color:#FF3647"
         id="stop102" /><stop
         offset="0.904"
         style="stop-color:#E31587"
         id="stop104" /></radialGradient><radialGradient
       id="path992_1_"
       cx="-7161.8359"
       cy="-9621.8896"
       r="629.0835"
       gradientTransform="matrix(0.06250853,0,0,0.06250853,507.78287,615.24118)"
       gradientUnits="userSpaceOnUse"><stop
         offset="0"
         style="stop-color:#FFE226"
         id="stop82" /><stop
         offset="0.121"
         style="stop-color:#FFDB27"
         id="stop84" /><stop
         offset="0.295"
         style="stop-color:#FFC82A"
         id="stop86" /><stop
         offset="0.502"
         style="stop-color:#FFA930"
         id="stop88" /><stop
         offset="0.732"
         style="stop-color:#FF7E37"
         id="stop90" /><stop
         offset="0.792"
         style="stop-color:#FF7139"
         id="stop92" /></radialGradient><radialGradient
       id="path990_1_"
       cx="-8236.1963"
       cy="-8000.2432"
       r="463.70401"
       gradientTransform="matrix(0.06075257,-0.01469667,0.017197,0.07111658,705.7788,503.91719)"
       gradientUnits="userSpaceOnUse"><stop
         offset="0.206"
         style="stop-color:#9059FF;stop-opacity:0"
         id="stop72" /><stop
         offset="0.278"
         style="stop-color:#8C4FF3;stop-opacity:0.064"
         id="stop74" /><stop
         offset="0.747"
         style="stop-color:#7716A8;stop-opacity:0.45"
         id="stop76" /><stop
         offset="0.975"
         style="stop-color:#6E008B;stop-opacity:0.6"
         id="stop78" /></radialGradient><radialGradient
       id="path988_1_"
       cx="-7341.7871"
       cy="-8316.2139"
       r="874.44928"
       gradientTransform="matrix(0.06250853,0,0,0.06250853,507.78287,615.24118)"
       gradientUnits="userSpaceOnUse"><stop
         offset="0.353"
         style="stop-color:#3A8EE6"
         id="stop62" /><stop
         offset="0.472"
         style="stop-color:#5C79F0"
         id="stop64" /><stop
         offset="0.669"
         style="stop-color:#9059FF"
         id="stop66" /><stop
         offset="1"
         style="stop-color:#C139E6"
         id="stop68" /></radialGradient><radialGradient
       id="path986_1_"
       cx="-6917.2114"
       cy="-9963.5234"
       r="1330.4386"
       gradientTransform="matrix(0.06250853,0,0,0.06250853,507.78287,615.24118)"
       gradientUnits="userSpaceOnUse"><stop
         offset="0.132"
         style="stop-color:#FFF44F"
         id="stop52" /><stop
         offset="0.252"
         style="stop-color:#FFDC3E"
         id="stop54" /><stop
         offset="0.506"
         style="stop-color:#FF9D12"
         id="stop56" /><stop
         offset="0.526"
         style="stop-color:#FF980E"
         id="stop58" /></radialGradient><radialGradient
       id="path984_1_"
       cx="-7138.6494"
       cy="-8795.9219"
       r="1836.528"
       gradientTransform="matrix(0.06250853,0,0,0.06250853,507.78287,615.24118)"
       gradientUnits="userSpaceOnUse"><stop
         offset="0.3"
         style="stop-color:#960E18"
         id="stop40" /><stop
         offset="0.351"
         style="stop-color:#B11927;stop-opacity:0.74"
         id="stop42" /><stop
         offset="0.435"
         style="stop-color:#DB293D;stop-opacity:0.343"
         id="stop44" /><stop
         offset="0.497"
         style="stop-color:#F5334B;stop-opacity:0.094"
         id="stop46" /><stop
         offset="0.53"
         style="stop-color:#FF3750;stop-opacity:0"
         id="stop48" /></radialGradient><radialGradient
       id="path982_1_"
       cx="-6467.5674"
       cy="-9546.7471"
       r="1836.5227"
       gradientTransform="matrix(0.06250853,0,0,0.06250853,507.78287,615.24118)"
       gradientUnits="userSpaceOnUse"><stop
         offset="0.129"
         style="stop-color:#FFBD4F"
         id="stop20" /><stop
         offset="0.186"
         style="stop-color:#FFAC31"
         id="stop22" /><stop
         offset="0.247"
         style="stop-color:#FF9D17"
         id="stop24" /><stop
         offset="0.283"
         style="stop-color:#FF980E"
         id="stop26" /><stop
         offset="0.403"
         style="stop-color:#FF563B"
         id="stop28" /><stop
         offset="0.467"
         style="stop-color:#FF3750"
         id="stop30" /><stop
         offset="0.71"
         style="stop-color:#F5156C"
         id="stop32" /><stop
         offset="0.782"
         style="stop-color:#EB0878"
         id="stop34" /><stop
         offset="0.86"
         style="stop-color:#E50080"
         id="stop36" /></radialGradient><linearGradient
       id="path980_1_"
       gradientUnits="userSpaceOnUse"
       x1="1573.7843"
       y1="-944.17688"
       x2="111.3565"
       y2="466.7912"
       gradientTransform="matrix(0.06250853,0,0,0.06250853,9.3460812,82.491774)"><stop
         offset="0.048"
         style="stop-color:#FFF44F"
         id="stop2" /><stop
         offset="0.111"
         style="stop-color:#FFE847"
         id="stop4" /><stop
         offset="0.225"
         style="stop-color:#FFC830"
         id="stop6" /><stop
         offset="0.368"
         style="stop-color:#FF980E"
         id="stop8" /><stop
         offset="0.401"
         style="stop-color:#FF8B16"
         id="stop10" /><stop
         offset="0.462"
         style="stop-color:#FF672A"
         id="stop12" /><stop
         offset="0.534"
         style="stop-color:#FF3647"
         id="stop14" /><stop
         offset="0.705"
         style="stop-color:#E31587"
         id="stop16" /></linearGradient><linearGradient
       id="a"
       x1="74.803"
       y1="20.543"
       x2="7.742"
       y2="62.786"
       gradientUnits="userSpaceOnUse"
       gradientTransform="matrix(1.422368,0,0,1.4073879,1.8672131,5.7551877)"><stop
         offset="0"
         stop-color="#3fe1b0"
         id="stop376" /><stop
         offset=".406"
         stop-color="#00b3f4"
         id="stop378" /><stop
         offset=".421"
         stop-color="#03b0f4"
         id="stop380" /><stop
         offset=".818"
         stop-color="#5561e9"
         id="stop382" /><stop
         offset="1"
         stop-color="#7542e5"
         id="stop384" /></linearGradient><radialGradient
       id="b"
       cx="-7907.187"
       cy="-8515.121"
       r="80.797"
       gradientTransform="matrix(1.422368,0,0,1.4073879,11345.251,12002.33)"
       gradientUnits="userSpaceOnUse"><stop
         offset=".108"
         stop-color="#3fe1b0"
         id="stop387" /><stop
         offset=".122"
         stop-color="#3bdcb3"
         id="stop389" /><stop
         offset=".254"
         stop-color="#1bb3d3"
         id="stop391" /><stop
         offset=".358"
         stop-color="#0799e6"
         id="stop393" /><stop
         offset=".42"
         stop-color="#0090ed"
         id="stop395" /><stop
         offset=".487"
         stop-color="#2482f1"
         id="stop397" /><stop
         offset=".64"
         stop-color="#7165fb"
         id="stop399" /><stop
         offset=".71"
         stop-color="#9059ff"
         id="stop401" /><stop
         offset=".795"
         stop-color="#7d49ed"
         id="stop403" /><stop
         offset=".86"
         stop-color="#7542e5"
         id="stop405" /></radialGradient><radialGradient
       id="c"
       cx="-7936.711"
       cy="-8482.089"
       r="80.797"
       gradientTransform="matrix(1.4298649,0,0,1.4298649,11538.803,12194.255)"
       gradientUnits="userSpaceOnUse"><stop
         offset=".3"
         stop-color="#45278d"
         id="stop408" /><stop
         offset=".341"
         stop-color="#562896"
         stop-opacity=".787"
         id="stop410" /><stop
         offset=".43"
         stop-color="#782aa9"
         stop-opacity=".364"
         id="stop412" /><stop
         offset=".495"
         stop-color="#8d2bb5"
         stop-opacity=".1"
         id="stop414" /><stop
         offset=".53"
         stop-color="#952bb9"
         stop-opacity="0"
         id="stop416" /></radialGradient><radialGradient
       id="d"
       cx="-7926.97"
       cy="-8533.457"
       r="58.534"
       gradientTransform="matrix(1.422368,0,0,1.4073879,11345.251,12002.33)"
       gradientUnits="userSpaceOnUse"><stop
         offset=".132"
         stop-color="#3fe1b0"
         id="stop419" /><stop
         offset=".289"
         stop-color="#28d0c8"
         id="stop421" /><stop
         offset=".526"
         stop-color="#00b3f4"
         id="stop423" /></radialGradient><radialGradient
       id="e"
       cx="-7945.648"
       cy="-8460.984"
       r="38.471"
       gradientTransform="matrix(1.422368,0,0,1.4073879,11345.251,12002.33)"
       gradientUnits="userSpaceOnUse"><stop
         offset=".287"
         stop-color="#0060df"
         id="stop426" /><stop
         offset=".417"
         stop-color="#2357e1"
         id="stop428" /><stop
         offset=".604"
         stop-color="#4f4ce3"
         id="stop430" /><stop
         offset=".748"
         stop-color="#6b45e4"
         id="stop432" /><stop
         offset=".833"
         stop-color="#7542e5"
         id="stop434" /></radialGradient><radialGradient
       id="f"
       cx="-7935.62"
       cy="-8491.546"
       r="20.397"
       gradientTransform="matrix(1.3898287,-0.33601825,0.39321285,1.6271863,14564.829,11207.359)"
       gradientUnits="userSpaceOnUse"><stop
         offset=".206"
         stop-color="#45278d"
         stop-opacity="0"
         id="stop437" /><stop
         offset=".251"
         stop-color="#44268a"
         stop-opacity=".055"
         id="stop439" /><stop
         offset=".725"
         stop-color="#371f6f"
         stop-opacity=".591"
         id="stop441" /><stop
         offset="0.95599997"
         stop-color="#321c64"
         stop-opacity=".8"
         id="stop443"
         style="stop-color:#444444;stop-opacity:0.80000001;" /></radialGradient><radialGradient
       id="g"
       cx="-7943.645"
       cy="-8466.522"
       r=".626"
       gradientTransform="matrix(1.422368,0,0,1.4073879,11345.251,12002.33)"
       gradientUnits="userSpaceOnUse"><stop
         offset=".353"
         stop-color="#3a8ee6"
         id="stop446" /><stop
         offset=".472"
         stop-color="#5c79f0"
         id="stop448" /><stop
         offset=".669"
         stop-color="#9059ff"
         id="stop450" /><stop
         offset="1"
         stop-color="#c139e6"
         id="stop452" /></radialGradient><radialGradient
       id="h"
       cx="-7943.48"
       cy="-8466.749"
       r=".224"
       gradientTransform="matrix(1.3825417,-0.33073614,0.39115119,1.6016074,14345.383,11023.513)"
       gradientUnits="userSpaceOnUse"><stop
         offset=".206"
         stop-color="#9059ff"
         stop-opacity="0"
         id="stop455" /><stop
         offset=".278"
         stop-color="#8c4ff3"
         stop-opacity=".064"
         id="stop457" /><stop
         offset=".747"
         stop-color="#7716a8"
         stop-opacity=".45"
         id="stop459" /><stop
         offset=".975"
         stop-color="#6e008b"
         stop-opacity=".6"
         id="stop461" /></radialGradient><radialGradient
       id="i"
       cx="-7937.731"
       cy="-8518.427"
       r="27.676"
       gradientTransform="matrix(1.422368,0,0,1.4073879,11345.251,12002.33)"
       gradientUnits="userSpaceOnUse"><stop
         offset="0"
         stop-color="#0df"
         id="stop464" /><stop
         offset=".235"
         stop-color="#00d6fd"
         id="stop466" /><stop
         offset=".572"
         stop-color="#00c3f8"
         id="stop468" /><stop
         offset=".792"
         stop-color="#00b3f4"
         id="stop470" /></radialGradient><radialGradient
       id="j"
       cx="-7915.977"
       cy="-8535.981"
       r="118.081"
       gradientTransform="matrix(1.422368,0,0,1.4073879,11345.251,12002.33)"
       gradientUnits="userSpaceOnUse"><stop
         offset=".126"
         stop-color="#3fe1b0"
         id="stop473" /><stop
         offset=".429"
         stop-color="#0df"
         id="stop475" /><stop
         offset=".479"
         stop-color="#1ec1ff"
         id="stop477" /><stop
         offset=".624"
         stop-color="#7077ff"
         id="stop479" /><stop
         offset=".69"
         stop-color="#9059ff"
         id="stop481" /><stop
         offset=".904"
         stop-color="#b833e1"
         id="stop483" /></radialGradient><radialGradient
       id="k"
       cx="-7927.165"
       cy="-8522.859"
       r="86.499"
       gradientTransform="matrix(0.14934863,1.4003509,-0.92880628,0.09710976,-6660.51,11926.599)"
       gradientUnits="userSpaceOnUse"><stop
         offset="0"
         stop-color="#54ffbd"
         id="stop486" /><stop
         offset=".095"
         stop-color="#4cf3b8"
         id="stop488" /><stop
         offset=".197"
         stop-color="#3fe1b0"
         id="stop490" /><stop
         offset=".257"
         stop-color="#33d8bd"
         id="stop492" /><stop
         offset=".369"
         stop-color="#12c0e1"
         id="stop494" /><stop
         offset=".423"
         stop-color="#00b3f4"
         id="stop496" /><stop
         offset=".737"
         stop-color="#0060df"
         id="stop498" /></radialGradient><radialGradient
       id="l"
       cx="-7938.383"
       cy="-8508.176"
       r="73.72"
       gradientTransform="matrix(1.422368,0,0,1.4073879,11345.251,12002.33)"
       gradientUnits="userSpaceOnUse"><stop
         offset=".137"
         stop-color="#3fe1b0"
         id="stop501" /><stop
         offset=".435"
         stop-color="#0df"
         id="stop503" /><stop
         offset=".484"
         stop-color="#1ec1ff"
         id="stop505" /><stop
         offset=".622"
         stop-color="#7077ff"
         id="stop507" /><stop
         offset=".685"
         stop-color="#9059ff"
         id="stop509" /></radialGradient><radialGradient
       id="m"
       cx="-7918.923"
       cy="-8503.861"
       r="80.686"
       gradientTransform="matrix(1.422368,0,0,1.4073879,11345.251,12002.33)"
       gradientUnits="userSpaceOnUse"><stop
         offset=".094"
         stop-color="#54ffbd"
         id="stop512" /><stop
         offset=".242"
         stop-color="#41f7cc"
         id="stop514" /><stop
         offset=".543"
         stop-color="#0fe3f3"
         id="stop516" /><stop
         offset=".626"
         stop-color="#0df"
         id="stop518" /></radialGradient><linearGradient
       id="n"
       x1="70.013"
       y1="12.061"
       x2="15.267"
       y2="66.806"
       gradientUnits="userSpaceOnUse"
       gradientTransform="matrix(1.4298649,0,0,1.4298649,175.63074,6.0861052)"><stop
         offset=".167"
         stop-color="#54ffbd"
         stop-opacity=".8"
         id="stop521" /><stop
         offset=".236"
         stop-color="#43f8ca"
         stop-opacity=".639"
         id="stop523" /><stop
         offset=".361"
         stop-color="#27ede1"
         stop-opacity=".368"
         id="stop525" /><stop
         offset=".466"
         stop-color="#12e4f1"
         stop-opacity=".169"
         id="stop527" /><stop
         offset=".545"
         stop-color="#05dffb"
         stop-opacity=".046"
         id="stop529" /><stop
         offset=".589"
         stop-color="#0df"
         stop-opacity="0"
         id="stop531" /></linearGradient><linearGradient
       id="o"
       x1="75.658"
       y1="72"
       x2="203.22"
       y2="72"
       gradientUnits="userSpaceOnUse"
       gradientTransform="translate(152.82933,23.275362)"><stop
         offset=".002"
         stop-color="#005e5e"
         id="stop534" /><stop
         offset=".478"
         stop-color="#0250bb"
         id="stop536" /><stop
         offset=".735"
         stop-color="#253ba3"
         id="stop538" /><stop
         offset="1"
         stop-color="#45278d"
         id="stop540" /></linearGradient><linearGradient
       inkscape:collect="always"
       xlink:href="#linearGradient3451"
       id="linearGradient3453"
       x1="137.48956"
       y1="79.428863"
       x2="248.18765"
       y2="79.428863"
       gradientUnits="userSpaceOnUse"
       gradientTransform="matrix(0.99475689,0,0,0.9842803,-133.0524,-0.23524577)" /><linearGradient
       inkscape:collect="always"
       xlink:href="#radialGradient21291"
       id="linearGradient20863"
       x1="137.72694"
       y1="71.036923"
       x2="241.50211"
       y2="71.036926"
       gradientUnits="userSpaceOnUse"
       gradientTransform="matrix(0.99475689,0,0,0.9842803,-133.0524,-0.23524577)" /></defs><g
     inkscape:groupmode="layer"
     id="layer2"
     inkscape:label="Layer 1"><g
       id="g50148"
       transform="translate(5.2247503,-1.1842008e-5)"><path
         id="path807"
         style="fill:url(#linearGradient3453);fill-opacity:1;stroke-width:1.41485"
         d="m 98.788128,29.710329 v 3.937121 a 57.273069,56.66988 0 0 1 5.583852,16.555903 v 0.0519 l 0.01,0.05767 a 49.925116,49.399315 0 0 1 -1.71556,36.814389 C 96.348198,100.54112 81.05579,114.29065 57.117374,113.62214 31.251625,112.89733 8.4711952,93.905695 4.2126211,69.03155 3.4374269,65.109165 4.2134169,63.120455 4.6031427,59.932724 a 41.072298,40.639733 0 0 0 -0.8859603,7.526285 v 0.282603 A 55.129561,54.548947 0 0 0 113.17348,76.965396 c 0.0924,-0.703694 0.16813,-1.400091 0.25063,-2.110821 a 56.691321,56.094259 0 0 0 -3.57685,-27.400287 c -1.49854,-3.567777 -3.96047,-7.313467 -6.52615,-10.094641 l 0.91704,-0.261448 z" /><path
         d="M 109.84771,43.516813 C 107.45244,37.814078 102.59363,31.656755 98.788794,29.710338 a 57.273069,56.66988 0 0 1 5.582796,16.556511 l 0.01,0.09148 C 98.148718,30.982614 87.579098,24.783071 78.946747,11.283407 78.510078,10.600823 78.07342,9.9168329 77.648131,9.1948427 77.404903,8.7824781 77.21004,8.4109277 77.040772,8.0689324 A 10.031961,9.9263064 0 0 1 76.218646,5.908592 0.1422368,0.14073879 0 0 0 76.093475,5.7678532 a 0.19628678,0.19421953 0 0 0 -0.103832,0 c -0.007,0 -0.0185,0.012667 -0.02706,0.015481 -0.009,0.00282 -0.02706,0.015482 -0.03979,0.021111 l 0.02129,-0.036593 C 62.097326,13.789963 57.399248,28.64072 56.966847,36.068913 A 27.575448,27.285028 0 0 0 41.795869,41.854685 16.480978,16.307403 0 0 0 40.373506,40.787885 25.557108,25.287945 0 0 1 40.218463,27.4557 40.829073,40.399069 0 0 0 26.949192,37.602966 h -0.02557 C 24.738872,34.862782 24.892493,25.827352 25.017653,23.940045 a 9.8541654,9.7503832 0 0 0 -1.840539,0.966875 40.146337,39.723523 0 0 0 -5.387932,4.566974 48.140045,47.633043 0 0 0 -5.153238,6.117915 v 0.0085 -0.0099 A 46.558372,46.068028 0 0 0 5.239628,52.117377 l -0.07401,0.360291 c -0.1038328,0.479919 -0.4779111,2.883738 -0.5419237,3.405879 0,0.04082 -0.00895,0.07881 -0.012832,0.119628 a 52.538007,51.984686 0 0 0 -0.8946644,7.519673 v 0.281478 A 55.129561,54.548947 0 0 0 113.1731,73.028346 c 0.0924,-0.703693 0.16784,-1.400351 0.25034,-2.111081 A 56.691321,56.094259 0 0 0 109.84771,43.516813 Z M 46.310524,86.214147 c 0.257453,0.122443 0.499258,0.254737 0.763814,0.37155 l 0.0384,0.02393 q -0.401118,-0.19 -0.802224,-0.395478 z M 58.938306,53.315048 Z m 45.447504,-6.944053 v -0.05207 l 0.01,0.0577 z"
         fill="url(#a)"
         id="path545"
         style="fill:url(#a);stroke-width:1.41485" /><path
         d="M 109.84771,43.516813 C 107.45244,37.814078 102.59363,31.656755 98.788794,29.710338 a 57.273069,56.66988 0 0 1 5.582796,16.556511 v 0.05208 l 0.01,0.0577 a 49.925116,49.399315 0 0 1 -1.71538,36.814448 C 96.347999,96.604894 81.054696,110.35367 57.11625,109.68515 31.250481,108.96035 8.4712648,89.969053 4.2126907,65.094884 c -0.7751942,-3.92239 0,-5.911029 0.3897259,-9.098762 a 41.072298,40.639733 0 0 0 -0.8861295,7.52671 v 0.281477 A 55.129561,54.548947 0 0 0 113.17319,73.02833 c 0.0924,-0.703694 0.16784,-1.400352 0.25034,-2.111082 A 56.691321,56.094259 0 0 0 109.8477,43.516813 Z"
         fill="url(#b)"
         id="path549"
         style="fill:url(#b);stroke-width:1.41485" /><path
         d="m 83.058823,49.928872 c 0.11948,0.08303 0.230425,0.166072 0.342793,0.249108 A 30.011965,29.695884 0 0 0 78.281095,43.570294 C 61.147243,26.614084 73.790673,6.8051001 75.922805,5.7988178 l 0.02129,-0.030963 C 62.097335,13.789966 57.399258,28.640723 56.966857,36.068916 c 0.642911,-0.04363 1.280133,-0.09711 1.937269,-0.09711 a 27.821518,27.528507 0 0 1 24.154647,13.957066 z"
         fill="url(#d)"
         id="path553"
         style="fill:url(#d);stroke-width:1.41485" /><path
         d="m 58.939728,53.315048 c -0.09102,1.356722 -4.935615,6.036287 -6.629656,6.036287 -15.675917,0 -18.220535,9.383054 -18.220535,9.383054 0.694122,7.901076 6.258424,14.408837 12.984801,17.851308 0.307231,0.157628 0.618729,0.299774 0.930227,0.439105 q 0.809324,0.354662 1.618658,0.655843 a 24.514512,24.25633 0 0 0 7.173003,1.369388 C 84.272108,90.325127 89.594604,56.539373 69.766802,46.735509 A 19.031284,18.83085 0 0 1 83.058823,49.928872 27.821518,27.528507 0 0 0 58.904176,35.971806 c -0.654292,0 -1.294358,0.05349 -1.937269,0.09711 a 27.575448,27.285028 0 0 0 -15.170978,5.785772 c 0.840619,0.703694 1.789339,1.643829 3.787766,3.593061 3.740833,3.646542 13.334706,7.423971 13.356033,7.867299 z"
         fill="url(#e)"
         id="path555"
         style="fill:url(#e);stroke-width:1.41485" /><path
         d="m 46.310524,86.214147 q 0.401106,0.204071 0.802221,0.395476 l -0.0384,-0.02393 c -0.260298,-0.116813 -0.506361,-0.249107 -0.763814,-0.37155 z"
         fill="url(#g)"
         id="path559"
         style="fill:url(#g);stroke-width:1.41485" /><path
         d="m 46.310524,86.214147 q 0.401106,0.204071 0.802221,0.395476 l -0.0384,-0.02393 c -0.260298,-0.116813 -0.506361,-0.249107 -0.763814,-0.37155 z"
         fill="url(#h)"
         id="path561"
         style="fill:url(#h);stroke-width:1.41485" /><path
         d="m 4.2198132,67.94848 c 4.2543066,24.874169 27.0377908,43.86546 52.9035588,44.59027 23.938447,0.66992 39.231749,-13.08026 45.549908,-26.494071 a 49.925116,49.399315 0 0 0 1.71538,-36.814458 v -0.05208 c 0,-0.04082 -0.009,-0.06474 0,-0.05208 l 0.01,0.09148 c 1.95575,12.63412 -4.538781,24.874173 -14.691648,33.151025 l -0.03133,0.07038 C 69.893335,98.380427 50.961619,92.057027 47.129756,89.47588 Q 46.72865,89.285884 46.327544,89.080406 C 34.793616,83.625377 30.028681,73.227592 31.049938,64.310383 a 14.156829,14.007732 0 0 1 -13.05876,-8.127665 20.792176,20.573197 0 0 1 20.267326,-0.805026 27.451702,27.162586 0 0 0 20.698294,0.805026 c -0.02139,-0.443328 -9.61521,-4.222164 -13.356033,-7.867299 -1.998427,-1.949232 -2.947147,-2.88796 -3.787766,-3.593062 A 16.480978,16.307403 0 0 0 40.390626,43.655558 C 40.06349,43.434598 39.695092,43.195342 39.252734,42.908234 35.231697,40.321456 27.235145,40.463602 26.97059,40.470639 H 26.94502 C 24.76027,37.730454 24.91388,28.695025 25.03905,26.807718 a 9.8541654,9.7503832 0 0 0 -1.840539,0.966875 40.146337,39.723523 0 0 0 -5.387931,4.566974 48.140045,47.633043 0 0 0 -5.174576,6.103841 v 0.0085 -0.0099 A 46.558372,46.068028 0 0 0 5.2396877,54.970976 c -0.027057,0.111183 -1.9856243,8.583659 -1.0198348,12.977523 z"
         fill="url(#j)"
         id="path20859"
         style="fill:url(#linearGradient20863);stroke-width:1.41485" /><path
         id="path557"
         style="fill:#189591;fill-opacity:1;stroke-width:1.41485"
         d="m 58.939569,53.315754 c -0.09102,1.356721 -4.935088,6.036407 -6.629129,6.036406 -15.675897,0 -18.220365,9.381422 -18.220365,9.381422 0.05451,0.62062 0.149462,1.229453 0.262287,1.832069 0.931719,-2.145667 4.842546,-8.697039 17.958078,-8.697039 1.694041,0 6.542367,-4.679688 6.629129,-6.036406 z" /><path
         d="m 39.225716,40.040565 c 0.446616,0.281478 0.815014,0.526363 1.137892,0.747323 A 25.557108,25.287945 0 0 1 40.208566,27.455703 40.829073,40.399069 0 0 0 26.939295,37.602969 c 0.268833,-0.0071 8.265385,-0.149183 12.286421,2.437596 z"
         fill="url(#i)"
         id="path563"
         style="fill:url(#i);stroke-width:1.41485" /><path
         d="M 4.2198132,65.094884 C 8.4741198,89.969053 31.257604,108.96035 57.123372,109.68515 81.061819,110.35507 96.355121,96.604894 102.67328,83.191083 a 49.925116,49.399315 0 0 0 1.71538,-36.814458 v -0.05208 c 0,-0.04082 -0.009,-0.06474 0,-0.05208 l 0.01,0.09148 c 1.95575,12.63412 -4.538781,24.874174 -14.691648,33.151025 l -0.03133,0.07038 C 69.893335,95.526832 50.961619,89.203431 47.129756,86.622284 Q 46.72865,86.432288 46.327544,86.22681 C 34.793616,80.771781 30.028681,70.373996 31.049938,61.456787 a 14.156829,14.007732 0 0 1 -13.05876,-8.127665 20.792176,20.573197 0 0 1 20.267326,-0.805026 27.451702,27.162586 0 0 0 20.698294,0.805026 c -0.02139,-0.443328 -9.61521,-4.222164 -13.356033,-7.867298 -1.998427,-1.949233 -2.947147,-2.887961 -3.787766,-3.593063 A 16.480978,16.307403 0 0 0 40.390626,40.801962 C 40.06349,40.581002 39.695092,40.341746 39.252734,40.054638 35.231697,37.46786 27.235145,37.610006 26.97059,37.617043 H 26.94502 C 24.76027,34.876858 24.91388,25.841429 25.03905,23.954122 a 9.8541654,9.7503832 0 0 0 -1.840539,0.966875 40.146337,39.723523 0 0 0 -5.387931,4.566974 48.140045,47.633043 0 0 0 -5.174576,6.103841 v 0.0085 -0.0099 A 46.558372,46.068028 0 0 0 5.2396877,52.11738 c -0.027057,0.111184 -1.9856243,8.583659 -1.0198348,12.977523 z"
         fill="url(#j)"
         id="path565"
         style="fill:url(#j);stroke-width:1.41485" /><path
         id="path46149"
         style="fill:#189591;fill-opacity:1;stroke-width:1.41485"
         d="m 69.767259,46.735302 -0.006,2.618339 C 77.324915,53.095627 81.217677,60.326812 81.628432,67.768527 82.082907,59.448479 78.217888,50.913786 69.76712,46.735302 Z" /><path
         fill="#ff4aa2"
         d="m 58.939728,53.315048 h -9.94e-4 z"
         id="path567"
         style="stroke-width:1.41485" /><path
         d="m 78.28394,43.570294 a 30.011965,29.695884 0 0 1 5.120521,6.614723 c 0.302963,0.22659 0.586011,0.451771 0.826394,0.669916 C 96.7292,62.254775 90.180626,78.369366 89.692747,79.516387 99.845614,71.23954 106.33445,58.999487 104.38439,46.365366 98.148728,30.982616 87.579108,24.783073 78.946756,11.283409 78.510088,10.600825 78.07343,9.9168348 77.648141,9.1948447 77.404913,8.78248 77.21005,8.4109297 77.040782,8.0689344 A 10.031961,9.9263064 0 0 1 76.218656,5.908594 0.1422368,0.14073879 0 0 0 76.093485,5.7678552 a 0.19628678,0.19421953 0 0 0 -0.103832,0 c -0.007,0 -0.0185,0.012667 -0.02706,0.015481 -0.009,0.00282 -0.02706,0.015482 -0.03979,0.021111 -2.13213,1.0006524 -14.77556,20.8096368 2.361137,37.7658468 z"
         fill="url(#k)"
         id="path569"
         style="fill:url(#k);stroke-width:1.41485" /><path
         d="M 84.22232,50.847897 C 83.981947,50.629752 83.698889,50.404569 83.395926,50.17798 83.283558,50.094946 83.172613,50.011908 83.053133,49.928872 A 19.031284,18.83085 0 0 0 69.761112,46.735509 c 19.827802,9.809494 14.508151,43.589618 -12.970576,42.314524 a 24.514512,24.25633 0 0 1 -7.173003,-1.369388 q -0.809324,-0.299773 -1.618658,-0.655843 c -0.311498,-0.140739 -0.622996,-0.281477 -0.930227,-0.439105 l 0.0384,0.02393 c 3.831854,2.588186 22.757889,8.911579 42.545872,-7.03694 l 0.03123,-0.07037 C 90.177719,78.362332 96.726303,62.243519 84.222259,50.8479 Z"
         fill="url(#l)"
         id="path571"
         style="fill:url(#l);stroke-width:1.41485" /><path
         d="m 34.089537,68.734389 c 0,0 2.544618,-9.383054 18.220535,-9.383054 1.694041,0 6.542894,-4.679565 6.629656,-6.036287 a 27.451702,27.162586 0 0 1 -20.698294,-0.805027 20.792176,20.573197 0 0 0 -20.267326,0.805027 14.156829,14.007732 0 0 0 13.05876,8.127665 c -1.021257,8.918617 3.743678,19.316398 15.277656,24.770027 0.257453,0.122442 0.499258,0.254736 0.763814,0.37155 C 40.342271,83.143226 34.783659,76.635465 34.089537,68.734389 Z"
         fill="url(#m)"
         id="path573"
         style="fill:url(#m);stroke-width:1.41485" /><path
         fill="#ff4aa2"
         d="m 72.214689,59.88192 -9.94e-4,0.0014 z"
         id="path575"
         style="stroke-width:1.41485" /><path
         id="path46138"
         style="fill:#000000;fill-opacity:0.205314;stroke-width:1.41485"
         d="m 58.939569,55.832206 c -0.09102,1.356715 -4.935088,6.036407 -6.629129,6.036406 -13.115492,0 -17.026359,6.549893 -17.958078,8.695117 0.07461,0.398893 0.167269,0.792095 0.266177,1.182289 -0.004,0.0071 -0.006,0.01213 -0.0099,0.01922 0.141971,0.558687 0.314204,1.105458 0.503207,1.645594 1.749091,-2.757515 6.274927,-7.29175 17.198412,-7.29175 1.694041,0 6.542367,-4.67969 6.629129,-6.036406 v -1.734025 -0.782426 z" /><path
         id="path47121"
         style="fill:#000000;fill-opacity:0.187009;stroke-width:1.41485"
         d="m 69.767259,49.365176 -0.006,2.618339 0.004,0.002 -0.004,1.309169 c 6.90036,3.413841 10.743623,9.733081 11.676735,16.465548 0.0563,-0.405093 0.112158,-0.809541 0.147661,-1.216893 -0.002,-0.02753 -0.004,-0.05513 -0.006,-0.08266 0.0181,-0.217794 0.03432,-0.435044 0.04665,-0.653624 -0.39872,-7.45239 -4.285603,-14.69701 -11.859304,-18.44183 z" /><path
         id="rect48493"
         style="fill:#238068;fill-opacity:1;stroke-width:2.47376;stroke-linecap:round"
         d="m 98.788128,29.710329 v 3.937121 a 57.273069,56.66988 0 0 1 3.456392,8.116468 c 0.75225,1.445058 1.47115,2.956671 2.13329,4.588822 l -0.006,-0.03461 v -0.0519 A 57.273069,56.66988 0 0 0 98.788128,29.710329 Z m 5.599392,16.682782 c 0.0392,0.255403 0.0709,0.510134 0.10297,0.765125 -0.0292,-0.230305 -0.0429,-0.459555 -0.0777,-0.69015 a 49.925116,49.399315 0 0 0 -0.0253,-0.07497 z m 0.18069,1.451429 c 0.0565,0.556102 0.0995,1.111076 0.12435,1.664817 -0.0257,-0.553863 -0.0669,-1.108564 -0.12435,-1.664817 z m 0.13406,1.924344 c 0.0102,0.28208 0.0189,0.564482 0.0214,0.845866 h 0.006 c -0.003,-0.28129 -0.0166,-0.563808 -0.0272,-0.845866 z" /></g></g></svg>
