<?xml version="1.0" encoding="UTF-8" standalone="no"?>
<!-- Created with Inkscape (http://www.inkscape.org/) -->

<svg
   width="128"
   height="128"
   viewBox="0 0 128 128"
   version="1.1"
   id="svg5"
   inkscape:version="1.1.2 (0a00cf5339, 2022-02-04)"
   sodipodi:docname="org.inkscape.Inkscape.svg"
   xmlns:inkscape="http://www.inkscape.org/namespaces/inkscape"
   xmlns:sodipodi="http://sodipodi.sourceforge.net/DTD/sodipodi-0.dtd"
   xmlns:xlink="http://www.w3.org/1999/xlink"
   xmlns="http://www.w3.org/2000/svg"
   xmlns:svg="http://www.w3.org/2000/svg">
  <sodipodi:namedview
     id="namedview7"
     pagecolor="#ffffff"
     bordercolor="#666666"
     borderopacity="1"
     inkscape:pageshadow="2"
     inkscape:pageopacity="0.0"
     inkscape:pagecheckerboard="true"
     inkscape:document-units="px"
     showgrid="false"
     inkscape:showpageshadow="false"
     showborder="true"
     inkscape:snap-page="true"
     inkscape:zoom="1.7064043"
     inkscape:cx="60.653857"
     inkscape:cy="-37.505767"
     inkscape:window-width="1366"
     inkscape:window-height="731"
     inkscape:window-x="0"
     inkscape:window-y="0"
     inkscape:window-maximized="1"
     inkscape:current-layer="layer2"
     inkscape:snap-bbox="true"
     inkscape:bbox-nodes="true"
     inkscape:snap-bbox-edge-midpoints="true"
     inkscape:snap-bbox-midpoints="true"
     inkscape:bbox-paths="true"
     inkscape:object-paths="true"
     inkscape:snap-intersection-paths="true" />
  <defs
     id="defs2">
    <linearGradient
       inkscape:collect="always"
       id="linearGradient12100">
      <stop
         style="stop-color:#1a1a1a;stop-opacity:1;"
         offset="0"
         id="stop12096" />
      <stop
         style="stop-color:#1a1a1a;stop-opacity:1;"
         offset="0.20376162"
         id="stop14910" />
      <stop
         style="stop-color:#333333;stop-opacity:1"
         offset="0.23147947"
         id="stop14842" />
      <stop
         style="stop-color:#1a1a1a;stop-opacity:1;"
         offset="0.26471701"
         id="stop14844" />
      <stop
         style="stop-color:#1a1a1a;stop-opacity:1;"
         offset="0.44371063"
         id="stop12460" />
      <stop
         style="stop-color:#333333;stop-opacity:1"
         offset="0.48383826"
         id="stop12458" />
      <stop
         style="stop-color:#1a1a1a;stop-opacity:1;"
         offset="0.52347857"
         id="stop12718" />
      <stop
         style="stop-color:#1a1a1a;stop-opacity:1;"
         offset="0.71546447"
         id="stop22564" />
      <stop
         style="stop-color:#333333;stop-opacity:1"
         offset="0.7476995"
         id="stop21856" />
      <stop
         style="stop-color:#1a1a1a;stop-opacity:1;"
         offset="0.7682386"
         id="stop22242" />
      <stop
         style="stop-color:#1a1a1a;stop-opacity:1;"
         offset="0.80907696"
         id="stop13556" />
      <stop
         style="stop-color:#333333;stop-opacity:1"
         offset="0.83673805"
         id="stop13168" />
      <stop
         style="stop-color:#1a1a1a;stop-opacity:1;"
         offset="0.86210173"
         id="stop13234" />
      <stop
         style="stop-color:#333333;stop-opacity:1"
         offset="0.90454495"
         id="stop14006" />
      <stop
         style="stop-color:#1a1a1a;stop-opacity:1;"
         offset="0.95788294"
         id="stop14136" />
      <stop
         style="stop-color:#1a1a1a;stop-opacity:1"
         offset="1"
         id="stop12098" />
    </linearGradient>
    <linearGradient
       y2="236"
       x2="96"
       y1="236"
       x1="32"
       gradientTransform="translate(604.81684,170.58641)"
       gradientUnits="userSpaceOnUse"
       id="linearGradient1099"
       xlink:href="#linearGradient1036" />
    <linearGradient
       id="linearGradient1036">
      <stop
         id="stop1032"
         offset="0"
         style="stop-color:#d5d3cf;stop-opacity:1;" />
      <stop
         id="stop1034"
         offset="1"
         style="stop-color:#f6f5f4;stop-opacity:1" />
    </linearGradient>
    <radialGradient
       r="32"
       fy="-76"
       fx="-244"
       cy="-76"
       cx="-244"
       gradientTransform="matrix(0.88333331,0,0,0.88333331,-460.35018,463.11973)"
       gradientUnits="userSpaceOnUse"
       id="radialGradient1103"
       xlink:href="#linearGradient1069" />
    <linearGradient
       id="linearGradient1069">
      <stop
         id="stop1065"
         offset="0"
         style="stop-color:#d5d3cf;stop-opacity:1" />
      <stop
         id="stop1067-1"
         offset="1"
         style="stop-color:#949390;stop-opacity:1" />
    </linearGradient>
    <linearGradient
       gradientUnits="userSpaceOnUse"
       y2="232"
       x2="64"
       y1="262.5"
       x1="64"
       id="linearGradient1027"
       xlink:href="#linearGradient1025"
       gradientTransform="translate(-470.5864,432.81685)" />
    <linearGradient
       id="linearGradient1025">
      <stop
         id="stop1021"
         offset="0"
         style="stop-color:#9a9996;stop-opacity:1" />
      <stop
         id="stop1023"
         offset="1"
         style="stop-color:#77767b;stop-opacity:1" />
    </linearGradient>
    <inkscape:path-effect
       effect="spiro"
       id="path-effect35304-9"
       is_visible="true" />
    <clipPath
       clipPathUnits="userSpaceOnUse"
       id="clipPath1609-7">
      <path
         sodipodi:nodetypes="cccccc"
         inkscape:connector-curvature="0"
         id="path1611-5"
         d="m 252,116 28,-28 v -8 h -36 v 36 z"
         style="fill:#e74747;stroke:none;stroke-width:0.25px;stroke-linecap:butt;stroke-linejoin:miter;stroke-opacity:1" />
    </clipPath>
    <radialGradient
       r="32"
       fy="-76"
       fx="-244"
       cy="-76"
       cx="-244"
       gradientTransform="matrix(0.88333331,0,0,0.88333331,-460.35018,463.11973)"
       gradientUnits="userSpaceOnUse"
       id="radialGradient1103-5"
       xlink:href="#linearGradient1069" />
    <inkscape:path-effect
       effect="spiro"
       id="path-effect35304-9-2"
       is_visible="true" />
    <clipPath
       clipPathUnits="userSpaceOnUse"
       id="clipPath1609-7-7">
      <path
         sodipodi:nodetypes="cccccc"
         inkscape:connector-curvature="0"
         id="path1611-5-0"
         d="m 252,116 28,-28 v -8 h -36 v 36 z"
         style="fill:#e74747;stroke:none;stroke-width:0.25px;stroke-linecap:butt;stroke-linejoin:miter;stroke-opacity:1" />
    </clipPath>
    <clipPath
       clipPathUnits="userSpaceOnUse"
       id="clipPath744">
      <rect
         style="fill:#1e88e5;fill-opacity:1;stroke-width:0.264583"
         id="rect746"
         width="541.86664"
         height="541.86664"
         x="0"
         y="1.5987212e-14"
         rx="79.375"
         ry="79.375" />
    </clipPath>
    <clipPath
       clipPathUnits="userSpaceOnUse"
       id="clipPath62">
      <rect
         style="fill:#1e88e5;fill-opacity:1;stroke-width:0.264583"
         id="rect64"
         width="541.86664"
         height="541.86664"
         x="2.2507105e-05"
         y="-0.42205024"
         rx="79.375"
         ry="79.375" />
    </clipPath>
    <radialGradient
       r="32"
       fy="-76"
       fx="-244"
       cy="-76"
       cx="-244"
       gradientTransform="matrix(0.88333331,0,0,0.88333331,-460.35018,463.11973)"
       gradientUnits="userSpaceOnUse"
       id="radialGradient1103-6"
       xlink:href="#linearGradient1069" />
    <inkscape:path-effect
       effect="spiro"
       id="path-effect35304-9-20"
       is_visible="true" />
    <clipPath
       clipPathUnits="userSpaceOnUse"
       id="clipPath1609-7-2">
      <path
         sodipodi:nodetypes="cccccc"
         inkscape:connector-curvature="0"
         id="path1611-5-3"
         d="m 252,116 28,-28 v -8 h -36 v 36 z"
         style="fill:#e74747;stroke:none;stroke-width:0.25px;stroke-linecap:butt;stroke-linejoin:miter;stroke-opacity:1" />
    </clipPath>
    <radialGradient
       r="32"
       fy="-76"
       fx="-244"
       cy="-76"
       cx="-244"
       gradientTransform="matrix(0.88333331,0,0,0.88333331,-460.35018,463.11973)"
       gradientUnits="userSpaceOnUse"
       id="radialGradient1103-56"
       xlink:href="#linearGradient1069" />
    <inkscape:path-effect
       effect="spiro"
       id="path-effect35304-9-7"
       is_visible="true" />
    <clipPath
       clipPathUnits="userSpaceOnUse"
       id="clipPath1609-7-0">
      <path
         sodipodi:nodetypes="cccccc"
         inkscape:connector-curvature="0"
         id="path1611-5-9"
         d="m 252,116 28,-28 v -8 h -36 v 36 z"
         style="fill:#e74747;stroke:none;stroke-width:0.25px;stroke-linecap:butt;stroke-linejoin:miter;stroke-opacity:1" />
    </clipPath>
    <clipPath
       clipPathUnits="userSpaceOnUse"
       id="clipPath37">
      <rect
         style="fill:#1a1a1a;fill-opacity:1;stroke-width:0.264583"
         id="rect39"
         width="541.86664"
         height="541.86664"
         x="-2.6626146e-06"
         y="3.2408705"
         rx="79.375"
         ry="79.375" />
    </clipPath>
    <clipPath
       clipPathUnits="userSpaceOnUse"
       id="clipPath22042">
      <rect
         style="fill:#333333;fill-opacity:1;stroke-width:0.0133797"
         id="rect22044"
         width="27.31955"
         height="27.483929"
         x="166.96844"
         y="105.40438"
         rx="4.0018873"
         ry="4.0259666" />
    </clipPath>
    <clipPath
       clipPathUnits="userSpaceOnUse"
       id="clipPath1039">
      <rect
         style="fill:#b3b3b3;fill-opacity:1;stroke-width:0.264583"
         id="rect1041"
         width="541.8667"
         height="541.86682"
         x="2.5931527e-05"
         y="-0.00010962487"
         rx="79.375008"
         ry="79.375031" />
    </clipPath>
    <clipPath
       clipPathUnits="userSpaceOnUse"
       id="clipPath154">
      <rect
         style="fill:#b3b3b3;fill-opacity:1;stroke-width:0.264583"
         id="rect156"
         width="541.8667"
         height="541.86682"
         x="-2.9218751e-05"
         y="-0.00016368683"
         rx="79.375008"
         ry="79.375031" />
    </clipPath>
    <linearGradient
       inkscape:collect="always"
       xlink:href="#linearGradient12100"
       id="linearGradient12102"
       x1="9.0002041"
       y1="100.73832"
       x2="119"
       y2="100.73832"
       gradientUnits="userSpaceOnUse" />
  </defs>
  <g
     inkscape:groupmode="layer"
     id="layer2"
     inkscape:label="Layer 1">
    <g
       id="g23018">
      <path
         id="path1031"
         style="fill:url(#linearGradient12102);fill-opacity:1;stroke-width:0.099463"
         d="M 63.064527,5.6531608 C 59.663324,5.6475975 56.29585,6.881113 53.855017,9.3793555 L 13.248365,50.931988 c -3.019016,3.738681 -4.2559508,6.557919 -4.2456505,8.735091 h -0.00271 v 8.10434 0.299473 h 0.023855 c 0.2971257,5.557418 8.9788605,6.796682 16.5294145,8.639683 -2.031385,1.003261 -3.681812,2.024111 -3.604297,3.124597 h -0.008 v 7.97978 h 0.01058 c -0.02831,0.355348 0.106639,0.7184 0.471738,1.091886 1.734564,1.773021 6.889241,3.482991 12.11415,5.191761 -2.17037,0.774786 -3.875812,2.158216 -3.887871,3.771248 h -0.0027 v 8.130843 0.54064 h 0.06626 c 0.144825,0.65768 0.567154,1.34146 1.362213,2.03006 3.596902,3.11043 9.152786,-0.77436 10.818192,-5.1149 v -6.455913 c 0.665537,0.269818 1.267568,0.53947 1.833952,0.810965 -1.031839,1.117238 -1.870918,2.232218 -1.722642,3.331308 h -0.008 v 8.00894 c 0.0023,0.0351 -0.0042,0.0708 0,0.10597 v 0.0186 h 0.0053 c 0.05836,0.44653 0.271035,0.88955 0.702307,1.33041 3.545659,3.6242 11.744745,0.19053 13.280246,8.55752 1.094255,5.97882 14.777162,2.56984 21.469423,-2.32689 0.558239,-0.57107 0.744756,-1.03646 0.723509,-1.44171 h 0.02915 v -8.13349 h -0.02915 c -0.0068,-0.15201 -0.0413,-0.29465 -0.108661,-0.42934 7.275606,-4.51695 13.622148,-1.51809 16.192835,-9.217423 0.07586,-0.227294 0.100452,-0.448097 0.09806,-0.665204 h 0.01058 V 88.81408 h -0.01058 c -0.0136,-1.552489 -1.917433,-2.852014 -4.065467,-4.06277 10.662239,-3.87707 28.030019,-7.733273 27.679139,-16.341191 H 119 v -7.85522 -0.278273 h -0.0239 c -0.0889,-2.267757 -1.39732,-4.858497 -4.41261,-7.873772 L 72.472804,9.3793555 C 69.898983,6.9083637 66.465844,5.659944 63.064527,5.6531608 Z m 0.36308,3.9541117 c 2.428298,0.011127 4.848531,0.9220865 6.591094,2.6873125 l 16.065626,16.31469 c 1.029145,1.051615 1.340182,2.759452 1.179347,4.030968 L 72.472804,17.520799 c -2.573821,-2.470992 -6.00696,-3.719412 -9.408277,-3.726195 -3.401203,-0.0056 -6.768677,1.227952 -9.20951,3.726195 L 38.910434,32.815157 c 0.0455,-1.436116 0.723805,-3.108994 2.159927,-4.545109 5.670618,-6.120949 12.179365,-12.360319 15.715798,-15.975463 1.777419,-1.816667 4.213043,-2.7002099 6.641448,-2.6873125 z m 0,8.1414435 c 2.428298,0.01113 4.848531,0.922086 6.591094,2.687312 l 8.504552,8.637034 -1.335711,8.046035 -6.665299,-3.519479 -10.672432,6.744783 -3.532741,-14.215722 -5.735074,9.919734 h -8.764273 c -0.131729,0 -0.250553,-0.01712 -0.373681,-0.02915 5.58239,-5.993303 11.881591,-12.045684 15.342117,-15.583231 1.777419,-1.816667 4.213043,-2.70021 6.641448,-2.687313 z M 108.26136,84.50484 c -3.40607,0.01113 -6.8394,1.707139 -7.76514,4.969144 v 4.82868 c -0.564038,-0.237594 -1.183959,-0.446306 -1.90551,-0.593647 -1.27824,1.146583 -1.792383,2.292355 -1.799499,3.302161 h -0.01855 v 8.080492 h 0.01855 c -0.0752,2.68887 3.555019,4.41282 6.890569,2.45144 0.23038,-0.23379 0.33744,-0.61056 0.33393,-1.04948 h 0.0186 v -7.325181 c 4.48322,0.817626 11.65035,0.650478 11.65035,-2.040662 -6.5e-4,-0.0019 -10e-4,-0.0034 -0.003,-0.0053 h 0.003 v -8.136151 c -1.0483,-3.033559 -4.2235,-4.496297 -7.42325,-4.481504 z M 40.802689,98.580102 v 0.02915 h -0.03181 c 0.0098,-0.01058 0.02202,-0.01854 0.03181,-0.02915 z" />
      <path
         id="path1304"
         style="fill:#f9f9f9;stroke-width:0"
         d="m 63.427607,9.6072725 c -2.428405,-0.012891 -4.864029,0.8706455 -6.641448,2.6873125 -3.536433,3.615144 -10.04518,9.854514 -15.715798,15.975463 -3.24629,3.246276 -2.825486,7.778365 0.747362,7.778365 h 8.764273 l 5.735074,-9.919734 3.532741,14.215722 10.672432,-6.744783 6.665299,3.519479 1.56893,-9.447997 7.977158,6.379054 C 87.586258,33.182663 87.60769,30.1659 86.084327,28.609275 L 70.018701,12.294585 C 68.276138,10.529359 65.855905,9.6183991 63.427607,9.6072725 Z" />
      <path
         id="rect15108"
         style="fill:#1a1a1a;fill-opacity:1;stroke-width:0"
         d="M 93.839844 68.076172 L 93.839844 83.199219 L 95.832031 83.199219 C 103.96475 80.520851 113.67615 77.562629 117.4082 72.841797 L 117.4082 68.076172 L 93.839844 68.076172 z " />
      <path
         id="rect21643"
         style="fill:#1a1a1a;fill-opacity:1;stroke-width:0"
         d="M 25.810547 80.457031 L 25.810547 90.951172 C 28.186579 92.010448 31.344064 93.053393 34.537109 94.097656 C 33.260714 94.553308 32.156096 95.22387 31.451172 96.023438 L 39.550781 96.023438 L 39.550781 80.457031 L 25.810547 80.457031 z " />
      <path
         id="rect22826"
         style="fill:#1a1a1a;fill-opacity:1;stroke-width:0"
         d="M 84.679688 74.128906 L 84.679688 88.339844 L 95.285156 88.339844 C 94.936629 86.994377 93.219549 85.836784 91.294922 84.751953 C 93.184201 84.064962 95.307951 83.368483 97.482422 82.65625 L 97.482422 74.128906 L 84.679688 74.128906 z " />
      <path
         id="path101"
         style="fill:#656565;fill-opacity:1;stroke-width:0.099463"
         d="m 63.063937,5.6531798 c -3.401203,-0.00556 -6.769178,1.2286808 -9.210012,3.7269234 L 13.247238,50.932712 c -13.71984814,16.99035 9.337064,15.013578 19.221233,19.907345 3.545491,3.624153 -13.58995,6.299238 -10.044345,9.926338 3.545548,3.624157 21.439838,6.982428 24.991437,10.606583 3.545652,3.624157 -7.257371,7.468971 -3.71188,11.093182 3.545659,3.62421 11.746177,0.1902 13.281677,8.55718 1.094255,5.97882 14.777851,2.56926 21.470111,-2.32746 3.545658,-3.62715 -6.782891,-3.28563 -3.237234,-6.90974 C 84.035344,92.769438 92.244971,98.509501 95.261541,89.47473 96.751737,85.010228 82.282146,82.592132 85.833852,78.967917 96.035399,73.010299 131.29488,69.132171 114.56435,52.401693 L 72.473565,9.3801032 C 69.899745,6.9091114 66.465254,5.659963 63.063937,5.6531798 Z m 0.364213,3.9544279 c 2.428298,0.011127 4.84798,0.9210953 6.590543,2.6863223 l 16.065572,16.316392 c 1.523363,1.556625 1.502221,4.573328 0.649593,5.44082 L 78.75696,27.67026 77.188286,37.11912 70.523111,33.600739 59.850205,40.344261 56.316631,26.128764 50.582577,36.049098 h -8.765685 c -3.572849,0 -3.993014,-4.534013 -0.746723,-7.780289 C 46.740787,22.14786 53.24864,15.909074 56.785073,12.29393 58.562492,10.477263 60.999462,9.5947089 63.427866,9.6076077 Z M 44.135474,73.088881 c 1.085138,0.674067 17.498311,4.00804 21.509385,4.673046 1.390376,0.29252 0.405617,1.725908 -1.511277,2.693209 C 59.811159,81.60374 38.8458,73.088881 44.135474,73.088881 Z m 64.126666,11.415444 c -3.40606,0.01113 -6.84007,1.7084 -7.76581,4.970405 0,2.061472 15.189,3.412616 15.189,-0.487156 -1.04831,-3.03356 -4.22344,-4.498536 -7.42319,-4.483743 z m -70.10387,8.933727 c -4.724949,0.03335 -10.14481,3.473014 -6.083215,6.990778 3.596902,3.11042 9.152667,-0.773723 10.818073,-5.114269 -1.007361,-1.338631 -2.813705,-1.889466 -4.734858,-1.876509 z m 60.433759,0.271393 c -4.636718,4.159143 0.520306,8.378785 5.090221,5.69157 1.01869,-1.033767 -0.028,-4.657865 -5.090221,-5.69157 z" />
      <path
         id="path1440"
         style="fill:#f9f9f9;stroke-width:0"
         d="m 44.136664,73.087739 c -5.289674,0 15.673478,8.516186 19.995901,7.367581 1.916893,-0.967301 2.903652,-2.400093 1.513275,-2.692612 -4.011074,-0.665007 -20.424038,-4.000902 -21.509176,-4.674969 z" />
    </g>
  </g>
</svg>
